%TF.GenerationSoftware,KiCad,Pcbnew,10.0.0*%
%TF.CreationDate,2026-04-19T20:27:00-03:00*%
%TF.ProjectId,Earth_Station,45617274-685f-4537-9461-74696f6e2e6b,rev?*%
%TF.SameCoordinates,Original*%
%TF.FileFunction,Soldermask,Top*%
%TF.FilePolarity,Negative*%
%FSLAX46Y46*%
G04 Gerber Fmt 4.6, Leading zero omitted, Abs format (unit mm)*
G04 Created by KiCad (PCBNEW 10.0.0) date 2026-04-19 20:27:00*
%MOMM*%
%LPD*%
G01*
G04 APERTURE LIST*
G04 Aperture macros list*
%AMRoundRect*
0 Rectangle with rounded corners*
0 $1 Rounding radius*
0 $2 $3 $4 $5 $6 $7 $8 $9 X,Y pos of 4 corners*
0 Add a 4 corners polygon primitive as box body*
4,1,4,$2,$3,$4,$5,$6,$7,$8,$9,$2,$3,0*
0 Add four circle primitives for the rounded corners*
1,1,$1+$1,$2,$3*
1,1,$1+$1,$4,$5*
1,1,$1+$1,$6,$7*
1,1,$1+$1,$8,$9*
0 Add four rect primitives between the rounded corners*
20,1,$1+$1,$2,$3,$4,$5,0*
20,1,$1+$1,$4,$5,$6,$7,0*
20,1,$1+$1,$6,$7,$8,$9,0*
20,1,$1+$1,$8,$9,$2,$3,0*%
G04 Aperture macros list end*
%ADD10RoundRect,0.250000X-0.450000X0.350000X-0.450000X-0.350000X0.450000X-0.350000X0.450000X0.350000X0*%
%ADD11R,1.000000X2.200000*%
%ADD12O,1.000000X2.200000*%
%ADD13RoundRect,0.250000X0.450000X-0.325000X0.450000X0.325000X-0.450000X0.325000X-0.450000X-0.325000X0*%
%ADD14R,3.000000X3.000000*%
%ADD15C,3.000000*%
%ADD16R,1.050000X0.650000*%
%ADD17RoundRect,0.250000X-0.350000X-0.450000X0.350000X-0.450000X0.350000X0.450000X-0.350000X0.450000X0*%
%ADD18RoundRect,0.250000X0.450000X-0.350000X0.450000X0.350000X-0.450000X0.350000X-0.450000X-0.350000X0*%
%ADD19RoundRect,0.250000X0.325000X0.450000X-0.325000X0.450000X-0.325000X-0.450000X0.325000X-0.450000X0*%
%ADD20R,1.700000X1.700000*%
%ADD21O,1.700000X1.700000*%
%ADD22R,1.900000X1.900000*%
%ADD23O,1.900000X1.900000*%
%ADD24C,4.300000*%
%ADD25R,1.900000X3.000000*%
%ADD26O,1.900000X3.000000*%
%ADD27C,2.400000*%
%ADD28RoundRect,0.250000X-1.000000X1.000000X-1.000000X-1.000000X1.000000X-1.000000X1.000000X1.000000X0*%
%ADD29RoundRect,0.250000X-0.250000X-0.475000X0.250000X-0.475000X0.250000X0.475000X-0.250000X0.475000X0*%
%ADD30O,3.500000X2.200000*%
%ADD31R,2.500000X1.500000*%
%ADD32O,2.500000X1.500000*%
%ADD33RoundRect,0.250000X-0.325000X-0.450000X0.325000X-0.450000X0.325000X0.450000X-0.325000X0.450000X0*%
%ADD34R,3.000000X1.000000*%
%ADD35O,3.000000X1.000000*%
%ADD36RoundRect,0.150000X-0.825000X-0.150000X0.825000X-0.150000X0.825000X0.150000X-0.825000X0.150000X0*%
%ADD37RoundRect,0.312500X-1.187500X-0.687500X1.187500X-0.687500X1.187500X0.687500X-1.187500X0.687500X0*%
%ADD38RoundRect,0.250001X1.074999X2.324999X-1.074999X2.324999X-1.074999X-2.324999X1.074999X-2.324999X0*%
%ADD39RoundRect,0.250000X0.300000X-2.050000X0.300000X2.050000X-0.300000X2.050000X-0.300000X-2.050000X0*%
%ADD40RoundRect,0.250002X5.149998X-4.449998X5.149998X4.449998X-5.149998X4.449998X-5.149998X-4.449998X0*%
%ADD41RoundRect,0.250000X-0.262500X-0.450000X0.262500X-0.450000X0.262500X0.450000X-0.262500X0.450000X0*%
%ADD42R,1.600000X1.600000*%
%ADD43O,1.600000X1.600000*%
%ADD44R,1.050000X1.500000*%
%ADD45O,1.050000X1.500000*%
%ADD46R,2.000000X2.000000*%
%ADD47C,2.000000*%
%ADD48RoundRect,0.250000X-1.250000X-0.550000X1.250000X-0.550000X1.250000X0.550000X-1.250000X0.550000X0*%
G04 APERTURE END LIST*
D10*
%TO.C,R10*%
X102360000Y-115985000D03*
X102360000Y-117985000D03*
%TD*%
D11*
%TO.C,J8*%
X113585000Y-70530000D03*
D12*
X114855000Y-70530000D03*
%TD*%
D13*
%TO.C,D11*%
X81960000Y-50135000D03*
X81960000Y-48085000D03*
%TD*%
D10*
%TO.C,R7*%
X59990000Y-108860000D03*
X59990000Y-110860000D03*
%TD*%
D14*
%TO.C,J2*%
X40000000Y-64000000D03*
D15*
X40000000Y-58920000D03*
X40000000Y-53840000D03*
%TD*%
D16*
%TO.C,SW2*%
X108185000Y-115915000D03*
X112335000Y-115915000D03*
X108185000Y-118065000D03*
X112310000Y-118065000D03*
%TD*%
D17*
%TO.C,R5*%
X121110000Y-83635000D03*
X123110000Y-83635000D03*
%TD*%
D10*
%TO.C,R11*%
X102380000Y-110305000D03*
X102380000Y-112305000D03*
%TD*%
D18*
%TO.C,R13*%
X115310000Y-96335000D03*
X115310000Y-94335000D03*
%TD*%
D19*
%TO.C,D2*%
X128230000Y-79820000D03*
X126180000Y-79820000D03*
%TD*%
D20*
%TO.C,J6*%
X67000000Y-100380000D03*
D21*
X67000000Y-102920000D03*
X67000000Y-105460000D03*
X67000000Y-108000000D03*
%TD*%
D22*
%TO.C,J16*%
X39000000Y-72000000D03*
D23*
X39000000Y-74540000D03*
%TD*%
D10*
%TO.C,R12*%
X102410000Y-104735000D03*
X102410000Y-106735000D03*
%TD*%
D19*
%TO.C,D4*%
X128230000Y-91360000D03*
X126180000Y-91360000D03*
%TD*%
D24*
%TO.C,REF\u002A\u002A*%
X36990000Y-118000000D03*
%TD*%
D25*
%TO.C,J1*%
X125585000Y-51060000D03*
D26*
X123045000Y-51060000D03*
%TD*%
D17*
%TO.C,R3*%
X121160000Y-87510000D03*
X123160000Y-87510000D03*
%TD*%
D24*
%TO.C,REF\u002A\u002A*%
X36990000Y-46010000D03*
%TD*%
D27*
%TO.C,K1*%
X65460000Y-52210000D03*
X51260000Y-58210000D03*
X51260000Y-46210000D03*
D28*
X63460000Y-46210000D03*
D27*
X63460000Y-58210000D03*
%TD*%
D18*
%TO.C,R15*%
X77760000Y-50110000D03*
X77760000Y-48110000D03*
%TD*%
D13*
%TO.C,D8*%
X47000000Y-115922500D03*
X47000000Y-113872500D03*
%TD*%
D29*
%TO.C,C6*%
X111110000Y-79810000D03*
X113010000Y-79810000D03*
%TD*%
D30*
%TO.C,SW1*%
X39000000Y-90100000D03*
X39000000Y-81900000D03*
D31*
X39000000Y-88000000D03*
D32*
X39000000Y-86000000D03*
X39000000Y-84000000D03*
%TD*%
D17*
%TO.C,R2*%
X121110000Y-79810000D03*
X123110000Y-79810000D03*
%TD*%
D33*
%TO.C,D1*%
X57717500Y-80900000D03*
X59767500Y-80900000D03*
%TD*%
D34*
%TO.C,J12*%
X111835000Y-54780000D03*
D35*
X111835000Y-56050000D03*
X111835000Y-57320000D03*
X111835000Y-58590000D03*
X111835000Y-59860000D03*
X111835000Y-61130000D03*
X111835000Y-62400000D03*
X111835000Y-63670000D03*
X111835000Y-64940000D03*
X111835000Y-66210000D03*
X111835000Y-67480000D03*
X111835000Y-68750000D03*
%TD*%
D29*
%TO.C,C1*%
X57690000Y-74540000D03*
X59590000Y-74540000D03*
%TD*%
D22*
%TO.C,esp32_1*%
X94910000Y-73870000D03*
D23*
X94910000Y-76410000D03*
X94910000Y-78950000D03*
X94910000Y-81490000D03*
X94910000Y-84030000D03*
X94910000Y-86570000D03*
X94910000Y-89110000D03*
X94910000Y-91650000D03*
X94910000Y-94190000D03*
X94910000Y-96730000D03*
X94910000Y-99270000D03*
X94910000Y-101810000D03*
X94910000Y-104350000D03*
X94910000Y-106890000D03*
X94910000Y-109430000D03*
X94910000Y-111970000D03*
X94910000Y-114510000D03*
X94910000Y-117050000D03*
X94910000Y-119590000D03*
%TD*%
D19*
%TO.C,D5*%
X128180000Y-83645000D03*
X126130000Y-83645000D03*
%TD*%
D16*
%TO.C,SW4*%
X108085000Y-103235000D03*
X112235000Y-103235000D03*
X108085000Y-105385000D03*
X112210000Y-105385000D03*
%TD*%
%TO.C,SW3*%
X108075000Y-109555000D03*
X112225000Y-109555000D03*
X108075000Y-111705000D03*
X112200000Y-111705000D03*
%TD*%
D36*
%TO.C,U1*%
X109585000Y-83600000D03*
X109585000Y-84870000D03*
X109585000Y-86140000D03*
X109585000Y-87410000D03*
X109585000Y-88680000D03*
X109585000Y-89950000D03*
X109585000Y-91220000D03*
X114535000Y-91220000D03*
X114535000Y-89950000D03*
X114535000Y-88680000D03*
X114535000Y-87410000D03*
X114535000Y-86140000D03*
X114535000Y-84870000D03*
X114535000Y-83600000D03*
%TD*%
D10*
%TO.C,R9*%
X55560000Y-108800000D03*
X55560000Y-110800000D03*
%TD*%
D24*
%TO.C,REF\u002A\u002A*%
X128960000Y-46010000D03*
%TD*%
D19*
%TO.C,D3*%
X128255000Y-87510000D03*
X126205000Y-87510000D03*
%TD*%
D37*
%TO.C,C2*%
X63950000Y-67990000D03*
X68350000Y-67990000D03*
%TD*%
D34*
%TO.C,J4*%
X128335000Y-54780000D03*
D35*
X128335000Y-56050000D03*
%TD*%
D38*
%TO.C,D12*%
X52535000Y-89235000D03*
X45985000Y-89235000D03*
%TD*%
D17*
%TO.C,R4*%
X121230000Y-91360000D03*
X123230000Y-91360000D03*
%TD*%
D20*
%TO.C,J5*%
X93335000Y-65535000D03*
D21*
X90795000Y-65535000D03*
X88255000Y-65535000D03*
X85715000Y-65535000D03*
X83175000Y-65535000D03*
X80635000Y-65535000D03*
X78095000Y-65535000D03*
X75555000Y-65535000D03*
%TD*%
D39*
%TO.C,U3*%
X47070000Y-83210000D03*
D40*
X49610000Y-74060000D03*
D39*
X52150000Y-83210000D03*
%TD*%
D29*
%TO.C,C4*%
X46710000Y-94635000D03*
X48610000Y-94635000D03*
%TD*%
D17*
%TO.C,R1*%
X57720000Y-77840000D03*
X59720000Y-77840000D03*
%TD*%
D41*
%TO.C,R14*%
X73947500Y-56310000D03*
X75772500Y-56310000D03*
%TD*%
D13*
%TO.C,D7*%
X59990000Y-115950000D03*
X59990000Y-113900000D03*
%TD*%
D24*
%TO.C,REF\u002A\u002A*%
X129010000Y-117990000D03*
%TD*%
D20*
%TO.C,J9*%
X101370000Y-65840000D03*
D21*
X101370000Y-68380000D03*
X101370000Y-70920000D03*
X101370000Y-73460000D03*
X101370000Y-76000000D03*
X101370000Y-78540000D03*
X101370000Y-81080000D03*
X101370000Y-83620000D03*
X101370000Y-86160000D03*
X101370000Y-88700000D03*
X101370000Y-91240000D03*
X101370000Y-93780000D03*
%TD*%
D42*
%TO.C,D10*%
X70660000Y-48710000D03*
D43*
X70660000Y-56330000D03*
%TD*%
D44*
%TO.C,Q1*%
X78620000Y-55710000D03*
D45*
X79890000Y-55710000D03*
X81160000Y-55710000D03*
%TD*%
D13*
%TO.C,D6*%
X51310000Y-115925000D03*
X51310000Y-113875000D03*
%TD*%
D29*
%TO.C,C5*%
X53660000Y-94685000D03*
X55560000Y-94685000D03*
%TD*%
D46*
%TO.C,BZ1*%
X124160000Y-101980785D03*
D47*
X124160000Y-96980785D03*
%TD*%
D14*
%TO.C,J15*%
X40000000Y-102100000D03*
D15*
X40000000Y-97020000D03*
%TD*%
D25*
%TO.C,J7*%
X113585000Y-74685000D03*
D26*
X116125000Y-74685000D03*
%TD*%
D13*
%TO.C,D9*%
X55560000Y-115900000D03*
X55560000Y-113850000D03*
%TD*%
D10*
%TO.C,R6*%
X51310000Y-108800000D03*
X51310000Y-110800000D03*
%TD*%
%TO.C,R8*%
X46940000Y-108787500D03*
X46940000Y-110787500D03*
%TD*%
D20*
%TO.C,J3*%
X67000000Y-78835000D03*
D21*
X67000000Y-81375000D03*
X67000000Y-83915000D03*
X67000000Y-86455000D03*
X67000000Y-88995000D03*
X67000000Y-91535000D03*
X67000000Y-94075000D03*
X67000000Y-96615000D03*
%TD*%
D48*
%TO.C,C3*%
X56360000Y-89100000D03*
X60760000Y-89100000D03*
%TD*%
D22*
%TO.C,esp1*%
X72010000Y-73875000D03*
D23*
X72010000Y-76415000D03*
X72010000Y-78955000D03*
X72010000Y-81495000D03*
X72010000Y-84035000D03*
X72010000Y-86575000D03*
X72010000Y-89115000D03*
X72010000Y-91655000D03*
X72010000Y-94195000D03*
X72010000Y-96735000D03*
X72010000Y-99275000D03*
X72010000Y-101815000D03*
X72010000Y-104355000D03*
X72010000Y-106895000D03*
X72010000Y-109435000D03*
X72010000Y-111975000D03*
X72010000Y-114515000D03*
X72010000Y-117055000D03*
X72010000Y-119595000D03*
%TD*%
D36*
%TO.C,U2*%
X52065000Y-97630000D03*
X52065000Y-98900000D03*
X52065000Y-100170000D03*
X52065000Y-101440000D03*
X52065000Y-102710000D03*
X52065000Y-103980000D03*
X52065000Y-105250000D03*
X57015000Y-105250000D03*
X57015000Y-103980000D03*
X57015000Y-102710000D03*
X57015000Y-101440000D03*
X57015000Y-100170000D03*
X57015000Y-98900000D03*
X57015000Y-97630000D03*
%TD*%
M02*
