%TF.GenerationSoftware,KiCad,Pcbnew,10.0.0*%
%TF.CreationDate,2026-04-19T20:27:00-03:00*%
%TF.ProjectId,Earth_Station,45617274-685f-4537-9461-74696f6e2e6b,rev?*%
%TF.SameCoordinates,Original*%
%TF.FileFunction,Paste,Top*%
%TF.FilePolarity,Positive*%
%FSLAX46Y46*%
G04 Gerber Fmt 4.6, Leading zero omitted, Abs format (unit mm)*
G04 Created by KiCad (PCBNEW 10.0.0) date 2026-04-19 20:27:00*
%MOMM*%
%LPD*%
G01*
G04 APERTURE LIST*
G04 Aperture macros list*
%AMRoundRect*
0 Rectangle with rounded corners*
0 $1 Rounding radius*
0 $2 $3 $4 $5 $6 $7 $8 $9 X,Y pos of 4 corners*
0 Add a 4 corners polygon primitive as box body*
4,1,4,$2,$3,$4,$5,$6,$7,$8,$9,$2,$3,0*
0 Add four circle primitives for the rounded corners*
1,1,$1+$1,$2,$3*
1,1,$1+$1,$4,$5*
1,1,$1+$1,$6,$7*
1,1,$1+$1,$8,$9*
0 Add four rect primitives between the rounded corners*
20,1,$1+$1,$2,$3,$4,$5,0*
20,1,$1+$1,$4,$5,$6,$7,0*
20,1,$1+$1,$6,$7,$8,$9,0*
20,1,$1+$1,$8,$9,$2,$3,0*%
G04 Aperture macros list end*
%ADD10RoundRect,0.250000X-0.450000X0.350000X-0.450000X-0.350000X0.450000X-0.350000X0.450000X0.350000X0*%
%ADD11R,1.000000X2.200000*%
%ADD12O,1.000000X2.200000*%
%ADD13RoundRect,0.250000X0.450000X-0.325000X0.450000X0.325000X-0.450000X0.325000X-0.450000X-0.325000X0*%
%ADD14R,1.050000X0.650000*%
%ADD15RoundRect,0.250000X-0.350000X-0.450000X0.350000X-0.450000X0.350000X0.450000X-0.350000X0.450000X0*%
%ADD16RoundRect,0.250000X0.450000X-0.350000X0.450000X0.350000X-0.450000X0.350000X-0.450000X-0.350000X0*%
%ADD17RoundRect,0.250000X0.325000X0.450000X-0.325000X0.450000X-0.325000X-0.450000X0.325000X-0.450000X0*%
%ADD18RoundRect,0.250000X-0.250000X-0.475000X0.250000X-0.475000X0.250000X0.475000X-0.250000X0.475000X0*%
%ADD19RoundRect,0.250000X-0.325000X-0.450000X0.325000X-0.450000X0.325000X0.450000X-0.325000X0.450000X0*%
%ADD20R,3.000000X1.000000*%
%ADD21O,3.000000X1.000000*%
%ADD22RoundRect,0.150000X-0.825000X-0.150000X0.825000X-0.150000X0.825000X0.150000X-0.825000X0.150000X0*%
%ADD23RoundRect,0.312500X-1.187500X-0.687500X1.187500X-0.687500X1.187500X0.687500X-1.187500X0.687500X0*%
%ADD24RoundRect,0.250001X1.074999X2.324999X-1.074999X2.324999X-1.074999X-2.324999X1.074999X-2.324999X0*%
%ADD25RoundRect,0.250000X0.300000X-2.050000X0.300000X2.050000X-0.300000X2.050000X-0.300000X-2.050000X0*%
%ADD26RoundRect,0.250000X2.375000X-2.025000X2.375000X2.025000X-2.375000X2.025000X-2.375000X-2.025000X0*%
%ADD27RoundRect,0.250000X-0.262500X-0.450000X0.262500X-0.450000X0.262500X0.450000X-0.262500X0.450000X0*%
%ADD28RoundRect,0.250000X-1.250000X-0.550000X1.250000X-0.550000X1.250000X0.550000X-1.250000X0.550000X0*%
G04 APERTURE END LIST*
D10*
%TO.C,R10*%
X102360000Y-115985000D03*
X102360000Y-117985000D03*
%TD*%
D11*
%TO.C,J8*%
X113585000Y-70530000D03*
D12*
X114855000Y-70530000D03*
%TD*%
D13*
%TO.C,D11*%
X81960000Y-50135000D03*
X81960000Y-48085000D03*
%TD*%
D10*
%TO.C,R7*%
X59990000Y-108860000D03*
X59990000Y-110860000D03*
%TD*%
D14*
%TO.C,SW2*%
X108185000Y-115915000D03*
X112335000Y-115915000D03*
X108185000Y-118065000D03*
X112310000Y-118065000D03*
%TD*%
D15*
%TO.C,R5*%
X121110000Y-83635000D03*
X123110000Y-83635000D03*
%TD*%
D10*
%TO.C,R11*%
X102380000Y-110305000D03*
X102380000Y-112305000D03*
%TD*%
D16*
%TO.C,R13*%
X115310000Y-96335000D03*
X115310000Y-94335000D03*
%TD*%
D17*
%TO.C,D2*%
X128230000Y-79820000D03*
X126180000Y-79820000D03*
%TD*%
D10*
%TO.C,R12*%
X102410000Y-104735000D03*
X102410000Y-106735000D03*
%TD*%
D17*
%TO.C,D4*%
X128230000Y-91360000D03*
X126180000Y-91360000D03*
%TD*%
D15*
%TO.C,R3*%
X121160000Y-87510000D03*
X123160000Y-87510000D03*
%TD*%
D16*
%TO.C,R15*%
X77760000Y-50110000D03*
X77760000Y-48110000D03*
%TD*%
D13*
%TO.C,D8*%
X47000000Y-115922500D03*
X47000000Y-113872500D03*
%TD*%
D18*
%TO.C,C6*%
X111110000Y-79810000D03*
X113010000Y-79810000D03*
%TD*%
D15*
%TO.C,R2*%
X121110000Y-79810000D03*
X123110000Y-79810000D03*
%TD*%
D19*
%TO.C,D1*%
X57717500Y-80900000D03*
X59767500Y-80900000D03*
%TD*%
D20*
%TO.C,J12*%
X111835000Y-54780000D03*
D21*
X111835000Y-56050000D03*
X111835000Y-57320000D03*
X111835000Y-58590000D03*
X111835000Y-59860000D03*
X111835000Y-61130000D03*
X111835000Y-62400000D03*
X111835000Y-63670000D03*
X111835000Y-64940000D03*
X111835000Y-66210000D03*
X111835000Y-67480000D03*
X111835000Y-68750000D03*
%TD*%
D18*
%TO.C,C1*%
X57690000Y-74540000D03*
X59590000Y-74540000D03*
%TD*%
D17*
%TO.C,D5*%
X128180000Y-83645000D03*
X126130000Y-83645000D03*
%TD*%
D14*
%TO.C,SW4*%
X108085000Y-103235000D03*
X112235000Y-103235000D03*
X108085000Y-105385000D03*
X112210000Y-105385000D03*
%TD*%
%TO.C,SW3*%
X108075000Y-109555000D03*
X112225000Y-109555000D03*
X108075000Y-111705000D03*
X112200000Y-111705000D03*
%TD*%
D22*
%TO.C,U1*%
X109585000Y-83600000D03*
X109585000Y-84870000D03*
X109585000Y-86140000D03*
X109585000Y-87410000D03*
X109585000Y-88680000D03*
X109585000Y-89950000D03*
X109585000Y-91220000D03*
X114535000Y-91220000D03*
X114535000Y-89950000D03*
X114535000Y-88680000D03*
X114535000Y-87410000D03*
X114535000Y-86140000D03*
X114535000Y-84870000D03*
X114535000Y-83600000D03*
%TD*%
D10*
%TO.C,R9*%
X55560000Y-108800000D03*
X55560000Y-110800000D03*
%TD*%
D17*
%TO.C,D3*%
X128255000Y-87510000D03*
X126205000Y-87510000D03*
%TD*%
D23*
%TO.C,C2*%
X63950000Y-67990000D03*
X68350000Y-67990000D03*
%TD*%
D20*
%TO.C,J4*%
X128335000Y-54780000D03*
D21*
X128335000Y-56050000D03*
%TD*%
D24*
%TO.C,D12*%
X52535000Y-89235000D03*
X45985000Y-89235000D03*
%TD*%
D15*
%TO.C,R4*%
X121230000Y-91360000D03*
X123230000Y-91360000D03*
%TD*%
D25*
%TO.C,U3*%
X47070000Y-83210000D03*
D26*
X46835000Y-76485000D03*
X52385000Y-76485000D03*
X46835000Y-71635000D03*
X52385000Y-71635000D03*
D25*
X52150000Y-83210000D03*
%TD*%
D18*
%TO.C,C4*%
X46710000Y-94635000D03*
X48610000Y-94635000D03*
%TD*%
D15*
%TO.C,R1*%
X57720000Y-77840000D03*
X59720000Y-77840000D03*
%TD*%
D27*
%TO.C,R14*%
X73947500Y-56310000D03*
X75772500Y-56310000D03*
%TD*%
D13*
%TO.C,D7*%
X59990000Y-115950000D03*
X59990000Y-113900000D03*
%TD*%
%TO.C,D6*%
X51310000Y-115925000D03*
X51310000Y-113875000D03*
%TD*%
D18*
%TO.C,C5*%
X53660000Y-94685000D03*
X55560000Y-94685000D03*
%TD*%
D13*
%TO.C,D9*%
X55560000Y-115900000D03*
X55560000Y-113850000D03*
%TD*%
D10*
%TO.C,R6*%
X51310000Y-108800000D03*
X51310000Y-110800000D03*
%TD*%
%TO.C,R8*%
X46940000Y-108787500D03*
X46940000Y-110787500D03*
%TD*%
D28*
%TO.C,C3*%
X56360000Y-89100000D03*
X60760000Y-89100000D03*
%TD*%
D22*
%TO.C,U2*%
X52065000Y-97630000D03*
X52065000Y-98900000D03*
X52065000Y-100170000D03*
X52065000Y-101440000D03*
X52065000Y-102710000D03*
X52065000Y-103980000D03*
X52065000Y-105250000D03*
X57015000Y-105250000D03*
X57015000Y-103980000D03*
X57015000Y-102710000D03*
X57015000Y-101440000D03*
X57015000Y-100170000D03*
X57015000Y-98900000D03*
X57015000Y-97630000D03*
%TD*%
M02*
