%TF.GenerationSoftware,KiCad,Pcbnew,10.0.0*%
%TF.CreationDate,2026-04-19T20:27:00-03:00*%
%TF.ProjectId,Earth_Station,45617274-685f-4537-9461-74696f6e2e6b,rev?*%
%TF.SameCoordinates,Original*%
%TF.FileFunction,Copper,L2,Bot*%
%TF.FilePolarity,Positive*%
%FSLAX46Y46*%
G04 Gerber Fmt 4.6, Leading zero omitted, Abs format (unit mm)*
G04 Created by KiCad (PCBNEW 10.0.0) date 2026-04-19 20:27:00*
%MOMM*%
%LPD*%
G01*
G04 APERTURE LIST*
G04 Aperture macros list*
%AMRoundRect*
0 Rectangle with rounded corners*
0 $1 Rounding radius*
0 $2 $3 $4 $5 $6 $7 $8 $9 X,Y pos of 4 corners*
0 Add a 4 corners polygon primitive as box body*
4,1,4,$2,$3,$4,$5,$6,$7,$8,$9,$2,$3,0*
0 Add four circle primitives for the rounded corners*
1,1,$1+$1,$2,$3*
1,1,$1+$1,$4,$5*
1,1,$1+$1,$6,$7*
1,1,$1+$1,$8,$9*
0 Add four rect primitives between the rounded corners*
20,1,$1+$1,$2,$3,$4,$5,0*
20,1,$1+$1,$4,$5,$6,$7,0*
20,1,$1+$1,$6,$7,$8,$9,0*
20,1,$1+$1,$8,$9,$2,$3,0*%
G04 Aperture macros list end*
%ADD10C,0.300000*%
%TA.AperFunction,NonConductor*%
%ADD11C,0.300000*%
%TD*%
%TA.AperFunction,ComponentPad*%
%ADD12R,3.000000X3.000000*%
%TD*%
%TA.AperFunction,ComponentPad*%
%ADD13C,3.000000*%
%TD*%
%TA.AperFunction,ComponentPad*%
%ADD14R,1.700000X1.700000*%
%TD*%
%TA.AperFunction,ComponentPad*%
%ADD15O,1.700000X1.700000*%
%TD*%
%TA.AperFunction,ComponentPad*%
%ADD16R,1.900000X1.900000*%
%TD*%
%TA.AperFunction,ComponentPad*%
%ADD17O,1.900000X1.900000*%
%TD*%
%TA.AperFunction,ComponentPad*%
%ADD18R,1.900000X3.000000*%
%TD*%
%TA.AperFunction,ComponentPad*%
%ADD19O,1.900000X3.000000*%
%TD*%
%TA.AperFunction,ComponentPad*%
%ADD20C,2.400000*%
%TD*%
%TA.AperFunction,ComponentPad*%
%ADD21RoundRect,0.250000X-1.000000X1.000000X-1.000000X-1.000000X1.000000X-1.000000X1.000000X1.000000X0*%
%TD*%
%TA.AperFunction,ComponentPad*%
%ADD22O,3.500000X2.200000*%
%TD*%
%TA.AperFunction,ComponentPad*%
%ADD23R,2.500000X1.500000*%
%TD*%
%TA.AperFunction,ComponentPad*%
%ADD24O,2.500000X1.500000*%
%TD*%
%TA.AperFunction,ComponentPad*%
%ADD25R,1.600000X1.600000*%
%TD*%
%TA.AperFunction,ComponentPad*%
%ADD26O,1.600000X1.600000*%
%TD*%
%TA.AperFunction,ComponentPad*%
%ADD27R,1.050000X1.500000*%
%TD*%
%TA.AperFunction,ComponentPad*%
%ADD28O,1.050000X1.500000*%
%TD*%
%TA.AperFunction,ComponentPad*%
%ADD29R,2.000000X2.000000*%
%TD*%
%TA.AperFunction,ComponentPad*%
%ADD30C,2.000000*%
%TD*%
%TA.AperFunction,ViaPad*%
%ADD31C,5.500000*%
%TD*%
%TA.AperFunction,ViaPad*%
%ADD32C,0.800000*%
%TD*%
%TA.AperFunction,Conductor*%
%ADD33C,0.600000*%
%TD*%
%TA.AperFunction,Conductor*%
%ADD34C,1.000000*%
%TD*%
%TA.AperFunction,Conductor*%
%ADD35C,1.500000*%
%TD*%
G04 APERTURE END LIST*
D10*
D11*
X122838346Y-195770828D02*
X123338346Y-195056542D01*
X123695489Y-195770828D02*
X123695489Y-194270828D01*
X123695489Y-194270828D02*
X123124060Y-194270828D01*
X123124060Y-194270828D02*
X122981203Y-194342257D01*
X122981203Y-194342257D02*
X122909774Y-194413685D01*
X122909774Y-194413685D02*
X122838346Y-194556542D01*
X122838346Y-194556542D02*
X122838346Y-194770828D01*
X122838346Y-194770828D02*
X122909774Y-194913685D01*
X122909774Y-194913685D02*
X122981203Y-194985114D01*
X122981203Y-194985114D02*
X123124060Y-195056542D01*
X123124060Y-195056542D02*
X123695489Y-195056542D01*
X121624060Y-195699400D02*
X121766917Y-195770828D01*
X121766917Y-195770828D02*
X122052632Y-195770828D01*
X122052632Y-195770828D02*
X122195489Y-195699400D01*
X122195489Y-195699400D02*
X122266917Y-195556542D01*
X122266917Y-195556542D02*
X122266917Y-194985114D01*
X122266917Y-194985114D02*
X122195489Y-194842257D01*
X122195489Y-194842257D02*
X122052632Y-194770828D01*
X122052632Y-194770828D02*
X121766917Y-194770828D01*
X121766917Y-194770828D02*
X121624060Y-194842257D01*
X121624060Y-194842257D02*
X121552632Y-194985114D01*
X121552632Y-194985114D02*
X121552632Y-195127971D01*
X121552632Y-195127971D02*
X122266917Y-195270828D01*
X121052632Y-194770828D02*
X120695489Y-195770828D01*
X120695489Y-195770828D02*
X120338346Y-194770828D01*
X117838346Y-195770828D02*
X118695489Y-195770828D01*
X118266918Y-195770828D02*
X118266918Y-194270828D01*
X118266918Y-194270828D02*
X118409775Y-194485114D01*
X118409775Y-194485114D02*
X118552632Y-194627971D01*
X118552632Y-194627971D02*
X118695489Y-194699400D01*
X117195490Y-195627971D02*
X117124061Y-195699400D01*
X117124061Y-195699400D02*
X117195490Y-195770828D01*
X117195490Y-195770828D02*
X117266918Y-195699400D01*
X117266918Y-195699400D02*
X117195490Y-195627971D01*
X117195490Y-195627971D02*
X117195490Y-195770828D01*
X116195489Y-194270828D02*
X116052632Y-194270828D01*
X116052632Y-194270828D02*
X115909775Y-194342257D01*
X115909775Y-194342257D02*
X115838347Y-194413685D01*
X115838347Y-194413685D02*
X115766918Y-194556542D01*
X115766918Y-194556542D02*
X115695489Y-194842257D01*
X115695489Y-194842257D02*
X115695489Y-195199400D01*
X115695489Y-195199400D02*
X115766918Y-195485114D01*
X115766918Y-195485114D02*
X115838347Y-195627971D01*
X115838347Y-195627971D02*
X115909775Y-195699400D01*
X115909775Y-195699400D02*
X116052632Y-195770828D01*
X116052632Y-195770828D02*
X116195489Y-195770828D01*
X116195489Y-195770828D02*
X116338347Y-195699400D01*
X116338347Y-195699400D02*
X116409775Y-195627971D01*
X116409775Y-195627971D02*
X116481204Y-195485114D01*
X116481204Y-195485114D02*
X116552632Y-195199400D01*
X116552632Y-195199400D02*
X116552632Y-194842257D01*
X116552632Y-194842257D02*
X116481204Y-194556542D01*
X116481204Y-194556542D02*
X116409775Y-194413685D01*
X116409775Y-194413685D02*
X116338347Y-194342257D01*
X116338347Y-194342257D02*
X116195489Y-194270828D01*
X115052633Y-195627971D02*
X114981204Y-195699400D01*
X114981204Y-195699400D02*
X115052633Y-195770828D01*
X115052633Y-195770828D02*
X115124061Y-195699400D01*
X115124061Y-195699400D02*
X115052633Y-195627971D01*
X115052633Y-195627971D02*
X115052633Y-195770828D01*
X114052632Y-194270828D02*
X113909775Y-194270828D01*
X113909775Y-194270828D02*
X113766918Y-194342257D01*
X113766918Y-194342257D02*
X113695490Y-194413685D01*
X113695490Y-194413685D02*
X113624061Y-194556542D01*
X113624061Y-194556542D02*
X113552632Y-194842257D01*
X113552632Y-194842257D02*
X113552632Y-195199400D01*
X113552632Y-195199400D02*
X113624061Y-195485114D01*
X113624061Y-195485114D02*
X113695490Y-195627971D01*
X113695490Y-195627971D02*
X113766918Y-195699400D01*
X113766918Y-195699400D02*
X113909775Y-195770828D01*
X113909775Y-195770828D02*
X114052632Y-195770828D01*
X114052632Y-195770828D02*
X114195490Y-195699400D01*
X114195490Y-195699400D02*
X114266918Y-195627971D01*
X114266918Y-195627971D02*
X114338347Y-195485114D01*
X114338347Y-195485114D02*
X114409775Y-195199400D01*
X114409775Y-195199400D02*
X114409775Y-194842257D01*
X114409775Y-194842257D02*
X114338347Y-194556542D01*
X114338347Y-194556542D02*
X114266918Y-194413685D01*
X114266918Y-194413685D02*
X114195490Y-194342257D01*
X114195490Y-194342257D02*
X114052632Y-194270828D01*
D10*
D11*
X122866917Y-192949400D02*
X122652632Y-193020828D01*
X122652632Y-193020828D02*
X122295489Y-193020828D01*
X122295489Y-193020828D02*
X122152632Y-192949400D01*
X122152632Y-192949400D02*
X122081203Y-192877971D01*
X122081203Y-192877971D02*
X122009774Y-192735114D01*
X122009774Y-192735114D02*
X122009774Y-192592257D01*
X122009774Y-192592257D02*
X122081203Y-192449400D01*
X122081203Y-192449400D02*
X122152632Y-192377971D01*
X122152632Y-192377971D02*
X122295489Y-192306542D01*
X122295489Y-192306542D02*
X122581203Y-192235114D01*
X122581203Y-192235114D02*
X122724060Y-192163685D01*
X122724060Y-192163685D02*
X122795489Y-192092257D01*
X122795489Y-192092257D02*
X122866917Y-191949400D01*
X122866917Y-191949400D02*
X122866917Y-191806542D01*
X122866917Y-191806542D02*
X122795489Y-191663685D01*
X122795489Y-191663685D02*
X122724060Y-191592257D01*
X122724060Y-191592257D02*
X122581203Y-191520828D01*
X122581203Y-191520828D02*
X122224060Y-191520828D01*
X122224060Y-191520828D02*
X122009774Y-191592257D01*
X121438346Y-192592257D02*
X120724061Y-192592257D01*
X121581203Y-193020828D02*
X121081203Y-191520828D01*
X121081203Y-191520828D02*
X120581203Y-193020828D01*
X119295489Y-191592257D02*
X119438347Y-191520828D01*
X119438347Y-191520828D02*
X119652632Y-191520828D01*
X119652632Y-191520828D02*
X119866918Y-191592257D01*
X119866918Y-191592257D02*
X120009775Y-191735114D01*
X120009775Y-191735114D02*
X120081204Y-191877971D01*
X120081204Y-191877971D02*
X120152632Y-192163685D01*
X120152632Y-192163685D02*
X120152632Y-192377971D01*
X120152632Y-192377971D02*
X120081204Y-192663685D01*
X120081204Y-192663685D02*
X120009775Y-192806542D01*
X120009775Y-192806542D02*
X119866918Y-192949400D01*
X119866918Y-192949400D02*
X119652632Y-193020828D01*
X119652632Y-193020828D02*
X119509775Y-193020828D01*
X119509775Y-193020828D02*
X119295489Y-192949400D01*
X119295489Y-192949400D02*
X119224061Y-192877971D01*
X119224061Y-192877971D02*
X119224061Y-192377971D01*
X119224061Y-192377971D02*
X119509775Y-192377971D01*
X118652632Y-192592257D02*
X117938347Y-192592257D01*
X118795489Y-193020828D02*
X118295489Y-191520828D01*
X118295489Y-191520828D02*
X117795489Y-193020828D01*
X116152633Y-193020828D02*
X116152633Y-191520828D01*
D10*
D11*
X145095489Y-195220828D02*
X145095489Y-196435114D01*
X145095489Y-196435114D02*
X145024060Y-196577971D01*
X145024060Y-196577971D02*
X144952632Y-196649400D01*
X144952632Y-196649400D02*
X144809774Y-196720828D01*
X144809774Y-196720828D02*
X144524060Y-196720828D01*
X144524060Y-196720828D02*
X144381203Y-196649400D01*
X144381203Y-196649400D02*
X144309774Y-196577971D01*
X144309774Y-196577971D02*
X144238346Y-196435114D01*
X144238346Y-196435114D02*
X144238346Y-195220828D01*
X143738345Y-195220828D02*
X142881203Y-195220828D01*
X143309774Y-196720828D02*
X143309774Y-195220828D01*
X142381203Y-196720828D02*
X142381203Y-195220828D01*
X142381203Y-195220828D02*
X141524060Y-196720828D01*
X141524060Y-196720828D02*
X141524060Y-195220828D01*
X139666917Y-196149400D02*
X138524060Y-196149400D01*
X136666917Y-195935114D02*
X136166917Y-195935114D01*
X135952631Y-196720828D02*
X136666917Y-196720828D01*
X136666917Y-196720828D02*
X136666917Y-195220828D01*
X136666917Y-195220828D02*
X135952631Y-195220828D01*
X135309774Y-195935114D02*
X134809774Y-195935114D01*
X134595488Y-196720828D02*
X135309774Y-196720828D01*
X135309774Y-196720828D02*
X135309774Y-195220828D01*
X135309774Y-195220828D02*
X134595488Y-195220828D01*
X134024059Y-196649400D02*
X133809774Y-196720828D01*
X133809774Y-196720828D02*
X133452631Y-196720828D01*
X133452631Y-196720828D02*
X133309774Y-196649400D01*
X133309774Y-196649400D02*
X133238345Y-196577971D01*
X133238345Y-196577971D02*
X133166916Y-196435114D01*
X133166916Y-196435114D02*
X133166916Y-196292257D01*
X133166916Y-196292257D02*
X133238345Y-196149400D01*
X133238345Y-196149400D02*
X133309774Y-196077971D01*
X133309774Y-196077971D02*
X133452631Y-196006542D01*
X133452631Y-196006542D02*
X133738345Y-195935114D01*
X133738345Y-195935114D02*
X133881202Y-195863685D01*
X133881202Y-195863685D02*
X133952631Y-195792257D01*
X133952631Y-195792257D02*
X134024059Y-195649400D01*
X134024059Y-195649400D02*
X134024059Y-195506542D01*
X134024059Y-195506542D02*
X133952631Y-195363685D01*
X133952631Y-195363685D02*
X133881202Y-195292257D01*
X133881202Y-195292257D02*
X133738345Y-195220828D01*
X133738345Y-195220828D02*
X133381202Y-195220828D01*
X133381202Y-195220828D02*
X133166916Y-195292257D01*
X132738345Y-195220828D02*
X131881203Y-195220828D01*
X132309774Y-196720828D02*
X132309774Y-195220828D01*
X131381203Y-196720828D02*
X131381203Y-195220828D01*
X131381203Y-195220828D02*
X130524060Y-196720828D01*
X130524060Y-196720828D02*
X130524060Y-195220828D01*
X129738345Y-195792257D02*
X129881202Y-195720828D01*
X129881202Y-195720828D02*
X129952631Y-195577971D01*
X129952631Y-195577971D02*
X129952631Y-195292257D01*
X129952631Y-195292257D02*
X129881202Y-195149400D01*
X129881202Y-195149400D02*
X129738345Y-195077971D01*
X129738345Y-195077971D02*
X129595488Y-195077971D01*
X129595488Y-195077971D02*
X129452631Y-195149400D01*
X129452631Y-195149400D02*
X129381202Y-195292257D01*
X129381202Y-195292257D02*
X129381202Y-195577971D01*
X129381202Y-195577971D02*
X129452631Y-195720828D01*
X129452631Y-195720828D02*
X129595488Y-195792257D01*
X129595488Y-195792257D02*
X129738345Y-195792257D01*
X128166917Y-195720828D02*
X128166917Y-196720828D01*
X128524059Y-195149400D02*
X128881202Y-196220828D01*
X128881202Y-196220828D02*
X127952631Y-196220828D01*
D10*
D11*
X143138346Y-192377971D02*
X143209774Y-192449400D01*
X143209774Y-192449400D02*
X143424060Y-192520828D01*
X143424060Y-192520828D02*
X143566917Y-192520828D01*
X143566917Y-192520828D02*
X143781203Y-192449400D01*
X143781203Y-192449400D02*
X143924060Y-192306542D01*
X143924060Y-192306542D02*
X143995489Y-192163685D01*
X143995489Y-192163685D02*
X144066917Y-191877971D01*
X144066917Y-191877971D02*
X144066917Y-191663685D01*
X144066917Y-191663685D02*
X143995489Y-191377971D01*
X143995489Y-191377971D02*
X143924060Y-191235114D01*
X143924060Y-191235114D02*
X143781203Y-191092257D01*
X143781203Y-191092257D02*
X143566917Y-191020828D01*
X143566917Y-191020828D02*
X143424060Y-191020828D01*
X143424060Y-191020828D02*
X143209774Y-191092257D01*
X143209774Y-191092257D02*
X143138346Y-191163685D01*
X142566917Y-192092257D02*
X141852632Y-192092257D01*
X142709774Y-192520828D02*
X142209774Y-191020828D01*
X142209774Y-191020828D02*
X141709774Y-192520828D01*
X141209775Y-192520828D02*
X141209775Y-191020828D01*
X141209775Y-191020828D02*
X140352632Y-192520828D01*
X140352632Y-192520828D02*
X140352632Y-191020828D01*
X139709774Y-192449400D02*
X139495489Y-192520828D01*
X139495489Y-192520828D02*
X139138346Y-192520828D01*
X139138346Y-192520828D02*
X138995489Y-192449400D01*
X138995489Y-192449400D02*
X138924060Y-192377971D01*
X138924060Y-192377971D02*
X138852631Y-192235114D01*
X138852631Y-192235114D02*
X138852631Y-192092257D01*
X138852631Y-192092257D02*
X138924060Y-191949400D01*
X138924060Y-191949400D02*
X138995489Y-191877971D01*
X138995489Y-191877971D02*
X139138346Y-191806542D01*
X139138346Y-191806542D02*
X139424060Y-191735114D01*
X139424060Y-191735114D02*
X139566917Y-191663685D01*
X139566917Y-191663685D02*
X139638346Y-191592257D01*
X139638346Y-191592257D02*
X139709774Y-191449400D01*
X139709774Y-191449400D02*
X139709774Y-191306542D01*
X139709774Y-191306542D02*
X139638346Y-191163685D01*
X139638346Y-191163685D02*
X139566917Y-191092257D01*
X139566917Y-191092257D02*
X139424060Y-191020828D01*
X139424060Y-191020828D02*
X139066917Y-191020828D01*
X139066917Y-191020828D02*
X138852631Y-191092257D01*
X138281203Y-192092257D02*
X137566918Y-192092257D01*
X138424060Y-192520828D02*
X137924060Y-191020828D01*
X137924060Y-191020828D02*
X137424060Y-192520828D01*
X137138346Y-191020828D02*
X136281204Y-191020828D01*
X136709775Y-192520828D02*
X136709775Y-191020828D01*
X134709775Y-191163685D02*
X134638347Y-191092257D01*
X134638347Y-191092257D02*
X134495490Y-191020828D01*
X134495490Y-191020828D02*
X134138347Y-191020828D01*
X134138347Y-191020828D02*
X133995490Y-191092257D01*
X133995490Y-191092257D02*
X133924061Y-191163685D01*
X133924061Y-191163685D02*
X133852632Y-191306542D01*
X133852632Y-191306542D02*
X133852632Y-191449400D01*
X133852632Y-191449400D02*
X133924061Y-191663685D01*
X133924061Y-191663685D02*
X134781204Y-192520828D01*
X134781204Y-192520828D02*
X133852632Y-192520828D01*
X132924061Y-191020828D02*
X132781204Y-191020828D01*
X132781204Y-191020828D02*
X132638347Y-191092257D01*
X132638347Y-191092257D02*
X132566919Y-191163685D01*
X132566919Y-191163685D02*
X132495490Y-191306542D01*
X132495490Y-191306542D02*
X132424061Y-191592257D01*
X132424061Y-191592257D02*
X132424061Y-191949400D01*
X132424061Y-191949400D02*
X132495490Y-192235114D01*
X132495490Y-192235114D02*
X132566919Y-192377971D01*
X132566919Y-192377971D02*
X132638347Y-192449400D01*
X132638347Y-192449400D02*
X132781204Y-192520828D01*
X132781204Y-192520828D02*
X132924061Y-192520828D01*
X132924061Y-192520828D02*
X133066919Y-192449400D01*
X133066919Y-192449400D02*
X133138347Y-192377971D01*
X133138347Y-192377971D02*
X133209776Y-192235114D01*
X133209776Y-192235114D02*
X133281204Y-191949400D01*
X133281204Y-191949400D02*
X133281204Y-191592257D01*
X133281204Y-191592257D02*
X133209776Y-191306542D01*
X133209776Y-191306542D02*
X133138347Y-191163685D01*
X133138347Y-191163685D02*
X133066919Y-191092257D01*
X133066919Y-191092257D02*
X132924061Y-191020828D01*
X131852633Y-191163685D02*
X131781205Y-191092257D01*
X131781205Y-191092257D02*
X131638348Y-191020828D01*
X131638348Y-191020828D02*
X131281205Y-191020828D01*
X131281205Y-191020828D02*
X131138348Y-191092257D01*
X131138348Y-191092257D02*
X131066919Y-191163685D01*
X131066919Y-191163685D02*
X130995490Y-191306542D01*
X130995490Y-191306542D02*
X130995490Y-191449400D01*
X130995490Y-191449400D02*
X131066919Y-191663685D01*
X131066919Y-191663685D02*
X131924062Y-192520828D01*
X131924062Y-192520828D02*
X130995490Y-192520828D01*
X129709777Y-191520828D02*
X129709777Y-192520828D01*
X130066919Y-190949400D02*
X130424062Y-192020828D01*
X130424062Y-192020828D02*
X129495491Y-192020828D01*
D10*
D11*
X116852632Y-193000114D02*
X115328822Y-193000114D01*
D10*
D11*
X116852632Y-191400114D02*
X115328822Y-191400114D01*
D12*
%TO.P,J2,1,Pin_1*%
%TO.N,CLOAD*%
X40000000Y-64000000D03*
D13*
%TO.P,J2,2,Pin_2*%
%TO.N,NCLOAD*%
X40000000Y-58920000D03*
%TO.P,J2,3,Pin_3*%
%TO.N,NALOAD*%
X40000000Y-53840000D03*
%TD*%
D14*
%TO.P,J6,1,Pin_1*%
%TO.N,VCC*%
X67000000Y-100380000D03*
D15*
%TO.P,J6,2,Pin_2*%
%TO.N,RXGPS*%
X67000000Y-102920000D03*
%TO.P,J6,3,Pin_3*%
%TO.N,TXGPS*%
X67000000Y-105460000D03*
%TO.P,J6,4,Pin_4*%
%TO.N,GND*%
X67000000Y-108000000D03*
%TD*%
D16*
%TO.P,J16,1,Pin_1*%
%TO.N,5v*%
X39000000Y-72000000D03*
D17*
%TO.P,J16,2,Pin_2*%
%TO.N,GND*%
X39000000Y-74540000D03*
%TD*%
D18*
%TO.P,J1,1,Pin_1*%
%TO.N,ANTENA*%
X125585000Y-51060000D03*
D19*
%TO.P,J1,2,Pin_2*%
%TO.N,GND*%
X123045000Y-51060000D03*
%TD*%
D20*
%TO.P,K1,11*%
%TO.N,CLOAD*%
X65460000Y-52210000D03*
%TO.P,K1,12*%
%TO.N,NCLOAD*%
X51260000Y-58210000D03*
%TO.P,K1,14*%
%TO.N,NALOAD*%
X51260000Y-46210000D03*
D21*
%TO.P,K1,A1*%
%TO.N,5v*%
X63460000Y-46210000D03*
D20*
%TO.P,K1,A2*%
%TO.N,Net-(D10-A)*%
X63460000Y-58210000D03*
%TD*%
D22*
%TO.P,SW1,*%
%TO.N,*%
X39000000Y-90100000D03*
X39000000Y-81900000D03*
D23*
%TO.P,SW1,1,A*%
%TO.N,VregIn*%
X39000000Y-88000000D03*
D24*
%TO.P,SW1,2,B*%
%TO.N,INVolt*%
X39000000Y-86000000D03*
%TO.P,SW1,3,C*%
%TO.N,unconnected-(SW1-C-Pad3)*%
X39000000Y-84000000D03*
%TD*%
D16*
%TO.P,esp32_1,1,Pin_1*%
%TO.N,GND*%
X94910000Y-73870000D03*
D17*
%TO.P,esp32_1,2,Pin_2*%
%TO.N,MOSI*%
X94910000Y-76410000D03*
%TO.P,esp32_1,3,Pin_3*%
%TO.N,SCLMPU*%
X94910000Y-78950000D03*
%TO.P,esp32_1,4,Pin_4*%
%TO.N,INTERNAL8*%
X94910000Y-81490000D03*
%TO.P,esp32_1,5,Pin_5*%
%TO.N,INTERNAL7*%
X94910000Y-84030000D03*
%TO.P,esp32_1,6,Pin_6*%
%TO.N,SDAMPU*%
X94910000Y-86570000D03*
%TO.P,esp32_1,7,Pin_7*%
%TO.N,GND*%
X94910000Y-89110000D03*
%TO.P,esp32_1,8,Pin_8*%
%TO.N,MISO*%
X94910000Y-91650000D03*
%TO.P,esp32_1,9,Pin_9*%
%TO.N,SLCK*%
X94910000Y-94190000D03*
%TO.P,esp32_1,10,Pin_10*%
%TO.N,NSS*%
X94910000Y-96730000D03*
%TO.P,esp32_1,11,Pin_11*%
%TO.N,DIO0*%
X94910000Y-99270000D03*
%TO.P,esp32_1,12,Pin_12*%
%TO.N,GPIO16*%
X94910000Y-101810000D03*
%TO.P,esp32_1,13,Pin_13*%
%TO.N,GPIO4*%
X94910000Y-104350000D03*
%TO.P,esp32_1,14,Pin_14*%
%TO.N,BUZZ*%
X94910000Y-106890000D03*
%TO.P,esp32_1,15,Pin_15*%
%TO.N,GPIO2*%
X94910000Y-109430000D03*
%TO.P,esp32_1,16,Pin_16*%
%TO.N,GPIO15*%
X94910000Y-111970000D03*
%TO.P,esp32_1,17,Pin_17*%
%TO.N,INTERNAL6*%
X94910000Y-114510000D03*
%TO.P,esp32_1,18,Pin_18*%
%TO.N,INTERNAL5*%
X94910000Y-117050000D03*
%TO.P,esp32_1,19,Pin_19*%
%TO.N,INTERNAL4*%
X94910000Y-119590000D03*
%TD*%
D14*
%TO.P,J5,1,Pin_1*%
%TO.N,VCC*%
X93335000Y-65535000D03*
D15*
%TO.P,J5,2,Pin_2*%
%TO.N,GND*%
X90795000Y-65535000D03*
%TO.P,J5,3,Pin_3*%
%TO.N,SCLMPU*%
X88255000Y-65535000D03*
%TO.P,J5,4,Pin_4*%
%TO.N,SDAMPU*%
X85715000Y-65535000D03*
%TO.P,J5,5,Pin_5*%
%TO.N,unconnected-(J5-Pin_5-Pad5)*%
X83175000Y-65535000D03*
%TO.P,J5,6,Pin_6*%
%TO.N,unconnected-(J5-Pin_6-Pad6)*%
X80635000Y-65535000D03*
%TO.P,J5,7,Pin_7*%
%TO.N,unconnected-(J5-Pin_7-Pad7)*%
X78095000Y-65535000D03*
%TO.P,J5,8,Pin_8*%
%TO.N,unconnected-(J5-Pin_8-Pad8)*%
X75555000Y-65535000D03*
%TD*%
D14*
%TO.P,J9,1,Pin_1*%
%TO.N,GND*%
X101370000Y-65840000D03*
D15*
%TO.P,J9,2,Pin_2*%
%TO.N,DIO1*%
X101370000Y-68380000D03*
%TO.P,J9,3,Pin_3*%
%TO.N,DIO2*%
X101370000Y-70920000D03*
%TO.P,J9,4,Pin_4*%
%TO.N,DIO3*%
X101370000Y-73460000D03*
%TO.P,J9,5,Pin_5*%
%TO.N,VCC*%
X101370000Y-76000000D03*
%TO.P,J9,6,Pin_6*%
%TO.N,MISO*%
X101370000Y-78540000D03*
%TO.P,J9,7,Pin_7*%
%TO.N,MOSI*%
X101370000Y-81080000D03*
%TO.P,J9,8,Pin_8*%
%TO.N,SLCK*%
X101370000Y-83620000D03*
%TO.P,J9,9,Pin_9*%
%TO.N,NSS*%
X101370000Y-86160000D03*
%TO.P,J9,10,Pin_10*%
%TO.N,DIO0*%
X101370000Y-88700000D03*
%TO.P,J9,11,Pin_11*%
%TO.N,REST*%
X101370000Y-91240000D03*
%TO.P,J9,12,Pin_12*%
%TO.N,GND*%
X101370000Y-93780000D03*
%TD*%
D25*
%TO.P,D10,1,K*%
%TO.N,5v*%
X70660000Y-48710000D03*
D26*
%TO.P,D10,2,A*%
%TO.N,Net-(D10-A)*%
X70660000Y-56330000D03*
%TD*%
D27*
%TO.P,Q1,1,C*%
%TO.N,Net-(D10-A)*%
X78620000Y-55710000D03*
D28*
%TO.P,Q1,2,B*%
%TO.N,Net-(Q1-B)*%
X79890000Y-55710000D03*
%TO.P,Q1,3,E*%
%TO.N,GND*%
X81160000Y-55710000D03*
%TD*%
D29*
%TO.P,BZ1,1,+*%
%TO.N,Net-(BZ1-+)*%
X124160000Y-101980785D03*
D30*
%TO.P,BZ1,2,-*%
%TO.N,GND*%
X124160000Y-96980785D03*
%TD*%
D12*
%TO.P,J15,1,Pin_1*%
%TO.N,GND*%
X40000000Y-102100000D03*
D13*
%TO.P,J15,2,Pin_2*%
%TO.N,INVolt*%
X40000000Y-97020000D03*
%TD*%
D18*
%TO.P,J7,1,Pin_1*%
%TO.N,DIO4*%
X113585000Y-74685000D03*
D19*
%TO.P,J7,2,Pin_2*%
%TO.N,DIO5*%
X116125000Y-74685000D03*
%TD*%
D14*
%TO.P,J3,1,Pin_1*%
%TO.N,GPIO36*%
X67000000Y-78835000D03*
D15*
%TO.P,J3,2,Pin_2*%
%TO.N,GPIO39*%
X67000000Y-81375000D03*
%TO.P,J3,3,Pin_3*%
%TO.N,GPIO34*%
X67000000Y-83915000D03*
%TO.P,J3,4,Pin_4*%
%TO.N,GPIO35*%
X67000000Y-86455000D03*
%TO.P,J3,5,Pin_5*%
%TO.N,GPIO32*%
X67000000Y-88995000D03*
%TO.P,J3,6,Pin_6*%
%TO.N,GPIO33*%
X67000000Y-91535000D03*
%TO.P,J3,7,Pin_7*%
%TO.N,VCC*%
X67000000Y-94075000D03*
%TO.P,J3,8,Pin_8*%
%TO.N,GND*%
X67000000Y-96615000D03*
%TD*%
D16*
%TO.P,esp1,1,Pin_1*%
%TO.N,VCC*%
X72010000Y-73875000D03*
D17*
%TO.P,esp1,2,Pin_2*%
%TO.N,EnableESP32*%
X72010000Y-76415000D03*
%TO.P,esp1,3,Pin_3*%
%TO.N,GPIO36*%
X72010000Y-78955000D03*
%TO.P,esp1,4,Pin_4*%
%TO.N,GPIO39*%
X72010000Y-81495000D03*
%TO.P,esp1,5,Pin_5*%
%TO.N,GPIO34*%
X72010000Y-84035000D03*
%TO.P,esp1,6,Pin_6*%
%TO.N,GPIO35*%
X72010000Y-86575000D03*
%TO.P,esp1,7,Pin_7*%
%TO.N,GPIO32*%
X72010000Y-89115000D03*
%TO.P,esp1,8,Pin_8*%
%TO.N,GPIO33*%
X72010000Y-91655000D03*
%TO.P,esp1,9,Pin_9*%
%TO.N,RXGPS*%
X72010000Y-94195000D03*
%TO.P,esp1,10,Pin_10*%
%TO.N,TXGPS*%
X72010000Y-96735000D03*
%TO.P,esp1,11,Pin_11*%
%TO.N,HSS*%
X72010000Y-99275000D03*
%TO.P,esp1,12,Pin_12*%
%TO.N,HCLK*%
X72010000Y-101815000D03*
%TO.P,esp1,13,Pin_13*%
%TO.N,HMISO*%
X72010000Y-104355000D03*
%TO.P,esp1,14,Pin_14*%
%TO.N,GND*%
X72010000Y-106895000D03*
%TO.P,esp1,15,Pin_15*%
%TO.N,HMOSI*%
X72010000Y-109435000D03*
%TO.P,esp1,16,Pin_16*%
%TO.N,INTERNAL1*%
X72010000Y-111975000D03*
%TO.P,esp1,17,Pin_17*%
%TO.N,INTERNAL2*%
X72010000Y-114515000D03*
%TO.P,esp1,18,Pin_18*%
%TO.N,INTERNAL3*%
X72010000Y-117055000D03*
%TO.P,esp1,19,Pin_19*%
%TO.N,5v*%
X72010000Y-119595000D03*
%TD*%
D31*
%TO.N,*%
X129000000Y-46000000D03*
X129000000Y-118000000D03*
X37000000Y-46000000D03*
X37000000Y-118000000D03*
D32*
%TO.N,GND*%
X64210000Y-111160000D03*
X66190000Y-71490000D03*
X57360000Y-93410000D03*
X65460000Y-76210000D03*
%TO.N,VCC*%
X114010000Y-103660000D03*
X92510000Y-70660000D03*
%TO.N,MISO*%
X99160000Y-99960000D03*
X107610000Y-90110000D03*
%TO.N,MOSI*%
X104110000Y-82960000D03*
X104110000Y-78310000D03*
%TO.N,NSS*%
X114240000Y-64940000D03*
%TO.N,DIO0*%
X114260000Y-66210000D03*
%TO.N,REST*%
X114260000Y-67510000D03*
%TO.N,HMISO*%
X59010000Y-102710000D03*
%TO.N,RXGPS*%
X61610000Y-95410000D03*
X49960000Y-100210000D03*
%TO.N,GPIO16*%
X102435000Y-103230000D03*
%TO.N,GPIO4*%
X98460000Y-108260000D03*
X105410000Y-109560000D03*
%TO.N,TXGPS*%
X54360000Y-102710000D03*
X61710000Y-102960000D03*
%TO.N,BUZZ*%
X113135000Y-95110000D03*
X116780000Y-86140000D03*
%TO.N,SDAMPU*%
X114760000Y-100910000D03*
X111260000Y-96660000D03*
X116810000Y-88710000D03*
%TO.N,5v*%
X49960000Y-101460000D03*
X50260000Y-94685000D03*
X116060000Y-77760000D03*
X108910000Y-79860000D03*
%TO.N,VregIn*%
X49560000Y-83400000D03*
X57260000Y-84535000D03*
%TO.N,Net-(U1A--)*%
X119010000Y-79910000D03*
X109560000Y-81660000D03*
%TO.N,Net-(U1B--)*%
X119260000Y-87560000D03*
X111450000Y-89950000D03*
%TO.N,Net-(U2A--)*%
X47860000Y-102510000D03*
X51310000Y-107010000D03*
%TO.N,Net-(U2D--)*%
X55560000Y-107060000D03*
X59510000Y-98960000D03*
%TO.N,Net-(D12-A)*%
X54610000Y-83260000D03*
X44660000Y-94610000D03*
%TD*%
%TO.N,GND*%
D33*
X44720000Y-102100000D02*
X40000000Y-102100000D01*
X90795000Y-60845000D02*
X90795000Y-65535000D01*
X64965000Y-96615000D02*
X61760000Y-93410000D01*
X64210000Y-111160000D02*
X64210000Y-108615000D01*
X123045000Y-51060000D02*
X110010000Y-51060000D01*
X94910000Y-73870000D02*
X94910000Y-70360000D01*
X63890000Y-107065000D02*
X64825000Y-108000000D01*
X94910000Y-70360000D02*
X99430000Y-65840000D01*
X90795000Y-67395000D02*
X90795000Y-65535000D01*
X81160000Y-60730000D02*
X81160000Y-55710000D01*
X66190000Y-71490000D02*
X76130000Y-61550000D01*
X80340000Y-61550000D02*
X81160000Y-60730000D01*
X67000000Y-96615000D02*
X65005000Y-96615000D01*
X64825000Y-108000000D02*
X67000000Y-108000000D01*
X65005000Y-96615000D02*
X63890000Y-97730000D01*
X110010000Y-51060000D02*
X101370000Y-59700000D01*
X94910000Y-70360000D02*
X92610000Y-68060000D01*
X101370000Y-59700000D02*
X101370000Y-65840000D01*
X81160000Y-55710000D02*
X85660000Y-55710000D01*
X85660000Y-55710000D02*
X90795000Y-60845000D01*
X63890000Y-97730000D02*
X63890000Y-107065000D01*
X65460000Y-76210000D02*
X65460000Y-72220000D01*
X64210000Y-108615000D02*
X64825000Y-108000000D01*
X65005000Y-96615000D02*
X64965000Y-96615000D01*
X91460000Y-68060000D02*
X90795000Y-67395000D01*
X65460000Y-72220000D02*
X66190000Y-71490000D01*
X92610000Y-68060000D02*
X91460000Y-68060000D01*
X61760000Y-93410000D02*
X53410000Y-93410000D01*
X99430000Y-65840000D02*
X101370000Y-65840000D01*
X53410000Y-93410000D02*
X44720000Y-102100000D01*
X76130000Y-61550000D02*
X80340000Y-61550000D01*
%TO.N,VCC*%
X131010000Y-86660000D02*
X114010000Y-103660000D01*
X67000000Y-94075000D02*
X68225000Y-94075000D01*
X93335000Y-63335000D02*
X108510000Y-48160000D01*
X72010000Y-73875000D02*
X89295000Y-73875000D01*
X89295000Y-73875000D02*
X92510000Y-70660000D01*
X108510000Y-48160000D02*
X126036903Y-48160000D01*
X68760000Y-99760000D02*
X68140000Y-100380000D01*
X131010000Y-53133097D02*
X131010000Y-86660000D01*
X68225000Y-94075000D02*
X68760000Y-94610000D01*
X68760000Y-94610000D02*
X68760000Y-99760000D01*
X68140000Y-100380000D02*
X67000000Y-100380000D01*
X93335000Y-65535000D02*
X93335000Y-63335000D01*
X126036903Y-48160000D02*
X131010000Y-53133097D01*
%TO.N,MISO*%
X94910000Y-91650000D02*
X95945000Y-91650000D01*
X99460000Y-81260000D02*
X99460000Y-79085000D01*
X96860000Y-90735000D02*
X96860000Y-83860000D01*
X95945000Y-91650000D02*
X96860000Y-90735000D01*
X99460000Y-79085000D02*
X100005000Y-78540000D01*
X96860000Y-83860000D02*
X99460000Y-81260000D01*
X100005000Y-78540000D02*
X101370000Y-78540000D01*
X99160000Y-99960000D02*
X107610000Y-91510000D01*
X107610000Y-90110000D02*
X107610000Y-90060000D01*
X107610000Y-91510000D02*
X107610000Y-90110000D01*
%TO.N,MOSI*%
X104110000Y-78310000D02*
X104110000Y-82960000D01*
%TO.N,SLCK*%
X99725000Y-83620000D02*
X101370000Y-83620000D01*
X94910000Y-94190000D02*
X96930000Y-94190000D01*
X96930000Y-94190000D02*
X97935000Y-93185000D01*
X97935000Y-93185000D02*
X97935000Y-85410000D01*
X97935000Y-85410000D02*
X99725000Y-83620000D01*
%TO.N,NSS*%
X110180000Y-64940000D02*
X105510000Y-69610000D01*
X105510000Y-69610000D02*
X105510000Y-83610000D01*
X98835000Y-87360000D02*
X100035000Y-86160000D01*
X105510000Y-83610000D02*
X102960000Y-86160000D01*
X97240000Y-96730000D02*
X98835000Y-95135000D01*
X98835000Y-95135000D02*
X98835000Y-87360000D01*
X94910000Y-96730000D02*
X97240000Y-96730000D01*
X102960000Y-86160000D02*
X101370000Y-86160000D01*
X114240000Y-64940000D02*
X110180000Y-64940000D01*
X100035000Y-86160000D02*
X101370000Y-86160000D01*
%TO.N,DIO0*%
X99710000Y-96860000D02*
X99710000Y-89185000D01*
X100195000Y-88700000D02*
X101370000Y-88700000D01*
X97300000Y-99270000D02*
X99710000Y-96860000D01*
X106410000Y-70360000D02*
X106410000Y-85910000D01*
X99710000Y-89185000D02*
X100195000Y-88700000D01*
X106410000Y-85910000D02*
X103620000Y-88700000D01*
X110560000Y-66210000D02*
X106410000Y-70360000D01*
X114260000Y-66210000D02*
X110560000Y-66210000D01*
X103620000Y-88700000D02*
X101370000Y-88700000D01*
X94910000Y-99270000D02*
X97300000Y-99270000D01*
%TO.N,REST*%
X114260000Y-67510000D02*
X110910000Y-67510000D01*
X110910000Y-67510000D02*
X107360000Y-71060000D01*
X107360000Y-88160000D02*
X104280000Y-91240000D01*
X104280000Y-91240000D02*
X101370000Y-91240000D01*
X107360000Y-71060000D02*
X107360000Y-88160000D01*
%TO.N,GPIO35*%
X71890000Y-86455000D02*
X72010000Y-86575000D01*
X67000000Y-86455000D02*
X71890000Y-86455000D01*
%TO.N,GPIO39*%
X67000000Y-81375000D02*
X71890000Y-81375000D01*
X71890000Y-81375000D02*
X72010000Y-81495000D01*
%TO.N,GPIO33*%
X71890000Y-91535000D02*
X72010000Y-91655000D01*
X67000000Y-91535000D02*
X71890000Y-91535000D01*
%TO.N,GPIO34*%
X67000000Y-83915000D02*
X71890000Y-83915000D01*
X71890000Y-83915000D02*
X72010000Y-84035000D01*
%TO.N,GPIO32*%
X67000000Y-88995000D02*
X71890000Y-88995000D01*
X71890000Y-88995000D02*
X72010000Y-89115000D01*
%TO.N,HMISO*%
X61810000Y-105510000D02*
X61810000Y-111060000D01*
X59010000Y-102710000D02*
X61810000Y-105510000D01*
X70440000Y-104355000D02*
X72010000Y-104355000D01*
X69560000Y-105235000D02*
X70440000Y-104355000D01*
X67910000Y-112960000D02*
X69560000Y-111310000D01*
X69560000Y-111310000D02*
X69560000Y-105235000D01*
X63710000Y-112960000D02*
X67910000Y-112960000D01*
X61810000Y-111060000D02*
X63710000Y-112960000D01*
%TO.N,GPIO36*%
X67000000Y-78835000D02*
X71890000Y-78835000D01*
X71890000Y-78835000D02*
X72010000Y-78955000D01*
%TO.N,RXGPS*%
X68325000Y-102920000D02*
X69860000Y-101385000D01*
X54760000Y-95410000D02*
X61610000Y-95410000D01*
X67000000Y-102920000D02*
X68325000Y-102920000D01*
X49960000Y-100210000D02*
X54760000Y-95410000D01*
X70675000Y-94195000D02*
X72010000Y-94195000D01*
X69860000Y-95010000D02*
X70675000Y-94195000D01*
X69860000Y-101385000D02*
X69860000Y-95010000D01*
%TO.N,GPIO16*%
X101015000Y-101810000D02*
X102435000Y-103230000D01*
X94910000Y-101810000D02*
X101015000Y-101810000D01*
%TO.N,GPIO4*%
X105410000Y-109560000D02*
X104860000Y-109560000D01*
X104860000Y-109560000D02*
X103560000Y-108260000D01*
X103560000Y-108260000D02*
X98460000Y-108260000D01*
%TO.N,TXGPS*%
X61710000Y-98110000D02*
X61710000Y-102960000D01*
X54360000Y-102710000D02*
X54360000Y-101210000D01*
X61410000Y-97810000D02*
X61710000Y-98110000D01*
X54360000Y-101210000D02*
X58260000Y-97310000D01*
X58260000Y-97310000D02*
X60910000Y-97310000D01*
X60910000Y-97310000D02*
X61410000Y-97810000D01*
%TO.N,BUZZ*%
X113135000Y-95110000D02*
X113135000Y-95085000D01*
X118450000Y-90980000D02*
X117265000Y-90980000D01*
X120340000Y-86990000D02*
X120340000Y-89090000D01*
X116780000Y-86140000D02*
X116800000Y-86160000D01*
X117265000Y-90980000D02*
X113135000Y-95110000D01*
X116800000Y-86160000D02*
X119510000Y-86160000D01*
X94910000Y-106890000D02*
X100850000Y-106890000D01*
X120340000Y-89090000D02*
X118450000Y-90980000D01*
X109610000Y-98130000D02*
X111940000Y-98130000D01*
X119510000Y-86160000D02*
X120340000Y-86990000D01*
X111940000Y-98130000D02*
X113135000Y-96935000D01*
X100850000Y-106890000D02*
X109610000Y-98130000D01*
X113135000Y-96935000D02*
X113135000Y-95110000D01*
%TO.N,SDAMPU*%
X109510000Y-89160000D02*
X109960000Y-88710000D01*
X93100000Y-86570000D02*
X92510000Y-87160000D01*
X102010000Y-121160000D02*
X109010000Y-114160000D01*
X109010000Y-106660000D02*
X114760000Y-100910000D01*
X93010000Y-120910000D02*
X93260000Y-121160000D01*
X93260000Y-121160000D02*
X102010000Y-121160000D01*
X109510000Y-91660000D02*
X109510000Y-89160000D01*
X111260000Y-93410000D02*
X109510000Y-91660000D01*
X109010000Y-114160000D02*
X109010000Y-106660000D01*
X92510000Y-87160000D02*
X92510000Y-120410000D01*
X94910000Y-86570000D02*
X93100000Y-86570000D01*
X92510000Y-120410000D02*
X93010000Y-120910000D01*
X111260000Y-96660000D02*
X111260000Y-93410000D01*
X109960000Y-88710000D02*
X116810000Y-88710000D01*
%TO.N,5v*%
X64845000Y-119595000D02*
X53910000Y-108660000D01*
X75260000Y-59480000D02*
X75260000Y-50110000D01*
X109610000Y-77760000D02*
X116060000Y-77760000D01*
X39010000Y-72010000D02*
X56010000Y-72010000D01*
X69345000Y-119595000D02*
X72010000Y-119595000D01*
X73860000Y-48710000D02*
X70660000Y-48710000D01*
X63410000Y-80960000D02*
X63410000Y-71330000D01*
X108910000Y-79860000D02*
X108910000Y-78460000D01*
X108910000Y-78460000D02*
X109610000Y-77760000D01*
X50260000Y-94685000D02*
X50260000Y-94110000D01*
X69345000Y-119595000D02*
X64845000Y-119595000D01*
X56010000Y-72010000D02*
X63410000Y-79410000D01*
X39000000Y-72000000D02*
X39010000Y-72010000D01*
X63410000Y-71330000D02*
X75260000Y-59480000D01*
X53910000Y-105410000D02*
X49960000Y-101460000D01*
X75260000Y-50110000D02*
X73860000Y-48710000D01*
X53910000Y-108660000D02*
X53910000Y-105410000D01*
X50260000Y-94110000D02*
X63410000Y-80960000D01*
%TO.N,INVolt*%
D34*
X40000000Y-97020000D02*
X37870000Y-97020000D01*
X36260000Y-95410000D02*
X36260000Y-86660000D01*
X37870000Y-97020000D02*
X36260000Y-95410000D01*
X36260000Y-86660000D02*
X36920000Y-86000000D01*
X36920000Y-86000000D02*
X39000000Y-86000000D01*
%TO.N,VregIn*%
D33*
X49560000Y-83400000D02*
X51375000Y-81585000D01*
X51375000Y-81585000D02*
X56310000Y-81585000D01*
X57260000Y-84535000D02*
X57260000Y-84460000D01*
X56310000Y-81585000D02*
X57260000Y-82535000D01*
X57260000Y-82535000D02*
X57260000Y-84535000D01*
%TO.N,Net-(U1A--)*%
X118260000Y-81660000D02*
X119010000Y-80910000D01*
X109560000Y-81660000D02*
X118260000Y-81660000D01*
X119010000Y-80910000D02*
X119010000Y-79910000D01*
%TO.N,Net-(U1B--)*%
X118020000Y-89950000D02*
X119260000Y-88710000D01*
X111450000Y-89950000D02*
X118020000Y-89950000D01*
X119260000Y-88710000D02*
X119260000Y-87560000D01*
%TO.N,Net-(U2A--)*%
X51310000Y-105960000D02*
X51310000Y-107010000D01*
X47860000Y-102510000D02*
X51310000Y-105960000D01*
%TO.N,Net-(U2D--)*%
X55560000Y-107060000D02*
X55560000Y-102860000D01*
X59460000Y-98960000D02*
X59510000Y-98960000D01*
X55560000Y-102860000D02*
X59460000Y-98960000D01*
X59510000Y-98960000D02*
X59510000Y-98910000D01*
%TO.N,NALOAD*%
D35*
X43630000Y-53840000D02*
X51260000Y-46210000D01*
X40000000Y-53840000D02*
X43630000Y-53840000D01*
%TO.N,CLOAD*%
X65460000Y-52210000D02*
X62485000Y-52210000D01*
X50695000Y-64000000D02*
X40000000Y-64000000D01*
X62485000Y-52210000D02*
X50695000Y-64000000D01*
%TO.N,NCLOAD*%
X50550000Y-58920000D02*
X51260000Y-58210000D01*
X40000000Y-58920000D02*
X50550000Y-58920000D01*
%TO.N,Net-(D12-A)*%
D33*
X44660000Y-94610000D02*
X44660000Y-93960000D01*
X44660000Y-93960000D02*
X54610000Y-84010000D01*
X54610000Y-84010000D02*
X54610000Y-83260000D01*
%TD*%
%TA.AperFunction,Conductor*%
%TO.N,GND*%
G36*
X131004042Y-42000765D02*
G01*
X131018399Y-42001705D01*
X131231615Y-42015680D01*
X131241094Y-42016671D01*
X131292679Y-42024088D01*
X131299143Y-42025195D01*
X131495794Y-42064311D01*
X131506485Y-42066938D01*
X131548755Y-42079350D01*
X131553617Y-42080887D01*
X131751997Y-42148228D01*
X131763602Y-42152835D01*
X131786855Y-42163454D01*
X131790182Y-42165034D01*
X131992460Y-42264787D01*
X132006506Y-42272897D01*
X132210460Y-42409174D01*
X132223329Y-42419048D01*
X132407749Y-42580781D01*
X132419218Y-42592250D01*
X132580951Y-42776670D01*
X132590825Y-42789539D01*
X132727102Y-42993493D01*
X132735212Y-43007539D01*
X132834964Y-43209816D01*
X132836544Y-43213143D01*
X132843183Y-43227679D01*
X132847155Y-43236377D01*
X132851780Y-43248027D01*
X132919099Y-43446346D01*
X132920656Y-43451268D01*
X132933054Y-43493490D01*
X132935694Y-43504235D01*
X132974796Y-43700818D01*
X132975917Y-43707362D01*
X132983325Y-43758885D01*
X132984321Y-43768422D01*
X132999234Y-43995941D01*
X132999500Y-44004051D01*
X132999500Y-119995948D01*
X132999234Y-120004058D01*
X132984321Y-120231576D01*
X132983325Y-120241113D01*
X132975917Y-120292636D01*
X132974796Y-120299180D01*
X132935694Y-120495763D01*
X132933054Y-120506508D01*
X132920656Y-120548730D01*
X132919099Y-120553652D01*
X132851780Y-120751971D01*
X132847152Y-120763630D01*
X132836544Y-120786855D01*
X132834964Y-120790182D01*
X132735212Y-120992460D01*
X132727102Y-121006506D01*
X132590825Y-121210460D01*
X132580951Y-121223329D01*
X132419218Y-121407749D01*
X132407749Y-121419218D01*
X132223329Y-121580951D01*
X132210460Y-121590825D01*
X132006506Y-121727102D01*
X131992460Y-121735212D01*
X131790182Y-121834964D01*
X131786855Y-121836544D01*
X131763630Y-121847152D01*
X131751971Y-121851780D01*
X131553652Y-121919099D01*
X131548730Y-121920656D01*
X131506508Y-121933054D01*
X131495763Y-121935694D01*
X131299180Y-121974796D01*
X131292636Y-121975917D01*
X131241113Y-121983325D01*
X131231576Y-121984321D01*
X131004058Y-121999234D01*
X130995948Y-121999500D01*
X103309047Y-121999500D01*
X103242008Y-121979815D01*
X103196253Y-121927011D01*
X103186309Y-121857853D01*
X103215334Y-121794297D01*
X103221366Y-121787819D01*
X107193435Y-117815750D01*
X125249500Y-117815750D01*
X125249500Y-118184250D01*
X125257145Y-118261873D01*
X125285618Y-118550975D01*
X125357504Y-118912375D01*
X125357507Y-118912386D01*
X125464480Y-119265030D01*
X125605500Y-119605481D01*
X125605502Y-119605486D01*
X125779202Y-119930456D01*
X125779213Y-119930474D01*
X125983931Y-120236856D01*
X125983941Y-120236870D01*
X126217715Y-120521724D01*
X126478275Y-120782284D01*
X126478280Y-120782288D01*
X126478281Y-120782289D01*
X126763135Y-121016063D01*
X127069532Y-121220791D01*
X127069541Y-121220796D01*
X127069543Y-121220797D01*
X127394513Y-121394497D01*
X127394515Y-121394497D01*
X127394521Y-121394501D01*
X127734971Y-121535520D01*
X128087604Y-121642490D01*
X128087610Y-121642491D01*
X128087613Y-121642492D01*
X128087624Y-121642495D01*
X128449024Y-121714381D01*
X128815750Y-121750500D01*
X128815753Y-121750500D01*
X129184247Y-121750500D01*
X129184250Y-121750500D01*
X129550976Y-121714381D01*
X129621331Y-121700386D01*
X129912375Y-121642495D01*
X129912386Y-121642492D01*
X129912386Y-121642491D01*
X129912396Y-121642490D01*
X130265029Y-121535520D01*
X130605479Y-121394501D01*
X130930468Y-121220791D01*
X131236865Y-121016063D01*
X131521719Y-120782289D01*
X131782289Y-120521719D01*
X132016063Y-120236865D01*
X132220791Y-119930468D01*
X132394501Y-119605479D01*
X132535520Y-119265029D01*
X132642490Y-118912396D01*
X132642492Y-118912386D01*
X132642495Y-118912375D01*
X132714381Y-118550975D01*
X132718512Y-118509034D01*
X132750500Y-118184250D01*
X132750500Y-117815750D01*
X132714381Y-117449024D01*
X132661436Y-117182850D01*
X132642495Y-117087624D01*
X132642492Y-117087613D01*
X132642491Y-117087610D01*
X132642490Y-117087604D01*
X132535520Y-116734971D01*
X132394501Y-116394521D01*
X132282758Y-116185465D01*
X132220797Y-116069543D01*
X132220796Y-116069541D01*
X132220791Y-116069532D01*
X132016063Y-115763135D01*
X131782289Y-115478281D01*
X131782288Y-115478280D01*
X131782284Y-115478275D01*
X131521724Y-115217715D01*
X131236870Y-114983941D01*
X131236869Y-114983940D01*
X131236865Y-114983937D01*
X130930468Y-114779209D01*
X130930463Y-114779206D01*
X130930456Y-114779202D01*
X130605486Y-114605502D01*
X130605481Y-114605500D01*
X130265030Y-114464480D01*
X129912386Y-114357507D01*
X129912375Y-114357504D01*
X129550975Y-114285618D01*
X129274772Y-114258415D01*
X129184250Y-114249500D01*
X128815750Y-114249500D01*
X128732109Y-114257737D01*
X128449024Y-114285618D01*
X128087624Y-114357504D01*
X128087613Y-114357507D01*
X127734969Y-114464480D01*
X127394518Y-114605500D01*
X127394513Y-114605502D01*
X127069543Y-114779202D01*
X127069525Y-114779213D01*
X126763143Y-114983931D01*
X126763129Y-114983941D01*
X126478275Y-115217715D01*
X126217715Y-115478275D01*
X125983941Y-115763129D01*
X125983931Y-115763143D01*
X125779213Y-116069525D01*
X125779202Y-116069543D01*
X125605502Y-116394513D01*
X125605500Y-116394518D01*
X125464480Y-116734969D01*
X125357507Y-117087613D01*
X125357504Y-117087624D01*
X125285618Y-117449024D01*
X125263036Y-117678312D01*
X125249500Y-117815750D01*
X107193435Y-117815750D01*
X107284160Y-117725025D01*
X108614672Y-116394513D01*
X110001966Y-115007219D01*
X110122287Y-114841611D01*
X110168753Y-114750414D01*
X110215220Y-114659219D01*
X110278477Y-114464534D01*
X110291525Y-114382157D01*
X110295430Y-114357504D01*
X110310500Y-114262357D01*
X110310500Y-107250046D01*
X110330185Y-107183007D01*
X110346814Y-107162370D01*
X112851609Y-104657574D01*
X112912930Y-104624091D01*
X112982622Y-104629075D01*
X113026969Y-104657576D01*
X113097636Y-104728243D01*
X113097641Y-104728247D01*
X113235476Y-104828389D01*
X113275978Y-104857815D01*
X113404375Y-104923237D01*
X113472393Y-104957895D01*
X113472396Y-104957896D01*
X113550651Y-104983322D01*
X113682049Y-105026015D01*
X113899778Y-105060500D01*
X113899779Y-105060500D01*
X114120221Y-105060500D01*
X114120222Y-105060500D01*
X114337951Y-105026015D01*
X114547606Y-104957895D01*
X114744022Y-104857815D01*
X114922365Y-104728242D01*
X115078242Y-104572365D01*
X115207815Y-104394022D01*
X115295153Y-104222610D01*
X115317952Y-104191231D01*
X118586432Y-100922751D01*
X122159500Y-100922751D01*
X122159500Y-103038813D01*
X122159501Y-103038819D01*
X122170113Y-103158200D01*
X122226089Y-103353830D01*
X122226090Y-103353833D01*
X122226091Y-103353834D01*
X122320302Y-103534192D01*
X122320304Y-103534194D01*
X122448890Y-103691894D01*
X122533922Y-103761228D01*
X122606593Y-103820483D01*
X122786951Y-103914694D01*
X122982582Y-103970671D01*
X123101963Y-103981285D01*
X125218036Y-103981284D01*
X125337418Y-103970671D01*
X125533049Y-103914694D01*
X125713407Y-103820483D01*
X125871109Y-103691894D01*
X125999698Y-103534192D01*
X126093909Y-103353834D01*
X126149886Y-103158203D01*
X126160500Y-103038822D01*
X126160499Y-100922749D01*
X126149886Y-100803367D01*
X126093909Y-100607736D01*
X125999698Y-100427378D01*
X125879679Y-100280186D01*
X125871109Y-100269675D01*
X125755933Y-100175762D01*
X125713407Y-100141087D01*
X125533049Y-100046876D01*
X125533048Y-100046875D01*
X125533045Y-100046874D01*
X125415829Y-100013335D01*
X125337418Y-99990899D01*
X125337415Y-99990898D01*
X125337413Y-99990898D01*
X125271102Y-99985002D01*
X125218037Y-99980285D01*
X125218032Y-99980285D01*
X123101971Y-99980285D01*
X123101965Y-99980285D01*
X123101964Y-99980286D01*
X123090316Y-99981321D01*
X122982584Y-99990898D01*
X122786954Y-100046874D01*
X122696772Y-100093981D01*
X122606593Y-100141087D01*
X122606591Y-100141088D01*
X122606590Y-100141089D01*
X122448890Y-100269675D01*
X122359937Y-100378769D01*
X122320302Y-100427378D01*
X122286219Y-100492627D01*
X122226089Y-100607739D01*
X122170114Y-100803368D01*
X122170113Y-100803371D01*
X122166201Y-100847377D01*
X122159532Y-100922394D01*
X122159500Y-100922751D01*
X118586432Y-100922751D01*
X122453786Y-97055396D01*
X122515104Y-97021915D01*
X122584796Y-97026899D01*
X122640729Y-97068771D01*
X122663935Y-97123683D01*
X122696934Y-97332032D01*
X122769897Y-97556587D01*
X122877087Y-97766959D01*
X122937338Y-97849889D01*
X122937340Y-97849890D01*
X123677037Y-97110193D01*
X123694075Y-97173778D01*
X123759901Y-97287792D01*
X123852993Y-97380884D01*
X123967007Y-97446710D01*
X124030590Y-97463747D01*
X123290893Y-98203443D01*
X123373828Y-98263699D01*
X123584197Y-98370887D01*
X123808752Y-98443850D01*
X123808751Y-98443850D01*
X124041948Y-98480785D01*
X124278052Y-98480785D01*
X124511247Y-98443850D01*
X124735802Y-98370887D01*
X124946163Y-98263703D01*
X124946169Y-98263699D01*
X125029104Y-98203443D01*
X125029105Y-98203443D01*
X124289408Y-97463747D01*
X124352993Y-97446710D01*
X124467007Y-97380884D01*
X124560099Y-97287792D01*
X124625925Y-97173778D01*
X124642962Y-97110193D01*
X125382658Y-97849890D01*
X125382658Y-97849889D01*
X125442914Y-97766954D01*
X125442918Y-97766948D01*
X125550102Y-97556587D01*
X125623065Y-97332032D01*
X125660000Y-97098837D01*
X125660000Y-96862732D01*
X125623065Y-96629537D01*
X125550102Y-96404982D01*
X125442914Y-96194613D01*
X125382658Y-96111679D01*
X125382658Y-96111678D01*
X124642962Y-96851375D01*
X124625925Y-96787792D01*
X124560099Y-96673778D01*
X124467007Y-96580686D01*
X124352993Y-96514860D01*
X124289408Y-96497822D01*
X125029105Y-95758125D01*
X125029104Y-95758123D01*
X124946174Y-95697872D01*
X124735802Y-95590682D01*
X124511247Y-95517719D01*
X124302898Y-95484720D01*
X124239763Y-95454791D01*
X124202832Y-95395479D01*
X124203830Y-95325617D01*
X124234611Y-95274572D01*
X131850150Y-87659032D01*
X131850157Y-87659027D01*
X131857217Y-87651967D01*
X131857219Y-87651966D01*
X132001966Y-87507219D01*
X132001968Y-87507215D01*
X132001971Y-87507213D01*
X132073192Y-87409184D01*
X132122287Y-87341610D01*
X132144561Y-87297895D01*
X132215221Y-87159218D01*
X132278477Y-86964534D01*
X132297946Y-86841611D01*
X132310500Y-86762352D01*
X132310500Y-53030745D01*
X132278477Y-52828563D01*
X132266633Y-52792111D01*
X132260711Y-52773885D01*
X132216727Y-52638517D01*
X132215665Y-52634751D01*
X132153908Y-52513546D01*
X132122286Y-52451485D01*
X132030196Y-52324734D01*
X132001966Y-52285878D01*
X129614502Y-49898414D01*
X129581017Y-49837091D01*
X129586001Y-49767399D01*
X129627873Y-49711466D01*
X129677992Y-49689116D01*
X129912375Y-49642495D01*
X129912386Y-49642492D01*
X129912386Y-49642491D01*
X129912396Y-49642490D01*
X130265029Y-49535520D01*
X130605479Y-49394501D01*
X130930468Y-49220791D01*
X131236865Y-49016063D01*
X131521719Y-48782289D01*
X131782289Y-48521719D01*
X132016063Y-48236865D01*
X132220791Y-47930468D01*
X132394501Y-47605479D01*
X132535520Y-47265029D01*
X132642490Y-46912396D01*
X132642492Y-46912386D01*
X132642495Y-46912375D01*
X132714381Y-46550975D01*
X132750500Y-46184246D01*
X132750500Y-45815753D01*
X132746957Y-45779783D01*
X132714381Y-45449024D01*
X132642495Y-45087624D01*
X132642492Y-45087613D01*
X132642491Y-45087610D01*
X132642490Y-45087604D01*
X132535520Y-44734971D01*
X132394501Y-44394521D01*
X132384828Y-44376425D01*
X132220797Y-44069543D01*
X132220796Y-44069541D01*
X132220791Y-44069532D01*
X132016063Y-43763135D01*
X131782289Y-43478281D01*
X131782288Y-43478280D01*
X131782284Y-43478275D01*
X131521724Y-43217715D01*
X131236870Y-42983941D01*
X131236869Y-42983940D01*
X131236865Y-42983937D01*
X130930468Y-42779209D01*
X130930463Y-42779206D01*
X130930456Y-42779202D01*
X130605486Y-42605502D01*
X130605481Y-42605500D01*
X130265030Y-42464480D01*
X129912386Y-42357507D01*
X129912375Y-42357504D01*
X129550975Y-42285618D01*
X129274772Y-42258415D01*
X129184250Y-42249500D01*
X128815750Y-42249500D01*
X128732109Y-42257737D01*
X128449024Y-42285618D01*
X128087624Y-42357504D01*
X128087613Y-42357507D01*
X127734969Y-42464480D01*
X127394518Y-42605500D01*
X127394513Y-42605502D01*
X127069543Y-42779202D01*
X127069525Y-42779213D01*
X126763143Y-42983931D01*
X126763129Y-42983941D01*
X126478275Y-43217715D01*
X126217715Y-43478275D01*
X125983941Y-43763129D01*
X125983931Y-43763143D01*
X125779213Y-44069525D01*
X125779202Y-44069543D01*
X125605502Y-44394513D01*
X125605500Y-44394518D01*
X125464480Y-44734969D01*
X125357507Y-45087613D01*
X125357504Y-45087624D01*
X125285618Y-45449024D01*
X125257737Y-45732109D01*
X125253043Y-45779783D01*
X125249500Y-45815753D01*
X125249500Y-46184246D01*
X125285618Y-46550975D01*
X125317511Y-46711309D01*
X125311284Y-46780900D01*
X125268421Y-46836078D01*
X125202531Y-46859322D01*
X125195894Y-46859500D01*
X108407648Y-46859500D01*
X108340254Y-46870174D01*
X108205464Y-46891523D01*
X108010787Y-46954776D01*
X107949727Y-46985887D01*
X107949728Y-46985888D01*
X107828386Y-47047715D01*
X107662786Y-47168028D01*
X92343036Y-62487778D01*
X92222713Y-62653388D01*
X92176246Y-62744585D01*
X92176245Y-62744584D01*
X92129779Y-62835781D01*
X92129779Y-62835782D01*
X92066523Y-63030461D01*
X92066523Y-63030464D01*
X92034500Y-63232648D01*
X92034500Y-63716421D01*
X92014815Y-63783460D01*
X91967913Y-63826329D01*
X91931594Y-63845301D01*
X91773890Y-63973890D01*
X91645304Y-64131590D01*
X91645302Y-64131593D01*
X91569490Y-64276726D01*
X91521005Y-64327032D01*
X91453017Y-64343139D01*
X91403288Y-64329798D01*
X91313214Y-64283903D01*
X91313216Y-64283903D01*
X91111124Y-64218241D01*
X91045000Y-64207768D01*
X91045000Y-65101988D01*
X90987993Y-65069075D01*
X90860826Y-65035000D01*
X90729174Y-65035000D01*
X90602007Y-65069075D01*
X90545000Y-65101988D01*
X90545000Y-64207768D01*
X90544999Y-64207768D01*
X90478875Y-64218241D01*
X90276784Y-64283903D01*
X90087446Y-64380376D01*
X89937391Y-64489397D01*
X89871584Y-64512876D01*
X89803530Y-64497050D01*
X89766130Y-64464564D01*
X89649266Y-64312263D01*
X89649260Y-64312256D01*
X89477743Y-64140739D01*
X89477736Y-64140733D01*
X89285293Y-63993067D01*
X89285292Y-63993066D01*
X89285289Y-63993064D01*
X89075212Y-63871776D01*
X89075154Y-63871752D01*
X88851104Y-63778947D01*
X88686268Y-63734779D01*
X88616789Y-63716162D01*
X88616788Y-63716161D01*
X88616785Y-63716161D01*
X88376289Y-63684500D01*
X88376288Y-63684500D01*
X88133712Y-63684500D01*
X88133711Y-63684500D01*
X87893214Y-63716161D01*
X87658895Y-63778947D01*
X87434794Y-63871773D01*
X87434785Y-63871777D01*
X87224706Y-63993067D01*
X87060486Y-64119077D01*
X86995317Y-64144271D01*
X86926872Y-64130232D01*
X86909514Y-64119077D01*
X86745293Y-63993067D01*
X86745292Y-63993066D01*
X86745289Y-63993064D01*
X86535212Y-63871776D01*
X86535154Y-63871752D01*
X86311104Y-63778947D01*
X86146268Y-63734779D01*
X86076789Y-63716162D01*
X86076788Y-63716161D01*
X86076785Y-63716161D01*
X85836289Y-63684500D01*
X85836288Y-63684500D01*
X85593712Y-63684500D01*
X85593711Y-63684500D01*
X85353214Y-63716161D01*
X85118895Y-63778947D01*
X84894794Y-63871773D01*
X84894785Y-63871777D01*
X84684706Y-63993067D01*
X84520486Y-64119077D01*
X84455317Y-64144271D01*
X84386872Y-64130232D01*
X84369514Y-64119077D01*
X84205293Y-63993067D01*
X84205292Y-63993066D01*
X84205289Y-63993064D01*
X83995212Y-63871776D01*
X83995154Y-63871752D01*
X83771104Y-63778947D01*
X83606268Y-63734779D01*
X83536789Y-63716162D01*
X83536788Y-63716161D01*
X83536785Y-63716161D01*
X83296289Y-63684500D01*
X83296288Y-63684500D01*
X83053712Y-63684500D01*
X83053711Y-63684500D01*
X82813214Y-63716161D01*
X82578895Y-63778947D01*
X82354794Y-63871773D01*
X82354785Y-63871777D01*
X82144706Y-63993067D01*
X81980486Y-64119077D01*
X81915317Y-64144271D01*
X81846872Y-64130232D01*
X81829514Y-64119077D01*
X81665293Y-63993067D01*
X81665292Y-63993066D01*
X81665289Y-63993064D01*
X81455212Y-63871776D01*
X81455154Y-63871752D01*
X81231104Y-63778947D01*
X81066268Y-63734779D01*
X80996789Y-63716162D01*
X80996788Y-63716161D01*
X80996785Y-63716161D01*
X80756289Y-63684500D01*
X80756288Y-63684500D01*
X80513712Y-63684500D01*
X80513711Y-63684500D01*
X80273214Y-63716161D01*
X80038895Y-63778947D01*
X79814794Y-63871773D01*
X79814785Y-63871777D01*
X79604706Y-63993067D01*
X79440486Y-64119077D01*
X79375317Y-64144271D01*
X79306872Y-64130232D01*
X79289514Y-64119077D01*
X79125293Y-63993067D01*
X79125292Y-63993066D01*
X79125289Y-63993064D01*
X78915212Y-63871776D01*
X78915154Y-63871752D01*
X78691104Y-63778947D01*
X78526268Y-63734779D01*
X78456789Y-63716162D01*
X78456788Y-63716161D01*
X78456785Y-63716161D01*
X78216289Y-63684500D01*
X78216288Y-63684500D01*
X77973712Y-63684500D01*
X77973711Y-63684500D01*
X77733214Y-63716161D01*
X77498895Y-63778947D01*
X77274794Y-63871773D01*
X77274785Y-63871777D01*
X77064706Y-63993067D01*
X76900486Y-64119077D01*
X76835317Y-64144271D01*
X76766872Y-64130232D01*
X76749514Y-64119077D01*
X76585293Y-63993067D01*
X76585292Y-63993066D01*
X76585289Y-63993064D01*
X76375212Y-63871776D01*
X76375154Y-63871752D01*
X76151104Y-63778947D01*
X75986268Y-63734779D01*
X75916789Y-63716162D01*
X75916788Y-63716161D01*
X75916785Y-63716161D01*
X75676289Y-63684500D01*
X75676288Y-63684500D01*
X75433712Y-63684500D01*
X75433711Y-63684500D01*
X75193214Y-63716161D01*
X74958895Y-63778947D01*
X74734794Y-63871773D01*
X74734785Y-63871777D01*
X74524706Y-63993067D01*
X74332263Y-64140733D01*
X74332256Y-64140739D01*
X74160739Y-64312256D01*
X74160733Y-64312263D01*
X74013067Y-64504706D01*
X74013064Y-64504710D01*
X74013064Y-64504711D01*
X74011405Y-64507584D01*
X73891777Y-64714785D01*
X73891773Y-64714794D01*
X73798947Y-64938895D01*
X73736161Y-65173214D01*
X73704500Y-65413711D01*
X73704500Y-65656288D01*
X73733036Y-65873049D01*
X73736162Y-65896789D01*
X73746427Y-65935099D01*
X73798947Y-66131104D01*
X73877282Y-66320221D01*
X73891776Y-66355212D01*
X74013064Y-66565289D01*
X74013066Y-66565292D01*
X74013067Y-66565293D01*
X74160733Y-66757736D01*
X74160739Y-66757743D01*
X74332256Y-66929260D01*
X74332263Y-66929266D01*
X74388469Y-66972394D01*
X74524711Y-67076936D01*
X74734788Y-67198224D01*
X74958900Y-67291054D01*
X75193211Y-67353838D01*
X75373586Y-67377584D01*
X75433711Y-67385500D01*
X75433712Y-67385500D01*
X75676289Y-67385500D01*
X75724388Y-67379167D01*
X75916789Y-67353838D01*
X76151100Y-67291054D01*
X76375212Y-67198224D01*
X76585289Y-67076936D01*
X76749514Y-66950922D01*
X76814683Y-66925728D01*
X76883128Y-66939766D01*
X76900486Y-66950922D01*
X77064711Y-67076936D01*
X77274788Y-67198224D01*
X77498900Y-67291054D01*
X77733211Y-67353838D01*
X77913586Y-67377584D01*
X77973711Y-67385500D01*
X77973712Y-67385500D01*
X78216289Y-67385500D01*
X78264388Y-67379167D01*
X78456789Y-67353838D01*
X78691100Y-67291054D01*
X78915212Y-67198224D01*
X79125289Y-67076936D01*
X79289514Y-66950922D01*
X79354683Y-66925728D01*
X79423128Y-66939766D01*
X79440486Y-66950922D01*
X79604711Y-67076936D01*
X79814788Y-67198224D01*
X80038900Y-67291054D01*
X80273211Y-67353838D01*
X80453586Y-67377584D01*
X80513711Y-67385500D01*
X80513712Y-67385500D01*
X80756289Y-67385500D01*
X80804388Y-67379167D01*
X80996789Y-67353838D01*
X81231100Y-67291054D01*
X81455212Y-67198224D01*
X81665289Y-67076936D01*
X81829514Y-66950922D01*
X81894683Y-66925728D01*
X81963128Y-66939766D01*
X81980486Y-66950922D01*
X82144711Y-67076936D01*
X82354788Y-67198224D01*
X82578900Y-67291054D01*
X82813211Y-67353838D01*
X82993586Y-67377584D01*
X83053711Y-67385500D01*
X83053712Y-67385500D01*
X83296289Y-67385500D01*
X83344388Y-67379167D01*
X83536789Y-67353838D01*
X83771100Y-67291054D01*
X83995212Y-67198224D01*
X84205289Y-67076936D01*
X84369514Y-66950922D01*
X84434683Y-66925728D01*
X84503128Y-66939766D01*
X84520486Y-66950922D01*
X84684711Y-67076936D01*
X84894788Y-67198224D01*
X85118900Y-67291054D01*
X85353211Y-67353838D01*
X85533586Y-67377584D01*
X85593711Y-67385500D01*
X85593712Y-67385500D01*
X85836289Y-67385500D01*
X85884388Y-67379167D01*
X86076789Y-67353838D01*
X86311100Y-67291054D01*
X86535212Y-67198224D01*
X86745289Y-67076936D01*
X86909514Y-66950922D01*
X86974683Y-66925728D01*
X87043128Y-66939766D01*
X87060486Y-66950922D01*
X87224711Y-67076936D01*
X87434788Y-67198224D01*
X87658900Y-67291054D01*
X87893211Y-67353838D01*
X88073586Y-67377584D01*
X88133711Y-67385500D01*
X88133712Y-67385500D01*
X88376289Y-67385500D01*
X88424388Y-67379167D01*
X88616789Y-67353838D01*
X88851100Y-67291054D01*
X89075212Y-67198224D01*
X89285289Y-67076936D01*
X89477738Y-66929265D01*
X89649265Y-66757738D01*
X89766132Y-66605433D01*
X89822557Y-66564232D01*
X89892303Y-66560077D01*
X89937391Y-66580603D01*
X90087442Y-66689620D01*
X90276782Y-66786095D01*
X90478871Y-66851757D01*
X90545000Y-66862231D01*
X90545000Y-65968012D01*
X90602007Y-66000925D01*
X90729174Y-66035000D01*
X90860826Y-66035000D01*
X90987993Y-66000925D01*
X91045000Y-65968012D01*
X91045000Y-66862230D01*
X91111126Y-66851757D01*
X91111129Y-66851757D01*
X91313219Y-66786094D01*
X91403286Y-66740202D01*
X91471955Y-66727305D01*
X91536695Y-66753580D01*
X91569490Y-66793274D01*
X91645300Y-66938404D01*
X91645302Y-66938407D01*
X91655507Y-66950922D01*
X91773890Y-67096109D01*
X91848882Y-67157256D01*
X91931593Y-67224698D01*
X92111951Y-67318909D01*
X92307582Y-67374886D01*
X92426963Y-67385500D01*
X94243036Y-67385499D01*
X94362418Y-67374886D01*
X94558049Y-67318909D01*
X94738407Y-67224698D01*
X94896109Y-67096109D01*
X95024698Y-66938407D01*
X95118909Y-66758049D01*
X95174886Y-66562418D01*
X95185500Y-66443037D01*
X95185499Y-64626964D01*
X95174886Y-64507582D01*
X95118909Y-64311951D01*
X95024698Y-64131593D01*
X94972684Y-64067803D01*
X94896109Y-63973890D01*
X94803725Y-63898561D01*
X94764208Y-63840940D01*
X94762116Y-63771101D01*
X94794403Y-63714780D01*
X109012365Y-49496819D01*
X109073688Y-49463334D01*
X109100046Y-49460500D01*
X121771844Y-49460500D01*
X121838883Y-49480185D01*
X121884638Y-49532989D01*
X121894582Y-49602147D01*
X121872162Y-49657386D01*
X121804849Y-49750033D01*
X121701230Y-49953395D01*
X121630704Y-50170455D01*
X121595000Y-50395883D01*
X121595000Y-50810000D01*
X122611988Y-50810000D01*
X122579075Y-50867007D01*
X122545000Y-50994174D01*
X122545000Y-51125826D01*
X122579075Y-51252993D01*
X122611988Y-51310000D01*
X121595000Y-51310000D01*
X121595000Y-51724116D01*
X121630704Y-51949544D01*
X121701230Y-52166604D01*
X121804849Y-52369966D01*
X121939004Y-52554614D01*
X122100385Y-52715995D01*
X122285033Y-52850150D01*
X122488395Y-52953769D01*
X122705455Y-53024295D01*
X122795000Y-53038478D01*
X122795000Y-51493012D01*
X122852007Y-51525925D01*
X122979174Y-51560000D01*
X123110826Y-51560000D01*
X123237993Y-51525925D01*
X123295000Y-51493012D01*
X123295000Y-53038477D01*
X123384541Y-53024296D01*
X123596213Y-52955519D01*
X123666054Y-52953524D01*
X123725887Y-52989604D01*
X123744440Y-53016038D01*
X123756162Y-53038478D01*
X123795302Y-53113407D01*
X123853057Y-53184239D01*
X123923890Y-53271109D01*
X124017803Y-53347684D01*
X124081593Y-53399698D01*
X124261951Y-53493909D01*
X124457582Y-53549886D01*
X124576963Y-53560500D01*
X126593036Y-53560499D01*
X126712418Y-53549886D01*
X126908049Y-53493909D01*
X127088407Y-53399698D01*
X127246109Y-53271109D01*
X127374698Y-53113407D01*
X127468909Y-52933049D01*
X127524886Y-52737418D01*
X127535500Y-52618037D01*
X127535499Y-51797142D01*
X127555183Y-51730104D01*
X127607987Y-51684349D01*
X127677146Y-51674405D01*
X127740702Y-51703430D01*
X127747180Y-51709462D01*
X129673181Y-53635463D01*
X129706666Y-53696786D01*
X129709500Y-53723144D01*
X129709500Y-86069953D01*
X129689815Y-86136992D01*
X129673181Y-86157634D01*
X115918392Y-99912422D01*
X115857069Y-99945907D01*
X115787377Y-99940923D01*
X115743030Y-99912423D01*
X115712654Y-99882047D01*
X115672365Y-99841758D01*
X115672361Y-99841755D01*
X115672357Y-99841751D01*
X115494025Y-99712187D01*
X115494024Y-99712186D01*
X115494022Y-99712185D01*
X115415927Y-99672393D01*
X115297606Y-99612104D01*
X115297603Y-99612103D01*
X115087952Y-99543985D01*
X114939673Y-99520500D01*
X114870222Y-99509500D01*
X114649778Y-99509500D01*
X114580333Y-99520499D01*
X114432047Y-99543985D01*
X114222396Y-99612103D01*
X114222393Y-99612104D01*
X114025974Y-99712187D01*
X113847641Y-99841752D01*
X113847636Y-99841756D01*
X113691756Y-99997636D01*
X113691752Y-99997641D01*
X113562185Y-100175976D01*
X113474847Y-100347384D01*
X113452044Y-100378769D01*
X108018036Y-105812778D01*
X107897716Y-105978384D01*
X107897711Y-105978392D01*
X107882004Y-106009217D01*
X107882005Y-106009218D01*
X107804332Y-106161658D01*
X107803272Y-106165420D01*
X107741522Y-106355468D01*
X107735929Y-106390782D01*
X107709500Y-106557648D01*
X107709500Y-113569953D01*
X107689815Y-113636992D01*
X107673181Y-113657634D01*
X101507634Y-119823181D01*
X101446311Y-119856666D01*
X101419953Y-119859500D01*
X96983245Y-119859500D01*
X96916206Y-119839815D01*
X96870451Y-119787011D01*
X96860699Y-119721925D01*
X96860234Y-119721895D01*
X96860374Y-119719754D01*
X96860307Y-119719306D01*
X96860500Y-119717843D01*
X96860500Y-119462157D01*
X96827126Y-119208660D01*
X96760950Y-118961687D01*
X96663104Y-118725465D01*
X96663102Y-118725462D01*
X96663100Y-118725457D01*
X96535265Y-118504042D01*
X96535261Y-118504035D01*
X96451967Y-118395485D01*
X96426774Y-118330318D01*
X96440812Y-118261873D01*
X96451964Y-118244517D01*
X96535261Y-118135965D01*
X96663104Y-117914535D01*
X96760950Y-117678313D01*
X96827126Y-117431340D01*
X96860500Y-117177843D01*
X96860500Y-116922157D01*
X96827126Y-116668660D01*
X96760950Y-116421687D01*
X96663104Y-116185465D01*
X96663102Y-116185462D01*
X96663100Y-116185457D01*
X96535265Y-115964042D01*
X96535261Y-115964035D01*
X96451967Y-115855485D01*
X96426774Y-115790318D01*
X96440812Y-115721873D01*
X96451964Y-115704517D01*
X96535261Y-115595965D01*
X96663104Y-115374535D01*
X96760950Y-115138313D01*
X96827126Y-114891340D01*
X96860500Y-114637843D01*
X96860500Y-114382157D01*
X96827126Y-114128660D01*
X96760950Y-113881687D01*
X96663104Y-113645465D01*
X96663102Y-113645462D01*
X96663100Y-113645457D01*
X96535265Y-113424042D01*
X96535261Y-113424035D01*
X96451967Y-113315485D01*
X96426774Y-113250318D01*
X96440812Y-113181873D01*
X96451964Y-113164517D01*
X96535261Y-113055965D01*
X96663104Y-112834535D01*
X96760950Y-112598313D01*
X96827126Y-112351340D01*
X96860500Y-112097843D01*
X96860500Y-111842157D01*
X96827126Y-111588660D01*
X96760950Y-111341687D01*
X96663104Y-111105465D01*
X96663102Y-111105462D01*
X96663100Y-111105457D01*
X96535265Y-110884042D01*
X96535261Y-110884035D01*
X96451967Y-110775485D01*
X96426774Y-110710318D01*
X96440812Y-110641873D01*
X96451964Y-110624517D01*
X96535261Y-110515965D01*
X96663104Y-110294535D01*
X96760950Y-110058313D01*
X96827126Y-109811340D01*
X96860500Y-109557843D01*
X96860500Y-109302157D01*
X96827126Y-109048660D01*
X96760950Y-108801687D01*
X96663104Y-108565465D01*
X96663102Y-108565462D01*
X96663100Y-108565457D01*
X96554005Y-108376500D01*
X96537532Y-108308600D01*
X96560384Y-108242573D01*
X96615306Y-108199382D01*
X96661392Y-108190500D01*
X96935500Y-108190500D01*
X97002539Y-108210185D01*
X97048294Y-108262989D01*
X97059500Y-108314500D01*
X97059500Y-108370222D01*
X97068337Y-108426015D01*
X97093985Y-108587952D01*
X97162103Y-108797603D01*
X97162104Y-108797606D01*
X97230122Y-108931096D01*
X97247158Y-108964531D01*
X97262187Y-108994025D01*
X97391752Y-109172358D01*
X97391756Y-109172363D01*
X97547636Y-109328243D01*
X97547641Y-109328247D01*
X97566041Y-109341615D01*
X97725978Y-109457815D01*
X97822938Y-109507219D01*
X97922393Y-109557895D01*
X97922396Y-109557896D01*
X98027221Y-109591955D01*
X98132049Y-109626015D01*
X98349778Y-109660500D01*
X98349779Y-109660500D01*
X98570221Y-109660500D01*
X98570222Y-109660500D01*
X98787951Y-109626015D01*
X98970911Y-109566568D01*
X99009227Y-109560500D01*
X102969953Y-109560500D01*
X103036992Y-109580185D01*
X103057634Y-109596819D01*
X103864908Y-110404092D01*
X103864922Y-110404107D01*
X103868033Y-110407218D01*
X103868034Y-110407219D01*
X104012781Y-110551966D01*
X104012784Y-110551968D01*
X104012788Y-110551972D01*
X104119516Y-110629513D01*
X104178390Y-110672287D01*
X104297620Y-110733038D01*
X104360781Y-110765221D01*
X104360787Y-110765223D01*
X104546251Y-110825483D01*
X104555466Y-110828477D01*
X104757648Y-110860500D01*
X104757649Y-110860500D01*
X104860773Y-110860500D01*
X104899088Y-110866568D01*
X105082049Y-110926015D01*
X105299778Y-110960500D01*
X105299779Y-110960500D01*
X105520221Y-110960500D01*
X105520222Y-110960500D01*
X105737951Y-110926015D01*
X105947606Y-110857895D01*
X106144022Y-110757815D01*
X106322365Y-110628242D01*
X106478242Y-110472365D01*
X106607815Y-110294022D01*
X106707895Y-110097606D01*
X106776015Y-109887951D01*
X106810500Y-109670222D01*
X106810500Y-109449778D01*
X106776015Y-109232049D01*
X106710278Y-109029727D01*
X106707896Y-109022396D01*
X106707895Y-109022393D01*
X106654066Y-108916750D01*
X106607815Y-108825978D01*
X106587202Y-108797606D01*
X106478247Y-108647641D01*
X106478243Y-108647636D01*
X106322363Y-108491756D01*
X106322358Y-108491752D01*
X106144025Y-108362187D01*
X106144024Y-108362186D01*
X106144022Y-108362185D01*
X106038857Y-108308600D01*
X105947606Y-108262104D01*
X105947603Y-108262103D01*
X105737952Y-108193985D01*
X105629086Y-108176742D01*
X105520222Y-108159500D01*
X105350046Y-108159500D01*
X105283007Y-108139815D01*
X105262365Y-108123181D01*
X104407221Y-107268036D01*
X104407220Y-107268035D01*
X104407219Y-107268034D01*
X104324415Y-107207873D01*
X104241609Y-107147711D01*
X104093578Y-107072287D01*
X104093577Y-107072286D01*
X104076725Y-107063699D01*
X104059219Y-107054780D01*
X103945539Y-107017843D01*
X103945538Y-107017842D01*
X103864532Y-106991522D01*
X103709220Y-106966923D01*
X103662352Y-106959500D01*
X103662351Y-106959500D01*
X102919047Y-106959500D01*
X102852008Y-106939815D01*
X102806253Y-106887011D01*
X102796309Y-106817853D01*
X102825334Y-106754297D01*
X102831366Y-106747819D01*
X110112365Y-99466819D01*
X110173688Y-99433334D01*
X110200046Y-99430500D01*
X112042351Y-99430500D01*
X112042352Y-99430500D01*
X112244535Y-99398477D01*
X112385784Y-99352582D01*
X112439219Y-99335220D01*
X112530414Y-99288753D01*
X112621611Y-99242287D01*
X112787219Y-99121966D01*
X114126966Y-97782219D01*
X114247287Y-97616611D01*
X114298330Y-97516433D01*
X114340220Y-97434219D01*
X114375870Y-97324500D01*
X114403477Y-97239535D01*
X114435500Y-97037352D01*
X114435500Y-96832649D01*
X114435500Y-95700047D01*
X114455185Y-95633008D01*
X114471819Y-95612366D01*
X117767366Y-92316819D01*
X117828689Y-92283334D01*
X117855047Y-92280500D01*
X118552351Y-92280500D01*
X118552352Y-92280500D01*
X118754535Y-92248477D01*
X118852611Y-92216610D01*
X118949219Y-92185220D01*
X119055435Y-92131100D01*
X119131611Y-92092287D01*
X119297219Y-91971966D01*
X121180150Y-90089032D01*
X121180157Y-90089027D01*
X121187217Y-90081967D01*
X121187219Y-90081966D01*
X121331966Y-89937219D01*
X121452287Y-89771610D01*
X121486481Y-89704500D01*
X121545221Y-89589218D01*
X121608477Y-89394534D01*
X121625453Y-89287352D01*
X121640500Y-89192352D01*
X121640500Y-86887648D01*
X121640500Y-86887643D01*
X121620209Y-86759536D01*
X121620209Y-86759535D01*
X121619665Y-86756100D01*
X121608477Y-86685465D01*
X121545220Y-86490782D01*
X121545220Y-86490781D01*
X121498753Y-86399585D01*
X121452287Y-86308389D01*
X121331966Y-86142781D01*
X120357219Y-85168034D01*
X120240868Y-85083500D01*
X120191609Y-85047711D01*
X120049784Y-84975449D01*
X120049783Y-84975448D01*
X120043578Y-84972287D01*
X120009219Y-84954780D01*
X119903716Y-84920500D01*
X119901070Y-84919640D01*
X119901064Y-84919638D01*
X119814532Y-84891522D01*
X119659220Y-84866923D01*
X119612352Y-84859500D01*
X119612351Y-84859500D01*
X117381514Y-84859500D01*
X117325219Y-84845984D01*
X117317606Y-84842105D01*
X117317605Y-84842104D01*
X117317602Y-84842103D01*
X117107952Y-84773985D01*
X116999086Y-84756742D01*
X116890222Y-84739500D01*
X116669778Y-84739500D01*
X116597201Y-84750995D01*
X116452047Y-84773985D01*
X116242396Y-84842103D01*
X116242393Y-84842104D01*
X116045974Y-84942187D01*
X115867641Y-85071752D01*
X115867636Y-85071756D01*
X115711756Y-85227636D01*
X115711752Y-85227641D01*
X115582187Y-85405974D01*
X115482104Y-85602393D01*
X115482103Y-85602396D01*
X115413985Y-85812047D01*
X115392878Y-85945315D01*
X115379500Y-86029778D01*
X115379500Y-86250222D01*
X115388751Y-86308630D01*
X115413985Y-86467952D01*
X115482103Y-86677603D01*
X115482104Y-86677606D01*
X115582187Y-86874025D01*
X115711752Y-87052358D01*
X115711756Y-87052363D01*
X115857212Y-87197819D01*
X115890697Y-87259142D01*
X115885713Y-87328834D01*
X115843841Y-87384767D01*
X115778377Y-87409184D01*
X115769531Y-87409500D01*
X110062352Y-87409500D01*
X109857648Y-87409500D01*
X109810779Y-87416923D01*
X109655468Y-87441522D01*
X109655467Y-87441522D01*
X109584642Y-87464535D01*
X109460778Y-87504781D01*
X109393503Y-87539060D01*
X109278387Y-87597714D01*
X109278384Y-87597716D01*
X109112778Y-87718036D01*
X108872181Y-87958634D01*
X108810858Y-87992119D01*
X108741166Y-87987135D01*
X108685233Y-87945263D01*
X108660816Y-87879799D01*
X108660500Y-87870953D01*
X108660500Y-82975849D01*
X108680185Y-82908810D01*
X108732989Y-82863055D01*
X108802147Y-82853111D01*
X108840796Y-82865365D01*
X109022389Y-82957893D01*
X109022396Y-82957896D01*
X109127221Y-82991955D01*
X109232049Y-83026015D01*
X109449778Y-83060500D01*
X109449779Y-83060500D01*
X109670221Y-83060500D01*
X109670222Y-83060500D01*
X109887951Y-83026015D01*
X110070911Y-82966568D01*
X110109227Y-82960500D01*
X118362351Y-82960500D01*
X118362352Y-82960500D01*
X118564535Y-82928477D01*
X118696594Y-82885568D01*
X118759219Y-82865220D01*
X118882932Y-82802185D01*
X118941611Y-82772287D01*
X119107219Y-82651966D01*
X120001966Y-81757219D01*
X120122287Y-81591611D01*
X120170856Y-81496288D01*
X120215220Y-81409219D01*
X120278477Y-81214534D01*
X120301296Y-81070466D01*
X120303597Y-81055937D01*
X120310500Y-81012355D01*
X120310500Y-80459227D01*
X120316569Y-80420909D01*
X120322052Y-80404034D01*
X120376015Y-80237951D01*
X120410500Y-80020222D01*
X120410500Y-79799778D01*
X120376015Y-79582049D01*
X120307895Y-79372394D01*
X120307895Y-79372393D01*
X120273237Y-79304375D01*
X120207815Y-79175978D01*
X120140144Y-79082836D01*
X120078247Y-78997641D01*
X120078243Y-78997636D01*
X119922363Y-78841756D01*
X119922358Y-78841752D01*
X119744025Y-78712187D01*
X119744024Y-78712186D01*
X119744022Y-78712185D01*
X119665858Y-78672358D01*
X119547606Y-78612104D01*
X119547603Y-78612103D01*
X119337952Y-78543985D01*
X119229086Y-78526742D01*
X119120222Y-78509500D01*
X118899778Y-78509500D01*
X118827201Y-78520995D01*
X118682047Y-78543985D01*
X118472396Y-78612103D01*
X118472393Y-78612104D01*
X118275974Y-78712187D01*
X118097641Y-78841752D01*
X118097636Y-78841756D01*
X117941756Y-78997636D01*
X117941752Y-78997641D01*
X117812187Y-79175974D01*
X117712104Y-79372393D01*
X117712103Y-79372396D01*
X117643985Y-79582047D01*
X117643783Y-79583322D01*
X117609500Y-79799778D01*
X117609500Y-80020222D01*
X117611995Y-80035973D01*
X117640524Y-80216102D01*
X117631569Y-80285396D01*
X117586573Y-80338848D01*
X117519821Y-80359487D01*
X117518051Y-80359500D01*
X110390947Y-80359500D01*
X110323908Y-80339815D01*
X110278153Y-80287011D01*
X110268209Y-80217853D01*
X110273016Y-80197182D01*
X110273935Y-80194350D01*
X110276015Y-80187951D01*
X110310500Y-79970222D01*
X110310500Y-79749778D01*
X110276015Y-79532049D01*
X110216568Y-79349089D01*
X110210500Y-79310772D01*
X110210500Y-79184500D01*
X110230185Y-79117461D01*
X110282989Y-79071706D01*
X110334500Y-79060500D01*
X115510773Y-79060500D01*
X115549088Y-79066568D01*
X115732049Y-79126015D01*
X115949778Y-79160500D01*
X115949779Y-79160500D01*
X116170221Y-79160500D01*
X116170222Y-79160500D01*
X116387951Y-79126015D01*
X116597606Y-79057895D01*
X116794022Y-78957815D01*
X116972365Y-78828242D01*
X117128242Y-78672365D01*
X117257815Y-78494022D01*
X117357895Y-78297606D01*
X117426015Y-78087951D01*
X117460500Y-77870222D01*
X117460500Y-77649778D01*
X117426015Y-77432049D01*
X117388719Y-77317262D01*
X117357896Y-77222396D01*
X117357895Y-77222393D01*
X117318614Y-77145302D01*
X117257815Y-77025978D01*
X117247735Y-77012104D01*
X117234743Y-76994221D01*
X117211263Y-76928415D01*
X117227089Y-76860361D01*
X117259571Y-76822963D01*
X117413813Y-76704610D01*
X117594610Y-76523813D01*
X117750261Y-76320965D01*
X117878104Y-76099535D01*
X117975950Y-75863313D01*
X118042126Y-75616340D01*
X118075500Y-75362843D01*
X118075500Y-74007157D01*
X118042126Y-73753660D01*
X117975950Y-73506687D01*
X117974591Y-73503407D01*
X117933447Y-73404075D01*
X117878104Y-73270465D01*
X117878102Y-73270462D01*
X117878100Y-73270457D01*
X117750265Y-73049042D01*
X117750261Y-73049035D01*
X117614536Y-72872155D01*
X117594611Y-72846188D01*
X117594605Y-72846181D01*
X117413818Y-72665394D01*
X117413811Y-72665388D01*
X117210973Y-72509745D01*
X117210971Y-72509743D01*
X117210965Y-72509739D01*
X117210960Y-72509736D01*
X117210957Y-72509734D01*
X116989542Y-72381899D01*
X116989531Y-72381894D01*
X116753322Y-72284053D01*
X116753315Y-72284051D01*
X116753313Y-72284050D01*
X116506340Y-72217874D01*
X116450007Y-72210457D01*
X116252850Y-72184500D01*
X116252843Y-72184500D01*
X115997157Y-72184500D01*
X115997149Y-72184500D01*
X115773921Y-72213890D01*
X115743660Y-72217874D01*
X115565969Y-72265486D01*
X115496687Y-72284050D01*
X115496677Y-72284053D01*
X115260471Y-72381893D01*
X115260455Y-72381900D01*
X115260062Y-72382128D01*
X115259930Y-72382159D01*
X115256830Y-72383689D01*
X115256487Y-72382994D01*
X115192159Y-72398590D01*
X115126136Y-72375727D01*
X115119718Y-72370833D01*
X115088409Y-72345304D01*
X115088410Y-72345304D01*
X115088407Y-72345302D01*
X114908049Y-72251091D01*
X114908048Y-72251090D01*
X114908045Y-72251089D01*
X114790829Y-72217550D01*
X114712418Y-72195114D01*
X114712415Y-72195113D01*
X114712413Y-72195113D01*
X114646102Y-72189217D01*
X114593037Y-72184500D01*
X114593032Y-72184500D01*
X112576971Y-72184500D01*
X112576965Y-72184500D01*
X112576964Y-72184501D01*
X112565316Y-72185536D01*
X112457584Y-72195113D01*
X112261954Y-72251089D01*
X112234393Y-72265486D01*
X112081593Y-72345302D01*
X112081591Y-72345303D01*
X112081590Y-72345304D01*
X111923890Y-72473890D01*
X111795304Y-72631590D01*
X111795302Y-72631593D01*
X111748196Y-72721772D01*
X111701089Y-72811954D01*
X111645114Y-73007583D01*
X111645113Y-73007586D01*
X111634500Y-73126966D01*
X111634500Y-76243028D01*
X111634500Y-76243033D01*
X111634501Y-76243036D01*
X111638423Y-76287149D01*
X111641745Y-76324520D01*
X111628074Y-76393039D01*
X111579529Y-76443290D01*
X111518232Y-76459500D01*
X109507648Y-76459500D01*
X109483329Y-76463351D01*
X109305465Y-76491522D01*
X109110776Y-76554781D01*
X108928391Y-76647712D01*
X108928389Y-76647713D01*
X108857384Y-76699301D01*
X108791578Y-76722780D01*
X108723524Y-76706954D01*
X108674830Y-76656848D01*
X108660500Y-76598982D01*
X108660500Y-71650047D01*
X108680185Y-71583008D01*
X108696819Y-71562366D01*
X111412366Y-68846819D01*
X111473689Y-68813334D01*
X111500047Y-68810500D01*
X113710773Y-68810500D01*
X113749088Y-68816568D01*
X113932049Y-68876015D01*
X114149778Y-68910500D01*
X114149779Y-68910500D01*
X114370221Y-68910500D01*
X114370222Y-68910500D01*
X114587951Y-68876015D01*
X114797606Y-68807895D01*
X114994022Y-68707815D01*
X115172365Y-68578242D01*
X115328242Y-68422365D01*
X115457815Y-68244022D01*
X115557895Y-68047606D01*
X115626015Y-67837951D01*
X115660500Y-67620222D01*
X115660500Y-67399778D01*
X115626015Y-67182049D01*
X115617962Y-67157263D01*
X115557897Y-66972399D01*
X115557895Y-66972393D01*
X115540576Y-66938404D01*
X115529310Y-66916295D01*
X115516413Y-66847629D01*
X115529311Y-66803703D01*
X115532534Y-66797379D01*
X115557895Y-66747606D01*
X115626015Y-66537951D01*
X115660500Y-66320222D01*
X115660500Y-66099778D01*
X115626015Y-65882049D01*
X115575960Y-65727993D01*
X115557897Y-65672399D01*
X115557897Y-65672397D01*
X115526954Y-65611670D01*
X115514057Y-65543001D01*
X115526953Y-65499079D01*
X115537895Y-65477606D01*
X115558656Y-65413711D01*
X115606014Y-65267954D01*
X115606013Y-65267954D01*
X115606015Y-65267951D01*
X115640500Y-65050222D01*
X115640500Y-64829778D01*
X115606015Y-64612049D01*
X115568439Y-64496401D01*
X115537896Y-64402396D01*
X115537895Y-64402393D01*
X115491813Y-64311954D01*
X115437815Y-64205978D01*
X115392983Y-64144271D01*
X115308247Y-64027641D01*
X115308243Y-64027636D01*
X115152363Y-63871756D01*
X115152358Y-63871752D01*
X114974025Y-63742187D01*
X114974024Y-63742186D01*
X114974022Y-63742185D01*
X114911096Y-63710122D01*
X114777606Y-63642104D01*
X114777603Y-63642103D01*
X114567952Y-63573985D01*
X114459086Y-63556742D01*
X114350222Y-63539500D01*
X114129778Y-63539500D01*
X114057201Y-63550995D01*
X113912047Y-63573985D01*
X113798004Y-63611039D01*
X113729088Y-63633431D01*
X113690773Y-63639500D01*
X110077648Y-63639500D01*
X110010254Y-63650174D01*
X109875464Y-63671523D01*
X109875461Y-63671523D01*
X109680782Y-63734779D01*
X109680781Y-63734779D01*
X109589584Y-63781245D01*
X109589585Y-63781246D01*
X109498388Y-63827713D01*
X109332778Y-63948036D01*
X104518036Y-68762778D01*
X104397713Y-68928388D01*
X104351246Y-69019585D01*
X104351245Y-69019584D01*
X104304779Y-69110781D01*
X104304779Y-69110782D01*
X104241523Y-69305461D01*
X104241523Y-69305464D01*
X104209500Y-69507648D01*
X104209500Y-76785500D01*
X104189815Y-76852539D01*
X104137011Y-76898294D01*
X104085500Y-76909500D01*
X103999778Y-76909500D01*
X103927201Y-76920995D01*
X103782047Y-76943985D01*
X103572396Y-77012103D01*
X103572393Y-77012104D01*
X103375974Y-77112187D01*
X103197641Y-77241752D01*
X103197636Y-77241756D01*
X103041760Y-77397632D01*
X103041755Y-77397638D01*
X103034397Y-77407766D01*
X102979066Y-77450430D01*
X102909453Y-77456408D01*
X102847658Y-77423800D01*
X102835705Y-77410365D01*
X102833711Y-77407766D01*
X102785921Y-77345485D01*
X102760728Y-77280318D01*
X102774766Y-77211873D01*
X102785922Y-77194514D01*
X102823682Y-77145304D01*
X102911936Y-77030289D01*
X103033224Y-76820212D01*
X103126054Y-76596100D01*
X103188838Y-76361789D01*
X103220500Y-76121288D01*
X103220500Y-75878712D01*
X103188838Y-75638211D01*
X103126054Y-75403900D01*
X103033224Y-75179788D01*
X102911936Y-74969711D01*
X102785922Y-74805486D01*
X102760728Y-74740317D01*
X102774766Y-74671872D01*
X102785922Y-74654514D01*
X102787099Y-74652979D01*
X102911936Y-74490289D01*
X103033224Y-74280212D01*
X103126054Y-74056100D01*
X103188838Y-73821789D01*
X103220500Y-73581288D01*
X103220500Y-73338712D01*
X103219377Y-73330185D01*
X103192683Y-73127418D01*
X103188838Y-73098211D01*
X103126054Y-72863900D01*
X103033224Y-72639788D01*
X102911936Y-72429711D01*
X102785922Y-72265486D01*
X102760728Y-72200317D01*
X102774766Y-72131872D01*
X102785922Y-72114514D01*
X102787099Y-72112979D01*
X102911936Y-71950289D01*
X103033224Y-71740212D01*
X103126054Y-71516100D01*
X103188838Y-71281789D01*
X103220500Y-71041288D01*
X103220500Y-70798712D01*
X103188838Y-70558211D01*
X103126054Y-70323900D01*
X103033224Y-70099788D01*
X102911936Y-69889711D01*
X102785922Y-69725486D01*
X102760728Y-69660317D01*
X102774766Y-69591872D01*
X102785922Y-69574514D01*
X102872113Y-69462187D01*
X102911936Y-69410289D01*
X103033224Y-69200212D01*
X103126054Y-68976100D01*
X103188838Y-68741789D01*
X103220500Y-68501288D01*
X103220500Y-68258712D01*
X103218566Y-68244025D01*
X103188838Y-68018214D01*
X103188838Y-68018211D01*
X103126054Y-67783900D01*
X103033224Y-67559788D01*
X102911936Y-67349711D01*
X102764265Y-67157262D01*
X102764260Y-67157256D01*
X102685103Y-67078099D01*
X102651618Y-67016776D01*
X102656602Y-66947084D01*
X102662913Y-66933265D01*
X102713597Y-66797376D01*
X102713598Y-66797372D01*
X102719999Y-66737844D01*
X102720000Y-66737827D01*
X102720000Y-66090000D01*
X101803012Y-66090000D01*
X101835925Y-66032993D01*
X101870000Y-65905826D01*
X101870000Y-65774174D01*
X101835925Y-65647007D01*
X101803012Y-65590000D01*
X102720000Y-65590000D01*
X102720000Y-64942172D01*
X102719999Y-64942155D01*
X102713598Y-64882627D01*
X102713596Y-64882620D01*
X102663354Y-64747913D01*
X102663350Y-64747906D01*
X102577190Y-64632812D01*
X102577187Y-64632809D01*
X102462093Y-64546649D01*
X102462086Y-64546645D01*
X102327379Y-64496403D01*
X102327372Y-64496401D01*
X102267844Y-64490000D01*
X101620000Y-64490000D01*
X101620000Y-65406988D01*
X101562993Y-65374075D01*
X101435826Y-65340000D01*
X101304174Y-65340000D01*
X101177007Y-65374075D01*
X101120000Y-65406988D01*
X101120000Y-64490000D01*
X100472155Y-64490000D01*
X100412627Y-64496401D01*
X100412620Y-64496403D01*
X100277913Y-64546645D01*
X100277906Y-64546649D01*
X100162812Y-64632809D01*
X100162809Y-64632812D01*
X100076649Y-64747906D01*
X100076645Y-64747913D01*
X100026403Y-64882620D01*
X100026401Y-64882627D01*
X100020000Y-64942155D01*
X100020000Y-65590000D01*
X100936988Y-65590000D01*
X100904075Y-65647007D01*
X100870000Y-65774174D01*
X100870000Y-65905826D01*
X100904075Y-66032993D01*
X100936988Y-66090000D01*
X100020000Y-66090000D01*
X100020000Y-66737844D01*
X100026401Y-66797372D01*
X100026403Y-66797379D01*
X100079746Y-66940399D01*
X100078217Y-66940969D01*
X100090899Y-66999262D01*
X100066484Y-67064727D01*
X100054897Y-67078099D01*
X99975732Y-67157264D01*
X99828067Y-67349706D01*
X99706777Y-67559785D01*
X99706773Y-67559794D01*
X99613947Y-67783895D01*
X99551161Y-68018214D01*
X99519500Y-68258711D01*
X99519500Y-68258712D01*
X99519500Y-68501288D01*
X99551162Y-68741789D01*
X99569573Y-68810500D01*
X99613947Y-68976104D01*
X99669733Y-69110782D01*
X99706776Y-69200212D01*
X99828064Y-69410289D01*
X99828066Y-69410292D01*
X99828067Y-69410293D01*
X99954077Y-69574514D01*
X99979271Y-69639683D01*
X99965232Y-69708128D01*
X99954077Y-69725486D01*
X99828067Y-69889706D01*
X99706777Y-70099785D01*
X99706773Y-70099794D01*
X99613947Y-70323895D01*
X99551161Y-70558214D01*
X99519500Y-70798711D01*
X99519500Y-71041288D01*
X99551161Y-71281785D01*
X99613947Y-71516104D01*
X99701818Y-71728242D01*
X99706776Y-71740212D01*
X99828064Y-71950289D01*
X99828066Y-71950292D01*
X99828067Y-71950293D01*
X99954077Y-72114514D01*
X99979271Y-72179683D01*
X99965232Y-72248128D01*
X99954077Y-72265486D01*
X99828067Y-72429706D01*
X99706777Y-72639785D01*
X99706773Y-72639794D01*
X99613947Y-72863895D01*
X99551161Y-73098214D01*
X99519500Y-73338711D01*
X99519500Y-73581288D01*
X99542192Y-73753660D01*
X99551162Y-73821789D01*
X99567807Y-73883909D01*
X99613947Y-74056104D01*
X99673741Y-74200458D01*
X99706776Y-74280212D01*
X99828064Y-74490289D01*
X99828066Y-74490292D01*
X99828067Y-74490293D01*
X99954077Y-74654514D01*
X99979271Y-74719683D01*
X99965232Y-74788128D01*
X99954077Y-74805486D01*
X99828067Y-74969706D01*
X99828064Y-74969710D01*
X99828064Y-74969711D01*
X99811817Y-74997851D01*
X99706777Y-75179785D01*
X99706773Y-75179794D01*
X99613947Y-75403895D01*
X99551161Y-75638214D01*
X99519500Y-75878711D01*
X99519500Y-76121288D01*
X99546255Y-76324520D01*
X99551162Y-76361789D01*
X99573000Y-76443290D01*
X99613947Y-76596104D01*
X99706773Y-76820205D01*
X99706777Y-76820214D01*
X99725440Y-76852539D01*
X99817565Y-77012105D01*
X99828066Y-77030292D01*
X99852403Y-77062009D01*
X99877596Y-77127178D01*
X99863557Y-77195623D01*
X99814742Y-77245612D01*
X99773425Y-77259967D01*
X99700464Y-77271523D01*
X99505776Y-77334781D01*
X99323386Y-77427715D01*
X99210529Y-77509710D01*
X99157785Y-77548030D01*
X99157779Y-77548035D01*
X98468036Y-78237778D01*
X98347716Y-78403384D01*
X98347711Y-78403392D01*
X98330256Y-78437648D01*
X98330257Y-78437649D01*
X98254780Y-78585779D01*
X98247072Y-78609498D01*
X98247073Y-78609499D01*
X98191523Y-78780460D01*
X98191523Y-78780463D01*
X98172307Y-78901789D01*
X98159500Y-78982648D01*
X98159500Y-80669952D01*
X98139815Y-80736991D01*
X98123181Y-80757633D01*
X97057780Y-81823034D01*
X96996457Y-81856519D01*
X96926765Y-81851535D01*
X96870832Y-81809663D01*
X96846415Y-81744199D01*
X96847160Y-81719167D01*
X96851292Y-81687787D01*
X96860500Y-81617843D01*
X96860500Y-81362157D01*
X96827126Y-81108660D01*
X96760950Y-80861687D01*
X96663104Y-80625465D01*
X96663102Y-80625462D01*
X96663100Y-80625457D01*
X96535265Y-80404042D01*
X96535261Y-80404035D01*
X96451967Y-80295485D01*
X96426774Y-80230318D01*
X96440812Y-80161873D01*
X96451964Y-80144517D01*
X96535261Y-80035965D01*
X96663104Y-79814535D01*
X96760950Y-79578313D01*
X96827126Y-79331340D01*
X96860500Y-79077843D01*
X96860500Y-78822157D01*
X96827126Y-78568660D01*
X96760950Y-78321687D01*
X96663104Y-78085465D01*
X96663102Y-78085462D01*
X96663100Y-78085457D01*
X96535265Y-77864042D01*
X96535261Y-77864035D01*
X96451967Y-77755485D01*
X96426774Y-77690318D01*
X96440812Y-77621873D01*
X96451964Y-77604517D01*
X96535261Y-77495965D01*
X96663104Y-77274535D01*
X96760950Y-77038313D01*
X96827126Y-76791340D01*
X96860500Y-76537843D01*
X96860500Y-76282157D01*
X96827126Y-76028660D01*
X96760950Y-75781687D01*
X96663104Y-75545465D01*
X96663102Y-75545462D01*
X96663100Y-75545457D01*
X96535265Y-75324042D01*
X96535261Y-75324035D01*
X96379610Y-75121187D01*
X96379605Y-75121181D01*
X96364364Y-75105940D01*
X96330879Y-75044617D01*
X96335863Y-74974925D01*
X96353598Y-74927376D01*
X96359999Y-74867844D01*
X96360000Y-74867827D01*
X96360000Y-74120000D01*
X95343012Y-74120000D01*
X95375925Y-74062993D01*
X95410000Y-73935826D01*
X95410000Y-73804174D01*
X95375925Y-73677007D01*
X95343012Y-73620000D01*
X96360000Y-73620000D01*
X96360000Y-72872172D01*
X96359999Y-72872155D01*
X96353598Y-72812627D01*
X96353596Y-72812620D01*
X96303354Y-72677913D01*
X96303350Y-72677906D01*
X96217190Y-72562812D01*
X96217187Y-72562809D01*
X96102093Y-72476649D01*
X96102086Y-72476645D01*
X95967379Y-72426403D01*
X95967372Y-72426401D01*
X95907844Y-72420000D01*
X95160000Y-72420000D01*
X95160000Y-73436988D01*
X95102993Y-73404075D01*
X94975826Y-73370000D01*
X94844174Y-73370000D01*
X94717007Y-73404075D01*
X94660000Y-73436988D01*
X94660000Y-72420000D01*
X93912155Y-72420000D01*
X93852627Y-72426401D01*
X93852620Y-72426403D01*
X93717913Y-72476645D01*
X93717906Y-72476649D01*
X93602812Y-72562809D01*
X93602809Y-72562812D01*
X93516649Y-72677906D01*
X93516645Y-72677913D01*
X93466403Y-72812620D01*
X93466401Y-72812627D01*
X93460000Y-72872155D01*
X93460000Y-73620000D01*
X94476988Y-73620000D01*
X94444075Y-73677007D01*
X94410000Y-73804174D01*
X94410000Y-73935826D01*
X94444075Y-74062993D01*
X94476988Y-74120000D01*
X93460000Y-74120000D01*
X93460000Y-74867844D01*
X93466401Y-74927372D01*
X93466404Y-74927383D01*
X93484136Y-74974927D01*
X93489120Y-75044619D01*
X93455640Y-75105935D01*
X93440392Y-75121183D01*
X93440384Y-75121192D01*
X93284745Y-75324026D01*
X93284734Y-75324042D01*
X93156899Y-75545457D01*
X93156894Y-75545468D01*
X93059053Y-75781677D01*
X93059050Y-75781687D01*
X93008337Y-75970953D01*
X92992874Y-76028661D01*
X92959500Y-76282149D01*
X92959500Y-76537850D01*
X92981456Y-76704611D01*
X92992874Y-76791340D01*
X93052028Y-77012105D01*
X93059048Y-77038305D01*
X93059053Y-77038322D01*
X93156894Y-77274531D01*
X93156899Y-77274542D01*
X93284734Y-77495957D01*
X93284745Y-77495973D01*
X93368031Y-77604514D01*
X93393225Y-77669683D01*
X93379187Y-77738128D01*
X93368031Y-77755486D01*
X93284745Y-77864026D01*
X93284734Y-77864042D01*
X93156899Y-78085457D01*
X93156894Y-78085468D01*
X93059053Y-78321677D01*
X93059050Y-78321687D01*
X93012873Y-78494025D01*
X92992874Y-78568661D01*
X92959500Y-78822149D01*
X92959500Y-79077850D01*
X92985457Y-79275007D01*
X92992874Y-79331340D01*
X93003875Y-79372396D01*
X93059050Y-79578312D01*
X93059053Y-79578322D01*
X93156894Y-79814531D01*
X93156899Y-79814542D01*
X93284734Y-80035957D01*
X93284745Y-80035973D01*
X93368031Y-80144514D01*
X93393225Y-80209683D01*
X93379187Y-80278128D01*
X93368031Y-80295486D01*
X93284745Y-80404026D01*
X93284734Y-80404042D01*
X93156899Y-80625457D01*
X93156894Y-80625468D01*
X93059053Y-80861677D01*
X93059050Y-80861687D01*
X93003109Y-81070465D01*
X92992874Y-81108661D01*
X92959500Y-81362149D01*
X92959500Y-81617850D01*
X92979466Y-81769499D01*
X92992874Y-81871340D01*
X93058121Y-82114846D01*
X93059050Y-82118312D01*
X93059053Y-82118322D01*
X93156894Y-82354531D01*
X93156899Y-82354542D01*
X93284734Y-82575957D01*
X93284745Y-82575973D01*
X93368031Y-82684514D01*
X93393225Y-82749683D01*
X93379187Y-82818128D01*
X93368031Y-82835486D01*
X93284745Y-82944026D01*
X93284734Y-82944042D01*
X93156899Y-83165457D01*
X93156894Y-83165468D01*
X93059053Y-83401677D01*
X93059050Y-83401687D01*
X93008996Y-83588494D01*
X92992874Y-83648661D01*
X92959500Y-83902149D01*
X92959500Y-84157850D01*
X92981328Y-84323639D01*
X92992874Y-84411340D01*
X93059050Y-84658312D01*
X93059053Y-84658322D01*
X93156894Y-84894531D01*
X93156899Y-84894542D01*
X93265995Y-85083500D01*
X93282468Y-85151400D01*
X93259616Y-85217427D01*
X93204694Y-85260618D01*
X93158608Y-85269500D01*
X92997648Y-85269500D01*
X92950779Y-85276923D01*
X92795468Y-85301522D01*
X92795467Y-85301522D01*
X92726864Y-85323813D01*
X92600778Y-85364781D01*
X92510497Y-85410782D01*
X92418387Y-85457714D01*
X92418384Y-85457716D01*
X92252778Y-85578036D01*
X91518036Y-86312778D01*
X91518031Y-86312784D01*
X91397716Y-86478384D01*
X91397709Y-86478396D01*
X91380911Y-86511366D01*
X91380910Y-86511368D01*
X91304781Y-86660778D01*
X91273809Y-86756100D01*
X91246026Y-86841608D01*
X91246025Y-86841612D01*
X91241522Y-86855468D01*
X91225546Y-86956338D01*
X91209500Y-87057648D01*
X91209500Y-120307648D01*
X91209500Y-120512352D01*
X91215262Y-120548730D01*
X91241522Y-120714531D01*
X91241522Y-120714532D01*
X91263538Y-120782290D01*
X91304778Y-120909216D01*
X91316295Y-120931819D01*
X91341134Y-120980568D01*
X91397713Y-121091611D01*
X91518034Y-121257219D01*
X91518036Y-121257221D01*
X92048634Y-121787819D01*
X92082119Y-121849142D01*
X92077135Y-121918834D01*
X92035263Y-121974767D01*
X91969799Y-121999184D01*
X91960953Y-121999500D01*
X35004052Y-121999500D01*
X34995942Y-121999234D01*
X34768422Y-121984321D01*
X34758885Y-121983325D01*
X34707362Y-121975917D01*
X34700818Y-121974796D01*
X34504235Y-121935694D01*
X34493490Y-121933054D01*
X34451268Y-121920656D01*
X34446346Y-121919099D01*
X34265918Y-121857853D01*
X34248023Y-121851778D01*
X34236377Y-121847155D01*
X34227679Y-121843183D01*
X34213143Y-121836544D01*
X34209816Y-121834964D01*
X34007539Y-121735212D01*
X33993493Y-121727102D01*
X33789539Y-121590825D01*
X33776670Y-121580951D01*
X33592250Y-121419218D01*
X33580781Y-121407749D01*
X33419048Y-121223329D01*
X33409174Y-121210460D01*
X33272897Y-121006506D01*
X33264787Y-120992460D01*
X33165034Y-120790182D01*
X33163454Y-120786855D01*
X33161369Y-120782290D01*
X33152835Y-120763602D01*
X33148228Y-120751997D01*
X33080887Y-120553617D01*
X33079350Y-120548755D01*
X33066938Y-120506485D01*
X33064311Y-120495794D01*
X33025195Y-120299143D01*
X33024088Y-120292679D01*
X33016671Y-120241094D01*
X33015680Y-120231615D01*
X33000765Y-120004042D01*
X33000500Y-119995933D01*
X33000500Y-117821172D01*
X33248523Y-117821172D01*
X33249492Y-118184099D01*
X33249499Y-118184238D01*
X33285618Y-118550975D01*
X33357504Y-118912375D01*
X33357507Y-118912386D01*
X33464480Y-119265030D01*
X33605500Y-119605481D01*
X33605502Y-119605486D01*
X33779202Y-119930456D01*
X33779213Y-119930474D01*
X33983931Y-120236856D01*
X33983941Y-120236870D01*
X34217715Y-120521724D01*
X34478275Y-120782284D01*
X34478280Y-120782288D01*
X34478281Y-120782289D01*
X34763135Y-121016063D01*
X35069532Y-121220791D01*
X35069541Y-121220796D01*
X35069543Y-121220797D01*
X35394513Y-121394497D01*
X35394515Y-121394497D01*
X35394521Y-121394501D01*
X35734971Y-121535520D01*
X36087604Y-121642490D01*
X36087610Y-121642491D01*
X36087613Y-121642492D01*
X36087624Y-121642495D01*
X36449024Y-121714381D01*
X36815750Y-121750500D01*
X36815753Y-121750500D01*
X37184247Y-121750500D01*
X37184250Y-121750500D01*
X37550976Y-121714381D01*
X37621331Y-121700386D01*
X37912375Y-121642495D01*
X37912386Y-121642492D01*
X37912386Y-121642491D01*
X37912396Y-121642490D01*
X38265029Y-121535520D01*
X38605479Y-121394501D01*
X38930468Y-121220791D01*
X39236865Y-121016063D01*
X39521719Y-120782289D01*
X39782289Y-120521719D01*
X40016063Y-120236865D01*
X40220791Y-119930468D01*
X40394501Y-119605479D01*
X40535520Y-119265029D01*
X40642490Y-118912396D01*
X40642492Y-118912386D01*
X40642495Y-118912375D01*
X40714381Y-118550975D01*
X40718512Y-118509034D01*
X40750500Y-118184250D01*
X40750500Y-117815750D01*
X40714381Y-117449024D01*
X40661436Y-117182850D01*
X40642495Y-117087624D01*
X40642492Y-117087613D01*
X40642491Y-117087610D01*
X40642490Y-117087604D01*
X40535520Y-116734971D01*
X40394501Y-116394521D01*
X40282758Y-116185465D01*
X40220797Y-116069543D01*
X40220796Y-116069541D01*
X40220791Y-116069532D01*
X40016063Y-115763135D01*
X39782289Y-115478281D01*
X39782288Y-115478280D01*
X39782284Y-115478275D01*
X39521724Y-115217715D01*
X39236870Y-114983941D01*
X39236869Y-114983940D01*
X39236865Y-114983937D01*
X38930468Y-114779209D01*
X38930463Y-114779206D01*
X38930456Y-114779202D01*
X38605486Y-114605502D01*
X38605481Y-114605500D01*
X38265030Y-114464480D01*
X37912386Y-114357507D01*
X37912375Y-114357504D01*
X37550975Y-114285618D01*
X37274772Y-114258415D01*
X37184250Y-114249500D01*
X36815750Y-114249500D01*
X36732109Y-114257737D01*
X36449024Y-114285618D01*
X36087624Y-114357504D01*
X36087613Y-114357507D01*
X35734969Y-114464480D01*
X35394518Y-114605500D01*
X35394513Y-114605502D01*
X35069543Y-114779202D01*
X35069525Y-114779213D01*
X34763143Y-114983931D01*
X34763129Y-114983941D01*
X34478275Y-115217715D01*
X34217715Y-115478275D01*
X33983941Y-115763129D01*
X33983931Y-115763143D01*
X33779213Y-116069525D01*
X33779202Y-116069543D01*
X33605502Y-116394513D01*
X33605500Y-116394518D01*
X33464480Y-116734969D01*
X33357507Y-117087613D01*
X33357504Y-117087624D01*
X33285618Y-117449024D01*
X33249499Y-117815761D01*
X33249350Y-117818796D01*
X33248523Y-117821172D01*
X33000500Y-117821172D01*
X33000500Y-100552155D01*
X38000000Y-100552155D01*
X38000000Y-101850000D01*
X39280936Y-101850000D01*
X39269207Y-101878316D01*
X39240000Y-102025147D01*
X39240000Y-102174853D01*
X39269207Y-102321684D01*
X39280936Y-102350000D01*
X38000000Y-102350000D01*
X38000000Y-103647844D01*
X38006401Y-103707372D01*
X38006403Y-103707379D01*
X38056645Y-103842086D01*
X38056649Y-103842093D01*
X38142809Y-103957187D01*
X38142812Y-103957190D01*
X38257906Y-104043350D01*
X38257913Y-104043354D01*
X38392620Y-104093596D01*
X38392627Y-104093598D01*
X38452155Y-104099999D01*
X38452172Y-104100000D01*
X39750000Y-104100000D01*
X39750000Y-102819064D01*
X39778316Y-102830793D01*
X39925147Y-102860000D01*
X40074853Y-102860000D01*
X40221684Y-102830793D01*
X40250000Y-102819064D01*
X40250000Y-104100000D01*
X41547828Y-104100000D01*
X41547844Y-104099999D01*
X41607372Y-104093598D01*
X41607379Y-104093596D01*
X41742086Y-104043354D01*
X41742093Y-104043350D01*
X41857187Y-103957190D01*
X41857190Y-103957187D01*
X41943350Y-103842093D01*
X41943354Y-103842086D01*
X41993596Y-103707379D01*
X41993598Y-103707372D01*
X41999999Y-103647844D01*
X42000000Y-103647827D01*
X42000000Y-102399778D01*
X46459500Y-102399778D01*
X46459500Y-102620222D01*
X46468894Y-102679531D01*
X46493985Y-102837952D01*
X46562103Y-103047603D01*
X46562104Y-103047606D01*
X46662187Y-103244025D01*
X46791752Y-103422358D01*
X46791756Y-103422363D01*
X46947636Y-103578243D01*
X46947641Y-103578247D01*
X47125973Y-103707812D01*
X47125975Y-103707813D01*
X47125978Y-103707815D01*
X47297386Y-103795152D01*
X47328771Y-103817955D01*
X49951287Y-106440472D01*
X49984772Y-106501795D01*
X49981537Y-106566470D01*
X49943985Y-106682045D01*
X49916708Y-106854266D01*
X49909500Y-106899778D01*
X49909500Y-107120222D01*
X49913854Y-107147711D01*
X49943985Y-107337952D01*
X50012103Y-107547603D01*
X50012104Y-107547606D01*
X50066809Y-107654967D01*
X50106351Y-107732573D01*
X50112187Y-107744025D01*
X50241752Y-107922358D01*
X50241756Y-107922363D01*
X50397636Y-108078243D01*
X50397641Y-108078247D01*
X50509683Y-108159649D01*
X50575978Y-108207815D01*
X50682523Y-108262103D01*
X50772393Y-108307895D01*
X50772396Y-108307896D01*
X50877221Y-108341955D01*
X50982049Y-108376015D01*
X51199778Y-108410500D01*
X51199779Y-108410500D01*
X51420221Y-108410500D01*
X51420222Y-108410500D01*
X51637951Y-108376015D01*
X51847606Y-108307895D01*
X52044022Y-108207815D01*
X52222365Y-108078242D01*
X52378242Y-107922365D01*
X52378247Y-107922358D01*
X52385181Y-107912815D01*
X52440511Y-107870148D01*
X52510124Y-107864168D01*
X52571919Y-107896774D01*
X52606277Y-107957612D01*
X52609500Y-107985699D01*
X52609500Y-108762356D01*
X52619577Y-108825978D01*
X52641522Y-108964530D01*
X52641522Y-108964531D01*
X52641523Y-108964534D01*
X52704780Y-109159219D01*
X52741889Y-109232049D01*
X52797713Y-109341611D01*
X52918034Y-109507219D01*
X63997781Y-120586966D01*
X64163389Y-120707287D01*
X64226645Y-120739517D01*
X64345780Y-120800220D01*
X64345786Y-120800222D01*
X64396147Y-120816584D01*
X64443121Y-120831847D01*
X64443122Y-120831848D01*
X64467458Y-120839755D01*
X64540465Y-120863477D01*
X64742648Y-120895500D01*
X69242648Y-120895500D01*
X70500715Y-120895500D01*
X70567754Y-120915185D01*
X70588391Y-120931814D01*
X70656327Y-120999750D01*
X70721189Y-121064612D01*
X70756375Y-121091611D01*
X70924035Y-121220261D01*
X70924042Y-121220265D01*
X71145457Y-121348100D01*
X71145462Y-121348102D01*
X71145465Y-121348104D01*
X71381687Y-121445950D01*
X71628660Y-121512126D01*
X71882157Y-121545500D01*
X71882164Y-121545500D01*
X72137836Y-121545500D01*
X72137843Y-121545500D01*
X72391340Y-121512126D01*
X72638313Y-121445950D01*
X72874535Y-121348104D01*
X73095965Y-121220261D01*
X73298813Y-121064610D01*
X73479610Y-120883813D01*
X73635261Y-120680965D01*
X73763104Y-120459535D01*
X73860950Y-120223313D01*
X73927126Y-119976340D01*
X73960500Y-119722843D01*
X73960500Y-119467157D01*
X73927126Y-119213660D01*
X73860950Y-118966687D01*
X73763104Y-118730465D01*
X73763102Y-118730462D01*
X73763100Y-118730457D01*
X73635265Y-118509042D01*
X73635261Y-118509035D01*
X73551967Y-118400485D01*
X73526774Y-118335318D01*
X73540812Y-118266873D01*
X73551964Y-118249517D01*
X73635261Y-118140965D01*
X73763104Y-117919535D01*
X73860950Y-117683313D01*
X73927126Y-117436340D01*
X73960500Y-117182843D01*
X73960500Y-116927157D01*
X73927126Y-116673660D01*
X73860950Y-116426687D01*
X73847626Y-116394521D01*
X73763105Y-116190468D01*
X73763100Y-116190457D01*
X73635265Y-115969042D01*
X73635261Y-115969035D01*
X73551967Y-115860485D01*
X73526774Y-115795318D01*
X73540812Y-115726873D01*
X73551964Y-115709517D01*
X73635261Y-115600965D01*
X73763104Y-115379535D01*
X73860950Y-115143313D01*
X73927126Y-114896340D01*
X73960500Y-114642843D01*
X73960500Y-114387157D01*
X73927126Y-114133660D01*
X73860950Y-113886687D01*
X73763104Y-113650465D01*
X73763102Y-113650462D01*
X73763100Y-113650457D01*
X73635265Y-113429042D01*
X73635261Y-113429035D01*
X73551967Y-113320485D01*
X73526774Y-113255318D01*
X73540812Y-113186873D01*
X73551964Y-113169517D01*
X73635261Y-113060965D01*
X73763104Y-112839535D01*
X73860950Y-112603313D01*
X73927126Y-112356340D01*
X73960500Y-112102843D01*
X73960500Y-111847157D01*
X73927126Y-111593660D01*
X73860950Y-111346687D01*
X73763104Y-111110465D01*
X73763102Y-111110462D01*
X73763100Y-111110457D01*
X73635265Y-110889042D01*
X73635261Y-110889035D01*
X73551967Y-110780485D01*
X73526774Y-110715318D01*
X73540812Y-110646873D01*
X73551964Y-110629517D01*
X73635261Y-110520965D01*
X73763104Y-110299535D01*
X73860950Y-110063313D01*
X73927126Y-109816340D01*
X73960500Y-109562843D01*
X73960500Y-109307157D01*
X73927126Y-109053660D01*
X73860950Y-108806687D01*
X73763104Y-108570465D01*
X73763102Y-108570462D01*
X73763100Y-108570457D01*
X73635265Y-108349042D01*
X73635261Y-108349035D01*
X73590452Y-108290638D01*
X73479611Y-108146188D01*
X73479605Y-108146181D01*
X73298818Y-107965394D01*
X73298808Y-107965386D01*
X73218595Y-107903835D01*
X73177393Y-107847407D01*
X73173238Y-107777661D01*
X73193765Y-107732573D01*
X73250150Y-107654967D01*
X73353769Y-107451604D01*
X73424295Y-107234544D01*
X73438478Y-107145000D01*
X72443012Y-107145000D01*
X72475925Y-107087993D01*
X72510000Y-106960826D01*
X72510000Y-106829174D01*
X72475925Y-106702007D01*
X72443012Y-106645000D01*
X73438478Y-106645000D01*
X73424295Y-106555455D01*
X73353769Y-106338395D01*
X73250148Y-106135030D01*
X73193764Y-106057423D01*
X73170284Y-105991617D01*
X73186109Y-105923563D01*
X73218591Y-105886166D01*
X73298813Y-105824610D01*
X73479610Y-105643813D01*
X73635261Y-105440965D01*
X73763104Y-105219535D01*
X73860950Y-104983313D01*
X73927126Y-104736340D01*
X73960500Y-104482843D01*
X73960500Y-104227157D01*
X73927126Y-103973660D01*
X73860950Y-103726687D01*
X73852952Y-103707379D01*
X73766062Y-103497606D01*
X73763104Y-103490465D01*
X73763102Y-103490462D01*
X73763100Y-103490457D01*
X73635265Y-103269042D01*
X73635261Y-103269035D01*
X73551967Y-103160485D01*
X73526774Y-103095318D01*
X73540812Y-103026873D01*
X73551964Y-103009517D01*
X73635261Y-102900965D01*
X73763104Y-102679535D01*
X73860950Y-102443313D01*
X73927126Y-102196340D01*
X73960500Y-101942843D01*
X73960500Y-101687157D01*
X73927126Y-101433660D01*
X73860950Y-101186687D01*
X73763104Y-100950465D01*
X73763102Y-100950462D01*
X73763100Y-100950457D01*
X73635265Y-100729042D01*
X73635261Y-100729035D01*
X73551967Y-100620485D01*
X73526774Y-100555318D01*
X73540812Y-100486873D01*
X73551964Y-100469517D01*
X73635261Y-100360965D01*
X73763104Y-100139535D01*
X73860950Y-99903313D01*
X73927126Y-99656340D01*
X73960500Y-99402843D01*
X73960500Y-99147157D01*
X73927126Y-98893660D01*
X73860950Y-98646687D01*
X73763104Y-98410465D01*
X73763102Y-98410462D01*
X73763100Y-98410457D01*
X73635265Y-98189042D01*
X73635261Y-98189035D01*
X73551967Y-98080485D01*
X73526774Y-98015318D01*
X73540812Y-97946873D01*
X73551964Y-97929517D01*
X73635261Y-97820965D01*
X73763104Y-97599535D01*
X73860950Y-97363313D01*
X73927126Y-97116340D01*
X73960500Y-96862843D01*
X73960500Y-96607157D01*
X73927126Y-96353660D01*
X73860950Y-96106687D01*
X73842269Y-96061588D01*
X73772785Y-95893838D01*
X73763104Y-95870465D01*
X73763102Y-95870462D01*
X73763100Y-95870457D01*
X73635265Y-95649042D01*
X73635261Y-95649035D01*
X73551967Y-95540485D01*
X73526774Y-95475318D01*
X73540812Y-95406873D01*
X73551964Y-95389517D01*
X73635261Y-95280965D01*
X73763104Y-95059535D01*
X73860950Y-94823313D01*
X73927126Y-94576340D01*
X73960500Y-94322843D01*
X73960500Y-94067157D01*
X73927126Y-93813660D01*
X73860950Y-93566687D01*
X73856025Y-93554798D01*
X73763105Y-93330468D01*
X73763100Y-93330457D01*
X73635265Y-93109042D01*
X73635261Y-93109035D01*
X73551967Y-93000485D01*
X73526774Y-92935318D01*
X73540812Y-92866873D01*
X73551964Y-92849517D01*
X73635261Y-92740965D01*
X73763104Y-92519535D01*
X73860950Y-92283313D01*
X73927126Y-92036340D01*
X73960500Y-91782843D01*
X73960500Y-91527157D01*
X73927126Y-91273660D01*
X73860950Y-91026687D01*
X73763104Y-90790465D01*
X73763102Y-90790462D01*
X73763100Y-90790457D01*
X73635265Y-90569042D01*
X73635261Y-90569035D01*
X73551967Y-90460485D01*
X73526774Y-90395318D01*
X73540812Y-90326873D01*
X73551964Y-90309517D01*
X73635261Y-90200965D01*
X73763104Y-89979535D01*
X73860950Y-89743313D01*
X73927126Y-89496340D01*
X73960500Y-89242843D01*
X73960500Y-88987157D01*
X73927126Y-88733660D01*
X73860950Y-88486687D01*
X73763104Y-88250465D01*
X73763102Y-88250462D01*
X73763100Y-88250457D01*
X73635265Y-88029042D01*
X73635261Y-88029035D01*
X73551967Y-87920485D01*
X73526774Y-87855318D01*
X73540812Y-87786873D01*
X73551964Y-87769517D01*
X73635261Y-87660965D01*
X73763104Y-87439535D01*
X73860950Y-87203313D01*
X73927126Y-86956340D01*
X73960500Y-86702843D01*
X73960500Y-86447157D01*
X73927126Y-86193660D01*
X73860950Y-85946687D01*
X73763104Y-85710465D01*
X73763102Y-85710462D01*
X73763100Y-85710457D01*
X73635265Y-85489042D01*
X73635261Y-85489035D01*
X73551967Y-85380485D01*
X73526774Y-85315318D01*
X73540812Y-85246873D01*
X73551964Y-85229517D01*
X73635261Y-85120965D01*
X73763104Y-84899535D01*
X73860950Y-84663313D01*
X73927126Y-84416340D01*
X73960500Y-84162843D01*
X73960500Y-83907157D01*
X73927126Y-83653660D01*
X73860950Y-83406687D01*
X73763104Y-83170465D01*
X73763102Y-83170462D01*
X73763100Y-83170457D01*
X73635265Y-82949042D01*
X73635261Y-82949035D01*
X73551967Y-82840485D01*
X73526774Y-82775318D01*
X73540812Y-82706873D01*
X73551964Y-82689517D01*
X73635261Y-82580965D01*
X73763104Y-82359535D01*
X73860950Y-82123313D01*
X73927126Y-81876340D01*
X73960500Y-81622843D01*
X73960500Y-81367157D01*
X73927126Y-81113660D01*
X73860950Y-80866687D01*
X73763104Y-80630465D01*
X73763102Y-80630462D01*
X73763100Y-80630457D01*
X73635265Y-80409042D01*
X73635261Y-80409035D01*
X73551967Y-80300485D01*
X73526774Y-80235318D01*
X73540812Y-80166873D01*
X73551964Y-80149517D01*
X73635261Y-80040965D01*
X73763104Y-79819535D01*
X73860950Y-79583313D01*
X73927126Y-79336340D01*
X73960500Y-79082843D01*
X73960500Y-78827157D01*
X73927126Y-78573660D01*
X73860950Y-78326687D01*
X73763104Y-78090465D01*
X73763102Y-78090462D01*
X73763100Y-78090457D01*
X73635265Y-77869042D01*
X73635261Y-77869035D01*
X73551967Y-77760485D01*
X73526774Y-77695318D01*
X73540812Y-77626873D01*
X73551964Y-77609517D01*
X73635261Y-77500965D01*
X73763104Y-77279535D01*
X73860950Y-77043313D01*
X73927126Y-76796340D01*
X73960500Y-76542843D01*
X73960500Y-76287157D01*
X73927126Y-76033660D01*
X73860950Y-75786687D01*
X73763104Y-75550465D01*
X73762889Y-75550093D01*
X73762859Y-75549969D01*
X73761308Y-75546823D01*
X73762011Y-75546476D01*
X73746408Y-75482197D01*
X73763293Y-75425370D01*
X73768123Y-75417129D01*
X73799698Y-75378407D01*
X73872312Y-75239392D01*
X73873838Y-75236791D01*
X73897166Y-75214840D01*
X73919391Y-75191781D01*
X73922567Y-75190938D01*
X73924723Y-75188911D01*
X73943119Y-75185491D01*
X73980813Y-75175500D01*
X89397351Y-75175500D01*
X89397352Y-75175500D01*
X89599535Y-75143477D01*
X89696876Y-75111848D01*
X89794219Y-75080220D01*
X89903709Y-75024432D01*
X89976611Y-74987287D01*
X90142219Y-74866966D01*
X93041229Y-71967953D01*
X93072608Y-71945154D01*
X93244022Y-71857815D01*
X93422365Y-71728242D01*
X93578242Y-71572365D01*
X93707815Y-71394022D01*
X93807895Y-71197606D01*
X93876015Y-70987951D01*
X93910500Y-70770222D01*
X93910500Y-70549778D01*
X93876015Y-70332049D01*
X93807895Y-70122394D01*
X93807895Y-70122393D01*
X93770753Y-70049500D01*
X93707815Y-69925978D01*
X93681462Y-69889706D01*
X93578247Y-69747641D01*
X93578243Y-69747636D01*
X93422363Y-69591756D01*
X93422358Y-69591752D01*
X93244025Y-69462187D01*
X93244024Y-69462186D01*
X93244022Y-69462185D01*
X93181096Y-69430122D01*
X93047606Y-69362104D01*
X93047603Y-69362103D01*
X92837952Y-69293985D01*
X92729086Y-69276742D01*
X92620222Y-69259500D01*
X92399778Y-69259500D01*
X92327201Y-69270995D01*
X92182047Y-69293985D01*
X91972396Y-69362103D01*
X91972393Y-69362104D01*
X91775974Y-69462187D01*
X91597641Y-69591752D01*
X91597636Y-69591756D01*
X91441756Y-69747636D01*
X91441752Y-69747641D01*
X91312185Y-69925976D01*
X91224846Y-70097386D01*
X91202043Y-70128771D01*
X88792634Y-72538181D01*
X88731311Y-72571666D01*
X88704953Y-72574500D01*
X73980813Y-72574500D01*
X73913774Y-72554815D01*
X73870904Y-72507911D01*
X73799698Y-72371593D01*
X73728316Y-72284050D01*
X73671109Y-72213890D01*
X73513409Y-72085304D01*
X73513410Y-72085304D01*
X73513407Y-72085302D01*
X73333049Y-71991091D01*
X73333048Y-71991090D01*
X73333045Y-71991089D01*
X73190452Y-71950289D01*
X73137418Y-71935114D01*
X73137415Y-71935113D01*
X73137413Y-71935113D01*
X73071102Y-71929217D01*
X73018037Y-71924500D01*
X73018032Y-71924500D01*
X71001971Y-71924500D01*
X71001965Y-71924500D01*
X71001964Y-71924501D01*
X70990316Y-71925536D01*
X70882584Y-71935113D01*
X70686954Y-71991089D01*
X70596772Y-72038196D01*
X70506593Y-72085302D01*
X70506591Y-72085303D01*
X70506590Y-72085304D01*
X70348890Y-72213890D01*
X70220304Y-72371590D01*
X70220302Y-72371593D01*
X70189944Y-72429711D01*
X70126089Y-72551954D01*
X70070114Y-72747583D01*
X70070113Y-72747586D01*
X70064331Y-72812627D01*
X70059773Y-72863900D01*
X70059500Y-72866966D01*
X70059500Y-74883028D01*
X70059501Y-74883034D01*
X70070113Y-75002415D01*
X70126089Y-75198045D01*
X70126090Y-75198048D01*
X70126091Y-75198049D01*
X70220302Y-75378407D01*
X70220304Y-75378409D01*
X70245833Y-75409718D01*
X70272942Y-75474114D01*
X70260933Y-75542944D01*
X70257128Y-75550062D01*
X70256900Y-75550455D01*
X70256893Y-75550471D01*
X70159053Y-75786677D01*
X70159050Y-75786687D01*
X70094214Y-76028661D01*
X70092874Y-76033661D01*
X70059500Y-76287149D01*
X70059500Y-76542850D01*
X70085457Y-76740007D01*
X70092874Y-76796340D01*
X70157713Y-77038322D01*
X70159050Y-77043312D01*
X70159053Y-77043322D01*
X70256894Y-77279531D01*
X70256896Y-77279535D01*
X70296713Y-77348500D01*
X70313186Y-77416399D01*
X70290334Y-77482426D01*
X70235413Y-77525617D01*
X70189326Y-77534500D01*
X68818578Y-77534500D01*
X68751539Y-77514815D01*
X68708670Y-77467912D01*
X68689699Y-77431595D01*
X68689698Y-77431593D01*
X68610758Y-77334781D01*
X68561109Y-77273890D01*
X68403409Y-77145304D01*
X68403410Y-77145304D01*
X68403407Y-77145302D01*
X68223049Y-77051091D01*
X68223048Y-77051090D01*
X68223045Y-77051089D01*
X68105829Y-77017550D01*
X68027418Y-76995114D01*
X68027415Y-76995113D01*
X68027413Y-76995113D01*
X67961102Y-76989217D01*
X67908037Y-76984500D01*
X67908032Y-76984500D01*
X66091971Y-76984500D01*
X66091965Y-76984500D01*
X66091964Y-76984501D01*
X66080316Y-76985536D01*
X65972584Y-76995113D01*
X65776954Y-77051089D01*
X65686772Y-77098196D01*
X65596593Y-77145302D01*
X65596591Y-77145303D01*
X65596590Y-77145304D01*
X65438890Y-77273890D01*
X65313464Y-77427715D01*
X65310302Y-77431593D01*
X65297340Y-77456408D01*
X65216089Y-77611954D01*
X65160114Y-77807583D01*
X65160113Y-77807586D01*
X65149500Y-77926966D01*
X65149500Y-79743028D01*
X65149500Y-79743033D01*
X65149501Y-79743036D01*
X65151571Y-79766330D01*
X65160113Y-79862415D01*
X65216089Y-80058045D01*
X65216090Y-80058048D01*
X65216091Y-80058049D01*
X65310064Y-80237952D01*
X65310305Y-80238412D01*
X65378691Y-80322281D01*
X65405800Y-80386677D01*
X65393790Y-80455507D01*
X65389977Y-80462640D01*
X65336775Y-80554789D01*
X65336773Y-80554794D01*
X65243947Y-80778895D01*
X65181161Y-81013214D01*
X65149500Y-81253711D01*
X65149500Y-81496288D01*
X65165503Y-81617850D01*
X65181162Y-81736789D01*
X65211908Y-81851535D01*
X65243947Y-81971104D01*
X65306998Y-82123322D01*
X65336776Y-82195212D01*
X65458064Y-82405289D01*
X65458066Y-82405292D01*
X65458067Y-82405293D01*
X65584077Y-82569514D01*
X65609271Y-82634683D01*
X65595232Y-82703128D01*
X65584077Y-82720486D01*
X65458067Y-82884706D01*
X65458064Y-82884710D01*
X65458064Y-82884711D01*
X65457569Y-82885568D01*
X65336777Y-83094785D01*
X65336773Y-83094794D01*
X65243947Y-83318895D01*
X65181161Y-83553214D01*
X65149500Y-83793711D01*
X65149500Y-84036288D01*
X65181161Y-84276785D01*
X65243947Y-84511104D01*
X65306998Y-84663322D01*
X65336776Y-84735212D01*
X65458064Y-84945289D01*
X65458066Y-84945292D01*
X65458067Y-84945293D01*
X65584077Y-85109514D01*
X65609271Y-85174683D01*
X65595232Y-85243128D01*
X65584077Y-85260486D01*
X65458067Y-85424706D01*
X65336777Y-85634785D01*
X65336773Y-85634794D01*
X65243947Y-85858895D01*
X65181161Y-86093214D01*
X65149500Y-86333711D01*
X65149500Y-86576288D01*
X65174415Y-86765546D01*
X65181162Y-86816789D01*
X65197283Y-86876951D01*
X65243947Y-87051104D01*
X65336773Y-87275205D01*
X65336776Y-87275212D01*
X65458064Y-87485289D01*
X65458066Y-87485292D01*
X65458067Y-87485293D01*
X65584077Y-87649514D01*
X65609271Y-87714683D01*
X65595232Y-87783128D01*
X65584077Y-87800486D01*
X65458067Y-87964706D01*
X65458064Y-87964710D01*
X65458064Y-87964711D01*
X65442240Y-87992119D01*
X65336777Y-88174785D01*
X65336773Y-88174794D01*
X65243947Y-88398895D01*
X65181161Y-88633214D01*
X65149500Y-88873711D01*
X65149500Y-89116288D01*
X65181161Y-89356785D01*
X65243947Y-89591104D01*
X65330081Y-89799050D01*
X65336776Y-89815212D01*
X65458064Y-90025289D01*
X65458066Y-90025292D01*
X65458067Y-90025293D01*
X65584077Y-90189514D01*
X65609271Y-90254683D01*
X65595232Y-90323128D01*
X65584077Y-90340486D01*
X65458067Y-90504706D01*
X65336777Y-90714785D01*
X65336773Y-90714794D01*
X65243947Y-90938895D01*
X65181161Y-91173214D01*
X65157822Y-91350500D01*
X65149500Y-91413712D01*
X65149500Y-91656288D01*
X65181162Y-91896789D01*
X65205582Y-91987924D01*
X65243946Y-92131100D01*
X65306994Y-92283313D01*
X65336776Y-92355212D01*
X65458064Y-92565289D01*
X65458066Y-92565292D01*
X65458067Y-92565293D01*
X65584077Y-92729514D01*
X65609271Y-92794683D01*
X65595232Y-92863128D01*
X65584077Y-92880486D01*
X65458067Y-93044706D01*
X65336777Y-93254785D01*
X65336773Y-93254794D01*
X65243947Y-93478895D01*
X65181161Y-93713214D01*
X65149500Y-93953711D01*
X65149500Y-94196288D01*
X65178692Y-94418034D01*
X65181162Y-94436789D01*
X65201413Y-94512365D01*
X65243947Y-94671104D01*
X65327324Y-94872393D01*
X65336776Y-94895212D01*
X65458064Y-95105289D01*
X65458066Y-95105292D01*
X65458067Y-95105293D01*
X65605733Y-95297736D01*
X65605739Y-95297743D01*
X65777256Y-95469260D01*
X65777263Y-95469266D01*
X65929564Y-95586130D01*
X65970767Y-95642558D01*
X65974922Y-95712304D01*
X65954397Y-95757391D01*
X65845376Y-95907446D01*
X65748904Y-96096782D01*
X65683242Y-96298870D01*
X65683242Y-96298873D01*
X65672769Y-96365000D01*
X66566988Y-96365000D01*
X66534075Y-96422007D01*
X66500000Y-96549174D01*
X66500000Y-96680826D01*
X66534075Y-96807993D01*
X66566988Y-96865000D01*
X65672769Y-96865000D01*
X65683242Y-96931126D01*
X65683242Y-96931129D01*
X65748904Y-97133217D01*
X65845379Y-97322557D01*
X65970272Y-97494459D01*
X65970276Y-97494464D01*
X66120535Y-97644723D01*
X66120540Y-97644727D01*
X66292442Y-97769620D01*
X66481782Y-97866095D01*
X66683871Y-97931757D01*
X66750000Y-97942231D01*
X66750000Y-97048012D01*
X66807007Y-97080925D01*
X66934174Y-97115000D01*
X67065826Y-97115000D01*
X67192993Y-97080925D01*
X67250000Y-97048012D01*
X67250000Y-97942230D01*
X67316101Y-97931761D01*
X67385395Y-97940715D01*
X67438847Y-97985711D01*
X67459487Y-98052463D01*
X67459500Y-98054234D01*
X67459500Y-98405500D01*
X67439815Y-98472539D01*
X67387011Y-98518294D01*
X67335500Y-98529500D01*
X66091971Y-98529500D01*
X66091965Y-98529500D01*
X66091964Y-98529501D01*
X66080316Y-98530536D01*
X65972584Y-98540113D01*
X65776954Y-98596089D01*
X65686772Y-98643196D01*
X65596593Y-98690302D01*
X65596591Y-98690303D01*
X65596590Y-98690304D01*
X65438890Y-98818890D01*
X65310304Y-98976590D01*
X65310302Y-98976593D01*
X65265416Y-99062523D01*
X65216089Y-99156954D01*
X65160113Y-99352584D01*
X65153537Y-99426556D01*
X65149958Y-99466819D01*
X65149500Y-99471966D01*
X65149500Y-101288028D01*
X65149501Y-101288034D01*
X65160113Y-101407415D01*
X65216089Y-101603045D01*
X65216090Y-101603048D01*
X65216091Y-101603049D01*
X65306421Y-101775978D01*
X65310305Y-101783412D01*
X65378691Y-101867281D01*
X65405800Y-101931677D01*
X65393790Y-102000507D01*
X65389977Y-102007640D01*
X65336775Y-102099789D01*
X65336773Y-102099794D01*
X65243947Y-102323895D01*
X65181161Y-102558214D01*
X65149500Y-102798711D01*
X65149500Y-103041288D01*
X65179483Y-103269042D01*
X65181162Y-103281789D01*
X65200467Y-103353834D01*
X65243947Y-103516104D01*
X65331174Y-103726687D01*
X65336776Y-103740212D01*
X65458064Y-103950289D01*
X65458066Y-103950292D01*
X65458067Y-103950293D01*
X65584077Y-104114514D01*
X65609271Y-104179683D01*
X65595232Y-104248128D01*
X65584077Y-104265486D01*
X65458067Y-104429706D01*
X65336777Y-104639785D01*
X65336773Y-104639794D01*
X65243947Y-104863895D01*
X65181161Y-105098214D01*
X65149500Y-105338711D01*
X65149500Y-105581288D01*
X65181161Y-105821785D01*
X65243947Y-106056104D01*
X65333427Y-106272126D01*
X65336776Y-106280212D01*
X65458064Y-106490289D01*
X65458066Y-106490292D01*
X65458067Y-106490293D01*
X65605733Y-106682736D01*
X65605739Y-106682743D01*
X65777256Y-106854260D01*
X65777263Y-106854266D01*
X65929564Y-106971130D01*
X65970767Y-107027558D01*
X65974922Y-107097304D01*
X65954397Y-107142391D01*
X65845376Y-107292446D01*
X65748904Y-107481782D01*
X65683242Y-107683870D01*
X65683242Y-107683873D01*
X65672769Y-107750000D01*
X66566988Y-107750000D01*
X66534075Y-107807007D01*
X66500000Y-107934174D01*
X66500000Y-108065826D01*
X66534075Y-108192993D01*
X66566988Y-108250000D01*
X65672769Y-108250000D01*
X65683242Y-108316126D01*
X65683242Y-108316129D01*
X65748904Y-108518217D01*
X65845379Y-108707557D01*
X65970272Y-108879459D01*
X65970276Y-108879464D01*
X66120535Y-109029723D01*
X66120540Y-109029727D01*
X66292442Y-109154620D01*
X66481782Y-109251095D01*
X66683871Y-109316757D01*
X66750000Y-109327231D01*
X66750000Y-108433012D01*
X66807007Y-108465925D01*
X66934174Y-108500000D01*
X67065826Y-108500000D01*
X67192993Y-108465925D01*
X67250000Y-108433012D01*
X67250000Y-109327230D01*
X67316126Y-109316757D01*
X67316129Y-109316757D01*
X67518217Y-109251095D01*
X67707557Y-109154620D01*
X67879459Y-109029727D01*
X67879464Y-109029723D01*
X68029725Y-108879462D01*
X68035181Y-108871953D01*
X68090510Y-108829287D01*
X68160123Y-108823306D01*
X68221919Y-108855911D01*
X68256277Y-108916750D01*
X68259500Y-108944837D01*
X68259500Y-110719953D01*
X68239815Y-110786992D01*
X68223181Y-110807634D01*
X67407634Y-111623181D01*
X67346311Y-111656666D01*
X67319953Y-111659500D01*
X64300046Y-111659500D01*
X64233007Y-111639815D01*
X64212365Y-111623181D01*
X63146819Y-110557634D01*
X63113334Y-110496311D01*
X63110500Y-110469953D01*
X63110500Y-105407649D01*
X63097807Y-105327510D01*
X63078477Y-105205465D01*
X63024405Y-105039050D01*
X63015220Y-105010781D01*
X62941053Y-104865220D01*
X62922287Y-104828389D01*
X62801966Y-104662781D01*
X62461529Y-104322344D01*
X62428044Y-104261021D01*
X62433028Y-104191329D01*
X62474900Y-104135396D01*
X62476244Y-104134404D01*
X62622365Y-104028242D01*
X62778242Y-103872365D01*
X62907815Y-103694022D01*
X63007895Y-103497606D01*
X63076015Y-103287951D01*
X63110500Y-103070222D01*
X63110500Y-102849778D01*
X63076015Y-102632049D01*
X63016568Y-102449089D01*
X63010500Y-102410772D01*
X63010500Y-98007648D01*
X62987194Y-97860500D01*
X62980932Y-97820965D01*
X62978477Y-97805465D01*
X62927878Y-97649739D01*
X62915220Y-97610781D01*
X62867147Y-97516433D01*
X62822287Y-97428389D01*
X62701966Y-97262781D01*
X62267939Y-96828754D01*
X62234454Y-96767431D01*
X62239438Y-96697739D01*
X62281310Y-96641806D01*
X62299313Y-96630595D01*
X62344022Y-96607815D01*
X62522365Y-96478242D01*
X62678242Y-96322365D01*
X62807815Y-96144022D01*
X62907895Y-95947606D01*
X62976015Y-95737951D01*
X63010500Y-95520222D01*
X63010500Y-95299778D01*
X62976015Y-95082049D01*
X62929196Y-94937952D01*
X62907896Y-94872396D01*
X62907895Y-94872393D01*
X62838964Y-94737111D01*
X62807815Y-94675978D01*
X62752648Y-94600046D01*
X62678247Y-94497641D01*
X62678243Y-94497636D01*
X62522363Y-94341756D01*
X62522358Y-94341752D01*
X62344025Y-94212187D01*
X62344024Y-94212186D01*
X62344022Y-94212185D01*
X62267414Y-94173151D01*
X62147606Y-94112104D01*
X62147603Y-94112103D01*
X61937952Y-94043985D01*
X61829086Y-94026742D01*
X61720222Y-94009500D01*
X61499778Y-94009500D01*
X61427201Y-94020995D01*
X61282047Y-94043985D01*
X61169939Y-94080411D01*
X61099088Y-94103431D01*
X61060773Y-94109500D01*
X54862352Y-94109500D01*
X54657648Y-94109500D01*
X54590253Y-94120174D01*
X54455463Y-94141523D01*
X54358123Y-94173150D01*
X54358123Y-94173151D01*
X54336740Y-94180099D01*
X54260776Y-94204781D01*
X54196013Y-94237781D01*
X54078388Y-94297713D01*
X53912778Y-94418036D01*
X49428769Y-98902044D01*
X49397384Y-98924847D01*
X49225976Y-99012185D01*
X49047641Y-99141752D01*
X49047636Y-99141756D01*
X48891756Y-99297636D01*
X48891752Y-99297641D01*
X48762187Y-99475974D01*
X48662104Y-99672393D01*
X48662103Y-99672396D01*
X48593985Y-99882047D01*
X48589174Y-99912422D01*
X48559500Y-100099778D01*
X48559500Y-100320222D01*
X48567044Y-100367853D01*
X48593985Y-100537952D01*
X48662104Y-100747605D01*
X48677951Y-100778708D01*
X48690846Y-100847377D01*
X48677951Y-100891292D01*
X48662104Y-100922393D01*
X48662104Y-100922394D01*
X48593984Y-101132050D01*
X48592849Y-101136780D01*
X48591320Y-101136413D01*
X48564341Y-101193297D01*
X48505022Y-101230216D01*
X48435160Y-101229205D01*
X48415520Y-101221232D01*
X48397607Y-101212105D01*
X48397603Y-101212103D01*
X48187952Y-101143985D01*
X48079086Y-101126742D01*
X47970222Y-101109500D01*
X47749778Y-101109500D01*
X47677201Y-101120995D01*
X47532047Y-101143985D01*
X47322396Y-101212103D01*
X47322393Y-101212104D01*
X47125974Y-101312187D01*
X46947641Y-101441752D01*
X46947636Y-101441756D01*
X46791756Y-101597636D01*
X46791752Y-101597641D01*
X46662187Y-101775974D01*
X46562104Y-101972393D01*
X46562103Y-101972396D01*
X46493985Y-102182047D01*
X46491354Y-102198658D01*
X46459500Y-102399778D01*
X42000000Y-102399778D01*
X42000000Y-102350000D01*
X40719064Y-102350000D01*
X40730793Y-102321684D01*
X40760000Y-102174853D01*
X40760000Y-102025147D01*
X40730793Y-101878316D01*
X40719064Y-101850000D01*
X42000000Y-101850000D01*
X42000000Y-100552172D01*
X41999999Y-100552155D01*
X41993598Y-100492627D01*
X41993596Y-100492620D01*
X41943354Y-100357913D01*
X41943350Y-100357906D01*
X41857190Y-100242812D01*
X41857187Y-100242809D01*
X41742093Y-100156649D01*
X41742086Y-100156645D01*
X41607379Y-100106403D01*
X41607372Y-100106401D01*
X41547844Y-100100000D01*
X40250000Y-100100000D01*
X40250000Y-101380935D01*
X40221684Y-101369207D01*
X40074853Y-101340000D01*
X39925147Y-101340000D01*
X39778316Y-101369207D01*
X39750000Y-101380935D01*
X39750000Y-100100000D01*
X38452155Y-100100000D01*
X38392627Y-100106401D01*
X38392620Y-100106403D01*
X38257913Y-100156645D01*
X38257906Y-100156649D01*
X38142812Y-100242809D01*
X38142809Y-100242812D01*
X38056649Y-100357906D01*
X38056645Y-100357913D01*
X38006403Y-100492620D01*
X38006401Y-100492627D01*
X38000000Y-100552155D01*
X33000500Y-100552155D01*
X33000500Y-86541902D01*
X34759500Y-86541902D01*
X34759500Y-95528097D01*
X34796446Y-95761368D01*
X34869433Y-95985996D01*
X34952534Y-96149090D01*
X34976657Y-96196434D01*
X35115483Y-96387510D01*
X36892490Y-98164517D01*
X37083567Y-98303343D01*
X37182991Y-98354002D01*
X37294003Y-98410566D01*
X37294005Y-98410566D01*
X37294008Y-98410568D01*
X37396439Y-98443850D01*
X37518631Y-98483553D01*
X37751903Y-98520500D01*
X37751908Y-98520500D01*
X37938634Y-98520500D01*
X38005673Y-98540185D01*
X38035580Y-98567186D01*
X38132584Y-98688825D01*
X38331175Y-98887416D01*
X38550752Y-99062523D01*
X38788555Y-99211945D01*
X39041592Y-99333801D01*
X39238883Y-99402836D01*
X39306670Y-99426556D01*
X39306682Y-99426560D01*
X39580491Y-99489055D01*
X39580497Y-99489055D01*
X39580505Y-99489057D01*
X39761947Y-99509500D01*
X39859569Y-99520499D01*
X39859572Y-99520500D01*
X39859575Y-99520500D01*
X40140428Y-99520500D01*
X40140429Y-99520499D01*
X40283055Y-99504429D01*
X40419494Y-99489057D01*
X40419499Y-99489056D01*
X40419509Y-99489055D01*
X40693318Y-99426560D01*
X40958408Y-99333801D01*
X41211445Y-99211945D01*
X41449248Y-99062523D01*
X41668825Y-98887416D01*
X41867416Y-98688825D01*
X42042523Y-98469248D01*
X42191945Y-98231445D01*
X42313801Y-97978408D01*
X42406560Y-97713318D01*
X42469055Y-97439509D01*
X42470309Y-97428384D01*
X42486149Y-97287792D01*
X42500500Y-97160425D01*
X42500500Y-96879575D01*
X42488179Y-96770222D01*
X42469057Y-96600505D01*
X42469054Y-96600487D01*
X42441152Y-96478242D01*
X42406560Y-96326682D01*
X42405049Y-96322365D01*
X42344418Y-96149090D01*
X42313801Y-96061592D01*
X42221755Y-95870457D01*
X42191946Y-95808557D01*
X42162295Y-95761368D01*
X42042523Y-95570752D01*
X41867416Y-95351175D01*
X41668825Y-95152584D01*
X41667182Y-95151274D01*
X41552140Y-95059531D01*
X41449248Y-94977477D01*
X41211445Y-94828055D01*
X41211442Y-94828053D01*
X40958411Y-94706200D01*
X40693329Y-94613443D01*
X40693317Y-94613439D01*
X40419512Y-94550945D01*
X40419494Y-94550942D01*
X40140431Y-94519500D01*
X40140425Y-94519500D01*
X39859575Y-94519500D01*
X39859568Y-94519500D01*
X39580505Y-94550942D01*
X39580487Y-94550945D01*
X39306682Y-94613439D01*
X39306670Y-94613443D01*
X39041588Y-94706200D01*
X38788557Y-94828053D01*
X38550753Y-94977476D01*
X38331175Y-95152583D01*
X38315574Y-95168185D01*
X38254251Y-95201670D01*
X38184559Y-95196686D01*
X38140212Y-95168185D01*
X37796819Y-94824792D01*
X37763334Y-94763469D01*
X37760500Y-94737111D01*
X37760500Y-92278241D01*
X37780185Y-92211202D01*
X37832989Y-92165447D01*
X37902147Y-92155503D01*
X37916581Y-92158463D01*
X37939334Y-92164560D01*
X38212326Y-92200500D01*
X38212333Y-92200500D01*
X39787667Y-92200500D01*
X39787674Y-92200500D01*
X40060666Y-92164560D01*
X40326632Y-92093295D01*
X40581021Y-91987923D01*
X40819479Y-91850249D01*
X41037928Y-91682628D01*
X41232628Y-91487928D01*
X41400249Y-91269479D01*
X41537923Y-91031021D01*
X41643295Y-90776632D01*
X41714560Y-90510666D01*
X41750500Y-90237674D01*
X41750500Y-89962326D01*
X41714560Y-89689334D01*
X41643295Y-89423368D01*
X41537923Y-89168979D01*
X41537921Y-89168976D01*
X41537919Y-89168971D01*
X41400253Y-88930528D01*
X41400249Y-88930521D01*
X41356657Y-88873711D01*
X41276123Y-88768756D01*
X41250929Y-88703587D01*
X41250499Y-88693270D01*
X41250499Y-87191971D01*
X41250499Y-87191964D01*
X41239886Y-87072582D01*
X41183909Y-86876951D01*
X41125714Y-86765544D01*
X41112124Y-86697011D01*
X41121060Y-86660688D01*
X41161158Y-86563887D01*
X41220548Y-86342238D01*
X41250500Y-86114734D01*
X41250500Y-85885266D01*
X41220548Y-85657762D01*
X41161158Y-85436113D01*
X41105408Y-85301522D01*
X41073349Y-85224123D01*
X41073346Y-85224117D01*
X41073344Y-85224112D01*
X40979747Y-85061997D01*
X40963275Y-84994100D01*
X40979747Y-84938003D01*
X41073344Y-84775888D01*
X41161158Y-84563887D01*
X41220548Y-84342238D01*
X41250500Y-84114734D01*
X41250500Y-83885266D01*
X41220548Y-83657762D01*
X41163475Y-83444760D01*
X41165138Y-83374910D01*
X41195569Y-83324986D01*
X41232628Y-83287928D01*
X41400249Y-83069479D01*
X41537923Y-82831021D01*
X41643295Y-82576632D01*
X41714560Y-82310666D01*
X41750500Y-82037674D01*
X41750500Y-81762326D01*
X41714560Y-81489334D01*
X41643295Y-81223368D01*
X41537923Y-80968979D01*
X41537921Y-80968976D01*
X41537919Y-80968971D01*
X41488732Y-80883778D01*
X41400249Y-80730521D01*
X41294752Y-80593034D01*
X41232629Y-80512073D01*
X41232623Y-80512066D01*
X41037933Y-80317376D01*
X41037926Y-80317370D01*
X40819483Y-80149754D01*
X40819482Y-80149753D01*
X40819479Y-80149751D01*
X40724407Y-80094861D01*
X40581028Y-80012080D01*
X40581017Y-80012075D01*
X40326630Y-79906704D01*
X40193649Y-79871072D01*
X40060666Y-79835440D01*
X40060660Y-79835439D01*
X40060655Y-79835438D01*
X39787684Y-79799501D01*
X39787679Y-79799500D01*
X39787674Y-79799500D01*
X38212326Y-79799500D01*
X38212320Y-79799500D01*
X38212315Y-79799501D01*
X37939344Y-79835438D01*
X37939337Y-79835439D01*
X37939334Y-79835440D01*
X37883125Y-79850500D01*
X37673369Y-79906704D01*
X37418982Y-80012075D01*
X37418971Y-80012080D01*
X37196106Y-80140752D01*
X37189594Y-80144513D01*
X37180516Y-80149754D01*
X36962073Y-80317370D01*
X36962066Y-80317376D01*
X36767376Y-80512066D01*
X36767370Y-80512073D01*
X36599754Y-80730516D01*
X36462080Y-80968971D01*
X36462075Y-80968982D01*
X36356704Y-81223369D01*
X36285441Y-81489331D01*
X36285438Y-81489344D01*
X36249501Y-81762315D01*
X36249500Y-81762332D01*
X36249500Y-82037667D01*
X36249501Y-82037684D01*
X36285438Y-82310655D01*
X36285439Y-82310660D01*
X36285440Y-82310666D01*
X36308643Y-82397262D01*
X36356704Y-82576630D01*
X36462075Y-82831017D01*
X36462080Y-82831028D01*
X36535327Y-82957893D01*
X36599751Y-83069479D01*
X36599753Y-83069482D01*
X36599754Y-83069483D01*
X36767370Y-83287926D01*
X36767375Y-83287932D01*
X36804430Y-83324986D01*
X36837916Y-83386308D01*
X36836525Y-83444760D01*
X36781891Y-83648660D01*
X36779453Y-83657759D01*
X36779451Y-83657770D01*
X36749500Y-83885258D01*
X36749500Y-84114741D01*
X36779451Y-84342229D01*
X36779453Y-84342243D01*
X36785146Y-84363490D01*
X36783481Y-84433340D01*
X36744316Y-84491201D01*
X36684769Y-84518052D01*
X36568630Y-84536447D01*
X36344003Y-84609433D01*
X36133565Y-84716657D01*
X35942488Y-84855484D01*
X35115484Y-85682488D01*
X34976657Y-85873565D01*
X34948373Y-85929077D01*
X34892511Y-86038712D01*
X34892510Y-86038712D01*
X34869431Y-86084008D01*
X34869431Y-86084009D01*
X34796447Y-86308627D01*
X34796447Y-86308630D01*
X34759500Y-86541902D01*
X33000500Y-86541902D01*
X33000500Y-67004000D01*
X33020185Y-66936961D01*
X33072989Y-66891206D01*
X33124500Y-66880000D01*
X58520000Y-66880000D01*
X59750100Y-65882045D01*
X67705852Y-59427703D01*
X67770314Y-59400755D01*
X67783974Y-59400000D01*
X72800000Y-59400000D01*
X72779648Y-50134772D01*
X72799186Y-50067690D01*
X72851889Y-50021819D01*
X72903648Y-50010500D01*
X73269953Y-50010500D01*
X73336992Y-50030185D01*
X73357634Y-50046819D01*
X73923181Y-50612366D01*
X73956666Y-50673689D01*
X73959500Y-50700047D01*
X73959500Y-58889953D01*
X73939815Y-58956992D01*
X73923181Y-58977634D01*
X62418036Y-70482778D01*
X62297716Y-70648384D01*
X62297714Y-70648387D01*
X62297713Y-70648389D01*
X62255355Y-70731523D01*
X62204780Y-70830781D01*
X62204780Y-70830782D01*
X62141522Y-71025465D01*
X62109500Y-71227648D01*
X62109500Y-75970953D01*
X62089815Y-76037992D01*
X62037011Y-76083747D01*
X61967853Y-76093691D01*
X61904297Y-76064666D01*
X61897819Y-76058634D01*
X56857221Y-71018036D01*
X56857219Y-71018034D01*
X56691611Y-70897713D01*
X56600414Y-70851246D01*
X56509223Y-70804781D01*
X56462515Y-70789604D01*
X56411876Y-70773151D01*
X56388003Y-70765394D01*
X56314535Y-70741522D01*
X56139995Y-70713878D01*
X56112352Y-70709500D01*
X56112351Y-70709500D01*
X40976036Y-70709500D01*
X40908997Y-70689815D01*
X40866129Y-70642913D01*
X40789698Y-70496593D01*
X40765958Y-70467479D01*
X40661109Y-70338890D01*
X40503409Y-70210304D01*
X40503410Y-70210304D01*
X40503407Y-70210302D01*
X40323049Y-70116091D01*
X40323048Y-70116090D01*
X40323045Y-70116089D01*
X40205829Y-70082550D01*
X40127418Y-70060114D01*
X40127415Y-70060113D01*
X40127413Y-70060113D01*
X40061102Y-70054217D01*
X40008037Y-70049500D01*
X40008032Y-70049500D01*
X37991971Y-70049500D01*
X37991965Y-70049500D01*
X37991964Y-70049501D01*
X37980316Y-70050536D01*
X37872584Y-70060113D01*
X37676954Y-70116089D01*
X37652676Y-70128771D01*
X37496593Y-70210302D01*
X37496591Y-70210303D01*
X37496590Y-70210304D01*
X37338890Y-70338890D01*
X37221564Y-70482781D01*
X37210302Y-70496593D01*
X37178114Y-70558214D01*
X37116089Y-70676954D01*
X37060114Y-70872583D01*
X37060113Y-70872586D01*
X37049500Y-70991966D01*
X37049500Y-73008028D01*
X37049501Y-73008034D01*
X37060113Y-73127415D01*
X37116089Y-73323045D01*
X37116090Y-73323048D01*
X37116091Y-73323049D01*
X37210302Y-73503407D01*
X37244977Y-73545933D01*
X37338890Y-73661109D01*
X37358388Y-73677007D01*
X37496593Y-73789698D01*
X37496595Y-73789699D01*
X37593960Y-73840559D01*
X37644267Y-73889045D01*
X37660374Y-73957033D01*
X37654479Y-73988785D01*
X37585704Y-74200455D01*
X37571522Y-74290000D01*
X38566988Y-74290000D01*
X38534075Y-74347007D01*
X38500000Y-74474174D01*
X38500000Y-74605826D01*
X38534075Y-74732993D01*
X38566988Y-74790000D01*
X37571522Y-74790000D01*
X37585704Y-74879544D01*
X37656230Y-75096604D01*
X37759849Y-75299966D01*
X37894004Y-75484614D01*
X38055385Y-75645995D01*
X38240033Y-75780150D01*
X38443395Y-75883769D01*
X38660455Y-75954295D01*
X38750000Y-75968478D01*
X38750000Y-74973012D01*
X38807007Y-75005925D01*
X38934174Y-75040000D01*
X39065826Y-75040000D01*
X39192993Y-75005925D01*
X39250000Y-74973012D01*
X39250000Y-75968477D01*
X39339544Y-75954295D01*
X39556604Y-75883769D01*
X39759966Y-75780150D01*
X39944614Y-75645995D01*
X40105995Y-75484614D01*
X40240150Y-75299966D01*
X40343769Y-75096604D01*
X40414295Y-74879544D01*
X40428478Y-74790000D01*
X39433012Y-74790000D01*
X39465925Y-74732993D01*
X39500000Y-74605826D01*
X39500000Y-74474174D01*
X39465925Y-74347007D01*
X39433012Y-74290000D01*
X40428478Y-74290000D01*
X40414296Y-74200458D01*
X40345519Y-73988786D01*
X40343524Y-73918944D01*
X40379604Y-73859111D01*
X40406038Y-73840559D01*
X40503407Y-73789698D01*
X40661109Y-73661109D01*
X40789698Y-73503407D01*
X40855681Y-73377087D01*
X40904168Y-73326781D01*
X40965590Y-73310500D01*
X55419953Y-73310500D01*
X55486992Y-73330185D01*
X55507634Y-73346819D01*
X62073181Y-79912366D01*
X62106666Y-79973689D01*
X62109500Y-80000047D01*
X62109500Y-80369953D01*
X62089815Y-80436992D01*
X62073181Y-80457634D01*
X58772181Y-83758634D01*
X58710858Y-83792119D01*
X58641166Y-83787135D01*
X58585233Y-83745263D01*
X58560816Y-83679799D01*
X58560500Y-83670953D01*
X58560500Y-82432648D01*
X58530342Y-82242236D01*
X58528478Y-82230473D01*
X58528477Y-82230465D01*
X58479425Y-82079500D01*
X58465220Y-82035781D01*
X58396144Y-81900212D01*
X58372287Y-81853389D01*
X58311338Y-81769500D01*
X58274769Y-81719167D01*
X58251971Y-81687787D01*
X58251968Y-81687784D01*
X58251966Y-81687781D01*
X58107219Y-81543034D01*
X58107218Y-81543033D01*
X58104107Y-81539922D01*
X58104092Y-81539908D01*
X57157221Y-80593036D01*
X57157220Y-80593035D01*
X57157219Y-80593034D01*
X56991611Y-80472713D01*
X56879405Y-80415541D01*
X56879400Y-80415539D01*
X56873989Y-80412782D01*
X56809219Y-80379780D01*
X56688537Y-80340568D01*
X56685056Y-80339437D01*
X56685046Y-80339433D01*
X56614532Y-80316522D01*
X56459220Y-80291923D01*
X56412352Y-80284500D01*
X51272648Y-80284500D01*
X51205254Y-80295174D01*
X51070464Y-80316523D01*
X50875784Y-80379777D01*
X50875781Y-80379778D01*
X50742665Y-80447606D01*
X50693386Y-80472715D01*
X50527786Y-80593028D01*
X50527782Y-80593032D01*
X50383031Y-80737784D01*
X49028770Y-82092043D01*
X48997385Y-82114846D01*
X48825976Y-82202185D01*
X48647641Y-82331752D01*
X48647636Y-82331756D01*
X48491756Y-82487636D01*
X48491752Y-82487641D01*
X48362187Y-82665974D01*
X48262104Y-82862393D01*
X48262103Y-82862396D01*
X48193985Y-83072047D01*
X48159500Y-83289778D01*
X48159500Y-83510221D01*
X48193985Y-83727952D01*
X48262103Y-83937603D01*
X48262104Y-83937606D01*
X48320066Y-84051360D01*
X48361312Y-84132309D01*
X48362187Y-84134025D01*
X48491752Y-84312358D01*
X48491756Y-84312363D01*
X48647636Y-84468243D01*
X48647641Y-84468247D01*
X48779280Y-84563887D01*
X48825978Y-84597815D01*
X48954375Y-84663237D01*
X49022393Y-84697895D01*
X49022396Y-84697896D01*
X49080138Y-84716657D01*
X49232049Y-84766015D01*
X49449778Y-84800500D01*
X49449779Y-84800500D01*
X49670221Y-84800500D01*
X49670222Y-84800500D01*
X49887951Y-84766015D01*
X50097606Y-84697895D01*
X50294022Y-84597815D01*
X50472365Y-84468242D01*
X50628242Y-84312365D01*
X50757815Y-84134022D01*
X50845154Y-83962609D01*
X50867953Y-83931230D01*
X51877365Y-82921819D01*
X51938688Y-82888334D01*
X51965046Y-82885500D01*
X53106173Y-82885500D01*
X53173212Y-82905185D01*
X53218967Y-82957989D01*
X53228911Y-83027147D01*
X53228655Y-83028837D01*
X53221811Y-83072049D01*
X53209500Y-83149779D01*
X53209500Y-83370226D01*
X53227111Y-83481414D01*
X53218157Y-83550708D01*
X53192319Y-83588494D01*
X43668036Y-93112778D01*
X43547716Y-93278384D01*
X43547714Y-93278387D01*
X43523727Y-93325465D01*
X43454335Y-93461653D01*
X43453273Y-93465420D01*
X43391524Y-93655460D01*
X43391523Y-93655464D01*
X43385137Y-93695783D01*
X43359500Y-93857648D01*
X43359500Y-94060772D01*
X43353431Y-94099089D01*
X43350049Y-94109500D01*
X43293985Y-94282047D01*
X43259500Y-94499778D01*
X43259500Y-94720221D01*
X43293985Y-94937952D01*
X43362103Y-95147603D01*
X43362104Y-95147606D01*
X43406672Y-95235073D01*
X43438604Y-95297743D01*
X43462187Y-95344025D01*
X43591752Y-95522358D01*
X43591756Y-95522363D01*
X43747636Y-95678243D01*
X43747641Y-95678247D01*
X43850871Y-95753247D01*
X43925978Y-95807815D01*
X44048919Y-95870457D01*
X44122393Y-95907895D01*
X44122396Y-95907896D01*
X44176577Y-95925500D01*
X44332049Y-95976015D01*
X44549778Y-96010500D01*
X44549779Y-96010500D01*
X44770221Y-96010500D01*
X44770222Y-96010500D01*
X44987951Y-95976015D01*
X45197606Y-95907895D01*
X45394022Y-95807815D01*
X45572365Y-95678242D01*
X45728242Y-95522365D01*
X45857815Y-95344022D01*
X45957895Y-95147606D01*
X46026015Y-94937951D01*
X46060500Y-94720222D01*
X46060500Y-94499778D01*
X46056561Y-94474909D01*
X46065515Y-94405616D01*
X46091350Y-94367833D01*
X55601966Y-84857219D01*
X55665013Y-84770441D01*
X55720343Y-84727776D01*
X55789956Y-84721797D01*
X55851751Y-84754403D01*
X55886108Y-84815241D01*
X55887804Y-84823928D01*
X55893985Y-84862952D01*
X55962103Y-85072603D01*
X55962104Y-85072606D01*
X56014116Y-85174683D01*
X56050899Y-85246873D01*
X56062187Y-85269025D01*
X56191752Y-85447358D01*
X56191756Y-85447363D01*
X56347636Y-85603243D01*
X56347641Y-85603247D01*
X56525973Y-85732812D01*
X56525975Y-85732813D01*
X56525978Y-85732815D01*
X56554112Y-85747150D01*
X56604907Y-85795121D01*
X56621703Y-85862942D01*
X56599167Y-85929077D01*
X56585498Y-85945315D01*
X49268036Y-93262778D01*
X49147716Y-93428384D01*
X49147714Y-93428387D01*
X49112391Y-93497713D01*
X49054781Y-93610776D01*
X49040737Y-93654000D01*
X49027162Y-93695781D01*
X49026559Y-93697636D01*
X48991522Y-93805464D01*
X48980355Y-93875977D01*
X48980355Y-93875978D01*
X48959500Y-94007649D01*
X48959500Y-94135772D01*
X48953431Y-94174090D01*
X48893985Y-94357047D01*
X48869385Y-94512365D01*
X48859500Y-94574778D01*
X48859500Y-94795222D01*
X48864700Y-94828053D01*
X48893985Y-95012952D01*
X48962103Y-95222603D01*
X48962104Y-95222606D01*
X49014592Y-95325617D01*
X49047149Y-95389513D01*
X49062187Y-95419025D01*
X49191752Y-95597358D01*
X49191756Y-95597363D01*
X49347636Y-95753243D01*
X49347641Y-95753247D01*
X49503192Y-95866260D01*
X49525978Y-95882815D01*
X49653130Y-95947603D01*
X49722393Y-95982895D01*
X49722396Y-95982896D01*
X49807355Y-96010500D01*
X49932049Y-96051015D01*
X50149778Y-96085500D01*
X50149779Y-96085500D01*
X50370221Y-96085500D01*
X50370222Y-96085500D01*
X50587951Y-96051015D01*
X50797606Y-95982895D01*
X50994022Y-95882815D01*
X51172365Y-95753242D01*
X51328242Y-95597365D01*
X51457815Y-95419022D01*
X51557895Y-95222606D01*
X51626015Y-95012951D01*
X51660500Y-94795222D01*
X51660500Y-94600046D01*
X51680185Y-94533007D01*
X51696819Y-94512365D01*
X58024309Y-88184875D01*
X64401966Y-81807219D01*
X64522287Y-81641611D01*
X64596332Y-81496288D01*
X64615220Y-81459219D01*
X64678477Y-81264534D01*
X64710500Y-81062352D01*
X64710500Y-71920045D01*
X64730185Y-71853006D01*
X64746814Y-71832369D01*
X76100150Y-60479032D01*
X76100157Y-60479027D01*
X76107217Y-60471967D01*
X76107219Y-60471966D01*
X76251966Y-60327219D01*
X76251968Y-60327215D01*
X76251971Y-60327213D01*
X76372286Y-60161611D01*
X76372287Y-60161610D01*
X76463014Y-59983548D01*
X76464919Y-59980145D01*
X76465220Y-59979219D01*
X76465221Y-59979218D01*
X76528477Y-59784534D01*
X76560500Y-59582351D01*
X76560500Y-59377648D01*
X76560500Y-54901966D01*
X77094500Y-54901966D01*
X77094500Y-56518028D01*
X77094501Y-56518034D01*
X77105113Y-56637415D01*
X77161089Y-56833045D01*
X77161090Y-56833048D01*
X77161091Y-56833049D01*
X77255302Y-57013407D01*
X77255304Y-57013409D01*
X77383890Y-57171109D01*
X77461824Y-57234655D01*
X77541593Y-57299698D01*
X77721951Y-57393909D01*
X77917582Y-57449886D01*
X78036963Y-57460500D01*
X79203036Y-57460499D01*
X79322418Y-57449886D01*
X79441963Y-57415679D01*
X79511831Y-57416161D01*
X79514362Y-57416953D01*
X79532778Y-57422937D01*
X79769941Y-57460500D01*
X79769942Y-57460500D01*
X80010058Y-57460500D01*
X80010059Y-57460500D01*
X80247222Y-57422937D01*
X80475589Y-57348736D01*
X80689536Y-57239724D01*
X80883796Y-57098586D01*
X81053586Y-56928796D01*
X81185682Y-56746980D01*
X81241012Y-56704316D01*
X81310625Y-56698337D01*
X81372420Y-56730943D01*
X81406778Y-56791782D01*
X81410000Y-56819867D01*
X81410000Y-56930352D01*
X81458974Y-56920612D01*
X81458983Y-56920609D01*
X81645513Y-56843347D01*
X81645526Y-56843340D01*
X81813399Y-56731170D01*
X81813403Y-56731167D01*
X81956167Y-56588403D01*
X81956170Y-56588399D01*
X82068340Y-56420526D01*
X82068347Y-56420513D01*
X82145609Y-56233983D01*
X82145612Y-56233974D01*
X82184999Y-56035958D01*
X82185000Y-56035955D01*
X82185000Y-55960000D01*
X81539500Y-55960000D01*
X81472461Y-55940315D01*
X81465006Y-55931712D01*
X81509444Y-55854745D01*
X81535000Y-55759370D01*
X81535000Y-55660630D01*
X81509444Y-55565255D01*
X81466097Y-55490175D01*
X81487989Y-55471206D01*
X81539500Y-55460000D01*
X82185000Y-55460000D01*
X82185000Y-55384045D01*
X82184999Y-55384041D01*
X82145612Y-55186025D01*
X82145609Y-55186016D01*
X82068347Y-54999486D01*
X82068340Y-54999473D01*
X81956170Y-54831600D01*
X81956167Y-54831596D01*
X81813403Y-54688832D01*
X81813399Y-54688829D01*
X81645526Y-54576659D01*
X81645513Y-54576652D01*
X81458984Y-54499390D01*
X81458977Y-54499388D01*
X81410000Y-54489645D01*
X81410000Y-54600132D01*
X81390315Y-54667171D01*
X81337511Y-54712926D01*
X81268353Y-54722870D01*
X81204797Y-54693845D01*
X81185682Y-54673018D01*
X81148174Y-54621394D01*
X81053586Y-54491204D01*
X80883796Y-54321414D01*
X80689536Y-54180276D01*
X80475593Y-54071265D01*
X80247222Y-53997063D01*
X80142174Y-53980425D01*
X80010059Y-53959500D01*
X79769941Y-53959500D01*
X79741415Y-53964018D01*
X79532777Y-53997062D01*
X79514389Y-54003037D01*
X79444548Y-54005029D01*
X79441965Y-54004320D01*
X79358453Y-53980425D01*
X79322418Y-53970114D01*
X79322416Y-53970113D01*
X79322413Y-53970113D01*
X79256102Y-53964217D01*
X79203037Y-53959500D01*
X79203032Y-53959500D01*
X78036971Y-53959500D01*
X78036965Y-53959500D01*
X78036964Y-53959501D01*
X78025727Y-53960500D01*
X77917584Y-53970113D01*
X77721954Y-54026089D01*
X77635472Y-54071264D01*
X77541593Y-54120302D01*
X77541591Y-54120303D01*
X77541590Y-54120304D01*
X77383890Y-54248890D01*
X77255304Y-54406590D01*
X77161089Y-54586954D01*
X77105114Y-54782583D01*
X77105113Y-54782586D01*
X77094500Y-54901966D01*
X76560500Y-54901966D01*
X76560500Y-50007648D01*
X76528477Y-49805466D01*
X76528475Y-49805461D01*
X76528475Y-49805458D01*
X76519638Y-49778260D01*
X76519630Y-49778240D01*
X76490120Y-49687418D01*
X76466727Y-49615420D01*
X76465665Y-49611654D01*
X76380252Y-49444022D01*
X76380252Y-49444021D01*
X76372289Y-49428393D01*
X76372286Y-49428387D01*
X76251968Y-49262784D01*
X76251963Y-49262778D01*
X74707221Y-47718036D01*
X74707219Y-47718034D01*
X74624415Y-47657873D01*
X74541609Y-47597711D01*
X74427654Y-47539649D01*
X74427650Y-47539647D01*
X74422358Y-47536951D01*
X74359219Y-47504780D01*
X74248887Y-47468931D01*
X74245272Y-47467756D01*
X74245261Y-47467752D01*
X74164532Y-47441522D01*
X74009220Y-47416923D01*
X73962352Y-47409500D01*
X73962351Y-47409500D01*
X72897390Y-47409500D01*
X72830351Y-47389815D01*
X72784596Y-47337011D01*
X72773390Y-47285772D01*
X72762053Y-42124772D01*
X72781591Y-42057690D01*
X72834294Y-42011819D01*
X72886053Y-42000500D01*
X130995933Y-42000500D01*
X131004042Y-42000765D01*
G37*
%TD.AperFunction*%
%TA.AperFunction,Conductor*%
G36*
X101620000Y-95107230D02*
G01*
X101686126Y-95096757D01*
X101686129Y-95096757D01*
X101888219Y-95031094D01*
X101927688Y-95010984D01*
X101996357Y-94998087D01*
X102061098Y-95024362D01*
X102101355Y-95081468D01*
X102104348Y-95151274D01*
X102071665Y-95209149D01*
X101222181Y-96058634D01*
X101160858Y-96092119D01*
X101091167Y-96087135D01*
X101035233Y-96045263D01*
X101010816Y-95979799D01*
X101010500Y-95970953D01*
X101010500Y-95235073D01*
X101030185Y-95168034D01*
X101082989Y-95122279D01*
X101106307Y-95118926D01*
X101120000Y-95107231D01*
X101120000Y-94213012D01*
X101177007Y-94245925D01*
X101304174Y-94280000D01*
X101435826Y-94280000D01*
X101562993Y-94245925D01*
X101620000Y-94213012D01*
X101620000Y-95107230D01*
G37*
%TD.AperFunction*%
%TA.AperFunction,Conductor*%
G36*
X104500039Y-92541788D02*
G01*
X104553491Y-92586783D01*
X104574132Y-92653534D01*
X104555408Y-92720848D01*
X104537826Y-92742988D01*
X102799149Y-94481665D01*
X102737826Y-94515150D01*
X102668134Y-94510166D01*
X102612201Y-94468294D01*
X102587784Y-94402830D01*
X102600984Y-94337688D01*
X102621094Y-94298219D01*
X102686757Y-94096129D01*
X102686757Y-94096126D01*
X102697231Y-94030000D01*
X101803012Y-94030000D01*
X101835925Y-93972993D01*
X101870000Y-93845826D01*
X101870000Y-93714174D01*
X101835925Y-93587007D01*
X101803012Y-93530000D01*
X102697231Y-93530000D01*
X102686757Y-93463873D01*
X102686757Y-93463870D01*
X102621095Y-93261782D01*
X102524620Y-93072442D01*
X102415603Y-92922391D01*
X102392123Y-92856585D01*
X102407949Y-92788531D01*
X102440432Y-92751132D01*
X102592738Y-92634265D01*
X102650185Y-92576817D01*
X102711506Y-92543334D01*
X102737865Y-92540500D01*
X104382349Y-92540500D01*
X104382352Y-92540500D01*
X104430749Y-92532834D01*
X104500039Y-92541788D01*
G37*
%TD.AperFunction*%
%TD*%
M02*
