%TF.GenerationSoftware,KiCad,Pcbnew,10.0.0*%
%TF.CreationDate,2026-04-19T14:02:47-03:00*%
%TF.ProjectId,Onboard_Comp,4f6e626f-6172-4645-9f43-6f6d702e6b69,rev?*%
%TF.SameCoordinates,Original*%
%TF.FileFunction,Copper,L2,Bot*%
%TF.FilePolarity,Positive*%
%FSLAX46Y46*%
G04 Gerber Fmt 4.6, Leading zero omitted, Abs format (unit mm)*
G04 Created by KiCad (PCBNEW 10.0.0) date 2026-04-19 14:02:47*
%MOMM*%
%LPD*%
G01*
G04 APERTURE LIST*
%TA.AperFunction,ComponentPad*%
%ADD10R,1.900000X1.900000*%
%TD*%
%TA.AperFunction,ComponentPad*%
%ADD11O,1.900000X1.900000*%
%TD*%
%TA.AperFunction,ComponentPad*%
%ADD12R,1.900000X3.000000*%
%TD*%
%TA.AperFunction,ComponentPad*%
%ADD13O,1.900000X3.000000*%
%TD*%
%TA.AperFunction,ComponentPad*%
%ADD14O,3.500000X2.200000*%
%TD*%
%TA.AperFunction,ComponentPad*%
%ADD15R,2.500000X1.500000*%
%TD*%
%TA.AperFunction,ComponentPad*%
%ADD16O,2.500000X1.500000*%
%TD*%
%TA.AperFunction,ComponentPad*%
%ADD17R,2.000000X2.000000*%
%TD*%
%TA.AperFunction,ComponentPad*%
%ADD18C,2.000000*%
%TD*%
%TA.AperFunction,ComponentPad*%
%ADD19R,1.700000X1.700000*%
%TD*%
%TA.AperFunction,ComponentPad*%
%ADD20O,1.700000X1.700000*%
%TD*%
%TA.AperFunction,ComponentPad*%
%ADD21R,3.000000X3.000000*%
%TD*%
%TA.AperFunction,ComponentPad*%
%ADD22C,3.000000*%
%TD*%
%TA.AperFunction,ViaPad*%
%ADD23C,3.500000*%
%TD*%
%TA.AperFunction,ViaPad*%
%ADD24C,5.000000*%
%TD*%
%TA.AperFunction,ViaPad*%
%ADD25C,0.800000*%
%TD*%
%TA.AperFunction,Conductor*%
%ADD26C,0.600000*%
%TD*%
G04 APERTURE END LIST*
D10*
%TO.P,J13,1,Pin_1*%
%TO.N,VCC*%
X98280000Y-28350000D03*
D11*
%TO.P,J13,2,Pin_2*%
%TO.N,GND*%
X95740000Y-28350000D03*
%TO.P,J13,3,Pin_3*%
%TO.N,SCLMPU*%
X93200000Y-28350000D03*
%TO.P,J13,4,Pin_4*%
%TO.N,SDAMPU*%
X90660000Y-28350000D03*
%TO.P,J13,5,Pin_5*%
%TO.N,unconnected-(J13-Pin_5-Pad5)*%
X88120000Y-28350000D03*
%TO.P,J13,6,Pin_6*%
%TO.N,unconnected-(J13-Pin_6-Pad6)*%
X85580000Y-28350000D03*
%TO.P,J13,7,Pin_7*%
%TO.N,unconnected-(J13-Pin_7-Pad7)*%
X83040000Y-28350000D03*
%TO.P,J13,8,Pin_8*%
%TO.N,unconnected-(J13-Pin_8-Pad8)*%
X80500000Y-28350000D03*
%TD*%
D10*
%TO.P,J18,1,Pin_1*%
%TO.N,Pup*%
X58000000Y-75500000D03*
D11*
%TO.P,J18,2,Pin_2*%
%TO.N,5v*%
X58000000Y-78040000D03*
%TD*%
D12*
%TO.P,J1,1,Pin_1*%
%TO.N,ANTENA*%
X101080000Y-43350000D03*
D13*
%TO.P,J1,2,Pin_2*%
%TO.N,GND*%
X98540000Y-43350000D03*
%TD*%
D10*
%TO.P,J17,1,Pin_1*%
%TO.N,GPIO36*%
X64230000Y-28300000D03*
D11*
%TO.P,J17,2,Pin_2*%
%TO.N,GPIO39*%
X66770000Y-28300000D03*
%TO.P,J17,3,Pin_3*%
%TO.N,GPIO34*%
X69310000Y-28300000D03*
%TO.P,J17,4,Pin_4*%
%TO.N,GPIO35*%
X71850000Y-28300000D03*
%TO.P,J17,5,Pin_5*%
%TO.N,GPIO32*%
X74390000Y-28300000D03*
%TO.P,J17,6,Pin_6*%
%TO.N,GPIO33*%
X76930000Y-28300000D03*
%TD*%
D14*
%TO.P,SW1,*%
%TO.N,*%
X56500000Y-71700000D03*
X56500000Y-63500000D03*
D15*
%TO.P,SW1,1,A*%
%TO.N,Pup*%
X56500000Y-69600000D03*
D16*
%TO.P,SW1,2,B*%
%TO.N,INVolt*%
X56500000Y-67600000D03*
%TO.P,SW1,3,C*%
%TO.N,VCC1*%
X56500000Y-65600000D03*
%TD*%
D17*
%TO.P,BZ1,1,+*%
%TO.N,Net-(BZ1-+)*%
X96429216Y-77400000D03*
D18*
%TO.P,BZ1,2,-*%
%TO.N,GND*%
X101429216Y-77400000D03*
%TD*%
D10*
%TO.P,esp32_1,1,Pin_1*%
%TO.N,GND*%
X86330000Y-35000000D03*
D11*
%TO.P,esp32_1,2,Pin_2*%
%TO.N,MOSI*%
X86330000Y-37540000D03*
%TO.P,esp32_1,3,Pin_3*%
%TO.N,SCLMPU*%
X86330000Y-40080000D03*
%TO.P,esp32_1,4,Pin_4*%
%TO.N,INTERNAL8*%
X86330000Y-42620000D03*
%TO.P,esp32_1,5,Pin_5*%
%TO.N,INTERNAL7*%
X86330000Y-45160000D03*
%TO.P,esp32_1,6,Pin_6*%
%TO.N,SDAMPU*%
X86330000Y-47700000D03*
%TO.P,esp32_1,7,Pin_7*%
%TO.N,GND*%
X86330000Y-50240000D03*
%TO.P,esp32_1,8,Pin_8*%
%TO.N,MISO*%
X86330000Y-52780000D03*
%TO.P,esp32_1,9,Pin_9*%
%TO.N,SLCK*%
X86330000Y-55320000D03*
%TO.P,esp32_1,10,Pin_10*%
%TO.N,NSS*%
X86330000Y-57860000D03*
%TO.P,esp32_1,11,Pin_11*%
%TO.N,DIO0*%
X86330000Y-60400000D03*
%TO.P,esp32_1,12,Pin_12*%
%TO.N,GPIO16*%
X86330000Y-62940000D03*
%TO.P,esp32_1,13,Pin_13*%
%TO.N,GPIO4*%
X86330000Y-65480000D03*
%TO.P,esp32_1,14,Pin_14*%
%TO.N,GPIO0*%
X86330000Y-68020000D03*
%TO.P,esp32_1,15,Pin_15*%
%TO.N,REST*%
X86330000Y-70560000D03*
%TO.P,esp32_1,16,Pin_16*%
%TO.N,BUZZ*%
X86330000Y-73100000D03*
%TO.P,esp32_1,17,Pin_17*%
%TO.N,INTERNAL6*%
X86330000Y-75640000D03*
%TO.P,esp32_1,18,Pin_18*%
%TO.N,INTERNAL5*%
X86330000Y-78180000D03*
%TO.P,esp32_1,19,Pin_19*%
%TO.N,INTERNAL4*%
X86330000Y-80720000D03*
%TD*%
D19*
%TO.P,J21,1,Pin_1*%
%TO.N,VCC1*%
X51390000Y-66030000D03*
D20*
%TO.P,J21,2,Pin_2*%
%TO.N,VCC*%
X51390000Y-63490000D03*
%TD*%
D21*
%TO.P,J15,1,Pin_1*%
%TO.N,GND*%
X56000000Y-46330000D03*
D22*
%TO.P,J15,2,Pin_2*%
%TO.N,INVolt*%
X56000000Y-41250000D03*
%TD*%
D12*
%TO.P,J7,1,Pin_1*%
%TO.N,DIO4*%
X91725000Y-66000000D03*
D13*
%TO.P,J7,2,Pin_2*%
%TO.N,DIO5*%
X94265000Y-66000000D03*
%TD*%
D10*
%TO.P,J19,1,Pin_1*%
%TO.N,GPIO0*%
X90400000Y-80700000D03*
D11*
%TO.P,J19,2,Pin_2*%
%TO.N,GPIO4*%
X90400000Y-78160000D03*
%TO.P,J19,3,Pin_3*%
%TO.N,GPIO16*%
X90400000Y-75620000D03*
%TD*%
D10*
%TO.P,esp1,1,Pin_1*%
%TO.N,VCC*%
X63430000Y-35005000D03*
D11*
%TO.P,esp1,2,Pin_2*%
%TO.N,unconnected-(esp1-Pin_2-Pad2)*%
X63430000Y-37545000D03*
%TO.P,esp1,3,Pin_3*%
%TO.N,GPIO36*%
X63430000Y-40085000D03*
%TO.P,esp1,4,Pin_4*%
%TO.N,GPIO39*%
X63430000Y-42625000D03*
%TO.P,esp1,5,Pin_5*%
%TO.N,GPIO34*%
X63430000Y-45165000D03*
%TO.P,esp1,6,Pin_6*%
%TO.N,GPIO35*%
X63430000Y-47705000D03*
%TO.P,esp1,7,Pin_7*%
%TO.N,GPIO32*%
X63430000Y-50245000D03*
%TO.P,esp1,8,Pin_8*%
%TO.N,GPIO33*%
X63430000Y-52785000D03*
%TO.P,esp1,9,Pin_9*%
%TO.N,RXGPS*%
X63430000Y-55325000D03*
%TO.P,esp1,10,Pin_10*%
%TO.N,TXGPS*%
X63430000Y-57865000D03*
%TO.P,esp1,11,Pin_11*%
%TO.N,HSS*%
X63430000Y-60405000D03*
%TO.P,esp1,12,Pin_12*%
%TO.N,HCLK*%
X63430000Y-62945000D03*
%TO.P,esp1,13,Pin_13*%
%TO.N,HMISO*%
X63430000Y-65485000D03*
%TO.P,esp1,14,Pin_14*%
%TO.N,GND*%
X63430000Y-68025000D03*
%TO.P,esp1,15,Pin_15*%
%TO.N,HMOSI*%
X63430000Y-70565000D03*
%TO.P,esp1,16,Pin_16*%
%TO.N,INTERNAL1*%
X63430000Y-73105000D03*
%TO.P,esp1,17,Pin_17*%
%TO.N,INTERNAL2*%
X63430000Y-75645000D03*
%TO.P,esp1,18,Pin_18*%
%TO.N,INTERNAL3*%
X63430000Y-78185000D03*
%TO.P,esp1,19,Pin_19*%
%TO.N,5v*%
X63430000Y-80725000D03*
%TD*%
D10*
%TO.P,J16,1,Pin_1*%
%TO.N,5v*%
X67525000Y-80750000D03*
D11*
%TO.P,J16,2,Pin_2*%
%TO.N,GND*%
X67525000Y-83290000D03*
%TD*%
D10*
%TO.P,J14,1,Pin_1*%
%TO.N,VCC*%
X57620000Y-52070000D03*
D11*
%TO.P,J14,2,Pin_2*%
%TO.N,RXGPS*%
X57620000Y-54610000D03*
%TO.P,J14,3,Pin_3*%
%TO.N,TXGPS*%
X57620000Y-57150000D03*
%TO.P,J14,4,Pin_4*%
%TO.N,GND*%
X57620000Y-59690000D03*
%TD*%
D23*
%TO.N,*%
X72500000Y-39150000D03*
X98200000Y-65200000D03*
X93200000Y-70550000D03*
X72500000Y-70550000D03*
D24*
X50330000Y-55675000D03*
X112170000Y-55690000D03*
D23*
X93300000Y-39150000D03*
X81800000Y-35000000D03*
X56900000Y-35200000D03*
D25*
%TO.N,VCC*%
X89330000Y-38750000D03*
%TO.N,MOSI*%
X89100000Y-54120000D03*
%TO.N,HMISO*%
X81920000Y-86970000D03*
%TD*%
%TO.N,GND*%
D26*
X61525000Y-68025000D02*
X60000000Y-66500000D01*
X63430000Y-68025000D02*
X61525000Y-68025000D01*
X58330000Y-46330000D02*
X56000000Y-46330000D01*
X101429216Y-79570784D02*
X101429216Y-77400000D01*
X84340000Y-89330000D02*
X85420000Y-88250000D01*
X80180000Y-89330000D02*
X84340000Y-89330000D01*
X95740000Y-32760000D02*
X95740000Y-28350000D01*
X86500000Y-33500000D02*
X95000000Y-33500000D01*
X79400000Y-88550000D02*
X80180000Y-89330000D01*
X95000000Y-33500000D02*
X95740000Y-32760000D01*
X65405000Y-70000000D02*
X65500000Y-70000000D01*
X91750000Y-88250000D02*
X98500000Y-81500000D01*
X76570000Y-88550000D02*
X79400000Y-88550000D01*
X71330000Y-83290000D02*
X72420000Y-84380000D01*
X65500000Y-72380000D02*
X71030000Y-77910000D01*
X72420000Y-84380000D02*
X76570000Y-88530000D01*
X63430000Y-68025000D02*
X65405000Y-70000000D01*
X86330000Y-33670000D02*
X86500000Y-33500000D01*
X65500000Y-70000000D02*
X65500000Y-72380000D01*
X71030000Y-82990000D02*
X72420000Y-84380000D01*
X60000000Y-48000000D02*
X58330000Y-46330000D01*
X60000000Y-66500000D02*
X60000000Y-48000000D01*
X85420000Y-88250000D02*
X91750000Y-88250000D01*
X76570000Y-88530000D02*
X76570000Y-88550000D01*
X67525000Y-83290000D02*
X71330000Y-83290000D01*
X99500000Y-81500000D02*
X101429216Y-79570784D01*
X98500000Y-81500000D02*
X99500000Y-81500000D01*
X71030000Y-77910000D02*
X71030000Y-82990000D01*
X86330000Y-35000000D02*
X86330000Y-33670000D01*
%TO.N,VCC*%
X92500000Y-35000000D02*
X96000000Y-35000000D01*
X89330000Y-38170000D02*
X92500000Y-35000000D01*
X51390000Y-61635000D02*
X51390000Y-63490000D01*
X98280000Y-32720000D02*
X98280000Y-28350000D01*
X55000000Y-58025000D02*
X51390000Y-61635000D01*
X55430000Y-52070000D02*
X55000000Y-52500000D01*
X57620000Y-52070000D02*
X55430000Y-52070000D01*
X96000000Y-35000000D02*
X98280000Y-32720000D01*
X89330000Y-38750000D02*
X89330000Y-38170000D01*
X55000000Y-52500000D02*
X55000000Y-58025000D01*
%TO.N,MOSI*%
X89100000Y-54120000D02*
X89100000Y-40310000D01*
X89100000Y-40310000D02*
X86330000Y-37540000D01*
%TO.N,GPIO35*%
X69200000Y-43300000D02*
X69200000Y-34200000D01*
X64795000Y-47705000D02*
X69200000Y-43300000D01*
X69200000Y-34200000D02*
X71850000Y-31550000D01*
X63430000Y-47705000D02*
X64795000Y-47705000D01*
X71850000Y-31550000D02*
X71850000Y-28300000D01*
%TO.N,GPIO39*%
X64375000Y-42625000D02*
X65500000Y-41500000D01*
X66770000Y-31230000D02*
X66770000Y-28300000D01*
X65500000Y-41500000D02*
X65500000Y-32500000D01*
X63430000Y-42625000D02*
X64375000Y-42625000D01*
X65500000Y-32500000D02*
X66770000Y-31230000D01*
%TO.N,GPIO33*%
X76930000Y-41070000D02*
X76930000Y-28300000D01*
X65215000Y-52785000D02*
X76930000Y-41070000D01*
X63430000Y-52785000D02*
X65215000Y-52785000D01*
%TO.N,GPIO34*%
X69310000Y-28300000D02*
X69310000Y-30890000D01*
X67400000Y-42600000D02*
X64835000Y-45165000D01*
X64835000Y-45165000D02*
X63430000Y-45165000D01*
X67400000Y-32800000D02*
X67400000Y-42600000D01*
X69310000Y-30890000D02*
X67400000Y-32800000D01*
%TO.N,GPIO32*%
X74390000Y-31590000D02*
X74390000Y-28300000D01*
X65805000Y-50245000D02*
X75850000Y-40200000D01*
X75850000Y-40200000D02*
X75850000Y-33650000D01*
X63430000Y-50245000D02*
X65805000Y-50245000D01*
X74400000Y-31600000D02*
X74390000Y-31590000D01*
X75850000Y-33650000D02*
X74400000Y-32200000D01*
X74400000Y-32200000D02*
X74400000Y-31600000D01*
%TO.N,HMISO*%
X63445000Y-65500000D02*
X63430000Y-65485000D01*
X67670000Y-71210000D02*
X67670000Y-66940000D01*
X81920000Y-85460000D02*
X67670000Y-71210000D01*
X67670000Y-66940000D02*
X66215000Y-65485000D01*
X66215000Y-65485000D02*
X63430000Y-65485000D01*
X81920000Y-86970000D02*
X81920000Y-85460000D01*
%TO.N,GPIO36*%
X63430000Y-40085000D02*
X62085000Y-40085000D01*
X64230000Y-30270000D02*
X64230000Y-28300000D01*
X62085000Y-40085000D02*
X60500000Y-38500000D01*
X63000000Y-31500000D02*
X64230000Y-30270000D01*
X60500000Y-38500000D02*
X60500000Y-32500000D01*
X60500000Y-32500000D02*
X61500000Y-31500000D01*
X61500000Y-31500000D02*
X63000000Y-31500000D01*
%TO.N,GPIO0*%
X86330000Y-68020000D02*
X84080000Y-68020000D01*
X86180000Y-68170000D02*
X86330000Y-68020000D01*
X90400000Y-83600000D02*
X90400000Y-80700000D01*
X89500000Y-84500000D02*
X90400000Y-83600000D01*
X83400000Y-81500000D02*
X86400000Y-84500000D01*
X84080000Y-68020000D02*
X83400000Y-68700000D01*
X86400000Y-84500000D02*
X89500000Y-84500000D01*
X83400000Y-68700000D02*
X83400000Y-81500000D01*
%TO.N,GPIO16*%
X87740000Y-62940000D02*
X86330000Y-62940000D01*
X90400000Y-75620000D02*
X90400000Y-72200000D01*
X89000000Y-70800000D02*
X89000000Y-64200000D01*
X90400000Y-72200000D02*
X89000000Y-70800000D01*
X89000000Y-64200000D02*
X87740000Y-62940000D01*
%TO.N,GPIO4*%
X93800000Y-79300000D02*
X92660000Y-78160000D01*
X85900000Y-86400000D02*
X91300000Y-86400000D01*
X93800000Y-83900000D02*
X93800000Y-79300000D01*
X86330000Y-65480000D02*
X82520000Y-65480000D01*
X81600000Y-82100000D02*
X85900000Y-86400000D01*
X82520000Y-65480000D02*
X81600000Y-66400000D01*
X91300000Y-86400000D02*
X93800000Y-83900000D01*
X81600000Y-66400000D02*
X81600000Y-82100000D01*
X92660000Y-78160000D02*
X90400000Y-78160000D01*
%TO.N,SCLMPU*%
X86000000Y-32000000D02*
X91500000Y-32000000D01*
X84910000Y-40080000D02*
X84080000Y-39250000D01*
X93200000Y-30300000D02*
X93200000Y-28350000D01*
X86330000Y-40080000D02*
X84910000Y-40080000D01*
X84080000Y-39250000D02*
X84080000Y-33920000D01*
X84080000Y-33920000D02*
X86000000Y-32000000D01*
X91500000Y-32000000D02*
X93200000Y-30300000D01*
%TO.N,SDAMPU*%
X90660000Y-28350000D02*
X90660000Y-29340000D01*
X89500000Y-30500000D02*
X81300000Y-30500000D01*
X86330000Y-47700000D02*
X84900000Y-47700000D01*
X81300000Y-30500000D02*
X78900000Y-32900000D01*
X82300000Y-47700000D02*
X84900000Y-47700000D01*
X78900000Y-32900000D02*
X78900000Y-44300000D01*
X90660000Y-29340000D02*
X89500000Y-30500000D01*
X84900000Y-47700000D02*
X83780000Y-47700000D01*
X78900000Y-44300000D02*
X82300000Y-47700000D01*
%TO.N,5v*%
X63205000Y-80500000D02*
X63430000Y-80725000D01*
X60460000Y-80500000D02*
X63205000Y-80500000D01*
X58000000Y-78040000D02*
X60460000Y-80500000D01*
%TO.N,Pup*%
X53250000Y-70750000D02*
X53250000Y-73750000D01*
X54400000Y-69600000D02*
X53250000Y-70750000D01*
X55000000Y-75500000D02*
X58000000Y-75500000D01*
X53250000Y-73750000D02*
X55000000Y-75500000D01*
X56500000Y-69600000D02*
X54400000Y-69600000D01*
%TO.N,INVolt*%
X51430000Y-59480000D02*
X53750000Y-57160000D01*
X50780000Y-68210000D02*
X49130000Y-66560000D01*
X53750000Y-42750000D02*
X54500000Y-42750000D01*
X53750000Y-57160000D02*
X53750000Y-51250000D01*
X53370000Y-68210000D02*
X50780000Y-68210000D01*
X50130000Y-59480000D02*
X51430000Y-59480000D01*
X52000000Y-49500000D02*
X52000000Y-44500000D01*
X49130000Y-66560000D02*
X49130000Y-60480000D01*
X53980000Y-67600000D02*
X53370000Y-68210000D01*
X52000000Y-44500000D02*
X53750000Y-42750000D01*
X53750000Y-51250000D02*
X52000000Y-49500000D01*
X54500000Y-42750000D02*
X56000000Y-41250000D01*
X53980000Y-67600000D02*
X56500000Y-67600000D01*
X49130000Y-60480000D02*
X50130000Y-59480000D01*
%TO.N,VCC1*%
X51390000Y-66030000D02*
X53290000Y-66030000D01*
X53290000Y-66030000D02*
X53720000Y-65600000D01*
X53720000Y-65600000D02*
X56500000Y-65600000D01*
%TD*%
%TA.AperFunction,Conductor*%
%TO.N,GND*%
G36*
X81709731Y-20916670D02*
G01*
X81855708Y-20917909D01*
X81858569Y-20917968D01*
X82827887Y-20949701D01*
X82828718Y-20949733D01*
X83008152Y-20957355D01*
X83010950Y-20957505D01*
X83954053Y-21019319D01*
X83954758Y-21019370D01*
X84158187Y-21034945D01*
X84160785Y-21035173D01*
X85083343Y-21126037D01*
X85084481Y-21126156D01*
X85304246Y-21150513D01*
X85306482Y-21150784D01*
X86212980Y-21270126D01*
X86214582Y-21270349D01*
X86444713Y-21303799D01*
X86446964Y-21304148D01*
X87340814Y-21451723D01*
X87342461Y-21452008D01*
X87578575Y-21494560D01*
X87580582Y-21494941D01*
X88464514Y-21670766D01*
X88466379Y-21671152D01*
X88704026Y-21722369D01*
X88705835Y-21722775D01*
X89582537Y-21927193D01*
X89584408Y-21927646D01*
X89819642Y-21986768D01*
X89821378Y-21987218D01*
X90692886Y-22220739D01*
X90695083Y-22221350D01*
X90923925Y-22287203D01*
X90925421Y-22287644D01*
X91794318Y-22551222D01*
X91796502Y-22551908D01*
X92015074Y-22622926D01*
X92016503Y-22623401D01*
X92885120Y-22918257D01*
X92887452Y-22919075D01*
X93091232Y-22993027D01*
X93092439Y-22993474D01*
X93964164Y-23321567D01*
X93966518Y-23322483D01*
X94150130Y-23396264D01*
X94150961Y-23396603D01*
X95029831Y-23760644D01*
X95032440Y-23761761D01*
X95188896Y-23830889D01*
X95189761Y-23831276D01*
X96080994Y-24235088D01*
X96083671Y-24236341D01*
X96204142Y-24294537D01*
X96205049Y-24294980D01*
X97116295Y-24744357D01*
X97119148Y-24745810D01*
X97190453Y-24783293D01*
X97191205Y-24783691D01*
X98134634Y-25287965D01*
X98137451Y-25289519D01*
X98139005Y-25290405D01*
X99120007Y-25856786D01*
X99123459Y-25858856D01*
X99900629Y-26342131D01*
X99906543Y-26348755D01*
X99908766Y-26349007D01*
X99926135Y-26357992D01*
X99966149Y-26382874D01*
X100072568Y-26449050D01*
X100086040Y-26457427D01*
X100089442Y-26459620D01*
X100920214Y-27014725D01*
X101031936Y-27089375D01*
X101035272Y-27091684D01*
X101956636Y-27751924D01*
X101959895Y-27754341D01*
X102859198Y-28444401D01*
X102862315Y-28446874D01*
X103738577Y-29166004D01*
X103741634Y-29168597D01*
X104093774Y-29477416D01*
X104593878Y-29915996D01*
X104596884Y-29918721D01*
X105424180Y-30693568D01*
X105427096Y-30696390D01*
X106228609Y-31497903D01*
X106231431Y-31500819D01*
X107006295Y-32328132D01*
X107008988Y-32331103D01*
X107719197Y-33140942D01*
X107719668Y-33141482D01*
X107766203Y-33195272D01*
X107768279Y-33197736D01*
X108417040Y-33988252D01*
X108417572Y-33988905D01*
X108497611Y-34088031D01*
X108499434Y-34090348D01*
X108839918Y-34534075D01*
X109097835Y-34870199D01*
X109098470Y-34871034D01*
X109198648Y-35004105D01*
X109200294Y-35006347D01*
X109482453Y-35400099D01*
X109756227Y-35782151D01*
X109756975Y-35783206D01*
X109868517Y-35942344D01*
X109870034Y-35944561D01*
X110152503Y-36367305D01*
X110388791Y-36720935D01*
X110389589Y-36722144D01*
X110506531Y-36901663D01*
X110507932Y-36903864D01*
X110993210Y-37684253D01*
X110994047Y-37685619D01*
X111111977Y-37880844D01*
X111113226Y-37882958D01*
X111173776Y-37987832D01*
X111175326Y-37990601D01*
X111689239Y-38936200D01*
X112348146Y-40148589D01*
X112350409Y-40152957D01*
X112621576Y-40702831D01*
X112622472Y-40704687D01*
X112726344Y-40924454D01*
X112727183Y-40926266D01*
X113098970Y-41746820D01*
X113099866Y-41748846D01*
X113195121Y-41969480D01*
X113195839Y-41971177D01*
X113542153Y-42807250D01*
X113543039Y-42809448D01*
X113628382Y-43027158D01*
X113628987Y-43028734D01*
X113950462Y-43882875D01*
X113951327Y-43885244D01*
X114025570Y-44095371D01*
X114026072Y-44096823D01*
X114323274Y-44972355D01*
X114324107Y-44974897D01*
X114386248Y-45171817D01*
X114386657Y-45173138D01*
X114547424Y-45703118D01*
X114548576Y-45707163D01*
X114999205Y-47397019D01*
X115000640Y-47402987D01*
X115490240Y-49687794D01*
X115491336Y-49693577D01*
X115636401Y-50572220D01*
X115636996Y-50576234D01*
X115667637Y-50808983D01*
X115667940Y-50811474D01*
X115899700Y-52897301D01*
X115900183Y-52902747D01*
X115961142Y-53817145D01*
X115961151Y-53817283D01*
X115970978Y-53967211D01*
X115971178Y-53971264D01*
X116008268Y-55104200D01*
X116008334Y-55108257D01*
X116008334Y-56241742D01*
X116008268Y-56245799D01*
X115971179Y-57378707D01*
X115970980Y-57382760D01*
X115896844Y-58513856D01*
X115896512Y-58517900D01*
X115785410Y-59645944D01*
X115784946Y-59649975D01*
X115636996Y-60773765D01*
X115636401Y-60777779D01*
X115456959Y-61864642D01*
X115456831Y-61865401D01*
X115450169Y-61904251D01*
X115449570Y-61907484D01*
X115245849Y-62931659D01*
X115245666Y-62932562D01*
X115224258Y-63036157D01*
X115223585Y-63039220D01*
X114996904Y-64011404D01*
X114996655Y-64012450D01*
X114961022Y-64159497D01*
X114960285Y-64162388D01*
X114710398Y-65094980D01*
X114710074Y-65096165D01*
X114660838Y-65272893D01*
X114660048Y-65275609D01*
X114386656Y-66176862D01*
X114386247Y-66178183D01*
X114324107Y-66375100D01*
X114323274Y-66377642D01*
X114026072Y-67253175D01*
X114025570Y-67254627D01*
X113951327Y-67464754D01*
X113950462Y-67467123D01*
X113628987Y-68321264D01*
X113628382Y-68322840D01*
X113543039Y-68540550D01*
X113542153Y-68542748D01*
X113195839Y-69378821D01*
X113195121Y-69380518D01*
X113099866Y-69601152D01*
X113098970Y-69603178D01*
X112727184Y-70423729D01*
X112726346Y-70425540D01*
X112622471Y-70645315D01*
X112621574Y-70647172D01*
X112223480Y-71454428D01*
X112222513Y-71456347D01*
X112111714Y-71671540D01*
X112110827Y-71673230D01*
X111685306Y-72469320D01*
X111684202Y-72471341D01*
X111568526Y-72678413D01*
X111567659Y-72679939D01*
X111113244Y-73467011D01*
X111111995Y-73469126D01*
X110994042Y-73664387D01*
X110993205Y-73665753D01*
X110507932Y-74446134D01*
X110506531Y-74448335D01*
X110389589Y-74627854D01*
X110388791Y-74629063D01*
X109870056Y-75405405D01*
X109868495Y-75407686D01*
X109756975Y-75566792D01*
X109756227Y-75567847D01*
X109200320Y-76343616D01*
X109198593Y-76345968D01*
X109098525Y-76478892D01*
X109097835Y-76479799D01*
X108499457Y-77259621D01*
X108497557Y-77262035D01*
X108417663Y-77360981D01*
X108417040Y-77361746D01*
X107768279Y-78152262D01*
X107766204Y-78154725D01*
X107719669Y-78208516D01*
X107719119Y-78209147D01*
X107009003Y-79018878D01*
X107006278Y-79021884D01*
X106231431Y-79849180D01*
X106228609Y-79852096D01*
X105427096Y-80653609D01*
X105424180Y-80656431D01*
X104596884Y-81431278D01*
X104593878Y-81434003D01*
X103741652Y-82181386D01*
X103738558Y-82184011D01*
X102862346Y-82903100D01*
X102859167Y-82905623D01*
X101959895Y-83595658D01*
X101956636Y-83598075D01*
X101035272Y-84258315D01*
X101031936Y-84260624D01*
X100089451Y-84890373D01*
X100086040Y-84892572D01*
X99123473Y-85491135D01*
X99119993Y-85493221D01*
X98139381Y-86059377D01*
X98138773Y-86059726D01*
X98137513Y-86060444D01*
X98134574Y-86062066D01*
X97191209Y-86566304D01*
X97190453Y-86566705D01*
X97119148Y-86604188D01*
X97116295Y-86605641D01*
X96205049Y-87055018D01*
X96204142Y-87055461D01*
X96083711Y-87113638D01*
X96080950Y-87114930D01*
X95189901Y-87518659D01*
X95188839Y-87519134D01*
X95032450Y-87588233D01*
X95029789Y-87589372D01*
X94151158Y-87953314D01*
X94149939Y-87953811D01*
X93966617Y-88027476D01*
X93964062Y-88028470D01*
X93092504Y-88356500D01*
X93091126Y-88357010D01*
X92887520Y-88430899D01*
X92885077Y-88431756D01*
X92016561Y-88726577D01*
X92015021Y-88727089D01*
X91796571Y-88798068D01*
X91794248Y-88798798D01*
X90925520Y-89062324D01*
X90923816Y-89062827D01*
X90695083Y-89128648D01*
X90692886Y-89129259D01*
X89821444Y-89362762D01*
X89819575Y-89363247D01*
X89584506Y-89422328D01*
X89582438Y-89422829D01*
X88705947Y-89627198D01*
X88703914Y-89627654D01*
X88466411Y-89678839D01*
X88464478Y-89679239D01*
X87580680Y-89855038D01*
X87578482Y-89855455D01*
X87342536Y-89897977D01*
X87340742Y-89898287D01*
X86447026Y-90045840D01*
X86444663Y-90046206D01*
X86214595Y-90079647D01*
X86212944Y-90079876D01*
X85306627Y-90199196D01*
X85304101Y-90199502D01*
X85084663Y-90223822D01*
X85083158Y-90223980D01*
X84160829Y-90314821D01*
X84158142Y-90315056D01*
X83955107Y-90330603D01*
X83953750Y-90330700D01*
X83010974Y-90392491D01*
X83008127Y-90392644D01*
X82828923Y-90400257D01*
X82827717Y-90400303D01*
X81858641Y-90432028D01*
X81855638Y-90432090D01*
X81710478Y-90433323D01*
X81709730Y-90433330D01*
X81708678Y-90433334D01*
X80704968Y-90433334D01*
X80701808Y-90433294D01*
X80603910Y-90430798D01*
X80603013Y-90430772D01*
X79551316Y-90396343D01*
X79548007Y-90396190D01*
X79520717Y-90394566D01*
X79519973Y-90394520D01*
X78411143Y-90321844D01*
X78407099Y-90321512D01*
X77279055Y-90210410D01*
X77275024Y-90209946D01*
X76151234Y-90061996D01*
X76147220Y-90061401D01*
X75028822Y-89876753D01*
X75024830Y-89876026D01*
X73913138Y-89654897D01*
X73909184Y-89654043D01*
X73617633Y-89586063D01*
X72805263Y-89396645D01*
X72801328Y-89395659D01*
X71706439Y-89102285D01*
X71702537Y-89101171D01*
X70617816Y-88772124D01*
X70613965Y-88770886D01*
X70242191Y-88644686D01*
X69540627Y-88406537D01*
X69536807Y-88405170D01*
X68475957Y-88005895D01*
X68472183Y-88004404D01*
X67462587Y-87586214D01*
X67461860Y-87585910D01*
X67415256Y-87566258D01*
X67412260Y-87564948D01*
X66467992Y-87137106D01*
X66467134Y-87136713D01*
X66364263Y-87089156D01*
X66361453Y-87087814D01*
X65471011Y-86648697D01*
X65470030Y-86648208D01*
X65330138Y-86577676D01*
X65327510Y-86576311D01*
X64479497Y-86123039D01*
X64478397Y-86122444D01*
X64314129Y-86032500D01*
X64311682Y-86031124D01*
X63498550Y-85561662D01*
X63497339Y-85560954D01*
X63383030Y-85493221D01*
X63317252Y-85454244D01*
X63315056Y-85452911D01*
X62531557Y-84965699D01*
X62530248Y-84964874D01*
X62340925Y-84843822D01*
X62338832Y-84842454D01*
X61581110Y-84336159D01*
X61579694Y-84335199D01*
X61386080Y-84201929D01*
X61384160Y-84200580D01*
X60649321Y-83674004D01*
X60647813Y-83672906D01*
X60552797Y-83602632D01*
X60453952Y-83529527D01*
X60452200Y-83528207D01*
X59737827Y-82980049D01*
X59736235Y-82978807D01*
X59545745Y-82827650D01*
X59544158Y-82826369D01*
X58848282Y-82255279D01*
X58846616Y-82253887D01*
X58662546Y-82097350D01*
X58661118Y-82096117D01*
X57981935Y-81500490D01*
X57980202Y-81498941D01*
X57805648Y-81339974D01*
X57804375Y-81338798D01*
X57525235Y-81077355D01*
X57140116Y-80716652D01*
X57138399Y-80715012D01*
X56976206Y-80556899D01*
X56975083Y-80555789D01*
X56324005Y-79904711D01*
X56322163Y-79902830D01*
X56175643Y-79749953D01*
X56174663Y-79748918D01*
X55534622Y-79065554D01*
X55532786Y-79063550D01*
X55405369Y-78921232D01*
X55404610Y-78920374D01*
X55310719Y-78813312D01*
X54772977Y-78200134D01*
X54771113Y-78197957D01*
X54667323Y-78073790D01*
X54666795Y-78073153D01*
X54044979Y-77315468D01*
X54040078Y-77309496D01*
X54038146Y-77307081D01*
X53964072Y-77212086D01*
X53963481Y-77211322D01*
X53336798Y-76394613D01*
X53334857Y-76392013D01*
X53298859Y-76342467D01*
X53298456Y-76341909D01*
X52666681Y-75460268D01*
X52664375Y-75456936D01*
X52450883Y-75137422D01*
X52430005Y-75070744D01*
X52448490Y-75003364D01*
X52500469Y-74956674D01*
X52569439Y-74945498D01*
X52633502Y-74973384D01*
X52641656Y-74980841D01*
X53152965Y-75492149D01*
X54004908Y-76344092D01*
X54004922Y-76344107D01*
X54008033Y-76347218D01*
X54008034Y-76347219D01*
X54152781Y-76491966D01*
X54152784Y-76491968D01*
X54152787Y-76491971D01*
X54176972Y-76509542D01*
X54269060Y-76576447D01*
X54318390Y-76612287D01*
X54407847Y-76657867D01*
X54500781Y-76705221D01*
X54500787Y-76705223D01*
X54580039Y-76730973D01*
X54683278Y-76764517D01*
X54689127Y-76766417D01*
X54695465Y-76768477D01*
X54796557Y-76784488D01*
X54897648Y-76800500D01*
X54897649Y-76800500D01*
X55102352Y-76800500D01*
X56029187Y-76800500D01*
X56096226Y-76820185D01*
X56136162Y-76861792D01*
X56137691Y-76864402D01*
X56210302Y-77003407D01*
X56241872Y-77042124D01*
X56246706Y-77050371D01*
X56252945Y-77075367D01*
X56262942Y-77099114D01*
X56261267Y-77108709D01*
X56263627Y-77118161D01*
X56255361Y-77142562D01*
X56250933Y-77167944D01*
X56247128Y-77175062D01*
X56246900Y-77175455D01*
X56246893Y-77175471D01*
X56149053Y-77411677D01*
X56149050Y-77411687D01*
X56100470Y-77592993D01*
X56082874Y-77658661D01*
X56049500Y-77912149D01*
X56049500Y-78167850D01*
X56068589Y-78312836D01*
X56082874Y-78421340D01*
X56124695Y-78577418D01*
X56149050Y-78668312D01*
X56149053Y-78668322D01*
X56246894Y-78904531D01*
X56246899Y-78904542D01*
X56374734Y-79125957D01*
X56374745Y-79125973D01*
X56530388Y-79328811D01*
X56530394Y-79328818D01*
X56711181Y-79509605D01*
X56711188Y-79509611D01*
X56793255Y-79572583D01*
X56914035Y-79665261D01*
X56914042Y-79665265D01*
X57135457Y-79793100D01*
X57135462Y-79793102D01*
X57135465Y-79793104D01*
X57371687Y-79890950D01*
X57618660Y-79957126D01*
X57872157Y-79990500D01*
X58059953Y-79990500D01*
X58126992Y-80010185D01*
X58147634Y-80026819D01*
X59612786Y-81491971D01*
X59740192Y-81584535D01*
X59778390Y-81612287D01*
X59894607Y-81671503D01*
X59960776Y-81705218D01*
X59960778Y-81705218D01*
X59960781Y-81705220D01*
X60065137Y-81739127D01*
X60155465Y-81768477D01*
X60256557Y-81784488D01*
X60357648Y-81800500D01*
X60562351Y-81800500D01*
X61735559Y-81800500D01*
X61802598Y-81820185D01*
X61833935Y-81849014D01*
X61960388Y-82013811D01*
X61960394Y-82013818D01*
X62141181Y-82194605D01*
X62141188Y-82194611D01*
X62217815Y-82253409D01*
X62344035Y-82350261D01*
X62344042Y-82350265D01*
X62565457Y-82478100D01*
X62565462Y-82478102D01*
X62565465Y-82478104D01*
X62801687Y-82575950D01*
X63048660Y-82642126D01*
X63302157Y-82675500D01*
X63302164Y-82675500D01*
X63557836Y-82675500D01*
X63557843Y-82675500D01*
X63811340Y-82642126D01*
X64058313Y-82575950D01*
X64294535Y-82478104D01*
X64303194Y-82473105D01*
X64410573Y-82411109D01*
X64515965Y-82350261D01*
X64718813Y-82194610D01*
X64899610Y-82013813D01*
X65055261Y-81810965D01*
X65183104Y-81589535D01*
X65280950Y-81353313D01*
X65330727Y-81167541D01*
X65367090Y-81107884D01*
X65429936Y-81077355D01*
X65499312Y-81085649D01*
X65553190Y-81130135D01*
X65574465Y-81196686D01*
X65574500Y-81199638D01*
X65574500Y-81758028D01*
X65574501Y-81758034D01*
X65585113Y-81877415D01*
X65641089Y-82073045D01*
X65641090Y-82073048D01*
X65641091Y-82073049D01*
X65735302Y-82253407D01*
X65769977Y-82295933D01*
X65863890Y-82411109D01*
X65934723Y-82468864D01*
X66021593Y-82539698D01*
X66021595Y-82539699D01*
X66118960Y-82590559D01*
X66169267Y-82639045D01*
X66185374Y-82707033D01*
X66179479Y-82738785D01*
X66110704Y-82950455D01*
X66096522Y-83040000D01*
X67091988Y-83040000D01*
X67059075Y-83097007D01*
X67025000Y-83224174D01*
X67025000Y-83355826D01*
X67059075Y-83482993D01*
X67091988Y-83540000D01*
X66096522Y-83540000D01*
X66110704Y-83629544D01*
X66181230Y-83846604D01*
X66284849Y-84049966D01*
X66419004Y-84234614D01*
X66580385Y-84395995D01*
X66765033Y-84530150D01*
X66968395Y-84633769D01*
X67185455Y-84704295D01*
X67275000Y-84718478D01*
X67275000Y-83723012D01*
X67332007Y-83755925D01*
X67459174Y-83790000D01*
X67590826Y-83790000D01*
X67717993Y-83755925D01*
X67775000Y-83723012D01*
X67775000Y-84718477D01*
X67864544Y-84704295D01*
X68081604Y-84633769D01*
X68284966Y-84530150D01*
X68469614Y-84395995D01*
X68630995Y-84234614D01*
X68765150Y-84049966D01*
X68868769Y-83846604D01*
X68939295Y-83629544D01*
X68953478Y-83540000D01*
X67958012Y-83540000D01*
X67990925Y-83482993D01*
X68025000Y-83355826D01*
X68025000Y-83224174D01*
X67990925Y-83097007D01*
X67958012Y-83040000D01*
X68953478Y-83040000D01*
X68939296Y-82950458D01*
X68870519Y-82738786D01*
X68868524Y-82668944D01*
X68904604Y-82609111D01*
X68931038Y-82590559D01*
X69028407Y-82539698D01*
X69186109Y-82411109D01*
X69314698Y-82253407D01*
X69408909Y-82073049D01*
X69464886Y-81877418D01*
X69475500Y-81758037D01*
X69475499Y-79741964D01*
X69464886Y-79622582D01*
X69419887Y-79465318D01*
X69408910Y-79426954D01*
X69408909Y-79426953D01*
X69408909Y-79426951D01*
X69314698Y-79246593D01*
X69248396Y-79165280D01*
X69186109Y-79088890D01*
X69028409Y-78960304D01*
X69028410Y-78960304D01*
X69028407Y-78960302D01*
X68848049Y-78866091D01*
X68848048Y-78866090D01*
X68848045Y-78866089D01*
X68730829Y-78832550D01*
X68652418Y-78810114D01*
X68652415Y-78810113D01*
X68652413Y-78810113D01*
X68586102Y-78804217D01*
X68533037Y-78799500D01*
X68533032Y-78799500D01*
X66516971Y-78799500D01*
X66516965Y-78799500D01*
X66516964Y-78799501D01*
X66505316Y-78800536D01*
X66397584Y-78810113D01*
X66201954Y-78866089D01*
X66128340Y-78904542D01*
X66021593Y-78960302D01*
X66021591Y-78960303D01*
X66021590Y-78960304D01*
X65863890Y-79088890D01*
X65740924Y-79239698D01*
X65735302Y-79246593D01*
X65722571Y-79270965D01*
X65641089Y-79426954D01*
X65585114Y-79622583D01*
X65585113Y-79622586D01*
X65574500Y-79741966D01*
X65574500Y-80250359D01*
X65554815Y-80317398D01*
X65502011Y-80363153D01*
X65432853Y-80373097D01*
X65369297Y-80344072D01*
X65331523Y-80285294D01*
X65330725Y-80282452D01*
X65328674Y-80274796D01*
X65280950Y-80096687D01*
X65183104Y-79860465D01*
X65183102Y-79860462D01*
X65183100Y-79860457D01*
X65055265Y-79639042D01*
X65055261Y-79639035D01*
X64971967Y-79530485D01*
X64946774Y-79465318D01*
X64960812Y-79396873D01*
X64971964Y-79379517D01*
X65055261Y-79270965D01*
X65183104Y-79049535D01*
X65280950Y-78813313D01*
X65347126Y-78566340D01*
X65380500Y-78312843D01*
X65380500Y-78057157D01*
X65347126Y-77803660D01*
X65280950Y-77556687D01*
X65270593Y-77531684D01*
X65183105Y-77320468D01*
X65183100Y-77320457D01*
X65055265Y-77099042D01*
X65055261Y-77099035D01*
X64971967Y-76990485D01*
X64946774Y-76925318D01*
X64960812Y-76856873D01*
X64971964Y-76839517D01*
X65055261Y-76730965D01*
X65183104Y-76509535D01*
X65280950Y-76273313D01*
X65347126Y-76026340D01*
X65380500Y-75772843D01*
X65380500Y-75517157D01*
X65347126Y-75263660D01*
X65280950Y-75016687D01*
X65275431Y-75003364D01*
X65183105Y-74780468D01*
X65183100Y-74780457D01*
X65055265Y-74559042D01*
X65055261Y-74559035D01*
X64971967Y-74450485D01*
X64946774Y-74385318D01*
X64960812Y-74316873D01*
X64971964Y-74299517D01*
X65055261Y-74190965D01*
X65183104Y-73969535D01*
X65280950Y-73733313D01*
X65347126Y-73486340D01*
X65380500Y-73232843D01*
X65380500Y-72977157D01*
X65347126Y-72723660D01*
X65280950Y-72476687D01*
X65277898Y-72469320D01*
X65183105Y-72240468D01*
X65183100Y-72240457D01*
X65055265Y-72019042D01*
X65055261Y-72019035D01*
X64971967Y-71910485D01*
X64946774Y-71845318D01*
X64960812Y-71776873D01*
X64971964Y-71759517D01*
X65055261Y-71650965D01*
X65183104Y-71429535D01*
X65280950Y-71193313D01*
X65347126Y-70946340D01*
X65380500Y-70692843D01*
X65380500Y-70437157D01*
X65347126Y-70183660D01*
X65280950Y-69936687D01*
X65269111Y-69908106D01*
X65183105Y-69700468D01*
X65183100Y-69700457D01*
X65055265Y-69479042D01*
X65055261Y-69479035D01*
X64899610Y-69276187D01*
X64899605Y-69276181D01*
X64718818Y-69095394D01*
X64718808Y-69095386D01*
X64638595Y-69033835D01*
X64597393Y-68977407D01*
X64593238Y-68907661D01*
X64613765Y-68862573D01*
X64670150Y-68784967D01*
X64773769Y-68581604D01*
X64844295Y-68364544D01*
X64858478Y-68275000D01*
X63863012Y-68275000D01*
X63895925Y-68217993D01*
X63930000Y-68090826D01*
X63930000Y-67959174D01*
X63895925Y-67832007D01*
X63863012Y-67775000D01*
X64858478Y-67775000D01*
X64844295Y-67685455D01*
X64773769Y-67468395D01*
X64670148Y-67265030D01*
X64613764Y-67187423D01*
X64590284Y-67121617D01*
X64606109Y-67053563D01*
X64638591Y-67016166D01*
X64718813Y-66954610D01*
X64851605Y-66821817D01*
X64912926Y-66788334D01*
X64939285Y-66785500D01*
X65624953Y-66785500D01*
X65691992Y-66805185D01*
X65712634Y-66821819D01*
X66333181Y-67442365D01*
X66366666Y-67503688D01*
X66369500Y-67530046D01*
X66369500Y-71312351D01*
X66401522Y-71514531D01*
X66401522Y-71514532D01*
X66419639Y-71570289D01*
X66464781Y-71709223D01*
X66506942Y-71791966D01*
X66557713Y-71891611D01*
X66678034Y-72057219D01*
X66678036Y-72057221D01*
X80583181Y-85962366D01*
X80616666Y-86023689D01*
X80619500Y-86050047D01*
X80619500Y-86420772D01*
X80613431Y-86459090D01*
X80553985Y-86642047D01*
X80552932Y-86648697D01*
X80519500Y-86859778D01*
X80519500Y-87080222D01*
X80520915Y-87089156D01*
X80553985Y-87297952D01*
X80622103Y-87507603D01*
X80622104Y-87507606D01*
X80656463Y-87575037D01*
X80720390Y-87700500D01*
X80722187Y-87704025D01*
X80851752Y-87882358D01*
X80851756Y-87882363D01*
X81007636Y-88038243D01*
X81007641Y-88038247D01*
X81163192Y-88151260D01*
X81185978Y-88167815D01*
X81314375Y-88233237D01*
X81382393Y-88267895D01*
X81382396Y-88267896D01*
X81487221Y-88301955D01*
X81592049Y-88336015D01*
X81809778Y-88370500D01*
X81809779Y-88370500D01*
X82030221Y-88370500D01*
X82030222Y-88370500D01*
X82247951Y-88336015D01*
X82457606Y-88267895D01*
X82654022Y-88167815D01*
X82832365Y-88038242D01*
X82988242Y-87882365D01*
X83117815Y-87704022D01*
X83217895Y-87507606D01*
X83286015Y-87297951D01*
X83320500Y-87080222D01*
X83320500Y-86859778D01*
X83286015Y-86642049D01*
X83226568Y-86459089D01*
X83220500Y-86420772D01*
X83220500Y-85859047D01*
X83240185Y-85792008D01*
X83292989Y-85746253D01*
X83362147Y-85736309D01*
X83425703Y-85765334D01*
X83432181Y-85771366D01*
X85052781Y-87391966D01*
X85218389Y-87512287D01*
X85309585Y-87558753D01*
X85400781Y-87605220D01*
X85498123Y-87636848D01*
X85595465Y-87668477D01*
X85797648Y-87700500D01*
X85797649Y-87700500D01*
X91402351Y-87700500D01*
X91402352Y-87700500D01*
X91604535Y-87668477D01*
X91701876Y-87636848D01*
X91799219Y-87605220D01*
X91890414Y-87558753D01*
X91981611Y-87512287D01*
X92147219Y-87391966D01*
X94791966Y-84747219D01*
X94912287Y-84581611D01*
X94970157Y-84468034D01*
X95005220Y-84399219D01*
X95043433Y-84281611D01*
X95068477Y-84204535D01*
X95100500Y-84002352D01*
X95100500Y-83797648D01*
X95100500Y-79510936D01*
X95120185Y-79443897D01*
X95172989Y-79398142D01*
X95242147Y-79388198D01*
X95247155Y-79389023D01*
X95251794Y-79389884D01*
X95251798Y-79389886D01*
X95371179Y-79400500D01*
X97487252Y-79400499D01*
X97606634Y-79389886D01*
X97802265Y-79333909D01*
X97982623Y-79239698D01*
X98140325Y-79111109D01*
X98268914Y-78953407D01*
X98363125Y-78773049D01*
X98419102Y-78577418D01*
X98429716Y-78458037D01*
X98429715Y-77281947D01*
X99929216Y-77281947D01*
X99929216Y-77518052D01*
X99966150Y-77751247D01*
X100039113Y-77975802D01*
X100146303Y-78186174D01*
X100206554Y-78269104D01*
X100206556Y-78269105D01*
X100946253Y-77529408D01*
X100963291Y-77592993D01*
X101029117Y-77707007D01*
X101122209Y-77800099D01*
X101236223Y-77865925D01*
X101299806Y-77882962D01*
X100560109Y-78622658D01*
X100643044Y-78682914D01*
X100853413Y-78790102D01*
X101077968Y-78863065D01*
X101077967Y-78863065D01*
X101311164Y-78900000D01*
X101547268Y-78900000D01*
X101780463Y-78863065D01*
X102005018Y-78790102D01*
X102215379Y-78682918D01*
X102215385Y-78682914D01*
X102298320Y-78622658D01*
X102298321Y-78622658D01*
X101558624Y-77882962D01*
X101622209Y-77865925D01*
X101736223Y-77800099D01*
X101829315Y-77707007D01*
X101895141Y-77592993D01*
X101912178Y-77529409D01*
X102651874Y-78269105D01*
X102651874Y-78269104D01*
X102712130Y-78186169D01*
X102712134Y-78186163D01*
X102819318Y-77975802D01*
X102892281Y-77751247D01*
X102929216Y-77518052D01*
X102929216Y-77281947D01*
X102892281Y-77048752D01*
X102819318Y-76824197D01*
X102712130Y-76613828D01*
X102651874Y-76530894D01*
X102651874Y-76530893D01*
X101912178Y-77270590D01*
X101895141Y-77207007D01*
X101829315Y-77092993D01*
X101736223Y-76999901D01*
X101622209Y-76934075D01*
X101558625Y-76917037D01*
X102298321Y-76177340D01*
X102298320Y-76177338D01*
X102215390Y-76117087D01*
X102005018Y-76009897D01*
X101780463Y-75936934D01*
X101780464Y-75936934D01*
X101547268Y-75900000D01*
X101311164Y-75900000D01*
X101077968Y-75936934D01*
X100853413Y-76009897D01*
X100643046Y-76117084D01*
X100560110Y-76177340D01*
X101299807Y-76917037D01*
X101236223Y-76934075D01*
X101122209Y-76999901D01*
X101029117Y-77092993D01*
X100963291Y-77207007D01*
X100946253Y-77270591D01*
X100206556Y-76530894D01*
X100146300Y-76613830D01*
X100039113Y-76824197D01*
X99966150Y-77048752D01*
X99929216Y-77281947D01*
X98429715Y-77281947D01*
X98429715Y-76341964D01*
X98419102Y-76222582D01*
X98363125Y-76026951D01*
X98268914Y-75846593D01*
X98188394Y-75747843D01*
X98140325Y-75688890D01*
X97982625Y-75560304D01*
X97982626Y-75560304D01*
X97982623Y-75560302D01*
X97802265Y-75466091D01*
X97802264Y-75466090D01*
X97802261Y-75466089D01*
X97685045Y-75432550D01*
X97606634Y-75410114D01*
X97606631Y-75410113D01*
X97606629Y-75410113D01*
X97540318Y-75404217D01*
X97487253Y-75399500D01*
X97487248Y-75399500D01*
X95371187Y-75399500D01*
X95371181Y-75399500D01*
X95371180Y-75399501D01*
X95359532Y-75400536D01*
X95251800Y-75410113D01*
X95056170Y-75466089D01*
X94967978Y-75512157D01*
X94875809Y-75560302D01*
X94875807Y-75560303D01*
X94875806Y-75560304D01*
X94718106Y-75688890D01*
X94589520Y-75846590D01*
X94495305Y-76026954D01*
X94439330Y-76222583D01*
X94439329Y-76222586D01*
X94428716Y-76341966D01*
X94428716Y-77790169D01*
X94409031Y-77857208D01*
X94356227Y-77902963D01*
X94287069Y-77912907D01*
X94223513Y-77883882D01*
X94217035Y-77877850D01*
X93507221Y-77168036D01*
X93507219Y-77168034D01*
X93341611Y-77047713D01*
X93316105Y-77034717D01*
X93253490Y-77002813D01*
X93253482Y-77002810D01*
X93248949Y-77000500D01*
X93159219Y-76954780D01*
X93053716Y-76920500D01*
X93049279Y-76919058D01*
X93049276Y-76919057D01*
X92964532Y-76891522D01*
X92809220Y-76866923D01*
X92762352Y-76859500D01*
X92762351Y-76859500D01*
X92151392Y-76859500D01*
X92084353Y-76839815D01*
X92038598Y-76787011D01*
X92028654Y-76717853D01*
X92044005Y-76673500D01*
X92153100Y-76484542D01*
X92153100Y-76484541D01*
X92153104Y-76484535D01*
X92250950Y-76248313D01*
X92317126Y-76001340D01*
X92350500Y-75747843D01*
X92350500Y-75492157D01*
X92317126Y-75238660D01*
X92250950Y-74991687D01*
X92153104Y-74755465D01*
X92153102Y-74755462D01*
X92153100Y-74755457D01*
X92025265Y-74534042D01*
X92025261Y-74534035D01*
X91961152Y-74450487D01*
X91869611Y-74331188D01*
X91869605Y-74331181D01*
X91736819Y-74198395D01*
X91703334Y-74137072D01*
X91700500Y-74110714D01*
X91700500Y-73078048D01*
X91720185Y-73011009D01*
X91772989Y-72965254D01*
X91842147Y-72955310D01*
X91878300Y-72966327D01*
X92145771Y-73095135D01*
X92145777Y-73095137D01*
X92437352Y-73197164D01*
X92437364Y-73197168D01*
X92738548Y-73265911D01*
X92738554Y-73265911D01*
X92738562Y-73265913D01*
X92943206Y-73288970D01*
X93045529Y-73300499D01*
X93045532Y-73300500D01*
X93045535Y-73300500D01*
X93354468Y-73300500D01*
X93354469Y-73300499D01*
X93513128Y-73282623D01*
X93661437Y-73265913D01*
X93661442Y-73265912D01*
X93661452Y-73265911D01*
X93962636Y-73197168D01*
X94254229Y-73095135D01*
X94532565Y-72961095D01*
X94794143Y-72796735D01*
X95035674Y-72604120D01*
X95254120Y-72385674D01*
X95446735Y-72144143D01*
X95611095Y-71882565D01*
X95745135Y-71604229D01*
X95847168Y-71312636D01*
X95915911Y-71011452D01*
X95923248Y-70946340D01*
X95950499Y-70704471D01*
X95950500Y-70704467D01*
X95950500Y-70395532D01*
X95950499Y-70395528D01*
X95915913Y-70088562D01*
X95915910Y-70088544D01*
X95847168Y-69787364D01*
X95847164Y-69787352D01*
X95745137Y-69495777D01*
X95745135Y-69495771D01*
X95611095Y-69217435D01*
X95446735Y-68955857D01*
X95254120Y-68714326D01*
X95058076Y-68518282D01*
X95024591Y-68456959D01*
X95029575Y-68387267D01*
X95071447Y-68331334D01*
X95098304Y-68316039D01*
X95129535Y-68303104D01*
X95350965Y-68175261D01*
X95553813Y-68019610D01*
X95734610Y-67838813D01*
X95890261Y-67635965D01*
X96018104Y-67414535D01*
X96021135Y-67407219D01*
X96083041Y-67257762D01*
X96095476Y-67227740D01*
X96139316Y-67173337D01*
X96205610Y-67151272D01*
X96273310Y-67168551D01*
X96297718Y-67187512D01*
X96364326Y-67254120D01*
X96605857Y-67446735D01*
X96867435Y-67611095D01*
X97145771Y-67745135D01*
X97145777Y-67745137D01*
X97437352Y-67847164D01*
X97437364Y-67847168D01*
X97738548Y-67915911D01*
X97738554Y-67915911D01*
X97738562Y-67915913D01*
X97943206Y-67938970D01*
X98045529Y-67950499D01*
X98045532Y-67950500D01*
X98045535Y-67950500D01*
X98354468Y-67950500D01*
X98354469Y-67950499D01*
X98511356Y-67932822D01*
X98661437Y-67915913D01*
X98661442Y-67915912D01*
X98661452Y-67915911D01*
X98962636Y-67847168D01*
X99254229Y-67745135D01*
X99532565Y-67611095D01*
X99794143Y-67446735D01*
X100035674Y-67254120D01*
X100254120Y-67035674D01*
X100446735Y-66794143D01*
X100611095Y-66532565D01*
X100699240Y-66349531D01*
X100745133Y-66254234D01*
X100745137Y-66254222D01*
X100757011Y-66220290D01*
X100847168Y-65962636D01*
X100915911Y-65661452D01*
X100950500Y-65354465D01*
X100950500Y-65045535D01*
X100915911Y-64738548D01*
X100847168Y-64437364D01*
X100844948Y-64431021D01*
X100751799Y-64164815D01*
X100745135Y-64145771D01*
X100611095Y-63867435D01*
X100446735Y-63605857D01*
X100254120Y-63364326D01*
X100035674Y-63145880D01*
X99794143Y-62953265D01*
X99587413Y-62823368D01*
X99532562Y-62788903D01*
X99254236Y-62654868D01*
X99254222Y-62654862D01*
X98962647Y-62552835D01*
X98962635Y-62552831D01*
X98661455Y-62484089D01*
X98661437Y-62484086D01*
X98354471Y-62449500D01*
X98354465Y-62449500D01*
X98045535Y-62449500D01*
X98045528Y-62449500D01*
X97738562Y-62484086D01*
X97738544Y-62484089D01*
X97437364Y-62552831D01*
X97437352Y-62552835D01*
X97145777Y-62654862D01*
X97145763Y-62654868D01*
X96867437Y-62788903D01*
X96605858Y-62953264D01*
X96364326Y-63145879D01*
X96145879Y-63364326D01*
X95953264Y-63605858D01*
X95788905Y-63867434D01*
X95751599Y-63944898D01*
X95704775Y-63996757D01*
X95637348Y-64015068D01*
X95570725Y-63994019D01*
X95557096Y-63982804D01*
X95556866Y-63983067D01*
X95553811Y-63980388D01*
X95350973Y-63824745D01*
X95350971Y-63824743D01*
X95350965Y-63824739D01*
X95350960Y-63824736D01*
X95350957Y-63824734D01*
X95129542Y-63696899D01*
X95129531Y-63696894D01*
X94893322Y-63599053D01*
X94893315Y-63599051D01*
X94893313Y-63599050D01*
X94646340Y-63532874D01*
X94590007Y-63525457D01*
X94392850Y-63499500D01*
X94392843Y-63499500D01*
X94137157Y-63499500D01*
X94137149Y-63499500D01*
X93911826Y-63529165D01*
X93883660Y-63532874D01*
X93751366Y-63568322D01*
X93636687Y-63599050D01*
X93636677Y-63599053D01*
X93400471Y-63696893D01*
X93400455Y-63696900D01*
X93400062Y-63697128D01*
X93399930Y-63697159D01*
X93396830Y-63698689D01*
X93396487Y-63697994D01*
X93332159Y-63713590D01*
X93266136Y-63690727D01*
X93259718Y-63685833D01*
X93228409Y-63660304D01*
X93228410Y-63660304D01*
X93228407Y-63660302D01*
X93048049Y-63566091D01*
X93048048Y-63566090D01*
X93048045Y-63566089D01*
X92930829Y-63532550D01*
X92852418Y-63510114D01*
X92852415Y-63510113D01*
X92852413Y-63510113D01*
X92786102Y-63504217D01*
X92733037Y-63499500D01*
X92733032Y-63499500D01*
X90716971Y-63499500D01*
X90716965Y-63499500D01*
X90716964Y-63499501D01*
X90705316Y-63500536D01*
X90597584Y-63510113D01*
X90401952Y-63566090D01*
X90303399Y-63617570D01*
X90234864Y-63631161D01*
X90169861Y-63605542D01*
X90135504Y-63563957D01*
X90112287Y-63518389D01*
X89991966Y-63352781D01*
X88587219Y-61948034D01*
X88421611Y-61827713D01*
X88268601Y-61749751D01*
X88268601Y-61749750D01*
X88249377Y-61739956D01*
X88239219Y-61734780D01*
X88113136Y-61693813D01*
X88044535Y-61671523D01*
X88044532Y-61671522D01*
X88044530Y-61671521D01*
X88042776Y-61671244D01*
X88042163Y-61670953D01*
X88039795Y-61670385D01*
X88039914Y-61669887D01*
X87979643Y-61641311D01*
X87942715Y-61581998D01*
X87943717Y-61512135D01*
X87954794Y-61486771D01*
X87955254Y-61485973D01*
X87955261Y-61485965D01*
X88083104Y-61264535D01*
X88180950Y-61028313D01*
X88247126Y-60781340D01*
X88280500Y-60527843D01*
X88280500Y-60272157D01*
X88247126Y-60018660D01*
X88180950Y-59771687D01*
X88083104Y-59535465D01*
X88083102Y-59535462D01*
X88083100Y-59535457D01*
X87955265Y-59314042D01*
X87955261Y-59314035D01*
X87871967Y-59205485D01*
X87846774Y-59140318D01*
X87860812Y-59071873D01*
X87871964Y-59054517D01*
X87955261Y-58945965D01*
X88083104Y-58724535D01*
X88180950Y-58488313D01*
X88247126Y-58241340D01*
X88280500Y-57987843D01*
X88280500Y-57732157D01*
X88247126Y-57478660D01*
X88180950Y-57231687D01*
X88083104Y-56995465D01*
X88083102Y-56995462D01*
X88083100Y-56995457D01*
X87955265Y-56774042D01*
X87955261Y-56774035D01*
X87871967Y-56665485D01*
X87846774Y-56600318D01*
X87860812Y-56531873D01*
X87871964Y-56514517D01*
X87955261Y-56405965D01*
X88083104Y-56184535D01*
X88180950Y-55948313D01*
X88247126Y-55701340D01*
X88279014Y-55459128D01*
X88307281Y-55395232D01*
X88365605Y-55356761D01*
X88435470Y-55355930D01*
X88458249Y-55364830D01*
X88562389Y-55417893D01*
X88562396Y-55417896D01*
X88654566Y-55447843D01*
X88772049Y-55486015D01*
X88989778Y-55520500D01*
X88989779Y-55520500D01*
X89210221Y-55520500D01*
X89210222Y-55520500D01*
X89225792Y-55518034D01*
X108669500Y-55518034D01*
X108669500Y-55861965D01*
X108703210Y-56204249D01*
X108770308Y-56541572D01*
X108870150Y-56870706D01*
X109001770Y-57188464D01*
X109001772Y-57188469D01*
X109163893Y-57491775D01*
X109163904Y-57491793D01*
X109354975Y-57777751D01*
X109354985Y-57777765D01*
X109573176Y-58043632D01*
X109816367Y-58286823D01*
X109816372Y-58286827D01*
X109816373Y-58286828D01*
X110082240Y-58505019D01*
X110368213Y-58696100D01*
X110368222Y-58696105D01*
X110368224Y-58696106D01*
X110671530Y-58858227D01*
X110671532Y-58858227D01*
X110671538Y-58858231D01*
X110989295Y-58989850D01*
X111318422Y-59089690D01*
X111655750Y-59156789D01*
X111998031Y-59190500D01*
X111998034Y-59190500D01*
X112341966Y-59190500D01*
X112341969Y-59190500D01*
X112684250Y-59156789D01*
X113021578Y-59089690D01*
X113350705Y-58989850D01*
X113668462Y-58858231D01*
X113971787Y-58696100D01*
X114257760Y-58505019D01*
X114523627Y-58286828D01*
X114766828Y-58043627D01*
X114985019Y-57777760D01*
X115176100Y-57491787D01*
X115338231Y-57188462D01*
X115469850Y-56870705D01*
X115569690Y-56541578D01*
X115636789Y-56204250D01*
X115670500Y-55861969D01*
X115670500Y-55518031D01*
X115636789Y-55175750D01*
X115569690Y-54838422D01*
X115469850Y-54509295D01*
X115338231Y-54191538D01*
X115330213Y-54176538D01*
X115176106Y-53888224D01*
X115176105Y-53888222D01*
X115176100Y-53888213D01*
X114985019Y-53602240D01*
X114766828Y-53336373D01*
X114766827Y-53336372D01*
X114766823Y-53336367D01*
X114523632Y-53093176D01*
X114257765Y-52874985D01*
X114257764Y-52874984D01*
X114257760Y-52874981D01*
X113971787Y-52683900D01*
X113971782Y-52683897D01*
X113971775Y-52683893D01*
X113668469Y-52521772D01*
X113668464Y-52521770D01*
X113632248Y-52506769D01*
X113383324Y-52403661D01*
X113350706Y-52390150D01*
X113021572Y-52290308D01*
X112684248Y-52223210D01*
X112684249Y-52223210D01*
X112426456Y-52197821D01*
X112341969Y-52189500D01*
X111998031Y-52189500D01*
X111919966Y-52197188D01*
X111655750Y-52223210D01*
X111318427Y-52290308D01*
X110989293Y-52390150D01*
X110671535Y-52521770D01*
X110671530Y-52521772D01*
X110368224Y-52683893D01*
X110368206Y-52683904D01*
X110082248Y-52874975D01*
X110082234Y-52874985D01*
X109816367Y-53093176D01*
X109573176Y-53336367D01*
X109354985Y-53602234D01*
X109354975Y-53602248D01*
X109163904Y-53888206D01*
X109163893Y-53888224D01*
X109001772Y-54191530D01*
X109001770Y-54191535D01*
X108870150Y-54509293D01*
X108770308Y-54838427D01*
X108703210Y-55175750D01*
X108679362Y-55417895D01*
X108670978Y-55503031D01*
X108669500Y-55518034D01*
X89225792Y-55518034D01*
X89427951Y-55486015D01*
X89637606Y-55417895D01*
X89637606Y-55417894D01*
X89637611Y-55417893D01*
X89663890Y-55404503D01*
X89663891Y-55404502D01*
X89682084Y-55395232D01*
X89834022Y-55317815D01*
X90012365Y-55188242D01*
X90168242Y-55032365D01*
X90297815Y-54854022D01*
X90397895Y-54657606D01*
X90466015Y-54447951D01*
X90500500Y-54230222D01*
X90500500Y-54009778D01*
X90466015Y-53792049D01*
X90406568Y-53609089D01*
X90400500Y-53570772D01*
X90400500Y-42685883D01*
X97090000Y-42685883D01*
X97090000Y-43100000D01*
X98106988Y-43100000D01*
X98074075Y-43157007D01*
X98040000Y-43284174D01*
X98040000Y-43415826D01*
X98074075Y-43542993D01*
X98106988Y-43600000D01*
X97090000Y-43600000D01*
X97090000Y-44014116D01*
X97125704Y-44239544D01*
X97196230Y-44456604D01*
X97299849Y-44659966D01*
X97434004Y-44844614D01*
X97595385Y-45005995D01*
X97780033Y-45140150D01*
X97983395Y-45243769D01*
X98200455Y-45314295D01*
X98290000Y-45328478D01*
X98290000Y-43783012D01*
X98347007Y-43815925D01*
X98474174Y-43850000D01*
X98605826Y-43850000D01*
X98732993Y-43815925D01*
X98790000Y-43783012D01*
X98790000Y-45328477D01*
X98879541Y-45314296D01*
X99091213Y-45245519D01*
X99161054Y-45243524D01*
X99220887Y-45279604D01*
X99239440Y-45306038D01*
X99251162Y-45328478D01*
X99290302Y-45403407D01*
X99290304Y-45403409D01*
X99418890Y-45561109D01*
X99512803Y-45637684D01*
X99576593Y-45689698D01*
X99756951Y-45783909D01*
X99952582Y-45839886D01*
X100071963Y-45850500D01*
X102088036Y-45850499D01*
X102207418Y-45839886D01*
X102403049Y-45783909D01*
X102583407Y-45689698D01*
X102741109Y-45561109D01*
X102869698Y-45403407D01*
X102963909Y-45223049D01*
X103019886Y-45027418D01*
X103030500Y-44908037D01*
X103030499Y-41791964D01*
X103019886Y-41672582D01*
X102963909Y-41476951D01*
X102869698Y-41296593D01*
X102788725Y-41197287D01*
X102741109Y-41138890D01*
X102583409Y-41010304D01*
X102583410Y-41010304D01*
X102583407Y-41010302D01*
X102403049Y-40916091D01*
X102403048Y-40916090D01*
X102403045Y-40916089D01*
X102285829Y-40882550D01*
X102207418Y-40860114D01*
X102207415Y-40860113D01*
X102207413Y-40860113D01*
X102141102Y-40854217D01*
X102088037Y-40849500D01*
X102088032Y-40849500D01*
X100071971Y-40849500D01*
X100071965Y-40849500D01*
X100071964Y-40849501D01*
X100060316Y-40850536D01*
X99952584Y-40860113D01*
X99756954Y-40916089D01*
X99726077Y-40932218D01*
X99576593Y-41010302D01*
X99576591Y-41010303D01*
X99576590Y-41010304D01*
X99418890Y-41138890D01*
X99290302Y-41296593D01*
X99290300Y-41296595D01*
X99239441Y-41393960D01*
X99190955Y-41444267D01*
X99122967Y-41460374D01*
X99091216Y-41454479D01*
X98879541Y-41385703D01*
X98790000Y-41371521D01*
X98790000Y-42916988D01*
X98732993Y-42884075D01*
X98605826Y-42850000D01*
X98474174Y-42850000D01*
X98347007Y-42884075D01*
X98290000Y-42916988D01*
X98290000Y-41371521D01*
X98289999Y-41371521D01*
X98200458Y-41385703D01*
X97983397Y-41456229D01*
X97780033Y-41559849D01*
X97595385Y-41694004D01*
X97434004Y-41855385D01*
X97299849Y-42040033D01*
X97196230Y-42243395D01*
X97125704Y-42460455D01*
X97090000Y-42685883D01*
X90400500Y-42685883D01*
X90400500Y-40207648D01*
X90373718Y-40038557D01*
X90368477Y-40005466D01*
X90352961Y-39957713D01*
X90344480Y-39931611D01*
X90315117Y-39841237D01*
X90313122Y-39771396D01*
X90345366Y-39715240D01*
X90398242Y-39662365D01*
X90398244Y-39662361D01*
X90400367Y-39660239D01*
X90461690Y-39626754D01*
X90531382Y-39631738D01*
X90587315Y-39673610D01*
X90608939Y-39720328D01*
X90652831Y-39912635D01*
X90652835Y-39912647D01*
X90754862Y-40204222D01*
X90754868Y-40204236D01*
X90888903Y-40482562D01*
X90888905Y-40482565D01*
X91053265Y-40744143D01*
X91245880Y-40985674D01*
X91464326Y-41204120D01*
X91705857Y-41396735D01*
X91967435Y-41561095D01*
X92245771Y-41695135D01*
X92245777Y-41695137D01*
X92537352Y-41797164D01*
X92537364Y-41797168D01*
X92838548Y-41865911D01*
X92838554Y-41865911D01*
X92838562Y-41865913D01*
X93043206Y-41888970D01*
X93145529Y-41900499D01*
X93145532Y-41900500D01*
X93145535Y-41900500D01*
X93454468Y-41900500D01*
X93454469Y-41900499D01*
X93611356Y-41882822D01*
X93761437Y-41865913D01*
X93761442Y-41865912D01*
X93761452Y-41865911D01*
X94062636Y-41797168D01*
X94354229Y-41695135D01*
X94632565Y-41561095D01*
X94894143Y-41396735D01*
X95135674Y-41204120D01*
X95354120Y-40985674D01*
X95546735Y-40744143D01*
X95711095Y-40482565D01*
X95845135Y-40204229D01*
X95947168Y-39912636D01*
X96015911Y-39611452D01*
X96019323Y-39581175D01*
X96045104Y-39352352D01*
X96050500Y-39304465D01*
X96050500Y-38995535D01*
X96034284Y-38851610D01*
X96015913Y-38688562D01*
X96015910Y-38688544D01*
X95947168Y-38387364D01*
X95947164Y-38387352D01*
X95845137Y-38095777D01*
X95845135Y-38095771D01*
X95711095Y-37817435D01*
X95546735Y-37555857D01*
X95354120Y-37314326D01*
X95135674Y-37095880D01*
X95131301Y-37092393D01*
X95055278Y-37031766D01*
X94894143Y-36903265D01*
X94632565Y-36738905D01*
X94632562Y-36738903D01*
X94354236Y-36604868D01*
X94354222Y-36604862D01*
X94173261Y-36541541D01*
X94116485Y-36500820D01*
X94090738Y-36435867D01*
X94104194Y-36367305D01*
X94152582Y-36316903D01*
X94214216Y-36300500D01*
X96102351Y-36300500D01*
X96102352Y-36300500D01*
X96304535Y-36268477D01*
X96401876Y-36236848D01*
X96499219Y-36205220D01*
X96642101Y-36132418D01*
X96681611Y-36112287D01*
X96847219Y-35991966D01*
X99271966Y-33567219D01*
X99392287Y-33401611D01*
X99460122Y-33268477D01*
X99485220Y-33219219D01*
X99535292Y-33065114D01*
X99548477Y-33024535D01*
X99580500Y-32822352D01*
X99580500Y-32617648D01*
X99580500Y-30320812D01*
X99600185Y-30253773D01*
X99647085Y-30210906D01*
X99783407Y-30139698D01*
X99941109Y-30011109D01*
X100069698Y-29853407D01*
X100163909Y-29673049D01*
X100219886Y-29477418D01*
X100230500Y-29358037D01*
X100230499Y-27341964D01*
X100219886Y-27222582D01*
X100163909Y-27026951D01*
X100069698Y-26846593D01*
X99997485Y-26758031D01*
X99941109Y-26688890D01*
X99828286Y-26596896D01*
X99783407Y-26560302D01*
X99783405Y-26560301D01*
X99782294Y-26559395D01*
X99782053Y-26559044D01*
X99777737Y-26557340D01*
X99630090Y-26480216D01*
X99603049Y-26466091D01*
X99603048Y-26466090D01*
X99603047Y-26466090D01*
X99519370Y-26442147D01*
X99407418Y-26410114D01*
X99407415Y-26410113D01*
X99407413Y-26410113D01*
X99341102Y-26404217D01*
X99288037Y-26399500D01*
X99288032Y-26399500D01*
X97271971Y-26399500D01*
X97271965Y-26399500D01*
X97271964Y-26399501D01*
X97260316Y-26400536D01*
X97152584Y-26410113D01*
X96956954Y-26466089D01*
X96941507Y-26474158D01*
X96776593Y-26560302D01*
X96776591Y-26560303D01*
X96776590Y-26560304D01*
X96618890Y-26688890D01*
X96490302Y-26846593D01*
X96490300Y-26846595D01*
X96439441Y-26943960D01*
X96390955Y-26994267D01*
X96322967Y-27010374D01*
X96291216Y-27004479D01*
X96079541Y-26935703D01*
X95990000Y-26921521D01*
X95990000Y-27916988D01*
X95932993Y-27884075D01*
X95805826Y-27850000D01*
X95674174Y-27850000D01*
X95547007Y-27884075D01*
X95490000Y-27916988D01*
X95490000Y-26921521D01*
X95489999Y-26921521D01*
X95400458Y-26935703D01*
X95183397Y-27006229D01*
X94980034Y-27109848D01*
X94902423Y-27166236D01*
X94836616Y-27189715D01*
X94768562Y-27173889D01*
X94731162Y-27141403D01*
X94669611Y-27061188D01*
X94669605Y-27061181D01*
X94488818Y-26880394D01*
X94488811Y-26880388D01*
X94285973Y-26724745D01*
X94285971Y-26724743D01*
X94285965Y-26724739D01*
X94285960Y-26724736D01*
X94285957Y-26724734D01*
X94064542Y-26596899D01*
X94064531Y-26596894D01*
X93828322Y-26499053D01*
X93828315Y-26499051D01*
X93828313Y-26499050D01*
X93581340Y-26432874D01*
X93525007Y-26425457D01*
X93327850Y-26399500D01*
X93327843Y-26399500D01*
X93072157Y-26399500D01*
X93072149Y-26399500D01*
X92846826Y-26429165D01*
X92818660Y-26432874D01*
X92665754Y-26473845D01*
X92571687Y-26499050D01*
X92571677Y-26499053D01*
X92335468Y-26596894D01*
X92335457Y-26596899D01*
X92114042Y-26724734D01*
X92114026Y-26724745D01*
X92005486Y-26808031D01*
X91940317Y-26833225D01*
X91871872Y-26819187D01*
X91854514Y-26808031D01*
X91745973Y-26724745D01*
X91745971Y-26724743D01*
X91745965Y-26724739D01*
X91745960Y-26724736D01*
X91745957Y-26724734D01*
X91524542Y-26596899D01*
X91524531Y-26596894D01*
X91288322Y-26499053D01*
X91288315Y-26499051D01*
X91288313Y-26499050D01*
X91041340Y-26432874D01*
X90985007Y-26425457D01*
X90787850Y-26399500D01*
X90787843Y-26399500D01*
X90532157Y-26399500D01*
X90532149Y-26399500D01*
X90306826Y-26429165D01*
X90278660Y-26432874D01*
X90125754Y-26473845D01*
X90031687Y-26499050D01*
X90031677Y-26499053D01*
X89795468Y-26596894D01*
X89795457Y-26596899D01*
X89574042Y-26724734D01*
X89574026Y-26724745D01*
X89465486Y-26808031D01*
X89400317Y-26833225D01*
X89331872Y-26819187D01*
X89314514Y-26808031D01*
X89205973Y-26724745D01*
X89205971Y-26724743D01*
X89205965Y-26724739D01*
X89205960Y-26724736D01*
X89205957Y-26724734D01*
X88984542Y-26596899D01*
X88984531Y-26596894D01*
X88748322Y-26499053D01*
X88748315Y-26499051D01*
X88748313Y-26499050D01*
X88501340Y-26432874D01*
X88445007Y-26425457D01*
X88247850Y-26399500D01*
X88247843Y-26399500D01*
X87992157Y-26399500D01*
X87992149Y-26399500D01*
X87766826Y-26429165D01*
X87738660Y-26432874D01*
X87585754Y-26473845D01*
X87491687Y-26499050D01*
X87491677Y-26499053D01*
X87255468Y-26596894D01*
X87255457Y-26596899D01*
X87034042Y-26724734D01*
X87034026Y-26724745D01*
X86925486Y-26808031D01*
X86860317Y-26833225D01*
X86791872Y-26819187D01*
X86774514Y-26808031D01*
X86665973Y-26724745D01*
X86665971Y-26724743D01*
X86665965Y-26724739D01*
X86665960Y-26724736D01*
X86665957Y-26724734D01*
X86444542Y-26596899D01*
X86444531Y-26596894D01*
X86208322Y-26499053D01*
X86208315Y-26499051D01*
X86208313Y-26499050D01*
X85961340Y-26432874D01*
X85905007Y-26425457D01*
X85707850Y-26399500D01*
X85707843Y-26399500D01*
X85452157Y-26399500D01*
X85452149Y-26399500D01*
X85226826Y-26429165D01*
X85198660Y-26432874D01*
X85045754Y-26473845D01*
X84951687Y-26499050D01*
X84951677Y-26499053D01*
X84715468Y-26596894D01*
X84715457Y-26596899D01*
X84494042Y-26724734D01*
X84494026Y-26724745D01*
X84385486Y-26808031D01*
X84320317Y-26833225D01*
X84251872Y-26819187D01*
X84234514Y-26808031D01*
X84125973Y-26724745D01*
X84125971Y-26724743D01*
X84125965Y-26724739D01*
X84125960Y-26724736D01*
X84125957Y-26724734D01*
X83904542Y-26596899D01*
X83904531Y-26596894D01*
X83668322Y-26499053D01*
X83668315Y-26499051D01*
X83668313Y-26499050D01*
X83421340Y-26432874D01*
X83365007Y-26425457D01*
X83167850Y-26399500D01*
X83167843Y-26399500D01*
X82912157Y-26399500D01*
X82912149Y-26399500D01*
X82686826Y-26429165D01*
X82658660Y-26432874D01*
X82505754Y-26473845D01*
X82411687Y-26499050D01*
X82411677Y-26499053D01*
X82175468Y-26596894D01*
X82175457Y-26596899D01*
X81954042Y-26724734D01*
X81954026Y-26724745D01*
X81845486Y-26808031D01*
X81780317Y-26833225D01*
X81711872Y-26819187D01*
X81694514Y-26808031D01*
X81585973Y-26724745D01*
X81585971Y-26724743D01*
X81585965Y-26724739D01*
X81585960Y-26724736D01*
X81585957Y-26724734D01*
X81364542Y-26596899D01*
X81364531Y-26596894D01*
X81128322Y-26499053D01*
X81128315Y-26499051D01*
X81128313Y-26499050D01*
X80881340Y-26432874D01*
X80825007Y-26425457D01*
X80627850Y-26399500D01*
X80627843Y-26399500D01*
X80372157Y-26399500D01*
X80372149Y-26399500D01*
X80146826Y-26429165D01*
X80118660Y-26432874D01*
X79965754Y-26473845D01*
X79871687Y-26499050D01*
X79871677Y-26499053D01*
X79635468Y-26596894D01*
X79635457Y-26596899D01*
X79414042Y-26724734D01*
X79414026Y-26724745D01*
X79211188Y-26880388D01*
X79211181Y-26880394D01*
X79030394Y-27061181D01*
X79030388Y-27061188D01*
X78874745Y-27264026D01*
X78874735Y-27264041D01*
X78836819Y-27329712D01*
X78786251Y-27377927D01*
X78717644Y-27391148D01*
X78652780Y-27365179D01*
X78622046Y-27329710D01*
X78555261Y-27214035D01*
X78437977Y-27061188D01*
X78399611Y-27011188D01*
X78399605Y-27011181D01*
X78218818Y-26830394D01*
X78218811Y-26830388D01*
X78015973Y-26674745D01*
X78015971Y-26674743D01*
X78015965Y-26674739D01*
X78015960Y-26674736D01*
X78015957Y-26674734D01*
X77794542Y-26546899D01*
X77794531Y-26546894D01*
X77558322Y-26449053D01*
X77558315Y-26449051D01*
X77558313Y-26449050D01*
X77311340Y-26382874D01*
X77255007Y-26375457D01*
X77057850Y-26349500D01*
X77057843Y-26349500D01*
X76802157Y-26349500D01*
X76802149Y-26349500D01*
X76576826Y-26379165D01*
X76548660Y-26382874D01*
X76362057Y-26432874D01*
X76301687Y-26449050D01*
X76301677Y-26449053D01*
X76065468Y-26546894D01*
X76065457Y-26546899D01*
X75844042Y-26674734D01*
X75844026Y-26674745D01*
X75735486Y-26758031D01*
X75670317Y-26783225D01*
X75601872Y-26769187D01*
X75584514Y-26758031D01*
X75475973Y-26674745D01*
X75475971Y-26674743D01*
X75475965Y-26674739D01*
X75475960Y-26674736D01*
X75475957Y-26674734D01*
X75254542Y-26546899D01*
X75254531Y-26546894D01*
X75018322Y-26449053D01*
X75018315Y-26449051D01*
X75018313Y-26449050D01*
X74771340Y-26382874D01*
X74715007Y-26375457D01*
X74517850Y-26349500D01*
X74517843Y-26349500D01*
X74262157Y-26349500D01*
X74262149Y-26349500D01*
X74036826Y-26379165D01*
X74008660Y-26382874D01*
X73822057Y-26432874D01*
X73761687Y-26449050D01*
X73761677Y-26449053D01*
X73525468Y-26546894D01*
X73525457Y-26546899D01*
X73304042Y-26674734D01*
X73304026Y-26674745D01*
X73195486Y-26758031D01*
X73130317Y-26783225D01*
X73061872Y-26769187D01*
X73044514Y-26758031D01*
X72935973Y-26674745D01*
X72935971Y-26674743D01*
X72935965Y-26674739D01*
X72935960Y-26674736D01*
X72935957Y-26674734D01*
X72714542Y-26546899D01*
X72714531Y-26546894D01*
X72478322Y-26449053D01*
X72478315Y-26449051D01*
X72478313Y-26449050D01*
X72231340Y-26382874D01*
X72175007Y-26375457D01*
X71977850Y-26349500D01*
X71977843Y-26349500D01*
X71722157Y-26349500D01*
X71722149Y-26349500D01*
X71496826Y-26379165D01*
X71468660Y-26382874D01*
X71282057Y-26432874D01*
X71221687Y-26449050D01*
X71221677Y-26449053D01*
X70985468Y-26546894D01*
X70985457Y-26546899D01*
X70764042Y-26674734D01*
X70764026Y-26674745D01*
X70655486Y-26758031D01*
X70590317Y-26783225D01*
X70521872Y-26769187D01*
X70504514Y-26758031D01*
X70395973Y-26674745D01*
X70395971Y-26674743D01*
X70395965Y-26674739D01*
X70395960Y-26674736D01*
X70395957Y-26674734D01*
X70174542Y-26546899D01*
X70174531Y-26546894D01*
X69938322Y-26449053D01*
X69938315Y-26449051D01*
X69938313Y-26449050D01*
X69691340Y-26382874D01*
X69635007Y-26375457D01*
X69437850Y-26349500D01*
X69437843Y-26349500D01*
X69182157Y-26349500D01*
X69182149Y-26349500D01*
X68956826Y-26379165D01*
X68928660Y-26382874D01*
X68742057Y-26432874D01*
X68681687Y-26449050D01*
X68681677Y-26449053D01*
X68445468Y-26546894D01*
X68445457Y-26546899D01*
X68224042Y-26674734D01*
X68224026Y-26674745D01*
X68115486Y-26758031D01*
X68050317Y-26783225D01*
X67981872Y-26769187D01*
X67964514Y-26758031D01*
X67855973Y-26674745D01*
X67855971Y-26674743D01*
X67855965Y-26674739D01*
X67855960Y-26674736D01*
X67855957Y-26674734D01*
X67634542Y-26546899D01*
X67634531Y-26546894D01*
X67398322Y-26449053D01*
X67398315Y-26449051D01*
X67398313Y-26449050D01*
X67151340Y-26382874D01*
X67095007Y-26375457D01*
X66897850Y-26349500D01*
X66897843Y-26349500D01*
X66642157Y-26349500D01*
X66642149Y-26349500D01*
X66416826Y-26379165D01*
X66388660Y-26382874D01*
X66202057Y-26432874D01*
X66141687Y-26449050D01*
X66141677Y-26449053D01*
X65905471Y-26546893D01*
X65905455Y-26546900D01*
X65905062Y-26547128D01*
X65904930Y-26547159D01*
X65901830Y-26548689D01*
X65901487Y-26547994D01*
X65837159Y-26563590D01*
X65771136Y-26540727D01*
X65764718Y-26535833D01*
X65733409Y-26510304D01*
X65733410Y-26510304D01*
X65733407Y-26510302D01*
X65553049Y-26416091D01*
X65553048Y-26416090D01*
X65553045Y-26416089D01*
X65435829Y-26382550D01*
X65357418Y-26360114D01*
X65357415Y-26360113D01*
X65357413Y-26360113D01*
X65291102Y-26354217D01*
X65238037Y-26349500D01*
X65238032Y-26349500D01*
X63221971Y-26349500D01*
X63221965Y-26349500D01*
X63221964Y-26349501D01*
X63210316Y-26350536D01*
X63102584Y-26360113D01*
X62970162Y-26398004D01*
X62900294Y-26397521D01*
X62841779Y-26359341D01*
X62813194Y-26295586D01*
X62823615Y-26226498D01*
X62869734Y-26174012D01*
X62870288Y-26173663D01*
X63315240Y-25896974D01*
X63317113Y-25895837D01*
X63497587Y-25788898D01*
X63498302Y-25788480D01*
X64311812Y-25318800D01*
X64314004Y-25317567D01*
X64478675Y-25227403D01*
X64479174Y-25227133D01*
X65327611Y-24773633D01*
X65330040Y-24772372D01*
X65470262Y-24701674D01*
X65470740Y-24701435D01*
X66361520Y-24262151D01*
X66364233Y-24260855D01*
X66467322Y-24213198D01*
X66467624Y-24213059D01*
X67412338Y-23785015D01*
X67415178Y-23783773D01*
X67462099Y-23763987D01*
X67462212Y-23763939D01*
X68472209Y-23345584D01*
X68475930Y-23344114D01*
X69536819Y-22944824D01*
X69540597Y-22943472D01*
X70614020Y-22579094D01*
X70617767Y-22577890D01*
X71702598Y-22248810D01*
X71706392Y-22247727D01*
X72680305Y-21986768D01*
X72801328Y-21954340D01*
X72805244Y-21953358D01*
X73909242Y-21695942D01*
X73913079Y-21695114D01*
X75024866Y-21473966D01*
X75028786Y-21473252D01*
X76147252Y-21288593D01*
X76151201Y-21288007D01*
X77275080Y-21140046D01*
X77278998Y-21139595D01*
X78407107Y-21028486D01*
X78411135Y-21028155D01*
X79520209Y-20955463D01*
X79520426Y-20955450D01*
X79548070Y-20953805D01*
X79551238Y-20953658D01*
X80603306Y-20919216D01*
X80603603Y-20919208D01*
X80699365Y-20916768D01*
X80701809Y-20916706D01*
X80704966Y-20916666D01*
X81708679Y-20916666D01*
X81709731Y-20916670D01*
G37*
%TD.AperFunction*%
%TA.AperFunction,Conductor*%
G36*
X77518834Y-42422864D02*
G01*
X77574767Y-42464736D01*
X77599184Y-42530200D01*
X77599500Y-42539046D01*
X77599500Y-44402351D01*
X77631522Y-44604535D01*
X77649534Y-44659966D01*
X77651423Y-44665781D01*
X77694780Y-44799219D01*
X77725987Y-44860466D01*
X77728889Y-44866162D01*
X77728892Y-44866169D01*
X77787711Y-44981609D01*
X77830787Y-45040897D01*
X77908034Y-45147219D01*
X81452781Y-48691966D01*
X81618389Y-48812287D01*
X81681645Y-48844517D01*
X81800780Y-48905220D01*
X81800786Y-48905222D01*
X81851147Y-48921584D01*
X81898121Y-48936847D01*
X81898122Y-48936848D01*
X81913511Y-48941848D01*
X81995465Y-48968477D01*
X82197648Y-49000500D01*
X82402352Y-49000500D01*
X83677648Y-49000500D01*
X84797648Y-49000500D01*
X84820715Y-49000500D01*
X84887754Y-49020185D01*
X84908391Y-49036814D01*
X85030603Y-49159026D01*
X85041189Y-49169612D01*
X85121403Y-49231162D01*
X85162606Y-49287590D01*
X85166761Y-49357336D01*
X85146236Y-49402423D01*
X85089848Y-49480034D01*
X84986230Y-49683395D01*
X84915704Y-49900455D01*
X84901522Y-49990000D01*
X85896988Y-49990000D01*
X85864075Y-50047007D01*
X85830000Y-50174174D01*
X85830000Y-50305826D01*
X85864075Y-50432993D01*
X85896988Y-50490000D01*
X84901522Y-50490000D01*
X84915704Y-50579544D01*
X84986230Y-50796604D01*
X85089851Y-50999969D01*
X85146235Y-51077576D01*
X85169715Y-51143382D01*
X85153889Y-51211436D01*
X85121405Y-51248836D01*
X85041179Y-51310396D01*
X85041178Y-51310398D01*
X84860394Y-51491181D01*
X84860388Y-51491188D01*
X84704745Y-51694026D01*
X84704734Y-51694042D01*
X84576899Y-51915457D01*
X84576894Y-51915468D01*
X84479053Y-52151677D01*
X84479050Y-52151687D01*
X84419174Y-52375150D01*
X84412874Y-52398661D01*
X84379500Y-52652149D01*
X84379500Y-52907850D01*
X84401925Y-53078176D01*
X84412874Y-53161340D01*
X84459774Y-53336373D01*
X84479050Y-53408312D01*
X84479053Y-53408322D01*
X84576894Y-53644531D01*
X84576899Y-53644542D01*
X84704734Y-53865957D01*
X84704745Y-53865973D01*
X84788031Y-53974514D01*
X84813225Y-54039683D01*
X84799187Y-54108128D01*
X84788031Y-54125486D01*
X84704745Y-54234026D01*
X84704734Y-54234042D01*
X84576899Y-54455457D01*
X84576894Y-54455468D01*
X84479053Y-54691677D01*
X84479050Y-54691687D01*
X84443751Y-54823427D01*
X84412874Y-54938661D01*
X84379500Y-55192149D01*
X84379500Y-55447850D01*
X84405457Y-55645007D01*
X84412874Y-55701340D01*
X84479050Y-55948312D01*
X84479053Y-55948322D01*
X84576894Y-56184531D01*
X84576899Y-56184542D01*
X84704734Y-56405957D01*
X84704745Y-56405973D01*
X84788031Y-56514514D01*
X84813225Y-56579683D01*
X84799187Y-56648128D01*
X84788031Y-56665486D01*
X84704745Y-56774026D01*
X84704734Y-56774042D01*
X84576899Y-56995457D01*
X84576894Y-56995468D01*
X84479053Y-57231677D01*
X84479050Y-57231687D01*
X84413375Y-57476793D01*
X84412874Y-57478661D01*
X84379500Y-57732149D01*
X84379500Y-57987850D01*
X84405457Y-58185007D01*
X84412874Y-58241340D01*
X84465786Y-58438811D01*
X84479050Y-58488312D01*
X84479053Y-58488322D01*
X84576894Y-58724531D01*
X84576899Y-58724542D01*
X84704734Y-58945957D01*
X84704745Y-58945973D01*
X84788031Y-59054514D01*
X84813225Y-59119683D01*
X84799187Y-59188128D01*
X84788031Y-59205486D01*
X84704745Y-59314026D01*
X84704734Y-59314042D01*
X84576899Y-59535457D01*
X84576894Y-59535468D01*
X84479053Y-59771677D01*
X84479050Y-59771687D01*
X84412874Y-60018661D01*
X84379500Y-60272149D01*
X84379500Y-60527850D01*
X84403234Y-60708120D01*
X84412874Y-60781340D01*
X84479050Y-61028312D01*
X84479053Y-61028322D01*
X84576894Y-61264531D01*
X84576899Y-61264542D01*
X84704734Y-61485957D01*
X84704745Y-61485973D01*
X84788031Y-61594514D01*
X84813225Y-61659683D01*
X84799187Y-61728128D01*
X84788031Y-61745486D01*
X84704745Y-61854026D01*
X84704734Y-61854042D01*
X84576899Y-62075457D01*
X84576894Y-62075468D01*
X84479053Y-62311677D01*
X84479050Y-62311687D01*
X84412874Y-62558660D01*
X84411515Y-62568982D01*
X84379500Y-62812149D01*
X84379500Y-63067850D01*
X84405457Y-63265007D01*
X84412874Y-63321340D01*
X84478455Y-63566091D01*
X84479050Y-63568312D01*
X84479053Y-63568322D01*
X84576894Y-63804531D01*
X84576899Y-63804542D01*
X84685995Y-63993500D01*
X84702468Y-64061400D01*
X84679616Y-64127427D01*
X84624694Y-64170618D01*
X84578608Y-64179500D01*
X82417648Y-64179500D01*
X82393329Y-64183351D01*
X82215465Y-64211522D01*
X82020776Y-64274781D01*
X81838386Y-64367715D01*
X81734299Y-64443339D01*
X81734298Y-64443340D01*
X81672784Y-64488030D01*
X80608036Y-65552778D01*
X80487716Y-65718384D01*
X80487714Y-65718387D01*
X80454011Y-65784534D01*
X80394781Y-65900777D01*
X80394780Y-65900781D01*
X80382413Y-65938842D01*
X80374682Y-65962635D01*
X80331522Y-66095467D01*
X80331522Y-66095468D01*
X80319868Y-66169050D01*
X80299500Y-66297648D01*
X80299500Y-81700953D01*
X80279815Y-81767992D01*
X80227011Y-81813747D01*
X80157853Y-81823691D01*
X80094297Y-81794666D01*
X80087819Y-81788634D01*
X71729422Y-73430237D01*
X71695937Y-73368914D01*
X71700921Y-73299222D01*
X71742793Y-73243289D01*
X71808257Y-73218872D01*
X71844691Y-73221664D01*
X72038548Y-73265911D01*
X72038557Y-73265912D01*
X72038562Y-73265913D01*
X72243206Y-73288970D01*
X72345529Y-73300499D01*
X72345532Y-73300500D01*
X72345535Y-73300500D01*
X72654468Y-73300500D01*
X72654469Y-73300499D01*
X72813128Y-73282623D01*
X72961437Y-73265913D01*
X72961442Y-73265912D01*
X72961452Y-73265911D01*
X73262636Y-73197168D01*
X73554229Y-73095135D01*
X73832565Y-72961095D01*
X74094143Y-72796735D01*
X74335674Y-72604120D01*
X74554120Y-72385674D01*
X74746735Y-72144143D01*
X74911095Y-71882565D01*
X75045135Y-71604229D01*
X75147168Y-71312636D01*
X75215911Y-71011452D01*
X75223248Y-70946340D01*
X75250499Y-70704471D01*
X75250500Y-70704467D01*
X75250500Y-70395532D01*
X75250499Y-70395528D01*
X75215913Y-70088562D01*
X75215910Y-70088544D01*
X75147168Y-69787364D01*
X75147164Y-69787352D01*
X75045137Y-69495777D01*
X75045135Y-69495771D01*
X74911095Y-69217435D01*
X74746735Y-68955857D01*
X74554120Y-68714326D01*
X74335674Y-68495880D01*
X74297562Y-68465487D01*
X74199478Y-68387267D01*
X74094143Y-68303265D01*
X73832565Y-68138905D01*
X73832562Y-68138903D01*
X73554236Y-68004868D01*
X73554222Y-68004862D01*
X73262647Y-67902835D01*
X73262635Y-67902831D01*
X72961455Y-67834089D01*
X72961437Y-67834086D01*
X72654471Y-67799500D01*
X72654465Y-67799500D01*
X72345535Y-67799500D01*
X72345528Y-67799500D01*
X72038562Y-67834086D01*
X72038544Y-67834089D01*
X71737364Y-67902831D01*
X71737352Y-67902835D01*
X71445777Y-68004862D01*
X71445763Y-68004868D01*
X71167437Y-68138903D01*
X70905858Y-68303264D01*
X70664326Y-68495879D01*
X70445879Y-68714326D01*
X70253264Y-68955858D01*
X70088903Y-69217437D01*
X69954868Y-69495763D01*
X69954862Y-69495777D01*
X69852835Y-69787352D01*
X69852831Y-69787364D01*
X69784089Y-70088544D01*
X69784086Y-70088562D01*
X69749500Y-70395528D01*
X69749500Y-70704471D01*
X69784086Y-71011437D01*
X69784089Y-71011455D01*
X69828334Y-71205304D01*
X69824061Y-71275043D01*
X69782762Y-71331400D01*
X69717550Y-71356483D01*
X69649129Y-71342329D01*
X69619762Y-71320577D01*
X69006819Y-70707634D01*
X68973334Y-70646311D01*
X68970500Y-70619953D01*
X68970500Y-66837648D01*
X68942735Y-66662352D01*
X68938477Y-66635466D01*
X68919153Y-66575992D01*
X68875221Y-66440782D01*
X68875221Y-66440781D01*
X68782284Y-66258385D01*
X68754606Y-66220290D01*
X68754604Y-66220288D01*
X68661971Y-66092787D01*
X68661968Y-66092784D01*
X68661966Y-66092781D01*
X68517219Y-65948034D01*
X68517218Y-65948033D01*
X68514107Y-65944922D01*
X68514092Y-65944908D01*
X67789705Y-65220521D01*
X67062219Y-64493034D01*
X66896611Y-64372713D01*
X66805414Y-64326246D01*
X66714219Y-64279780D01*
X66573277Y-64233985D01*
X66519535Y-64216523D01*
X66519532Y-64216522D01*
X66361264Y-64191455D01*
X66317352Y-64184500D01*
X66317351Y-64184500D01*
X65181392Y-64184500D01*
X65114353Y-64164815D01*
X65068598Y-64112011D01*
X65058654Y-64042853D01*
X65074005Y-63998500D01*
X65183100Y-63809542D01*
X65183100Y-63809541D01*
X65183104Y-63809535D01*
X65280950Y-63573313D01*
X65347126Y-63326340D01*
X65380500Y-63072843D01*
X65380500Y-62817157D01*
X65347126Y-62563660D01*
X65280950Y-62316687D01*
X65183104Y-62080465D01*
X65183102Y-62080462D01*
X65183100Y-62080457D01*
X65055265Y-61859042D01*
X65055261Y-61859035D01*
X64971967Y-61750485D01*
X64946774Y-61685318D01*
X64960812Y-61616873D01*
X64971964Y-61599517D01*
X65055261Y-61490965D01*
X65183104Y-61269535D01*
X65280950Y-61033313D01*
X65347126Y-60786340D01*
X65380500Y-60532843D01*
X65380500Y-60277157D01*
X65347126Y-60023660D01*
X65280950Y-59776687D01*
X65183104Y-59540465D01*
X65183102Y-59540462D01*
X65183100Y-59540457D01*
X65055265Y-59319042D01*
X65055261Y-59319035D01*
X64971967Y-59210485D01*
X64946774Y-59145318D01*
X64960812Y-59076873D01*
X64971964Y-59059517D01*
X65055261Y-58950965D01*
X65183104Y-58729535D01*
X65280950Y-58493313D01*
X65347126Y-58246340D01*
X65380500Y-57992843D01*
X65380500Y-57737157D01*
X65347126Y-57483660D01*
X65280950Y-57236687D01*
X65260975Y-57188464D01*
X65244805Y-57149426D01*
X65183104Y-57000465D01*
X65183102Y-57000462D01*
X65183100Y-57000457D01*
X65055265Y-56779042D01*
X65055261Y-56779035D01*
X64971967Y-56670485D01*
X64946774Y-56605318D01*
X64960812Y-56536873D01*
X64971964Y-56519517D01*
X65055261Y-56410965D01*
X65183104Y-56189535D01*
X65280950Y-55953313D01*
X65347126Y-55706340D01*
X65380500Y-55452843D01*
X65380500Y-55197157D01*
X65347126Y-54943660D01*
X65280950Y-54696687D01*
X65183104Y-54460465D01*
X65183102Y-54460462D01*
X65183100Y-54460457D01*
X65074005Y-54271500D01*
X65057532Y-54203600D01*
X65080384Y-54137573D01*
X65135306Y-54094382D01*
X65181392Y-54085500D01*
X65317351Y-54085500D01*
X65317352Y-54085500D01*
X65519535Y-54053477D01*
X65653693Y-54009886D01*
X65714219Y-53990220D01*
X65833522Y-53929432D01*
X65896611Y-53897287D01*
X66062219Y-53776966D01*
X77387819Y-42451364D01*
X77449142Y-42417880D01*
X77518834Y-42422864D01*
G37*
%TD.AperFunction*%
%TA.AperFunction,Conductor*%
G36*
X54455209Y-33757941D02*
G01*
X54485925Y-33820697D01*
X54477837Y-33890097D01*
X54475424Y-33895425D01*
X54354871Y-34145755D01*
X54354862Y-34145777D01*
X54252835Y-34437352D01*
X54252831Y-34437364D01*
X54184089Y-34738544D01*
X54184086Y-34738562D01*
X54149500Y-35045528D01*
X54149500Y-35354471D01*
X54184086Y-35661437D01*
X54184089Y-35661455D01*
X54252831Y-35962635D01*
X54252835Y-35962647D01*
X54354862Y-36254222D01*
X54354868Y-36254236D01*
X54488903Y-36532562D01*
X54488905Y-36532565D01*
X54653265Y-36794143D01*
X54845880Y-37035674D01*
X55064326Y-37254120D01*
X55305857Y-37446735D01*
X55567435Y-37611095D01*
X55845771Y-37745135D01*
X55861103Y-37750500D01*
X56137352Y-37847164D01*
X56137364Y-37847168D01*
X56438548Y-37915911D01*
X56438554Y-37915911D01*
X56438562Y-37915913D01*
X56643206Y-37938970D01*
X56745529Y-37950499D01*
X56745532Y-37950500D01*
X56745535Y-37950500D01*
X57054468Y-37950500D01*
X57054469Y-37950499D01*
X57211356Y-37932822D01*
X57361437Y-37915913D01*
X57361442Y-37915912D01*
X57361452Y-37915911D01*
X57662636Y-37847168D01*
X57954229Y-37745135D01*
X58232565Y-37611095D01*
X58494143Y-37446735D01*
X58735674Y-37254120D01*
X58954120Y-37035674D01*
X58978553Y-37005035D01*
X59035741Y-36964896D01*
X59105553Y-36962046D01*
X59165823Y-36997391D01*
X59197416Y-37059710D01*
X59199500Y-37082349D01*
X59199500Y-38602351D01*
X59231522Y-38804531D01*
X59231522Y-38804532D01*
X59246819Y-38851610D01*
X59294781Y-38999223D01*
X59334896Y-39077951D01*
X59387711Y-39181609D01*
X59447873Y-39264415D01*
X59508034Y-39347219D01*
X59508036Y-39347221D01*
X61237786Y-41076971D01*
X61392749Y-41189556D01*
X61403390Y-41197287D01*
X61475473Y-41234015D01*
X61585776Y-41290218D01*
X61585778Y-41290218D01*
X61585781Y-41290220D01*
X61664983Y-41315954D01*
X61746995Y-41342602D01*
X61804670Y-41382040D01*
X61831868Y-41446399D01*
X61819953Y-41515245D01*
X61807060Y-41536009D01*
X61804746Y-41539024D01*
X61804734Y-41539042D01*
X61676899Y-41760457D01*
X61676894Y-41760468D01*
X61579053Y-41996677D01*
X61579050Y-41996687D01*
X61513940Y-42239684D01*
X61512874Y-42243661D01*
X61479500Y-42497149D01*
X61479500Y-42752850D01*
X61499000Y-42900957D01*
X61512874Y-43006340D01*
X61577713Y-43248322D01*
X61579050Y-43253312D01*
X61579053Y-43253322D01*
X61676894Y-43489531D01*
X61676899Y-43489542D01*
X61804734Y-43710957D01*
X61804745Y-43710973D01*
X61888031Y-43819514D01*
X61913225Y-43884683D01*
X61899187Y-43953128D01*
X61888031Y-43970486D01*
X61804745Y-44079026D01*
X61804734Y-44079042D01*
X61676899Y-44300457D01*
X61676894Y-44300468D01*
X61579053Y-44536677D01*
X61579050Y-44536687D01*
X61513278Y-44782155D01*
X61512874Y-44783661D01*
X61479500Y-45037149D01*
X61479500Y-45292850D01*
X61505457Y-45490007D01*
X61512874Y-45546340D01*
X61577713Y-45788322D01*
X61579050Y-45793312D01*
X61579053Y-45793322D01*
X61676894Y-46029531D01*
X61676899Y-46029542D01*
X61804734Y-46250957D01*
X61804745Y-46250973D01*
X61888031Y-46359514D01*
X61913225Y-46424683D01*
X61899187Y-46493128D01*
X61888031Y-46510486D01*
X61804745Y-46619026D01*
X61804734Y-46619042D01*
X61676899Y-46840457D01*
X61676894Y-46840468D01*
X61579053Y-47076677D01*
X61579050Y-47076687D01*
X61512874Y-47323661D01*
X61479500Y-47577149D01*
X61479500Y-47832850D01*
X61505457Y-48030007D01*
X61512874Y-48086340D01*
X61579050Y-48333312D01*
X61579053Y-48333322D01*
X61676894Y-48569531D01*
X61676899Y-48569542D01*
X61804734Y-48790957D01*
X61804745Y-48790973D01*
X61888031Y-48899514D01*
X61913225Y-48964683D01*
X61899187Y-49033128D01*
X61888031Y-49050486D01*
X61804745Y-49159026D01*
X61804734Y-49159042D01*
X61676899Y-49380457D01*
X61676894Y-49380468D01*
X61579053Y-49616677D01*
X61579050Y-49616687D01*
X61546009Y-49740000D01*
X61512874Y-49863661D01*
X61479500Y-50117149D01*
X61479500Y-50372850D01*
X61494924Y-50490000D01*
X61512874Y-50626340D01*
X61571922Y-50846711D01*
X61579050Y-50873312D01*
X61579053Y-50873322D01*
X61676894Y-51109531D01*
X61676899Y-51109542D01*
X61804734Y-51330957D01*
X61804745Y-51330973D01*
X61888031Y-51439514D01*
X61913225Y-51504683D01*
X61899187Y-51573128D01*
X61888031Y-51590486D01*
X61804745Y-51699026D01*
X61804734Y-51699042D01*
X61676899Y-51920457D01*
X61676894Y-51920468D01*
X61579053Y-52156677D01*
X61579050Y-52156687D01*
X61514214Y-52398661D01*
X61512874Y-52403661D01*
X61479500Y-52657149D01*
X61479500Y-52912850D01*
X61501266Y-53078172D01*
X61512874Y-53166340D01*
X61577713Y-53408322D01*
X61579050Y-53413312D01*
X61579053Y-53413322D01*
X61676894Y-53649531D01*
X61676899Y-53649542D01*
X61804734Y-53870957D01*
X61804745Y-53870973D01*
X61888031Y-53979514D01*
X61913225Y-54044683D01*
X61899187Y-54113128D01*
X61888031Y-54130486D01*
X61804745Y-54239026D01*
X61804734Y-54239042D01*
X61676899Y-54460457D01*
X61676894Y-54460468D01*
X61579053Y-54696677D01*
X61579050Y-54696687D01*
X61514214Y-54938661D01*
X61512874Y-54943661D01*
X61479500Y-55197149D01*
X61479500Y-55452850D01*
X61488407Y-55520500D01*
X61512874Y-55706340D01*
X61577713Y-55948322D01*
X61579050Y-55953312D01*
X61579053Y-55953322D01*
X61676894Y-56189531D01*
X61676899Y-56189542D01*
X61804734Y-56410957D01*
X61804745Y-56410973D01*
X61888031Y-56519514D01*
X61913225Y-56584683D01*
X61899187Y-56653128D01*
X61888031Y-56670486D01*
X61804745Y-56779026D01*
X61804734Y-56779042D01*
X61676899Y-57000457D01*
X61676894Y-57000468D01*
X61579053Y-57236677D01*
X61579050Y-57236687D01*
X61514214Y-57478661D01*
X61512874Y-57483661D01*
X61479500Y-57737149D01*
X61479500Y-57992850D01*
X61505457Y-58190007D01*
X61512874Y-58246340D01*
X61578169Y-58490024D01*
X61579050Y-58493312D01*
X61579053Y-58493322D01*
X61676894Y-58729531D01*
X61676899Y-58729542D01*
X61804734Y-58950957D01*
X61804745Y-58950973D01*
X61888031Y-59059514D01*
X61913225Y-59124683D01*
X61899187Y-59193128D01*
X61888031Y-59210486D01*
X61804745Y-59319026D01*
X61804734Y-59319042D01*
X61676899Y-59540457D01*
X61676894Y-59540468D01*
X61579053Y-59776677D01*
X61579050Y-59776687D01*
X61512874Y-60023660D01*
X61479500Y-60277149D01*
X61479500Y-60532850D01*
X61502576Y-60708120D01*
X61512874Y-60786340D01*
X61577713Y-61028322D01*
X61579050Y-61033312D01*
X61579053Y-61033322D01*
X61676894Y-61269531D01*
X61676899Y-61269542D01*
X61804734Y-61490957D01*
X61804745Y-61490973D01*
X61888031Y-61599514D01*
X61913225Y-61664683D01*
X61899187Y-61733128D01*
X61888031Y-61750486D01*
X61804745Y-61859026D01*
X61804734Y-61859042D01*
X61676899Y-62080457D01*
X61676894Y-62080468D01*
X61579053Y-62316677D01*
X61579050Y-62316687D01*
X61514214Y-62558661D01*
X61512874Y-62563661D01*
X61479500Y-62817149D01*
X61479500Y-63072850D01*
X61505457Y-63270007D01*
X61512874Y-63326340D01*
X61577713Y-63568322D01*
X61579050Y-63573312D01*
X61579053Y-63573322D01*
X61676894Y-63809531D01*
X61676899Y-63809542D01*
X61804734Y-64030957D01*
X61804745Y-64030973D01*
X61888031Y-64139514D01*
X61913225Y-64204683D01*
X61899187Y-64273128D01*
X61888031Y-64290486D01*
X61804745Y-64399026D01*
X61804734Y-64399042D01*
X61676899Y-64620457D01*
X61676894Y-64620468D01*
X61579053Y-64856677D01*
X61579050Y-64856687D01*
X61514883Y-65096165D01*
X61512874Y-65103661D01*
X61479500Y-65357149D01*
X61479500Y-65612850D01*
X61502104Y-65784534D01*
X61512874Y-65866340D01*
X61579050Y-66113312D01*
X61579053Y-66113322D01*
X61676894Y-66349531D01*
X61676899Y-66349542D01*
X61804734Y-66570957D01*
X61804745Y-66570973D01*
X61960388Y-66773811D01*
X61960394Y-66773818D01*
X62141181Y-66954605D01*
X62141188Y-66954611D01*
X62221403Y-67016162D01*
X62262606Y-67072590D01*
X62266761Y-67142336D01*
X62246236Y-67187423D01*
X62189848Y-67265034D01*
X62086230Y-67468395D01*
X62015704Y-67685455D01*
X62001522Y-67775000D01*
X62996988Y-67775000D01*
X62964075Y-67832007D01*
X62930000Y-67959174D01*
X62930000Y-68090826D01*
X62964075Y-68217993D01*
X62996988Y-68275000D01*
X62001522Y-68275000D01*
X62015704Y-68364544D01*
X62086230Y-68581604D01*
X62189851Y-68784969D01*
X62246235Y-68862576D01*
X62269715Y-68928382D01*
X62253889Y-68996436D01*
X62221405Y-69033836D01*
X62141179Y-69095396D01*
X62141178Y-69095398D01*
X61960394Y-69276181D01*
X61960388Y-69276188D01*
X61804745Y-69479026D01*
X61804734Y-69479042D01*
X61676899Y-69700457D01*
X61676894Y-69700468D01*
X61579053Y-69936677D01*
X61579050Y-69936687D01*
X61538356Y-70088562D01*
X61512874Y-70183661D01*
X61479500Y-70437149D01*
X61479500Y-70692850D01*
X61505457Y-70890007D01*
X61512874Y-70946340D01*
X61579050Y-71193312D01*
X61579053Y-71193322D01*
X61676894Y-71429531D01*
X61676899Y-71429542D01*
X61804734Y-71650957D01*
X61804745Y-71650973D01*
X61888031Y-71759514D01*
X61913225Y-71824683D01*
X61899187Y-71893128D01*
X61888031Y-71910486D01*
X61804745Y-72019026D01*
X61804734Y-72019042D01*
X61676899Y-72240457D01*
X61676894Y-72240468D01*
X61579053Y-72476677D01*
X61579050Y-72476687D01*
X61514214Y-72718661D01*
X61512874Y-72723661D01*
X61479500Y-72977149D01*
X61479500Y-73232850D01*
X61494173Y-73344297D01*
X61512874Y-73486340D01*
X61577713Y-73728322D01*
X61579050Y-73733312D01*
X61579053Y-73733322D01*
X61676894Y-73969531D01*
X61676899Y-73969542D01*
X61804734Y-74190957D01*
X61804745Y-74190973D01*
X61888031Y-74299514D01*
X61913225Y-74364683D01*
X61899187Y-74433128D01*
X61888031Y-74450486D01*
X61804745Y-74559026D01*
X61804734Y-74559042D01*
X61676899Y-74780457D01*
X61676894Y-74780468D01*
X61579053Y-75016677D01*
X61579050Y-75016687D01*
X61519573Y-75238661D01*
X61512874Y-75263661D01*
X61479500Y-75517149D01*
X61479500Y-75772850D01*
X61503803Y-75957437D01*
X61512874Y-76026340D01*
X61577713Y-76268322D01*
X61579050Y-76273312D01*
X61579053Y-76273322D01*
X61676894Y-76509531D01*
X61676899Y-76509542D01*
X61804734Y-76730957D01*
X61804745Y-76730973D01*
X61888031Y-76839514D01*
X61913225Y-76904683D01*
X61899187Y-76973128D01*
X61888031Y-76990486D01*
X61804745Y-77099026D01*
X61804734Y-77099042D01*
X61676899Y-77320457D01*
X61676894Y-77320468D01*
X61579053Y-77556677D01*
X61579050Y-77556687D01*
X61512874Y-77803661D01*
X61479500Y-78057149D01*
X61479500Y-78312850D01*
X61493784Y-78421340D01*
X61512874Y-78566340D01*
X61577713Y-78808322D01*
X61579050Y-78813312D01*
X61579053Y-78813322D01*
X61667995Y-79028047D01*
X61675464Y-79097517D01*
X61644189Y-79159996D01*
X61584100Y-79195648D01*
X61553434Y-79199500D01*
X61050047Y-79199500D01*
X60983008Y-79179815D01*
X60962366Y-79163181D01*
X59986819Y-78187634D01*
X59953334Y-78126311D01*
X59950500Y-78099953D01*
X59950500Y-77912163D01*
X59950499Y-77912149D01*
X59943266Y-77857208D01*
X59917126Y-77658660D01*
X59850950Y-77411687D01*
X59753104Y-77175465D01*
X59752889Y-77175093D01*
X59752859Y-77174969D01*
X59751308Y-77171823D01*
X59752011Y-77171476D01*
X59736408Y-77107197D01*
X59759250Y-77041167D01*
X59764154Y-77034732D01*
X59789698Y-77003407D01*
X59883909Y-76823049D01*
X59939886Y-76627418D01*
X59950500Y-76508037D01*
X59950499Y-74491964D01*
X59939886Y-74372582D01*
X59885734Y-74183330D01*
X59883910Y-74176954D01*
X59883909Y-74176953D01*
X59883909Y-74176951D01*
X59789698Y-73996593D01*
X59717160Y-73907632D01*
X59661109Y-73838890D01*
X59531628Y-73733313D01*
X59503407Y-73710302D01*
X59323049Y-73616091D01*
X59323048Y-73616090D01*
X59323045Y-73616089D01*
X59205829Y-73582550D01*
X59127418Y-73560114D01*
X59127415Y-73560113D01*
X59127413Y-73560113D01*
X59054631Y-73553642D01*
X59008037Y-73549500D01*
X59008033Y-73549500D01*
X58555426Y-73549500D01*
X58488387Y-73529815D01*
X58442632Y-73477011D01*
X58432688Y-73407853D01*
X58461713Y-73344297D01*
X58479940Y-73327124D01*
X58506709Y-73306582D01*
X58537928Y-73282628D01*
X58732628Y-73087928D01*
X58900249Y-72869479D01*
X59037923Y-72631021D01*
X59143295Y-72376632D01*
X59214560Y-72110666D01*
X59250500Y-71837674D01*
X59250500Y-71562326D01*
X59214560Y-71289334D01*
X59143295Y-71023368D01*
X59037923Y-70768979D01*
X59037921Y-70768976D01*
X59037919Y-70768971D01*
X58900253Y-70530528D01*
X58900249Y-70530521D01*
X58884550Y-70510062D01*
X58776123Y-70368756D01*
X58750929Y-70303587D01*
X58750499Y-70293270D01*
X58750499Y-68791971D01*
X58750499Y-68791964D01*
X58739886Y-68672582D01*
X58689325Y-68495879D01*
X58683910Y-68476954D01*
X58683909Y-68476953D01*
X58683909Y-68476951D01*
X58625714Y-68365544D01*
X58612124Y-68297011D01*
X58621060Y-68260688D01*
X58661158Y-68163887D01*
X58720548Y-67942238D01*
X58750500Y-67714734D01*
X58750500Y-67485266D01*
X58720548Y-67257762D01*
X58661158Y-67036113D01*
X58573344Y-66824112D01*
X58479747Y-66661997D01*
X58463275Y-66594100D01*
X58479747Y-66538003D01*
X58573344Y-66375888D01*
X58661158Y-66163887D01*
X58720548Y-65942238D01*
X58750500Y-65714734D01*
X58750500Y-65485266D01*
X58720548Y-65257762D01*
X58663475Y-65044760D01*
X58665138Y-64974910D01*
X58695569Y-64924986D01*
X58732628Y-64887928D01*
X58900249Y-64669479D01*
X59037923Y-64431021D01*
X59143295Y-64176632D01*
X59214560Y-63910666D01*
X59250500Y-63637674D01*
X59250500Y-63362326D01*
X59214560Y-63089334D01*
X59143295Y-62823368D01*
X59037923Y-62568979D01*
X59037921Y-62568976D01*
X59037919Y-62568971D01*
X58974834Y-62459706D01*
X58900249Y-62330521D01*
X58732628Y-62112072D01*
X58732623Y-62112066D01*
X58537933Y-61917376D01*
X58537926Y-61917370D01*
X58319483Y-61749754D01*
X58319482Y-61749753D01*
X58319479Y-61749751D01*
X58190007Y-61675000D01*
X58081028Y-61612080D01*
X58081017Y-61612075D01*
X57826630Y-61506704D01*
X57693649Y-61471072D01*
X57560666Y-61435440D01*
X57560660Y-61435439D01*
X57560655Y-61435438D01*
X57287684Y-61399501D01*
X57287679Y-61399500D01*
X57287674Y-61399500D01*
X55712326Y-61399500D01*
X55712320Y-61399500D01*
X55712315Y-61399501D01*
X55439344Y-61435438D01*
X55439337Y-61435439D01*
X55439334Y-61435440D01*
X55383125Y-61450500D01*
X55173369Y-61506704D01*
X54918982Y-61612075D01*
X54918971Y-61612080D01*
X54680516Y-61749754D01*
X54462073Y-61917370D01*
X54462066Y-61917376D01*
X54267376Y-62112066D01*
X54267370Y-62112073D01*
X54099754Y-62330516D01*
X53962080Y-62568971D01*
X53962075Y-62568982D01*
X53856704Y-62823369D01*
X53821899Y-62953265D01*
X53791199Y-63067843D01*
X53785441Y-63089331D01*
X53785438Y-63089344D01*
X53749501Y-63362315D01*
X53749500Y-63362332D01*
X53749500Y-63637667D01*
X53749501Y-63637684D01*
X53785438Y-63910655D01*
X53785439Y-63910660D01*
X53785440Y-63910666D01*
X53847802Y-64143408D01*
X53846140Y-64213257D01*
X53806977Y-64271119D01*
X53742749Y-64298623D01*
X53737421Y-64299144D01*
X53732734Y-64299500D01*
X53617648Y-64299500D01*
X53516557Y-64315511D01*
X53511580Y-64316299D01*
X53511570Y-64316300D01*
X53415464Y-64331522D01*
X53318123Y-64363151D01*
X53242501Y-64387722D01*
X53172660Y-64389717D01*
X53112827Y-64353637D01*
X53081999Y-64290936D01*
X53089621Y-64222339D01*
X53146054Y-64086100D01*
X53208838Y-63851789D01*
X53240500Y-63611288D01*
X53240500Y-63368712D01*
X53208838Y-63128211D01*
X53146054Y-62893900D01*
X53053224Y-62669788D01*
X52931936Y-62459711D01*
X52832805Y-62330521D01*
X52784266Y-62267263D01*
X52784260Y-62267256D01*
X52778275Y-62261271D01*
X52744790Y-62199948D01*
X52749774Y-62130256D01*
X52778273Y-62085911D01*
X55991966Y-58872219D01*
X56112287Y-58706611D01*
X56138151Y-58655850D01*
X56186125Y-58605054D01*
X56224924Y-58595445D01*
X56227565Y-58594044D01*
X56229821Y-58594232D01*
X56253946Y-58588258D01*
X56284994Y-58598838D01*
X56297193Y-58599857D01*
X56311405Y-58607838D01*
X56320081Y-58610795D01*
X56324420Y-58613997D01*
X56329484Y-58617907D01*
X56331187Y-58619610D01*
X56411631Y-58681337D01*
X56411701Y-58681391D01*
X56432162Y-58709592D01*
X56452606Y-58737590D01*
X56452617Y-58737784D01*
X56452733Y-58737944D01*
X56454696Y-58772676D01*
X56456761Y-58807336D01*
X56456666Y-58807542D01*
X56456676Y-58807702D01*
X56456257Y-58808441D01*
X56436236Y-58852423D01*
X56379848Y-58930034D01*
X56276230Y-59133395D01*
X56205704Y-59350455D01*
X56191522Y-59440000D01*
X57186988Y-59440000D01*
X57154075Y-59497007D01*
X57120000Y-59624174D01*
X57120000Y-59755826D01*
X57154075Y-59882993D01*
X57186988Y-59940000D01*
X56191522Y-59940000D01*
X56205704Y-60029544D01*
X56276230Y-60246604D01*
X56379849Y-60449966D01*
X56514004Y-60634614D01*
X56675385Y-60795995D01*
X56860033Y-60930150D01*
X57063395Y-61033769D01*
X57280455Y-61104295D01*
X57370000Y-61118478D01*
X57370000Y-60123012D01*
X57427007Y-60155925D01*
X57554174Y-60190000D01*
X57685826Y-60190000D01*
X57812993Y-60155925D01*
X57870000Y-60123012D01*
X57870000Y-61118477D01*
X57959544Y-61104295D01*
X58176604Y-61033769D01*
X58379966Y-60930150D01*
X58564614Y-60795995D01*
X58725995Y-60634614D01*
X58860150Y-60449966D01*
X58963769Y-60246604D01*
X59034295Y-60029544D01*
X59048478Y-59940000D01*
X58053012Y-59940000D01*
X58085925Y-59882993D01*
X58120000Y-59755826D01*
X58120000Y-59624174D01*
X58085925Y-59497007D01*
X58053012Y-59440000D01*
X59048478Y-59440000D01*
X59034295Y-59350455D01*
X58963769Y-59133395D01*
X58860148Y-58930030D01*
X58803764Y-58852423D01*
X58780284Y-58786617D01*
X58796109Y-58718563D01*
X58828591Y-58681166D01*
X58908813Y-58619610D01*
X59089610Y-58438813D01*
X59245261Y-58235965D01*
X59373104Y-58014535D01*
X59470950Y-57778313D01*
X59537126Y-57531340D01*
X59570500Y-57277843D01*
X59570500Y-57022157D01*
X59537126Y-56768660D01*
X59470950Y-56521687D01*
X59467978Y-56514513D01*
X59423013Y-56405957D01*
X59373104Y-56285465D01*
X59373102Y-56285462D01*
X59373100Y-56285457D01*
X59245265Y-56064042D01*
X59245261Y-56064035D01*
X59161967Y-55955485D01*
X59136774Y-55890318D01*
X59150812Y-55821873D01*
X59161964Y-55804517D01*
X59245261Y-55695965D01*
X59373104Y-55474535D01*
X59470950Y-55238313D01*
X59537126Y-54991340D01*
X59570500Y-54737843D01*
X59570500Y-54482157D01*
X59537126Y-54228660D01*
X59470950Y-53981687D01*
X59373104Y-53745465D01*
X59372889Y-53745093D01*
X59372859Y-53744969D01*
X59371308Y-53741823D01*
X59372011Y-53741476D01*
X59356408Y-53677197D01*
X59379250Y-53611167D01*
X59384154Y-53604732D01*
X59409698Y-53573407D01*
X59503909Y-53393049D01*
X59559886Y-53197418D01*
X59570500Y-53078037D01*
X59570499Y-51061964D01*
X59559886Y-50942582D01*
X59507470Y-50759396D01*
X59503910Y-50746954D01*
X59503909Y-50746953D01*
X59503909Y-50746951D01*
X59409698Y-50566593D01*
X59347245Y-50490000D01*
X59281109Y-50408890D01*
X59123409Y-50280304D01*
X59123410Y-50280304D01*
X59123407Y-50280302D01*
X58943049Y-50186091D01*
X58943048Y-50186090D01*
X58943045Y-50186089D01*
X58825829Y-50152550D01*
X58747418Y-50130114D01*
X58747415Y-50130113D01*
X58747413Y-50130113D01*
X58681102Y-50124217D01*
X58628037Y-50119500D01*
X58628032Y-50119500D01*
X56611971Y-50119500D01*
X56611965Y-50119500D01*
X56611964Y-50119501D01*
X56600316Y-50120536D01*
X56492584Y-50130113D01*
X56296954Y-50186089D01*
X56206772Y-50233196D01*
X56116593Y-50280302D01*
X56116591Y-50280303D01*
X56116590Y-50280304D01*
X55958890Y-50408890D01*
X55830302Y-50566592D01*
X55759096Y-50702911D01*
X55710609Y-50753219D01*
X55649187Y-50769500D01*
X55327644Y-50769500D01*
X55228801Y-50785155D01*
X55228785Y-50785158D01*
X55226557Y-50785511D01*
X55125465Y-50801523D01*
X55095199Y-50811356D01*
X55087852Y-50812798D01*
X55060208Y-50810249D01*
X55032460Y-50811041D01*
X55025902Y-50807086D01*
X55018277Y-50806383D01*
X54996398Y-50789293D01*
X54972629Y-50774958D01*
X54966208Y-50765710D01*
X54963215Y-50763372D01*
X54961824Y-50759396D01*
X54953503Y-50747411D01*
X54862287Y-50568390D01*
X54806762Y-50491966D01*
X54768588Y-50439423D01*
X54741971Y-50402787D01*
X54741968Y-50402784D01*
X54741966Y-50402781D01*
X54597219Y-50258034D01*
X54597218Y-50258033D01*
X54594107Y-50254922D01*
X54594092Y-50254908D01*
X53336819Y-48997634D01*
X53303334Y-48936311D01*
X53300500Y-48909953D01*
X53300500Y-45090046D01*
X53320185Y-45023007D01*
X53336819Y-45002365D01*
X53560524Y-44778660D01*
X53835235Y-44503948D01*
X53896556Y-44470465D01*
X53966247Y-44475449D01*
X54022181Y-44517320D01*
X54046598Y-44582785D01*
X54039096Y-44634963D01*
X54006403Y-44722616D01*
X54006401Y-44722627D01*
X54000000Y-44782155D01*
X54000000Y-46080000D01*
X55280936Y-46080000D01*
X55269207Y-46108316D01*
X55240000Y-46255147D01*
X55240000Y-46404853D01*
X55269207Y-46551684D01*
X55280936Y-46580000D01*
X54000000Y-46580000D01*
X54000000Y-47877844D01*
X54006401Y-47937372D01*
X54006403Y-47937379D01*
X54056645Y-48072086D01*
X54056649Y-48072093D01*
X54142809Y-48187187D01*
X54142812Y-48187190D01*
X54257906Y-48273350D01*
X54257913Y-48273354D01*
X54392620Y-48323596D01*
X54392627Y-48323598D01*
X54452155Y-48329999D01*
X54452172Y-48330000D01*
X55750000Y-48330000D01*
X55750000Y-47049064D01*
X55778316Y-47060793D01*
X55925147Y-47090000D01*
X56074853Y-47090000D01*
X56221684Y-47060793D01*
X56250000Y-47049064D01*
X56250000Y-48330000D01*
X57547828Y-48330000D01*
X57547844Y-48329999D01*
X57607372Y-48323598D01*
X57607379Y-48323596D01*
X57742086Y-48273354D01*
X57742093Y-48273350D01*
X57857187Y-48187190D01*
X57857190Y-48187187D01*
X57943350Y-48072093D01*
X57943354Y-48072086D01*
X57993596Y-47937379D01*
X57993598Y-47937372D01*
X57999999Y-47877844D01*
X58000000Y-47877827D01*
X58000000Y-46580000D01*
X56719064Y-46580000D01*
X56730793Y-46551684D01*
X56760000Y-46404853D01*
X56760000Y-46255147D01*
X56730793Y-46108316D01*
X56719064Y-46080000D01*
X58000000Y-46080000D01*
X58000000Y-44782172D01*
X57999999Y-44782155D01*
X57993598Y-44722627D01*
X57993596Y-44722620D01*
X57943354Y-44587913D01*
X57943350Y-44587906D01*
X57857190Y-44472812D01*
X57857187Y-44472809D01*
X57742093Y-44386649D01*
X57742086Y-44386645D01*
X57607379Y-44336403D01*
X57607372Y-44336401D01*
X57547844Y-44330000D01*
X56250000Y-44330000D01*
X56250000Y-45610935D01*
X56221684Y-45599207D01*
X56074853Y-45570000D01*
X55925147Y-45570000D01*
X55778316Y-45599207D01*
X55750000Y-45610935D01*
X55750000Y-44330000D01*
X54452155Y-44330000D01*
X54392627Y-44336401D01*
X54392616Y-44336403D01*
X54304963Y-44369096D01*
X54235271Y-44374080D01*
X54173949Y-44340594D01*
X54140464Y-44279271D01*
X54145450Y-44209579D01*
X54173946Y-44165237D01*
X54252367Y-44086816D01*
X54313689Y-44053334D01*
X54340046Y-44050500D01*
X54602351Y-44050500D01*
X54602352Y-44050500D01*
X54804535Y-44018477D01*
X54917999Y-43981610D01*
X54999219Y-43955220D01*
X55114418Y-43896523D01*
X55181611Y-43862287D01*
X55347219Y-43741966D01*
X55360760Y-43728424D01*
X55422081Y-43694939D01*
X55476034Y-43695212D01*
X55580491Y-43719055D01*
X55580500Y-43719056D01*
X55580505Y-43719057D01*
X55733643Y-43736311D01*
X55859569Y-43750499D01*
X55859572Y-43750500D01*
X55859575Y-43750500D01*
X56140428Y-43750500D01*
X56140429Y-43750499D01*
X56283055Y-43734429D01*
X56419494Y-43719057D01*
X56419499Y-43719056D01*
X56419509Y-43719055D01*
X56693318Y-43656560D01*
X56958408Y-43563801D01*
X57211445Y-43441945D01*
X57449248Y-43292523D01*
X57668825Y-43117416D01*
X57867416Y-42918825D01*
X58042523Y-42699248D01*
X58191945Y-42461445D01*
X58313801Y-42208408D01*
X58406560Y-41943318D01*
X58469055Y-41669509D01*
X58472638Y-41637715D01*
X58490236Y-41481523D01*
X58500500Y-41390425D01*
X58500500Y-41109575D01*
X58469055Y-40830491D01*
X58406560Y-40556682D01*
X58313801Y-40291592D01*
X58191945Y-40038555D01*
X58042523Y-39800752D01*
X57867416Y-39581175D01*
X57668825Y-39382584D01*
X57449248Y-39207477D01*
X57211445Y-39058055D01*
X57211442Y-39058053D01*
X56958411Y-38936200D01*
X56693329Y-38843443D01*
X56693317Y-38843439D01*
X56419512Y-38780945D01*
X56419494Y-38780942D01*
X56140431Y-38749500D01*
X56140425Y-38749500D01*
X55859575Y-38749500D01*
X55859568Y-38749500D01*
X55580505Y-38780942D01*
X55580487Y-38780945D01*
X55306682Y-38843439D01*
X55306670Y-38843443D01*
X55041588Y-38936200D01*
X54788557Y-39058053D01*
X54550753Y-39207476D01*
X54331175Y-39382583D01*
X54132583Y-39581175D01*
X53957476Y-39800753D01*
X53808053Y-40038557D01*
X53686200Y-40291588D01*
X53593443Y-40556670D01*
X53593439Y-40556682D01*
X53530945Y-40830487D01*
X53530942Y-40830505D01*
X53499500Y-41109568D01*
X53499500Y-41373874D01*
X53479815Y-41440913D01*
X53427011Y-41486668D01*
X53413818Y-41491805D01*
X53250784Y-41544777D01*
X53250781Y-41544778D01*
X53126638Y-41608034D01*
X53068386Y-41637715D01*
X52902786Y-41758028D01*
X51008036Y-43652778D01*
X50887716Y-43818384D01*
X50887714Y-43818387D01*
X50858264Y-43876187D01*
X50794781Y-44000777D01*
X50794780Y-44000781D01*
X50778625Y-44050500D01*
X50769351Y-44079042D01*
X50731523Y-44195464D01*
X50715684Y-44295468D01*
X50712150Y-44317781D01*
X50699500Y-44397648D01*
X50699500Y-49602352D01*
X50701840Y-49617126D01*
X50731522Y-49804534D01*
X50769286Y-49920758D01*
X50794780Y-49999219D01*
X50794781Y-49999220D01*
X50794782Y-49999224D01*
X50817995Y-50044780D01*
X50887713Y-50181611D01*
X51008034Y-50347219D01*
X51722786Y-51061971D01*
X52413181Y-51752365D01*
X52446666Y-51813688D01*
X52449500Y-51840046D01*
X52449500Y-52649201D01*
X52429815Y-52716240D01*
X52377011Y-52761995D01*
X52307853Y-52771939D01*
X52256610Y-52752303D01*
X52131803Y-52668910D01*
X52131775Y-52668893D01*
X51828469Y-52506772D01*
X51828464Y-52506770D01*
X51510706Y-52375150D01*
X51181572Y-52275308D01*
X50844248Y-52208210D01*
X50844249Y-52208210D01*
X50586456Y-52182821D01*
X50501969Y-52174500D01*
X50158031Y-52174500D01*
X50079966Y-52182188D01*
X49815750Y-52208210D01*
X49478427Y-52275308D01*
X49149293Y-52375150D01*
X48831535Y-52506770D01*
X48831530Y-52506772D01*
X48528224Y-52668893D01*
X48528206Y-52668904D01*
X48242248Y-52859975D01*
X48242234Y-52859985D01*
X47976367Y-53078176D01*
X47733176Y-53321367D01*
X47514985Y-53587234D01*
X47514975Y-53587248D01*
X47323904Y-53873206D01*
X47323893Y-53873224D01*
X47161772Y-54176530D01*
X47161770Y-54176535D01*
X47030150Y-54494293D01*
X46930308Y-54823427D01*
X46863210Y-55160750D01*
X46843988Y-55355930D01*
X46829500Y-55503031D01*
X46829500Y-55846969D01*
X46839481Y-55948312D01*
X46863210Y-56189249D01*
X46930308Y-56526572D01*
X47030150Y-56855706D01*
X47161770Y-57173464D01*
X47161772Y-57173469D01*
X47323893Y-57476775D01*
X47323904Y-57476793D01*
X47514975Y-57762751D01*
X47514985Y-57762765D01*
X47733176Y-58028632D01*
X47976367Y-58271823D01*
X47976372Y-58271827D01*
X47976373Y-58271828D01*
X48242240Y-58490019D01*
X48528213Y-58681100D01*
X48528222Y-58681105D01*
X48528224Y-58681106D01*
X48556276Y-58696100D01*
X48704375Y-58775261D01*
X48746676Y-58797871D01*
X48796520Y-58846833D01*
X48811981Y-58914971D01*
X48788149Y-58980651D01*
X48775904Y-58994910D01*
X48138036Y-59632778D01*
X48138031Y-59632784D01*
X48017713Y-59798387D01*
X48017710Y-59798393D01*
X48009966Y-59813592D01*
X48009953Y-59813618D01*
X48008995Y-59815500D01*
X47924780Y-59980781D01*
X47910848Y-60023660D01*
X47867873Y-60155925D01*
X47866026Y-60161609D01*
X47866025Y-60161612D01*
X47861522Y-60175468D01*
X47829500Y-60377648D01*
X47829500Y-64302010D01*
X47809815Y-64369049D01*
X47757011Y-64414804D01*
X47687853Y-64424748D01*
X47624297Y-64395723D01*
X47586523Y-64336945D01*
X47585725Y-64334104D01*
X47574158Y-64290936D01*
X47547483Y-64191385D01*
X47547278Y-64190607D01*
X47543639Y-64176630D01*
X47524700Y-64103894D01*
X47523974Y-64100954D01*
X47294575Y-63117112D01*
X47294504Y-63116803D01*
X47263764Y-62979823D01*
X47263187Y-62977097D01*
X47073180Y-62021868D01*
X47073012Y-62021001D01*
X47040388Y-61848388D01*
X47039914Y-61845713D01*
X46885520Y-60910562D01*
X46885312Y-60909254D01*
X46854730Y-60710719D01*
X46854374Y-60708221D01*
X46733096Y-59787023D01*
X46732933Y-59785728D01*
X46706980Y-59568428D01*
X46706715Y-59565996D01*
X46616935Y-58654443D01*
X46616821Y-58653203D01*
X46597200Y-58422671D01*
X46597033Y-58420451D01*
X46537714Y-57515426D01*
X46537614Y-57513686D01*
X46536083Y-57483661D01*
X46525441Y-57274939D01*
X46525361Y-57273055D01*
X46495849Y-56371576D01*
X46495808Y-56369902D01*
X46491684Y-56127040D01*
X46491666Y-56124935D01*
X46491666Y-55225063D01*
X46491684Y-55222958D01*
X46492207Y-55192149D01*
X46495808Y-54980091D01*
X46495849Y-54978430D01*
X46525362Y-54076929D01*
X46525440Y-54075069D01*
X46537618Y-53836234D01*
X46537713Y-53834591D01*
X46597033Y-52929534D01*
X46597199Y-52927344D01*
X46616824Y-52696768D01*
X46616933Y-52695573D01*
X46706717Y-51783983D01*
X46706978Y-51781592D01*
X46732938Y-51564231D01*
X46733090Y-51563021D01*
X46854378Y-50641750D01*
X46854726Y-50639305D01*
X46885323Y-50440674D01*
X46885523Y-50439423D01*
X46891573Y-50402781D01*
X47039919Y-49504257D01*
X47040383Y-49501641D01*
X47073026Y-49328925D01*
X47073161Y-49328226D01*
X47263195Y-48372864D01*
X47263756Y-48370208D01*
X47294527Y-48233097D01*
X47294565Y-48232930D01*
X47523983Y-47249006D01*
X47524690Y-47246141D01*
X47547333Y-47159180D01*
X47547421Y-47158845D01*
X47822060Y-46133882D01*
X47822914Y-46130859D01*
X47827211Y-46116388D01*
X48152890Y-45042767D01*
X48154094Y-45039020D01*
X48518472Y-43965597D01*
X48519829Y-43961807D01*
X48919114Y-42900930D01*
X48920584Y-42897209D01*
X49354391Y-41849909D01*
X49355970Y-41846265D01*
X49823807Y-40813727D01*
X49825531Y-40810084D01*
X49858050Y-40744143D01*
X50326879Y-39793449D01*
X50328723Y-39789862D01*
X50337157Y-39774084D01*
X50863077Y-38790155D01*
X50864991Y-38786710D01*
X51431802Y-37804964D01*
X51433839Y-37801566D01*
X52032450Y-36838922D01*
X52034601Y-36835585D01*
X52664397Y-35893030D01*
X52666661Y-35889759D01*
X53298704Y-35007744D01*
X53334867Y-34957970D01*
X53336750Y-34955448D01*
X53963696Y-34138397D01*
X53963895Y-34138140D01*
X54038203Y-34042845D01*
X54040019Y-34040575D01*
X54267855Y-33762955D01*
X54325596Y-33723625D01*
X54395441Y-33721754D01*
X54455209Y-33757941D01*
G37*
%TD.AperFunction*%
%TA.AperFunction,Conductor*%
G36*
X95990000Y-29778477D02*
G01*
X96079541Y-29764296D01*
X96291213Y-29695519D01*
X96361054Y-29693524D01*
X96420887Y-29729604D01*
X96439440Y-29756038D01*
X96490300Y-29853404D01*
X96490302Y-29853407D01*
X96539005Y-29913136D01*
X96618890Y-30011109D01*
X96731714Y-30103104D01*
X96776593Y-30139698D01*
X96912914Y-30210906D01*
X96963218Y-30259389D01*
X96979500Y-30320812D01*
X96979500Y-32129953D01*
X96959815Y-32196992D01*
X96943181Y-32217634D01*
X95497634Y-33663181D01*
X95436311Y-33696666D01*
X95409953Y-33699500D01*
X92602352Y-33699500D01*
X92397648Y-33699500D01*
X92350779Y-33706923D01*
X92195468Y-33731522D01*
X92195467Y-33731522D01*
X92131360Y-33752352D01*
X92000782Y-33794779D01*
X92000781Y-33794779D01*
X91909584Y-33841245D01*
X91909585Y-33841246D01*
X91818388Y-33887713D01*
X91652778Y-34008036D01*
X88452887Y-37207927D01*
X88391564Y-37241412D01*
X88321872Y-37236428D01*
X88265939Y-37194556D01*
X88245433Y-37152344D01*
X88180950Y-36911687D01*
X88083104Y-36675465D01*
X88083102Y-36675462D01*
X88083100Y-36675457D01*
X87955265Y-36454042D01*
X87955261Y-36454035D01*
X87799610Y-36251187D01*
X87799605Y-36251181D01*
X87784364Y-36235940D01*
X87750879Y-36174617D01*
X87755863Y-36104925D01*
X87773598Y-36057376D01*
X87779999Y-35997844D01*
X87780000Y-35997827D01*
X87780000Y-35250000D01*
X86763012Y-35250000D01*
X86795925Y-35192993D01*
X86830000Y-35065826D01*
X86830000Y-34934174D01*
X86795925Y-34807007D01*
X86763012Y-34750000D01*
X87780000Y-34750000D01*
X87780000Y-34002172D01*
X87779999Y-34002155D01*
X87773598Y-33942627D01*
X87773596Y-33942620D01*
X87723354Y-33807913D01*
X87723350Y-33807906D01*
X87637190Y-33692812D01*
X87637187Y-33692809D01*
X87522093Y-33606649D01*
X87522086Y-33606645D01*
X87387379Y-33556403D01*
X87387372Y-33556401D01*
X87327844Y-33550000D01*
X86588547Y-33550000D01*
X86521508Y-33530315D01*
X86475753Y-33477511D01*
X86465809Y-33408353D01*
X86494834Y-33344797D01*
X86500866Y-33338319D01*
X86502366Y-33336819D01*
X86563689Y-33303334D01*
X86590047Y-33300500D01*
X91602351Y-33300500D01*
X91602352Y-33300500D01*
X91804535Y-33268477D01*
X91910809Y-33233946D01*
X91999219Y-33205220D01*
X92090414Y-33158753D01*
X92181611Y-33112287D01*
X92347219Y-32991966D01*
X94191966Y-31147219D01*
X94312287Y-30981611D01*
X94369976Y-30868389D01*
X94405220Y-30799219D01*
X94468477Y-30604534D01*
X94477370Y-30548390D01*
X94483762Y-30508034D01*
X94500500Y-30402357D01*
X94500500Y-29859285D01*
X94520185Y-29792246D01*
X94536814Y-29771608D01*
X94669610Y-29638813D01*
X94731165Y-29558593D01*
X94787589Y-29517393D01*
X94857335Y-29513238D01*
X94902423Y-29533764D01*
X94980030Y-29590148D01*
X95183395Y-29693769D01*
X95400455Y-29764295D01*
X95490000Y-29778478D01*
X95490000Y-28783012D01*
X95547007Y-28815925D01*
X95674174Y-28850000D01*
X95805826Y-28850000D01*
X95932993Y-28815925D01*
X95990000Y-28783012D01*
X95990000Y-29778477D01*
G37*
%TD.AperFunction*%
%TD*%
M02*
