%TF.GenerationSoftware,KiCad,Pcbnew,10.0.0*%
%TF.CreationDate,2026-04-19T14:02:47-03:00*%
%TF.ProjectId,Onboard_Comp,4f6e626f-6172-4645-9f43-6f6d702e6b69,rev?*%
%TF.SameCoordinates,Original*%
%TF.FileFunction,Legend,Top*%
%TF.FilePolarity,Positive*%
%FSLAX46Y46*%
G04 Gerber Fmt 4.6, Leading zero omitted, Abs format (unit mm)*
G04 Created by KiCad (PCBNEW 10.0.0) date 2026-04-19 14:02:47*
%MOMM*%
%LPD*%
G01*
G04 APERTURE LIST*
%ADD10C,0.300000*%
%ADD11C,0.187500*%
%ADD12C,0.150000*%
%ADD13C,0.120000*%
%ADD14C,0.010000*%
G04 APERTURE END LIST*
D10*
X51189171Y-42700225D02*
X49689171Y-43200225D01*
X49689171Y-43200225D02*
X51189171Y-43700225D01*
X49689171Y-44200224D02*
X50689171Y-44200224D01*
X51189171Y-44200224D02*
X51117742Y-44128796D01*
X51117742Y-44128796D02*
X51046314Y-44200224D01*
X51046314Y-44200224D02*
X51117742Y-44271653D01*
X51117742Y-44271653D02*
X51189171Y-44200224D01*
X51189171Y-44200224D02*
X51046314Y-44200224D01*
X50689171Y-44914510D02*
X49689171Y-44914510D01*
X50546314Y-44914510D02*
X50617742Y-44985939D01*
X50617742Y-44985939D02*
X50689171Y-45128796D01*
X50689171Y-45128796D02*
X50689171Y-45343082D01*
X50689171Y-45343082D02*
X50617742Y-45485939D01*
X50617742Y-45485939D02*
X50474885Y-45557368D01*
X50474885Y-45557368D02*
X49689171Y-45557368D01*
X78171860Y-47411653D02*
X78100432Y-47340225D01*
X78100432Y-47340225D02*
X78029003Y-47125939D01*
X78029003Y-47125939D02*
X78029003Y-46983082D01*
X78029003Y-46983082D02*
X78100432Y-46768796D01*
X78100432Y-46768796D02*
X78243289Y-46625939D01*
X78243289Y-46625939D02*
X78386146Y-46554510D01*
X78386146Y-46554510D02*
X78671860Y-46483082D01*
X78671860Y-46483082D02*
X78886146Y-46483082D01*
X78886146Y-46483082D02*
X79171860Y-46554510D01*
X79171860Y-46554510D02*
X79314717Y-46625939D01*
X79314717Y-46625939D02*
X79457574Y-46768796D01*
X79457574Y-46768796D02*
X79529003Y-46983082D01*
X79529003Y-46983082D02*
X79529003Y-47125939D01*
X79529003Y-47125939D02*
X79457574Y-47340225D01*
X79457574Y-47340225D02*
X79386146Y-47411653D01*
X78029003Y-48268796D02*
X78100432Y-48125939D01*
X78100432Y-48125939D02*
X78171860Y-48054510D01*
X78171860Y-48054510D02*
X78314717Y-47983082D01*
X78314717Y-47983082D02*
X78743289Y-47983082D01*
X78743289Y-47983082D02*
X78886146Y-48054510D01*
X78886146Y-48054510D02*
X78957574Y-48125939D01*
X78957574Y-48125939D02*
X79029003Y-48268796D01*
X79029003Y-48268796D02*
X79029003Y-48483082D01*
X79029003Y-48483082D02*
X78957574Y-48625939D01*
X78957574Y-48625939D02*
X78886146Y-48697368D01*
X78886146Y-48697368D02*
X78743289Y-48768796D01*
X78743289Y-48768796D02*
X78314717Y-48768796D01*
X78314717Y-48768796D02*
X78171860Y-48697368D01*
X78171860Y-48697368D02*
X78100432Y-48625939D01*
X78100432Y-48625939D02*
X78029003Y-48483082D01*
X78029003Y-48483082D02*
X78029003Y-48268796D01*
X78029003Y-49411653D02*
X79029003Y-49411653D01*
X78886146Y-49411653D02*
X78957574Y-49483082D01*
X78957574Y-49483082D02*
X79029003Y-49625939D01*
X79029003Y-49625939D02*
X79029003Y-49840225D01*
X79029003Y-49840225D02*
X78957574Y-49983082D01*
X78957574Y-49983082D02*
X78814717Y-50054511D01*
X78814717Y-50054511D02*
X78029003Y-50054511D01*
X78814717Y-50054511D02*
X78957574Y-50125939D01*
X78957574Y-50125939D02*
X79029003Y-50268796D01*
X79029003Y-50268796D02*
X79029003Y-50483082D01*
X79029003Y-50483082D02*
X78957574Y-50625939D01*
X78957574Y-50625939D02*
X78814717Y-50697368D01*
X78814717Y-50697368D02*
X78029003Y-50697368D01*
X79029003Y-51411653D02*
X77529003Y-51411653D01*
X78957574Y-51411653D02*
X79029003Y-51554511D01*
X79029003Y-51554511D02*
X79029003Y-51840225D01*
X79029003Y-51840225D02*
X78957574Y-51983082D01*
X78957574Y-51983082D02*
X78886146Y-52054511D01*
X78886146Y-52054511D02*
X78743289Y-52125939D01*
X78743289Y-52125939D02*
X78314717Y-52125939D01*
X78314717Y-52125939D02*
X78171860Y-52054511D01*
X78171860Y-52054511D02*
X78100432Y-51983082D01*
X78100432Y-51983082D02*
X78029003Y-51840225D01*
X78029003Y-51840225D02*
X78029003Y-51554511D01*
X78029003Y-51554511D02*
X78100432Y-51411653D01*
X79029003Y-53411654D02*
X78029003Y-53411654D01*
X79029003Y-52768796D02*
X78243289Y-52768796D01*
X78243289Y-52768796D02*
X78100432Y-52840225D01*
X78100432Y-52840225D02*
X78029003Y-52983082D01*
X78029003Y-52983082D02*
X78029003Y-53197368D01*
X78029003Y-53197368D02*
X78100432Y-53340225D01*
X78100432Y-53340225D02*
X78171860Y-53411654D01*
X79029003Y-53911654D02*
X79029003Y-54483082D01*
X79529003Y-54125939D02*
X78243289Y-54125939D01*
X78243289Y-54125939D02*
X78100432Y-54197368D01*
X78100432Y-54197368D02*
X78029003Y-54340225D01*
X78029003Y-54340225D02*
X78029003Y-54483082D01*
X78029003Y-55625940D02*
X78814717Y-55625940D01*
X78814717Y-55625940D02*
X78957574Y-55554511D01*
X78957574Y-55554511D02*
X79029003Y-55411654D01*
X79029003Y-55411654D02*
X79029003Y-55125940D01*
X79029003Y-55125940D02*
X78957574Y-54983082D01*
X78100432Y-55625940D02*
X78029003Y-55483082D01*
X78029003Y-55483082D02*
X78029003Y-55125940D01*
X78029003Y-55125940D02*
X78100432Y-54983082D01*
X78100432Y-54983082D02*
X78243289Y-54911654D01*
X78243289Y-54911654D02*
X78386146Y-54911654D01*
X78386146Y-54911654D02*
X78529003Y-54983082D01*
X78529003Y-54983082D02*
X78600432Y-55125940D01*
X78600432Y-55125940D02*
X78600432Y-55483082D01*
X78600432Y-55483082D02*
X78671860Y-55625940D01*
X78029003Y-56983083D02*
X79529003Y-56983083D01*
X78100432Y-56983083D02*
X78029003Y-56840225D01*
X78029003Y-56840225D02*
X78029003Y-56554511D01*
X78029003Y-56554511D02*
X78100432Y-56411654D01*
X78100432Y-56411654D02*
X78171860Y-56340225D01*
X78171860Y-56340225D02*
X78314717Y-56268797D01*
X78314717Y-56268797D02*
X78743289Y-56268797D01*
X78743289Y-56268797D02*
X78886146Y-56340225D01*
X78886146Y-56340225D02*
X78957574Y-56411654D01*
X78957574Y-56411654D02*
X79029003Y-56554511D01*
X79029003Y-56554511D02*
X79029003Y-56840225D01*
X79029003Y-56840225D02*
X78957574Y-56983083D01*
X78029003Y-57911654D02*
X78100432Y-57768797D01*
X78100432Y-57768797D02*
X78171860Y-57697368D01*
X78171860Y-57697368D02*
X78314717Y-57625940D01*
X78314717Y-57625940D02*
X78743289Y-57625940D01*
X78743289Y-57625940D02*
X78886146Y-57697368D01*
X78886146Y-57697368D02*
X78957574Y-57768797D01*
X78957574Y-57768797D02*
X79029003Y-57911654D01*
X79029003Y-57911654D02*
X79029003Y-58125940D01*
X79029003Y-58125940D02*
X78957574Y-58268797D01*
X78957574Y-58268797D02*
X78886146Y-58340226D01*
X78886146Y-58340226D02*
X78743289Y-58411654D01*
X78743289Y-58411654D02*
X78314717Y-58411654D01*
X78314717Y-58411654D02*
X78171860Y-58340226D01*
X78171860Y-58340226D02*
X78100432Y-58268797D01*
X78100432Y-58268797D02*
X78029003Y-58125940D01*
X78029003Y-58125940D02*
X78029003Y-57911654D01*
X78029003Y-59054511D02*
X79029003Y-59054511D01*
X78743289Y-59054511D02*
X78886146Y-59125940D01*
X78886146Y-59125940D02*
X78957574Y-59197369D01*
X78957574Y-59197369D02*
X79029003Y-59340226D01*
X79029003Y-59340226D02*
X79029003Y-59483083D01*
X78029003Y-60625940D02*
X78814717Y-60625940D01*
X78814717Y-60625940D02*
X78957574Y-60554511D01*
X78957574Y-60554511D02*
X79029003Y-60411654D01*
X79029003Y-60411654D02*
X79029003Y-60125940D01*
X79029003Y-60125940D02*
X78957574Y-59983082D01*
X78100432Y-60625940D02*
X78029003Y-60483082D01*
X78029003Y-60483082D02*
X78029003Y-60125940D01*
X78029003Y-60125940D02*
X78100432Y-59983082D01*
X78100432Y-59983082D02*
X78243289Y-59911654D01*
X78243289Y-59911654D02*
X78386146Y-59911654D01*
X78386146Y-59911654D02*
X78529003Y-59983082D01*
X78529003Y-59983082D02*
X78600432Y-60125940D01*
X78600432Y-60125940D02*
X78600432Y-60483082D01*
X78600432Y-60483082D02*
X78671860Y-60625940D01*
X75614087Y-52840225D02*
X77114087Y-52840225D01*
X75685516Y-52840225D02*
X75614087Y-52697367D01*
X75614087Y-52697367D02*
X75614087Y-52411653D01*
X75614087Y-52411653D02*
X75685516Y-52268796D01*
X75685516Y-52268796D02*
X75756944Y-52197367D01*
X75756944Y-52197367D02*
X75899801Y-52125939D01*
X75899801Y-52125939D02*
X76328373Y-52125939D01*
X76328373Y-52125939D02*
X76471230Y-52197367D01*
X76471230Y-52197367D02*
X76542658Y-52268796D01*
X76542658Y-52268796D02*
X76614087Y-52411653D01*
X76614087Y-52411653D02*
X76614087Y-52697367D01*
X76614087Y-52697367D02*
X76542658Y-52840225D01*
X75685516Y-54125939D02*
X75614087Y-53983082D01*
X75614087Y-53983082D02*
X75614087Y-53697368D01*
X75614087Y-53697368D02*
X75685516Y-53554510D01*
X75685516Y-53554510D02*
X75828373Y-53483082D01*
X75828373Y-53483082D02*
X76399801Y-53483082D01*
X76399801Y-53483082D02*
X76542658Y-53554510D01*
X76542658Y-53554510D02*
X76614087Y-53697368D01*
X76614087Y-53697368D02*
X76614087Y-53983082D01*
X76614087Y-53983082D02*
X76542658Y-54125939D01*
X76542658Y-54125939D02*
X76399801Y-54197368D01*
X76399801Y-54197368D02*
X76256944Y-54197368D01*
X76256944Y-54197368D02*
X76114087Y-53483082D01*
X73627742Y-48768796D02*
X73627742Y-49483082D01*
X73199171Y-48625939D02*
X74699171Y-49125939D01*
X74699171Y-49125939D02*
X73199171Y-49625939D01*
X73984885Y-51768795D02*
X73913457Y-51983081D01*
X73913457Y-51983081D02*
X73842028Y-52054510D01*
X73842028Y-52054510D02*
X73699171Y-52125938D01*
X73699171Y-52125938D02*
X73484885Y-52125938D01*
X73484885Y-52125938D02*
X73342028Y-52054510D01*
X73342028Y-52054510D02*
X73270600Y-51983081D01*
X73270600Y-51983081D02*
X73199171Y-51840224D01*
X73199171Y-51840224D02*
X73199171Y-51268795D01*
X73199171Y-51268795D02*
X74699171Y-51268795D01*
X74699171Y-51268795D02*
X74699171Y-51768795D01*
X74699171Y-51768795D02*
X74627742Y-51911653D01*
X74627742Y-51911653D02*
X74556314Y-51983081D01*
X74556314Y-51983081D02*
X74413457Y-52054510D01*
X74413457Y-52054510D02*
X74270600Y-52054510D01*
X74270600Y-52054510D02*
X74127742Y-51983081D01*
X74127742Y-51983081D02*
X74056314Y-51911653D01*
X74056314Y-51911653D02*
X73984885Y-51768795D01*
X73984885Y-51768795D02*
X73984885Y-51268795D01*
X73199171Y-52983081D02*
X73270600Y-52840224D01*
X73270600Y-52840224D02*
X73342028Y-52768795D01*
X73342028Y-52768795D02*
X73484885Y-52697367D01*
X73484885Y-52697367D02*
X73913457Y-52697367D01*
X73913457Y-52697367D02*
X74056314Y-52768795D01*
X74056314Y-52768795D02*
X74127742Y-52840224D01*
X74127742Y-52840224D02*
X74199171Y-52983081D01*
X74199171Y-52983081D02*
X74199171Y-53197367D01*
X74199171Y-53197367D02*
X74127742Y-53340224D01*
X74127742Y-53340224D02*
X74056314Y-53411653D01*
X74056314Y-53411653D02*
X73913457Y-53483081D01*
X73913457Y-53483081D02*
X73484885Y-53483081D01*
X73484885Y-53483081D02*
X73342028Y-53411653D01*
X73342028Y-53411653D02*
X73270600Y-53340224D01*
X73270600Y-53340224D02*
X73199171Y-53197367D01*
X73199171Y-53197367D02*
X73199171Y-52983081D01*
X73199171Y-54125938D02*
X74199171Y-54125938D01*
X73913457Y-54125938D02*
X74056314Y-54197367D01*
X74056314Y-54197367D02*
X74127742Y-54268796D01*
X74127742Y-54268796D02*
X74199171Y-54411653D01*
X74199171Y-54411653D02*
X74199171Y-54554510D01*
X73199171Y-55697367D02*
X74699171Y-55697367D01*
X73270600Y-55697367D02*
X73199171Y-55554509D01*
X73199171Y-55554509D02*
X73199171Y-55268795D01*
X73199171Y-55268795D02*
X73270600Y-55125938D01*
X73270600Y-55125938D02*
X73342028Y-55054509D01*
X73342028Y-55054509D02*
X73484885Y-54983081D01*
X73484885Y-54983081D02*
X73913457Y-54983081D01*
X73913457Y-54983081D02*
X74056314Y-55054509D01*
X74056314Y-55054509D02*
X74127742Y-55125938D01*
X74127742Y-55125938D02*
X74199171Y-55268795D01*
X74199171Y-55268795D02*
X74199171Y-55554509D01*
X74199171Y-55554509D02*
X74127742Y-55697367D01*
X73199171Y-56625938D02*
X73270600Y-56483081D01*
X73270600Y-56483081D02*
X73342028Y-56411652D01*
X73342028Y-56411652D02*
X73484885Y-56340224D01*
X73484885Y-56340224D02*
X73913457Y-56340224D01*
X73913457Y-56340224D02*
X74056314Y-56411652D01*
X74056314Y-56411652D02*
X74127742Y-56483081D01*
X74127742Y-56483081D02*
X74199171Y-56625938D01*
X74199171Y-56625938D02*
X74199171Y-56840224D01*
X74199171Y-56840224D02*
X74127742Y-56983081D01*
X74127742Y-56983081D02*
X74056314Y-57054510D01*
X74056314Y-57054510D02*
X73913457Y-57125938D01*
X73913457Y-57125938D02*
X73484885Y-57125938D01*
X73484885Y-57125938D02*
X73342028Y-57054510D01*
X73342028Y-57054510D02*
X73270600Y-56983081D01*
X73270600Y-56983081D02*
X73199171Y-56840224D01*
X73199171Y-56840224D02*
X73199171Y-56625938D01*
D11*
X67490497Y-77296227D02*
X67085735Y-77296227D01*
X67085735Y-77296227D02*
X67045259Y-77700989D01*
X67045259Y-77700989D02*
X67085735Y-77660512D01*
X67085735Y-77660512D02*
X67166688Y-77620036D01*
X67166688Y-77620036D02*
X67369069Y-77620036D01*
X67369069Y-77620036D02*
X67450021Y-77660512D01*
X67450021Y-77660512D02*
X67490497Y-77700989D01*
X67490497Y-77700989D02*
X67530974Y-77781941D01*
X67530974Y-77781941D02*
X67530974Y-77984322D01*
X67530974Y-77984322D02*
X67490497Y-78065274D01*
X67490497Y-78065274D02*
X67450021Y-78105751D01*
X67450021Y-78105751D02*
X67369069Y-78146227D01*
X67369069Y-78146227D02*
X67166688Y-78146227D01*
X67166688Y-78146227D02*
X67085735Y-78105751D01*
X67085735Y-78105751D02*
X67045259Y-78065274D01*
X67773831Y-77296227D02*
X68057164Y-78146227D01*
X68057164Y-78146227D02*
X68340498Y-77296227D01*
D10*
X105168796Y-44400828D02*
X104454510Y-44400828D01*
X104454510Y-44400828D02*
X104454510Y-42900828D01*
X105883082Y-44400828D02*
X105740225Y-44329400D01*
X105740225Y-44329400D02*
X105668796Y-44257971D01*
X105668796Y-44257971D02*
X105597368Y-44115114D01*
X105597368Y-44115114D02*
X105597368Y-43686542D01*
X105597368Y-43686542D02*
X105668796Y-43543685D01*
X105668796Y-43543685D02*
X105740225Y-43472257D01*
X105740225Y-43472257D02*
X105883082Y-43400828D01*
X105883082Y-43400828D02*
X106097368Y-43400828D01*
X106097368Y-43400828D02*
X106240225Y-43472257D01*
X106240225Y-43472257D02*
X106311654Y-43543685D01*
X106311654Y-43543685D02*
X106383082Y-43686542D01*
X106383082Y-43686542D02*
X106383082Y-44115114D01*
X106383082Y-44115114D02*
X106311654Y-44257971D01*
X106311654Y-44257971D02*
X106240225Y-44329400D01*
X106240225Y-44329400D02*
X106097368Y-44400828D01*
X106097368Y-44400828D02*
X105883082Y-44400828D01*
X107883082Y-44400828D02*
X107383082Y-43686542D01*
X107025939Y-44400828D02*
X107025939Y-42900828D01*
X107025939Y-42900828D02*
X107597368Y-42900828D01*
X107597368Y-42900828D02*
X107740225Y-42972257D01*
X107740225Y-42972257D02*
X107811654Y-43043685D01*
X107811654Y-43043685D02*
X107883082Y-43186542D01*
X107883082Y-43186542D02*
X107883082Y-43400828D01*
X107883082Y-43400828D02*
X107811654Y-43543685D01*
X107811654Y-43543685D02*
X107740225Y-43615114D01*
X107740225Y-43615114D02*
X107597368Y-43686542D01*
X107597368Y-43686542D02*
X107025939Y-43686542D01*
X109168797Y-44400828D02*
X109168797Y-43615114D01*
X109168797Y-43615114D02*
X109097368Y-43472257D01*
X109097368Y-43472257D02*
X108954511Y-43400828D01*
X108954511Y-43400828D02*
X108668797Y-43400828D01*
X108668797Y-43400828D02*
X108525939Y-43472257D01*
X109168797Y-44329400D02*
X109025939Y-44400828D01*
X109025939Y-44400828D02*
X108668797Y-44400828D01*
X108668797Y-44400828D02*
X108525939Y-44329400D01*
X108525939Y-44329400D02*
X108454511Y-44186542D01*
X108454511Y-44186542D02*
X108454511Y-44043685D01*
X108454511Y-44043685D02*
X108525939Y-43900828D01*
X108525939Y-43900828D02*
X108668797Y-43829400D01*
X108668797Y-43829400D02*
X109025939Y-43829400D01*
X109025939Y-43829400D02*
X109168797Y-43757971D01*
D11*
X68361450Y-25292869D02*
X68361450Y-24292869D01*
X68361450Y-24292869D02*
X68599545Y-24292869D01*
X68599545Y-24292869D02*
X68742402Y-24340488D01*
X68742402Y-24340488D02*
X68837640Y-24435726D01*
X68837640Y-24435726D02*
X68885259Y-24530964D01*
X68885259Y-24530964D02*
X68932878Y-24721440D01*
X68932878Y-24721440D02*
X68932878Y-24864297D01*
X68932878Y-24864297D02*
X68885259Y-25054773D01*
X68885259Y-25054773D02*
X68837640Y-25150011D01*
X68837640Y-25150011D02*
X68742402Y-25245250D01*
X68742402Y-25245250D02*
X68599545Y-25292869D01*
X68599545Y-25292869D02*
X68361450Y-25292869D01*
X69742402Y-25245250D02*
X69647164Y-25292869D01*
X69647164Y-25292869D02*
X69456688Y-25292869D01*
X69456688Y-25292869D02*
X69361450Y-25245250D01*
X69361450Y-25245250D02*
X69313831Y-25150011D01*
X69313831Y-25150011D02*
X69313831Y-24769059D01*
X69313831Y-24769059D02*
X69361450Y-24673821D01*
X69361450Y-24673821D02*
X69456688Y-24626202D01*
X69456688Y-24626202D02*
X69647164Y-24626202D01*
X69647164Y-24626202D02*
X69742402Y-24673821D01*
X69742402Y-24673821D02*
X69790021Y-24769059D01*
X69790021Y-24769059D02*
X69790021Y-24864297D01*
X69790021Y-24864297D02*
X69313831Y-24959535D01*
X70170974Y-25245250D02*
X70266212Y-25292869D01*
X70266212Y-25292869D02*
X70456688Y-25292869D01*
X70456688Y-25292869D02*
X70551926Y-25245250D01*
X70551926Y-25245250D02*
X70599545Y-25150011D01*
X70599545Y-25150011D02*
X70599545Y-25102392D01*
X70599545Y-25102392D02*
X70551926Y-25007154D01*
X70551926Y-25007154D02*
X70456688Y-24959535D01*
X70456688Y-24959535D02*
X70313831Y-24959535D01*
X70313831Y-24959535D02*
X70218593Y-24911916D01*
X70218593Y-24911916D02*
X70170974Y-24816678D01*
X70170974Y-24816678D02*
X70170974Y-24769059D01*
X70170974Y-24769059D02*
X70218593Y-24673821D01*
X70218593Y-24673821D02*
X70313831Y-24626202D01*
X70313831Y-24626202D02*
X70456688Y-24626202D01*
X70456688Y-24626202D02*
X70551926Y-24673821D01*
X71028117Y-25292869D02*
X71028117Y-24626202D01*
X71028117Y-24292869D02*
X70980498Y-24340488D01*
X70980498Y-24340488D02*
X71028117Y-24388107D01*
X71028117Y-24388107D02*
X71075736Y-24340488D01*
X71075736Y-24340488D02*
X71028117Y-24292869D01*
X71028117Y-24292869D02*
X71028117Y-24388107D01*
X71932878Y-24626202D02*
X71932878Y-25435726D01*
X71932878Y-25435726D02*
X71885259Y-25530964D01*
X71885259Y-25530964D02*
X71837640Y-25578583D01*
X71837640Y-25578583D02*
X71742402Y-25626202D01*
X71742402Y-25626202D02*
X71599545Y-25626202D01*
X71599545Y-25626202D02*
X71504307Y-25578583D01*
X71932878Y-25245250D02*
X71837640Y-25292869D01*
X71837640Y-25292869D02*
X71647164Y-25292869D01*
X71647164Y-25292869D02*
X71551926Y-25245250D01*
X71551926Y-25245250D02*
X71504307Y-25197630D01*
X71504307Y-25197630D02*
X71456688Y-25102392D01*
X71456688Y-25102392D02*
X71456688Y-24816678D01*
X71456688Y-24816678D02*
X71504307Y-24721440D01*
X71504307Y-24721440D02*
X71551926Y-24673821D01*
X71551926Y-24673821D02*
X71647164Y-24626202D01*
X71647164Y-24626202D02*
X71837640Y-24626202D01*
X71837640Y-24626202D02*
X71932878Y-24673821D01*
X72409069Y-24626202D02*
X72409069Y-25292869D01*
X72409069Y-24721440D02*
X72456688Y-24673821D01*
X72456688Y-24673821D02*
X72551926Y-24626202D01*
X72551926Y-24626202D02*
X72694783Y-24626202D01*
X72694783Y-24626202D02*
X72790021Y-24673821D01*
X72790021Y-24673821D02*
X72837640Y-24769059D01*
X72837640Y-24769059D02*
X72837640Y-25292869D01*
X73694783Y-25245250D02*
X73599545Y-25292869D01*
X73599545Y-25292869D02*
X73409069Y-25292869D01*
X73409069Y-25292869D02*
X73313831Y-25245250D01*
X73313831Y-25245250D02*
X73266212Y-25150011D01*
X73266212Y-25150011D02*
X73266212Y-24769059D01*
X73266212Y-24769059D02*
X73313831Y-24673821D01*
X73313831Y-24673821D02*
X73409069Y-24626202D01*
X73409069Y-24626202D02*
X73599545Y-24626202D01*
X73599545Y-24626202D02*
X73694783Y-24673821D01*
X73694783Y-24673821D02*
X73742402Y-24769059D01*
X73742402Y-24769059D02*
X73742402Y-24864297D01*
X73742402Y-24864297D02*
X73266212Y-24959535D01*
X74599545Y-25292869D02*
X74599545Y-24292869D01*
X74599545Y-25245250D02*
X74504307Y-25292869D01*
X74504307Y-25292869D02*
X74313831Y-25292869D01*
X74313831Y-25292869D02*
X74218593Y-25245250D01*
X74218593Y-25245250D02*
X74170974Y-25197630D01*
X74170974Y-25197630D02*
X74123355Y-25102392D01*
X74123355Y-25102392D02*
X74123355Y-24816678D01*
X74123355Y-24816678D02*
X74170974Y-24721440D01*
X74170974Y-24721440D02*
X74218593Y-24673821D01*
X74218593Y-24673821D02*
X74313831Y-24626202D01*
X74313831Y-24626202D02*
X74504307Y-24626202D01*
X74504307Y-24626202D02*
X74599545Y-24673821D01*
X75837641Y-25292869D02*
X75837641Y-24292869D01*
X75837641Y-24673821D02*
X75932879Y-24626202D01*
X75932879Y-24626202D02*
X76123355Y-24626202D01*
X76123355Y-24626202D02*
X76218593Y-24673821D01*
X76218593Y-24673821D02*
X76266212Y-24721440D01*
X76266212Y-24721440D02*
X76313831Y-24816678D01*
X76313831Y-24816678D02*
X76313831Y-25102392D01*
X76313831Y-25102392D02*
X76266212Y-25197630D01*
X76266212Y-25197630D02*
X76218593Y-25245250D01*
X76218593Y-25245250D02*
X76123355Y-25292869D01*
X76123355Y-25292869D02*
X75932879Y-25292869D01*
X75932879Y-25292869D02*
X75837641Y-25245250D01*
X76647165Y-24626202D02*
X76885260Y-25292869D01*
X77123355Y-24626202D02*
X76885260Y-25292869D01*
X76885260Y-25292869D02*
X76790022Y-25530964D01*
X76790022Y-25530964D02*
X76742403Y-25578583D01*
X76742403Y-25578583D02*
X76647165Y-25626202D01*
X78266213Y-25292869D02*
X78266213Y-24292869D01*
X78266213Y-24292869D02*
X78647165Y-24292869D01*
X78647165Y-24292869D02*
X78742403Y-24340488D01*
X78742403Y-24340488D02*
X78790022Y-24388107D01*
X78790022Y-24388107D02*
X78837641Y-24483345D01*
X78837641Y-24483345D02*
X78837641Y-24626202D01*
X78837641Y-24626202D02*
X78790022Y-24721440D01*
X78790022Y-24721440D02*
X78742403Y-24769059D01*
X78742403Y-24769059D02*
X78647165Y-24816678D01*
X78647165Y-24816678D02*
X78266213Y-24816678D01*
X79266213Y-25292869D02*
X79266213Y-24626202D01*
X79266213Y-24816678D02*
X79313832Y-24721440D01*
X79313832Y-24721440D02*
X79361451Y-24673821D01*
X79361451Y-24673821D02*
X79456689Y-24626202D01*
X79456689Y-24626202D02*
X79551927Y-24626202D01*
X80028118Y-25292869D02*
X79932880Y-25245250D01*
X79932880Y-25245250D02*
X79885261Y-25197630D01*
X79885261Y-25197630D02*
X79837642Y-25102392D01*
X79837642Y-25102392D02*
X79837642Y-24816678D01*
X79837642Y-24816678D02*
X79885261Y-24721440D01*
X79885261Y-24721440D02*
X79932880Y-24673821D01*
X79932880Y-24673821D02*
X80028118Y-24626202D01*
X80028118Y-24626202D02*
X80170975Y-24626202D01*
X80170975Y-24626202D02*
X80266213Y-24673821D01*
X80266213Y-24673821D02*
X80313832Y-24721440D01*
X80313832Y-24721440D02*
X80361451Y-24816678D01*
X80361451Y-24816678D02*
X80361451Y-25102392D01*
X80361451Y-25102392D02*
X80313832Y-25197630D01*
X80313832Y-25197630D02*
X80266213Y-25245250D01*
X80266213Y-25245250D02*
X80170975Y-25292869D01*
X80170975Y-25292869D02*
X80028118Y-25292869D01*
X80647166Y-24626202D02*
X81028118Y-24626202D01*
X80790023Y-25292869D02*
X80790023Y-24435726D01*
X80790023Y-24435726D02*
X80837642Y-24340488D01*
X80837642Y-24340488D02*
X80932880Y-24292869D01*
X80932880Y-24292869D02*
X81028118Y-24292869D01*
X81361452Y-25197630D02*
X81409071Y-25245250D01*
X81409071Y-25245250D02*
X81361452Y-25292869D01*
X81361452Y-25292869D02*
X81313833Y-25245250D01*
X81313833Y-25245250D02*
X81361452Y-25197630D01*
X81361452Y-25197630D02*
X81361452Y-25292869D01*
X82599547Y-25292869D02*
X82599547Y-24292869D01*
X82599547Y-24292869D02*
X82837642Y-24292869D01*
X82837642Y-24292869D02*
X82980499Y-24340488D01*
X82980499Y-24340488D02*
X83075737Y-24435726D01*
X83075737Y-24435726D02*
X83123356Y-24530964D01*
X83123356Y-24530964D02*
X83170975Y-24721440D01*
X83170975Y-24721440D02*
X83170975Y-24864297D01*
X83170975Y-24864297D02*
X83123356Y-25054773D01*
X83123356Y-25054773D02*
X83075737Y-25150011D01*
X83075737Y-25150011D02*
X82980499Y-25245250D01*
X82980499Y-25245250D02*
X82837642Y-25292869D01*
X82837642Y-25292869D02*
X82599547Y-25292869D01*
X84028118Y-25292869D02*
X84028118Y-24769059D01*
X84028118Y-24769059D02*
X83980499Y-24673821D01*
X83980499Y-24673821D02*
X83885261Y-24626202D01*
X83885261Y-24626202D02*
X83694785Y-24626202D01*
X83694785Y-24626202D02*
X83599547Y-24673821D01*
X84028118Y-25245250D02*
X83932880Y-25292869D01*
X83932880Y-25292869D02*
X83694785Y-25292869D01*
X83694785Y-25292869D02*
X83599547Y-25245250D01*
X83599547Y-25245250D02*
X83551928Y-25150011D01*
X83551928Y-25150011D02*
X83551928Y-25054773D01*
X83551928Y-25054773D02*
X83599547Y-24959535D01*
X83599547Y-24959535D02*
X83694785Y-24911916D01*
X83694785Y-24911916D02*
X83932880Y-24911916D01*
X83932880Y-24911916D02*
X84028118Y-24864297D01*
X84504309Y-25292869D02*
X84504309Y-24626202D01*
X84504309Y-24721440D02*
X84551928Y-24673821D01*
X84551928Y-24673821D02*
X84647166Y-24626202D01*
X84647166Y-24626202D02*
X84790023Y-24626202D01*
X84790023Y-24626202D02*
X84885261Y-24673821D01*
X84885261Y-24673821D02*
X84932880Y-24769059D01*
X84932880Y-24769059D02*
X84932880Y-25292869D01*
X84932880Y-24769059D02*
X84980499Y-24673821D01*
X84980499Y-24673821D02*
X85075737Y-24626202D01*
X85075737Y-24626202D02*
X85218594Y-24626202D01*
X85218594Y-24626202D02*
X85313833Y-24673821D01*
X85313833Y-24673821D02*
X85361452Y-24769059D01*
X85361452Y-24769059D02*
X85361452Y-25292869D01*
X85837642Y-25292869D02*
X85837642Y-24626202D01*
X85837642Y-24292869D02*
X85790023Y-24340488D01*
X85790023Y-24340488D02*
X85837642Y-24388107D01*
X85837642Y-24388107D02*
X85885261Y-24340488D01*
X85885261Y-24340488D02*
X85837642Y-24292869D01*
X85837642Y-24292869D02*
X85837642Y-24388107D01*
X86742403Y-25292869D02*
X86742403Y-24769059D01*
X86742403Y-24769059D02*
X86694784Y-24673821D01*
X86694784Y-24673821D02*
X86599546Y-24626202D01*
X86599546Y-24626202D02*
X86409070Y-24626202D01*
X86409070Y-24626202D02*
X86313832Y-24673821D01*
X86742403Y-25245250D02*
X86647165Y-25292869D01*
X86647165Y-25292869D02*
X86409070Y-25292869D01*
X86409070Y-25292869D02*
X86313832Y-25245250D01*
X86313832Y-25245250D02*
X86266213Y-25150011D01*
X86266213Y-25150011D02*
X86266213Y-25054773D01*
X86266213Y-25054773D02*
X86313832Y-24959535D01*
X86313832Y-24959535D02*
X86409070Y-24911916D01*
X86409070Y-24911916D02*
X86647165Y-24911916D01*
X86647165Y-24911916D02*
X86742403Y-24864297D01*
X86599546Y-24245250D02*
X86456689Y-24388107D01*
X87218594Y-24626202D02*
X87218594Y-25292869D01*
X87218594Y-24721440D02*
X87266213Y-24673821D01*
X87266213Y-24673821D02*
X87361451Y-24626202D01*
X87361451Y-24626202D02*
X87504308Y-24626202D01*
X87504308Y-24626202D02*
X87599546Y-24673821D01*
X87599546Y-24673821D02*
X87647165Y-24769059D01*
X87647165Y-24769059D02*
X87647165Y-25292869D01*
X89456689Y-25292869D02*
X89123356Y-24816678D01*
X88885261Y-25292869D02*
X88885261Y-24292869D01*
X88885261Y-24292869D02*
X89266213Y-24292869D01*
X89266213Y-24292869D02*
X89361451Y-24340488D01*
X89361451Y-24340488D02*
X89409070Y-24388107D01*
X89409070Y-24388107D02*
X89456689Y-24483345D01*
X89456689Y-24483345D02*
X89456689Y-24626202D01*
X89456689Y-24626202D02*
X89409070Y-24721440D01*
X89409070Y-24721440D02*
X89361451Y-24769059D01*
X89361451Y-24769059D02*
X89266213Y-24816678D01*
X89266213Y-24816678D02*
X88885261Y-24816678D01*
X89885261Y-25292869D02*
X89885261Y-24626202D01*
X89885261Y-24292869D02*
X89837642Y-24340488D01*
X89837642Y-24340488D02*
X89885261Y-24388107D01*
X89885261Y-24388107D02*
X89932880Y-24340488D01*
X89932880Y-24340488D02*
X89885261Y-24292869D01*
X89885261Y-24292869D02*
X89885261Y-24388107D01*
X90361451Y-25292869D02*
X90361451Y-24626202D01*
X90361451Y-24721440D02*
X90409070Y-24673821D01*
X90409070Y-24673821D02*
X90504308Y-24626202D01*
X90504308Y-24626202D02*
X90647165Y-24626202D01*
X90647165Y-24626202D02*
X90742403Y-24673821D01*
X90742403Y-24673821D02*
X90790022Y-24769059D01*
X90790022Y-24769059D02*
X90790022Y-25292869D01*
X90790022Y-24769059D02*
X90837641Y-24673821D01*
X90837641Y-24673821D02*
X90932879Y-24626202D01*
X90932879Y-24626202D02*
X91075736Y-24626202D01*
X91075736Y-24626202D02*
X91170975Y-24673821D01*
X91170975Y-24673821D02*
X91218594Y-24769059D01*
X91218594Y-24769059D02*
X91218594Y-25292869D01*
X91837641Y-25292869D02*
X91742403Y-25245250D01*
X91742403Y-25245250D02*
X91694784Y-25197630D01*
X91694784Y-25197630D02*
X91647165Y-25102392D01*
X91647165Y-25102392D02*
X91647165Y-24816678D01*
X91647165Y-24816678D02*
X91694784Y-24721440D01*
X91694784Y-24721440D02*
X91742403Y-24673821D01*
X91742403Y-24673821D02*
X91837641Y-24626202D01*
X91837641Y-24626202D02*
X91980498Y-24626202D01*
X91980498Y-24626202D02*
X92075736Y-24673821D01*
X92075736Y-24673821D02*
X92123355Y-24721440D01*
X92123355Y-24721440D02*
X92170974Y-24816678D01*
X92170974Y-24816678D02*
X92170974Y-25102392D01*
X92170974Y-25102392D02*
X92123355Y-25197630D01*
X92123355Y-25197630D02*
X92075736Y-25245250D01*
X92075736Y-25245250D02*
X91980498Y-25292869D01*
X91980498Y-25292869D02*
X91837641Y-25292869D01*
X92742403Y-25292869D02*
X92647165Y-25245250D01*
X92647165Y-25245250D02*
X92599546Y-25150011D01*
X92599546Y-25150011D02*
X92599546Y-24292869D01*
X93551927Y-25292869D02*
X93551927Y-24292869D01*
X93551927Y-25245250D02*
X93456689Y-25292869D01*
X93456689Y-25292869D02*
X93266213Y-25292869D01*
X93266213Y-25292869D02*
X93170975Y-25245250D01*
X93170975Y-25245250D02*
X93123356Y-25197630D01*
X93123356Y-25197630D02*
X93075737Y-25102392D01*
X93075737Y-25102392D02*
X93075737Y-24816678D01*
X93075737Y-24816678D02*
X93123356Y-24721440D01*
X93123356Y-24721440D02*
X93170975Y-24673821D01*
X93170975Y-24673821D02*
X93266213Y-24626202D01*
X93266213Y-24626202D02*
X93456689Y-24626202D01*
X93456689Y-24626202D02*
X93551927Y-24673821D01*
X94028118Y-25292869D02*
X94028118Y-24626202D01*
X94028118Y-24292869D02*
X93980499Y-24340488D01*
X93980499Y-24340488D02*
X94028118Y-24388107D01*
X94028118Y-24388107D02*
X94075737Y-24340488D01*
X94075737Y-24340488D02*
X94028118Y-24292869D01*
X94028118Y-24292869D02*
X94028118Y-24388107D01*
D12*
X70047493Y-87600771D02*
X69999874Y-87553152D01*
X69999874Y-87553152D02*
X69904636Y-87410295D01*
X69904636Y-87410295D02*
X69857017Y-87315057D01*
X69857017Y-87315057D02*
X69809398Y-87172200D01*
X69809398Y-87172200D02*
X69761779Y-86934104D01*
X69761779Y-86934104D02*
X69761779Y-86743628D01*
X69761779Y-86743628D02*
X69809398Y-86505533D01*
X69809398Y-86505533D02*
X69857017Y-86362676D01*
X69857017Y-86362676D02*
X69904636Y-86267438D01*
X69904636Y-86267438D02*
X69999874Y-86124580D01*
X69999874Y-86124580D02*
X70047493Y-86076961D01*
X70428446Y-86219819D02*
X70428446Y-87029342D01*
X70428446Y-87029342D02*
X70476065Y-87124580D01*
X70476065Y-87124580D02*
X70523684Y-87172200D01*
X70523684Y-87172200D02*
X70618922Y-87219819D01*
X70618922Y-87219819D02*
X70809398Y-87219819D01*
X70809398Y-87219819D02*
X70904636Y-87172200D01*
X70904636Y-87172200D02*
X70952255Y-87124580D01*
X70952255Y-87124580D02*
X70999874Y-87029342D01*
X70999874Y-87029342D02*
X70999874Y-86219819D01*
X71428446Y-87172200D02*
X71571303Y-87219819D01*
X71571303Y-87219819D02*
X71809398Y-87219819D01*
X71809398Y-87219819D02*
X71904636Y-87172200D01*
X71904636Y-87172200D02*
X71952255Y-87124580D01*
X71952255Y-87124580D02*
X71999874Y-87029342D01*
X71999874Y-87029342D02*
X71999874Y-86934104D01*
X71999874Y-86934104D02*
X71952255Y-86838866D01*
X71952255Y-86838866D02*
X71904636Y-86791247D01*
X71904636Y-86791247D02*
X71809398Y-86743628D01*
X71809398Y-86743628D02*
X71618922Y-86696009D01*
X71618922Y-86696009D02*
X71523684Y-86648390D01*
X71523684Y-86648390D02*
X71476065Y-86600771D01*
X71476065Y-86600771D02*
X71428446Y-86505533D01*
X71428446Y-86505533D02*
X71428446Y-86410295D01*
X71428446Y-86410295D02*
X71476065Y-86315057D01*
X71476065Y-86315057D02*
X71523684Y-86267438D01*
X71523684Y-86267438D02*
X71618922Y-86219819D01*
X71618922Y-86219819D02*
X71857017Y-86219819D01*
X71857017Y-86219819D02*
X71999874Y-86267438D01*
X72761779Y-86696009D02*
X72904636Y-86743628D01*
X72904636Y-86743628D02*
X72952255Y-86791247D01*
X72952255Y-86791247D02*
X72999874Y-86886485D01*
X72999874Y-86886485D02*
X72999874Y-87029342D01*
X72999874Y-87029342D02*
X72952255Y-87124580D01*
X72952255Y-87124580D02*
X72904636Y-87172200D01*
X72904636Y-87172200D02*
X72809398Y-87219819D01*
X72809398Y-87219819D02*
X72428446Y-87219819D01*
X72428446Y-87219819D02*
X72428446Y-86219819D01*
X72428446Y-86219819D02*
X72761779Y-86219819D01*
X72761779Y-86219819D02*
X72857017Y-86267438D01*
X72857017Y-86267438D02*
X72904636Y-86315057D01*
X72904636Y-86315057D02*
X72952255Y-86410295D01*
X72952255Y-86410295D02*
X72952255Y-86505533D01*
X72952255Y-86505533D02*
X72904636Y-86600771D01*
X72904636Y-86600771D02*
X72857017Y-86648390D01*
X72857017Y-86648390D02*
X72761779Y-86696009D01*
X72761779Y-86696009D02*
X72428446Y-86696009D01*
X74190351Y-86838866D02*
X74952256Y-86838866D01*
X76190351Y-86696009D02*
X76523684Y-86696009D01*
X76666541Y-87219819D02*
X76190351Y-87219819D01*
X76190351Y-87219819D02*
X76190351Y-86219819D01*
X76190351Y-86219819D02*
X76666541Y-86219819D01*
X77047494Y-87172200D02*
X77190351Y-87219819D01*
X77190351Y-87219819D02*
X77428446Y-87219819D01*
X77428446Y-87219819D02*
X77523684Y-87172200D01*
X77523684Y-87172200D02*
X77571303Y-87124580D01*
X77571303Y-87124580D02*
X77618922Y-87029342D01*
X77618922Y-87029342D02*
X77618922Y-86934104D01*
X77618922Y-86934104D02*
X77571303Y-86838866D01*
X77571303Y-86838866D02*
X77523684Y-86791247D01*
X77523684Y-86791247D02*
X77428446Y-86743628D01*
X77428446Y-86743628D02*
X77237970Y-86696009D01*
X77237970Y-86696009D02*
X77142732Y-86648390D01*
X77142732Y-86648390D02*
X77095113Y-86600771D01*
X77095113Y-86600771D02*
X77047494Y-86505533D01*
X77047494Y-86505533D02*
X77047494Y-86410295D01*
X77047494Y-86410295D02*
X77095113Y-86315057D01*
X77095113Y-86315057D02*
X77142732Y-86267438D01*
X77142732Y-86267438D02*
X77237970Y-86219819D01*
X77237970Y-86219819D02*
X77476065Y-86219819D01*
X77476065Y-86219819D02*
X77618922Y-86267438D01*
X78047494Y-87219819D02*
X78047494Y-86219819D01*
X78047494Y-86219819D02*
X78428446Y-86219819D01*
X78428446Y-86219819D02*
X78523684Y-86267438D01*
X78523684Y-86267438D02*
X78571303Y-86315057D01*
X78571303Y-86315057D02*
X78618922Y-86410295D01*
X78618922Y-86410295D02*
X78618922Y-86553152D01*
X78618922Y-86553152D02*
X78571303Y-86648390D01*
X78571303Y-86648390D02*
X78523684Y-86696009D01*
X78523684Y-86696009D02*
X78428446Y-86743628D01*
X78428446Y-86743628D02*
X78047494Y-86743628D01*
X78952256Y-86219819D02*
X79571303Y-86219819D01*
X79571303Y-86219819D02*
X79237970Y-86600771D01*
X79237970Y-86600771D02*
X79380827Y-86600771D01*
X79380827Y-86600771D02*
X79476065Y-86648390D01*
X79476065Y-86648390D02*
X79523684Y-86696009D01*
X79523684Y-86696009D02*
X79571303Y-86791247D01*
X79571303Y-86791247D02*
X79571303Y-87029342D01*
X79571303Y-87029342D02*
X79523684Y-87124580D01*
X79523684Y-87124580D02*
X79476065Y-87172200D01*
X79476065Y-87172200D02*
X79380827Y-87219819D01*
X79380827Y-87219819D02*
X79095113Y-87219819D01*
X79095113Y-87219819D02*
X78999875Y-87172200D01*
X78999875Y-87172200D02*
X78952256Y-87124580D01*
X79952256Y-86315057D02*
X79999875Y-86267438D01*
X79999875Y-86267438D02*
X80095113Y-86219819D01*
X80095113Y-86219819D02*
X80333208Y-86219819D01*
X80333208Y-86219819D02*
X80428446Y-86267438D01*
X80428446Y-86267438D02*
X80476065Y-86315057D01*
X80476065Y-86315057D02*
X80523684Y-86410295D01*
X80523684Y-86410295D02*
X80523684Y-86505533D01*
X80523684Y-86505533D02*
X80476065Y-86648390D01*
X80476065Y-86648390D02*
X79904637Y-87219819D01*
X79904637Y-87219819D02*
X80523684Y-87219819D01*
X80857018Y-87600771D02*
X80904637Y-87553152D01*
X80904637Y-87553152D02*
X80999875Y-87410295D01*
X80999875Y-87410295D02*
X81047494Y-87315057D01*
X81047494Y-87315057D02*
X81095113Y-87172200D01*
X81095113Y-87172200D02*
X81142732Y-86934104D01*
X81142732Y-86934104D02*
X81142732Y-86743628D01*
X81142732Y-86743628D02*
X81095113Y-86505533D01*
X81095113Y-86505533D02*
X81047494Y-86362676D01*
X81047494Y-86362676D02*
X80999875Y-86267438D01*
X80999875Y-86267438D02*
X80904637Y-86124580D01*
X80904637Y-86124580D02*
X80857018Y-86076961D01*
X92361541Y-31304700D02*
X92468684Y-31340414D01*
X92468684Y-31340414D02*
X92647255Y-31340414D01*
X92647255Y-31340414D02*
X92718684Y-31304700D01*
X92718684Y-31304700D02*
X92754398Y-31268985D01*
X92754398Y-31268985D02*
X92790112Y-31197557D01*
X92790112Y-31197557D02*
X92790112Y-31126128D01*
X92790112Y-31126128D02*
X92754398Y-31054700D01*
X92754398Y-31054700D02*
X92718684Y-31018985D01*
X92718684Y-31018985D02*
X92647255Y-30983271D01*
X92647255Y-30983271D02*
X92504398Y-30947557D01*
X92504398Y-30947557D02*
X92432969Y-30911842D01*
X92432969Y-30911842D02*
X92397255Y-30876128D01*
X92397255Y-30876128D02*
X92361541Y-30804700D01*
X92361541Y-30804700D02*
X92361541Y-30733271D01*
X92361541Y-30733271D02*
X92397255Y-30661842D01*
X92397255Y-30661842D02*
X92432969Y-30626128D01*
X92432969Y-30626128D02*
X92504398Y-30590414D01*
X92504398Y-30590414D02*
X92682969Y-30590414D01*
X92682969Y-30590414D02*
X92790112Y-30626128D01*
X93540112Y-31268985D02*
X93504398Y-31304700D01*
X93504398Y-31304700D02*
X93397255Y-31340414D01*
X93397255Y-31340414D02*
X93325827Y-31340414D01*
X93325827Y-31340414D02*
X93218684Y-31304700D01*
X93218684Y-31304700D02*
X93147255Y-31233271D01*
X93147255Y-31233271D02*
X93111541Y-31161842D01*
X93111541Y-31161842D02*
X93075827Y-31018985D01*
X93075827Y-31018985D02*
X93075827Y-30911842D01*
X93075827Y-30911842D02*
X93111541Y-30768985D01*
X93111541Y-30768985D02*
X93147255Y-30697557D01*
X93147255Y-30697557D02*
X93218684Y-30626128D01*
X93218684Y-30626128D02*
X93325827Y-30590414D01*
X93325827Y-30590414D02*
X93397255Y-30590414D01*
X93397255Y-30590414D02*
X93504398Y-30626128D01*
X93504398Y-30626128D02*
X93540112Y-30661842D01*
X94218684Y-31340414D02*
X93861541Y-31340414D01*
X93861541Y-31340414D02*
X93861541Y-30590414D01*
D11*
X48036212Y-60098464D02*
X48036212Y-60634178D01*
X48036212Y-60634178D02*
X48000497Y-60741321D01*
X48000497Y-60741321D02*
X47929069Y-60812750D01*
X47929069Y-60812750D02*
X47821926Y-60848464D01*
X47821926Y-60848464D02*
X47750497Y-60848464D01*
X48714784Y-60348464D02*
X48714784Y-60848464D01*
X48393355Y-60348464D02*
X48393355Y-60741321D01*
X48393355Y-60741321D02*
X48429069Y-60812750D01*
X48429069Y-60812750D02*
X48500498Y-60848464D01*
X48500498Y-60848464D02*
X48607641Y-60848464D01*
X48607641Y-60848464D02*
X48679069Y-60812750D01*
X48679069Y-60812750D02*
X48714784Y-60777035D01*
X49071926Y-60848464D02*
X49071926Y-60348464D01*
X49071926Y-60419892D02*
X49107640Y-60384178D01*
X49107640Y-60384178D02*
X49179069Y-60348464D01*
X49179069Y-60348464D02*
X49286212Y-60348464D01*
X49286212Y-60348464D02*
X49357640Y-60384178D01*
X49357640Y-60384178D02*
X49393355Y-60455607D01*
X49393355Y-60455607D02*
X49393355Y-60848464D01*
X49393355Y-60455607D02*
X49429069Y-60384178D01*
X49429069Y-60384178D02*
X49500497Y-60348464D01*
X49500497Y-60348464D02*
X49607640Y-60348464D01*
X49607640Y-60348464D02*
X49679069Y-60384178D01*
X49679069Y-60384178D02*
X49714783Y-60455607D01*
X49714783Y-60455607D02*
X49714783Y-60848464D01*
X50071926Y-60348464D02*
X50071926Y-61098464D01*
X50071926Y-60384178D02*
X50143355Y-60348464D01*
X50143355Y-60348464D02*
X50286212Y-60348464D01*
X50286212Y-60348464D02*
X50357640Y-60384178D01*
X50357640Y-60384178D02*
X50393355Y-60419892D01*
X50393355Y-60419892D02*
X50429069Y-60491321D01*
X50429069Y-60491321D02*
X50429069Y-60705607D01*
X50429069Y-60705607D02*
X50393355Y-60777035D01*
X50393355Y-60777035D02*
X50357640Y-60812750D01*
X50357640Y-60812750D02*
X50286212Y-60848464D01*
X50286212Y-60848464D02*
X50143355Y-60848464D01*
X50143355Y-60848464D02*
X50071926Y-60812750D01*
X51036211Y-60812750D02*
X50964783Y-60848464D01*
X50964783Y-60848464D02*
X50821926Y-60848464D01*
X50821926Y-60848464D02*
X50750497Y-60812750D01*
X50750497Y-60812750D02*
X50714783Y-60741321D01*
X50714783Y-60741321D02*
X50714783Y-60455607D01*
X50714783Y-60455607D02*
X50750497Y-60384178D01*
X50750497Y-60384178D02*
X50821926Y-60348464D01*
X50821926Y-60348464D02*
X50964783Y-60348464D01*
X50964783Y-60348464D02*
X51036211Y-60384178D01*
X51036211Y-60384178D02*
X51071926Y-60455607D01*
X51071926Y-60455607D02*
X51071926Y-60527035D01*
X51071926Y-60527035D02*
X50714783Y-60598464D01*
X51393354Y-60848464D02*
X51393354Y-60348464D01*
X51393354Y-60491321D02*
X51429068Y-60419892D01*
X51429068Y-60419892D02*
X51464783Y-60384178D01*
X51464783Y-60384178D02*
X51536211Y-60348464D01*
X51536211Y-60348464D02*
X51607640Y-60348464D01*
X52357640Y-60098464D02*
X52821926Y-60098464D01*
X52821926Y-60098464D02*
X52571926Y-60384178D01*
X52571926Y-60384178D02*
X52679069Y-60384178D01*
X52679069Y-60384178D02*
X52750498Y-60419892D01*
X52750498Y-60419892D02*
X52786212Y-60455607D01*
X52786212Y-60455607D02*
X52821926Y-60527035D01*
X52821926Y-60527035D02*
X52821926Y-60705607D01*
X52821926Y-60705607D02*
X52786212Y-60777035D01*
X52786212Y-60777035D02*
X52750498Y-60812750D01*
X52750498Y-60812750D02*
X52679069Y-60848464D01*
X52679069Y-60848464D02*
X52464783Y-60848464D01*
X52464783Y-60848464D02*
X52393355Y-60812750D01*
X52393355Y-60812750D02*
X52357640Y-60777035D01*
X53143355Y-60777035D02*
X53179069Y-60812750D01*
X53179069Y-60812750D02*
X53143355Y-60848464D01*
X53143355Y-60848464D02*
X53107641Y-60812750D01*
X53107641Y-60812750D02*
X53143355Y-60777035D01*
X53143355Y-60777035D02*
X53143355Y-60848464D01*
X53429069Y-60098464D02*
X53893355Y-60098464D01*
X53893355Y-60098464D02*
X53643355Y-60384178D01*
X53643355Y-60384178D02*
X53750498Y-60384178D01*
X53750498Y-60384178D02*
X53821927Y-60419892D01*
X53821927Y-60419892D02*
X53857641Y-60455607D01*
X53857641Y-60455607D02*
X53893355Y-60527035D01*
X53893355Y-60527035D02*
X53893355Y-60705607D01*
X53893355Y-60705607D02*
X53857641Y-60777035D01*
X53857641Y-60777035D02*
X53821927Y-60812750D01*
X53821927Y-60812750D02*
X53750498Y-60848464D01*
X53750498Y-60848464D02*
X53536212Y-60848464D01*
X53536212Y-60848464D02*
X53464784Y-60812750D01*
X53464784Y-60812750D02*
X53429069Y-60777035D01*
X54107641Y-60098464D02*
X54357641Y-60848464D01*
X54357641Y-60848464D02*
X54607641Y-60098464D01*
D12*
X95300112Y-30596128D02*
X95228684Y-30560414D01*
X95228684Y-30560414D02*
X95121541Y-30560414D01*
X95121541Y-30560414D02*
X95014398Y-30596128D01*
X95014398Y-30596128D02*
X94942969Y-30667557D01*
X94942969Y-30667557D02*
X94907255Y-30738985D01*
X94907255Y-30738985D02*
X94871541Y-30881842D01*
X94871541Y-30881842D02*
X94871541Y-30988985D01*
X94871541Y-30988985D02*
X94907255Y-31131842D01*
X94907255Y-31131842D02*
X94942969Y-31203271D01*
X94942969Y-31203271D02*
X95014398Y-31274700D01*
X95014398Y-31274700D02*
X95121541Y-31310414D01*
X95121541Y-31310414D02*
X95192969Y-31310414D01*
X95192969Y-31310414D02*
X95300112Y-31274700D01*
X95300112Y-31274700D02*
X95335826Y-31238985D01*
X95335826Y-31238985D02*
X95335826Y-30988985D01*
X95335826Y-30988985D02*
X95192969Y-30988985D01*
X95657255Y-31310414D02*
X95657255Y-30560414D01*
X95657255Y-30560414D02*
X96085826Y-31310414D01*
X96085826Y-31310414D02*
X96085826Y-30560414D01*
X96442969Y-31310414D02*
X96442969Y-30560414D01*
X96442969Y-30560414D02*
X96621540Y-30560414D01*
X96621540Y-30560414D02*
X96728683Y-30596128D01*
X96728683Y-30596128D02*
X96800112Y-30667557D01*
X96800112Y-30667557D02*
X96835826Y-30738985D01*
X96835826Y-30738985D02*
X96871540Y-30881842D01*
X96871540Y-30881842D02*
X96871540Y-30988985D01*
X96871540Y-30988985D02*
X96835826Y-31131842D01*
X96835826Y-31131842D02*
X96800112Y-31203271D01*
X96800112Y-31203271D02*
X96728683Y-31274700D01*
X96728683Y-31274700D02*
X96621540Y-31310414D01*
X96621540Y-31310414D02*
X96442969Y-31310414D01*
D10*
X89474510Y-34150828D02*
X89474510Y-32650828D01*
X89474510Y-32650828D02*
X89974510Y-33722257D01*
X89974510Y-33722257D02*
X90474510Y-32650828D01*
X90474510Y-32650828D02*
X90474510Y-34150828D01*
X91188796Y-34150828D02*
X91188796Y-32650828D01*
X91188796Y-32650828D02*
X91760225Y-32650828D01*
X91760225Y-32650828D02*
X91903082Y-32722257D01*
X91903082Y-32722257D02*
X91974511Y-32793685D01*
X91974511Y-32793685D02*
X92045939Y-32936542D01*
X92045939Y-32936542D02*
X92045939Y-33150828D01*
X92045939Y-33150828D02*
X91974511Y-33293685D01*
X91974511Y-33293685D02*
X91903082Y-33365114D01*
X91903082Y-33365114D02*
X91760225Y-33436542D01*
X91760225Y-33436542D02*
X91188796Y-33436542D01*
X92688796Y-32650828D02*
X92688796Y-33865114D01*
X92688796Y-33865114D02*
X92760225Y-34007971D01*
X92760225Y-34007971D02*
X92831654Y-34079400D01*
X92831654Y-34079400D02*
X92974511Y-34150828D01*
X92974511Y-34150828D02*
X93260225Y-34150828D01*
X93260225Y-34150828D02*
X93403082Y-34079400D01*
X93403082Y-34079400D02*
X93474511Y-34007971D01*
X93474511Y-34007971D02*
X93545939Y-33865114D01*
X93545939Y-33865114D02*
X93545939Y-32650828D01*
D11*
X61151535Y-74216212D02*
X60615821Y-74216212D01*
X60615821Y-74216212D02*
X60508678Y-74180497D01*
X60508678Y-74180497D02*
X60437250Y-74109069D01*
X60437250Y-74109069D02*
X60401535Y-74001926D01*
X60401535Y-74001926D02*
X60401535Y-73930497D01*
X60901535Y-74894784D02*
X60401535Y-74894784D01*
X60901535Y-74573355D02*
X60508678Y-74573355D01*
X60508678Y-74573355D02*
X60437250Y-74609069D01*
X60437250Y-74609069D02*
X60401535Y-74680498D01*
X60401535Y-74680498D02*
X60401535Y-74787641D01*
X60401535Y-74787641D02*
X60437250Y-74859069D01*
X60437250Y-74859069D02*
X60472964Y-74894784D01*
X60401535Y-75251926D02*
X60901535Y-75251926D01*
X60830107Y-75251926D02*
X60865821Y-75287640D01*
X60865821Y-75287640D02*
X60901535Y-75359069D01*
X60901535Y-75359069D02*
X60901535Y-75466212D01*
X60901535Y-75466212D02*
X60865821Y-75537640D01*
X60865821Y-75537640D02*
X60794392Y-75573355D01*
X60794392Y-75573355D02*
X60401535Y-75573355D01*
X60794392Y-75573355D02*
X60865821Y-75609069D01*
X60865821Y-75609069D02*
X60901535Y-75680497D01*
X60901535Y-75680497D02*
X60901535Y-75787640D01*
X60901535Y-75787640D02*
X60865821Y-75859069D01*
X60865821Y-75859069D02*
X60794392Y-75894783D01*
X60794392Y-75894783D02*
X60401535Y-75894783D01*
X60901535Y-76251926D02*
X60151535Y-76251926D01*
X60865821Y-76251926D02*
X60901535Y-76323355D01*
X60901535Y-76323355D02*
X60901535Y-76466212D01*
X60901535Y-76466212D02*
X60865821Y-76537640D01*
X60865821Y-76537640D02*
X60830107Y-76573355D01*
X60830107Y-76573355D02*
X60758678Y-76609069D01*
X60758678Y-76609069D02*
X60544392Y-76609069D01*
X60544392Y-76609069D02*
X60472964Y-76573355D01*
X60472964Y-76573355D02*
X60437250Y-76537640D01*
X60437250Y-76537640D02*
X60401535Y-76466212D01*
X60401535Y-76466212D02*
X60401535Y-76323355D01*
X60401535Y-76323355D02*
X60437250Y-76251926D01*
X60437250Y-77216211D02*
X60401535Y-77144783D01*
X60401535Y-77144783D02*
X60401535Y-77001926D01*
X60401535Y-77001926D02*
X60437250Y-76930497D01*
X60437250Y-76930497D02*
X60508678Y-76894783D01*
X60508678Y-76894783D02*
X60794392Y-76894783D01*
X60794392Y-76894783D02*
X60865821Y-76930497D01*
X60865821Y-76930497D02*
X60901535Y-77001926D01*
X60901535Y-77001926D02*
X60901535Y-77144783D01*
X60901535Y-77144783D02*
X60865821Y-77216211D01*
X60865821Y-77216211D02*
X60794392Y-77251926D01*
X60794392Y-77251926D02*
X60722964Y-77251926D01*
X60722964Y-77251926D02*
X60651535Y-76894783D01*
X60401535Y-77573354D02*
X60901535Y-77573354D01*
X60758678Y-77573354D02*
X60830107Y-77609068D01*
X60830107Y-77609068D02*
X60865821Y-77644783D01*
X60865821Y-77644783D02*
X60901535Y-77716211D01*
X60901535Y-77716211D02*
X60901535Y-77787640D01*
X61151535Y-78966212D02*
X61151535Y-78609069D01*
X61151535Y-78609069D02*
X60794392Y-78573355D01*
X60794392Y-78573355D02*
X60830107Y-78609069D01*
X60830107Y-78609069D02*
X60865821Y-78680498D01*
X60865821Y-78680498D02*
X60865821Y-78859069D01*
X60865821Y-78859069D02*
X60830107Y-78930498D01*
X60830107Y-78930498D02*
X60794392Y-78966212D01*
X60794392Y-78966212D02*
X60722964Y-79001926D01*
X60722964Y-79001926D02*
X60544392Y-79001926D01*
X60544392Y-79001926D02*
X60472964Y-78966212D01*
X60472964Y-78966212D02*
X60437250Y-78930498D01*
X60437250Y-78930498D02*
X60401535Y-78859069D01*
X60401535Y-78859069D02*
X60401535Y-78680498D01*
X60401535Y-78680498D02*
X60437250Y-78609069D01*
X60437250Y-78609069D02*
X60472964Y-78573355D01*
X61151535Y-79216212D02*
X60401535Y-79466212D01*
X60401535Y-79466212D02*
X61151535Y-79716212D01*
D10*
X50154510Y-47129400D02*
X51297368Y-47129400D01*
X50554510Y-40329400D02*
X51697368Y-40329400D01*
X51125939Y-40900828D02*
X51125939Y-39757971D01*
X53019171Y-69900225D02*
X53019171Y-70185939D01*
X53019171Y-70185939D02*
X52947742Y-70328796D01*
X52947742Y-70328796D02*
X52804885Y-70471653D01*
X52804885Y-70471653D02*
X52519171Y-70543082D01*
X52519171Y-70543082D02*
X52019171Y-70543082D01*
X52019171Y-70543082D02*
X51733457Y-70471653D01*
X51733457Y-70471653D02*
X51590600Y-70328796D01*
X51590600Y-70328796D02*
X51519171Y-70185939D01*
X51519171Y-70185939D02*
X51519171Y-69900225D01*
X51519171Y-69900225D02*
X51590600Y-69757368D01*
X51590600Y-69757368D02*
X51733457Y-69614510D01*
X51733457Y-69614510D02*
X52019171Y-69543082D01*
X52019171Y-69543082D02*
X52519171Y-69543082D01*
X52519171Y-69543082D02*
X52804885Y-69614510D01*
X52804885Y-69614510D02*
X52947742Y-69757368D01*
X52947742Y-69757368D02*
X53019171Y-69900225D01*
X51519171Y-71185939D02*
X53019171Y-71185939D01*
X53019171Y-71185939D02*
X51519171Y-72043082D01*
X51519171Y-72043082D02*
X53019171Y-72043082D01*
D12*
X97500112Y-30510414D02*
X97750112Y-31260414D01*
X97750112Y-31260414D02*
X98000112Y-30510414D01*
X98678683Y-31188985D02*
X98642969Y-31224700D01*
X98642969Y-31224700D02*
X98535826Y-31260414D01*
X98535826Y-31260414D02*
X98464398Y-31260414D01*
X98464398Y-31260414D02*
X98357255Y-31224700D01*
X98357255Y-31224700D02*
X98285826Y-31153271D01*
X98285826Y-31153271D02*
X98250112Y-31081842D01*
X98250112Y-31081842D02*
X98214398Y-30938985D01*
X98214398Y-30938985D02*
X98214398Y-30831842D01*
X98214398Y-30831842D02*
X98250112Y-30688985D01*
X98250112Y-30688985D02*
X98285826Y-30617557D01*
X98285826Y-30617557D02*
X98357255Y-30546128D01*
X98357255Y-30546128D02*
X98464398Y-30510414D01*
X98464398Y-30510414D02*
X98535826Y-30510414D01*
X98535826Y-30510414D02*
X98642969Y-30546128D01*
X98642969Y-30546128D02*
X98678683Y-30581842D01*
X99428683Y-31188985D02*
X99392969Y-31224700D01*
X99392969Y-31224700D02*
X99285826Y-31260414D01*
X99285826Y-31260414D02*
X99214398Y-31260414D01*
X99214398Y-31260414D02*
X99107255Y-31224700D01*
X99107255Y-31224700D02*
X99035826Y-31153271D01*
X99035826Y-31153271D02*
X99000112Y-31081842D01*
X99000112Y-31081842D02*
X98964398Y-30938985D01*
X98964398Y-30938985D02*
X98964398Y-30831842D01*
X98964398Y-30831842D02*
X99000112Y-30688985D01*
X99000112Y-30688985D02*
X99035826Y-30617557D01*
X99035826Y-30617557D02*
X99107255Y-30546128D01*
X99107255Y-30546128D02*
X99214398Y-30510414D01*
X99214398Y-30510414D02*
X99285826Y-30510414D01*
X99285826Y-30510414D02*
X99392969Y-30546128D01*
X99392969Y-30546128D02*
X99428683Y-30581842D01*
D10*
X72004510Y-33995114D02*
X72504510Y-33995114D01*
X72718796Y-34780828D02*
X72004510Y-34780828D01*
X72004510Y-34780828D02*
X72004510Y-33280828D01*
X72004510Y-33280828D02*
X72718796Y-33280828D01*
X73290225Y-34709400D02*
X73504511Y-34780828D01*
X73504511Y-34780828D02*
X73861653Y-34780828D01*
X73861653Y-34780828D02*
X74004511Y-34709400D01*
X74004511Y-34709400D02*
X74075939Y-34637971D01*
X74075939Y-34637971D02*
X74147368Y-34495114D01*
X74147368Y-34495114D02*
X74147368Y-34352257D01*
X74147368Y-34352257D02*
X74075939Y-34209400D01*
X74075939Y-34209400D02*
X74004511Y-34137971D01*
X74004511Y-34137971D02*
X73861653Y-34066542D01*
X73861653Y-34066542D02*
X73575939Y-33995114D01*
X73575939Y-33995114D02*
X73433082Y-33923685D01*
X73433082Y-33923685D02*
X73361653Y-33852257D01*
X73361653Y-33852257D02*
X73290225Y-33709400D01*
X73290225Y-33709400D02*
X73290225Y-33566542D01*
X73290225Y-33566542D02*
X73361653Y-33423685D01*
X73361653Y-33423685D02*
X73433082Y-33352257D01*
X73433082Y-33352257D02*
X73575939Y-33280828D01*
X73575939Y-33280828D02*
X73933082Y-33280828D01*
X73933082Y-33280828D02*
X74147368Y-33352257D01*
X74790224Y-34780828D02*
X74790224Y-33280828D01*
X74790224Y-33280828D02*
X75361653Y-33280828D01*
X75361653Y-33280828D02*
X75504510Y-33352257D01*
X75504510Y-33352257D02*
X75575939Y-33423685D01*
X75575939Y-33423685D02*
X75647367Y-33566542D01*
X75647367Y-33566542D02*
X75647367Y-33780828D01*
X75647367Y-33780828D02*
X75575939Y-33923685D01*
X75575939Y-33923685D02*
X75504510Y-33995114D01*
X75504510Y-33995114D02*
X75361653Y-34066542D01*
X75361653Y-34066542D02*
X74790224Y-34066542D01*
X76147367Y-33280828D02*
X77075939Y-33280828D01*
X77075939Y-33280828D02*
X76575939Y-33852257D01*
X76575939Y-33852257D02*
X76790224Y-33852257D01*
X76790224Y-33852257D02*
X76933082Y-33923685D01*
X76933082Y-33923685D02*
X77004510Y-33995114D01*
X77004510Y-33995114D02*
X77075939Y-34137971D01*
X77075939Y-34137971D02*
X77075939Y-34495114D01*
X77075939Y-34495114D02*
X77004510Y-34637971D01*
X77004510Y-34637971D02*
X76933082Y-34709400D01*
X76933082Y-34709400D02*
X76790224Y-34780828D01*
X76790224Y-34780828D02*
X76361653Y-34780828D01*
X76361653Y-34780828D02*
X76218796Y-34709400D01*
X76218796Y-34709400D02*
X76147367Y-34637971D01*
X77647367Y-33423685D02*
X77718795Y-33352257D01*
X77718795Y-33352257D02*
X77861653Y-33280828D01*
X77861653Y-33280828D02*
X78218795Y-33280828D01*
X78218795Y-33280828D02*
X78361653Y-33352257D01*
X78361653Y-33352257D02*
X78433081Y-33423685D01*
X78433081Y-33423685D02*
X78504510Y-33566542D01*
X78504510Y-33566542D02*
X78504510Y-33709400D01*
X78504510Y-33709400D02*
X78433081Y-33923685D01*
X78433081Y-33923685D02*
X77575938Y-34780828D01*
X77575938Y-34780828D02*
X78504510Y-34780828D01*
X89010225Y-83462257D02*
X88867368Y-83390828D01*
X88867368Y-83390828D02*
X88653082Y-83390828D01*
X88653082Y-83390828D02*
X88438796Y-83462257D01*
X88438796Y-83462257D02*
X88295939Y-83605114D01*
X88295939Y-83605114D02*
X88224510Y-83747971D01*
X88224510Y-83747971D02*
X88153082Y-84033685D01*
X88153082Y-84033685D02*
X88153082Y-84247971D01*
X88153082Y-84247971D02*
X88224510Y-84533685D01*
X88224510Y-84533685D02*
X88295939Y-84676542D01*
X88295939Y-84676542D02*
X88438796Y-84819400D01*
X88438796Y-84819400D02*
X88653082Y-84890828D01*
X88653082Y-84890828D02*
X88795939Y-84890828D01*
X88795939Y-84890828D02*
X89010225Y-84819400D01*
X89010225Y-84819400D02*
X89081653Y-84747971D01*
X89081653Y-84747971D02*
X89081653Y-84247971D01*
X89081653Y-84247971D02*
X88795939Y-84247971D01*
X89724510Y-84890828D02*
X89724510Y-83390828D01*
X89724510Y-83390828D02*
X90295939Y-83390828D01*
X90295939Y-83390828D02*
X90438796Y-83462257D01*
X90438796Y-83462257D02*
X90510225Y-83533685D01*
X90510225Y-83533685D02*
X90581653Y-83676542D01*
X90581653Y-83676542D02*
X90581653Y-83890828D01*
X90581653Y-83890828D02*
X90510225Y-84033685D01*
X90510225Y-84033685D02*
X90438796Y-84105114D01*
X90438796Y-84105114D02*
X90295939Y-84176542D01*
X90295939Y-84176542D02*
X89724510Y-84176542D01*
X91224510Y-84890828D02*
X91224510Y-83390828D01*
X92224511Y-83390828D02*
X92510225Y-83390828D01*
X92510225Y-83390828D02*
X92653082Y-83462257D01*
X92653082Y-83462257D02*
X92795939Y-83605114D01*
X92795939Y-83605114D02*
X92867368Y-83890828D01*
X92867368Y-83890828D02*
X92867368Y-84390828D01*
X92867368Y-84390828D02*
X92795939Y-84676542D01*
X92795939Y-84676542D02*
X92653082Y-84819400D01*
X92653082Y-84819400D02*
X92510225Y-84890828D01*
X92510225Y-84890828D02*
X92224511Y-84890828D01*
X92224511Y-84890828D02*
X92081654Y-84819400D01*
X92081654Y-84819400D02*
X91938796Y-84676542D01*
X91938796Y-84676542D02*
X91867368Y-84390828D01*
X91867368Y-84390828D02*
X91867368Y-83890828D01*
X91867368Y-83890828D02*
X91938796Y-83605114D01*
X91938796Y-83605114D02*
X92081654Y-83462257D01*
X92081654Y-83462257D02*
X92224511Y-83390828D01*
D12*
X89691541Y-31304700D02*
X89798684Y-31340414D01*
X89798684Y-31340414D02*
X89977255Y-31340414D01*
X89977255Y-31340414D02*
X90048684Y-31304700D01*
X90048684Y-31304700D02*
X90084398Y-31268985D01*
X90084398Y-31268985D02*
X90120112Y-31197557D01*
X90120112Y-31197557D02*
X90120112Y-31126128D01*
X90120112Y-31126128D02*
X90084398Y-31054700D01*
X90084398Y-31054700D02*
X90048684Y-31018985D01*
X90048684Y-31018985D02*
X89977255Y-30983271D01*
X89977255Y-30983271D02*
X89834398Y-30947557D01*
X89834398Y-30947557D02*
X89762969Y-30911842D01*
X89762969Y-30911842D02*
X89727255Y-30876128D01*
X89727255Y-30876128D02*
X89691541Y-30804700D01*
X89691541Y-30804700D02*
X89691541Y-30733271D01*
X89691541Y-30733271D02*
X89727255Y-30661842D01*
X89727255Y-30661842D02*
X89762969Y-30626128D01*
X89762969Y-30626128D02*
X89834398Y-30590414D01*
X89834398Y-30590414D02*
X90012969Y-30590414D01*
X90012969Y-30590414D02*
X90120112Y-30626128D01*
X90441541Y-31340414D02*
X90441541Y-30590414D01*
X90441541Y-30590414D02*
X90620112Y-30590414D01*
X90620112Y-30590414D02*
X90727255Y-30626128D01*
X90727255Y-30626128D02*
X90798684Y-30697557D01*
X90798684Y-30697557D02*
X90834398Y-30768985D01*
X90834398Y-30768985D02*
X90870112Y-30911842D01*
X90870112Y-30911842D02*
X90870112Y-31018985D01*
X90870112Y-31018985D02*
X90834398Y-31161842D01*
X90834398Y-31161842D02*
X90798684Y-31233271D01*
X90798684Y-31233271D02*
X90727255Y-31304700D01*
X90727255Y-31304700D02*
X90620112Y-31340414D01*
X90620112Y-31340414D02*
X90441541Y-31340414D01*
X91155827Y-31126128D02*
X91512970Y-31126128D01*
X91084398Y-31340414D02*
X91334398Y-30590414D01*
X91334398Y-30590414D02*
X91584398Y-31340414D01*
D10*
X99103082Y-40392257D02*
X99817368Y-40392257D01*
X98960225Y-40820828D02*
X99460225Y-39320828D01*
X99460225Y-39320828D02*
X99960225Y-40820828D01*
X100460224Y-40820828D02*
X100460224Y-39320828D01*
X100460224Y-39320828D02*
X101317367Y-40820828D01*
X101317367Y-40820828D02*
X101317367Y-39320828D01*
X101817368Y-39320828D02*
X102674511Y-39320828D01*
X102245939Y-40820828D02*
X102245939Y-39320828D01*
X49791653Y-49780828D02*
X50720225Y-49780828D01*
X50720225Y-49780828D02*
X50220225Y-50352257D01*
X50220225Y-50352257D02*
X50434510Y-50352257D01*
X50434510Y-50352257D02*
X50577368Y-50423685D01*
X50577368Y-50423685D02*
X50648796Y-50495114D01*
X50648796Y-50495114D02*
X50720225Y-50637971D01*
X50720225Y-50637971D02*
X50720225Y-50995114D01*
X50720225Y-50995114D02*
X50648796Y-51137971D01*
X50648796Y-51137971D02*
X50577368Y-51209400D01*
X50577368Y-51209400D02*
X50434510Y-51280828D01*
X50434510Y-51280828D02*
X50005939Y-51280828D01*
X50005939Y-51280828D02*
X49863082Y-51209400D01*
X49863082Y-51209400D02*
X49791653Y-51137971D01*
X51363081Y-51137971D02*
X51434510Y-51209400D01*
X51434510Y-51209400D02*
X51363081Y-51280828D01*
X51363081Y-51280828D02*
X51291653Y-51209400D01*
X51291653Y-51209400D02*
X51363081Y-51137971D01*
X51363081Y-51137971D02*
X51363081Y-51280828D01*
X51934510Y-49780828D02*
X52863082Y-49780828D01*
X52863082Y-49780828D02*
X52363082Y-50352257D01*
X52363082Y-50352257D02*
X52577367Y-50352257D01*
X52577367Y-50352257D02*
X52720225Y-50423685D01*
X52720225Y-50423685D02*
X52791653Y-50495114D01*
X52791653Y-50495114D02*
X52863082Y-50637971D01*
X52863082Y-50637971D02*
X52863082Y-50995114D01*
X52863082Y-50995114D02*
X52791653Y-51137971D01*
X52791653Y-51137971D02*
X52720225Y-51209400D01*
X52720225Y-51209400D02*
X52577367Y-51280828D01*
X52577367Y-51280828D02*
X52148796Y-51280828D01*
X52148796Y-51280828D02*
X52005939Y-51209400D01*
X52005939Y-51209400D02*
X51934510Y-51137971D01*
X53363081Y-50280828D02*
X53720224Y-51280828D01*
X53720224Y-51280828D02*
X54077367Y-50280828D01*
D12*
X110836666Y-50864819D02*
X110503333Y-50388628D01*
X110265238Y-50864819D02*
X110265238Y-49864819D01*
X110265238Y-49864819D02*
X110646190Y-49864819D01*
X110646190Y-49864819D02*
X110741428Y-49912438D01*
X110741428Y-49912438D02*
X110789047Y-49960057D01*
X110789047Y-49960057D02*
X110836666Y-50055295D01*
X110836666Y-50055295D02*
X110836666Y-50198152D01*
X110836666Y-50198152D02*
X110789047Y-50293390D01*
X110789047Y-50293390D02*
X110741428Y-50341009D01*
X110741428Y-50341009D02*
X110646190Y-50388628D01*
X110646190Y-50388628D02*
X110265238Y-50388628D01*
X111265238Y-50341009D02*
X111598571Y-50341009D01*
X111741428Y-50864819D02*
X111265238Y-50864819D01*
X111265238Y-50864819D02*
X111265238Y-49864819D01*
X111265238Y-49864819D02*
X111741428Y-49864819D01*
X112503333Y-50341009D02*
X112170000Y-50341009D01*
X112170000Y-50864819D02*
X112170000Y-49864819D01*
X112170000Y-49864819D02*
X112646190Y-49864819D01*
X113170000Y-49864819D02*
X113170000Y-50102914D01*
X112931905Y-50007676D02*
X113170000Y-50102914D01*
X113170000Y-50102914D02*
X113408095Y-50007676D01*
X113027143Y-50293390D02*
X113170000Y-50102914D01*
X113170000Y-50102914D02*
X113312857Y-50293390D01*
X113931905Y-49864819D02*
X113931905Y-50102914D01*
X113693810Y-50007676D02*
X113931905Y-50102914D01*
X113931905Y-50102914D02*
X114170000Y-50007676D01*
X113789048Y-50293390D02*
X113931905Y-50102914D01*
X113931905Y-50102914D02*
X114074762Y-50293390D01*
X71166666Y-35404819D02*
X70833333Y-34928628D01*
X70595238Y-35404819D02*
X70595238Y-34404819D01*
X70595238Y-34404819D02*
X70976190Y-34404819D01*
X70976190Y-34404819D02*
X71071428Y-34452438D01*
X71071428Y-34452438D02*
X71119047Y-34500057D01*
X71119047Y-34500057D02*
X71166666Y-34595295D01*
X71166666Y-34595295D02*
X71166666Y-34738152D01*
X71166666Y-34738152D02*
X71119047Y-34833390D01*
X71119047Y-34833390D02*
X71071428Y-34881009D01*
X71071428Y-34881009D02*
X70976190Y-34928628D01*
X70976190Y-34928628D02*
X70595238Y-34928628D01*
X71595238Y-34881009D02*
X71928571Y-34881009D01*
X72071428Y-35404819D02*
X71595238Y-35404819D01*
X71595238Y-35404819D02*
X71595238Y-34404819D01*
X71595238Y-34404819D02*
X72071428Y-34404819D01*
X72833333Y-34881009D02*
X72500000Y-34881009D01*
X72500000Y-35404819D02*
X72500000Y-34404819D01*
X72500000Y-34404819D02*
X72976190Y-34404819D01*
X73500000Y-34404819D02*
X73500000Y-34642914D01*
X73261905Y-34547676D02*
X73500000Y-34642914D01*
X73500000Y-34642914D02*
X73738095Y-34547676D01*
X73357143Y-34833390D02*
X73500000Y-34642914D01*
X73500000Y-34642914D02*
X73642857Y-34833390D01*
X74261905Y-34404819D02*
X74261905Y-34642914D01*
X74023810Y-34547676D02*
X74261905Y-34642914D01*
X74261905Y-34642914D02*
X74500000Y-34547676D01*
X74119048Y-34833390D02*
X74261905Y-34642914D01*
X74261905Y-34642914D02*
X74404762Y-34833390D01*
X94186905Y-35804819D02*
X94186905Y-34804819D01*
X94186905Y-34804819D02*
X94425000Y-34804819D01*
X94425000Y-34804819D02*
X94567857Y-34852438D01*
X94567857Y-34852438D02*
X94663095Y-34947676D01*
X94663095Y-34947676D02*
X94710714Y-35042914D01*
X94710714Y-35042914D02*
X94758333Y-35233390D01*
X94758333Y-35233390D02*
X94758333Y-35376247D01*
X94758333Y-35376247D02*
X94710714Y-35566723D01*
X94710714Y-35566723D02*
X94663095Y-35661961D01*
X94663095Y-35661961D02*
X94567857Y-35757200D01*
X94567857Y-35757200D02*
X94425000Y-35804819D01*
X94425000Y-35804819D02*
X94186905Y-35804819D01*
X95710714Y-35804819D02*
X95139286Y-35804819D01*
X95425000Y-35804819D02*
X95425000Y-34804819D01*
X95425000Y-34804819D02*
X95329762Y-34947676D01*
X95329762Y-34947676D02*
X95234524Y-35042914D01*
X95234524Y-35042914D02*
X95139286Y-35090533D01*
X80466666Y-31244819D02*
X80133333Y-30768628D01*
X79895238Y-31244819D02*
X79895238Y-30244819D01*
X79895238Y-30244819D02*
X80276190Y-30244819D01*
X80276190Y-30244819D02*
X80371428Y-30292438D01*
X80371428Y-30292438D02*
X80419047Y-30340057D01*
X80419047Y-30340057D02*
X80466666Y-30435295D01*
X80466666Y-30435295D02*
X80466666Y-30578152D01*
X80466666Y-30578152D02*
X80419047Y-30673390D01*
X80419047Y-30673390D02*
X80371428Y-30721009D01*
X80371428Y-30721009D02*
X80276190Y-30768628D01*
X80276190Y-30768628D02*
X79895238Y-30768628D01*
X80895238Y-30721009D02*
X81228571Y-30721009D01*
X81371428Y-31244819D02*
X80895238Y-31244819D01*
X80895238Y-31244819D02*
X80895238Y-30244819D01*
X80895238Y-30244819D02*
X81371428Y-30244819D01*
X82133333Y-30721009D02*
X81800000Y-30721009D01*
X81800000Y-31244819D02*
X81800000Y-30244819D01*
X81800000Y-30244819D02*
X82276190Y-30244819D01*
X82800000Y-30244819D02*
X82800000Y-30482914D01*
X82561905Y-30387676D02*
X82800000Y-30482914D01*
X82800000Y-30482914D02*
X83038095Y-30387676D01*
X82657143Y-30673390D02*
X82800000Y-30482914D01*
X82800000Y-30482914D02*
X82942857Y-30673390D01*
X83561905Y-30244819D02*
X83561905Y-30482914D01*
X83323810Y-30387676D02*
X83561905Y-30482914D01*
X83561905Y-30482914D02*
X83800000Y-30387676D01*
X83419048Y-30673390D02*
X83561905Y-30482914D01*
X83561905Y-30482914D02*
X83704762Y-30673390D01*
X95918263Y-70006009D02*
X96061120Y-70053628D01*
X96061120Y-70053628D02*
X96108739Y-70101247D01*
X96108739Y-70101247D02*
X96156358Y-70196485D01*
X96156358Y-70196485D02*
X96156358Y-70339342D01*
X96156358Y-70339342D02*
X96108739Y-70434580D01*
X96108739Y-70434580D02*
X96061120Y-70482200D01*
X96061120Y-70482200D02*
X95965882Y-70529819D01*
X95965882Y-70529819D02*
X95584930Y-70529819D01*
X95584930Y-70529819D02*
X95584930Y-69529819D01*
X95584930Y-69529819D02*
X95918263Y-69529819D01*
X95918263Y-69529819D02*
X96013501Y-69577438D01*
X96013501Y-69577438D02*
X96061120Y-69625057D01*
X96061120Y-69625057D02*
X96108739Y-69720295D01*
X96108739Y-69720295D02*
X96108739Y-69815533D01*
X96108739Y-69815533D02*
X96061120Y-69910771D01*
X96061120Y-69910771D02*
X96013501Y-69958390D01*
X96013501Y-69958390D02*
X95918263Y-70006009D01*
X95918263Y-70006009D02*
X95584930Y-70006009D01*
X96489692Y-69529819D02*
X97156358Y-69529819D01*
X97156358Y-69529819D02*
X96489692Y-70529819D01*
X96489692Y-70529819D02*
X97156358Y-70529819D01*
X98061120Y-70529819D02*
X97489692Y-70529819D01*
X97775406Y-70529819D02*
X97775406Y-69529819D01*
X97775406Y-69529819D02*
X97680168Y-69672676D01*
X97680168Y-69672676D02*
X97584930Y-69767914D01*
X97584930Y-69767914D02*
X97489692Y-69815533D01*
X91590476Y-43754819D02*
X91590476Y-44469104D01*
X91590476Y-44469104D02*
X91542857Y-44611961D01*
X91542857Y-44611961D02*
X91447619Y-44707200D01*
X91447619Y-44707200D02*
X91304762Y-44754819D01*
X91304762Y-44754819D02*
X91209524Y-44754819D01*
X92590476Y-44754819D02*
X92019048Y-44754819D01*
X92304762Y-44754819D02*
X92304762Y-43754819D01*
X92304762Y-43754819D02*
X92209524Y-43897676D01*
X92209524Y-43897676D02*
X92114286Y-43992914D01*
X92114286Y-43992914D02*
X92019048Y-44040533D01*
X92971429Y-43850057D02*
X93019048Y-43802438D01*
X93019048Y-43802438D02*
X93114286Y-43754819D01*
X93114286Y-43754819D02*
X93352381Y-43754819D01*
X93352381Y-43754819D02*
X93447619Y-43802438D01*
X93447619Y-43802438D02*
X93495238Y-43850057D01*
X93495238Y-43850057D02*
X93542857Y-43945295D01*
X93542857Y-43945295D02*
X93542857Y-44040533D01*
X93542857Y-44040533D02*
X93495238Y-44183390D01*
X93495238Y-44183390D02*
X92923810Y-44754819D01*
X92923810Y-44754819D02*
X93542857Y-44754819D01*
X102433333Y-34759580D02*
X102385714Y-34807200D01*
X102385714Y-34807200D02*
X102242857Y-34854819D01*
X102242857Y-34854819D02*
X102147619Y-34854819D01*
X102147619Y-34854819D02*
X102004762Y-34807200D01*
X102004762Y-34807200D02*
X101909524Y-34711961D01*
X101909524Y-34711961D02*
X101861905Y-34616723D01*
X101861905Y-34616723D02*
X101814286Y-34426247D01*
X101814286Y-34426247D02*
X101814286Y-34283390D01*
X101814286Y-34283390D02*
X101861905Y-34092914D01*
X101861905Y-34092914D02*
X101909524Y-33997676D01*
X101909524Y-33997676D02*
X102004762Y-33902438D01*
X102004762Y-33902438D02*
X102147619Y-33854819D01*
X102147619Y-33854819D02*
X102242857Y-33854819D01*
X102242857Y-33854819D02*
X102385714Y-33902438D01*
X102385714Y-33902438D02*
X102433333Y-33950057D01*
X103385714Y-34854819D02*
X102814286Y-34854819D01*
X103100000Y-34854819D02*
X103100000Y-33854819D01*
X103100000Y-33854819D02*
X103004762Y-33997676D01*
X103004762Y-33997676D02*
X102909524Y-34092914D01*
X102909524Y-34092914D02*
X102814286Y-34140533D01*
X96866666Y-61444819D02*
X96533333Y-60968628D01*
X96295238Y-61444819D02*
X96295238Y-60444819D01*
X96295238Y-60444819D02*
X96676190Y-60444819D01*
X96676190Y-60444819D02*
X96771428Y-60492438D01*
X96771428Y-60492438D02*
X96819047Y-60540057D01*
X96819047Y-60540057D02*
X96866666Y-60635295D01*
X96866666Y-60635295D02*
X96866666Y-60778152D01*
X96866666Y-60778152D02*
X96819047Y-60873390D01*
X96819047Y-60873390D02*
X96771428Y-60921009D01*
X96771428Y-60921009D02*
X96676190Y-60968628D01*
X96676190Y-60968628D02*
X96295238Y-60968628D01*
X97295238Y-60921009D02*
X97628571Y-60921009D01*
X97771428Y-61444819D02*
X97295238Y-61444819D01*
X97295238Y-61444819D02*
X97295238Y-60444819D01*
X97295238Y-60444819D02*
X97771428Y-60444819D01*
X98533333Y-60921009D02*
X98200000Y-60921009D01*
X98200000Y-61444819D02*
X98200000Y-60444819D01*
X98200000Y-60444819D02*
X98676190Y-60444819D01*
X99200000Y-60444819D02*
X99200000Y-60682914D01*
X98961905Y-60587676D02*
X99200000Y-60682914D01*
X99200000Y-60682914D02*
X99438095Y-60587676D01*
X99057143Y-60873390D02*
X99200000Y-60682914D01*
X99200000Y-60682914D02*
X99342857Y-60873390D01*
X99961905Y-60444819D02*
X99961905Y-60682914D01*
X99723810Y-60587676D02*
X99961905Y-60682914D01*
X99961905Y-60682914D02*
X100200000Y-60587676D01*
X99819048Y-60873390D02*
X99961905Y-60682914D01*
X99961905Y-60682914D02*
X100104762Y-60873390D01*
X48986666Y-50834819D02*
X48653333Y-50358628D01*
X48415238Y-50834819D02*
X48415238Y-49834819D01*
X48415238Y-49834819D02*
X48796190Y-49834819D01*
X48796190Y-49834819D02*
X48891428Y-49882438D01*
X48891428Y-49882438D02*
X48939047Y-49930057D01*
X48939047Y-49930057D02*
X48986666Y-50025295D01*
X48986666Y-50025295D02*
X48986666Y-50168152D01*
X48986666Y-50168152D02*
X48939047Y-50263390D01*
X48939047Y-50263390D02*
X48891428Y-50311009D01*
X48891428Y-50311009D02*
X48796190Y-50358628D01*
X48796190Y-50358628D02*
X48415238Y-50358628D01*
X49415238Y-50311009D02*
X49748571Y-50311009D01*
X49891428Y-50834819D02*
X49415238Y-50834819D01*
X49415238Y-50834819D02*
X49415238Y-49834819D01*
X49415238Y-49834819D02*
X49891428Y-49834819D01*
X50653333Y-50311009D02*
X50320000Y-50311009D01*
X50320000Y-50834819D02*
X50320000Y-49834819D01*
X50320000Y-49834819D02*
X50796190Y-49834819D01*
X51320000Y-49834819D02*
X51320000Y-50072914D01*
X51081905Y-49977676D02*
X51320000Y-50072914D01*
X51320000Y-50072914D02*
X51558095Y-49977676D01*
X51177143Y-50263390D02*
X51320000Y-50072914D01*
X51320000Y-50072914D02*
X51462857Y-50263390D01*
X52081905Y-49834819D02*
X52081905Y-50072914D01*
X51843810Y-49977676D02*
X52081905Y-50072914D01*
X52081905Y-50072914D02*
X52320000Y-49977676D01*
X51939048Y-50263390D02*
X52081905Y-50072914D01*
X52081905Y-50072914D02*
X52224762Y-50263390D01*
X110059580Y-38791666D02*
X110107200Y-38839285D01*
X110107200Y-38839285D02*
X110154819Y-38982142D01*
X110154819Y-38982142D02*
X110154819Y-39077380D01*
X110154819Y-39077380D02*
X110107200Y-39220237D01*
X110107200Y-39220237D02*
X110011961Y-39315475D01*
X110011961Y-39315475D02*
X109916723Y-39363094D01*
X109916723Y-39363094D02*
X109726247Y-39410713D01*
X109726247Y-39410713D02*
X109583390Y-39410713D01*
X109583390Y-39410713D02*
X109392914Y-39363094D01*
X109392914Y-39363094D02*
X109297676Y-39315475D01*
X109297676Y-39315475D02*
X109202438Y-39220237D01*
X109202438Y-39220237D02*
X109154819Y-39077380D01*
X109154819Y-39077380D02*
X109154819Y-38982142D01*
X109154819Y-38982142D02*
X109202438Y-38839285D01*
X109202438Y-38839285D02*
X109250057Y-38791666D01*
X109250057Y-38410713D02*
X109202438Y-38363094D01*
X109202438Y-38363094D02*
X109154819Y-38267856D01*
X109154819Y-38267856D02*
X109154819Y-38029761D01*
X109154819Y-38029761D02*
X109202438Y-37934523D01*
X109202438Y-37934523D02*
X109250057Y-37886904D01*
X109250057Y-37886904D02*
X109345295Y-37839285D01*
X109345295Y-37839285D02*
X109440533Y-37839285D01*
X109440533Y-37839285D02*
X109583390Y-37886904D01*
X109583390Y-37886904D02*
X110154819Y-38458332D01*
X110154819Y-38458332D02*
X110154819Y-37839285D01*
X91966666Y-35394819D02*
X91633333Y-34918628D01*
X91395238Y-35394819D02*
X91395238Y-34394819D01*
X91395238Y-34394819D02*
X91776190Y-34394819D01*
X91776190Y-34394819D02*
X91871428Y-34442438D01*
X91871428Y-34442438D02*
X91919047Y-34490057D01*
X91919047Y-34490057D02*
X91966666Y-34585295D01*
X91966666Y-34585295D02*
X91966666Y-34728152D01*
X91966666Y-34728152D02*
X91919047Y-34823390D01*
X91919047Y-34823390D02*
X91871428Y-34871009D01*
X91871428Y-34871009D02*
X91776190Y-34918628D01*
X91776190Y-34918628D02*
X91395238Y-34918628D01*
X92395238Y-34871009D02*
X92728571Y-34871009D01*
X92871428Y-35394819D02*
X92395238Y-35394819D01*
X92395238Y-35394819D02*
X92395238Y-34394819D01*
X92395238Y-34394819D02*
X92871428Y-34394819D01*
X93633333Y-34871009D02*
X93300000Y-34871009D01*
X93300000Y-35394819D02*
X93300000Y-34394819D01*
X93300000Y-34394819D02*
X93776190Y-34394819D01*
X94300000Y-34394819D02*
X94300000Y-34632914D01*
X94061905Y-34537676D02*
X94300000Y-34632914D01*
X94300000Y-34632914D02*
X94538095Y-34537676D01*
X94157143Y-34823390D02*
X94300000Y-34632914D01*
X94300000Y-34632914D02*
X94442857Y-34823390D01*
X95061905Y-34394819D02*
X95061905Y-34632914D01*
X94823810Y-34537676D02*
X95061905Y-34632914D01*
X95061905Y-34632914D02*
X95300000Y-34537676D01*
X94919048Y-34823390D02*
X95061905Y-34632914D01*
X95061905Y-34632914D02*
X95204762Y-34823390D01*
X101533333Y-68554819D02*
X101200000Y-68078628D01*
X100961905Y-68554819D02*
X100961905Y-67554819D01*
X100961905Y-67554819D02*
X101342857Y-67554819D01*
X101342857Y-67554819D02*
X101438095Y-67602438D01*
X101438095Y-67602438D02*
X101485714Y-67650057D01*
X101485714Y-67650057D02*
X101533333Y-67745295D01*
X101533333Y-67745295D02*
X101533333Y-67888152D01*
X101533333Y-67888152D02*
X101485714Y-67983390D01*
X101485714Y-67983390D02*
X101438095Y-68031009D01*
X101438095Y-68031009D02*
X101342857Y-68078628D01*
X101342857Y-68078628D02*
X100961905Y-68078628D01*
X101914286Y-67650057D02*
X101961905Y-67602438D01*
X101961905Y-67602438D02*
X102057143Y-67554819D01*
X102057143Y-67554819D02*
X102295238Y-67554819D01*
X102295238Y-67554819D02*
X102390476Y-67602438D01*
X102390476Y-67602438D02*
X102438095Y-67650057D01*
X102438095Y-67650057D02*
X102485714Y-67745295D01*
X102485714Y-67745295D02*
X102485714Y-67840533D01*
X102485714Y-67840533D02*
X102438095Y-67983390D01*
X102438095Y-67983390D02*
X101866667Y-68554819D01*
X101866667Y-68554819D02*
X102485714Y-68554819D01*
X71166666Y-66794819D02*
X70833333Y-66318628D01*
X70595238Y-66794819D02*
X70595238Y-65794819D01*
X70595238Y-65794819D02*
X70976190Y-65794819D01*
X70976190Y-65794819D02*
X71071428Y-65842438D01*
X71071428Y-65842438D02*
X71119047Y-65890057D01*
X71119047Y-65890057D02*
X71166666Y-65985295D01*
X71166666Y-65985295D02*
X71166666Y-66128152D01*
X71166666Y-66128152D02*
X71119047Y-66223390D01*
X71119047Y-66223390D02*
X71071428Y-66271009D01*
X71071428Y-66271009D02*
X70976190Y-66318628D01*
X70976190Y-66318628D02*
X70595238Y-66318628D01*
X71595238Y-66271009D02*
X71928571Y-66271009D01*
X72071428Y-66794819D02*
X71595238Y-66794819D01*
X71595238Y-66794819D02*
X71595238Y-65794819D01*
X71595238Y-65794819D02*
X72071428Y-65794819D01*
X72833333Y-66271009D02*
X72500000Y-66271009D01*
X72500000Y-66794819D02*
X72500000Y-65794819D01*
X72500000Y-65794819D02*
X72976190Y-65794819D01*
X73500000Y-65794819D02*
X73500000Y-66032914D01*
X73261905Y-65937676D02*
X73500000Y-66032914D01*
X73500000Y-66032914D02*
X73738095Y-65937676D01*
X73357143Y-66223390D02*
X73500000Y-66032914D01*
X73500000Y-66032914D02*
X73642857Y-66223390D01*
X74261905Y-65794819D02*
X74261905Y-66032914D01*
X74023810Y-65937676D02*
X74261905Y-66032914D01*
X74261905Y-66032914D02*
X74500000Y-65937676D01*
X74119048Y-66223390D02*
X74261905Y-66032914D01*
X74261905Y-66032914D02*
X74404762Y-66223390D01*
X91866666Y-66794819D02*
X91533333Y-66318628D01*
X91295238Y-66794819D02*
X91295238Y-65794819D01*
X91295238Y-65794819D02*
X91676190Y-65794819D01*
X91676190Y-65794819D02*
X91771428Y-65842438D01*
X91771428Y-65842438D02*
X91819047Y-65890057D01*
X91819047Y-65890057D02*
X91866666Y-65985295D01*
X91866666Y-65985295D02*
X91866666Y-66128152D01*
X91866666Y-66128152D02*
X91819047Y-66223390D01*
X91819047Y-66223390D02*
X91771428Y-66271009D01*
X91771428Y-66271009D02*
X91676190Y-66318628D01*
X91676190Y-66318628D02*
X91295238Y-66318628D01*
X92295238Y-66271009D02*
X92628571Y-66271009D01*
X92771428Y-66794819D02*
X92295238Y-66794819D01*
X92295238Y-66794819D02*
X92295238Y-65794819D01*
X92295238Y-65794819D02*
X92771428Y-65794819D01*
X93533333Y-66271009D02*
X93200000Y-66271009D01*
X93200000Y-66794819D02*
X93200000Y-65794819D01*
X93200000Y-65794819D02*
X93676190Y-65794819D01*
X94200000Y-65794819D02*
X94200000Y-66032914D01*
X93961905Y-65937676D02*
X94200000Y-66032914D01*
X94200000Y-66032914D02*
X94438095Y-65937676D01*
X94057143Y-66223390D02*
X94200000Y-66032914D01*
X94200000Y-66032914D02*
X94342857Y-66223390D01*
X94961905Y-65794819D02*
X94961905Y-66032914D01*
X94723810Y-65937676D02*
X94961905Y-66032914D01*
X94961905Y-66032914D02*
X95200000Y-65937676D01*
X94819048Y-66223390D02*
X94961905Y-66032914D01*
X94961905Y-66032914D02*
X95104762Y-66223390D01*
X74613095Y-78054819D02*
X74613095Y-78864342D01*
X74613095Y-78864342D02*
X74660714Y-78959580D01*
X74660714Y-78959580D02*
X74708333Y-79007200D01*
X74708333Y-79007200D02*
X74803571Y-79054819D01*
X74803571Y-79054819D02*
X74994047Y-79054819D01*
X74994047Y-79054819D02*
X75089285Y-79007200D01*
X75089285Y-79007200D02*
X75136904Y-78959580D01*
X75136904Y-78959580D02*
X75184523Y-78864342D01*
X75184523Y-78864342D02*
X75184523Y-78054819D01*
X76184523Y-79054819D02*
X75613095Y-79054819D01*
X75898809Y-79054819D02*
X75898809Y-78054819D01*
X75898809Y-78054819D02*
X75803571Y-78197676D01*
X75803571Y-78197676D02*
X75708333Y-78292914D01*
X75708333Y-78292914D02*
X75613095Y-78340533D01*
X75158333Y-74759580D02*
X75110714Y-74807200D01*
X75110714Y-74807200D02*
X74967857Y-74854819D01*
X74967857Y-74854819D02*
X74872619Y-74854819D01*
X74872619Y-74854819D02*
X74729762Y-74807200D01*
X74729762Y-74807200D02*
X74634524Y-74711961D01*
X74634524Y-74711961D02*
X74586905Y-74616723D01*
X74586905Y-74616723D02*
X74539286Y-74426247D01*
X74539286Y-74426247D02*
X74539286Y-74283390D01*
X74539286Y-74283390D02*
X74586905Y-74092914D01*
X74586905Y-74092914D02*
X74634524Y-73997676D01*
X74634524Y-73997676D02*
X74729762Y-73902438D01*
X74729762Y-73902438D02*
X74872619Y-73854819D01*
X74872619Y-73854819D02*
X74967857Y-73854819D01*
X74967857Y-73854819D02*
X75110714Y-73902438D01*
X75110714Y-73902438D02*
X75158333Y-73950057D01*
X75491667Y-73854819D02*
X76110714Y-73854819D01*
X76110714Y-73854819D02*
X75777381Y-74235771D01*
X75777381Y-74235771D02*
X75920238Y-74235771D01*
X75920238Y-74235771D02*
X76015476Y-74283390D01*
X76015476Y-74283390D02*
X76063095Y-74331009D01*
X76063095Y-74331009D02*
X76110714Y-74426247D01*
X76110714Y-74426247D02*
X76110714Y-74664342D01*
X76110714Y-74664342D02*
X76063095Y-74759580D01*
X76063095Y-74759580D02*
X76015476Y-74807200D01*
X76015476Y-74807200D02*
X75920238Y-74854819D01*
X75920238Y-74854819D02*
X75634524Y-74854819D01*
X75634524Y-74854819D02*
X75539286Y-74807200D01*
X75539286Y-74807200D02*
X75491667Y-74759580D01*
X98173333Y-35114819D02*
X97840000Y-34638628D01*
X97601905Y-35114819D02*
X97601905Y-34114819D01*
X97601905Y-34114819D02*
X97982857Y-34114819D01*
X97982857Y-34114819D02*
X98078095Y-34162438D01*
X98078095Y-34162438D02*
X98125714Y-34210057D01*
X98125714Y-34210057D02*
X98173333Y-34305295D01*
X98173333Y-34305295D02*
X98173333Y-34448152D01*
X98173333Y-34448152D02*
X98125714Y-34543390D01*
X98125714Y-34543390D02*
X98078095Y-34591009D01*
X98078095Y-34591009D02*
X97982857Y-34638628D01*
X97982857Y-34638628D02*
X97601905Y-34638628D01*
X99125714Y-35114819D02*
X98554286Y-35114819D01*
X98840000Y-35114819D02*
X98840000Y-34114819D01*
X98840000Y-34114819D02*
X98744762Y-34257676D01*
X98744762Y-34257676D02*
X98649524Y-34352914D01*
X98649524Y-34352914D02*
X98554286Y-34400533D01*
%TO.C,J13*%
D13*
X79170000Y-27020000D02*
X79170000Y-29680000D01*
X97010000Y-27020000D02*
X79170000Y-27020000D01*
X97010000Y-27020000D02*
X97010000Y-29680000D01*
X97010000Y-29680000D02*
X79170000Y-29680000D01*
X99610000Y-28350000D02*
X99610000Y-29680000D01*
X99610000Y-29680000D02*
X98280000Y-29680000D01*
%TO.C,J18*%
X56670000Y-74170000D02*
X58000000Y-74170000D01*
X56670000Y-75500000D02*
X56670000Y-74170000D01*
X56670000Y-76770000D02*
X56670000Y-79370000D01*
X56670000Y-76770000D02*
X59330000Y-76770000D01*
X56670000Y-79370000D02*
X59330000Y-79370000D01*
X59330000Y-76770000D02*
X59330000Y-79370000D01*
%TO.C,J1*%
X97210000Y-42020000D02*
X97210000Y-44680000D01*
X99810000Y-42020000D02*
X99810000Y-44680000D01*
X102410000Y-43350000D02*
X102410000Y-44680000D01*
%TO.C,J17*%
X62900000Y-26970000D02*
X64230000Y-26970000D01*
X62900000Y-28300000D02*
X62900000Y-26970000D01*
X65500000Y-26970000D02*
X78260000Y-26970000D01*
X65500000Y-29630000D02*
X65500000Y-26970000D01*
X65500000Y-29630000D02*
X78260000Y-29630000D01*
X78260000Y-29630000D02*
X78260000Y-26970000D01*
%TO.C,SW1*%
X53540000Y-69100000D02*
X53540000Y-70100000D01*
X53540000Y-70100000D02*
X54040000Y-69600000D01*
X54040000Y-69600000D02*
X53540000Y-69100000D01*
X54240000Y-63190000D02*
X54550000Y-63190000D01*
X54240000Y-72010000D02*
X54240000Y-63190000D01*
X54550000Y-72010000D02*
X54240000Y-72010000D01*
X58760000Y-63190000D02*
X58450000Y-63190000D01*
X58760000Y-63190000D02*
X58760000Y-72010000D01*
X58760000Y-72010000D02*
X58450000Y-72010000D01*
D14*
%TO.C,REF\u002A\u002A*%
X105371259Y-61994509D02*
X105467534Y-62018747D01*
X105554118Y-62061579D01*
X105628929Y-62121357D01*
X105689884Y-62196432D01*
X105734903Y-62285158D01*
X105761166Y-62381468D01*
X105767016Y-62478733D01*
X105752162Y-62572592D01*
X105718462Y-62660449D01*
X105667774Y-62739708D01*
X105601957Y-62807774D01*
X105522868Y-62862050D01*
X105432368Y-62899940D01*
X105381102Y-62912364D01*
X105336604Y-62919885D01*
X105302303Y-62922857D01*
X105269342Y-62921032D01*
X105228868Y-62914163D01*
X105195771Y-62907188D01*
X105102355Y-62875679D01*
X105018683Y-62824555D01*
X104946637Y-62755367D01*
X104888102Y-62669666D01*
X104874154Y-62642427D01*
X104857716Y-62606060D01*
X104847408Y-62575520D01*
X104841842Y-62543388D01*
X104839633Y-62502245D01*
X104839354Y-62456160D01*
X104843441Y-62371803D01*
X104856856Y-62302524D01*
X104882046Y-62241899D01*
X104921456Y-62183505D01*
X104960004Y-62139240D01*
X105031896Y-62073422D01*
X105106989Y-62027991D01*
X105189740Y-62000788D01*
X105267374Y-61990514D01*
X105371259Y-61994509D01*
G36*
X105371259Y-61994509D02*
G01*
X105467534Y-62018747D01*
X105554118Y-62061579D01*
X105628929Y-62121357D01*
X105689884Y-62196432D01*
X105734903Y-62285158D01*
X105761166Y-62381468D01*
X105767016Y-62478733D01*
X105752162Y-62572592D01*
X105718462Y-62660449D01*
X105667774Y-62739708D01*
X105601957Y-62807774D01*
X105522868Y-62862050D01*
X105432368Y-62899940D01*
X105381102Y-62912364D01*
X105336604Y-62919885D01*
X105302303Y-62922857D01*
X105269342Y-62921032D01*
X105228868Y-62914163D01*
X105195771Y-62907188D01*
X105102355Y-62875679D01*
X105018683Y-62824555D01*
X104946637Y-62755367D01*
X104888102Y-62669666D01*
X104874154Y-62642427D01*
X104857716Y-62606060D01*
X104847408Y-62575520D01*
X104841842Y-62543388D01*
X104839633Y-62502245D01*
X104839354Y-62456160D01*
X104843441Y-62371803D01*
X104856856Y-62302524D01*
X104882046Y-62241899D01*
X104921456Y-62183505D01*
X104960004Y-62139240D01*
X105031896Y-62073422D01*
X105106989Y-62027991D01*
X105189740Y-62000788D01*
X105267374Y-61990514D01*
X105371259Y-61994509D01*
G37*
X107972731Y-62917009D02*
X108132872Y-62938183D01*
X108296812Y-62978323D01*
X108466615Y-63037827D01*
X108644345Y-63117092D01*
X108655612Y-63122637D01*
X108713307Y-63150663D01*
X108764854Y-63174740D01*
X108806493Y-63193187D01*
X108834464Y-63204324D01*
X108844035Y-63206871D01*
X108863252Y-63211879D01*
X108867863Y-63216085D01*
X108862760Y-63226518D01*
X108846720Y-63252806D01*
X108821590Y-63292195D01*
X108789216Y-63341929D01*
X108751445Y-63399253D01*
X108710124Y-63461414D01*
X108667100Y-63525656D01*
X108624219Y-63589223D01*
X108583328Y-63649363D01*
X108546273Y-63703318D01*
X108514902Y-63748335D01*
X108491061Y-63781659D01*
X108476596Y-63800535D01*
X108474611Y-63802725D01*
X108464493Y-63798076D01*
X108442152Y-63780900D01*
X108411582Y-63754378D01*
X108395838Y-63739902D01*
X108299349Y-63664620D01*
X108192638Y-63609179D01*
X108077134Y-63574079D01*
X107954264Y-63559818D01*
X107884863Y-63560989D01*
X107763725Y-63578150D01*
X107654507Y-63614032D01*
X107556884Y-63668897D01*
X107470530Y-63743008D01*
X107395117Y-63836626D01*
X107330320Y-63950014D01*
X107292903Y-64036605D01*
X107249050Y-64172304D01*
X107216730Y-64319788D01*
X107195859Y-64475252D01*
X107186353Y-64634894D01*
X107188129Y-64794911D01*
X107201105Y-64951499D01*
X107225196Y-65100856D01*
X107260320Y-65239178D01*
X107306394Y-65362662D01*
X107322675Y-65396916D01*
X107390922Y-65511002D01*
X107471381Y-65607495D01*
X107562872Y-65685608D01*
X107664213Y-65744555D01*
X107774222Y-65783550D01*
X107891717Y-65801806D01*
X107933185Y-65803149D01*
X108054743Y-65792228D01*
X108175180Y-65759412D01*
X108292968Y-65705377D01*
X108406579Y-65630803D01*
X108497987Y-65552477D01*
X108544517Y-65507946D01*
X108725785Y-65805209D01*
X108770882Y-65879371D01*
X108812121Y-65947584D01*
X108848037Y-66007397D01*
X108877168Y-66056358D01*
X108898052Y-66092017D01*
X108909226Y-66111922D01*
X108910677Y-66115017D01*
X108902448Y-66124656D01*
X108876869Y-66141937D01*
X108837175Y-66165221D01*
X108786599Y-66192872D01*
X108728376Y-66223253D01*
X108665739Y-66254728D01*
X108601923Y-66285660D01*
X108540162Y-66314411D01*
X108483690Y-66339346D01*
X108435740Y-66358827D01*
X108412288Y-66367256D01*
X108278523Y-66405071D01*
X108140629Y-66430074D01*
X107992924Y-66443078D01*
X107866135Y-66445406D01*
X107798180Y-66444311D01*
X107732579Y-66442213D01*
X107675149Y-66439372D01*
X107631705Y-66436044D01*
X107617600Y-66434360D01*
X107478586Y-66405525D01*
X107337059Y-66360406D01*
X107199577Y-66301688D01*
X107072696Y-66232058D01*
X106995191Y-66179379D01*
X106867783Y-66071177D01*
X106749480Y-65944609D01*
X106642474Y-65802804D01*
X106548954Y-65648889D01*
X106471112Y-65485991D01*
X106427258Y-65368694D01*
X106377010Y-65185066D01*
X106343511Y-64990519D01*
X106326751Y-64789263D01*
X106326718Y-64585506D01*
X106343403Y-64383459D01*
X106376795Y-64187330D01*
X106426882Y-64001329D01*
X106430699Y-63989741D01*
X106493583Y-63827688D01*
X106570330Y-63679770D01*
X106663544Y-63541803D01*
X106775829Y-63409599D01*
X106819694Y-63364337D01*
X106955836Y-63240395D01*
X107095793Y-63137853D01*
X107241713Y-63055594D01*
X107395744Y-62992502D01*
X107560034Y-62947461D01*
X107655591Y-62929971D01*
X107814325Y-62914404D01*
X107972731Y-62917009D01*
G36*
X107972731Y-62917009D02*
G01*
X108132872Y-62938183D01*
X108296812Y-62978323D01*
X108466615Y-63037827D01*
X108644345Y-63117092D01*
X108655612Y-63122637D01*
X108713307Y-63150663D01*
X108764854Y-63174740D01*
X108806493Y-63193187D01*
X108834464Y-63204324D01*
X108844035Y-63206871D01*
X108863252Y-63211879D01*
X108867863Y-63216085D01*
X108862760Y-63226518D01*
X108846720Y-63252806D01*
X108821590Y-63292195D01*
X108789216Y-63341929D01*
X108751445Y-63399253D01*
X108710124Y-63461414D01*
X108667100Y-63525656D01*
X108624219Y-63589223D01*
X108583328Y-63649363D01*
X108546273Y-63703318D01*
X108514902Y-63748335D01*
X108491061Y-63781659D01*
X108476596Y-63800535D01*
X108474611Y-63802725D01*
X108464493Y-63798076D01*
X108442152Y-63780900D01*
X108411582Y-63754378D01*
X108395838Y-63739902D01*
X108299349Y-63664620D01*
X108192638Y-63609179D01*
X108077134Y-63574079D01*
X107954264Y-63559818D01*
X107884863Y-63560989D01*
X107763725Y-63578150D01*
X107654507Y-63614032D01*
X107556884Y-63668897D01*
X107470530Y-63743008D01*
X107395117Y-63836626D01*
X107330320Y-63950014D01*
X107292903Y-64036605D01*
X107249050Y-64172304D01*
X107216730Y-64319788D01*
X107195859Y-64475252D01*
X107186353Y-64634894D01*
X107188129Y-64794911D01*
X107201105Y-64951499D01*
X107225196Y-65100856D01*
X107260320Y-65239178D01*
X107306394Y-65362662D01*
X107322675Y-65396916D01*
X107390922Y-65511002D01*
X107471381Y-65607495D01*
X107562872Y-65685608D01*
X107664213Y-65744555D01*
X107774222Y-65783550D01*
X107891717Y-65801806D01*
X107933185Y-65803149D01*
X108054743Y-65792228D01*
X108175180Y-65759412D01*
X108292968Y-65705377D01*
X108406579Y-65630803D01*
X108497987Y-65552477D01*
X108544517Y-65507946D01*
X108725785Y-65805209D01*
X108770882Y-65879371D01*
X108812121Y-65947584D01*
X108848037Y-66007397D01*
X108877168Y-66056358D01*
X108898052Y-66092017D01*
X108909226Y-66111922D01*
X108910677Y-66115017D01*
X108902448Y-66124656D01*
X108876869Y-66141937D01*
X108837175Y-66165221D01*
X108786599Y-66192872D01*
X108728376Y-66223253D01*
X108665739Y-66254728D01*
X108601923Y-66285660D01*
X108540162Y-66314411D01*
X108483690Y-66339346D01*
X108435740Y-66358827D01*
X108412288Y-66367256D01*
X108278523Y-66405071D01*
X108140629Y-66430074D01*
X107992924Y-66443078D01*
X107866135Y-66445406D01*
X107798180Y-66444311D01*
X107732579Y-66442213D01*
X107675149Y-66439372D01*
X107631705Y-66436044D01*
X107617600Y-66434360D01*
X107478586Y-66405525D01*
X107337059Y-66360406D01*
X107199577Y-66301688D01*
X107072696Y-66232058D01*
X106995191Y-66179379D01*
X106867783Y-66071177D01*
X106749480Y-65944609D01*
X106642474Y-65802804D01*
X106548954Y-65648889D01*
X106471112Y-65485991D01*
X106427258Y-65368694D01*
X106377010Y-65185066D01*
X106343511Y-64990519D01*
X106326751Y-64789263D01*
X106326718Y-64585506D01*
X106343403Y-64383459D01*
X106376795Y-64187330D01*
X106426882Y-64001329D01*
X106430699Y-63989741D01*
X106493583Y-63827688D01*
X106570330Y-63679770D01*
X106663544Y-63541803D01*
X106775829Y-63409599D01*
X106819694Y-63364337D01*
X106955836Y-63240395D01*
X107095793Y-63137853D01*
X107241713Y-63055594D01*
X107395744Y-62992502D01*
X107560034Y-62947461D01*
X107655591Y-62929971D01*
X107814325Y-62914404D01*
X107972731Y-62917009D01*
G37*
X113830809Y-64440183D02*
X113830828Y-64674600D01*
X113830854Y-64887541D01*
X113830927Y-65080106D01*
X113831084Y-65253397D01*
X113831366Y-65408514D01*
X113831811Y-65546558D01*
X113832458Y-65668630D01*
X113833347Y-65775832D01*
X113834515Y-65869264D01*
X113836003Y-65950028D01*
X113837848Y-66019224D01*
X113840091Y-66077953D01*
X113842771Y-66127317D01*
X113845925Y-66168416D01*
X113849594Y-66202351D01*
X113853815Y-66230224D01*
X113858629Y-66253136D01*
X113864075Y-66272187D01*
X113870190Y-66288478D01*
X113877014Y-66303111D01*
X113884587Y-66317187D01*
X113892947Y-66331806D01*
X113898141Y-66340912D01*
X113932406Y-66401627D01*
X113074257Y-66401627D01*
X113074257Y-66305671D01*
X113073526Y-66262308D01*
X113071574Y-66229143D01*
X113068765Y-66211362D01*
X113067523Y-66209716D01*
X113056101Y-66216600D01*
X113033386Y-66234443D01*
X113010687Y-66253817D01*
X112956102Y-66294552D01*
X112886623Y-66335555D01*
X112809572Y-66373061D01*
X112732267Y-66403302D01*
X112701415Y-66412950D01*
X112632918Y-66427516D01*
X112550066Y-66437477D01*
X112460673Y-66442521D01*
X112372550Y-66442334D01*
X112293509Y-66436604D01*
X112255813Y-66430796D01*
X112117716Y-66392735D01*
X111990415Y-66335011D01*
X111874594Y-66258149D01*
X111770939Y-66162677D01*
X111680135Y-66049117D01*
X111613333Y-65938319D01*
X111558466Y-65821563D01*
X111516465Y-65702214D01*
X111486469Y-65576221D01*
X111467613Y-65439532D01*
X111459034Y-65288096D01*
X111458308Y-65210649D01*
X111460402Y-65153872D01*
X112289519Y-65153872D01*
X112289726Y-65246940D01*
X112292639Y-65334630D01*
X112298302Y-65411710D01*
X112306757Y-65472947D01*
X112309340Y-65485288D01*
X112341142Y-65592571D01*
X112382800Y-65679596D01*
X112434665Y-65746580D01*
X112497083Y-65793743D01*
X112570402Y-65821303D01*
X112654971Y-65829479D01*
X112751137Y-65818489D01*
X112814613Y-65802767D01*
X112863756Y-65784577D01*
X112917885Y-65758729D01*
X112958546Y-65735027D01*
X113029102Y-65688659D01*
X113029102Y-64538468D01*
X112961694Y-64494900D01*
X112883169Y-64453978D01*
X112798983Y-64427327D01*
X112713859Y-64415403D01*
X112632518Y-64418660D01*
X112559682Y-64437553D01*
X112527728Y-64453122D01*
X112469803Y-64496119D01*
X112420846Y-64552891D01*
X112379692Y-64625513D01*
X112345176Y-64716059D01*
X112316135Y-64826604D01*
X112314854Y-64832471D01*
X112304683Y-64894726D01*
X112297041Y-64972532D01*
X112291972Y-65060658D01*
X112289519Y-65153872D01*
X111460402Y-65153872D01*
X111466159Y-64997833D01*
X111488104Y-64801997D01*
X111524088Y-64623270D01*
X111574061Y-64461783D01*
X111637970Y-64317664D01*
X111715764Y-64191044D01*
X111807391Y-64082053D01*
X111912799Y-63990821D01*
X111957964Y-63959870D01*
X112058913Y-63903723D01*
X112162203Y-63864112D01*
X112272291Y-63839952D01*
X112393632Y-63830157D01*
X112486138Y-63831203D01*
X112615792Y-63842169D01*
X112728386Y-63863984D01*
X112827177Y-63897652D01*
X112915423Y-63944174D01*
X112964288Y-63978386D01*
X112993655Y-64000300D01*
X113015345Y-64015271D01*
X113023555Y-64019671D01*
X113025170Y-64008842D01*
X113026461Y-63978189D01*
X113027440Y-63930464D01*
X113028119Y-63868417D01*
X113028512Y-63794800D01*
X113028632Y-63712365D01*
X113028490Y-63623863D01*
X113028099Y-63532045D01*
X113027473Y-63439662D01*
X113026622Y-63349466D01*
X113025562Y-63264209D01*
X113024303Y-63186641D01*
X113022858Y-63119514D01*
X113021240Y-63065579D01*
X113019463Y-63027588D01*
X113018971Y-63020605D01*
X113011394Y-62950189D01*
X112999833Y-62895040D01*
X112982094Y-62847919D01*
X112955984Y-62801585D01*
X112949717Y-62792005D01*
X112925285Y-62755316D01*
X113830613Y-62755316D01*
X113830809Y-64440183D01*
G36*
X113830809Y-64440183D02*
G01*
X113830828Y-64674600D01*
X113830854Y-64887541D01*
X113830927Y-65080106D01*
X113831084Y-65253397D01*
X113831366Y-65408514D01*
X113831811Y-65546558D01*
X113832458Y-65668630D01*
X113833347Y-65775832D01*
X113834515Y-65869264D01*
X113836003Y-65950028D01*
X113837848Y-66019224D01*
X113840091Y-66077953D01*
X113842771Y-66127317D01*
X113845925Y-66168416D01*
X113849594Y-66202351D01*
X113853815Y-66230224D01*
X113858629Y-66253136D01*
X113864075Y-66272187D01*
X113870190Y-66288478D01*
X113877014Y-66303111D01*
X113884587Y-66317187D01*
X113892947Y-66331806D01*
X113898141Y-66340912D01*
X113932406Y-66401627D01*
X113074257Y-66401627D01*
X113074257Y-66305671D01*
X113073526Y-66262308D01*
X113071574Y-66229143D01*
X113068765Y-66211362D01*
X113067523Y-66209716D01*
X113056101Y-66216600D01*
X113033386Y-66234443D01*
X113010687Y-66253817D01*
X112956102Y-66294552D01*
X112886623Y-66335555D01*
X112809572Y-66373061D01*
X112732267Y-66403302D01*
X112701415Y-66412950D01*
X112632918Y-66427516D01*
X112550066Y-66437477D01*
X112460673Y-66442521D01*
X112372550Y-66442334D01*
X112293509Y-66436604D01*
X112255813Y-66430796D01*
X112117716Y-66392735D01*
X111990415Y-66335011D01*
X111874594Y-66258149D01*
X111770939Y-66162677D01*
X111680135Y-66049117D01*
X111613333Y-65938319D01*
X111558466Y-65821563D01*
X111516465Y-65702214D01*
X111486469Y-65576221D01*
X111467613Y-65439532D01*
X111459034Y-65288096D01*
X111458308Y-65210649D01*
X111460402Y-65153872D01*
X112289519Y-65153872D01*
X112289726Y-65246940D01*
X112292639Y-65334630D01*
X112298302Y-65411710D01*
X112306757Y-65472947D01*
X112309340Y-65485288D01*
X112341142Y-65592571D01*
X112382800Y-65679596D01*
X112434665Y-65746580D01*
X112497083Y-65793743D01*
X112570402Y-65821303D01*
X112654971Y-65829479D01*
X112751137Y-65818489D01*
X112814613Y-65802767D01*
X112863756Y-65784577D01*
X112917885Y-65758729D01*
X112958546Y-65735027D01*
X113029102Y-65688659D01*
X113029102Y-64538468D01*
X112961694Y-64494900D01*
X112883169Y-64453978D01*
X112798983Y-64427327D01*
X112713859Y-64415403D01*
X112632518Y-64418660D01*
X112559682Y-64437553D01*
X112527728Y-64453122D01*
X112469803Y-64496119D01*
X112420846Y-64552891D01*
X112379692Y-64625513D01*
X112345176Y-64716059D01*
X112316135Y-64826604D01*
X112314854Y-64832471D01*
X112304683Y-64894726D01*
X112297041Y-64972532D01*
X112291972Y-65060658D01*
X112289519Y-65153872D01*
X111460402Y-65153872D01*
X111466159Y-64997833D01*
X111488104Y-64801997D01*
X111524088Y-64623270D01*
X111574061Y-64461783D01*
X111637970Y-64317664D01*
X111715764Y-64191044D01*
X111807391Y-64082053D01*
X111912799Y-63990821D01*
X111957964Y-63959870D01*
X112058913Y-63903723D01*
X112162203Y-63864112D01*
X112272291Y-63839952D01*
X112393632Y-63830157D01*
X112486138Y-63831203D01*
X112615792Y-63842169D01*
X112728386Y-63863984D01*
X112827177Y-63897652D01*
X112915423Y-63944174D01*
X112964288Y-63978386D01*
X112993655Y-64000300D01*
X113015345Y-64015271D01*
X113023555Y-64019671D01*
X113025170Y-64008842D01*
X113026461Y-63978189D01*
X113027440Y-63930464D01*
X113028119Y-63868417D01*
X113028512Y-63794800D01*
X113028632Y-63712365D01*
X113028490Y-63623863D01*
X113028099Y-63532045D01*
X113027473Y-63439662D01*
X113026622Y-63349466D01*
X113025562Y-63264209D01*
X113024303Y-63186641D01*
X113022858Y-63119514D01*
X113021240Y-63065579D01*
X113019463Y-63027588D01*
X113018971Y-63020605D01*
X113011394Y-62950189D01*
X112999833Y-62895040D01*
X112982094Y-62847919D01*
X112955984Y-62801585D01*
X112949717Y-62792005D01*
X112925285Y-62755316D01*
X113830613Y-62755316D01*
X113830809Y-64440183D01*
G37*
X110317876Y-63834490D02*
X110469794Y-63854505D01*
X110605058Y-63888140D01*
X110724541Y-63935663D01*
X110829117Y-63997343D01*
X110906726Y-64060903D01*
X110975567Y-64135037D01*
X111029308Y-64214809D01*
X111072212Y-64307029D01*
X111087686Y-64350099D01*
X111100546Y-64389080D01*
X111111748Y-64425227D01*
X111121422Y-64460372D01*
X111129698Y-64496348D01*
X111136705Y-64534988D01*
X111142574Y-64578123D01*
X111147433Y-64627587D01*
X111151412Y-64685211D01*
X111154642Y-64752829D01*
X111157251Y-64832272D01*
X111159369Y-64925374D01*
X111161126Y-65033965D01*
X111162651Y-65159880D01*
X111164074Y-65304950D01*
X111165327Y-65447716D01*
X111166653Y-65603906D01*
X111167858Y-65739177D01*
X111169068Y-65855184D01*
X111170408Y-65953583D01*
X111172002Y-66036031D01*
X111173977Y-66104184D01*
X111176458Y-66159698D01*
X111179571Y-66204230D01*
X111183440Y-66239436D01*
X111188191Y-66266972D01*
X111193950Y-66288494D01*
X111200841Y-66305660D01*
X111208991Y-66320124D01*
X111218525Y-66333544D01*
X111229568Y-66347576D01*
X111233868Y-66353009D01*
X111249688Y-66375848D01*
X111256724Y-66391401D01*
X111256746Y-66391860D01*
X111245869Y-66394059D01*
X111214884Y-66396085D01*
X111166259Y-66397880D01*
X111102465Y-66399389D01*
X111025971Y-66400554D01*
X110939246Y-66401318D01*
X110844759Y-66401624D01*
X110833852Y-66401627D01*
X110410959Y-66401627D01*
X110407697Y-66305560D01*
X110404435Y-66209494D01*
X110342346Y-66260481D01*
X110245016Y-66327995D01*
X110135115Y-66382687D01*
X110048651Y-66412916D01*
X109979580Y-66427604D01*
X109896227Y-66437597D01*
X109806461Y-66442584D01*
X109718147Y-66442251D01*
X109639153Y-66436289D01*
X109602924Y-66430576D01*
X109462905Y-66392714D01*
X109336480Y-66337870D01*
X109224562Y-66266862D01*
X109128064Y-66180506D01*
X109047902Y-66079617D01*
X108984989Y-65965014D01*
X108940614Y-65838922D01*
X108928280Y-65782339D01*
X108920670Y-65720140D01*
X108917041Y-65645301D01*
X108916547Y-65611405D01*
X108916612Y-65608220D01*
X109676550Y-65608220D01*
X109685843Y-65683271D01*
X109714030Y-65747098D01*
X109762499Y-65802736D01*
X109767556Y-65807149D01*
X109815850Y-65841975D01*
X109867559Y-65864558D01*
X109928291Y-65876478D01*
X110003654Y-65879321D01*
X110021761Y-65878916D01*
X110075580Y-65876263D01*
X110115610Y-65870847D01*
X110150626Y-65860683D01*
X110189405Y-65843788D01*
X110200047Y-65838610D01*
X110260698Y-65802782D01*
X110307517Y-65760150D01*
X110320254Y-65744911D01*
X110364924Y-65688400D01*
X110364924Y-65492524D01*
X110364388Y-65413877D01*
X110362698Y-65355926D01*
X110359730Y-65316813D01*
X110355359Y-65294679D01*
X110351274Y-65288212D01*
X110335349Y-65285049D01*
X110301566Y-65282426D01*
X110254642Y-65280593D01*
X110199295Y-65279795D01*
X110190408Y-65279780D01*
X110069632Y-65285034D01*
X109966962Y-65301201D01*
X109880408Y-65328899D01*
X109807983Y-65368746D01*
X109753053Y-65415696D01*
X109708506Y-65473583D01*
X109683782Y-65536631D01*
X109676550Y-65608220D01*
X108916612Y-65608220D01*
X108918480Y-65517650D01*
X108926824Y-65438750D01*
X108943070Y-65367528D01*
X108968707Y-65296802D01*
X108992703Y-65244431D01*
X109051322Y-65149134D01*
X109129419Y-65061108D01*
X109224617Y-64981955D01*
X109334540Y-64913278D01*
X109456812Y-64856679D01*
X109589057Y-64813759D01*
X109653724Y-64798820D01*
X109789906Y-64776715D01*
X109938351Y-64762132D01*
X110089807Y-64755751D01*
X110216366Y-64757383D01*
X110378252Y-64764162D01*
X110370832Y-64705183D01*
X110351540Y-64606030D01*
X110320406Y-64525310D01*
X110276571Y-64462404D01*
X110219173Y-64416694D01*
X110147350Y-64387560D01*
X110060243Y-64374385D01*
X109956988Y-64376549D01*
X109919013Y-64380550D01*
X109777822Y-64405718D01*
X109641009Y-64446752D01*
X109546480Y-64484753D01*
X109501320Y-64504128D01*
X109462887Y-64519698D01*
X109436536Y-64529343D01*
X109428848Y-64531390D01*
X109419104Y-64522312D01*
X109402385Y-64493343D01*
X109378534Y-64444155D01*
X109347395Y-64374422D01*
X109308809Y-64283817D01*
X109302212Y-64268027D01*
X109272155Y-64195710D01*
X109245176Y-64130363D01*
X109222438Y-64074844D01*
X109205108Y-64032010D01*
X109194350Y-64004719D01*
X109191243Y-63995880D01*
X109201242Y-63991125D01*
X109227519Y-63985848D01*
X109255791Y-63982169D01*
X109285948Y-63977412D01*
X109333735Y-63967966D01*
X109394914Y-63954758D01*
X109465248Y-63938714D01*
X109540496Y-63920758D01*
X109569057Y-63913735D01*
X109674118Y-63888147D01*
X109761782Y-63868085D01*
X109836370Y-63852907D01*
X109902205Y-63841973D01*
X109963609Y-63834642D01*
X110024904Y-63830273D01*
X110090412Y-63828225D01*
X110148430Y-63827827D01*
X110317876Y-63834490D01*
G36*
X110317876Y-63834490D02*
G01*
X110469794Y-63854505D01*
X110605058Y-63888140D01*
X110724541Y-63935663D01*
X110829117Y-63997343D01*
X110906726Y-64060903D01*
X110975567Y-64135037D01*
X111029308Y-64214809D01*
X111072212Y-64307029D01*
X111087686Y-64350099D01*
X111100546Y-64389080D01*
X111111748Y-64425227D01*
X111121422Y-64460372D01*
X111129698Y-64496348D01*
X111136705Y-64534988D01*
X111142574Y-64578123D01*
X111147433Y-64627587D01*
X111151412Y-64685211D01*
X111154642Y-64752829D01*
X111157251Y-64832272D01*
X111159369Y-64925374D01*
X111161126Y-65033965D01*
X111162651Y-65159880D01*
X111164074Y-65304950D01*
X111165327Y-65447716D01*
X111166653Y-65603906D01*
X111167858Y-65739177D01*
X111169068Y-65855184D01*
X111170408Y-65953583D01*
X111172002Y-66036031D01*
X111173977Y-66104184D01*
X111176458Y-66159698D01*
X111179571Y-66204230D01*
X111183440Y-66239436D01*
X111188191Y-66266972D01*
X111193950Y-66288494D01*
X111200841Y-66305660D01*
X111208991Y-66320124D01*
X111218525Y-66333544D01*
X111229568Y-66347576D01*
X111233868Y-66353009D01*
X111249688Y-66375848D01*
X111256724Y-66391401D01*
X111256746Y-66391860D01*
X111245869Y-66394059D01*
X111214884Y-66396085D01*
X111166259Y-66397880D01*
X111102465Y-66399389D01*
X111025971Y-66400554D01*
X110939246Y-66401318D01*
X110844759Y-66401624D01*
X110833852Y-66401627D01*
X110410959Y-66401627D01*
X110407697Y-66305560D01*
X110404435Y-66209494D01*
X110342346Y-66260481D01*
X110245016Y-66327995D01*
X110135115Y-66382687D01*
X110048651Y-66412916D01*
X109979580Y-66427604D01*
X109896227Y-66437597D01*
X109806461Y-66442584D01*
X109718147Y-66442251D01*
X109639153Y-66436289D01*
X109602924Y-66430576D01*
X109462905Y-66392714D01*
X109336480Y-66337870D01*
X109224562Y-66266862D01*
X109128064Y-66180506D01*
X109047902Y-66079617D01*
X108984989Y-65965014D01*
X108940614Y-65838922D01*
X108928280Y-65782339D01*
X108920670Y-65720140D01*
X108917041Y-65645301D01*
X108916547Y-65611405D01*
X108916612Y-65608220D01*
X109676550Y-65608220D01*
X109685843Y-65683271D01*
X109714030Y-65747098D01*
X109762499Y-65802736D01*
X109767556Y-65807149D01*
X109815850Y-65841975D01*
X109867559Y-65864558D01*
X109928291Y-65876478D01*
X110003654Y-65879321D01*
X110021761Y-65878916D01*
X110075580Y-65876263D01*
X110115610Y-65870847D01*
X110150626Y-65860683D01*
X110189405Y-65843788D01*
X110200047Y-65838610D01*
X110260698Y-65802782D01*
X110307517Y-65760150D01*
X110320254Y-65744911D01*
X110364924Y-65688400D01*
X110364924Y-65492524D01*
X110364388Y-65413877D01*
X110362698Y-65355926D01*
X110359730Y-65316813D01*
X110355359Y-65294679D01*
X110351274Y-65288212D01*
X110335349Y-65285049D01*
X110301566Y-65282426D01*
X110254642Y-65280593D01*
X110199295Y-65279795D01*
X110190408Y-65279780D01*
X110069632Y-65285034D01*
X109966962Y-65301201D01*
X109880408Y-65328899D01*
X109807983Y-65368746D01*
X109753053Y-65415696D01*
X109708506Y-65473583D01*
X109683782Y-65536631D01*
X109676550Y-65608220D01*
X108916612Y-65608220D01*
X108918480Y-65517650D01*
X108926824Y-65438750D01*
X108943070Y-65367528D01*
X108968707Y-65296802D01*
X108992703Y-65244431D01*
X109051322Y-65149134D01*
X109129419Y-65061108D01*
X109224617Y-64981955D01*
X109334540Y-64913278D01*
X109456812Y-64856679D01*
X109589057Y-64813759D01*
X109653724Y-64798820D01*
X109789906Y-64776715D01*
X109938351Y-64762132D01*
X110089807Y-64755751D01*
X110216366Y-64757383D01*
X110378252Y-64764162D01*
X110370832Y-64705183D01*
X110351540Y-64606030D01*
X110320406Y-64525310D01*
X110276571Y-64462404D01*
X110219173Y-64416694D01*
X110147350Y-64387560D01*
X110060243Y-64374385D01*
X109956988Y-64376549D01*
X109919013Y-64380550D01*
X109777822Y-64405718D01*
X109641009Y-64446752D01*
X109546480Y-64484753D01*
X109501320Y-64504128D01*
X109462887Y-64519698D01*
X109436536Y-64529343D01*
X109428848Y-64531390D01*
X109419104Y-64522312D01*
X109402385Y-64493343D01*
X109378534Y-64444155D01*
X109347395Y-64374422D01*
X109308809Y-64283817D01*
X109302212Y-64268027D01*
X109272155Y-64195710D01*
X109245176Y-64130363D01*
X109222438Y-64074844D01*
X109205108Y-64032010D01*
X109194350Y-64004719D01*
X109191243Y-63995880D01*
X109201242Y-63991125D01*
X109227519Y-63985848D01*
X109255791Y-63982169D01*
X109285948Y-63977412D01*
X109333735Y-63967966D01*
X109394914Y-63954758D01*
X109465248Y-63938714D01*
X109540496Y-63920758D01*
X109569057Y-63913735D01*
X109674118Y-63888147D01*
X109761782Y-63868085D01*
X109836370Y-63852907D01*
X109902205Y-63841973D01*
X109963609Y-63834642D01*
X110024904Y-63830273D01*
X110090412Y-63828225D01*
X110148430Y-63827827D01*
X110317876Y-63834490D01*
G37*
X104697902Y-62456992D02*
X104708767Y-62570931D01*
X104740384Y-62678554D01*
X104791287Y-62777553D01*
X104860009Y-62865622D01*
X104945083Y-62940454D01*
X105042070Y-62998322D01*
X105148338Y-63037943D01*
X105255352Y-63056511D01*
X105361002Y-63055372D01*
X105463177Y-63035868D01*
X105559768Y-62999344D01*
X105648664Y-62947143D01*
X105727756Y-62880611D01*
X105794933Y-62801090D01*
X105848085Y-62709925D01*
X105885103Y-62608461D01*
X105903875Y-62498040D01*
X105905813Y-62448144D01*
X105905813Y-62360205D01*
X105957742Y-62360205D01*
X105994049Y-62363049D01*
X106020947Y-62374849D01*
X106048053Y-62398587D01*
X106086435Y-62436969D01*
X106086435Y-64628540D01*
X106086426Y-64890677D01*
X106086394Y-65131179D01*
X106086330Y-65350986D01*
X106086226Y-65551039D01*
X106086075Y-65732282D01*
X106085868Y-65895654D01*
X106085596Y-66042098D01*
X106085252Y-66172555D01*
X106084828Y-66287967D01*
X106084315Y-66389276D01*
X106083705Y-66477422D01*
X106082990Y-66553348D01*
X106082162Y-66617995D01*
X106081213Y-66672305D01*
X106080135Y-66717218D01*
X106078919Y-66753678D01*
X106077557Y-66782625D01*
X106076041Y-66805001D01*
X106074364Y-66821747D01*
X106072516Y-66833806D01*
X106070489Y-66842118D01*
X106068277Y-66847625D01*
X106067194Y-66849475D01*
X106063031Y-66856487D01*
X106059497Y-66862934D01*
X106055667Y-66868838D01*
X106050620Y-66874224D01*
X106043431Y-66879116D01*
X106033179Y-66883536D01*
X106018938Y-66887510D01*
X105999788Y-66891059D01*
X105974803Y-66894208D01*
X105943062Y-66896980D01*
X105903640Y-66899399D01*
X105855616Y-66901489D01*
X105798065Y-66903273D01*
X105730065Y-66904775D01*
X105650692Y-66906018D01*
X105559023Y-66907027D01*
X105454136Y-66907823D01*
X105335106Y-66908432D01*
X105201012Y-66908877D01*
X105050929Y-66909181D01*
X104883935Y-66909368D01*
X104699106Y-66909462D01*
X104495519Y-66909486D01*
X104272252Y-66909463D01*
X104028380Y-66909418D01*
X103762981Y-66909375D01*
X103724598Y-66909370D01*
X103457620Y-66909327D01*
X103212300Y-66909256D01*
X102987719Y-66909151D01*
X102782957Y-66909004D01*
X102597096Y-66908807D01*
X102429214Y-66908554D01*
X102278394Y-66908238D01*
X102143715Y-66907851D01*
X102024258Y-66907385D01*
X101919103Y-66906835D01*
X101827331Y-66906191D01*
X101748023Y-66905449D01*
X101680259Y-66904599D01*
X101623120Y-66903635D01*
X101575685Y-66902549D01*
X101537036Y-66901335D01*
X101506253Y-66899985D01*
X101482417Y-66898493D01*
X101464608Y-66896849D01*
X101451907Y-66895049D01*
X101443394Y-66893083D01*
X101439036Y-66891415D01*
X101430574Y-66887844D01*
X101422805Y-66885208D01*
X101415700Y-66882572D01*
X101409229Y-66879000D01*
X101403363Y-66873559D01*
X101398073Y-66865313D01*
X101393328Y-66853328D01*
X101389100Y-66836669D01*
X101385359Y-66814401D01*
X101382075Y-66785590D01*
X101379219Y-66749301D01*
X101376762Y-66704599D01*
X101374673Y-66650549D01*
X101372924Y-66586217D01*
X101371485Y-66510668D01*
X101370326Y-66422968D01*
X101369419Y-66322181D01*
X101368733Y-66207372D01*
X101368239Y-66077608D01*
X101367907Y-65931953D01*
X101367709Y-65769473D01*
X101367615Y-65589233D01*
X101367594Y-65390298D01*
X101367617Y-65171734D01*
X101367656Y-64932606D01*
X101367680Y-64671978D01*
X101367680Y-64629827D01*
X101367666Y-64366930D01*
X101367641Y-64125670D01*
X101367631Y-63905103D01*
X101367660Y-63704290D01*
X101367754Y-63522287D01*
X101367940Y-63358154D01*
X101368243Y-63210949D01*
X101368688Y-63079730D01*
X101369268Y-62969805D01*
X101672105Y-62969805D01*
X101711895Y-63027649D01*
X101723066Y-63043417D01*
X101733136Y-63057379D01*
X101742164Y-63070722D01*
X101750205Y-63084631D01*
X101757316Y-63100294D01*
X101763555Y-63118896D01*
X101768977Y-63141624D01*
X101773640Y-63169665D01*
X101777601Y-63204205D01*
X101780917Y-63246430D01*
X101783643Y-63297527D01*
X101785838Y-63358682D01*
X101787557Y-63431082D01*
X101788858Y-63515913D01*
X101789797Y-63614360D01*
X101790432Y-63727612D01*
X101790818Y-63856854D01*
X101791014Y-64003272D01*
X101791075Y-64168054D01*
X101791059Y-64352385D01*
X101791022Y-64557451D01*
X101791013Y-64680071D01*
X101791037Y-64897020D01*
X101791071Y-65092580D01*
X101791059Y-65267937D01*
X101790944Y-65424279D01*
X101790672Y-65562795D01*
X101790184Y-65684672D01*
X101789426Y-65791098D01*
X101788340Y-65883260D01*
X101786871Y-65962347D01*
X101784962Y-66029546D01*
X101782558Y-66086045D01*
X101779601Y-66133031D01*
X101776036Y-66171693D01*
X101771807Y-66203218D01*
X101766856Y-66228793D01*
X101761129Y-66249608D01*
X101754569Y-66266849D01*
X101747119Y-66281703D01*
X101738723Y-66295360D01*
X101729326Y-66309007D01*
X101718870Y-66323831D01*
X101712779Y-66332721D01*
X101674006Y-66390338D01*
X102205570Y-66390338D01*
X102328819Y-66390303D01*
X102431315Y-66390153D01*
X102514882Y-66389816D01*
X102581346Y-66389224D01*
X102632531Y-66388305D01*
X102670261Y-66386989D01*
X102696362Y-66385207D01*
X102712658Y-66382889D01*
X102720974Y-66379964D01*
X102723134Y-66376362D01*
X102720963Y-66372013D01*
X102719767Y-66370583D01*
X102694617Y-66333511D01*
X102668719Y-66280710D01*
X102645110Y-66218708D01*
X102636841Y-66192295D01*
X102632224Y-66174354D01*
X102628323Y-66153293D01*
X102625054Y-66127027D01*
X102622336Y-66093470D01*
X102620087Y-66050537D01*
X102618225Y-65996142D01*
X102616666Y-65928200D01*
X102615330Y-65844626D01*
X102614133Y-65743333D01*
X102612994Y-65622238D01*
X102612617Y-65577538D01*
X102611600Y-65452387D01*
X102610842Y-65348020D01*
X102610399Y-65262645D01*
X102610332Y-65194471D01*
X102610697Y-65141703D01*
X102611554Y-65102552D01*
X102612961Y-65075223D01*
X102614977Y-65057924D01*
X102617659Y-65048864D01*
X102621066Y-65046250D01*
X102625258Y-65048289D01*
X102629731Y-65052605D01*
X102640086Y-65065540D01*
X102662144Y-65094614D01*
X102694345Y-65137697D01*
X102735128Y-65192656D01*
X102782932Y-65257361D01*
X102836197Y-65329680D01*
X102893362Y-65407482D01*
X102952865Y-65488636D01*
X103013147Y-65571010D01*
X103072647Y-65652474D01*
X103129804Y-65730895D01*
X103183057Y-65804142D01*
X103230845Y-65870085D01*
X103271609Y-65926592D01*
X103303786Y-65971531D01*
X103325817Y-66002772D01*
X103330385Y-66009404D01*
X103353306Y-66046307D01*
X103380114Y-66094297D01*
X103405513Y-66143835D01*
X103408734Y-66150515D01*
X103430412Y-66198710D01*
X103442998Y-66236272D01*
X103448728Y-66272098D01*
X103449846Y-66314138D01*
X103449212Y-66390338D01*
X104603651Y-66390338D01*
X104598649Y-66385195D01*
X104810791Y-66385195D01*
X104821698Y-66386272D01*
X104852891Y-66387273D01*
X104902079Y-66388173D01*
X104966969Y-66388948D01*
X105045272Y-66389575D01*
X105134695Y-66390029D01*
X105232946Y-66390287D01*
X105301857Y-66390338D01*
X105406850Y-66390118D01*
X105503692Y-66389486D01*
X105590195Y-66388487D01*
X105664170Y-66387165D01*
X105723428Y-66385564D01*
X105765782Y-66383729D01*
X105789042Y-66381703D01*
X105792924Y-66380431D01*
X105785226Y-66365529D01*
X105777228Y-66357498D01*
X105764056Y-66340372D01*
X105746817Y-66310121D01*
X105734895Y-66285560D01*
X105708257Y-66226649D01*
X105705182Y-65049783D01*
X105702107Y-63872916D01*
X105256449Y-63872916D01*
X105158632Y-63873080D01*
X105068238Y-63873549D01*
X104987672Y-63874285D01*
X104919340Y-63875254D01*
X104865646Y-63876418D01*
X104828997Y-63877741D01*
X104811798Y-63879187D01*
X104810791Y-63879640D01*
X104816700Y-63892597D01*
X104831030Y-63914846D01*
X104832077Y-63916329D01*
X104850864Y-63946482D01*
X104870511Y-63983313D01*
X104874410Y-63991449D01*
X104877946Y-63999878D01*
X104881072Y-64009997D01*
X104883816Y-64023198D01*
X104886210Y-64040876D01*
X104888283Y-64064422D01*
X104890067Y-64095231D01*
X104891590Y-64134695D01*
X104892883Y-64184207D01*
X104893976Y-64245161D01*
X104894899Y-64318949D01*
X104895683Y-64406966D01*
X104896357Y-64510603D01*
X104896952Y-64631254D01*
X104897497Y-64770312D01*
X104898023Y-64929170D01*
X104898557Y-65108027D01*
X104899096Y-65293145D01*
X104899530Y-65457083D01*
X104899793Y-65601241D01*
X104899818Y-65727017D01*
X104899537Y-65835809D01*
X104898883Y-65929015D01*
X104897788Y-66008035D01*
X104896184Y-66074266D01*
X104894005Y-66129108D01*
X104891183Y-66173959D01*
X104887651Y-66210216D01*
X104883341Y-66239279D01*
X104878185Y-66262547D01*
X104872117Y-66281417D01*
X104865069Y-66297289D01*
X104856973Y-66311560D01*
X104847762Y-66325629D01*
X104839262Y-66338096D01*
X104822126Y-66364390D01*
X104811980Y-66381975D01*
X104810791Y-66385195D01*
X104598649Y-66385195D01*
X104512487Y-66296607D01*
X104465690Y-66246713D01*
X104415403Y-66190233D01*
X104369358Y-66135964D01*
X104348933Y-66110611D01*
X104318495Y-66071066D01*
X104278440Y-66017854D01*
X104229941Y-65952605D01*
X104174167Y-65876949D01*
X104112291Y-65792515D01*
X104045483Y-65700932D01*
X103974915Y-65603830D01*
X103901757Y-65502839D01*
X103827181Y-65399588D01*
X103752358Y-65295706D01*
X103678459Y-65192823D01*
X103606656Y-65092569D01*
X103538118Y-64996574D01*
X103474018Y-64906465D01*
X103415527Y-64823874D01*
X103363816Y-64750430D01*
X103320055Y-64687762D01*
X103285417Y-64637499D01*
X103261072Y-64601272D01*
X103248191Y-64580709D01*
X103246433Y-64576606D01*
X103254392Y-64565280D01*
X103275187Y-64538100D01*
X103307455Y-64496767D01*
X103349832Y-64442982D01*
X103400955Y-64378444D01*
X103459461Y-64304856D01*
X103523988Y-64223916D01*
X103593171Y-64137326D01*
X103665649Y-64046786D01*
X103740056Y-63953998D01*
X103799785Y-63879640D01*
X103815032Y-63860660D01*
X103889212Y-63768475D01*
X103961233Y-63679142D01*
X104029733Y-63594362D01*
X104093347Y-63515836D01*
X104150714Y-63445264D01*
X104200469Y-63384347D01*
X104241250Y-63334785D01*
X104258414Y-63314116D01*
X104344706Y-63213454D01*
X104421305Y-63130197D01*
X104490119Y-63062376D01*
X104553054Y-63008027D01*
X104562435Y-63000660D01*
X104601946Y-62970055D01*
X103470186Y-62969805D01*
X103475475Y-63017782D01*
X103472172Y-63075126D01*
X103450641Y-63143401D01*
X103410667Y-63223150D01*
X103365359Y-63295433D01*
X103349141Y-63318078D01*
X103321088Y-63355634D01*
X103282872Y-63405959D01*
X103236165Y-63466911D01*
X103182641Y-63536349D01*
X103123971Y-63612132D01*
X103061827Y-63692118D01*
X102997881Y-63774166D01*
X102933807Y-63856134D01*
X102871275Y-63935881D01*
X102811959Y-64011265D01*
X102757531Y-64080145D01*
X102709663Y-64140380D01*
X102670027Y-64189827D01*
X102640296Y-64226346D01*
X102622141Y-64247796D01*
X102619082Y-64251094D01*
X102616223Y-64243087D01*
X102614009Y-64212793D01*
X102612445Y-64160494D01*
X102611535Y-64086469D01*
X102611282Y-63991001D01*
X102611689Y-63874372D01*
X102612598Y-63754383D01*
X102613920Y-63622271D01*
X102615445Y-63510532D01*
X102617421Y-63416963D01*
X102620096Y-63339357D01*
X102623720Y-63275512D01*
X102628541Y-63223221D01*
X102634808Y-63180282D01*
X102642770Y-63144489D01*
X102652675Y-63113638D01*
X102664771Y-63085524D01*
X102679309Y-63057943D01*
X102693991Y-63032904D01*
X102731988Y-62969805D01*
X101672105Y-62969805D01*
X101369268Y-62969805D01*
X101369301Y-62963555D01*
X101370107Y-62861482D01*
X101371132Y-62772571D01*
X101372402Y-62695879D01*
X101373942Y-62630465D01*
X101375778Y-62575387D01*
X101377935Y-62529703D01*
X101380439Y-62492472D01*
X101383315Y-62462751D01*
X101386589Y-62439600D01*
X101390287Y-62422077D01*
X101394433Y-62409239D01*
X101399055Y-62400146D01*
X101404176Y-62393856D01*
X101409824Y-62389426D01*
X101416023Y-62385916D01*
X101422798Y-62382383D01*
X101428794Y-62378814D01*
X101434027Y-62376238D01*
X101442203Y-62373910D01*
X101454416Y-62371816D01*
X101471761Y-62369945D01*
X101495333Y-62368285D01*
X101526225Y-62366822D01*
X101565534Y-62365546D01*
X101614352Y-62364442D01*
X101673775Y-62363499D01*
X101744898Y-62362705D01*
X101828814Y-62362047D01*
X101926619Y-62361513D01*
X102039408Y-62361091D01*
X102168273Y-62360767D01*
X102314311Y-62360530D01*
X102478616Y-62360368D01*
X102662282Y-62360268D01*
X102866405Y-62360218D01*
X103077549Y-62360205D01*
X104697902Y-62360205D01*
X104697902Y-62456992D01*
G36*
X104697902Y-62456992D02*
G01*
X104708767Y-62570931D01*
X104740384Y-62678554D01*
X104791287Y-62777553D01*
X104860009Y-62865622D01*
X104945083Y-62940454D01*
X105042070Y-62998322D01*
X105148338Y-63037943D01*
X105255352Y-63056511D01*
X105361002Y-63055372D01*
X105463177Y-63035868D01*
X105559768Y-62999344D01*
X105648664Y-62947143D01*
X105727756Y-62880611D01*
X105794933Y-62801090D01*
X105848085Y-62709925D01*
X105885103Y-62608461D01*
X105903875Y-62498040D01*
X105905813Y-62448144D01*
X105905813Y-62360205D01*
X105957742Y-62360205D01*
X105994049Y-62363049D01*
X106020947Y-62374849D01*
X106048053Y-62398587D01*
X106086435Y-62436969D01*
X106086435Y-64628540D01*
X106086426Y-64890677D01*
X106086394Y-65131179D01*
X106086330Y-65350986D01*
X106086226Y-65551039D01*
X106086075Y-65732282D01*
X106085868Y-65895654D01*
X106085596Y-66042098D01*
X106085252Y-66172555D01*
X106084828Y-66287967D01*
X106084315Y-66389276D01*
X106083705Y-66477422D01*
X106082990Y-66553348D01*
X106082162Y-66617995D01*
X106081213Y-66672305D01*
X106080135Y-66717218D01*
X106078919Y-66753678D01*
X106077557Y-66782625D01*
X106076041Y-66805001D01*
X106074364Y-66821747D01*
X106072516Y-66833806D01*
X106070489Y-66842118D01*
X106068277Y-66847625D01*
X106067194Y-66849475D01*
X106063031Y-66856487D01*
X106059497Y-66862934D01*
X106055667Y-66868838D01*
X106050620Y-66874224D01*
X106043431Y-66879116D01*
X106033179Y-66883536D01*
X106018938Y-66887510D01*
X105999788Y-66891059D01*
X105974803Y-66894208D01*
X105943062Y-66896980D01*
X105903640Y-66899399D01*
X105855616Y-66901489D01*
X105798065Y-66903273D01*
X105730065Y-66904775D01*
X105650692Y-66906018D01*
X105559023Y-66907027D01*
X105454136Y-66907823D01*
X105335106Y-66908432D01*
X105201012Y-66908877D01*
X105050929Y-66909181D01*
X104883935Y-66909368D01*
X104699106Y-66909462D01*
X104495519Y-66909486D01*
X104272252Y-66909463D01*
X104028380Y-66909418D01*
X103762981Y-66909375D01*
X103724598Y-66909370D01*
X103457620Y-66909327D01*
X103212300Y-66909256D01*
X102987719Y-66909151D01*
X102782957Y-66909004D01*
X102597096Y-66908807D01*
X102429214Y-66908554D01*
X102278394Y-66908238D01*
X102143715Y-66907851D01*
X102024258Y-66907385D01*
X101919103Y-66906835D01*
X101827331Y-66906191D01*
X101748023Y-66905449D01*
X101680259Y-66904599D01*
X101623120Y-66903635D01*
X101575685Y-66902549D01*
X101537036Y-66901335D01*
X101506253Y-66899985D01*
X101482417Y-66898493D01*
X101464608Y-66896849D01*
X101451907Y-66895049D01*
X101443394Y-66893083D01*
X101439036Y-66891415D01*
X101430574Y-66887844D01*
X101422805Y-66885208D01*
X101415700Y-66882572D01*
X101409229Y-66879000D01*
X101403363Y-66873559D01*
X101398073Y-66865313D01*
X101393328Y-66853328D01*
X101389100Y-66836669D01*
X101385359Y-66814401D01*
X101382075Y-66785590D01*
X101379219Y-66749301D01*
X101376762Y-66704599D01*
X101374673Y-66650549D01*
X101372924Y-66586217D01*
X101371485Y-66510668D01*
X101370326Y-66422968D01*
X101369419Y-66322181D01*
X101368733Y-66207372D01*
X101368239Y-66077608D01*
X101367907Y-65931953D01*
X101367709Y-65769473D01*
X101367615Y-65589233D01*
X101367594Y-65390298D01*
X101367617Y-65171734D01*
X101367656Y-64932606D01*
X101367680Y-64671978D01*
X101367680Y-64629827D01*
X101367666Y-64366930D01*
X101367641Y-64125670D01*
X101367631Y-63905103D01*
X101367660Y-63704290D01*
X101367754Y-63522287D01*
X101367940Y-63358154D01*
X101368243Y-63210949D01*
X101368688Y-63079730D01*
X101369268Y-62969805D01*
X101672105Y-62969805D01*
X101711895Y-63027649D01*
X101723066Y-63043417D01*
X101733136Y-63057379D01*
X101742164Y-63070722D01*
X101750205Y-63084631D01*
X101757316Y-63100294D01*
X101763555Y-63118896D01*
X101768977Y-63141624D01*
X101773640Y-63169665D01*
X101777601Y-63204205D01*
X101780917Y-63246430D01*
X101783643Y-63297527D01*
X101785838Y-63358682D01*
X101787557Y-63431082D01*
X101788858Y-63515913D01*
X101789797Y-63614360D01*
X101790432Y-63727612D01*
X101790818Y-63856854D01*
X101791014Y-64003272D01*
X101791075Y-64168054D01*
X101791059Y-64352385D01*
X101791022Y-64557451D01*
X101791013Y-64680071D01*
X101791037Y-64897020D01*
X101791071Y-65092580D01*
X101791059Y-65267937D01*
X101790944Y-65424279D01*
X101790672Y-65562795D01*
X101790184Y-65684672D01*
X101789426Y-65791098D01*
X101788340Y-65883260D01*
X101786871Y-65962347D01*
X101784962Y-66029546D01*
X101782558Y-66086045D01*
X101779601Y-66133031D01*
X101776036Y-66171693D01*
X101771807Y-66203218D01*
X101766856Y-66228793D01*
X101761129Y-66249608D01*
X101754569Y-66266849D01*
X101747119Y-66281703D01*
X101738723Y-66295360D01*
X101729326Y-66309007D01*
X101718870Y-66323831D01*
X101712779Y-66332721D01*
X101674006Y-66390338D01*
X102205570Y-66390338D01*
X102328819Y-66390303D01*
X102431315Y-66390153D01*
X102514882Y-66389816D01*
X102581346Y-66389224D01*
X102632531Y-66388305D01*
X102670261Y-66386989D01*
X102696362Y-66385207D01*
X102712658Y-66382889D01*
X102720974Y-66379964D01*
X102723134Y-66376362D01*
X102720963Y-66372013D01*
X102719767Y-66370583D01*
X102694617Y-66333511D01*
X102668719Y-66280710D01*
X102645110Y-66218708D01*
X102636841Y-66192295D01*
X102632224Y-66174354D01*
X102628323Y-66153293D01*
X102625054Y-66127027D01*
X102622336Y-66093470D01*
X102620087Y-66050537D01*
X102618225Y-65996142D01*
X102616666Y-65928200D01*
X102615330Y-65844626D01*
X102614133Y-65743333D01*
X102612994Y-65622238D01*
X102612617Y-65577538D01*
X102611600Y-65452387D01*
X102610842Y-65348020D01*
X102610399Y-65262645D01*
X102610332Y-65194471D01*
X102610697Y-65141703D01*
X102611554Y-65102552D01*
X102612961Y-65075223D01*
X102614977Y-65057924D01*
X102617659Y-65048864D01*
X102621066Y-65046250D01*
X102625258Y-65048289D01*
X102629731Y-65052605D01*
X102640086Y-65065540D01*
X102662144Y-65094614D01*
X102694345Y-65137697D01*
X102735128Y-65192656D01*
X102782932Y-65257361D01*
X102836197Y-65329680D01*
X102893362Y-65407482D01*
X102952865Y-65488636D01*
X103013147Y-65571010D01*
X103072647Y-65652474D01*
X103129804Y-65730895D01*
X103183057Y-65804142D01*
X103230845Y-65870085D01*
X103271609Y-65926592D01*
X103303786Y-65971531D01*
X103325817Y-66002772D01*
X103330385Y-66009404D01*
X103353306Y-66046307D01*
X103380114Y-66094297D01*
X103405513Y-66143835D01*
X103408734Y-66150515D01*
X103430412Y-66198710D01*
X103442998Y-66236272D01*
X103448728Y-66272098D01*
X103449846Y-66314138D01*
X103449212Y-66390338D01*
X104603651Y-66390338D01*
X104598649Y-66385195D01*
X104810791Y-66385195D01*
X104821698Y-66386272D01*
X104852891Y-66387273D01*
X104902079Y-66388173D01*
X104966969Y-66388948D01*
X105045272Y-66389575D01*
X105134695Y-66390029D01*
X105232946Y-66390287D01*
X105301857Y-66390338D01*
X105406850Y-66390118D01*
X105503692Y-66389486D01*
X105590195Y-66388487D01*
X105664170Y-66387165D01*
X105723428Y-66385564D01*
X105765782Y-66383729D01*
X105789042Y-66381703D01*
X105792924Y-66380431D01*
X105785226Y-66365529D01*
X105777228Y-66357498D01*
X105764056Y-66340372D01*
X105746817Y-66310121D01*
X105734895Y-66285560D01*
X105708257Y-66226649D01*
X105705182Y-65049783D01*
X105702107Y-63872916D01*
X105256449Y-63872916D01*
X105158632Y-63873080D01*
X105068238Y-63873549D01*
X104987672Y-63874285D01*
X104919340Y-63875254D01*
X104865646Y-63876418D01*
X104828997Y-63877741D01*
X104811798Y-63879187D01*
X104810791Y-63879640D01*
X104816700Y-63892597D01*
X104831030Y-63914846D01*
X104832077Y-63916329D01*
X104850864Y-63946482D01*
X104870511Y-63983313D01*
X104874410Y-63991449D01*
X104877946Y-63999878D01*
X104881072Y-64009997D01*
X104883816Y-64023198D01*
X104886210Y-64040876D01*
X104888283Y-64064422D01*
X104890067Y-64095231D01*
X104891590Y-64134695D01*
X104892883Y-64184207D01*
X104893976Y-64245161D01*
X104894899Y-64318949D01*
X104895683Y-64406966D01*
X104896357Y-64510603D01*
X104896952Y-64631254D01*
X104897497Y-64770312D01*
X104898023Y-64929170D01*
X104898557Y-65108027D01*
X104899096Y-65293145D01*
X104899530Y-65457083D01*
X104899793Y-65601241D01*
X104899818Y-65727017D01*
X104899537Y-65835809D01*
X104898883Y-65929015D01*
X104897788Y-66008035D01*
X104896184Y-66074266D01*
X104894005Y-66129108D01*
X104891183Y-66173959D01*
X104887651Y-66210216D01*
X104883341Y-66239279D01*
X104878185Y-66262547D01*
X104872117Y-66281417D01*
X104865069Y-66297289D01*
X104856973Y-66311560D01*
X104847762Y-66325629D01*
X104839262Y-66338096D01*
X104822126Y-66364390D01*
X104811980Y-66381975D01*
X104810791Y-66385195D01*
X104598649Y-66385195D01*
X104512487Y-66296607D01*
X104465690Y-66246713D01*
X104415403Y-66190233D01*
X104369358Y-66135964D01*
X104348933Y-66110611D01*
X104318495Y-66071066D01*
X104278440Y-66017854D01*
X104229941Y-65952605D01*
X104174167Y-65876949D01*
X104112291Y-65792515D01*
X104045483Y-65700932D01*
X103974915Y-65603830D01*
X103901757Y-65502839D01*
X103827181Y-65399588D01*
X103752358Y-65295706D01*
X103678459Y-65192823D01*
X103606656Y-65092569D01*
X103538118Y-64996574D01*
X103474018Y-64906465D01*
X103415527Y-64823874D01*
X103363816Y-64750430D01*
X103320055Y-64687762D01*
X103285417Y-64637499D01*
X103261072Y-64601272D01*
X103248191Y-64580709D01*
X103246433Y-64576606D01*
X103254392Y-64565280D01*
X103275187Y-64538100D01*
X103307455Y-64496767D01*
X103349832Y-64442982D01*
X103400955Y-64378444D01*
X103459461Y-64304856D01*
X103523988Y-64223916D01*
X103593171Y-64137326D01*
X103665649Y-64046786D01*
X103740056Y-63953998D01*
X103799785Y-63879640D01*
X103815032Y-63860660D01*
X103889212Y-63768475D01*
X103961233Y-63679142D01*
X104029733Y-63594362D01*
X104093347Y-63515836D01*
X104150714Y-63445264D01*
X104200469Y-63384347D01*
X104241250Y-63334785D01*
X104258414Y-63314116D01*
X104344706Y-63213454D01*
X104421305Y-63130197D01*
X104490119Y-63062376D01*
X104553054Y-63008027D01*
X104562435Y-63000660D01*
X104601946Y-62970055D01*
X103470186Y-62969805D01*
X103475475Y-63017782D01*
X103472172Y-63075126D01*
X103450641Y-63143401D01*
X103410667Y-63223150D01*
X103365359Y-63295433D01*
X103349141Y-63318078D01*
X103321088Y-63355634D01*
X103282872Y-63405959D01*
X103236165Y-63466911D01*
X103182641Y-63536349D01*
X103123971Y-63612132D01*
X103061827Y-63692118D01*
X102997881Y-63774166D01*
X102933807Y-63856134D01*
X102871275Y-63935881D01*
X102811959Y-64011265D01*
X102757531Y-64080145D01*
X102709663Y-64140380D01*
X102670027Y-64189827D01*
X102640296Y-64226346D01*
X102622141Y-64247796D01*
X102619082Y-64251094D01*
X102616223Y-64243087D01*
X102614009Y-64212793D01*
X102612445Y-64160494D01*
X102611535Y-64086469D01*
X102611282Y-63991001D01*
X102611689Y-63874372D01*
X102612598Y-63754383D01*
X102613920Y-63622271D01*
X102615445Y-63510532D01*
X102617421Y-63416963D01*
X102620096Y-63339357D01*
X102623720Y-63275512D01*
X102628541Y-63223221D01*
X102634808Y-63180282D01*
X102642770Y-63144489D01*
X102652675Y-63113638D01*
X102664771Y-63085524D01*
X102679309Y-63057943D01*
X102693991Y-63032904D01*
X102731988Y-62969805D01*
X101672105Y-62969805D01*
X101369268Y-62969805D01*
X101369301Y-62963555D01*
X101370107Y-62861482D01*
X101371132Y-62772571D01*
X101372402Y-62695879D01*
X101373942Y-62630465D01*
X101375778Y-62575387D01*
X101377935Y-62529703D01*
X101380439Y-62492472D01*
X101383315Y-62462751D01*
X101386589Y-62439600D01*
X101390287Y-62422077D01*
X101394433Y-62409239D01*
X101399055Y-62400146D01*
X101404176Y-62393856D01*
X101409824Y-62389426D01*
X101416023Y-62385916D01*
X101422798Y-62382383D01*
X101428794Y-62378814D01*
X101434027Y-62376238D01*
X101442203Y-62373910D01*
X101454416Y-62371816D01*
X101471761Y-62369945D01*
X101495333Y-62368285D01*
X101526225Y-62366822D01*
X101565534Y-62365546D01*
X101614352Y-62364442D01*
X101673775Y-62363499D01*
X101744898Y-62362705D01*
X101828814Y-62362047D01*
X101926619Y-62361513D01*
X102039408Y-62361091D01*
X102168273Y-62360767D01*
X102314311Y-62360530D01*
X102478616Y-62360368D01*
X102662282Y-62360268D01*
X102866405Y-62360218D01*
X103077549Y-62360205D01*
X104697902Y-62360205D01*
X104697902Y-62456992D01*
G37*
%TO.C,D1*%
D13*
X96350000Y-36460000D02*
X96350000Y-39320000D01*
X96350000Y-39320000D02*
X98270000Y-39320000D01*
X98270000Y-39320000D02*
X98270000Y-36460000D01*
%TO.C,BZ1*%
X92529216Y-78899999D02*
G75*
G02*
X92529216Y-75900000I6400000J1499999D01*
G01*
X105159216Y-77400000D02*
G75*
G02*
X92699216Y-77400000I-6230000J0D01*
G01*
X92699216Y-77400000D02*
G75*
G02*
X105159216Y-77400000I6230000J0D01*
G01*
%TO.C,C1*%
X99765000Y-37088748D02*
X99765000Y-37611252D01*
X101235000Y-37088748D02*
X101235000Y-37611252D01*
%TO.C,esp32_1*%
X85000000Y-36270000D02*
X85000000Y-82050000D01*
X85000000Y-36270000D02*
X87660000Y-36270000D01*
X85000000Y-82050000D02*
X87660000Y-82050000D01*
X86330000Y-33670000D02*
X87660000Y-33670000D01*
X87660000Y-33670000D02*
X87660000Y-35000000D01*
X87660000Y-36270000D02*
X87660000Y-82050000D01*
%TO.C,C2*%
X103240000Y-36929437D02*
X103240000Y-41385000D01*
X103240000Y-41385000D02*
X104940000Y-41385000D01*
X104304437Y-35865000D02*
X103240000Y-36929437D01*
X104304437Y-35865000D02*
X104940000Y-35865000D01*
X107685000Y-35000000D02*
X107685000Y-35625000D01*
X107695563Y-35865000D02*
X107060000Y-35865000D01*
X107695563Y-35865000D02*
X108760000Y-36929437D01*
X107997500Y-35312500D02*
X107372500Y-35312500D01*
X108760000Y-36929437D02*
X108760000Y-41385000D01*
X108760000Y-41385000D02*
X107060000Y-41385000D01*
%TO.C,R2*%
X102027064Y-69165000D02*
X101572936Y-69165000D01*
X102027064Y-70635000D02*
X101572936Y-70635000D01*
%TO.C,J21*%
X50060000Y-64760000D02*
X50060000Y-62160000D01*
X50060000Y-67360000D02*
X50060000Y-66030000D01*
X51390000Y-67360000D02*
X50060000Y-67360000D01*
X52720000Y-62160000D02*
X50060000Y-62160000D01*
X52720000Y-64760000D02*
X50060000Y-64760000D01*
X52720000Y-64760000D02*
X52720000Y-62160000D01*
%TO.C,J15*%
X52190000Y-38710000D02*
X52190000Y-48870000D01*
X52190000Y-48870000D02*
X59810000Y-48870000D01*
X58540000Y-38710000D02*
X58540000Y-48870000D01*
X59810000Y-38710000D02*
X52190000Y-38710000D01*
X59810000Y-48870000D02*
X59810000Y-38710000D01*
%TO.C,J7*%
X90395000Y-67330000D02*
X90395000Y-66000000D01*
X92995000Y-67330000D02*
X92995000Y-64670000D01*
X95595000Y-67330000D02*
X95595000Y-64670000D01*
%TO.C,U1*%
X72660000Y-79640000D02*
X72660000Y-79900000D01*
X72660000Y-85090000D02*
X72660000Y-84830000D01*
X75385000Y-79640000D02*
X72660000Y-79640000D01*
X75385000Y-79640000D02*
X78110000Y-79640000D01*
X75385000Y-85090000D02*
X72660000Y-85090000D01*
X75385000Y-85090000D02*
X78110000Y-85090000D01*
X78110000Y-79640000D02*
X78110000Y-79900000D01*
X78110000Y-85090000D02*
X78110000Y-84830000D01*
X79132500Y-85160000D02*
X78652500Y-85160000D01*
X78892500Y-84830000D01*
X79132500Y-85160000D01*
G36*
X79132500Y-85160000D02*
G01*
X78652500Y-85160000D01*
X78892500Y-84830000D01*
X79132500Y-85160000D01*
G37*
%TO.C,J19*%
X89070000Y-79430000D02*
X89070000Y-74290000D01*
X89070000Y-82030000D02*
X89070000Y-80700000D01*
X90400000Y-82030000D02*
X89070000Y-82030000D01*
X91730000Y-74290000D02*
X89070000Y-74290000D01*
X91730000Y-79430000D02*
X89070000Y-79430000D01*
X91730000Y-79430000D02*
X91730000Y-74290000D01*
%TO.C,C3*%
X75073748Y-75580000D02*
X75596252Y-75580000D01*
X75073748Y-77050000D02*
X75596252Y-77050000D01*
D14*
%TO.C,REF\u002A\u002A*%
X110652600Y-71958752D02*
X110669948Y-71966334D01*
X110711356Y-71999128D01*
X110746765Y-72046547D01*
X110768664Y-72097151D01*
X110772229Y-72122098D01*
X110760279Y-72156927D01*
X110734067Y-72175357D01*
X110705964Y-72186516D01*
X110693095Y-72188572D01*
X110686829Y-72173649D01*
X110674456Y-72141175D01*
X110669028Y-72126502D01*
X110638590Y-72075744D01*
X110594520Y-72050427D01*
X110538010Y-72051206D01*
X110533825Y-72052203D01*
X110503655Y-72066507D01*
X110481476Y-72094393D01*
X110466327Y-72139287D01*
X110457250Y-72204615D01*
X110453286Y-72293804D01*
X110452914Y-72341261D01*
X110452730Y-72416071D01*
X110451522Y-72467069D01*
X110448309Y-72499471D01*
X110442109Y-72518495D01*
X110431940Y-72529356D01*
X110416819Y-72537272D01*
X110415946Y-72537670D01*
X110386828Y-72549981D01*
X110372403Y-72554514D01*
X110370186Y-72540809D01*
X110368289Y-72502925D01*
X110366847Y-72445715D01*
X110365998Y-72374027D01*
X110365829Y-72321565D01*
X110366692Y-72220047D01*
X110370070Y-72143032D01*
X110377142Y-72086023D01*
X110389088Y-72044526D01*
X110407090Y-72014043D01*
X110432327Y-71990080D01*
X110457247Y-71973355D01*
X110517171Y-71951097D01*
X110586911Y-71946076D01*
X110652600Y-71958752D01*
G36*
X110652600Y-71958752D02*
G01*
X110669948Y-71966334D01*
X110711356Y-71999128D01*
X110746765Y-72046547D01*
X110768664Y-72097151D01*
X110772229Y-72122098D01*
X110760279Y-72156927D01*
X110734067Y-72175357D01*
X110705964Y-72186516D01*
X110693095Y-72188572D01*
X110686829Y-72173649D01*
X110674456Y-72141175D01*
X110669028Y-72126502D01*
X110638590Y-72075744D01*
X110594520Y-72050427D01*
X110538010Y-72051206D01*
X110533825Y-72052203D01*
X110503655Y-72066507D01*
X110481476Y-72094393D01*
X110466327Y-72139287D01*
X110457250Y-72204615D01*
X110453286Y-72293804D01*
X110452914Y-72341261D01*
X110452730Y-72416071D01*
X110451522Y-72467069D01*
X110448309Y-72499471D01*
X110442109Y-72518495D01*
X110431940Y-72529356D01*
X110416819Y-72537272D01*
X110415946Y-72537670D01*
X110386828Y-72549981D01*
X110372403Y-72554514D01*
X110370186Y-72540809D01*
X110368289Y-72502925D01*
X110366847Y-72445715D01*
X110365998Y-72374027D01*
X110365829Y-72321565D01*
X110366692Y-72220047D01*
X110370070Y-72143032D01*
X110377142Y-72086023D01*
X110389088Y-72044526D01*
X110407090Y-72014043D01*
X110432327Y-71990080D01*
X110457247Y-71973355D01*
X110517171Y-71951097D01*
X110586911Y-71946076D01*
X110652600Y-71958752D01*
G37*
X106716093Y-71927780D02*
X106762672Y-71954723D01*
X106795057Y-71981466D01*
X106818742Y-72009484D01*
X106835059Y-72043748D01*
X106845339Y-72089227D01*
X106850914Y-72150892D01*
X106853116Y-72233711D01*
X106853371Y-72293246D01*
X106853371Y-72512391D01*
X106791686Y-72540044D01*
X106730000Y-72567697D01*
X106722743Y-72327670D01*
X106719744Y-72238028D01*
X106716598Y-72172962D01*
X106712701Y-72128026D01*
X106707447Y-72098770D01*
X106700231Y-72080748D01*
X106690450Y-72069511D01*
X106687312Y-72067079D01*
X106639761Y-72048083D01*
X106591697Y-72055600D01*
X106563086Y-72075543D01*
X106551447Y-72089675D01*
X106543391Y-72108220D01*
X106538271Y-72136334D01*
X106535441Y-72179173D01*
X106534256Y-72241895D01*
X106534057Y-72307261D01*
X106534018Y-72389268D01*
X106532614Y-72447316D01*
X106527914Y-72486465D01*
X106517987Y-72511780D01*
X106500903Y-72528323D01*
X106474732Y-72541156D01*
X106439775Y-72554491D01*
X106401596Y-72569007D01*
X106406141Y-72311389D01*
X106407971Y-72218519D01*
X106410112Y-72149889D01*
X106413181Y-72100711D01*
X106417794Y-72066198D01*
X106424568Y-72041562D01*
X106434119Y-72022016D01*
X106445634Y-72004770D01*
X106501190Y-71949680D01*
X106568980Y-71917822D01*
X106642713Y-71910191D01*
X106716093Y-71927780D01*
G36*
X106716093Y-71927780D02*
G01*
X106762672Y-71954723D01*
X106795057Y-71981466D01*
X106818742Y-72009484D01*
X106835059Y-72043748D01*
X106845339Y-72089227D01*
X106850914Y-72150892D01*
X106853116Y-72233711D01*
X106853371Y-72293246D01*
X106853371Y-72512391D01*
X106791686Y-72540044D01*
X106730000Y-72567697D01*
X106722743Y-72327670D01*
X106719744Y-72238028D01*
X106716598Y-72172962D01*
X106712701Y-72128026D01*
X106707447Y-72098770D01*
X106700231Y-72080748D01*
X106690450Y-72069511D01*
X106687312Y-72067079D01*
X106639761Y-72048083D01*
X106591697Y-72055600D01*
X106563086Y-72075543D01*
X106551447Y-72089675D01*
X106543391Y-72108220D01*
X106538271Y-72136334D01*
X106535441Y-72179173D01*
X106534256Y-72241895D01*
X106534057Y-72307261D01*
X106534018Y-72389268D01*
X106532614Y-72447316D01*
X106527914Y-72486465D01*
X106517987Y-72511780D01*
X106500903Y-72528323D01*
X106474732Y-72541156D01*
X106439775Y-72554491D01*
X106401596Y-72569007D01*
X106406141Y-72311389D01*
X106407971Y-72218519D01*
X106410112Y-72149889D01*
X106413181Y-72100711D01*
X106417794Y-72066198D01*
X106424568Y-72041562D01*
X106434119Y-72022016D01*
X106445634Y-72004770D01*
X106501190Y-71949680D01*
X106568980Y-71917822D01*
X106642713Y-71910191D01*
X106716093Y-71927780D01*
G37*
X108529926Y-71949755D02*
X108595858Y-71974084D01*
X108649273Y-72017117D01*
X108670164Y-72047409D01*
X108692939Y-72102994D01*
X108692466Y-72143186D01*
X108668562Y-72170217D01*
X108659717Y-72174813D01*
X108621530Y-72189144D01*
X108602028Y-72185472D01*
X108595422Y-72161407D01*
X108595086Y-72148114D01*
X108582992Y-72099210D01*
X108551471Y-72064999D01*
X108507659Y-72048476D01*
X108458695Y-72052634D01*
X108418894Y-72074227D01*
X108405450Y-72086544D01*
X108395921Y-72101487D01*
X108389485Y-72124075D01*
X108385317Y-72159328D01*
X108382597Y-72212266D01*
X108380502Y-72287907D01*
X108379960Y-72311857D01*
X108377981Y-72393790D01*
X108375731Y-72451455D01*
X108372357Y-72489608D01*
X108367006Y-72513004D01*
X108358824Y-72526398D01*
X108346959Y-72534545D01*
X108339362Y-72538144D01*
X108307102Y-72550452D01*
X108288111Y-72554514D01*
X108281836Y-72540948D01*
X108278006Y-72499934D01*
X108276600Y-72430999D01*
X108277598Y-72333669D01*
X108277908Y-72318657D01*
X108280101Y-72229859D01*
X108282693Y-72165019D01*
X108286382Y-72119067D01*
X108291864Y-72086935D01*
X108299835Y-72063553D01*
X108310993Y-72043852D01*
X108316830Y-72035410D01*
X108350296Y-71998057D01*
X108387727Y-71969003D01*
X108392309Y-71966467D01*
X108459426Y-71946443D01*
X108529926Y-71949755D01*
G36*
X108529926Y-71949755D02*
G01*
X108595858Y-71974084D01*
X108649273Y-72017117D01*
X108670164Y-72047409D01*
X108692939Y-72102994D01*
X108692466Y-72143186D01*
X108668562Y-72170217D01*
X108659717Y-72174813D01*
X108621530Y-72189144D01*
X108602028Y-72185472D01*
X108595422Y-72161407D01*
X108595086Y-72148114D01*
X108582992Y-72099210D01*
X108551471Y-72064999D01*
X108507659Y-72048476D01*
X108458695Y-72052634D01*
X108418894Y-72074227D01*
X108405450Y-72086544D01*
X108395921Y-72101487D01*
X108389485Y-72124075D01*
X108385317Y-72159328D01*
X108382597Y-72212266D01*
X108380502Y-72287907D01*
X108379960Y-72311857D01*
X108377981Y-72393790D01*
X108375731Y-72451455D01*
X108372357Y-72489608D01*
X108367006Y-72513004D01*
X108358824Y-72526398D01*
X108346959Y-72534545D01*
X108339362Y-72538144D01*
X108307102Y-72550452D01*
X108288111Y-72554514D01*
X108281836Y-72540948D01*
X108278006Y-72499934D01*
X108276600Y-72430999D01*
X108277598Y-72333669D01*
X108277908Y-72318657D01*
X108280101Y-72229859D01*
X108282693Y-72165019D01*
X108286382Y-72119067D01*
X108291864Y-72086935D01*
X108299835Y-72063553D01*
X108310993Y-72043852D01*
X108316830Y-72035410D01*
X108350296Y-71998057D01*
X108387727Y-71969003D01*
X108392309Y-71966467D01*
X108459426Y-71946443D01*
X108529926Y-71949755D01*
G37*
X107375886Y-71851289D02*
X107380139Y-71910613D01*
X107385025Y-71945572D01*
X107391795Y-71960820D01*
X107401702Y-71961015D01*
X107404914Y-71959195D01*
X107447644Y-71946015D01*
X107503227Y-71946785D01*
X107559737Y-71960333D01*
X107595082Y-71977861D01*
X107631321Y-72005861D01*
X107657813Y-72037549D01*
X107675999Y-72077813D01*
X107687322Y-72131543D01*
X107693222Y-72203626D01*
X107695143Y-72298951D01*
X107695177Y-72317237D01*
X107695200Y-72522646D01*
X107649491Y-72538580D01*
X107617027Y-72549420D01*
X107599215Y-72554468D01*
X107598691Y-72554514D01*
X107596937Y-72540828D01*
X107595444Y-72503076D01*
X107594326Y-72446224D01*
X107593697Y-72375234D01*
X107593600Y-72332073D01*
X107593398Y-72246973D01*
X107592358Y-72185981D01*
X107589831Y-72144177D01*
X107585164Y-72116642D01*
X107577707Y-72098456D01*
X107566811Y-72084698D01*
X107560007Y-72078073D01*
X107513272Y-72051375D01*
X107462272Y-72049375D01*
X107416001Y-72071955D01*
X107407444Y-72080107D01*
X107394893Y-72095436D01*
X107386188Y-72113618D01*
X107380631Y-72139909D01*
X107377526Y-72179562D01*
X107376176Y-72237832D01*
X107375886Y-72318173D01*
X107375886Y-72522646D01*
X107330177Y-72538580D01*
X107297713Y-72549420D01*
X107279901Y-72554468D01*
X107279377Y-72554514D01*
X107278037Y-72540623D01*
X107276828Y-72501439D01*
X107275801Y-72440700D01*
X107275002Y-72362141D01*
X107274481Y-72269498D01*
X107274286Y-72166509D01*
X107274286Y-71769342D01*
X107321457Y-71749444D01*
X107368629Y-71729547D01*
X107375886Y-71851289D01*
G36*
X107375886Y-71851289D02*
G01*
X107380139Y-71910613D01*
X107385025Y-71945572D01*
X107391795Y-71960820D01*
X107401702Y-71961015D01*
X107404914Y-71959195D01*
X107447644Y-71946015D01*
X107503227Y-71946785D01*
X107559737Y-71960333D01*
X107595082Y-71977861D01*
X107631321Y-72005861D01*
X107657813Y-72037549D01*
X107675999Y-72077813D01*
X107687322Y-72131543D01*
X107693222Y-72203626D01*
X107695143Y-72298951D01*
X107695177Y-72317237D01*
X107695200Y-72522646D01*
X107649491Y-72538580D01*
X107617027Y-72549420D01*
X107599215Y-72554468D01*
X107598691Y-72554514D01*
X107596937Y-72540828D01*
X107595444Y-72503076D01*
X107594326Y-72446224D01*
X107593697Y-72375234D01*
X107593600Y-72332073D01*
X107593398Y-72246973D01*
X107592358Y-72185981D01*
X107589831Y-72144177D01*
X107585164Y-72116642D01*
X107577707Y-72098456D01*
X107566811Y-72084698D01*
X107560007Y-72078073D01*
X107513272Y-72051375D01*
X107462272Y-72049375D01*
X107416001Y-72071955D01*
X107407444Y-72080107D01*
X107394893Y-72095436D01*
X107386188Y-72113618D01*
X107380631Y-72139909D01*
X107377526Y-72179562D01*
X107376176Y-72237832D01*
X107375886Y-72318173D01*
X107375886Y-72522646D01*
X107330177Y-72538580D01*
X107297713Y-72549420D01*
X107279901Y-72554468D01*
X107279377Y-72554514D01*
X107278037Y-72540623D01*
X107276828Y-72501439D01*
X107275801Y-72440700D01*
X107275002Y-72362141D01*
X107274481Y-72269498D01*
X107274286Y-72166509D01*
X107274286Y-71769342D01*
X107321457Y-71749444D01*
X107368629Y-71729547D01*
X107375886Y-71851289D01*
G37*
X109779833Y-71958663D02*
X109782048Y-71996850D01*
X109783784Y-72054886D01*
X109784899Y-72128180D01*
X109785257Y-72205055D01*
X109785257Y-72465196D01*
X109739326Y-72511127D01*
X109707675Y-72539429D01*
X109679890Y-72550893D01*
X109641915Y-72550168D01*
X109626840Y-72548321D01*
X109579726Y-72542948D01*
X109540756Y-72539869D01*
X109531257Y-72539585D01*
X109499233Y-72541445D01*
X109453432Y-72546114D01*
X109435674Y-72548321D01*
X109392057Y-72551735D01*
X109362745Y-72544320D01*
X109333680Y-72521427D01*
X109323188Y-72511127D01*
X109277257Y-72465196D01*
X109277257Y-71978602D01*
X109314226Y-71961758D01*
X109346059Y-71949282D01*
X109364683Y-71944914D01*
X109369458Y-71958718D01*
X109373921Y-71997286D01*
X109377775Y-72056356D01*
X109380722Y-72131663D01*
X109382143Y-72195286D01*
X109386114Y-72445657D01*
X109420759Y-72450556D01*
X109452268Y-72447131D01*
X109467708Y-72436041D01*
X109472023Y-72415308D01*
X109475708Y-72371145D01*
X109478469Y-72309146D01*
X109480012Y-72234909D01*
X109480235Y-72196706D01*
X109480457Y-71976783D01*
X109526166Y-71960849D01*
X109558518Y-71950015D01*
X109576115Y-71944962D01*
X109576623Y-71944914D01*
X109578388Y-71958648D01*
X109580329Y-71996730D01*
X109582282Y-72054482D01*
X109584084Y-72127227D01*
X109585343Y-72195286D01*
X109589314Y-72445657D01*
X109676400Y-72445657D01*
X109680396Y-72217240D01*
X109684392Y-71988822D01*
X109726847Y-71966868D01*
X109758192Y-71951793D01*
X109776744Y-71944951D01*
X109777279Y-71944914D01*
X109779833Y-71958663D01*
G36*
X109779833Y-71958663D02*
G01*
X109782048Y-71996850D01*
X109783784Y-72054886D01*
X109784899Y-72128180D01*
X109785257Y-72205055D01*
X109785257Y-72465196D01*
X109739326Y-72511127D01*
X109707675Y-72539429D01*
X109679890Y-72550893D01*
X109641915Y-72550168D01*
X109626840Y-72548321D01*
X109579726Y-72542948D01*
X109540756Y-72539869D01*
X109531257Y-72539585D01*
X109499233Y-72541445D01*
X109453432Y-72546114D01*
X109435674Y-72548321D01*
X109392057Y-72551735D01*
X109362745Y-72544320D01*
X109333680Y-72521427D01*
X109323188Y-72511127D01*
X109277257Y-72465196D01*
X109277257Y-71978602D01*
X109314226Y-71961758D01*
X109346059Y-71949282D01*
X109364683Y-71944914D01*
X109369458Y-71958718D01*
X109373921Y-71997286D01*
X109377775Y-72056356D01*
X109380722Y-72131663D01*
X109382143Y-72195286D01*
X109386114Y-72445657D01*
X109420759Y-72450556D01*
X109452268Y-72447131D01*
X109467708Y-72436041D01*
X109472023Y-72415308D01*
X109475708Y-72371145D01*
X109478469Y-72309146D01*
X109480012Y-72234909D01*
X109480235Y-72196706D01*
X109480457Y-71976783D01*
X109526166Y-71960849D01*
X109558518Y-71950015D01*
X109576115Y-71944962D01*
X109576623Y-71944914D01*
X109578388Y-71958648D01*
X109580329Y-71996730D01*
X109582282Y-72054482D01*
X109584084Y-72127227D01*
X109585343Y-72195286D01*
X109589314Y-72445657D01*
X109676400Y-72445657D01*
X109680396Y-72217240D01*
X109684392Y-71988822D01*
X109726847Y-71966868D01*
X109758192Y-71951793D01*
X109776744Y-71944951D01*
X109777279Y-71944914D01*
X109779833Y-71958663D01*
G37*
X105041115Y-71921962D02*
X105109145Y-71957733D01*
X105159351Y-72015301D01*
X105177185Y-72052312D01*
X105191063Y-72107882D01*
X105198167Y-72178096D01*
X105198840Y-72254727D01*
X105193427Y-72329552D01*
X105182270Y-72394342D01*
X105165714Y-72440873D01*
X105160626Y-72448887D01*
X105100355Y-72508707D01*
X105028769Y-72544535D01*
X104951092Y-72555020D01*
X104872548Y-72538810D01*
X104850689Y-72529092D01*
X104808122Y-72499143D01*
X104770763Y-72459433D01*
X104767232Y-72454397D01*
X104752881Y-72430124D01*
X104743394Y-72404178D01*
X104737790Y-72370022D01*
X104735086Y-72321119D01*
X104734299Y-72250935D01*
X104734286Y-72235200D01*
X104734322Y-72230192D01*
X104879429Y-72230192D01*
X104880273Y-72296430D01*
X104883596Y-72340386D01*
X104890583Y-72368779D01*
X104902416Y-72388325D01*
X104908457Y-72394857D01*
X104943186Y-72419680D01*
X104976903Y-72418548D01*
X105010995Y-72397016D01*
X105031329Y-72374029D01*
X105043371Y-72340478D01*
X105050134Y-72287569D01*
X105050598Y-72281399D01*
X105051752Y-72185513D01*
X105039688Y-72114299D01*
X105014570Y-72068194D01*
X104976560Y-72047635D01*
X104962992Y-72046514D01*
X104927364Y-72052152D01*
X104902994Y-72071686D01*
X104888093Y-72109042D01*
X104880875Y-72168150D01*
X104879429Y-72230192D01*
X104734322Y-72230192D01*
X104734826Y-72160413D01*
X104737096Y-72108159D01*
X104742068Y-72071949D01*
X104750713Y-72045299D01*
X104764005Y-72021722D01*
X104766943Y-72017338D01*
X104816313Y-71958249D01*
X104870109Y-71923947D01*
X104935602Y-71910331D01*
X104957842Y-71909665D01*
X105041115Y-71921962D01*
G36*
X105041115Y-71921962D02*
G01*
X105109145Y-71957733D01*
X105159351Y-72015301D01*
X105177185Y-72052312D01*
X105191063Y-72107882D01*
X105198167Y-72178096D01*
X105198840Y-72254727D01*
X105193427Y-72329552D01*
X105182270Y-72394342D01*
X105165714Y-72440873D01*
X105160626Y-72448887D01*
X105100355Y-72508707D01*
X105028769Y-72544535D01*
X104951092Y-72555020D01*
X104872548Y-72538810D01*
X104850689Y-72529092D01*
X104808122Y-72499143D01*
X104770763Y-72459433D01*
X104767232Y-72454397D01*
X104752881Y-72430124D01*
X104743394Y-72404178D01*
X104737790Y-72370022D01*
X104735086Y-72321119D01*
X104734299Y-72250935D01*
X104734286Y-72235200D01*
X104734322Y-72230192D01*
X104879429Y-72230192D01*
X104880273Y-72296430D01*
X104883596Y-72340386D01*
X104890583Y-72368779D01*
X104902416Y-72388325D01*
X104908457Y-72394857D01*
X104943186Y-72419680D01*
X104976903Y-72418548D01*
X105010995Y-72397016D01*
X105031329Y-72374029D01*
X105043371Y-72340478D01*
X105050134Y-72287569D01*
X105050598Y-72281399D01*
X105051752Y-72185513D01*
X105039688Y-72114299D01*
X105014570Y-72068194D01*
X104976560Y-72047635D01*
X104962992Y-72046514D01*
X104927364Y-72052152D01*
X104902994Y-72071686D01*
X104888093Y-72109042D01*
X104880875Y-72168150D01*
X104879429Y-72230192D01*
X104734322Y-72230192D01*
X104734826Y-72160413D01*
X104737096Y-72108159D01*
X104742068Y-72071949D01*
X104750713Y-72045299D01*
X104764005Y-72021722D01*
X104766943Y-72017338D01*
X104816313Y-71958249D01*
X104870109Y-71923947D01*
X104935602Y-71910331D01*
X104957842Y-71909665D01*
X105041115Y-71921962D01*
G37*
X111153595Y-71966966D02*
X111211021Y-72004497D01*
X111238719Y-72038096D01*
X111260662Y-72099064D01*
X111262405Y-72147308D01*
X111258457Y-72211816D01*
X111109686Y-72276934D01*
X111037349Y-72310202D01*
X110990084Y-72336964D01*
X110965507Y-72360144D01*
X110961237Y-72382667D01*
X110974889Y-72407455D01*
X110989943Y-72423886D01*
X111033746Y-72450235D01*
X111081389Y-72452081D01*
X111125145Y-72431546D01*
X111157289Y-72390752D01*
X111163038Y-72376347D01*
X111190576Y-72331356D01*
X111222258Y-72312182D01*
X111265714Y-72295779D01*
X111265714Y-72357966D01*
X111261872Y-72400283D01*
X111246823Y-72435969D01*
X111215280Y-72476943D01*
X111210592Y-72482267D01*
X111175506Y-72518720D01*
X111145347Y-72538283D01*
X111107615Y-72547283D01*
X111076335Y-72550230D01*
X111020385Y-72550965D01*
X110980555Y-72541660D01*
X110955708Y-72527846D01*
X110916656Y-72497467D01*
X110889625Y-72464613D01*
X110872517Y-72423294D01*
X110863238Y-72367521D01*
X110859693Y-72291305D01*
X110859410Y-72252622D01*
X110860372Y-72206247D01*
X110948007Y-72206247D01*
X110949023Y-72231126D01*
X110951556Y-72235200D01*
X110968274Y-72229665D01*
X111004249Y-72215017D01*
X111052331Y-72194190D01*
X111062386Y-72189714D01*
X111123152Y-72158814D01*
X111156632Y-72131657D01*
X111163990Y-72106220D01*
X111146391Y-72080481D01*
X111131856Y-72069109D01*
X111079410Y-72046364D01*
X111030322Y-72050122D01*
X110989227Y-72077884D01*
X110960758Y-72127152D01*
X110951631Y-72166257D01*
X110948007Y-72206247D01*
X110860372Y-72206247D01*
X110861285Y-72162249D01*
X110868196Y-72095384D01*
X110881884Y-72046695D01*
X110904096Y-72010849D01*
X110936574Y-71982513D01*
X110950733Y-71973355D01*
X111015053Y-71949507D01*
X111085473Y-71948006D01*
X111153595Y-71966966D01*
G36*
X111153595Y-71966966D02*
G01*
X111211021Y-72004497D01*
X111238719Y-72038096D01*
X111260662Y-72099064D01*
X111262405Y-72147308D01*
X111258457Y-72211816D01*
X111109686Y-72276934D01*
X111037349Y-72310202D01*
X110990084Y-72336964D01*
X110965507Y-72360144D01*
X110961237Y-72382667D01*
X110974889Y-72407455D01*
X110989943Y-72423886D01*
X111033746Y-72450235D01*
X111081389Y-72452081D01*
X111125145Y-72431546D01*
X111157289Y-72390752D01*
X111163038Y-72376347D01*
X111190576Y-72331356D01*
X111222258Y-72312182D01*
X111265714Y-72295779D01*
X111265714Y-72357966D01*
X111261872Y-72400283D01*
X111246823Y-72435969D01*
X111215280Y-72476943D01*
X111210592Y-72482267D01*
X111175506Y-72518720D01*
X111145347Y-72538283D01*
X111107615Y-72547283D01*
X111076335Y-72550230D01*
X111020385Y-72550965D01*
X110980555Y-72541660D01*
X110955708Y-72527846D01*
X110916656Y-72497467D01*
X110889625Y-72464613D01*
X110872517Y-72423294D01*
X110863238Y-72367521D01*
X110859693Y-72291305D01*
X110859410Y-72252622D01*
X110860372Y-72206247D01*
X110948007Y-72206247D01*
X110949023Y-72231126D01*
X110951556Y-72235200D01*
X110968274Y-72229665D01*
X111004249Y-72215017D01*
X111052331Y-72194190D01*
X111062386Y-72189714D01*
X111123152Y-72158814D01*
X111156632Y-72131657D01*
X111163990Y-72106220D01*
X111146391Y-72080481D01*
X111131856Y-72069109D01*
X111079410Y-72046364D01*
X111030322Y-72050122D01*
X110989227Y-72077884D01*
X110960758Y-72127152D01*
X110951631Y-72166257D01*
X110948007Y-72206247D01*
X110860372Y-72206247D01*
X110861285Y-72162249D01*
X110868196Y-72095384D01*
X110881884Y-72046695D01*
X110904096Y-72010849D01*
X110936574Y-71982513D01*
X110950733Y-71973355D01*
X111015053Y-71949507D01*
X111085473Y-71948006D01*
X111153595Y-71966966D01*
G37*
X109190117Y-72065358D02*
X109189933Y-72173837D01*
X109189219Y-72257287D01*
X109187675Y-72319704D01*
X109185001Y-72365085D01*
X109180894Y-72397429D01*
X109175055Y-72420733D01*
X109167182Y-72438995D01*
X109161221Y-72449418D01*
X109111855Y-72505945D01*
X109049264Y-72541377D01*
X108980013Y-72554090D01*
X108910668Y-72542463D01*
X108869375Y-72521568D01*
X108826025Y-72485422D01*
X108796481Y-72441276D01*
X108778655Y-72383462D01*
X108770463Y-72306313D01*
X108769302Y-72249714D01*
X108769458Y-72245647D01*
X108870857Y-72245647D01*
X108871476Y-72310550D01*
X108874314Y-72353514D01*
X108880840Y-72381622D01*
X108892523Y-72401953D01*
X108906483Y-72417288D01*
X108953365Y-72446890D01*
X109003701Y-72449419D01*
X109051276Y-72424705D01*
X109054979Y-72421356D01*
X109070783Y-72403935D01*
X109080693Y-72383209D01*
X109086058Y-72352362D01*
X109088228Y-72304577D01*
X109088571Y-72251748D01*
X109087827Y-72185381D01*
X109084748Y-72141106D01*
X109078061Y-72112009D01*
X109066496Y-72091173D01*
X109057013Y-72080107D01*
X109012960Y-72052198D01*
X108962224Y-72048843D01*
X108913796Y-72070159D01*
X108904450Y-72078073D01*
X108888540Y-72095647D01*
X108878610Y-72116587D01*
X108873278Y-72147782D01*
X108871163Y-72196122D01*
X108870857Y-72245647D01*
X108769458Y-72245647D01*
X108772810Y-72158568D01*
X108784726Y-72090086D01*
X108807135Y-72038600D01*
X108842124Y-71998443D01*
X108869375Y-71977861D01*
X108918907Y-71955625D01*
X108976316Y-71945304D01*
X109029682Y-71948067D01*
X109059543Y-71959212D01*
X109071261Y-71962383D01*
X109079037Y-71950557D01*
X109084465Y-71918866D01*
X109088571Y-71870593D01*
X109093067Y-71816829D01*
X109099313Y-71784482D01*
X109110676Y-71765985D01*
X109130528Y-71753770D01*
X109143000Y-71748362D01*
X109190171Y-71728601D01*
X109190117Y-72065358D01*
G36*
X109190117Y-72065358D02*
G01*
X109189933Y-72173837D01*
X109189219Y-72257287D01*
X109187675Y-72319704D01*
X109185001Y-72365085D01*
X109180894Y-72397429D01*
X109175055Y-72420733D01*
X109167182Y-72438995D01*
X109161221Y-72449418D01*
X109111855Y-72505945D01*
X109049264Y-72541377D01*
X108980013Y-72554090D01*
X108910668Y-72542463D01*
X108869375Y-72521568D01*
X108826025Y-72485422D01*
X108796481Y-72441276D01*
X108778655Y-72383462D01*
X108770463Y-72306313D01*
X108769302Y-72249714D01*
X108769458Y-72245647D01*
X108870857Y-72245647D01*
X108871476Y-72310550D01*
X108874314Y-72353514D01*
X108880840Y-72381622D01*
X108892523Y-72401953D01*
X108906483Y-72417288D01*
X108953365Y-72446890D01*
X109003701Y-72449419D01*
X109051276Y-72424705D01*
X109054979Y-72421356D01*
X109070783Y-72403935D01*
X109080693Y-72383209D01*
X109086058Y-72352362D01*
X109088228Y-72304577D01*
X109088571Y-72251748D01*
X109087827Y-72185381D01*
X109084748Y-72141106D01*
X109078061Y-72112009D01*
X109066496Y-72091173D01*
X109057013Y-72080107D01*
X109012960Y-72052198D01*
X108962224Y-72048843D01*
X108913796Y-72070159D01*
X108904450Y-72078073D01*
X108888540Y-72095647D01*
X108878610Y-72116587D01*
X108873278Y-72147782D01*
X108871163Y-72196122D01*
X108870857Y-72245647D01*
X108769458Y-72245647D01*
X108772810Y-72158568D01*
X108784726Y-72090086D01*
X108807135Y-72038600D01*
X108842124Y-71998443D01*
X108869375Y-71977861D01*
X108918907Y-71955625D01*
X108976316Y-71945304D01*
X109029682Y-71948067D01*
X109059543Y-71959212D01*
X109071261Y-71962383D01*
X109079037Y-71950557D01*
X109084465Y-71918866D01*
X109088571Y-71870593D01*
X109093067Y-71816829D01*
X109099313Y-71784482D01*
X109110676Y-71765985D01*
X109130528Y-71753770D01*
X109143000Y-71748362D01*
X109190171Y-71728601D01*
X109190117Y-72065358D01*
G37*
X106168303Y-71931239D02*
X106225527Y-71969735D01*
X106269749Y-72025335D01*
X106296167Y-72096086D01*
X106301510Y-72148162D01*
X106300903Y-72169893D01*
X106295822Y-72186531D01*
X106281855Y-72201437D01*
X106254589Y-72217973D01*
X106209612Y-72239498D01*
X106142511Y-72269374D01*
X106142171Y-72269524D01*
X106080407Y-72297813D01*
X106029759Y-72322933D01*
X105995404Y-72342179D01*
X105982518Y-72352848D01*
X105982514Y-72352934D01*
X105993872Y-72376166D01*
X106020431Y-72401774D01*
X106050923Y-72420221D01*
X106066370Y-72423886D01*
X106108515Y-72411212D01*
X106144808Y-72379471D01*
X106162517Y-72344572D01*
X106179552Y-72318845D01*
X106212922Y-72289546D01*
X106252149Y-72264235D01*
X106286756Y-72250471D01*
X106293993Y-72249714D01*
X106302139Y-72262160D01*
X106302630Y-72293972D01*
X106296643Y-72336866D01*
X106285357Y-72382558D01*
X106269950Y-72422761D01*
X106269171Y-72424322D01*
X106222804Y-72489062D01*
X106162711Y-72533097D01*
X106094465Y-72554711D01*
X106023638Y-72552185D01*
X105955804Y-72523804D01*
X105952788Y-72521808D01*
X105899427Y-72473448D01*
X105864340Y-72410352D01*
X105844922Y-72327387D01*
X105842316Y-72304078D01*
X105837701Y-72194055D01*
X105843233Y-72142748D01*
X105982514Y-72142748D01*
X105984324Y-72174753D01*
X105994222Y-72184093D01*
X106018898Y-72177105D01*
X106057795Y-72160587D01*
X106101275Y-72139881D01*
X106102356Y-72139333D01*
X106139209Y-72119949D01*
X106154000Y-72107013D01*
X106150353Y-72093451D01*
X106134995Y-72075632D01*
X106095923Y-72049845D01*
X106053846Y-72047950D01*
X106016103Y-72066717D01*
X105990034Y-72102915D01*
X105982514Y-72142748D01*
X105843233Y-72142748D01*
X105847194Y-72106027D01*
X105871550Y-72036212D01*
X105905456Y-71987302D01*
X105966653Y-71937878D01*
X106034063Y-71913359D01*
X106102880Y-71911797D01*
X106168303Y-71931239D01*
G36*
X106168303Y-71931239D02*
G01*
X106225527Y-71969735D01*
X106269749Y-72025335D01*
X106296167Y-72096086D01*
X106301510Y-72148162D01*
X106300903Y-72169893D01*
X106295822Y-72186531D01*
X106281855Y-72201437D01*
X106254589Y-72217973D01*
X106209612Y-72239498D01*
X106142511Y-72269374D01*
X106142171Y-72269524D01*
X106080407Y-72297813D01*
X106029759Y-72322933D01*
X105995404Y-72342179D01*
X105982518Y-72352848D01*
X105982514Y-72352934D01*
X105993872Y-72376166D01*
X106020431Y-72401774D01*
X106050923Y-72420221D01*
X106066370Y-72423886D01*
X106108515Y-72411212D01*
X106144808Y-72379471D01*
X106162517Y-72344572D01*
X106179552Y-72318845D01*
X106212922Y-72289546D01*
X106252149Y-72264235D01*
X106286756Y-72250471D01*
X106293993Y-72249714D01*
X106302139Y-72262160D01*
X106302630Y-72293972D01*
X106296643Y-72336866D01*
X106285357Y-72382558D01*
X106269950Y-72422761D01*
X106269171Y-72424322D01*
X106222804Y-72489062D01*
X106162711Y-72533097D01*
X106094465Y-72554711D01*
X106023638Y-72552185D01*
X105955804Y-72523804D01*
X105952788Y-72521808D01*
X105899427Y-72473448D01*
X105864340Y-72410352D01*
X105844922Y-72327387D01*
X105842316Y-72304078D01*
X105837701Y-72194055D01*
X105843233Y-72142748D01*
X105982514Y-72142748D01*
X105984324Y-72174753D01*
X105994222Y-72184093D01*
X106018898Y-72177105D01*
X106057795Y-72160587D01*
X106101275Y-72139881D01*
X106102356Y-72139333D01*
X106139209Y-72119949D01*
X106154000Y-72107013D01*
X106150353Y-72093451D01*
X106134995Y-72075632D01*
X106095923Y-72049845D01*
X106053846Y-72047950D01*
X106016103Y-72066717D01*
X105990034Y-72102915D01*
X105982514Y-72142748D01*
X105843233Y-72142748D01*
X105847194Y-72106027D01*
X105871550Y-72036212D01*
X105905456Y-71987302D01*
X105966653Y-71937878D01*
X106034063Y-71913359D01*
X106102880Y-71911797D01*
X106168303Y-71931239D01*
G37*
X108039744Y-71950968D02*
X108096616Y-71972087D01*
X108097267Y-71972493D01*
X108132440Y-71998380D01*
X108158407Y-72028633D01*
X108176670Y-72068058D01*
X108188732Y-72121462D01*
X108196096Y-72193651D01*
X108200264Y-72289432D01*
X108200629Y-72303078D01*
X108205876Y-72508842D01*
X108161716Y-72531678D01*
X108129763Y-72547110D01*
X108110470Y-72554423D01*
X108109578Y-72554514D01*
X108106239Y-72541022D01*
X108103587Y-72504626D01*
X108101956Y-72451452D01*
X108101600Y-72408393D01*
X108101592Y-72338641D01*
X108098403Y-72294837D01*
X108087288Y-72273944D01*
X108063501Y-72272925D01*
X108022296Y-72288741D01*
X107960086Y-72317815D01*
X107914341Y-72341963D01*
X107890813Y-72362913D01*
X107883896Y-72385747D01*
X107883886Y-72386877D01*
X107895299Y-72426212D01*
X107929092Y-72447462D01*
X107980809Y-72450539D01*
X108018061Y-72450006D01*
X108037703Y-72460735D01*
X108049952Y-72486505D01*
X108057002Y-72519337D01*
X108046842Y-72537966D01*
X108043017Y-72540632D01*
X108007001Y-72551340D01*
X107956566Y-72552856D01*
X107904626Y-72545759D01*
X107867822Y-72532788D01*
X107816938Y-72489585D01*
X107788014Y-72429446D01*
X107782286Y-72382462D01*
X107786657Y-72340082D01*
X107802475Y-72305488D01*
X107833797Y-72274763D01*
X107884678Y-72243990D01*
X107959176Y-72209252D01*
X107963714Y-72207288D01*
X108030821Y-72176287D01*
X108072232Y-72150862D01*
X108089981Y-72128014D01*
X108086107Y-72104745D01*
X108062643Y-72078056D01*
X108055627Y-72071914D01*
X108008630Y-72048100D01*
X107959933Y-72049103D01*
X107917522Y-72072451D01*
X107889384Y-72115675D01*
X107886769Y-72124160D01*
X107861308Y-72165308D01*
X107829001Y-72185128D01*
X107782286Y-72204770D01*
X107782286Y-72153950D01*
X107796496Y-72080082D01*
X107838675Y-72012327D01*
X107860624Y-71989661D01*
X107910517Y-71960569D01*
X107973967Y-71947400D01*
X108039744Y-71950968D01*
G36*
X108039744Y-71950968D02*
G01*
X108096616Y-71972087D01*
X108097267Y-71972493D01*
X108132440Y-71998380D01*
X108158407Y-72028633D01*
X108176670Y-72068058D01*
X108188732Y-72121462D01*
X108196096Y-72193651D01*
X108200264Y-72289432D01*
X108200629Y-72303078D01*
X108205876Y-72508842D01*
X108161716Y-72531678D01*
X108129763Y-72547110D01*
X108110470Y-72554423D01*
X108109578Y-72554514D01*
X108106239Y-72541022D01*
X108103587Y-72504626D01*
X108101956Y-72451452D01*
X108101600Y-72408393D01*
X108101592Y-72338641D01*
X108098403Y-72294837D01*
X108087288Y-72273944D01*
X108063501Y-72272925D01*
X108022296Y-72288741D01*
X107960086Y-72317815D01*
X107914341Y-72341963D01*
X107890813Y-72362913D01*
X107883896Y-72385747D01*
X107883886Y-72386877D01*
X107895299Y-72426212D01*
X107929092Y-72447462D01*
X107980809Y-72450539D01*
X108018061Y-72450006D01*
X108037703Y-72460735D01*
X108049952Y-72486505D01*
X108057002Y-72519337D01*
X108046842Y-72537966D01*
X108043017Y-72540632D01*
X108007001Y-72551340D01*
X107956566Y-72552856D01*
X107904626Y-72545759D01*
X107867822Y-72532788D01*
X107816938Y-72489585D01*
X107788014Y-72429446D01*
X107782286Y-72382462D01*
X107786657Y-72340082D01*
X107802475Y-72305488D01*
X107833797Y-72274763D01*
X107884678Y-72243990D01*
X107959176Y-72209252D01*
X107963714Y-72207288D01*
X108030821Y-72176287D01*
X108072232Y-72150862D01*
X108089981Y-72128014D01*
X108086107Y-72104745D01*
X108062643Y-72078056D01*
X108055627Y-72071914D01*
X108008630Y-72048100D01*
X107959933Y-72049103D01*
X107917522Y-72072451D01*
X107889384Y-72115675D01*
X107886769Y-72124160D01*
X107861308Y-72165308D01*
X107829001Y-72185128D01*
X107782286Y-72204770D01*
X107782286Y-72153950D01*
X107796496Y-72080082D01*
X107838675Y-72012327D01*
X107860624Y-71989661D01*
X107910517Y-71960569D01*
X107973967Y-71947400D01*
X108039744Y-71950968D01*
G37*
X105599744Y-71919918D02*
X105655201Y-71947568D01*
X105704148Y-71998480D01*
X105717629Y-72017338D01*
X105732314Y-72042015D01*
X105741842Y-72068816D01*
X105747293Y-72104587D01*
X105749747Y-72156169D01*
X105750286Y-72224267D01*
X105747852Y-72317588D01*
X105739394Y-72387657D01*
X105723174Y-72439931D01*
X105697454Y-72479869D01*
X105660497Y-72512929D01*
X105657782Y-72514886D01*
X105621360Y-72534908D01*
X105577502Y-72544815D01*
X105521724Y-72547257D01*
X105431048Y-72547257D01*
X105431010Y-72635283D01*
X105430166Y-72684308D01*
X105425024Y-72713065D01*
X105411587Y-72730311D01*
X105385858Y-72744808D01*
X105379679Y-72747769D01*
X105350764Y-72761648D01*
X105328376Y-72770414D01*
X105311729Y-72771171D01*
X105300036Y-72761023D01*
X105292510Y-72737073D01*
X105288366Y-72696426D01*
X105286815Y-72636186D01*
X105287071Y-72553455D01*
X105288349Y-72445339D01*
X105288748Y-72413000D01*
X105290185Y-72301524D01*
X105291472Y-72228603D01*
X105430971Y-72228603D01*
X105431755Y-72290499D01*
X105435240Y-72330997D01*
X105443124Y-72357708D01*
X105457105Y-72378244D01*
X105466597Y-72388260D01*
X105505404Y-72417567D01*
X105539763Y-72419952D01*
X105575216Y-72395750D01*
X105576114Y-72394857D01*
X105590539Y-72376153D01*
X105599313Y-72350732D01*
X105603739Y-72311584D01*
X105605118Y-72251697D01*
X105605143Y-72238430D01*
X105601812Y-72155901D01*
X105590969Y-72098691D01*
X105571340Y-72063766D01*
X105541650Y-72048094D01*
X105524491Y-72046514D01*
X105483766Y-72053926D01*
X105455832Y-72078330D01*
X105439017Y-72122980D01*
X105431650Y-72191130D01*
X105430971Y-72228603D01*
X105291472Y-72228603D01*
X105291708Y-72215245D01*
X105293677Y-72150333D01*
X105296450Y-72102958D01*
X105300388Y-72069290D01*
X105305849Y-72045498D01*
X105313192Y-72027753D01*
X105322777Y-72012224D01*
X105326887Y-72006381D01*
X105381405Y-71951185D01*
X105450336Y-71919890D01*
X105530072Y-71911165D01*
X105599744Y-71919918D01*
G36*
X105599744Y-71919918D02*
G01*
X105655201Y-71947568D01*
X105704148Y-71998480D01*
X105717629Y-72017338D01*
X105732314Y-72042015D01*
X105741842Y-72068816D01*
X105747293Y-72104587D01*
X105749747Y-72156169D01*
X105750286Y-72224267D01*
X105747852Y-72317588D01*
X105739394Y-72387657D01*
X105723174Y-72439931D01*
X105697454Y-72479869D01*
X105660497Y-72512929D01*
X105657782Y-72514886D01*
X105621360Y-72534908D01*
X105577502Y-72544815D01*
X105521724Y-72547257D01*
X105431048Y-72547257D01*
X105431010Y-72635283D01*
X105430166Y-72684308D01*
X105425024Y-72713065D01*
X105411587Y-72730311D01*
X105385858Y-72744808D01*
X105379679Y-72747769D01*
X105350764Y-72761648D01*
X105328376Y-72770414D01*
X105311729Y-72771171D01*
X105300036Y-72761023D01*
X105292510Y-72737073D01*
X105288366Y-72696426D01*
X105286815Y-72636186D01*
X105287071Y-72553455D01*
X105288349Y-72445339D01*
X105288748Y-72413000D01*
X105290185Y-72301524D01*
X105291472Y-72228603D01*
X105430971Y-72228603D01*
X105431755Y-72290499D01*
X105435240Y-72330997D01*
X105443124Y-72357708D01*
X105457105Y-72378244D01*
X105466597Y-72388260D01*
X105505404Y-72417567D01*
X105539763Y-72419952D01*
X105575216Y-72395750D01*
X105576114Y-72394857D01*
X105590539Y-72376153D01*
X105599313Y-72350732D01*
X105603739Y-72311584D01*
X105605118Y-72251697D01*
X105605143Y-72238430D01*
X105601812Y-72155901D01*
X105590969Y-72098691D01*
X105571340Y-72063766D01*
X105541650Y-72048094D01*
X105524491Y-72046514D01*
X105483766Y-72053926D01*
X105455832Y-72078330D01*
X105439017Y-72122980D01*
X105431650Y-72191130D01*
X105430971Y-72228603D01*
X105291472Y-72228603D01*
X105291708Y-72215245D01*
X105293677Y-72150333D01*
X105296450Y-72102958D01*
X105300388Y-72069290D01*
X105305849Y-72045498D01*
X105313192Y-72027753D01*
X105322777Y-72012224D01*
X105326887Y-72006381D01*
X105381405Y-71951185D01*
X105450336Y-71919890D01*
X105530072Y-71911165D01*
X105599744Y-71919918D01*
G37*
X110144876Y-71956335D02*
X110186667Y-71975344D01*
X110219469Y-71998378D01*
X110243503Y-72024133D01*
X110260097Y-72057358D01*
X110270577Y-72102800D01*
X110276271Y-72165207D01*
X110278507Y-72249327D01*
X110278743Y-72304721D01*
X110278743Y-72520826D01*
X110241774Y-72537670D01*
X110212656Y-72549981D01*
X110198231Y-72554514D01*
X110195472Y-72541025D01*
X110193282Y-72504653D01*
X110191942Y-72451542D01*
X110191657Y-72409372D01*
X110190434Y-72348447D01*
X110187136Y-72300115D01*
X110182321Y-72270518D01*
X110178496Y-72264229D01*
X110152783Y-72270652D01*
X110112418Y-72287125D01*
X110065679Y-72309458D01*
X110020845Y-72333457D01*
X109986193Y-72354930D01*
X109970002Y-72369685D01*
X109969938Y-72369845D01*
X109971330Y-72397152D01*
X109983818Y-72423219D01*
X110005743Y-72444392D01*
X110037743Y-72451474D01*
X110065092Y-72450649D01*
X110103826Y-72450042D01*
X110124158Y-72459116D01*
X110136369Y-72483092D01*
X110137909Y-72487613D01*
X110143203Y-72521806D01*
X110129047Y-72542568D01*
X110092148Y-72552462D01*
X110052289Y-72554292D01*
X109980562Y-72540727D01*
X109943432Y-72521355D01*
X109897576Y-72475845D01*
X109873256Y-72419983D01*
X109871073Y-72360957D01*
X109891629Y-72305953D01*
X109922549Y-72271486D01*
X109953420Y-72252189D01*
X110001942Y-72227759D01*
X110058485Y-72202985D01*
X110067910Y-72199199D01*
X110130019Y-72171791D01*
X110165822Y-72147634D01*
X110177337Y-72123619D01*
X110166580Y-72096635D01*
X110148114Y-72075543D01*
X110104469Y-72049572D01*
X110056446Y-72047624D01*
X110012406Y-72067637D01*
X109980709Y-72107551D01*
X109976549Y-72117848D01*
X109952327Y-72155724D01*
X109916965Y-72183842D01*
X109872343Y-72206917D01*
X109872343Y-72141485D01*
X109874969Y-72101506D01*
X109886230Y-72069997D01*
X109911199Y-72036378D01*
X109935169Y-72010484D01*
X109972441Y-71973817D01*
X110001401Y-71954121D01*
X110032505Y-71946220D01*
X110067713Y-71944914D01*
X110144876Y-71956335D01*
G36*
X110144876Y-71956335D02*
G01*
X110186667Y-71975344D01*
X110219469Y-71998378D01*
X110243503Y-72024133D01*
X110260097Y-72057358D01*
X110270577Y-72102800D01*
X110276271Y-72165207D01*
X110278507Y-72249327D01*
X110278743Y-72304721D01*
X110278743Y-72520826D01*
X110241774Y-72537670D01*
X110212656Y-72549981D01*
X110198231Y-72554514D01*
X110195472Y-72541025D01*
X110193282Y-72504653D01*
X110191942Y-72451542D01*
X110191657Y-72409372D01*
X110190434Y-72348447D01*
X110187136Y-72300115D01*
X110182321Y-72270518D01*
X110178496Y-72264229D01*
X110152783Y-72270652D01*
X110112418Y-72287125D01*
X110065679Y-72309458D01*
X110020845Y-72333457D01*
X109986193Y-72354930D01*
X109970002Y-72369685D01*
X109969938Y-72369845D01*
X109971330Y-72397152D01*
X109983818Y-72423219D01*
X110005743Y-72444392D01*
X110037743Y-72451474D01*
X110065092Y-72450649D01*
X110103826Y-72450042D01*
X110124158Y-72459116D01*
X110136369Y-72483092D01*
X110137909Y-72487613D01*
X110143203Y-72521806D01*
X110129047Y-72542568D01*
X110092148Y-72552462D01*
X110052289Y-72554292D01*
X109980562Y-72540727D01*
X109943432Y-72521355D01*
X109897576Y-72475845D01*
X109873256Y-72419983D01*
X109871073Y-72360957D01*
X109891629Y-72305953D01*
X109922549Y-72271486D01*
X109953420Y-72252189D01*
X110001942Y-72227759D01*
X110058485Y-72202985D01*
X110067910Y-72199199D01*
X110130019Y-72171791D01*
X110165822Y-72147634D01*
X110177337Y-72123619D01*
X110166580Y-72096635D01*
X110148114Y-72075543D01*
X110104469Y-72049572D01*
X110056446Y-72047624D01*
X110012406Y-72067637D01*
X109980709Y-72107551D01*
X109976549Y-72117848D01*
X109952327Y-72155724D01*
X109916965Y-72183842D01*
X109872343Y-72206917D01*
X109872343Y-72141485D01*
X109874969Y-72101506D01*
X109886230Y-72069997D01*
X109911199Y-72036378D01*
X109935169Y-72010484D01*
X109972441Y-71973817D01*
X110001401Y-71954121D01*
X110032505Y-71946220D01*
X110067713Y-71944914D01*
X110144876Y-71956335D01*
G37*
X108103910Y-67242348D02*
X108182454Y-67242778D01*
X108239298Y-67243942D01*
X108278105Y-67246207D01*
X108302538Y-67249940D01*
X108316262Y-67255506D01*
X108322940Y-67263273D01*
X108326236Y-67273605D01*
X108326556Y-67274943D01*
X108331562Y-67299079D01*
X108340829Y-67346701D01*
X108353392Y-67412741D01*
X108368287Y-67492128D01*
X108384551Y-67579796D01*
X108385119Y-67582875D01*
X108401410Y-67668789D01*
X108416652Y-67744696D01*
X108429861Y-67806045D01*
X108440054Y-67848282D01*
X108446248Y-67866855D01*
X108446543Y-67867184D01*
X108464788Y-67876253D01*
X108502405Y-67891367D01*
X108551271Y-67909262D01*
X108551543Y-67909358D01*
X108613093Y-67932493D01*
X108685657Y-67961965D01*
X108754057Y-67991597D01*
X108757294Y-67993062D01*
X108868702Y-68043626D01*
X109115399Y-67875160D01*
X109191077Y-67823803D01*
X109259631Y-67777889D01*
X109317088Y-67740030D01*
X109359476Y-67712837D01*
X109382825Y-67698921D01*
X109385042Y-67697889D01*
X109402010Y-67702484D01*
X109433701Y-67724655D01*
X109481352Y-67765447D01*
X109546198Y-67825905D01*
X109612397Y-67890227D01*
X109676214Y-67953612D01*
X109733329Y-68011451D01*
X109780305Y-68060175D01*
X109813703Y-68096210D01*
X109830085Y-68115984D01*
X109830694Y-68117002D01*
X109832505Y-68130572D01*
X109825683Y-68152733D01*
X109808540Y-68186478D01*
X109779393Y-68234800D01*
X109736555Y-68300692D01*
X109679448Y-68385517D01*
X109628766Y-68460177D01*
X109583461Y-68527140D01*
X109546150Y-68582516D01*
X109519452Y-68622420D01*
X109505985Y-68642962D01*
X109505137Y-68644356D01*
X109506781Y-68664038D01*
X109519245Y-68702293D01*
X109540048Y-68751889D01*
X109547462Y-68767728D01*
X109579814Y-68838290D01*
X109614328Y-68918353D01*
X109642365Y-68987629D01*
X109662568Y-69039045D01*
X109678615Y-69078119D01*
X109687888Y-69098541D01*
X109689041Y-69100114D01*
X109706096Y-69102721D01*
X109746298Y-69109863D01*
X109804302Y-69120523D01*
X109874763Y-69133685D01*
X109952335Y-69148333D01*
X110031672Y-69163449D01*
X110107431Y-69178018D01*
X110174264Y-69191022D01*
X110226828Y-69201445D01*
X110259776Y-69208270D01*
X110267857Y-69210199D01*
X110276205Y-69214962D01*
X110282506Y-69225718D01*
X110287045Y-69246098D01*
X110290104Y-69279734D01*
X110291967Y-69330255D01*
X110292918Y-69401292D01*
X110293240Y-69496476D01*
X110293257Y-69535492D01*
X110293257Y-69852799D01*
X110217057Y-69867839D01*
X110174663Y-69875995D01*
X110111400Y-69887899D01*
X110034962Y-69902116D01*
X109953043Y-69917210D01*
X109930400Y-69921355D01*
X109854806Y-69936053D01*
X109788953Y-69950505D01*
X109738366Y-69963375D01*
X109708574Y-69973322D01*
X109703612Y-69976287D01*
X109691426Y-69997283D01*
X109673953Y-70037967D01*
X109654577Y-70090322D01*
X109650734Y-70101600D01*
X109625339Y-70171523D01*
X109593817Y-70250418D01*
X109562969Y-70321266D01*
X109562817Y-70321595D01*
X109511447Y-70432733D01*
X109680399Y-70681253D01*
X109849352Y-70929772D01*
X109632429Y-71147058D01*
X109566819Y-71211726D01*
X109506979Y-71268733D01*
X109456267Y-71315033D01*
X109418046Y-71347584D01*
X109395675Y-71363343D01*
X109392466Y-71364343D01*
X109373626Y-71356469D01*
X109335180Y-71334578D01*
X109281330Y-71301267D01*
X109216276Y-71259131D01*
X109145940Y-71211943D01*
X109074555Y-71163810D01*
X109010908Y-71121928D01*
X108959041Y-71088871D01*
X108922995Y-71067218D01*
X108906867Y-71059543D01*
X108887189Y-71066037D01*
X108849875Y-71083150D01*
X108802621Y-71107326D01*
X108797612Y-71110013D01*
X108733977Y-71141927D01*
X108690341Y-71157579D01*
X108663202Y-71157745D01*
X108649057Y-71143204D01*
X108648975Y-71143000D01*
X108641905Y-71125779D01*
X108625042Y-71084899D01*
X108599695Y-71023525D01*
X108567171Y-70944819D01*
X108528778Y-70851947D01*
X108485822Y-70748072D01*
X108444222Y-70647502D01*
X108398504Y-70536516D01*
X108356526Y-70433703D01*
X108319548Y-70342215D01*
X108288827Y-70265201D01*
X108265622Y-70205815D01*
X108251190Y-70167209D01*
X108246743Y-70152800D01*
X108257896Y-70136272D01*
X108287069Y-70109930D01*
X108325971Y-70080887D01*
X108436757Y-69989039D01*
X108523351Y-69883759D01*
X108584716Y-69767266D01*
X108619815Y-69641776D01*
X108627608Y-69509507D01*
X108621943Y-69448457D01*
X108591078Y-69321795D01*
X108537920Y-69209941D01*
X108465767Y-69114001D01*
X108377917Y-69035076D01*
X108277665Y-68974270D01*
X108168310Y-68932687D01*
X108053147Y-68911428D01*
X107935475Y-68911599D01*
X107818590Y-68934301D01*
X107705789Y-68980638D01*
X107600369Y-69051713D01*
X107556368Y-69091911D01*
X107471979Y-69195129D01*
X107413222Y-69307925D01*
X107379704Y-69427010D01*
X107371035Y-69549095D01*
X107386823Y-69670893D01*
X107426678Y-69789116D01*
X107490207Y-69900475D01*
X107577021Y-70001684D01*
X107674029Y-70080887D01*
X107714437Y-70111162D01*
X107742982Y-70137219D01*
X107753257Y-70152825D01*
X107747877Y-70169843D01*
X107732575Y-70210500D01*
X107708612Y-70271642D01*
X107677244Y-70350119D01*
X107639732Y-70442780D01*
X107597333Y-70546472D01*
X107555663Y-70647526D01*
X107509690Y-70758607D01*
X107467107Y-70861541D01*
X107429221Y-70953165D01*
X107397340Y-71030316D01*
X107372771Y-71089831D01*
X107356820Y-71128544D01*
X107350910Y-71143000D01*
X107336948Y-71157685D01*
X107309940Y-71157642D01*
X107266413Y-71142099D01*
X107202890Y-71110284D01*
X107202388Y-71110013D01*
X107154560Y-71085323D01*
X107115897Y-71067338D01*
X107094095Y-71059614D01*
X107093133Y-71059543D01*
X107076721Y-71067378D01*
X107040487Y-71089165D01*
X106988474Y-71122328D01*
X106924725Y-71164291D01*
X106854060Y-71211943D01*
X106782116Y-71260191D01*
X106717274Y-71302151D01*
X106663735Y-71335227D01*
X106625697Y-71356821D01*
X106607533Y-71364343D01*
X106590808Y-71354457D01*
X106557180Y-71326826D01*
X106510010Y-71284495D01*
X106452658Y-71230505D01*
X106388484Y-71167899D01*
X106367497Y-71146983D01*
X106150499Y-70929623D01*
X106315668Y-70687220D01*
X106365864Y-70612781D01*
X106409919Y-70545972D01*
X106445362Y-70490665D01*
X106469719Y-70450729D01*
X106480522Y-70430036D01*
X106480838Y-70428563D01*
X106475143Y-70409058D01*
X106459826Y-70369822D01*
X106437537Y-70317430D01*
X106421893Y-70282355D01*
X106392641Y-70215201D01*
X106365094Y-70147358D01*
X106343737Y-70090034D01*
X106337935Y-70072572D01*
X106321452Y-70025938D01*
X106305340Y-69989905D01*
X106296490Y-69976287D01*
X106276960Y-69967952D01*
X106234334Y-69956137D01*
X106174145Y-69942181D01*
X106101922Y-69927422D01*
X106069600Y-69921355D01*
X105987522Y-69906273D01*
X105908795Y-69891669D01*
X105841109Y-69878980D01*
X105792160Y-69869642D01*
X105782943Y-69867839D01*
X105706743Y-69852799D01*
X105706743Y-69535492D01*
X105706914Y-69431154D01*
X105707616Y-69352213D01*
X105709134Y-69295038D01*
X105711749Y-69255999D01*
X105715746Y-69231465D01*
X105721409Y-69217805D01*
X105729020Y-69211389D01*
X105732143Y-69210199D01*
X105750978Y-69205980D01*
X105792588Y-69197562D01*
X105851630Y-69185961D01*
X105922757Y-69172195D01*
X106000625Y-69157280D01*
X106079887Y-69142232D01*
X106155198Y-69128069D01*
X106221213Y-69115806D01*
X106272587Y-69106461D01*
X106303975Y-69101050D01*
X106310959Y-69100114D01*
X106317285Y-69087596D01*
X106331290Y-69054246D01*
X106350355Y-69006377D01*
X106357634Y-68987629D01*
X106386996Y-68915195D01*
X106421571Y-68835170D01*
X106452537Y-68767728D01*
X106475323Y-68716159D01*
X106490482Y-68673785D01*
X106495542Y-68647834D01*
X106494736Y-68644356D01*
X106484041Y-68627936D01*
X106459620Y-68591417D01*
X106424095Y-68538687D01*
X106380087Y-68473635D01*
X106330217Y-68400151D01*
X106320356Y-68385645D01*
X106262492Y-68299704D01*
X106219956Y-68234261D01*
X106191054Y-68186304D01*
X106174090Y-68152820D01*
X106167367Y-68130795D01*
X106169190Y-68117217D01*
X106169236Y-68117131D01*
X106183586Y-68099297D01*
X106215323Y-68064817D01*
X106261010Y-68017268D01*
X106317204Y-67960222D01*
X106380468Y-67897255D01*
X106387602Y-67890227D01*
X106467330Y-67813020D01*
X106528857Y-67756330D01*
X106573421Y-67719110D01*
X106602257Y-67700315D01*
X106614958Y-67697889D01*
X106633494Y-67708471D01*
X106671961Y-67732916D01*
X106726386Y-67768612D01*
X106792798Y-67812947D01*
X106867225Y-67863311D01*
X106884601Y-67875160D01*
X107131297Y-68043626D01*
X107242706Y-67993062D01*
X107310457Y-67963595D01*
X107383183Y-67933959D01*
X107445703Y-67910330D01*
X107448457Y-67909358D01*
X107497360Y-67891457D01*
X107535057Y-67876320D01*
X107553425Y-67867210D01*
X107553456Y-67867184D01*
X107559285Y-67850717D01*
X107569192Y-67810219D01*
X107582195Y-67750242D01*
X107597309Y-67675340D01*
X107613552Y-67590064D01*
X107614881Y-67582875D01*
X107631175Y-67495014D01*
X107646133Y-67415260D01*
X107658791Y-67348681D01*
X107668186Y-67300347D01*
X107673354Y-67275325D01*
X107673444Y-67274943D01*
X107676589Y-67264299D01*
X107682704Y-67256262D01*
X107695453Y-67250467D01*
X107718500Y-67246547D01*
X107755509Y-67244135D01*
X107810144Y-67242865D01*
X107886067Y-67242371D01*
X107986944Y-67242286D01*
X108000000Y-67242286D01*
X108103910Y-67242348D01*
G36*
X108103910Y-67242348D02*
G01*
X108182454Y-67242778D01*
X108239298Y-67243942D01*
X108278105Y-67246207D01*
X108302538Y-67249940D01*
X108316262Y-67255506D01*
X108322940Y-67263273D01*
X108326236Y-67273605D01*
X108326556Y-67274943D01*
X108331562Y-67299079D01*
X108340829Y-67346701D01*
X108353392Y-67412741D01*
X108368287Y-67492128D01*
X108384551Y-67579796D01*
X108385119Y-67582875D01*
X108401410Y-67668789D01*
X108416652Y-67744696D01*
X108429861Y-67806045D01*
X108440054Y-67848282D01*
X108446248Y-67866855D01*
X108446543Y-67867184D01*
X108464788Y-67876253D01*
X108502405Y-67891367D01*
X108551271Y-67909262D01*
X108551543Y-67909358D01*
X108613093Y-67932493D01*
X108685657Y-67961965D01*
X108754057Y-67991597D01*
X108757294Y-67993062D01*
X108868702Y-68043626D01*
X109115399Y-67875160D01*
X109191077Y-67823803D01*
X109259631Y-67777889D01*
X109317088Y-67740030D01*
X109359476Y-67712837D01*
X109382825Y-67698921D01*
X109385042Y-67697889D01*
X109402010Y-67702484D01*
X109433701Y-67724655D01*
X109481352Y-67765447D01*
X109546198Y-67825905D01*
X109612397Y-67890227D01*
X109676214Y-67953612D01*
X109733329Y-68011451D01*
X109780305Y-68060175D01*
X109813703Y-68096210D01*
X109830085Y-68115984D01*
X109830694Y-68117002D01*
X109832505Y-68130572D01*
X109825683Y-68152733D01*
X109808540Y-68186478D01*
X109779393Y-68234800D01*
X109736555Y-68300692D01*
X109679448Y-68385517D01*
X109628766Y-68460177D01*
X109583461Y-68527140D01*
X109546150Y-68582516D01*
X109519452Y-68622420D01*
X109505985Y-68642962D01*
X109505137Y-68644356D01*
X109506781Y-68664038D01*
X109519245Y-68702293D01*
X109540048Y-68751889D01*
X109547462Y-68767728D01*
X109579814Y-68838290D01*
X109614328Y-68918353D01*
X109642365Y-68987629D01*
X109662568Y-69039045D01*
X109678615Y-69078119D01*
X109687888Y-69098541D01*
X109689041Y-69100114D01*
X109706096Y-69102721D01*
X109746298Y-69109863D01*
X109804302Y-69120523D01*
X109874763Y-69133685D01*
X109952335Y-69148333D01*
X110031672Y-69163449D01*
X110107431Y-69178018D01*
X110174264Y-69191022D01*
X110226828Y-69201445D01*
X110259776Y-69208270D01*
X110267857Y-69210199D01*
X110276205Y-69214962D01*
X110282506Y-69225718D01*
X110287045Y-69246098D01*
X110290104Y-69279734D01*
X110291967Y-69330255D01*
X110292918Y-69401292D01*
X110293240Y-69496476D01*
X110293257Y-69535492D01*
X110293257Y-69852799D01*
X110217057Y-69867839D01*
X110174663Y-69875995D01*
X110111400Y-69887899D01*
X110034962Y-69902116D01*
X109953043Y-69917210D01*
X109930400Y-69921355D01*
X109854806Y-69936053D01*
X109788953Y-69950505D01*
X109738366Y-69963375D01*
X109708574Y-69973322D01*
X109703612Y-69976287D01*
X109691426Y-69997283D01*
X109673953Y-70037967D01*
X109654577Y-70090322D01*
X109650734Y-70101600D01*
X109625339Y-70171523D01*
X109593817Y-70250418D01*
X109562969Y-70321266D01*
X109562817Y-70321595D01*
X109511447Y-70432733D01*
X109680399Y-70681253D01*
X109849352Y-70929772D01*
X109632429Y-71147058D01*
X109566819Y-71211726D01*
X109506979Y-71268733D01*
X109456267Y-71315033D01*
X109418046Y-71347584D01*
X109395675Y-71363343D01*
X109392466Y-71364343D01*
X109373626Y-71356469D01*
X109335180Y-71334578D01*
X109281330Y-71301267D01*
X109216276Y-71259131D01*
X109145940Y-71211943D01*
X109074555Y-71163810D01*
X109010908Y-71121928D01*
X108959041Y-71088871D01*
X108922995Y-71067218D01*
X108906867Y-71059543D01*
X108887189Y-71066037D01*
X108849875Y-71083150D01*
X108802621Y-71107326D01*
X108797612Y-71110013D01*
X108733977Y-71141927D01*
X108690341Y-71157579D01*
X108663202Y-71157745D01*
X108649057Y-71143204D01*
X108648975Y-71143000D01*
X108641905Y-71125779D01*
X108625042Y-71084899D01*
X108599695Y-71023525D01*
X108567171Y-70944819D01*
X108528778Y-70851947D01*
X108485822Y-70748072D01*
X108444222Y-70647502D01*
X108398504Y-70536516D01*
X108356526Y-70433703D01*
X108319548Y-70342215D01*
X108288827Y-70265201D01*
X108265622Y-70205815D01*
X108251190Y-70167209D01*
X108246743Y-70152800D01*
X108257896Y-70136272D01*
X108287069Y-70109930D01*
X108325971Y-70080887D01*
X108436757Y-69989039D01*
X108523351Y-69883759D01*
X108584716Y-69767266D01*
X108619815Y-69641776D01*
X108627608Y-69509507D01*
X108621943Y-69448457D01*
X108591078Y-69321795D01*
X108537920Y-69209941D01*
X108465767Y-69114001D01*
X108377917Y-69035076D01*
X108277665Y-68974270D01*
X108168310Y-68932687D01*
X108053147Y-68911428D01*
X107935475Y-68911599D01*
X107818590Y-68934301D01*
X107705789Y-68980638D01*
X107600369Y-69051713D01*
X107556368Y-69091911D01*
X107471979Y-69195129D01*
X107413222Y-69307925D01*
X107379704Y-69427010D01*
X107371035Y-69549095D01*
X107386823Y-69670893D01*
X107426678Y-69789116D01*
X107490207Y-69900475D01*
X107577021Y-70001684D01*
X107674029Y-70080887D01*
X107714437Y-70111162D01*
X107742982Y-70137219D01*
X107753257Y-70152825D01*
X107747877Y-70169843D01*
X107732575Y-70210500D01*
X107708612Y-70271642D01*
X107677244Y-70350119D01*
X107639732Y-70442780D01*
X107597333Y-70546472D01*
X107555663Y-70647526D01*
X107509690Y-70758607D01*
X107467107Y-70861541D01*
X107429221Y-70953165D01*
X107397340Y-71030316D01*
X107372771Y-71089831D01*
X107356820Y-71128544D01*
X107350910Y-71143000D01*
X107336948Y-71157685D01*
X107309940Y-71157642D01*
X107266413Y-71142099D01*
X107202890Y-71110284D01*
X107202388Y-71110013D01*
X107154560Y-71085323D01*
X107115897Y-71067338D01*
X107094095Y-71059614D01*
X107093133Y-71059543D01*
X107076721Y-71067378D01*
X107040487Y-71089165D01*
X106988474Y-71122328D01*
X106924725Y-71164291D01*
X106854060Y-71211943D01*
X106782116Y-71260191D01*
X106717274Y-71302151D01*
X106663735Y-71335227D01*
X106625697Y-71356821D01*
X106607533Y-71364343D01*
X106590808Y-71354457D01*
X106557180Y-71326826D01*
X106510010Y-71284495D01*
X106452658Y-71230505D01*
X106388484Y-71167899D01*
X106367497Y-71146983D01*
X106150499Y-70929623D01*
X106315668Y-70687220D01*
X106365864Y-70612781D01*
X106409919Y-70545972D01*
X106445362Y-70490665D01*
X106469719Y-70450729D01*
X106480522Y-70430036D01*
X106480838Y-70428563D01*
X106475143Y-70409058D01*
X106459826Y-70369822D01*
X106437537Y-70317430D01*
X106421893Y-70282355D01*
X106392641Y-70215201D01*
X106365094Y-70147358D01*
X106343737Y-70090034D01*
X106337935Y-70072572D01*
X106321452Y-70025938D01*
X106305340Y-69989905D01*
X106296490Y-69976287D01*
X106276960Y-69967952D01*
X106234334Y-69956137D01*
X106174145Y-69942181D01*
X106101922Y-69927422D01*
X106069600Y-69921355D01*
X105987522Y-69906273D01*
X105908795Y-69891669D01*
X105841109Y-69878980D01*
X105792160Y-69869642D01*
X105782943Y-69867839D01*
X105706743Y-69852799D01*
X105706743Y-69535492D01*
X105706914Y-69431154D01*
X105707616Y-69352213D01*
X105709134Y-69295038D01*
X105711749Y-69255999D01*
X105715746Y-69231465D01*
X105721409Y-69217805D01*
X105729020Y-69211389D01*
X105732143Y-69210199D01*
X105750978Y-69205980D01*
X105792588Y-69197562D01*
X105851630Y-69185961D01*
X105922757Y-69172195D01*
X106000625Y-69157280D01*
X106079887Y-69142232D01*
X106155198Y-69128069D01*
X106221213Y-69115806D01*
X106272587Y-69106461D01*
X106303975Y-69101050D01*
X106310959Y-69100114D01*
X106317285Y-69087596D01*
X106331290Y-69054246D01*
X106350355Y-69006377D01*
X106357634Y-68987629D01*
X106386996Y-68915195D01*
X106421571Y-68835170D01*
X106452537Y-68767728D01*
X106475323Y-68716159D01*
X106490482Y-68673785D01*
X106495542Y-68647834D01*
X106494736Y-68644356D01*
X106484041Y-68627936D01*
X106459620Y-68591417D01*
X106424095Y-68538687D01*
X106380087Y-68473635D01*
X106330217Y-68400151D01*
X106320356Y-68385645D01*
X106262492Y-68299704D01*
X106219956Y-68234261D01*
X106191054Y-68186304D01*
X106174090Y-68152820D01*
X106167367Y-68130795D01*
X106169190Y-68117217D01*
X106169236Y-68117131D01*
X106183586Y-68099297D01*
X106215323Y-68064817D01*
X106261010Y-68017268D01*
X106317204Y-67960222D01*
X106380468Y-67897255D01*
X106387602Y-67890227D01*
X106467330Y-67813020D01*
X106528857Y-67756330D01*
X106573421Y-67719110D01*
X106602257Y-67700315D01*
X106614958Y-67697889D01*
X106633494Y-67708471D01*
X106671961Y-67732916D01*
X106726386Y-67768612D01*
X106792798Y-67812947D01*
X106867225Y-67863311D01*
X106884601Y-67875160D01*
X107131297Y-68043626D01*
X107242706Y-67993062D01*
X107310457Y-67963595D01*
X107383183Y-67933959D01*
X107445703Y-67910330D01*
X107448457Y-67909358D01*
X107497360Y-67891457D01*
X107535057Y-67876320D01*
X107553425Y-67867210D01*
X107553456Y-67867184D01*
X107559285Y-67850717D01*
X107569192Y-67810219D01*
X107582195Y-67750242D01*
X107597309Y-67675340D01*
X107613552Y-67590064D01*
X107614881Y-67582875D01*
X107631175Y-67495014D01*
X107646133Y-67415260D01*
X107658791Y-67348681D01*
X107668186Y-67300347D01*
X107673354Y-67275325D01*
X107673444Y-67274943D01*
X107676589Y-67264299D01*
X107682704Y-67256262D01*
X107695453Y-67250467D01*
X107718500Y-67246547D01*
X107755509Y-67244135D01*
X107810144Y-67242865D01*
X107886067Y-67242371D01*
X107986944Y-67242286D01*
X108000000Y-67242286D01*
X108103910Y-67242348D01*
G37*
%TO.C,esp1*%
D13*
X62100000Y-36275000D02*
X62100000Y-82055000D01*
X62100000Y-36275000D02*
X64760000Y-36275000D01*
X62100000Y-82055000D02*
X64760000Y-82055000D01*
X63430000Y-33675000D02*
X64760000Y-33675000D01*
X64760000Y-33675000D02*
X64760000Y-35005000D01*
X64760000Y-36275000D02*
X64760000Y-82055000D01*
%TO.C,R1*%
X98567064Y-32275000D02*
X98112936Y-32275000D01*
X98567064Y-33745000D02*
X98112936Y-33745000D01*
%TD*%
M02*
