%TF.GenerationSoftware,KiCad,Pcbnew,10.0.0*%
%TF.CreationDate,2026-04-19T14:02:47-03:00*%
%TF.ProjectId,Onboard_Comp,4f6e626f-6172-4645-9f43-6f6d702e6b69,rev?*%
%TF.SameCoordinates,Original*%
%TF.FileFunction,Soldermask,Top*%
%TF.FilePolarity,Negative*%
%FSLAX46Y46*%
G04 Gerber Fmt 4.6, Leading zero omitted, Abs format (unit mm)*
G04 Created by KiCad (PCBNEW 10.0.0) date 2026-04-19 14:02:47*
%MOMM*%
%LPD*%
G01*
G04 APERTURE LIST*
G04 Aperture macros list*
%AMRoundRect*
0 Rectangle with rounded corners*
0 $1 Rounding radius*
0 $2 $3 $4 $5 $6 $7 $8 $9 X,Y pos of 4 corners*
0 Add a 4 corners polygon primitive as box body*
4,1,4,$2,$3,$4,$5,$6,$7,$8,$9,$2,$3,0*
0 Add four circle primitives for the rounded corners*
1,1,$1+$1,$2,$3*
1,1,$1+$1,$4,$5*
1,1,$1+$1,$6,$7*
1,1,$1+$1,$8,$9*
0 Add four rect primitives between the rounded corners*
20,1,$1+$1,$2,$3,$4,$5,0*
20,1,$1+$1,$4,$5,$6,$7,0*
20,1,$1+$1,$6,$7,$8,$9,0*
20,1,$1+$1,$8,$9,$2,$3,0*%
G04 Aperture macros list end*
%ADD10R,1.900000X1.900000*%
%ADD11O,1.900000X1.900000*%
%ADD12C,4.300000*%
%ADD13R,1.000000X2.200000*%
%ADD14O,1.000000X2.200000*%
%ADD15R,1.900000X3.000000*%
%ADD16O,1.900000X3.000000*%
%ADD17O,3.500000X2.200000*%
%ADD18R,2.500000X1.500000*%
%ADD19O,2.500000X1.500000*%
%ADD20C,3.200000*%
%ADD21RoundRect,0.250000X0.450000X-0.325000X0.450000X0.325000X-0.450000X0.325000X-0.450000X-0.325000X0*%
%ADD22R,2.000000X2.000000*%
%ADD23C,2.000000*%
%ADD24R,3.000000X1.000000*%
%ADD25O,3.000000X1.000000*%
%ADD26RoundRect,0.250000X-0.475000X0.250000X-0.475000X-0.250000X0.475000X-0.250000X0.475000X0.250000X0*%
%ADD27RoundRect,0.250000X-0.550000X1.250000X-0.550000X-1.250000X0.550000X-1.250000X0.550000X1.250000X0*%
%ADD28RoundRect,0.250000X0.350000X0.450000X-0.350000X0.450000X-0.350000X-0.450000X0.350000X-0.450000X0*%
%ADD29R,1.700000X1.700000*%
%ADD30O,1.700000X1.700000*%
%ADD31R,3.000000X3.000000*%
%ADD32C,3.000000*%
%ADD33RoundRect,0.150000X0.650000X0.150000X-0.650000X0.150000X-0.650000X-0.150000X0.650000X-0.150000X0*%
%ADD34RoundRect,0.250000X-0.250000X-0.475000X0.250000X-0.475000X0.250000X0.475000X-0.250000X0.475000X0*%
%ADD35RoundRect,0.250000X0.262500X0.450000X-0.262500X0.450000X-0.262500X-0.450000X0.262500X-0.450000X0*%
G04 APERTURE END LIST*
D10*
%TO.C,J13*%
X98280000Y-28350000D03*
D11*
X95740000Y-28350000D03*
X93200000Y-28350000D03*
X90660000Y-28350000D03*
X88120000Y-28350000D03*
X85580000Y-28350000D03*
X83040000Y-28350000D03*
X80500000Y-28350000D03*
%TD*%
D12*
%TO.C,REF\u002A\u002A*%
X112170000Y-55710000D03*
%TD*%
D13*
%TO.C,J8*%
X94080000Y-62250000D03*
D14*
X95350000Y-62250000D03*
%TD*%
D10*
%TO.C,J18*%
X58000000Y-75500000D03*
D11*
X58000000Y-78040000D03*
%TD*%
D15*
%TO.C,J1*%
X101080000Y-43350000D03*
D16*
X98540000Y-43350000D03*
%TD*%
D10*
%TO.C,J17*%
X64230000Y-28300000D03*
D11*
X66770000Y-28300000D03*
X69310000Y-28300000D03*
X71850000Y-28300000D03*
X74390000Y-28300000D03*
X76930000Y-28300000D03*
%TD*%
D17*
%TO.C,SW1*%
X56500000Y-71700000D03*
X56500000Y-63500000D03*
D18*
X56500000Y-69600000D03*
D19*
X56500000Y-67600000D03*
X56500000Y-65600000D03*
%TD*%
D20*
%TO.C,REF\u002A\u002A*%
X72500000Y-39150000D03*
%TD*%
D21*
%TO.C,D1*%
X97310000Y-38485000D03*
X97310000Y-36435000D03*
%TD*%
D20*
%TO.C,REF\u002A\u002A*%
X81800000Y-34990000D03*
%TD*%
D22*
%TO.C,BZ1*%
X96429216Y-77400000D03*
D23*
X101429216Y-77400000D03*
%TD*%
D24*
%TO.C,J12*%
X92330000Y-46500000D03*
D25*
X92330000Y-47770000D03*
X92330000Y-49040000D03*
X92330000Y-50310000D03*
X92330000Y-51580000D03*
X92330000Y-52850000D03*
X92330000Y-54120000D03*
X92330000Y-55390000D03*
X92330000Y-56660000D03*
X92330000Y-57930000D03*
X92330000Y-59200000D03*
X92330000Y-60470000D03*
%TD*%
D26*
%TO.C,C1*%
X100500000Y-36400000D03*
X100500000Y-38300000D03*
%TD*%
D10*
%TO.C,esp32_1*%
X86330000Y-35000000D03*
D11*
X86330000Y-37540000D03*
X86330000Y-40080000D03*
X86330000Y-42620000D03*
X86330000Y-45160000D03*
X86330000Y-47700000D03*
X86330000Y-50240000D03*
X86330000Y-52780000D03*
X86330000Y-55320000D03*
X86330000Y-57860000D03*
X86330000Y-60400000D03*
X86330000Y-62940000D03*
X86330000Y-65480000D03*
X86330000Y-68020000D03*
X86330000Y-70560000D03*
X86330000Y-73100000D03*
X86330000Y-75640000D03*
X86330000Y-78180000D03*
X86330000Y-80720000D03*
%TD*%
D20*
%TO.C,REF\u002A\u002A*%
X98200000Y-65190000D03*
%TD*%
D12*
%TO.C,REF\u002A\u002A*%
X50320000Y-55680000D03*
%TD*%
D27*
%TO.C,C2*%
X106000000Y-36425000D03*
X106000000Y-40825000D03*
%TD*%
D24*
%TO.C,J4*%
X108830000Y-46500000D03*
D25*
X108830000Y-47770000D03*
%TD*%
D20*
%TO.C,REF\u002A\u002A*%
X93300000Y-39140000D03*
%TD*%
D28*
%TO.C,R2*%
X102800000Y-69900000D03*
X100800000Y-69900000D03*
%TD*%
D20*
%TO.C,REF\u002A\u002A*%
X72500000Y-70540000D03*
%TD*%
D29*
%TO.C,J21*%
X51390000Y-66030000D03*
D30*
X51390000Y-63490000D03*
%TD*%
D31*
%TO.C,J15*%
X56000000Y-46330000D03*
D32*
X56000000Y-41250000D03*
%TD*%
D15*
%TO.C,J7*%
X91725000Y-66000000D03*
D16*
X94265000Y-66000000D03*
%TD*%
D20*
%TO.C,REF\u002A\u002A*%
X93200000Y-70540000D03*
%TD*%
D33*
%TO.C,U1*%
X78985000Y-84270000D03*
X78985000Y-83000000D03*
X78985000Y-81730000D03*
X78985000Y-80460000D03*
X71785000Y-80460000D03*
X71785000Y-81730000D03*
X71785000Y-83000000D03*
X71785000Y-84270000D03*
%TD*%
D10*
%TO.C,J19*%
X90400000Y-80700000D03*
D11*
X90400000Y-78160000D03*
X90400000Y-75620000D03*
%TD*%
D34*
%TO.C,C3*%
X74385000Y-76315000D03*
X76285000Y-76315000D03*
%TD*%
D10*
%TO.C,esp1*%
X63430000Y-35005000D03*
D11*
X63430000Y-37545000D03*
X63430000Y-40085000D03*
X63430000Y-42625000D03*
X63430000Y-45165000D03*
X63430000Y-47705000D03*
X63430000Y-50245000D03*
X63430000Y-52785000D03*
X63430000Y-55325000D03*
X63430000Y-57865000D03*
X63430000Y-60405000D03*
X63430000Y-62945000D03*
X63430000Y-65485000D03*
X63430000Y-68025000D03*
X63430000Y-70565000D03*
X63430000Y-73105000D03*
X63430000Y-75645000D03*
X63430000Y-78185000D03*
X63430000Y-80725000D03*
%TD*%
D35*
%TO.C,R1*%
X99252500Y-33010000D03*
X97427500Y-33010000D03*
%TD*%
D10*
%TO.C,J16*%
X67525000Y-80750000D03*
D11*
X67525000Y-83290000D03*
%TD*%
D10*
%TO.C,J14*%
X57620000Y-52070000D03*
D11*
X57620000Y-54610000D03*
X57620000Y-57150000D03*
X57620000Y-59690000D03*
%TD*%
M02*
