%TF.GenerationSoftware,KiCad,Pcbnew,10.0.0*%
%TF.CreationDate,2026-04-19T14:04:46-03:00*%
%TF.ProjectId,Onboard_Comp,4f6e626f-6172-4645-9f43-6f6d702e6b69,rev?*%
%TF.SameCoordinates,Original*%
%TF.FileFunction,Drillmap*%
%TF.FilePolarity,Positive*%
%FSLAX45Y45*%
G04 Gerber Fmt 4.5, Leading zero omitted, Abs format (unit mm)*
G04 Created by KiCad (PCBNEW 10.0.0) date 2026-04-19 14:04:46*
%MOMM*%
%LPD*%
G01*
G04 APERTURE LIST*
%ADD10C,0.050000*%
%ADD11C,0.200000*%
%ADD12C,0.100000*%
%ADD13C,0.150000*%
%ADD14C,0.152000*%
%ADD15C,0.325000*%
%ADD16C,0.425000*%
G04 APERTURE END LIST*
D10*
X11601349Y-5567500D02*
G75*
G02*
X4648651Y-5567500I-3476349J0D01*
G01*
X4648651Y-5567500D02*
G75*
G02*
X11601349Y-5567500I3476349J0D01*
G01*
D11*
D12*
X8172000Y-8677000D02*
X8212000Y-8717000D01*
X8212000Y-8677000D02*
X8172000Y-8717000D01*
X8890000Y-5392000D02*
X8930000Y-5432000D01*
X8930000Y-5392000D02*
X8890000Y-5432000D01*
X8913000Y-3855000D02*
X8953000Y-3895000D01*
X8953000Y-3855000D02*
X8913000Y-3895000D01*
X5690000Y-6560000D02*
G75*
G02*
X5610000Y-6560000I-40000J0D01*
G01*
X5610000Y-6560000D02*
G75*
G02*
X5690000Y-6560000I40000J0D01*
G01*
X5690000Y-6760000D02*
G75*
G02*
X5610000Y-6760000I-40000J0D01*
G01*
X5610000Y-6760000D02*
G75*
G02*
X5690000Y-6760000I40000J0D01*
G01*
X5690000Y-6960000D02*
G75*
G02*
X5610000Y-6960000I-40000J0D01*
G01*
X5610000Y-6960000D02*
G75*
G02*
X5690000Y-6960000I40000J0D01*
G01*
X5139000Y-6299000D02*
X5139000Y-6399000D01*
X5089000Y-6349000D02*
X5189000Y-6349000D01*
X5139000Y-6553000D02*
X5139000Y-6653000D01*
X5089000Y-6603000D02*
X5189000Y-6603000D01*
X5762000Y-5157000D02*
X5762000Y-5257000D01*
X5712000Y-5207000D02*
X5812000Y-5207000D01*
X5762000Y-5411000D02*
X5762000Y-5511000D01*
X5712000Y-5461000D02*
X5812000Y-5461000D01*
X5762000Y-5665000D02*
X5762000Y-5765000D01*
X5712000Y-5715000D02*
X5812000Y-5715000D01*
X5762000Y-5919000D02*
X5762000Y-6019000D01*
X5712000Y-5969000D02*
X5812000Y-5969000D01*
X5800000Y-7500000D02*
X5800000Y-7600000D01*
X5750000Y-7550000D02*
X5850000Y-7550000D01*
X5800000Y-7754000D02*
X5800000Y-7854000D01*
X5750000Y-7804000D02*
X5850000Y-7804000D01*
X6343000Y-3450500D02*
X6343000Y-3550500D01*
X6293000Y-3500500D02*
X6393000Y-3500500D01*
X6343000Y-3704500D02*
X6343000Y-3804500D01*
X6293000Y-3754500D02*
X6393000Y-3754500D01*
X6343000Y-3958500D02*
X6343000Y-4058500D01*
X6293000Y-4008500D02*
X6393000Y-4008500D01*
X6343000Y-4212500D02*
X6343000Y-4312500D01*
X6293000Y-4262500D02*
X6393000Y-4262500D01*
X6343000Y-4466500D02*
X6343000Y-4566500D01*
X6293000Y-4516500D02*
X6393000Y-4516500D01*
X6343000Y-4720500D02*
X6343000Y-4820500D01*
X6293000Y-4770500D02*
X6393000Y-4770500D01*
X6343000Y-4974500D02*
X6343000Y-5074500D01*
X6293000Y-5024500D02*
X6393000Y-5024500D01*
X6343000Y-5228500D02*
X6343000Y-5328500D01*
X6293000Y-5278500D02*
X6393000Y-5278500D01*
X6343000Y-5482500D02*
X6343000Y-5582500D01*
X6293000Y-5532500D02*
X6393000Y-5532500D01*
X6343000Y-5736500D02*
X6343000Y-5836500D01*
X6293000Y-5786500D02*
X6393000Y-5786500D01*
X6343000Y-5990500D02*
X6343000Y-6090500D01*
X6293000Y-6040500D02*
X6393000Y-6040500D01*
X6343000Y-6244500D02*
X6343000Y-6344500D01*
X6293000Y-6294500D02*
X6393000Y-6294500D01*
X6343000Y-6498500D02*
X6343000Y-6598500D01*
X6293000Y-6548500D02*
X6393000Y-6548500D01*
X6343000Y-6752500D02*
X6343000Y-6852500D01*
X6293000Y-6802500D02*
X6393000Y-6802500D01*
X6343000Y-7006500D02*
X6343000Y-7106500D01*
X6293000Y-7056500D02*
X6393000Y-7056500D01*
X6343000Y-7260500D02*
X6343000Y-7360500D01*
X6293000Y-7310500D02*
X6393000Y-7310500D01*
X6343000Y-7514500D02*
X6343000Y-7614500D01*
X6293000Y-7564500D02*
X6393000Y-7564500D01*
X6343000Y-7768500D02*
X6343000Y-7868500D01*
X6293000Y-7818500D02*
X6393000Y-7818500D01*
X6343000Y-8022500D02*
X6343000Y-8122500D01*
X6293000Y-8072500D02*
X6393000Y-8072500D01*
X6423000Y-2780000D02*
X6423000Y-2880000D01*
X6373000Y-2830000D02*
X6473000Y-2830000D01*
X6677000Y-2780000D02*
X6677000Y-2880000D01*
X6627000Y-2830000D02*
X6727000Y-2830000D01*
X6752500Y-8025000D02*
X6752500Y-8125000D01*
X6702500Y-8075000D02*
X6802500Y-8075000D01*
X6752500Y-8279000D02*
X6752500Y-8379000D01*
X6702500Y-8329000D02*
X6802500Y-8329000D01*
X6931000Y-2780000D02*
X6931000Y-2880000D01*
X6881000Y-2830000D02*
X6981000Y-2830000D01*
X7185000Y-2780000D02*
X7185000Y-2880000D01*
X7135000Y-2830000D02*
X7235000Y-2830000D01*
X7439000Y-2780000D02*
X7439000Y-2880000D01*
X7389000Y-2830000D02*
X7489000Y-2830000D01*
X7693000Y-2780000D02*
X7693000Y-2880000D01*
X7643000Y-2830000D02*
X7743000Y-2830000D01*
X8050000Y-2785000D02*
X8050000Y-2885000D01*
X8000000Y-2835000D02*
X8100000Y-2835000D01*
X8304000Y-2785000D02*
X8304000Y-2885000D01*
X8254000Y-2835000D02*
X8354000Y-2835000D01*
X8558000Y-2785000D02*
X8558000Y-2885000D01*
X8508000Y-2835000D02*
X8608000Y-2835000D01*
X8633000Y-3450000D02*
X8633000Y-3550000D01*
X8583000Y-3500000D02*
X8683000Y-3500000D01*
X8633000Y-3704000D02*
X8633000Y-3804000D01*
X8583000Y-3754000D02*
X8683000Y-3754000D01*
X8633000Y-3958000D02*
X8633000Y-4058000D01*
X8583000Y-4008000D02*
X8683000Y-4008000D01*
X8633000Y-4212000D02*
X8633000Y-4312000D01*
X8583000Y-4262000D02*
X8683000Y-4262000D01*
X8633000Y-4466000D02*
X8633000Y-4566000D01*
X8583000Y-4516000D02*
X8683000Y-4516000D01*
X8633000Y-4720000D02*
X8633000Y-4820000D01*
X8583000Y-4770000D02*
X8683000Y-4770000D01*
X8633000Y-4974000D02*
X8633000Y-5074000D01*
X8583000Y-5024000D02*
X8683000Y-5024000D01*
X8633000Y-5228000D02*
X8633000Y-5328000D01*
X8583000Y-5278000D02*
X8683000Y-5278000D01*
X8633000Y-5482000D02*
X8633000Y-5582000D01*
X8583000Y-5532000D02*
X8683000Y-5532000D01*
X8633000Y-5736000D02*
X8633000Y-5836000D01*
X8583000Y-5786000D02*
X8683000Y-5786000D01*
X8633000Y-5990000D02*
X8633000Y-6090000D01*
X8583000Y-6040000D02*
X8683000Y-6040000D01*
X8633000Y-6244000D02*
X8633000Y-6344000D01*
X8583000Y-6294000D02*
X8683000Y-6294000D01*
X8633000Y-6498000D02*
X8633000Y-6598000D01*
X8583000Y-6548000D02*
X8683000Y-6548000D01*
X8633000Y-6752000D02*
X8633000Y-6852000D01*
X8583000Y-6802000D02*
X8683000Y-6802000D01*
X8633000Y-7006000D02*
X8633000Y-7106000D01*
X8583000Y-7056000D02*
X8683000Y-7056000D01*
X8633000Y-7260000D02*
X8633000Y-7360000D01*
X8583000Y-7310000D02*
X8683000Y-7310000D01*
X8633000Y-7514000D02*
X8633000Y-7614000D01*
X8583000Y-7564000D02*
X8683000Y-7564000D01*
X8633000Y-7768000D02*
X8633000Y-7868000D01*
X8583000Y-7818000D02*
X8683000Y-7818000D01*
X8633000Y-8022000D02*
X8633000Y-8122000D01*
X8583000Y-8072000D02*
X8683000Y-8072000D01*
X8812000Y-2785000D02*
X8812000Y-2885000D01*
X8762000Y-2835000D02*
X8862000Y-2835000D01*
X9040000Y-7512000D02*
X9040000Y-7612000D01*
X8990000Y-7562000D02*
X9090000Y-7562000D01*
X9040000Y-7766000D02*
X9040000Y-7866000D01*
X8990000Y-7816000D02*
X9090000Y-7816000D01*
X9040000Y-8020000D02*
X9040000Y-8120000D01*
X8990000Y-8070000D02*
X9090000Y-8070000D01*
X9066000Y-2785000D02*
X9066000Y-2885000D01*
X9016000Y-2835000D02*
X9116000Y-2835000D01*
X9172500Y-6550000D02*
X9172500Y-6650000D01*
X9122500Y-6600000D02*
X9222500Y-6600000D01*
X9320000Y-2785000D02*
X9320000Y-2885000D01*
X9270000Y-2835000D02*
X9370000Y-2835000D01*
X9426500Y-6550000D02*
X9426500Y-6650000D01*
X9376500Y-6600000D02*
X9476500Y-6600000D01*
X9574000Y-2785000D02*
X9574000Y-2885000D01*
X9524000Y-2835000D02*
X9624000Y-2835000D01*
X9642922Y-7690000D02*
X9642922Y-7790000D01*
X9592922Y-7740000D02*
X9692922Y-7740000D01*
X9828000Y-2785000D02*
X9828000Y-2885000D01*
X9778000Y-2835000D02*
X9878000Y-2835000D01*
X9854000Y-4285000D02*
X9854000Y-4385000D01*
X9804000Y-4335000D02*
X9904000Y-4335000D01*
X10108000Y-4285000D02*
X10108000Y-4385000D01*
X10058000Y-4335000D02*
X10158000Y-4335000D01*
X10142922Y-7690000D02*
X10142922Y-7790000D01*
X10092922Y-7740000D02*
X10192922Y-7740000D01*
D13*
X5703033Y-6403033D02*
X5703033Y-6296966D01*
X5596966Y-6296966D01*
X5596966Y-6403033D01*
X5703033Y-6403033D01*
X5703033Y-7223033D02*
X5703033Y-7116966D01*
X5596966Y-7116966D01*
X5596966Y-7223033D01*
X5703033Y-7223033D01*
D14*
X5600000Y-4201000D02*
X5676000Y-4125000D01*
X5600000Y-4049000D01*
X5524000Y-4125000D01*
X5600000Y-4201000D01*
X5600000Y-4709000D02*
X5676000Y-4633000D01*
X5600000Y-4557000D01*
X5524000Y-4633000D01*
X5600000Y-4709000D01*
D15*
X5527500Y-3357500D02*
X5852500Y-3682500D01*
X5852500Y-3357500D02*
X5527500Y-3682500D01*
X5852500Y-3520000D02*
G75*
G02*
X5527500Y-3520000I-162500J0D01*
G01*
X5527500Y-3520000D02*
G75*
G02*
X5852500Y-3520000I162500J0D01*
G01*
X7087500Y-3752500D02*
X7412500Y-4077500D01*
X7412500Y-3752500D02*
X7087500Y-4077500D01*
X7412500Y-3915000D02*
G75*
G02*
X7087500Y-3915000I-162500J0D01*
G01*
X7087500Y-3915000D02*
G75*
G02*
X7412500Y-3915000I162500J0D01*
G01*
X7087500Y-6892500D02*
X7412500Y-7217500D01*
X7412500Y-6892500D02*
X7087500Y-7217500D01*
X7412500Y-7055000D02*
G75*
G02*
X7087500Y-7055000I-162500J0D01*
G01*
X7087500Y-7055000D02*
G75*
G02*
X7412500Y-7055000I162500J0D01*
G01*
X8017500Y-3337500D02*
X8342500Y-3662500D01*
X8342500Y-3337500D02*
X8017500Y-3662500D01*
X8342500Y-3500000D02*
G75*
G02*
X8017500Y-3500000I-162500J0D01*
G01*
X8017500Y-3500000D02*
G75*
G02*
X8342500Y-3500000I162500J0D01*
G01*
X9157500Y-6892500D02*
X9482500Y-7217500D01*
X9482500Y-6892500D02*
X9157500Y-7217500D01*
X9482500Y-7055000D02*
G75*
G02*
X9157500Y-7055000I-162500J0D01*
G01*
X9157500Y-7055000D02*
G75*
G02*
X9482500Y-7055000I162500J0D01*
G01*
X9167500Y-3752500D02*
X9492500Y-4077500D01*
X9492500Y-3752500D02*
X9167500Y-4077500D01*
X9492500Y-3915000D02*
G75*
G02*
X9167500Y-3915000I-162500J0D01*
G01*
X9167500Y-3915000D02*
G75*
G02*
X9492500Y-3915000I162500J0D01*
G01*
X9657500Y-6357500D02*
X9982500Y-6682500D01*
X9982500Y-6357500D02*
X9657500Y-6682500D01*
X9982500Y-6520000D02*
G75*
G02*
X9657500Y-6520000I-162500J0D01*
G01*
X9657500Y-6520000D02*
G75*
G02*
X9982500Y-6520000I162500J0D01*
G01*
D16*
X4820500Y-5355000D02*
X5245500Y-5780000D01*
X5245500Y-5355000D02*
X4820500Y-5780000D01*
X5033000Y-5355000D02*
X5033000Y-5780000D01*
X4820500Y-5567500D02*
X5245500Y-5567500D01*
X11004500Y-5356500D02*
X11429500Y-5781500D01*
X11429500Y-5356500D02*
X11004500Y-5781500D01*
X11217000Y-5356500D02*
X11217000Y-5781500D01*
X11004500Y-5569000D02*
X11429500Y-5569000D01*
D11*
X4906928Y-9357833D02*
X4906928Y-9157833D01*
X4906928Y-9157833D02*
X4954547Y-9157833D01*
X4954547Y-9157833D02*
X4983119Y-9167356D01*
X4983119Y-9167356D02*
X5002166Y-9186404D01*
X5002166Y-9186404D02*
X5011690Y-9205452D01*
X5011690Y-9205452D02*
X5021214Y-9243547D01*
X5021214Y-9243547D02*
X5021214Y-9272118D01*
X5021214Y-9272118D02*
X5011690Y-9310213D01*
X5011690Y-9310213D02*
X5002166Y-9329261D01*
X5002166Y-9329261D02*
X4983119Y-9348309D01*
X4983119Y-9348309D02*
X4954547Y-9357833D01*
X4954547Y-9357833D02*
X4906928Y-9357833D01*
X5106928Y-9357833D02*
X5106928Y-9224499D01*
X5106928Y-9262594D02*
X5116452Y-9243547D01*
X5116452Y-9243547D02*
X5125976Y-9234023D01*
X5125976Y-9234023D02*
X5145023Y-9224499D01*
X5145023Y-9224499D02*
X5164071Y-9224499D01*
X5230738Y-9357833D02*
X5230738Y-9224499D01*
X5230738Y-9157833D02*
X5221214Y-9167356D01*
X5221214Y-9167356D02*
X5230738Y-9176880D01*
X5230738Y-9176880D02*
X5240261Y-9167356D01*
X5240261Y-9167356D02*
X5230738Y-9157833D01*
X5230738Y-9157833D02*
X5230738Y-9176880D01*
X5354547Y-9357833D02*
X5335500Y-9348309D01*
X5335500Y-9348309D02*
X5325976Y-9329261D01*
X5325976Y-9329261D02*
X5325976Y-9157833D01*
X5459309Y-9357833D02*
X5440261Y-9348309D01*
X5440261Y-9348309D02*
X5430738Y-9329261D01*
X5430738Y-9329261D02*
X5430738Y-9157833D01*
X5687880Y-9357833D02*
X5687880Y-9157833D01*
X5687880Y-9157833D02*
X5754547Y-9300690D01*
X5754547Y-9300690D02*
X5821214Y-9157833D01*
X5821214Y-9157833D02*
X5821214Y-9357833D01*
X6002166Y-9357833D02*
X6002166Y-9253071D01*
X6002166Y-9253071D02*
X5992642Y-9234023D01*
X5992642Y-9234023D02*
X5973595Y-9224499D01*
X5973595Y-9224499D02*
X5935499Y-9224499D01*
X5935499Y-9224499D02*
X5916452Y-9234023D01*
X6002166Y-9348309D02*
X5983119Y-9357833D01*
X5983119Y-9357833D02*
X5935499Y-9357833D01*
X5935499Y-9357833D02*
X5916452Y-9348309D01*
X5916452Y-9348309D02*
X5906928Y-9329261D01*
X5906928Y-9329261D02*
X5906928Y-9310213D01*
X5906928Y-9310213D02*
X5916452Y-9291166D01*
X5916452Y-9291166D02*
X5935499Y-9281642D01*
X5935499Y-9281642D02*
X5983119Y-9281642D01*
X5983119Y-9281642D02*
X6002166Y-9272118D01*
X6097404Y-9224499D02*
X6097404Y-9424499D01*
X6097404Y-9234023D02*
X6116452Y-9224499D01*
X6116452Y-9224499D02*
X6154547Y-9224499D01*
X6154547Y-9224499D02*
X6173595Y-9234023D01*
X6173595Y-9234023D02*
X6183119Y-9243547D01*
X6183119Y-9243547D02*
X6192642Y-9262594D01*
X6192642Y-9262594D02*
X6192642Y-9319737D01*
X6192642Y-9319737D02*
X6183119Y-9338785D01*
X6183119Y-9338785D02*
X6173595Y-9348309D01*
X6173595Y-9348309D02*
X6154547Y-9357833D01*
X6154547Y-9357833D02*
X6116452Y-9357833D01*
X6116452Y-9357833D02*
X6097404Y-9348309D01*
X6278357Y-9338785D02*
X6287880Y-9348309D01*
X6287880Y-9348309D02*
X6278357Y-9357833D01*
X6278357Y-9357833D02*
X6268833Y-9348309D01*
X6268833Y-9348309D02*
X6278357Y-9338785D01*
X6278357Y-9338785D02*
X6278357Y-9357833D01*
X6278357Y-9234023D02*
X6287880Y-9243547D01*
X6287880Y-9243547D02*
X6278357Y-9253071D01*
X6278357Y-9253071D02*
X6268833Y-9243547D01*
X6268833Y-9243547D02*
X6278357Y-9234023D01*
X6278357Y-9234023D02*
X6278357Y-9253071D01*
D12*
X4606151Y-9666349D02*
X4646151Y-9706349D01*
X4646151Y-9666349D02*
X4606151Y-9706349D01*
D11*
X4945023Y-9577833D02*
X4964071Y-9577833D01*
X4964071Y-9577833D02*
X4983119Y-9587356D01*
X4983119Y-9587356D02*
X4992642Y-9596880D01*
X4992642Y-9596880D02*
X5002166Y-9615928D01*
X5002166Y-9615928D02*
X5011690Y-9654023D01*
X5011690Y-9654023D02*
X5011690Y-9701642D01*
X5011690Y-9701642D02*
X5002166Y-9739737D01*
X5002166Y-9739737D02*
X4992642Y-9758785D01*
X4992642Y-9758785D02*
X4983119Y-9768309D01*
X4983119Y-9768309D02*
X4964071Y-9777833D01*
X4964071Y-9777833D02*
X4945023Y-9777833D01*
X4945023Y-9777833D02*
X4925976Y-9768309D01*
X4925976Y-9768309D02*
X4916452Y-9758785D01*
X4916452Y-9758785D02*
X4906928Y-9739737D01*
X4906928Y-9739737D02*
X4897404Y-9701642D01*
X4897404Y-9701642D02*
X4897404Y-9654023D01*
X4897404Y-9654023D02*
X4906928Y-9615928D01*
X4906928Y-9615928D02*
X4916452Y-9596880D01*
X4916452Y-9596880D02*
X4925976Y-9587356D01*
X4925976Y-9587356D02*
X4945023Y-9577833D01*
X5097404Y-9758785D02*
X5106928Y-9768309D01*
X5106928Y-9768309D02*
X5097404Y-9777833D01*
X5097404Y-9777833D02*
X5087881Y-9768309D01*
X5087881Y-9768309D02*
X5097404Y-9758785D01*
X5097404Y-9758785D02*
X5097404Y-9777833D01*
X5278357Y-9644499D02*
X5278357Y-9777833D01*
X5230738Y-9568309D02*
X5183119Y-9711166D01*
X5183119Y-9711166D02*
X5306928Y-9711166D01*
X5421214Y-9577833D02*
X5440262Y-9577833D01*
X5440262Y-9577833D02*
X5459309Y-9587356D01*
X5459309Y-9587356D02*
X5468833Y-9596880D01*
X5468833Y-9596880D02*
X5478357Y-9615928D01*
X5478357Y-9615928D02*
X5487881Y-9654023D01*
X5487881Y-9654023D02*
X5487881Y-9701642D01*
X5487881Y-9701642D02*
X5478357Y-9739737D01*
X5478357Y-9739737D02*
X5468833Y-9758785D01*
X5468833Y-9758785D02*
X5459309Y-9768309D01*
X5459309Y-9768309D02*
X5440262Y-9777833D01*
X5440262Y-9777833D02*
X5421214Y-9777833D01*
X5421214Y-9777833D02*
X5402166Y-9768309D01*
X5402166Y-9768309D02*
X5392642Y-9758785D01*
X5392642Y-9758785D02*
X5383119Y-9739737D01*
X5383119Y-9739737D02*
X5373595Y-9701642D01*
X5373595Y-9701642D02*
X5373595Y-9654023D01*
X5373595Y-9654023D02*
X5383119Y-9615928D01*
X5383119Y-9615928D02*
X5392642Y-9596880D01*
X5392642Y-9596880D02*
X5402166Y-9587356D01*
X5402166Y-9587356D02*
X5421214Y-9577833D01*
X5611690Y-9577833D02*
X5630738Y-9577833D01*
X5630738Y-9577833D02*
X5649785Y-9587356D01*
X5649785Y-9587356D02*
X5659309Y-9596880D01*
X5659309Y-9596880D02*
X5668833Y-9615928D01*
X5668833Y-9615928D02*
X5678357Y-9654023D01*
X5678357Y-9654023D02*
X5678357Y-9701642D01*
X5678357Y-9701642D02*
X5668833Y-9739737D01*
X5668833Y-9739737D02*
X5659309Y-9758785D01*
X5659309Y-9758785D02*
X5649785Y-9768309D01*
X5649785Y-9768309D02*
X5630738Y-9777833D01*
X5630738Y-9777833D02*
X5611690Y-9777833D01*
X5611690Y-9777833D02*
X5592642Y-9768309D01*
X5592642Y-9768309D02*
X5583119Y-9758785D01*
X5583119Y-9758785D02*
X5573595Y-9739737D01*
X5573595Y-9739737D02*
X5564071Y-9701642D01*
X5564071Y-9701642D02*
X5564071Y-9654023D01*
X5564071Y-9654023D02*
X5573595Y-9615928D01*
X5573595Y-9615928D02*
X5583119Y-9596880D01*
X5583119Y-9596880D02*
X5592642Y-9587356D01*
X5592642Y-9587356D02*
X5611690Y-9577833D01*
X5764071Y-9777833D02*
X5764071Y-9644499D01*
X5764071Y-9663547D02*
X5773595Y-9654023D01*
X5773595Y-9654023D02*
X5792642Y-9644499D01*
X5792642Y-9644499D02*
X5821214Y-9644499D01*
X5821214Y-9644499D02*
X5840261Y-9654023D01*
X5840261Y-9654023D02*
X5849785Y-9673071D01*
X5849785Y-9673071D02*
X5849785Y-9777833D01*
X5849785Y-9673071D02*
X5859309Y-9654023D01*
X5859309Y-9654023D02*
X5878357Y-9644499D01*
X5878357Y-9644499D02*
X5906928Y-9644499D01*
X5906928Y-9644499D02*
X5925976Y-9654023D01*
X5925976Y-9654023D02*
X5935500Y-9673071D01*
X5935500Y-9673071D02*
X5935500Y-9777833D01*
X6030738Y-9777833D02*
X6030738Y-9644499D01*
X6030738Y-9663547D02*
X6040261Y-9654023D01*
X6040261Y-9654023D02*
X6059309Y-9644499D01*
X6059309Y-9644499D02*
X6087881Y-9644499D01*
X6087881Y-9644499D02*
X6106928Y-9654023D01*
X6106928Y-9654023D02*
X6116452Y-9673071D01*
X6116452Y-9673071D02*
X6116452Y-9777833D01*
X6116452Y-9673071D02*
X6125976Y-9654023D01*
X6125976Y-9654023D02*
X6145023Y-9644499D01*
X6145023Y-9644499D02*
X6173595Y-9644499D01*
X6173595Y-9644499D02*
X6192642Y-9654023D01*
X6192642Y-9654023D02*
X6202166Y-9673071D01*
X6202166Y-9673071D02*
X6202166Y-9777833D01*
X6592642Y-9568309D02*
X6421214Y-9825452D01*
X6849785Y-9577833D02*
X6868833Y-9577833D01*
X6868833Y-9577833D02*
X6887881Y-9587356D01*
X6887881Y-9587356D02*
X6897404Y-9596880D01*
X6897404Y-9596880D02*
X6906928Y-9615928D01*
X6906928Y-9615928D02*
X6916452Y-9654023D01*
X6916452Y-9654023D02*
X6916452Y-9701642D01*
X6916452Y-9701642D02*
X6906928Y-9739737D01*
X6906928Y-9739737D02*
X6897404Y-9758785D01*
X6897404Y-9758785D02*
X6887881Y-9768309D01*
X6887881Y-9768309D02*
X6868833Y-9777833D01*
X6868833Y-9777833D02*
X6849785Y-9777833D01*
X6849785Y-9777833D02*
X6830738Y-9768309D01*
X6830738Y-9768309D02*
X6821214Y-9758785D01*
X6821214Y-9758785D02*
X6811690Y-9739737D01*
X6811690Y-9739737D02*
X6802166Y-9701642D01*
X6802166Y-9701642D02*
X6802166Y-9654023D01*
X6802166Y-9654023D02*
X6811690Y-9615928D01*
X6811690Y-9615928D02*
X6821214Y-9596880D01*
X6821214Y-9596880D02*
X6830738Y-9587356D01*
X6830738Y-9587356D02*
X6849785Y-9577833D01*
X7002166Y-9758785D02*
X7011690Y-9768309D01*
X7011690Y-9768309D02*
X7002166Y-9777833D01*
X7002166Y-9777833D02*
X6992643Y-9768309D01*
X6992643Y-9768309D02*
X7002166Y-9758785D01*
X7002166Y-9758785D02*
X7002166Y-9777833D01*
X7135500Y-9577833D02*
X7154547Y-9577833D01*
X7154547Y-9577833D02*
X7173595Y-9587356D01*
X7173595Y-9587356D02*
X7183119Y-9596880D01*
X7183119Y-9596880D02*
X7192643Y-9615928D01*
X7192643Y-9615928D02*
X7202166Y-9654023D01*
X7202166Y-9654023D02*
X7202166Y-9701642D01*
X7202166Y-9701642D02*
X7192643Y-9739737D01*
X7192643Y-9739737D02*
X7183119Y-9758785D01*
X7183119Y-9758785D02*
X7173595Y-9768309D01*
X7173595Y-9768309D02*
X7154547Y-9777833D01*
X7154547Y-9777833D02*
X7135500Y-9777833D01*
X7135500Y-9777833D02*
X7116452Y-9768309D01*
X7116452Y-9768309D02*
X7106928Y-9758785D01*
X7106928Y-9758785D02*
X7097404Y-9739737D01*
X7097404Y-9739737D02*
X7087881Y-9701642D01*
X7087881Y-9701642D02*
X7087881Y-9654023D01*
X7087881Y-9654023D02*
X7097404Y-9615928D01*
X7097404Y-9615928D02*
X7106928Y-9596880D01*
X7106928Y-9596880D02*
X7116452Y-9587356D01*
X7116452Y-9587356D02*
X7135500Y-9577833D01*
X7392643Y-9777833D02*
X7278357Y-9777833D01*
X7335500Y-9777833D02*
X7335500Y-9577833D01*
X7335500Y-9577833D02*
X7316452Y-9606404D01*
X7316452Y-9606404D02*
X7297404Y-9625452D01*
X7297404Y-9625452D02*
X7278357Y-9634975D01*
X7573595Y-9577833D02*
X7478357Y-9577833D01*
X7478357Y-9577833D02*
X7468833Y-9673071D01*
X7468833Y-9673071D02*
X7478357Y-9663547D01*
X7478357Y-9663547D02*
X7497404Y-9654023D01*
X7497404Y-9654023D02*
X7545024Y-9654023D01*
X7545024Y-9654023D02*
X7564071Y-9663547D01*
X7564071Y-9663547D02*
X7573595Y-9673071D01*
X7573595Y-9673071D02*
X7583119Y-9692118D01*
X7583119Y-9692118D02*
X7583119Y-9739737D01*
X7583119Y-9739737D02*
X7573595Y-9758785D01*
X7573595Y-9758785D02*
X7564071Y-9768309D01*
X7564071Y-9768309D02*
X7545024Y-9777833D01*
X7545024Y-9777833D02*
X7497404Y-9777833D01*
X7497404Y-9777833D02*
X7478357Y-9768309D01*
X7478357Y-9768309D02*
X7468833Y-9758785D01*
X7649785Y-9577833D02*
X7783119Y-9577833D01*
X7783119Y-9577833D02*
X7697404Y-9777833D01*
X7849785Y-9577833D02*
X7849785Y-9615928D01*
X7925976Y-9577833D02*
X7925976Y-9615928D01*
X8221214Y-9854023D02*
X8211690Y-9844499D01*
X8211690Y-9844499D02*
X8192643Y-9815928D01*
X8192643Y-9815928D02*
X8183119Y-9796880D01*
X8183119Y-9796880D02*
X8173595Y-9768309D01*
X8173595Y-9768309D02*
X8164071Y-9720690D01*
X8164071Y-9720690D02*
X8164071Y-9682594D01*
X8164071Y-9682594D02*
X8173595Y-9634975D01*
X8173595Y-9634975D02*
X8183119Y-9606404D01*
X8183119Y-9606404D02*
X8192643Y-9587356D01*
X8192643Y-9587356D02*
X8211690Y-9558785D01*
X8211690Y-9558785D02*
X8221214Y-9549261D01*
X8278357Y-9577833D02*
X8402167Y-9577833D01*
X8402167Y-9577833D02*
X8335500Y-9654023D01*
X8335500Y-9654023D02*
X8364071Y-9654023D01*
X8364071Y-9654023D02*
X8383119Y-9663547D01*
X8383119Y-9663547D02*
X8392643Y-9673071D01*
X8392643Y-9673071D02*
X8402167Y-9692118D01*
X8402167Y-9692118D02*
X8402167Y-9739737D01*
X8402167Y-9739737D02*
X8392643Y-9758785D01*
X8392643Y-9758785D02*
X8383119Y-9768309D01*
X8383119Y-9768309D02*
X8364071Y-9777833D01*
X8364071Y-9777833D02*
X8306928Y-9777833D01*
X8306928Y-9777833D02*
X8287881Y-9768309D01*
X8287881Y-9768309D02*
X8278357Y-9758785D01*
X8640262Y-9777833D02*
X8640262Y-9577833D01*
X8725976Y-9777833D02*
X8725976Y-9673071D01*
X8725976Y-9673071D02*
X8716452Y-9654023D01*
X8716452Y-9654023D02*
X8697405Y-9644499D01*
X8697405Y-9644499D02*
X8668833Y-9644499D01*
X8668833Y-9644499D02*
X8649786Y-9654023D01*
X8649786Y-9654023D02*
X8640262Y-9663547D01*
X8849786Y-9777833D02*
X8830738Y-9768309D01*
X8830738Y-9768309D02*
X8821214Y-9758785D01*
X8821214Y-9758785D02*
X8811690Y-9739737D01*
X8811690Y-9739737D02*
X8811690Y-9682594D01*
X8811690Y-9682594D02*
X8821214Y-9663547D01*
X8821214Y-9663547D02*
X8830738Y-9654023D01*
X8830738Y-9654023D02*
X8849786Y-9644499D01*
X8849786Y-9644499D02*
X8878357Y-9644499D01*
X8878357Y-9644499D02*
X8897405Y-9654023D01*
X8897405Y-9654023D02*
X8906929Y-9663547D01*
X8906929Y-9663547D02*
X8916452Y-9682594D01*
X8916452Y-9682594D02*
X8916452Y-9739737D01*
X8916452Y-9739737D02*
X8906929Y-9758785D01*
X8906929Y-9758785D02*
X8897405Y-9768309D01*
X8897405Y-9768309D02*
X8878357Y-9777833D01*
X8878357Y-9777833D02*
X8849786Y-9777833D01*
X9030738Y-9777833D02*
X9011690Y-9768309D01*
X9011690Y-9768309D02*
X9002167Y-9749261D01*
X9002167Y-9749261D02*
X9002167Y-9577833D01*
X9183119Y-9768309D02*
X9164071Y-9777833D01*
X9164071Y-9777833D02*
X9125976Y-9777833D01*
X9125976Y-9777833D02*
X9106929Y-9768309D01*
X9106929Y-9768309D02*
X9097405Y-9749261D01*
X9097405Y-9749261D02*
X9097405Y-9673071D01*
X9097405Y-9673071D02*
X9106929Y-9654023D01*
X9106929Y-9654023D02*
X9125976Y-9644499D01*
X9125976Y-9644499D02*
X9164071Y-9644499D01*
X9164071Y-9644499D02*
X9183119Y-9654023D01*
X9183119Y-9654023D02*
X9192643Y-9673071D01*
X9192643Y-9673071D02*
X9192643Y-9692118D01*
X9192643Y-9692118D02*
X9097405Y-9711166D01*
X9268833Y-9768309D02*
X9287881Y-9777833D01*
X9287881Y-9777833D02*
X9325976Y-9777833D01*
X9325976Y-9777833D02*
X9345024Y-9768309D01*
X9345024Y-9768309D02*
X9354548Y-9749261D01*
X9354548Y-9749261D02*
X9354548Y-9739737D01*
X9354548Y-9739737D02*
X9345024Y-9720690D01*
X9345024Y-9720690D02*
X9325976Y-9711166D01*
X9325976Y-9711166D02*
X9297405Y-9711166D01*
X9297405Y-9711166D02*
X9278357Y-9701642D01*
X9278357Y-9701642D02*
X9268833Y-9682594D01*
X9268833Y-9682594D02*
X9268833Y-9673071D01*
X9268833Y-9673071D02*
X9278357Y-9654023D01*
X9278357Y-9654023D02*
X9297405Y-9644499D01*
X9297405Y-9644499D02*
X9325976Y-9644499D01*
X9325976Y-9644499D02*
X9345024Y-9654023D01*
X9421214Y-9854023D02*
X9430738Y-9844499D01*
X9430738Y-9844499D02*
X9449786Y-9815928D01*
X9449786Y-9815928D02*
X9459310Y-9796880D01*
X9459310Y-9796880D02*
X9468833Y-9768309D01*
X9468833Y-9768309D02*
X9478357Y-9720690D01*
X9478357Y-9720690D02*
X9478357Y-9682594D01*
X9478357Y-9682594D02*
X9468833Y-9634975D01*
X9468833Y-9634975D02*
X9459310Y-9606404D01*
X9459310Y-9606404D02*
X9449786Y-9587356D01*
X9449786Y-9587356D02*
X9430738Y-9558785D01*
X9430738Y-9558785D02*
X9421214Y-9549261D01*
D12*
X4646151Y-9950349D02*
G75*
G02*
X4566151Y-9950349I-40000J0D01*
G01*
X4566151Y-9950349D02*
G75*
G02*
X4646151Y-9950349I40000J0D01*
G01*
D11*
X4945023Y-9841833D02*
X4964071Y-9841833D01*
X4964071Y-9841833D02*
X4983119Y-9851356D01*
X4983119Y-9851356D02*
X4992642Y-9860880D01*
X4992642Y-9860880D02*
X5002166Y-9879928D01*
X5002166Y-9879928D02*
X5011690Y-9918023D01*
X5011690Y-9918023D02*
X5011690Y-9965642D01*
X5011690Y-9965642D02*
X5002166Y-10003737D01*
X5002166Y-10003737D02*
X4992642Y-10022785D01*
X4992642Y-10022785D02*
X4983119Y-10032309D01*
X4983119Y-10032309D02*
X4964071Y-10041833D01*
X4964071Y-10041833D02*
X4945023Y-10041833D01*
X4945023Y-10041833D02*
X4925976Y-10032309D01*
X4925976Y-10032309D02*
X4916452Y-10022785D01*
X4916452Y-10022785D02*
X4906928Y-10003737D01*
X4906928Y-10003737D02*
X4897404Y-9965642D01*
X4897404Y-9965642D02*
X4897404Y-9918023D01*
X4897404Y-9918023D02*
X4906928Y-9879928D01*
X4906928Y-9879928D02*
X4916452Y-9860880D01*
X4916452Y-9860880D02*
X4925976Y-9851356D01*
X4925976Y-9851356D02*
X4945023Y-9841833D01*
X5097404Y-10022785D02*
X5106928Y-10032309D01*
X5106928Y-10032309D02*
X5097404Y-10041833D01*
X5097404Y-10041833D02*
X5087881Y-10032309D01*
X5087881Y-10032309D02*
X5097404Y-10022785D01*
X5097404Y-10022785D02*
X5097404Y-10041833D01*
X5221214Y-9927547D02*
X5202166Y-9918023D01*
X5202166Y-9918023D02*
X5192642Y-9908499D01*
X5192642Y-9908499D02*
X5183119Y-9889452D01*
X5183119Y-9889452D02*
X5183119Y-9879928D01*
X5183119Y-9879928D02*
X5192642Y-9860880D01*
X5192642Y-9860880D02*
X5202166Y-9851356D01*
X5202166Y-9851356D02*
X5221214Y-9841833D01*
X5221214Y-9841833D02*
X5259309Y-9841833D01*
X5259309Y-9841833D02*
X5278357Y-9851356D01*
X5278357Y-9851356D02*
X5287881Y-9860880D01*
X5287881Y-9860880D02*
X5297404Y-9879928D01*
X5297404Y-9879928D02*
X5297404Y-9889452D01*
X5297404Y-9889452D02*
X5287881Y-9908499D01*
X5287881Y-9908499D02*
X5278357Y-9918023D01*
X5278357Y-9918023D02*
X5259309Y-9927547D01*
X5259309Y-9927547D02*
X5221214Y-9927547D01*
X5221214Y-9927547D02*
X5202166Y-9937071D01*
X5202166Y-9937071D02*
X5192642Y-9946594D01*
X5192642Y-9946594D02*
X5183119Y-9965642D01*
X5183119Y-9965642D02*
X5183119Y-10003737D01*
X5183119Y-10003737D02*
X5192642Y-10022785D01*
X5192642Y-10022785D02*
X5202166Y-10032309D01*
X5202166Y-10032309D02*
X5221214Y-10041833D01*
X5221214Y-10041833D02*
X5259309Y-10041833D01*
X5259309Y-10041833D02*
X5278357Y-10032309D01*
X5278357Y-10032309D02*
X5287881Y-10022785D01*
X5287881Y-10022785D02*
X5297404Y-10003737D01*
X5297404Y-10003737D02*
X5297404Y-9965642D01*
X5297404Y-9965642D02*
X5287881Y-9946594D01*
X5287881Y-9946594D02*
X5278357Y-9937071D01*
X5278357Y-9937071D02*
X5259309Y-9927547D01*
X5421214Y-9841833D02*
X5440262Y-9841833D01*
X5440262Y-9841833D02*
X5459309Y-9851356D01*
X5459309Y-9851356D02*
X5468833Y-9860880D01*
X5468833Y-9860880D02*
X5478357Y-9879928D01*
X5478357Y-9879928D02*
X5487881Y-9918023D01*
X5487881Y-9918023D02*
X5487881Y-9965642D01*
X5487881Y-9965642D02*
X5478357Y-10003737D01*
X5478357Y-10003737D02*
X5468833Y-10022785D01*
X5468833Y-10022785D02*
X5459309Y-10032309D01*
X5459309Y-10032309D02*
X5440262Y-10041833D01*
X5440262Y-10041833D02*
X5421214Y-10041833D01*
X5421214Y-10041833D02*
X5402166Y-10032309D01*
X5402166Y-10032309D02*
X5392642Y-10022785D01*
X5392642Y-10022785D02*
X5383119Y-10003737D01*
X5383119Y-10003737D02*
X5373595Y-9965642D01*
X5373595Y-9965642D02*
X5373595Y-9918023D01*
X5373595Y-9918023D02*
X5383119Y-9879928D01*
X5383119Y-9879928D02*
X5392642Y-9860880D01*
X5392642Y-9860880D02*
X5402166Y-9851356D01*
X5402166Y-9851356D02*
X5421214Y-9841833D01*
X5611690Y-9841833D02*
X5630738Y-9841833D01*
X5630738Y-9841833D02*
X5649785Y-9851356D01*
X5649785Y-9851356D02*
X5659309Y-9860880D01*
X5659309Y-9860880D02*
X5668833Y-9879928D01*
X5668833Y-9879928D02*
X5678357Y-9918023D01*
X5678357Y-9918023D02*
X5678357Y-9965642D01*
X5678357Y-9965642D02*
X5668833Y-10003737D01*
X5668833Y-10003737D02*
X5659309Y-10022785D01*
X5659309Y-10022785D02*
X5649785Y-10032309D01*
X5649785Y-10032309D02*
X5630738Y-10041833D01*
X5630738Y-10041833D02*
X5611690Y-10041833D01*
X5611690Y-10041833D02*
X5592642Y-10032309D01*
X5592642Y-10032309D02*
X5583119Y-10022785D01*
X5583119Y-10022785D02*
X5573595Y-10003737D01*
X5573595Y-10003737D02*
X5564071Y-9965642D01*
X5564071Y-9965642D02*
X5564071Y-9918023D01*
X5564071Y-9918023D02*
X5573595Y-9879928D01*
X5573595Y-9879928D02*
X5583119Y-9860880D01*
X5583119Y-9860880D02*
X5592642Y-9851356D01*
X5592642Y-9851356D02*
X5611690Y-9841833D01*
X5764071Y-10041833D02*
X5764071Y-9908499D01*
X5764071Y-9927547D02*
X5773595Y-9918023D01*
X5773595Y-9918023D02*
X5792642Y-9908499D01*
X5792642Y-9908499D02*
X5821214Y-9908499D01*
X5821214Y-9908499D02*
X5840261Y-9918023D01*
X5840261Y-9918023D02*
X5849785Y-9937071D01*
X5849785Y-9937071D02*
X5849785Y-10041833D01*
X5849785Y-9937071D02*
X5859309Y-9918023D01*
X5859309Y-9918023D02*
X5878357Y-9908499D01*
X5878357Y-9908499D02*
X5906928Y-9908499D01*
X5906928Y-9908499D02*
X5925976Y-9918023D01*
X5925976Y-9918023D02*
X5935500Y-9937071D01*
X5935500Y-9937071D02*
X5935500Y-10041833D01*
X6030738Y-10041833D02*
X6030738Y-9908499D01*
X6030738Y-9927547D02*
X6040261Y-9918023D01*
X6040261Y-9918023D02*
X6059309Y-9908499D01*
X6059309Y-9908499D02*
X6087881Y-9908499D01*
X6087881Y-9908499D02*
X6106928Y-9918023D01*
X6106928Y-9918023D02*
X6116452Y-9937071D01*
X6116452Y-9937071D02*
X6116452Y-10041833D01*
X6116452Y-9937071D02*
X6125976Y-9918023D01*
X6125976Y-9918023D02*
X6145023Y-9908499D01*
X6145023Y-9908499D02*
X6173595Y-9908499D01*
X6173595Y-9908499D02*
X6192642Y-9918023D01*
X6192642Y-9918023D02*
X6202166Y-9937071D01*
X6202166Y-9937071D02*
X6202166Y-10041833D01*
X6592642Y-9832309D02*
X6421214Y-10089452D01*
X6849785Y-9841833D02*
X6868833Y-9841833D01*
X6868833Y-9841833D02*
X6887881Y-9851356D01*
X6887881Y-9851356D02*
X6897404Y-9860880D01*
X6897404Y-9860880D02*
X6906928Y-9879928D01*
X6906928Y-9879928D02*
X6916452Y-9918023D01*
X6916452Y-9918023D02*
X6916452Y-9965642D01*
X6916452Y-9965642D02*
X6906928Y-10003737D01*
X6906928Y-10003737D02*
X6897404Y-10022785D01*
X6897404Y-10022785D02*
X6887881Y-10032309D01*
X6887881Y-10032309D02*
X6868833Y-10041833D01*
X6868833Y-10041833D02*
X6849785Y-10041833D01*
X6849785Y-10041833D02*
X6830738Y-10032309D01*
X6830738Y-10032309D02*
X6821214Y-10022785D01*
X6821214Y-10022785D02*
X6811690Y-10003737D01*
X6811690Y-10003737D02*
X6802166Y-9965642D01*
X6802166Y-9965642D02*
X6802166Y-9918023D01*
X6802166Y-9918023D02*
X6811690Y-9879928D01*
X6811690Y-9879928D02*
X6821214Y-9860880D01*
X6821214Y-9860880D02*
X6830738Y-9851356D01*
X6830738Y-9851356D02*
X6849785Y-9841833D01*
X7002166Y-10022785D02*
X7011690Y-10032309D01*
X7011690Y-10032309D02*
X7002166Y-10041833D01*
X7002166Y-10041833D02*
X6992643Y-10032309D01*
X6992643Y-10032309D02*
X7002166Y-10022785D01*
X7002166Y-10022785D02*
X7002166Y-10041833D01*
X7135500Y-9841833D02*
X7154547Y-9841833D01*
X7154547Y-9841833D02*
X7173595Y-9851356D01*
X7173595Y-9851356D02*
X7183119Y-9860880D01*
X7183119Y-9860880D02*
X7192643Y-9879928D01*
X7192643Y-9879928D02*
X7202166Y-9918023D01*
X7202166Y-9918023D02*
X7202166Y-9965642D01*
X7202166Y-9965642D02*
X7192643Y-10003737D01*
X7192643Y-10003737D02*
X7183119Y-10022785D01*
X7183119Y-10022785D02*
X7173595Y-10032309D01*
X7173595Y-10032309D02*
X7154547Y-10041833D01*
X7154547Y-10041833D02*
X7135500Y-10041833D01*
X7135500Y-10041833D02*
X7116452Y-10032309D01*
X7116452Y-10032309D02*
X7106928Y-10022785D01*
X7106928Y-10022785D02*
X7097404Y-10003737D01*
X7097404Y-10003737D02*
X7087881Y-9965642D01*
X7087881Y-9965642D02*
X7087881Y-9918023D01*
X7087881Y-9918023D02*
X7097404Y-9879928D01*
X7097404Y-9879928D02*
X7106928Y-9860880D01*
X7106928Y-9860880D02*
X7116452Y-9851356D01*
X7116452Y-9851356D02*
X7135500Y-9841833D01*
X7268833Y-9841833D02*
X7392643Y-9841833D01*
X7392643Y-9841833D02*
X7325976Y-9918023D01*
X7325976Y-9918023D02*
X7354547Y-9918023D01*
X7354547Y-9918023D02*
X7373595Y-9927547D01*
X7373595Y-9927547D02*
X7383119Y-9937071D01*
X7383119Y-9937071D02*
X7392643Y-9956118D01*
X7392643Y-9956118D02*
X7392643Y-10003737D01*
X7392643Y-10003737D02*
X7383119Y-10022785D01*
X7383119Y-10022785D02*
X7373595Y-10032309D01*
X7373595Y-10032309D02*
X7354547Y-10041833D01*
X7354547Y-10041833D02*
X7297404Y-10041833D01*
X7297404Y-10041833D02*
X7278357Y-10032309D01*
X7278357Y-10032309D02*
X7268833Y-10022785D01*
X7583119Y-10041833D02*
X7468833Y-10041833D01*
X7525976Y-10041833D02*
X7525976Y-9841833D01*
X7525976Y-9841833D02*
X7506928Y-9870404D01*
X7506928Y-9870404D02*
X7487881Y-9889452D01*
X7487881Y-9889452D02*
X7468833Y-9898975D01*
X7764071Y-9841833D02*
X7668833Y-9841833D01*
X7668833Y-9841833D02*
X7659309Y-9937071D01*
X7659309Y-9937071D02*
X7668833Y-9927547D01*
X7668833Y-9927547D02*
X7687881Y-9918023D01*
X7687881Y-9918023D02*
X7735500Y-9918023D01*
X7735500Y-9918023D02*
X7754547Y-9927547D01*
X7754547Y-9927547D02*
X7764071Y-9937071D01*
X7764071Y-9937071D02*
X7773595Y-9956118D01*
X7773595Y-9956118D02*
X7773595Y-10003737D01*
X7773595Y-10003737D02*
X7764071Y-10022785D01*
X7764071Y-10022785D02*
X7754547Y-10032309D01*
X7754547Y-10032309D02*
X7735500Y-10041833D01*
X7735500Y-10041833D02*
X7687881Y-10041833D01*
X7687881Y-10041833D02*
X7668833Y-10032309D01*
X7668833Y-10032309D02*
X7659309Y-10022785D01*
X7849785Y-9841833D02*
X7849785Y-9879928D01*
X7925976Y-9841833D02*
X7925976Y-9879928D01*
X8221214Y-10118023D02*
X8211690Y-10108499D01*
X8211690Y-10108499D02*
X8192643Y-10079928D01*
X8192643Y-10079928D02*
X8183119Y-10060880D01*
X8183119Y-10060880D02*
X8173595Y-10032309D01*
X8173595Y-10032309D02*
X8164071Y-9984690D01*
X8164071Y-9984690D02*
X8164071Y-9946594D01*
X8164071Y-9946594D02*
X8173595Y-9898975D01*
X8173595Y-9898975D02*
X8183119Y-9870404D01*
X8183119Y-9870404D02*
X8192643Y-9851356D01*
X8192643Y-9851356D02*
X8211690Y-9822785D01*
X8211690Y-9822785D02*
X8221214Y-9813261D01*
X8278357Y-9841833D02*
X8402167Y-9841833D01*
X8402167Y-9841833D02*
X8335500Y-9918023D01*
X8335500Y-9918023D02*
X8364071Y-9918023D01*
X8364071Y-9918023D02*
X8383119Y-9927547D01*
X8383119Y-9927547D02*
X8392643Y-9937071D01*
X8392643Y-9937071D02*
X8402167Y-9956118D01*
X8402167Y-9956118D02*
X8402167Y-10003737D01*
X8402167Y-10003737D02*
X8392643Y-10022785D01*
X8392643Y-10022785D02*
X8383119Y-10032309D01*
X8383119Y-10032309D02*
X8364071Y-10041833D01*
X8364071Y-10041833D02*
X8306928Y-10041833D01*
X8306928Y-10041833D02*
X8287881Y-10032309D01*
X8287881Y-10032309D02*
X8278357Y-10022785D01*
X8640262Y-10041833D02*
X8640262Y-9841833D01*
X8725976Y-10041833D02*
X8725976Y-9937071D01*
X8725976Y-9937071D02*
X8716452Y-9918023D01*
X8716452Y-9918023D02*
X8697405Y-9908499D01*
X8697405Y-9908499D02*
X8668833Y-9908499D01*
X8668833Y-9908499D02*
X8649786Y-9918023D01*
X8649786Y-9918023D02*
X8640262Y-9927547D01*
X8849786Y-10041833D02*
X8830738Y-10032309D01*
X8830738Y-10032309D02*
X8821214Y-10022785D01*
X8821214Y-10022785D02*
X8811690Y-10003737D01*
X8811690Y-10003737D02*
X8811690Y-9946594D01*
X8811690Y-9946594D02*
X8821214Y-9927547D01*
X8821214Y-9927547D02*
X8830738Y-9918023D01*
X8830738Y-9918023D02*
X8849786Y-9908499D01*
X8849786Y-9908499D02*
X8878357Y-9908499D01*
X8878357Y-9908499D02*
X8897405Y-9918023D01*
X8897405Y-9918023D02*
X8906929Y-9927547D01*
X8906929Y-9927547D02*
X8916452Y-9946594D01*
X8916452Y-9946594D02*
X8916452Y-10003737D01*
X8916452Y-10003737D02*
X8906929Y-10022785D01*
X8906929Y-10022785D02*
X8897405Y-10032309D01*
X8897405Y-10032309D02*
X8878357Y-10041833D01*
X8878357Y-10041833D02*
X8849786Y-10041833D01*
X9030738Y-10041833D02*
X9011690Y-10032309D01*
X9011690Y-10032309D02*
X9002167Y-10013261D01*
X9002167Y-10013261D02*
X9002167Y-9841833D01*
X9183119Y-10032309D02*
X9164071Y-10041833D01*
X9164071Y-10041833D02*
X9125976Y-10041833D01*
X9125976Y-10041833D02*
X9106929Y-10032309D01*
X9106929Y-10032309D02*
X9097405Y-10013261D01*
X9097405Y-10013261D02*
X9097405Y-9937071D01*
X9097405Y-9937071D02*
X9106929Y-9918023D01*
X9106929Y-9918023D02*
X9125976Y-9908499D01*
X9125976Y-9908499D02*
X9164071Y-9908499D01*
X9164071Y-9908499D02*
X9183119Y-9918023D01*
X9183119Y-9918023D02*
X9192643Y-9937071D01*
X9192643Y-9937071D02*
X9192643Y-9956118D01*
X9192643Y-9956118D02*
X9097405Y-9975166D01*
X9268833Y-10032309D02*
X9287881Y-10041833D01*
X9287881Y-10041833D02*
X9325976Y-10041833D01*
X9325976Y-10041833D02*
X9345024Y-10032309D01*
X9345024Y-10032309D02*
X9354548Y-10013261D01*
X9354548Y-10013261D02*
X9354548Y-10003737D01*
X9354548Y-10003737D02*
X9345024Y-9984690D01*
X9345024Y-9984690D02*
X9325976Y-9975166D01*
X9325976Y-9975166D02*
X9297405Y-9975166D01*
X9297405Y-9975166D02*
X9278357Y-9965642D01*
X9278357Y-9965642D02*
X9268833Y-9946594D01*
X9268833Y-9946594D02*
X9268833Y-9937071D01*
X9268833Y-9937071D02*
X9278357Y-9918023D01*
X9278357Y-9918023D02*
X9297405Y-9908499D01*
X9297405Y-9908499D02*
X9325976Y-9908499D01*
X9325976Y-9908499D02*
X9345024Y-9918023D01*
X9421214Y-10118023D02*
X9430738Y-10108499D01*
X9430738Y-10108499D02*
X9449786Y-10079928D01*
X9449786Y-10079928D02*
X9459310Y-10060880D01*
X9459310Y-10060880D02*
X9468833Y-10032309D01*
X9468833Y-10032309D02*
X9478357Y-9984690D01*
X9478357Y-9984690D02*
X9478357Y-9946594D01*
X9478357Y-9946594D02*
X9468833Y-9898975D01*
X9468833Y-9898975D02*
X9459310Y-9870404D01*
X9459310Y-9870404D02*
X9449786Y-9851356D01*
X9449786Y-9851356D02*
X9430738Y-9822785D01*
X9430738Y-9822785D02*
X9421214Y-9813261D01*
D12*
X4596151Y-10164349D02*
X4596151Y-10264349D01*
X4546151Y-10214349D02*
X4646151Y-10214349D01*
D11*
X5011690Y-10305833D02*
X4897404Y-10305833D01*
X4954547Y-10305833D02*
X4954547Y-10105833D01*
X4954547Y-10105833D02*
X4935500Y-10134404D01*
X4935500Y-10134404D02*
X4916452Y-10153452D01*
X4916452Y-10153452D02*
X4897404Y-10162975D01*
X5097404Y-10286785D02*
X5106928Y-10296309D01*
X5106928Y-10296309D02*
X5097404Y-10305833D01*
X5097404Y-10305833D02*
X5087881Y-10296309D01*
X5087881Y-10296309D02*
X5097404Y-10286785D01*
X5097404Y-10286785D02*
X5097404Y-10305833D01*
X5230738Y-10105833D02*
X5249785Y-10105833D01*
X5249785Y-10105833D02*
X5268833Y-10115356D01*
X5268833Y-10115356D02*
X5278357Y-10124880D01*
X5278357Y-10124880D02*
X5287881Y-10143928D01*
X5287881Y-10143928D02*
X5297404Y-10182023D01*
X5297404Y-10182023D02*
X5297404Y-10229642D01*
X5297404Y-10229642D02*
X5287881Y-10267737D01*
X5287881Y-10267737D02*
X5278357Y-10286785D01*
X5278357Y-10286785D02*
X5268833Y-10296309D01*
X5268833Y-10296309D02*
X5249785Y-10305833D01*
X5249785Y-10305833D02*
X5230738Y-10305833D01*
X5230738Y-10305833D02*
X5211690Y-10296309D01*
X5211690Y-10296309D02*
X5202166Y-10286785D01*
X5202166Y-10286785D02*
X5192642Y-10267737D01*
X5192642Y-10267737D02*
X5183119Y-10229642D01*
X5183119Y-10229642D02*
X5183119Y-10182023D01*
X5183119Y-10182023D02*
X5192642Y-10143928D01*
X5192642Y-10143928D02*
X5202166Y-10124880D01*
X5202166Y-10124880D02*
X5211690Y-10115356D01*
X5211690Y-10115356D02*
X5230738Y-10105833D01*
X5421214Y-10105833D02*
X5440262Y-10105833D01*
X5440262Y-10105833D02*
X5459309Y-10115356D01*
X5459309Y-10115356D02*
X5468833Y-10124880D01*
X5468833Y-10124880D02*
X5478357Y-10143928D01*
X5478357Y-10143928D02*
X5487881Y-10182023D01*
X5487881Y-10182023D02*
X5487881Y-10229642D01*
X5487881Y-10229642D02*
X5478357Y-10267737D01*
X5478357Y-10267737D02*
X5468833Y-10286785D01*
X5468833Y-10286785D02*
X5459309Y-10296309D01*
X5459309Y-10296309D02*
X5440262Y-10305833D01*
X5440262Y-10305833D02*
X5421214Y-10305833D01*
X5421214Y-10305833D02*
X5402166Y-10296309D01*
X5402166Y-10296309D02*
X5392642Y-10286785D01*
X5392642Y-10286785D02*
X5383119Y-10267737D01*
X5383119Y-10267737D02*
X5373595Y-10229642D01*
X5373595Y-10229642D02*
X5373595Y-10182023D01*
X5373595Y-10182023D02*
X5383119Y-10143928D01*
X5383119Y-10143928D02*
X5392642Y-10124880D01*
X5392642Y-10124880D02*
X5402166Y-10115356D01*
X5402166Y-10115356D02*
X5421214Y-10105833D01*
X5611690Y-10105833D02*
X5630738Y-10105833D01*
X5630738Y-10105833D02*
X5649785Y-10115356D01*
X5649785Y-10115356D02*
X5659309Y-10124880D01*
X5659309Y-10124880D02*
X5668833Y-10143928D01*
X5668833Y-10143928D02*
X5678357Y-10182023D01*
X5678357Y-10182023D02*
X5678357Y-10229642D01*
X5678357Y-10229642D02*
X5668833Y-10267737D01*
X5668833Y-10267737D02*
X5659309Y-10286785D01*
X5659309Y-10286785D02*
X5649785Y-10296309D01*
X5649785Y-10296309D02*
X5630738Y-10305833D01*
X5630738Y-10305833D02*
X5611690Y-10305833D01*
X5611690Y-10305833D02*
X5592642Y-10296309D01*
X5592642Y-10296309D02*
X5583119Y-10286785D01*
X5583119Y-10286785D02*
X5573595Y-10267737D01*
X5573595Y-10267737D02*
X5564071Y-10229642D01*
X5564071Y-10229642D02*
X5564071Y-10182023D01*
X5564071Y-10182023D02*
X5573595Y-10143928D01*
X5573595Y-10143928D02*
X5583119Y-10124880D01*
X5583119Y-10124880D02*
X5592642Y-10115356D01*
X5592642Y-10115356D02*
X5611690Y-10105833D01*
X5764071Y-10305833D02*
X5764071Y-10172499D01*
X5764071Y-10191547D02*
X5773595Y-10182023D01*
X5773595Y-10182023D02*
X5792642Y-10172499D01*
X5792642Y-10172499D02*
X5821214Y-10172499D01*
X5821214Y-10172499D02*
X5840261Y-10182023D01*
X5840261Y-10182023D02*
X5849785Y-10201071D01*
X5849785Y-10201071D02*
X5849785Y-10305833D01*
X5849785Y-10201071D02*
X5859309Y-10182023D01*
X5859309Y-10182023D02*
X5878357Y-10172499D01*
X5878357Y-10172499D02*
X5906928Y-10172499D01*
X5906928Y-10172499D02*
X5925976Y-10182023D01*
X5925976Y-10182023D02*
X5935500Y-10201071D01*
X5935500Y-10201071D02*
X5935500Y-10305833D01*
X6030738Y-10305833D02*
X6030738Y-10172499D01*
X6030738Y-10191547D02*
X6040261Y-10182023D01*
X6040261Y-10182023D02*
X6059309Y-10172499D01*
X6059309Y-10172499D02*
X6087881Y-10172499D01*
X6087881Y-10172499D02*
X6106928Y-10182023D01*
X6106928Y-10182023D02*
X6116452Y-10201071D01*
X6116452Y-10201071D02*
X6116452Y-10305833D01*
X6116452Y-10201071D02*
X6125976Y-10182023D01*
X6125976Y-10182023D02*
X6145023Y-10172499D01*
X6145023Y-10172499D02*
X6173595Y-10172499D01*
X6173595Y-10172499D02*
X6192642Y-10182023D01*
X6192642Y-10182023D02*
X6202166Y-10201071D01*
X6202166Y-10201071D02*
X6202166Y-10305833D01*
X6592642Y-10096309D02*
X6421214Y-10353452D01*
X6849785Y-10105833D02*
X6868833Y-10105833D01*
X6868833Y-10105833D02*
X6887881Y-10115356D01*
X6887881Y-10115356D02*
X6897404Y-10124880D01*
X6897404Y-10124880D02*
X6906928Y-10143928D01*
X6906928Y-10143928D02*
X6916452Y-10182023D01*
X6916452Y-10182023D02*
X6916452Y-10229642D01*
X6916452Y-10229642D02*
X6906928Y-10267737D01*
X6906928Y-10267737D02*
X6897404Y-10286785D01*
X6897404Y-10286785D02*
X6887881Y-10296309D01*
X6887881Y-10296309D02*
X6868833Y-10305833D01*
X6868833Y-10305833D02*
X6849785Y-10305833D01*
X6849785Y-10305833D02*
X6830738Y-10296309D01*
X6830738Y-10296309D02*
X6821214Y-10286785D01*
X6821214Y-10286785D02*
X6811690Y-10267737D01*
X6811690Y-10267737D02*
X6802166Y-10229642D01*
X6802166Y-10229642D02*
X6802166Y-10182023D01*
X6802166Y-10182023D02*
X6811690Y-10143928D01*
X6811690Y-10143928D02*
X6821214Y-10124880D01*
X6821214Y-10124880D02*
X6830738Y-10115356D01*
X6830738Y-10115356D02*
X6849785Y-10105833D01*
X7002166Y-10286785D02*
X7011690Y-10296309D01*
X7011690Y-10296309D02*
X7002166Y-10305833D01*
X7002166Y-10305833D02*
X6992643Y-10296309D01*
X6992643Y-10296309D02*
X7002166Y-10286785D01*
X7002166Y-10286785D02*
X7002166Y-10305833D01*
X7135500Y-10105833D02*
X7154547Y-10105833D01*
X7154547Y-10105833D02*
X7173595Y-10115356D01*
X7173595Y-10115356D02*
X7183119Y-10124880D01*
X7183119Y-10124880D02*
X7192643Y-10143928D01*
X7192643Y-10143928D02*
X7202166Y-10182023D01*
X7202166Y-10182023D02*
X7202166Y-10229642D01*
X7202166Y-10229642D02*
X7192643Y-10267737D01*
X7192643Y-10267737D02*
X7183119Y-10286785D01*
X7183119Y-10286785D02*
X7173595Y-10296309D01*
X7173595Y-10296309D02*
X7154547Y-10305833D01*
X7154547Y-10305833D02*
X7135500Y-10305833D01*
X7135500Y-10305833D02*
X7116452Y-10296309D01*
X7116452Y-10296309D02*
X7106928Y-10286785D01*
X7106928Y-10286785D02*
X7097404Y-10267737D01*
X7097404Y-10267737D02*
X7087881Y-10229642D01*
X7087881Y-10229642D02*
X7087881Y-10182023D01*
X7087881Y-10182023D02*
X7097404Y-10143928D01*
X7097404Y-10143928D02*
X7106928Y-10124880D01*
X7106928Y-10124880D02*
X7116452Y-10115356D01*
X7116452Y-10115356D02*
X7135500Y-10105833D01*
X7268833Y-10105833D02*
X7392643Y-10105833D01*
X7392643Y-10105833D02*
X7325976Y-10182023D01*
X7325976Y-10182023D02*
X7354547Y-10182023D01*
X7354547Y-10182023D02*
X7373595Y-10191547D01*
X7373595Y-10191547D02*
X7383119Y-10201071D01*
X7383119Y-10201071D02*
X7392643Y-10220118D01*
X7392643Y-10220118D02*
X7392643Y-10267737D01*
X7392643Y-10267737D02*
X7383119Y-10286785D01*
X7383119Y-10286785D02*
X7373595Y-10296309D01*
X7373595Y-10296309D02*
X7354547Y-10305833D01*
X7354547Y-10305833D02*
X7297404Y-10305833D01*
X7297404Y-10305833D02*
X7278357Y-10296309D01*
X7278357Y-10296309D02*
X7268833Y-10286785D01*
X7487881Y-10305833D02*
X7525976Y-10305833D01*
X7525976Y-10305833D02*
X7545024Y-10296309D01*
X7545024Y-10296309D02*
X7554547Y-10286785D01*
X7554547Y-10286785D02*
X7573595Y-10258213D01*
X7573595Y-10258213D02*
X7583119Y-10220118D01*
X7583119Y-10220118D02*
X7583119Y-10143928D01*
X7583119Y-10143928D02*
X7573595Y-10124880D01*
X7573595Y-10124880D02*
X7564071Y-10115356D01*
X7564071Y-10115356D02*
X7545024Y-10105833D01*
X7545024Y-10105833D02*
X7506928Y-10105833D01*
X7506928Y-10105833D02*
X7487881Y-10115356D01*
X7487881Y-10115356D02*
X7478357Y-10124880D01*
X7478357Y-10124880D02*
X7468833Y-10143928D01*
X7468833Y-10143928D02*
X7468833Y-10191547D01*
X7468833Y-10191547D02*
X7478357Y-10210594D01*
X7478357Y-10210594D02*
X7487881Y-10220118D01*
X7487881Y-10220118D02*
X7506928Y-10229642D01*
X7506928Y-10229642D02*
X7545024Y-10229642D01*
X7545024Y-10229642D02*
X7564071Y-10220118D01*
X7564071Y-10220118D02*
X7573595Y-10210594D01*
X7573595Y-10210594D02*
X7583119Y-10191547D01*
X7754547Y-10172499D02*
X7754547Y-10305833D01*
X7706928Y-10096309D02*
X7659309Y-10239166D01*
X7659309Y-10239166D02*
X7783119Y-10239166D01*
X7849785Y-10105833D02*
X7849785Y-10143928D01*
X7925976Y-10105833D02*
X7925976Y-10143928D01*
X8221214Y-10382023D02*
X8211690Y-10372499D01*
X8211690Y-10372499D02*
X8192643Y-10343928D01*
X8192643Y-10343928D02*
X8183119Y-10324880D01*
X8183119Y-10324880D02*
X8173595Y-10296309D01*
X8173595Y-10296309D02*
X8164071Y-10248690D01*
X8164071Y-10248690D02*
X8164071Y-10210594D01*
X8164071Y-10210594D02*
X8173595Y-10162975D01*
X8173595Y-10162975D02*
X8183119Y-10134404D01*
X8183119Y-10134404D02*
X8192643Y-10115356D01*
X8192643Y-10115356D02*
X8211690Y-10086785D01*
X8211690Y-10086785D02*
X8221214Y-10077261D01*
X8278357Y-10105833D02*
X8411690Y-10105833D01*
X8411690Y-10105833D02*
X8325976Y-10305833D01*
X8592643Y-10305833D02*
X8478357Y-10305833D01*
X8535500Y-10305833D02*
X8535500Y-10105833D01*
X8535500Y-10105833D02*
X8516452Y-10134404D01*
X8516452Y-10134404D02*
X8497405Y-10153452D01*
X8497405Y-10153452D02*
X8478357Y-10162975D01*
X8830738Y-10305833D02*
X8830738Y-10105833D01*
X8916452Y-10305833D02*
X8916452Y-10201071D01*
X8916452Y-10201071D02*
X8906929Y-10182023D01*
X8906929Y-10182023D02*
X8887881Y-10172499D01*
X8887881Y-10172499D02*
X8859309Y-10172499D01*
X8859309Y-10172499D02*
X8840262Y-10182023D01*
X8840262Y-10182023D02*
X8830738Y-10191547D01*
X9040262Y-10305833D02*
X9021214Y-10296309D01*
X9021214Y-10296309D02*
X9011690Y-10286785D01*
X9011690Y-10286785D02*
X9002167Y-10267737D01*
X9002167Y-10267737D02*
X9002167Y-10210594D01*
X9002167Y-10210594D02*
X9011690Y-10191547D01*
X9011690Y-10191547D02*
X9021214Y-10182023D01*
X9021214Y-10182023D02*
X9040262Y-10172499D01*
X9040262Y-10172499D02*
X9068833Y-10172499D01*
X9068833Y-10172499D02*
X9087881Y-10182023D01*
X9087881Y-10182023D02*
X9097405Y-10191547D01*
X9097405Y-10191547D02*
X9106929Y-10210594D01*
X9106929Y-10210594D02*
X9106929Y-10267737D01*
X9106929Y-10267737D02*
X9097405Y-10286785D01*
X9097405Y-10286785D02*
X9087881Y-10296309D01*
X9087881Y-10296309D02*
X9068833Y-10305833D01*
X9068833Y-10305833D02*
X9040262Y-10305833D01*
X9221214Y-10305833D02*
X9202167Y-10296309D01*
X9202167Y-10296309D02*
X9192643Y-10277261D01*
X9192643Y-10277261D02*
X9192643Y-10105833D01*
X9373595Y-10296309D02*
X9354548Y-10305833D01*
X9354548Y-10305833D02*
X9316452Y-10305833D01*
X9316452Y-10305833D02*
X9297405Y-10296309D01*
X9297405Y-10296309D02*
X9287881Y-10277261D01*
X9287881Y-10277261D02*
X9287881Y-10201071D01*
X9287881Y-10201071D02*
X9297405Y-10182023D01*
X9297405Y-10182023D02*
X9316452Y-10172499D01*
X9316452Y-10172499D02*
X9354548Y-10172499D01*
X9354548Y-10172499D02*
X9373595Y-10182023D01*
X9373595Y-10182023D02*
X9383119Y-10201071D01*
X9383119Y-10201071D02*
X9383119Y-10220118D01*
X9383119Y-10220118D02*
X9287881Y-10239166D01*
X9459310Y-10296309D02*
X9478357Y-10305833D01*
X9478357Y-10305833D02*
X9516452Y-10305833D01*
X9516452Y-10305833D02*
X9535500Y-10296309D01*
X9535500Y-10296309D02*
X9545024Y-10277261D01*
X9545024Y-10277261D02*
X9545024Y-10267737D01*
X9545024Y-10267737D02*
X9535500Y-10248690D01*
X9535500Y-10248690D02*
X9516452Y-10239166D01*
X9516452Y-10239166D02*
X9487881Y-10239166D01*
X9487881Y-10239166D02*
X9468833Y-10229642D01*
X9468833Y-10229642D02*
X9459310Y-10210594D01*
X9459310Y-10210594D02*
X9459310Y-10201071D01*
X9459310Y-10201071D02*
X9468833Y-10182023D01*
X9468833Y-10182023D02*
X9487881Y-10172499D01*
X9487881Y-10172499D02*
X9516452Y-10172499D01*
X9516452Y-10172499D02*
X9535500Y-10182023D01*
X9611691Y-10382023D02*
X9621214Y-10372499D01*
X9621214Y-10372499D02*
X9640262Y-10343928D01*
X9640262Y-10343928D02*
X9649786Y-10324880D01*
X9649786Y-10324880D02*
X9659310Y-10296309D01*
X9659310Y-10296309D02*
X9668833Y-10248690D01*
X9668833Y-10248690D02*
X9668833Y-10210594D01*
X9668833Y-10210594D02*
X9659310Y-10162975D01*
X9659310Y-10162975D02*
X9649786Y-10134404D01*
X9649786Y-10134404D02*
X9640262Y-10115356D01*
X9640262Y-10115356D02*
X9621214Y-10086785D01*
X9621214Y-10086785D02*
X9611691Y-10077261D01*
D13*
X4624185Y-10531382D02*
X4624185Y-10425315D01*
X4518118Y-10425315D01*
X4518118Y-10531382D01*
X4624185Y-10531382D01*
D11*
X5011690Y-10569833D02*
X4897404Y-10569833D01*
X4954547Y-10569833D02*
X4954547Y-10369833D01*
X4954547Y-10369833D02*
X4935500Y-10398404D01*
X4935500Y-10398404D02*
X4916452Y-10417452D01*
X4916452Y-10417452D02*
X4897404Y-10426975D01*
X5097404Y-10550785D02*
X5106928Y-10560309D01*
X5106928Y-10560309D02*
X5097404Y-10569833D01*
X5097404Y-10569833D02*
X5087881Y-10560309D01*
X5087881Y-10560309D02*
X5097404Y-10550785D01*
X5097404Y-10550785D02*
X5097404Y-10569833D01*
X5287881Y-10369833D02*
X5192642Y-10369833D01*
X5192642Y-10369833D02*
X5183119Y-10465071D01*
X5183119Y-10465071D02*
X5192642Y-10455547D01*
X5192642Y-10455547D02*
X5211690Y-10446023D01*
X5211690Y-10446023D02*
X5259309Y-10446023D01*
X5259309Y-10446023D02*
X5278357Y-10455547D01*
X5278357Y-10455547D02*
X5287881Y-10465071D01*
X5287881Y-10465071D02*
X5297404Y-10484118D01*
X5297404Y-10484118D02*
X5297404Y-10531737D01*
X5297404Y-10531737D02*
X5287881Y-10550785D01*
X5287881Y-10550785D02*
X5278357Y-10560309D01*
X5278357Y-10560309D02*
X5259309Y-10569833D01*
X5259309Y-10569833D02*
X5211690Y-10569833D01*
X5211690Y-10569833D02*
X5192642Y-10560309D01*
X5192642Y-10560309D02*
X5183119Y-10550785D01*
X5421214Y-10369833D02*
X5440262Y-10369833D01*
X5440262Y-10369833D02*
X5459309Y-10379356D01*
X5459309Y-10379356D02*
X5468833Y-10388880D01*
X5468833Y-10388880D02*
X5478357Y-10407928D01*
X5478357Y-10407928D02*
X5487881Y-10446023D01*
X5487881Y-10446023D02*
X5487881Y-10493642D01*
X5487881Y-10493642D02*
X5478357Y-10531737D01*
X5478357Y-10531737D02*
X5468833Y-10550785D01*
X5468833Y-10550785D02*
X5459309Y-10560309D01*
X5459309Y-10560309D02*
X5440262Y-10569833D01*
X5440262Y-10569833D02*
X5421214Y-10569833D01*
X5421214Y-10569833D02*
X5402166Y-10560309D01*
X5402166Y-10560309D02*
X5392642Y-10550785D01*
X5392642Y-10550785D02*
X5383119Y-10531737D01*
X5383119Y-10531737D02*
X5373595Y-10493642D01*
X5373595Y-10493642D02*
X5373595Y-10446023D01*
X5373595Y-10446023D02*
X5383119Y-10407928D01*
X5383119Y-10407928D02*
X5392642Y-10388880D01*
X5392642Y-10388880D02*
X5402166Y-10379356D01*
X5402166Y-10379356D02*
X5421214Y-10369833D01*
X5611690Y-10369833D02*
X5630738Y-10369833D01*
X5630738Y-10369833D02*
X5649785Y-10379356D01*
X5649785Y-10379356D02*
X5659309Y-10388880D01*
X5659309Y-10388880D02*
X5668833Y-10407928D01*
X5668833Y-10407928D02*
X5678357Y-10446023D01*
X5678357Y-10446023D02*
X5678357Y-10493642D01*
X5678357Y-10493642D02*
X5668833Y-10531737D01*
X5668833Y-10531737D02*
X5659309Y-10550785D01*
X5659309Y-10550785D02*
X5649785Y-10560309D01*
X5649785Y-10560309D02*
X5630738Y-10569833D01*
X5630738Y-10569833D02*
X5611690Y-10569833D01*
X5611690Y-10569833D02*
X5592642Y-10560309D01*
X5592642Y-10560309D02*
X5583119Y-10550785D01*
X5583119Y-10550785D02*
X5573595Y-10531737D01*
X5573595Y-10531737D02*
X5564071Y-10493642D01*
X5564071Y-10493642D02*
X5564071Y-10446023D01*
X5564071Y-10446023D02*
X5573595Y-10407928D01*
X5573595Y-10407928D02*
X5583119Y-10388880D01*
X5583119Y-10388880D02*
X5592642Y-10379356D01*
X5592642Y-10379356D02*
X5611690Y-10369833D01*
X5764071Y-10569833D02*
X5764071Y-10436499D01*
X5764071Y-10455547D02*
X5773595Y-10446023D01*
X5773595Y-10446023D02*
X5792642Y-10436499D01*
X5792642Y-10436499D02*
X5821214Y-10436499D01*
X5821214Y-10436499D02*
X5840261Y-10446023D01*
X5840261Y-10446023D02*
X5849785Y-10465071D01*
X5849785Y-10465071D02*
X5849785Y-10569833D01*
X5849785Y-10465071D02*
X5859309Y-10446023D01*
X5859309Y-10446023D02*
X5878357Y-10436499D01*
X5878357Y-10436499D02*
X5906928Y-10436499D01*
X5906928Y-10436499D02*
X5925976Y-10446023D01*
X5925976Y-10446023D02*
X5935500Y-10465071D01*
X5935500Y-10465071D02*
X5935500Y-10569833D01*
X6030738Y-10569833D02*
X6030738Y-10436499D01*
X6030738Y-10455547D02*
X6040261Y-10446023D01*
X6040261Y-10446023D02*
X6059309Y-10436499D01*
X6059309Y-10436499D02*
X6087881Y-10436499D01*
X6087881Y-10436499D02*
X6106928Y-10446023D01*
X6106928Y-10446023D02*
X6116452Y-10465071D01*
X6116452Y-10465071D02*
X6116452Y-10569833D01*
X6116452Y-10465071D02*
X6125976Y-10446023D01*
X6125976Y-10446023D02*
X6145023Y-10436499D01*
X6145023Y-10436499D02*
X6173595Y-10436499D01*
X6173595Y-10436499D02*
X6192642Y-10446023D01*
X6192642Y-10446023D02*
X6202166Y-10465071D01*
X6202166Y-10465071D02*
X6202166Y-10569833D01*
X6592642Y-10360309D02*
X6421214Y-10617452D01*
X6849785Y-10369833D02*
X6868833Y-10369833D01*
X6868833Y-10369833D02*
X6887881Y-10379356D01*
X6887881Y-10379356D02*
X6897404Y-10388880D01*
X6897404Y-10388880D02*
X6906928Y-10407928D01*
X6906928Y-10407928D02*
X6916452Y-10446023D01*
X6916452Y-10446023D02*
X6916452Y-10493642D01*
X6916452Y-10493642D02*
X6906928Y-10531737D01*
X6906928Y-10531737D02*
X6897404Y-10550785D01*
X6897404Y-10550785D02*
X6887881Y-10560309D01*
X6887881Y-10560309D02*
X6868833Y-10569833D01*
X6868833Y-10569833D02*
X6849785Y-10569833D01*
X6849785Y-10569833D02*
X6830738Y-10560309D01*
X6830738Y-10560309D02*
X6821214Y-10550785D01*
X6821214Y-10550785D02*
X6811690Y-10531737D01*
X6811690Y-10531737D02*
X6802166Y-10493642D01*
X6802166Y-10493642D02*
X6802166Y-10446023D01*
X6802166Y-10446023D02*
X6811690Y-10407928D01*
X6811690Y-10407928D02*
X6821214Y-10388880D01*
X6821214Y-10388880D02*
X6830738Y-10379356D01*
X6830738Y-10379356D02*
X6849785Y-10369833D01*
X7002166Y-10550785D02*
X7011690Y-10560309D01*
X7011690Y-10560309D02*
X7002166Y-10569833D01*
X7002166Y-10569833D02*
X6992643Y-10560309D01*
X6992643Y-10560309D02*
X7002166Y-10550785D01*
X7002166Y-10550785D02*
X7002166Y-10569833D01*
X7135500Y-10369833D02*
X7154547Y-10369833D01*
X7154547Y-10369833D02*
X7173595Y-10379356D01*
X7173595Y-10379356D02*
X7183119Y-10388880D01*
X7183119Y-10388880D02*
X7192643Y-10407928D01*
X7192643Y-10407928D02*
X7202166Y-10446023D01*
X7202166Y-10446023D02*
X7202166Y-10493642D01*
X7202166Y-10493642D02*
X7192643Y-10531737D01*
X7192643Y-10531737D02*
X7183119Y-10550785D01*
X7183119Y-10550785D02*
X7173595Y-10560309D01*
X7173595Y-10560309D02*
X7154547Y-10569833D01*
X7154547Y-10569833D02*
X7135500Y-10569833D01*
X7135500Y-10569833D02*
X7116452Y-10560309D01*
X7116452Y-10560309D02*
X7106928Y-10550785D01*
X7106928Y-10550785D02*
X7097404Y-10531737D01*
X7097404Y-10531737D02*
X7087881Y-10493642D01*
X7087881Y-10493642D02*
X7087881Y-10446023D01*
X7087881Y-10446023D02*
X7097404Y-10407928D01*
X7097404Y-10407928D02*
X7106928Y-10388880D01*
X7106928Y-10388880D02*
X7116452Y-10379356D01*
X7116452Y-10379356D02*
X7135500Y-10369833D01*
X7383119Y-10369833D02*
X7287881Y-10369833D01*
X7287881Y-10369833D02*
X7278357Y-10465071D01*
X7278357Y-10465071D02*
X7287881Y-10455547D01*
X7287881Y-10455547D02*
X7306928Y-10446023D01*
X7306928Y-10446023D02*
X7354547Y-10446023D01*
X7354547Y-10446023D02*
X7373595Y-10455547D01*
X7373595Y-10455547D02*
X7383119Y-10465071D01*
X7383119Y-10465071D02*
X7392643Y-10484118D01*
X7392643Y-10484118D02*
X7392643Y-10531737D01*
X7392643Y-10531737D02*
X7383119Y-10550785D01*
X7383119Y-10550785D02*
X7373595Y-10560309D01*
X7373595Y-10560309D02*
X7354547Y-10569833D01*
X7354547Y-10569833D02*
X7306928Y-10569833D01*
X7306928Y-10569833D02*
X7287881Y-10560309D01*
X7287881Y-10560309D02*
X7278357Y-10550785D01*
X7487881Y-10569833D02*
X7525976Y-10569833D01*
X7525976Y-10569833D02*
X7545024Y-10560309D01*
X7545024Y-10560309D02*
X7554547Y-10550785D01*
X7554547Y-10550785D02*
X7573595Y-10522213D01*
X7573595Y-10522213D02*
X7583119Y-10484118D01*
X7583119Y-10484118D02*
X7583119Y-10407928D01*
X7583119Y-10407928D02*
X7573595Y-10388880D01*
X7573595Y-10388880D02*
X7564071Y-10379356D01*
X7564071Y-10379356D02*
X7545024Y-10369833D01*
X7545024Y-10369833D02*
X7506928Y-10369833D01*
X7506928Y-10369833D02*
X7487881Y-10379356D01*
X7487881Y-10379356D02*
X7478357Y-10388880D01*
X7478357Y-10388880D02*
X7468833Y-10407928D01*
X7468833Y-10407928D02*
X7468833Y-10455547D01*
X7468833Y-10455547D02*
X7478357Y-10474594D01*
X7478357Y-10474594D02*
X7487881Y-10484118D01*
X7487881Y-10484118D02*
X7506928Y-10493642D01*
X7506928Y-10493642D02*
X7545024Y-10493642D01*
X7545024Y-10493642D02*
X7564071Y-10484118D01*
X7564071Y-10484118D02*
X7573595Y-10474594D01*
X7573595Y-10474594D02*
X7583119Y-10455547D01*
X7773595Y-10569833D02*
X7659309Y-10569833D01*
X7716452Y-10569833D02*
X7716452Y-10369833D01*
X7716452Y-10369833D02*
X7697404Y-10398404D01*
X7697404Y-10398404D02*
X7678357Y-10417452D01*
X7678357Y-10417452D02*
X7659309Y-10426975D01*
X7849785Y-10369833D02*
X7849785Y-10407928D01*
X7925976Y-10369833D02*
X7925976Y-10407928D01*
X8221214Y-10646023D02*
X8211690Y-10636499D01*
X8211690Y-10636499D02*
X8192643Y-10607928D01*
X8192643Y-10607928D02*
X8183119Y-10588880D01*
X8183119Y-10588880D02*
X8173595Y-10560309D01*
X8173595Y-10560309D02*
X8164071Y-10512690D01*
X8164071Y-10512690D02*
X8164071Y-10474594D01*
X8164071Y-10474594D02*
X8173595Y-10426975D01*
X8173595Y-10426975D02*
X8183119Y-10398404D01*
X8183119Y-10398404D02*
X8192643Y-10379356D01*
X8192643Y-10379356D02*
X8211690Y-10350785D01*
X8211690Y-10350785D02*
X8221214Y-10341261D01*
X8287881Y-10388880D02*
X8297405Y-10379356D01*
X8297405Y-10379356D02*
X8316452Y-10369833D01*
X8316452Y-10369833D02*
X8364071Y-10369833D01*
X8364071Y-10369833D02*
X8383119Y-10379356D01*
X8383119Y-10379356D02*
X8392643Y-10388880D01*
X8392643Y-10388880D02*
X8402167Y-10407928D01*
X8402167Y-10407928D02*
X8402167Y-10426975D01*
X8402167Y-10426975D02*
X8392643Y-10455547D01*
X8392643Y-10455547D02*
X8278357Y-10569833D01*
X8278357Y-10569833D02*
X8402167Y-10569833D01*
X8640262Y-10569833D02*
X8640262Y-10369833D01*
X8725976Y-10569833D02*
X8725976Y-10465071D01*
X8725976Y-10465071D02*
X8716452Y-10446023D01*
X8716452Y-10446023D02*
X8697405Y-10436499D01*
X8697405Y-10436499D02*
X8668833Y-10436499D01*
X8668833Y-10436499D02*
X8649786Y-10446023D01*
X8649786Y-10446023D02*
X8640262Y-10455547D01*
X8849786Y-10569833D02*
X8830738Y-10560309D01*
X8830738Y-10560309D02*
X8821214Y-10550785D01*
X8821214Y-10550785D02*
X8811690Y-10531737D01*
X8811690Y-10531737D02*
X8811690Y-10474594D01*
X8811690Y-10474594D02*
X8821214Y-10455547D01*
X8821214Y-10455547D02*
X8830738Y-10446023D01*
X8830738Y-10446023D02*
X8849786Y-10436499D01*
X8849786Y-10436499D02*
X8878357Y-10436499D01*
X8878357Y-10436499D02*
X8897405Y-10446023D01*
X8897405Y-10446023D02*
X8906929Y-10455547D01*
X8906929Y-10455547D02*
X8916452Y-10474594D01*
X8916452Y-10474594D02*
X8916452Y-10531737D01*
X8916452Y-10531737D02*
X8906929Y-10550785D01*
X8906929Y-10550785D02*
X8897405Y-10560309D01*
X8897405Y-10560309D02*
X8878357Y-10569833D01*
X8878357Y-10569833D02*
X8849786Y-10569833D01*
X9030738Y-10569833D02*
X9011690Y-10560309D01*
X9011690Y-10560309D02*
X9002167Y-10541261D01*
X9002167Y-10541261D02*
X9002167Y-10369833D01*
X9183119Y-10560309D02*
X9164071Y-10569833D01*
X9164071Y-10569833D02*
X9125976Y-10569833D01*
X9125976Y-10569833D02*
X9106929Y-10560309D01*
X9106929Y-10560309D02*
X9097405Y-10541261D01*
X9097405Y-10541261D02*
X9097405Y-10465071D01*
X9097405Y-10465071D02*
X9106929Y-10446023D01*
X9106929Y-10446023D02*
X9125976Y-10436499D01*
X9125976Y-10436499D02*
X9164071Y-10436499D01*
X9164071Y-10436499D02*
X9183119Y-10446023D01*
X9183119Y-10446023D02*
X9192643Y-10465071D01*
X9192643Y-10465071D02*
X9192643Y-10484118D01*
X9192643Y-10484118D02*
X9097405Y-10503166D01*
X9268833Y-10560309D02*
X9287881Y-10569833D01*
X9287881Y-10569833D02*
X9325976Y-10569833D01*
X9325976Y-10569833D02*
X9345024Y-10560309D01*
X9345024Y-10560309D02*
X9354548Y-10541261D01*
X9354548Y-10541261D02*
X9354548Y-10531737D01*
X9354548Y-10531737D02*
X9345024Y-10512690D01*
X9345024Y-10512690D02*
X9325976Y-10503166D01*
X9325976Y-10503166D02*
X9297405Y-10503166D01*
X9297405Y-10503166D02*
X9278357Y-10493642D01*
X9278357Y-10493642D02*
X9268833Y-10474594D01*
X9268833Y-10474594D02*
X9268833Y-10465071D01*
X9268833Y-10465071D02*
X9278357Y-10446023D01*
X9278357Y-10446023D02*
X9297405Y-10436499D01*
X9297405Y-10436499D02*
X9325976Y-10436499D01*
X9325976Y-10436499D02*
X9345024Y-10446023D01*
X9421214Y-10646023D02*
X9430738Y-10636499D01*
X9430738Y-10636499D02*
X9449786Y-10607928D01*
X9449786Y-10607928D02*
X9459310Y-10588880D01*
X9459310Y-10588880D02*
X9468833Y-10560309D01*
X9468833Y-10560309D02*
X9478357Y-10512690D01*
X9478357Y-10512690D02*
X9478357Y-10474594D01*
X9478357Y-10474594D02*
X9468833Y-10426975D01*
X9468833Y-10426975D02*
X9459310Y-10398404D01*
X9459310Y-10398404D02*
X9449786Y-10379356D01*
X9449786Y-10379356D02*
X9430738Y-10350785D01*
X9430738Y-10350785D02*
X9421214Y-10341261D01*
D14*
X4570151Y-10824349D02*
X4646151Y-10748349D01*
X4570151Y-10672349D01*
X4494151Y-10748349D01*
X4570151Y-10824349D01*
D11*
X5011690Y-10839833D02*
X4897404Y-10839833D01*
X4954547Y-10839833D02*
X4954547Y-10639833D01*
X4954547Y-10639833D02*
X4935500Y-10668404D01*
X4935500Y-10668404D02*
X4916452Y-10687452D01*
X4916452Y-10687452D02*
X4897404Y-10696975D01*
X5097404Y-10820785D02*
X5106928Y-10830309D01*
X5106928Y-10830309D02*
X5097404Y-10839833D01*
X5097404Y-10839833D02*
X5087881Y-10830309D01*
X5087881Y-10830309D02*
X5097404Y-10820785D01*
X5097404Y-10820785D02*
X5097404Y-10839833D01*
X5287881Y-10639833D02*
X5192642Y-10639833D01*
X5192642Y-10639833D02*
X5183119Y-10735071D01*
X5183119Y-10735071D02*
X5192642Y-10725547D01*
X5192642Y-10725547D02*
X5211690Y-10716023D01*
X5211690Y-10716023D02*
X5259309Y-10716023D01*
X5259309Y-10716023D02*
X5278357Y-10725547D01*
X5278357Y-10725547D02*
X5287881Y-10735071D01*
X5287881Y-10735071D02*
X5297404Y-10754118D01*
X5297404Y-10754118D02*
X5297404Y-10801737D01*
X5297404Y-10801737D02*
X5287881Y-10820785D01*
X5287881Y-10820785D02*
X5278357Y-10830309D01*
X5278357Y-10830309D02*
X5259309Y-10839833D01*
X5259309Y-10839833D02*
X5211690Y-10839833D01*
X5211690Y-10839833D02*
X5192642Y-10830309D01*
X5192642Y-10830309D02*
X5183119Y-10820785D01*
X5373595Y-10658880D02*
X5383119Y-10649356D01*
X5383119Y-10649356D02*
X5402166Y-10639833D01*
X5402166Y-10639833D02*
X5449785Y-10639833D01*
X5449785Y-10639833D02*
X5468833Y-10649356D01*
X5468833Y-10649356D02*
X5478357Y-10658880D01*
X5478357Y-10658880D02*
X5487881Y-10677928D01*
X5487881Y-10677928D02*
X5487881Y-10696975D01*
X5487881Y-10696975D02*
X5478357Y-10725547D01*
X5478357Y-10725547D02*
X5364071Y-10839833D01*
X5364071Y-10839833D02*
X5487881Y-10839833D01*
X5611690Y-10639833D02*
X5630738Y-10639833D01*
X5630738Y-10639833D02*
X5649785Y-10649356D01*
X5649785Y-10649356D02*
X5659309Y-10658880D01*
X5659309Y-10658880D02*
X5668833Y-10677928D01*
X5668833Y-10677928D02*
X5678357Y-10716023D01*
X5678357Y-10716023D02*
X5678357Y-10763642D01*
X5678357Y-10763642D02*
X5668833Y-10801737D01*
X5668833Y-10801737D02*
X5659309Y-10820785D01*
X5659309Y-10820785D02*
X5649785Y-10830309D01*
X5649785Y-10830309D02*
X5630738Y-10839833D01*
X5630738Y-10839833D02*
X5611690Y-10839833D01*
X5611690Y-10839833D02*
X5592642Y-10830309D01*
X5592642Y-10830309D02*
X5583119Y-10820785D01*
X5583119Y-10820785D02*
X5573595Y-10801737D01*
X5573595Y-10801737D02*
X5564071Y-10763642D01*
X5564071Y-10763642D02*
X5564071Y-10716023D01*
X5564071Y-10716023D02*
X5573595Y-10677928D01*
X5573595Y-10677928D02*
X5583119Y-10658880D01*
X5583119Y-10658880D02*
X5592642Y-10649356D01*
X5592642Y-10649356D02*
X5611690Y-10639833D01*
X5764071Y-10839833D02*
X5764071Y-10706499D01*
X5764071Y-10725547D02*
X5773595Y-10716023D01*
X5773595Y-10716023D02*
X5792642Y-10706499D01*
X5792642Y-10706499D02*
X5821214Y-10706499D01*
X5821214Y-10706499D02*
X5840261Y-10716023D01*
X5840261Y-10716023D02*
X5849785Y-10735071D01*
X5849785Y-10735071D02*
X5849785Y-10839833D01*
X5849785Y-10735071D02*
X5859309Y-10716023D01*
X5859309Y-10716023D02*
X5878357Y-10706499D01*
X5878357Y-10706499D02*
X5906928Y-10706499D01*
X5906928Y-10706499D02*
X5925976Y-10716023D01*
X5925976Y-10716023D02*
X5935500Y-10735071D01*
X5935500Y-10735071D02*
X5935500Y-10839833D01*
X6030738Y-10839833D02*
X6030738Y-10706499D01*
X6030738Y-10725547D02*
X6040261Y-10716023D01*
X6040261Y-10716023D02*
X6059309Y-10706499D01*
X6059309Y-10706499D02*
X6087881Y-10706499D01*
X6087881Y-10706499D02*
X6106928Y-10716023D01*
X6106928Y-10716023D02*
X6116452Y-10735071D01*
X6116452Y-10735071D02*
X6116452Y-10839833D01*
X6116452Y-10735071D02*
X6125976Y-10716023D01*
X6125976Y-10716023D02*
X6145023Y-10706499D01*
X6145023Y-10706499D02*
X6173595Y-10706499D01*
X6173595Y-10706499D02*
X6192642Y-10716023D01*
X6192642Y-10716023D02*
X6202166Y-10735071D01*
X6202166Y-10735071D02*
X6202166Y-10839833D01*
X6592642Y-10630309D02*
X6421214Y-10887452D01*
X6849785Y-10639833D02*
X6868833Y-10639833D01*
X6868833Y-10639833D02*
X6887881Y-10649356D01*
X6887881Y-10649356D02*
X6897404Y-10658880D01*
X6897404Y-10658880D02*
X6906928Y-10677928D01*
X6906928Y-10677928D02*
X6916452Y-10716023D01*
X6916452Y-10716023D02*
X6916452Y-10763642D01*
X6916452Y-10763642D02*
X6906928Y-10801737D01*
X6906928Y-10801737D02*
X6897404Y-10820785D01*
X6897404Y-10820785D02*
X6887881Y-10830309D01*
X6887881Y-10830309D02*
X6868833Y-10839833D01*
X6868833Y-10839833D02*
X6849785Y-10839833D01*
X6849785Y-10839833D02*
X6830738Y-10830309D01*
X6830738Y-10830309D02*
X6821214Y-10820785D01*
X6821214Y-10820785D02*
X6811690Y-10801737D01*
X6811690Y-10801737D02*
X6802166Y-10763642D01*
X6802166Y-10763642D02*
X6802166Y-10716023D01*
X6802166Y-10716023D02*
X6811690Y-10677928D01*
X6811690Y-10677928D02*
X6821214Y-10658880D01*
X6821214Y-10658880D02*
X6830738Y-10649356D01*
X6830738Y-10649356D02*
X6849785Y-10639833D01*
X7002166Y-10820785D02*
X7011690Y-10830309D01*
X7011690Y-10830309D02*
X7002166Y-10839833D01*
X7002166Y-10839833D02*
X6992643Y-10830309D01*
X6992643Y-10830309D02*
X7002166Y-10820785D01*
X7002166Y-10820785D02*
X7002166Y-10839833D01*
X7135500Y-10639833D02*
X7154547Y-10639833D01*
X7154547Y-10639833D02*
X7173595Y-10649356D01*
X7173595Y-10649356D02*
X7183119Y-10658880D01*
X7183119Y-10658880D02*
X7192643Y-10677928D01*
X7192643Y-10677928D02*
X7202166Y-10716023D01*
X7202166Y-10716023D02*
X7202166Y-10763642D01*
X7202166Y-10763642D02*
X7192643Y-10801737D01*
X7192643Y-10801737D02*
X7183119Y-10820785D01*
X7183119Y-10820785D02*
X7173595Y-10830309D01*
X7173595Y-10830309D02*
X7154547Y-10839833D01*
X7154547Y-10839833D02*
X7135500Y-10839833D01*
X7135500Y-10839833D02*
X7116452Y-10830309D01*
X7116452Y-10830309D02*
X7106928Y-10820785D01*
X7106928Y-10820785D02*
X7097404Y-10801737D01*
X7097404Y-10801737D02*
X7087881Y-10763642D01*
X7087881Y-10763642D02*
X7087881Y-10716023D01*
X7087881Y-10716023D02*
X7097404Y-10677928D01*
X7097404Y-10677928D02*
X7106928Y-10658880D01*
X7106928Y-10658880D02*
X7116452Y-10649356D01*
X7116452Y-10649356D02*
X7135500Y-10639833D01*
X7383119Y-10639833D02*
X7287881Y-10639833D01*
X7287881Y-10639833D02*
X7278357Y-10735071D01*
X7278357Y-10735071D02*
X7287881Y-10725547D01*
X7287881Y-10725547D02*
X7306928Y-10716023D01*
X7306928Y-10716023D02*
X7354547Y-10716023D01*
X7354547Y-10716023D02*
X7373595Y-10725547D01*
X7373595Y-10725547D02*
X7383119Y-10735071D01*
X7383119Y-10735071D02*
X7392643Y-10754118D01*
X7392643Y-10754118D02*
X7392643Y-10801737D01*
X7392643Y-10801737D02*
X7383119Y-10820785D01*
X7383119Y-10820785D02*
X7373595Y-10830309D01*
X7373595Y-10830309D02*
X7354547Y-10839833D01*
X7354547Y-10839833D02*
X7306928Y-10839833D01*
X7306928Y-10839833D02*
X7287881Y-10830309D01*
X7287881Y-10830309D02*
X7278357Y-10820785D01*
X7487881Y-10839833D02*
X7525976Y-10839833D01*
X7525976Y-10839833D02*
X7545024Y-10830309D01*
X7545024Y-10830309D02*
X7554547Y-10820785D01*
X7554547Y-10820785D02*
X7573595Y-10792213D01*
X7573595Y-10792213D02*
X7583119Y-10754118D01*
X7583119Y-10754118D02*
X7583119Y-10677928D01*
X7583119Y-10677928D02*
X7573595Y-10658880D01*
X7573595Y-10658880D02*
X7564071Y-10649356D01*
X7564071Y-10649356D02*
X7545024Y-10639833D01*
X7545024Y-10639833D02*
X7506928Y-10639833D01*
X7506928Y-10639833D02*
X7487881Y-10649356D01*
X7487881Y-10649356D02*
X7478357Y-10658880D01*
X7478357Y-10658880D02*
X7468833Y-10677928D01*
X7468833Y-10677928D02*
X7468833Y-10725547D01*
X7468833Y-10725547D02*
X7478357Y-10744594D01*
X7478357Y-10744594D02*
X7487881Y-10754118D01*
X7487881Y-10754118D02*
X7506928Y-10763642D01*
X7506928Y-10763642D02*
X7545024Y-10763642D01*
X7545024Y-10763642D02*
X7564071Y-10754118D01*
X7564071Y-10754118D02*
X7573595Y-10744594D01*
X7573595Y-10744594D02*
X7583119Y-10725547D01*
X7697404Y-10725547D02*
X7678357Y-10716023D01*
X7678357Y-10716023D02*
X7668833Y-10706499D01*
X7668833Y-10706499D02*
X7659309Y-10687452D01*
X7659309Y-10687452D02*
X7659309Y-10677928D01*
X7659309Y-10677928D02*
X7668833Y-10658880D01*
X7668833Y-10658880D02*
X7678357Y-10649356D01*
X7678357Y-10649356D02*
X7697404Y-10639833D01*
X7697404Y-10639833D02*
X7735500Y-10639833D01*
X7735500Y-10639833D02*
X7754547Y-10649356D01*
X7754547Y-10649356D02*
X7764071Y-10658880D01*
X7764071Y-10658880D02*
X7773595Y-10677928D01*
X7773595Y-10677928D02*
X7773595Y-10687452D01*
X7773595Y-10687452D02*
X7764071Y-10706499D01*
X7764071Y-10706499D02*
X7754547Y-10716023D01*
X7754547Y-10716023D02*
X7735500Y-10725547D01*
X7735500Y-10725547D02*
X7697404Y-10725547D01*
X7697404Y-10725547D02*
X7678357Y-10735071D01*
X7678357Y-10735071D02*
X7668833Y-10744594D01*
X7668833Y-10744594D02*
X7659309Y-10763642D01*
X7659309Y-10763642D02*
X7659309Y-10801737D01*
X7659309Y-10801737D02*
X7668833Y-10820785D01*
X7668833Y-10820785D02*
X7678357Y-10830309D01*
X7678357Y-10830309D02*
X7697404Y-10839833D01*
X7697404Y-10839833D02*
X7735500Y-10839833D01*
X7735500Y-10839833D02*
X7754547Y-10830309D01*
X7754547Y-10830309D02*
X7764071Y-10820785D01*
X7764071Y-10820785D02*
X7773595Y-10801737D01*
X7773595Y-10801737D02*
X7773595Y-10763642D01*
X7773595Y-10763642D02*
X7764071Y-10744594D01*
X7764071Y-10744594D02*
X7754547Y-10735071D01*
X7754547Y-10735071D02*
X7735500Y-10725547D01*
X7849785Y-10639833D02*
X7849785Y-10677928D01*
X7925976Y-10639833D02*
X7925976Y-10677928D01*
X8221214Y-10916023D02*
X8211690Y-10906499D01*
X8211690Y-10906499D02*
X8192643Y-10877928D01*
X8192643Y-10877928D02*
X8183119Y-10858880D01*
X8183119Y-10858880D02*
X8173595Y-10830309D01*
X8173595Y-10830309D02*
X8164071Y-10782690D01*
X8164071Y-10782690D02*
X8164071Y-10744594D01*
X8164071Y-10744594D02*
X8173595Y-10696975D01*
X8173595Y-10696975D02*
X8183119Y-10668404D01*
X8183119Y-10668404D02*
X8192643Y-10649356D01*
X8192643Y-10649356D02*
X8211690Y-10620785D01*
X8211690Y-10620785D02*
X8221214Y-10611261D01*
X8287881Y-10658880D02*
X8297405Y-10649356D01*
X8297405Y-10649356D02*
X8316452Y-10639833D01*
X8316452Y-10639833D02*
X8364071Y-10639833D01*
X8364071Y-10639833D02*
X8383119Y-10649356D01*
X8383119Y-10649356D02*
X8392643Y-10658880D01*
X8392643Y-10658880D02*
X8402167Y-10677928D01*
X8402167Y-10677928D02*
X8402167Y-10696975D01*
X8402167Y-10696975D02*
X8392643Y-10725547D01*
X8392643Y-10725547D02*
X8278357Y-10839833D01*
X8278357Y-10839833D02*
X8402167Y-10839833D01*
X8640262Y-10839833D02*
X8640262Y-10639833D01*
X8725976Y-10839833D02*
X8725976Y-10735071D01*
X8725976Y-10735071D02*
X8716452Y-10716023D01*
X8716452Y-10716023D02*
X8697405Y-10706499D01*
X8697405Y-10706499D02*
X8668833Y-10706499D01*
X8668833Y-10706499D02*
X8649786Y-10716023D01*
X8649786Y-10716023D02*
X8640262Y-10725547D01*
X8849786Y-10839833D02*
X8830738Y-10830309D01*
X8830738Y-10830309D02*
X8821214Y-10820785D01*
X8821214Y-10820785D02*
X8811690Y-10801737D01*
X8811690Y-10801737D02*
X8811690Y-10744594D01*
X8811690Y-10744594D02*
X8821214Y-10725547D01*
X8821214Y-10725547D02*
X8830738Y-10716023D01*
X8830738Y-10716023D02*
X8849786Y-10706499D01*
X8849786Y-10706499D02*
X8878357Y-10706499D01*
X8878357Y-10706499D02*
X8897405Y-10716023D01*
X8897405Y-10716023D02*
X8906929Y-10725547D01*
X8906929Y-10725547D02*
X8916452Y-10744594D01*
X8916452Y-10744594D02*
X8916452Y-10801737D01*
X8916452Y-10801737D02*
X8906929Y-10820785D01*
X8906929Y-10820785D02*
X8897405Y-10830309D01*
X8897405Y-10830309D02*
X8878357Y-10839833D01*
X8878357Y-10839833D02*
X8849786Y-10839833D01*
X9030738Y-10839833D02*
X9011690Y-10830309D01*
X9011690Y-10830309D02*
X9002167Y-10811261D01*
X9002167Y-10811261D02*
X9002167Y-10639833D01*
X9183119Y-10830309D02*
X9164071Y-10839833D01*
X9164071Y-10839833D02*
X9125976Y-10839833D01*
X9125976Y-10839833D02*
X9106929Y-10830309D01*
X9106929Y-10830309D02*
X9097405Y-10811261D01*
X9097405Y-10811261D02*
X9097405Y-10735071D01*
X9097405Y-10735071D02*
X9106929Y-10716023D01*
X9106929Y-10716023D02*
X9125976Y-10706499D01*
X9125976Y-10706499D02*
X9164071Y-10706499D01*
X9164071Y-10706499D02*
X9183119Y-10716023D01*
X9183119Y-10716023D02*
X9192643Y-10735071D01*
X9192643Y-10735071D02*
X9192643Y-10754118D01*
X9192643Y-10754118D02*
X9097405Y-10773166D01*
X9268833Y-10830309D02*
X9287881Y-10839833D01*
X9287881Y-10839833D02*
X9325976Y-10839833D01*
X9325976Y-10839833D02*
X9345024Y-10830309D01*
X9345024Y-10830309D02*
X9354548Y-10811261D01*
X9354548Y-10811261D02*
X9354548Y-10801737D01*
X9354548Y-10801737D02*
X9345024Y-10782690D01*
X9345024Y-10782690D02*
X9325976Y-10773166D01*
X9325976Y-10773166D02*
X9297405Y-10773166D01*
X9297405Y-10773166D02*
X9278357Y-10763642D01*
X9278357Y-10763642D02*
X9268833Y-10744594D01*
X9268833Y-10744594D02*
X9268833Y-10735071D01*
X9268833Y-10735071D02*
X9278357Y-10716023D01*
X9278357Y-10716023D02*
X9297405Y-10706499D01*
X9297405Y-10706499D02*
X9325976Y-10706499D01*
X9325976Y-10706499D02*
X9345024Y-10716023D01*
X9421214Y-10916023D02*
X9430738Y-10906499D01*
X9430738Y-10906499D02*
X9449786Y-10877928D01*
X9449786Y-10877928D02*
X9459310Y-10858880D01*
X9459310Y-10858880D02*
X9468833Y-10830309D01*
X9468833Y-10830309D02*
X9478357Y-10782690D01*
X9478357Y-10782690D02*
X9478357Y-10744594D01*
X9478357Y-10744594D02*
X9468833Y-10696975D01*
X9468833Y-10696975D02*
X9459310Y-10668404D01*
X9459310Y-10668404D02*
X9449786Y-10649356D01*
X9449786Y-10649356D02*
X9430738Y-10620785D01*
X9430738Y-10620785D02*
X9421214Y-10611261D01*
X4446151Y-10920349D02*
X4646151Y-11120349D01*
X4646151Y-10920349D02*
X4446151Y-11120349D01*
X4646151Y-11020349D02*
G75*
G02*
X4446151Y-11020349I-100000J0D01*
G01*
X4446151Y-11020349D02*
G75*
G02*
X4646151Y-11020349I100000J0D01*
G01*
X4887881Y-10911833D02*
X5011690Y-10911833D01*
X5011690Y-10911833D02*
X4945023Y-10988023D01*
X4945023Y-10988023D02*
X4973595Y-10988023D01*
X4973595Y-10988023D02*
X4992642Y-10997547D01*
X4992642Y-10997547D02*
X5002166Y-11007071D01*
X5002166Y-11007071D02*
X5011690Y-11026118D01*
X5011690Y-11026118D02*
X5011690Y-11073737D01*
X5011690Y-11073737D02*
X5002166Y-11092785D01*
X5002166Y-11092785D02*
X4992642Y-11102309D01*
X4992642Y-11102309D02*
X4973595Y-11111833D01*
X4973595Y-11111833D02*
X4916452Y-11111833D01*
X4916452Y-11111833D02*
X4897404Y-11102309D01*
X4897404Y-11102309D02*
X4887881Y-11092785D01*
X5097404Y-11092785D02*
X5106928Y-11102309D01*
X5106928Y-11102309D02*
X5097404Y-11111833D01*
X5097404Y-11111833D02*
X5087881Y-11102309D01*
X5087881Y-11102309D02*
X5097404Y-11092785D01*
X5097404Y-11092785D02*
X5097404Y-11111833D01*
X5183119Y-10930880D02*
X5192642Y-10921356D01*
X5192642Y-10921356D02*
X5211690Y-10911833D01*
X5211690Y-10911833D02*
X5259309Y-10911833D01*
X5259309Y-10911833D02*
X5278357Y-10921356D01*
X5278357Y-10921356D02*
X5287881Y-10930880D01*
X5287881Y-10930880D02*
X5297404Y-10949928D01*
X5297404Y-10949928D02*
X5297404Y-10968975D01*
X5297404Y-10968975D02*
X5287881Y-10997547D01*
X5287881Y-10997547D02*
X5173595Y-11111833D01*
X5173595Y-11111833D02*
X5297404Y-11111833D01*
X5478357Y-10911833D02*
X5383119Y-10911833D01*
X5383119Y-10911833D02*
X5373595Y-11007071D01*
X5373595Y-11007071D02*
X5383119Y-10997547D01*
X5383119Y-10997547D02*
X5402166Y-10988023D01*
X5402166Y-10988023D02*
X5449785Y-10988023D01*
X5449785Y-10988023D02*
X5468833Y-10997547D01*
X5468833Y-10997547D02*
X5478357Y-11007071D01*
X5478357Y-11007071D02*
X5487881Y-11026118D01*
X5487881Y-11026118D02*
X5487881Y-11073737D01*
X5487881Y-11073737D02*
X5478357Y-11092785D01*
X5478357Y-11092785D02*
X5468833Y-11102309D01*
X5468833Y-11102309D02*
X5449785Y-11111833D01*
X5449785Y-11111833D02*
X5402166Y-11111833D01*
X5402166Y-11111833D02*
X5383119Y-11102309D01*
X5383119Y-11102309D02*
X5373595Y-11092785D01*
X5611690Y-10911833D02*
X5630738Y-10911833D01*
X5630738Y-10911833D02*
X5649785Y-10921356D01*
X5649785Y-10921356D02*
X5659309Y-10930880D01*
X5659309Y-10930880D02*
X5668833Y-10949928D01*
X5668833Y-10949928D02*
X5678357Y-10988023D01*
X5678357Y-10988023D02*
X5678357Y-11035642D01*
X5678357Y-11035642D02*
X5668833Y-11073737D01*
X5668833Y-11073737D02*
X5659309Y-11092785D01*
X5659309Y-11092785D02*
X5649785Y-11102309D01*
X5649785Y-11102309D02*
X5630738Y-11111833D01*
X5630738Y-11111833D02*
X5611690Y-11111833D01*
X5611690Y-11111833D02*
X5592642Y-11102309D01*
X5592642Y-11102309D02*
X5583119Y-11092785D01*
X5583119Y-11092785D02*
X5573595Y-11073737D01*
X5573595Y-11073737D02*
X5564071Y-11035642D01*
X5564071Y-11035642D02*
X5564071Y-10988023D01*
X5564071Y-10988023D02*
X5573595Y-10949928D01*
X5573595Y-10949928D02*
X5583119Y-10930880D01*
X5583119Y-10930880D02*
X5592642Y-10921356D01*
X5592642Y-10921356D02*
X5611690Y-10911833D01*
X5764071Y-11111833D02*
X5764071Y-10978499D01*
X5764071Y-10997547D02*
X5773595Y-10988023D01*
X5773595Y-10988023D02*
X5792642Y-10978499D01*
X5792642Y-10978499D02*
X5821214Y-10978499D01*
X5821214Y-10978499D02*
X5840261Y-10988023D01*
X5840261Y-10988023D02*
X5849785Y-11007071D01*
X5849785Y-11007071D02*
X5849785Y-11111833D01*
X5849785Y-11007071D02*
X5859309Y-10988023D01*
X5859309Y-10988023D02*
X5878357Y-10978499D01*
X5878357Y-10978499D02*
X5906928Y-10978499D01*
X5906928Y-10978499D02*
X5925976Y-10988023D01*
X5925976Y-10988023D02*
X5935500Y-11007071D01*
X5935500Y-11007071D02*
X5935500Y-11111833D01*
X6030738Y-11111833D02*
X6030738Y-10978499D01*
X6030738Y-10997547D02*
X6040261Y-10988023D01*
X6040261Y-10988023D02*
X6059309Y-10978499D01*
X6059309Y-10978499D02*
X6087881Y-10978499D01*
X6087881Y-10978499D02*
X6106928Y-10988023D01*
X6106928Y-10988023D02*
X6116452Y-11007071D01*
X6116452Y-11007071D02*
X6116452Y-11111833D01*
X6116452Y-11007071D02*
X6125976Y-10988023D01*
X6125976Y-10988023D02*
X6145023Y-10978499D01*
X6145023Y-10978499D02*
X6173595Y-10978499D01*
X6173595Y-10978499D02*
X6192642Y-10988023D01*
X6192642Y-10988023D02*
X6202166Y-11007071D01*
X6202166Y-11007071D02*
X6202166Y-11111833D01*
X6592642Y-10902309D02*
X6421214Y-11159452D01*
X6849785Y-10911833D02*
X6868833Y-10911833D01*
X6868833Y-10911833D02*
X6887881Y-10921356D01*
X6887881Y-10921356D02*
X6897404Y-10930880D01*
X6897404Y-10930880D02*
X6906928Y-10949928D01*
X6906928Y-10949928D02*
X6916452Y-10988023D01*
X6916452Y-10988023D02*
X6916452Y-11035642D01*
X6916452Y-11035642D02*
X6906928Y-11073737D01*
X6906928Y-11073737D02*
X6897404Y-11092785D01*
X6897404Y-11092785D02*
X6887881Y-11102309D01*
X6887881Y-11102309D02*
X6868833Y-11111833D01*
X6868833Y-11111833D02*
X6849785Y-11111833D01*
X6849785Y-11111833D02*
X6830738Y-11102309D01*
X6830738Y-11102309D02*
X6821214Y-11092785D01*
X6821214Y-11092785D02*
X6811690Y-11073737D01*
X6811690Y-11073737D02*
X6802166Y-11035642D01*
X6802166Y-11035642D02*
X6802166Y-10988023D01*
X6802166Y-10988023D02*
X6811690Y-10949928D01*
X6811690Y-10949928D02*
X6821214Y-10930880D01*
X6821214Y-10930880D02*
X6830738Y-10921356D01*
X6830738Y-10921356D02*
X6849785Y-10911833D01*
X7002166Y-11092785D02*
X7011690Y-11102309D01*
X7011690Y-11102309D02*
X7002166Y-11111833D01*
X7002166Y-11111833D02*
X6992643Y-11102309D01*
X6992643Y-11102309D02*
X7002166Y-11092785D01*
X7002166Y-11092785D02*
X7002166Y-11111833D01*
X7202166Y-11111833D02*
X7087881Y-11111833D01*
X7145023Y-11111833D02*
X7145023Y-10911833D01*
X7145023Y-10911833D02*
X7125976Y-10940404D01*
X7125976Y-10940404D02*
X7106928Y-10959452D01*
X7106928Y-10959452D02*
X7087881Y-10968975D01*
X7278357Y-10930880D02*
X7287881Y-10921356D01*
X7287881Y-10921356D02*
X7306928Y-10911833D01*
X7306928Y-10911833D02*
X7354547Y-10911833D01*
X7354547Y-10911833D02*
X7373595Y-10921356D01*
X7373595Y-10921356D02*
X7383119Y-10930880D01*
X7383119Y-10930880D02*
X7392643Y-10949928D01*
X7392643Y-10949928D02*
X7392643Y-10968975D01*
X7392643Y-10968975D02*
X7383119Y-10997547D01*
X7383119Y-10997547D02*
X7268833Y-11111833D01*
X7268833Y-11111833D02*
X7392643Y-11111833D01*
X7506928Y-10997547D02*
X7487881Y-10988023D01*
X7487881Y-10988023D02*
X7478357Y-10978499D01*
X7478357Y-10978499D02*
X7468833Y-10959452D01*
X7468833Y-10959452D02*
X7468833Y-10949928D01*
X7468833Y-10949928D02*
X7478357Y-10930880D01*
X7478357Y-10930880D02*
X7487881Y-10921356D01*
X7487881Y-10921356D02*
X7506928Y-10911833D01*
X7506928Y-10911833D02*
X7545024Y-10911833D01*
X7545024Y-10911833D02*
X7564071Y-10921356D01*
X7564071Y-10921356D02*
X7573595Y-10930880D01*
X7573595Y-10930880D02*
X7583119Y-10949928D01*
X7583119Y-10949928D02*
X7583119Y-10959452D01*
X7583119Y-10959452D02*
X7573595Y-10978499D01*
X7573595Y-10978499D02*
X7564071Y-10988023D01*
X7564071Y-10988023D02*
X7545024Y-10997547D01*
X7545024Y-10997547D02*
X7506928Y-10997547D01*
X7506928Y-10997547D02*
X7487881Y-11007071D01*
X7487881Y-11007071D02*
X7478357Y-11016594D01*
X7478357Y-11016594D02*
X7468833Y-11035642D01*
X7468833Y-11035642D02*
X7468833Y-11073737D01*
X7468833Y-11073737D02*
X7478357Y-11092785D01*
X7478357Y-11092785D02*
X7487881Y-11102309D01*
X7487881Y-11102309D02*
X7506928Y-11111833D01*
X7506928Y-11111833D02*
X7545024Y-11111833D01*
X7545024Y-11111833D02*
X7564071Y-11102309D01*
X7564071Y-11102309D02*
X7573595Y-11092785D01*
X7573595Y-11092785D02*
X7583119Y-11073737D01*
X7583119Y-11073737D02*
X7583119Y-11035642D01*
X7583119Y-11035642D02*
X7573595Y-11016594D01*
X7573595Y-11016594D02*
X7564071Y-11007071D01*
X7564071Y-11007071D02*
X7545024Y-10997547D01*
X7706928Y-10911833D02*
X7725976Y-10911833D01*
X7725976Y-10911833D02*
X7745024Y-10921356D01*
X7745024Y-10921356D02*
X7754547Y-10930880D01*
X7754547Y-10930880D02*
X7764071Y-10949928D01*
X7764071Y-10949928D02*
X7773595Y-10988023D01*
X7773595Y-10988023D02*
X7773595Y-11035642D01*
X7773595Y-11035642D02*
X7764071Y-11073737D01*
X7764071Y-11073737D02*
X7754547Y-11092785D01*
X7754547Y-11092785D02*
X7745024Y-11102309D01*
X7745024Y-11102309D02*
X7725976Y-11111833D01*
X7725976Y-11111833D02*
X7706928Y-11111833D01*
X7706928Y-11111833D02*
X7687881Y-11102309D01*
X7687881Y-11102309D02*
X7678357Y-11092785D01*
X7678357Y-11092785D02*
X7668833Y-11073737D01*
X7668833Y-11073737D02*
X7659309Y-11035642D01*
X7659309Y-11035642D02*
X7659309Y-10988023D01*
X7659309Y-10988023D02*
X7668833Y-10949928D01*
X7668833Y-10949928D02*
X7678357Y-10930880D01*
X7678357Y-10930880D02*
X7687881Y-10921356D01*
X7687881Y-10921356D02*
X7706928Y-10911833D01*
X7849785Y-10911833D02*
X7849785Y-10949928D01*
X7925976Y-10911833D02*
X7925976Y-10949928D01*
X8221214Y-11188023D02*
X8211690Y-11178499D01*
X8211690Y-11178499D02*
X8192643Y-11149928D01*
X8192643Y-11149928D02*
X8183119Y-11130880D01*
X8183119Y-11130880D02*
X8173595Y-11102309D01*
X8173595Y-11102309D02*
X8164071Y-11054690D01*
X8164071Y-11054690D02*
X8164071Y-11016594D01*
X8164071Y-11016594D02*
X8173595Y-10968975D01*
X8173595Y-10968975D02*
X8183119Y-10940404D01*
X8183119Y-10940404D02*
X8192643Y-10921356D01*
X8192643Y-10921356D02*
X8211690Y-10892785D01*
X8211690Y-10892785D02*
X8221214Y-10883261D01*
X8278357Y-10911833D02*
X8411690Y-10911833D01*
X8411690Y-10911833D02*
X8325976Y-11111833D01*
X8640262Y-11111833D02*
X8640262Y-10911833D01*
X8725976Y-11111833D02*
X8725976Y-11007071D01*
X8725976Y-11007071D02*
X8716452Y-10988023D01*
X8716452Y-10988023D02*
X8697405Y-10978499D01*
X8697405Y-10978499D02*
X8668833Y-10978499D01*
X8668833Y-10978499D02*
X8649786Y-10988023D01*
X8649786Y-10988023D02*
X8640262Y-10997547D01*
X8849786Y-11111833D02*
X8830738Y-11102309D01*
X8830738Y-11102309D02*
X8821214Y-11092785D01*
X8821214Y-11092785D02*
X8811690Y-11073737D01*
X8811690Y-11073737D02*
X8811690Y-11016594D01*
X8811690Y-11016594D02*
X8821214Y-10997547D01*
X8821214Y-10997547D02*
X8830738Y-10988023D01*
X8830738Y-10988023D02*
X8849786Y-10978499D01*
X8849786Y-10978499D02*
X8878357Y-10978499D01*
X8878357Y-10978499D02*
X8897405Y-10988023D01*
X8897405Y-10988023D02*
X8906929Y-10997547D01*
X8906929Y-10997547D02*
X8916452Y-11016594D01*
X8916452Y-11016594D02*
X8916452Y-11073737D01*
X8916452Y-11073737D02*
X8906929Y-11092785D01*
X8906929Y-11092785D02*
X8897405Y-11102309D01*
X8897405Y-11102309D02*
X8878357Y-11111833D01*
X8878357Y-11111833D02*
X8849786Y-11111833D01*
X9030738Y-11111833D02*
X9011690Y-11102309D01*
X9011690Y-11102309D02*
X9002167Y-11083261D01*
X9002167Y-11083261D02*
X9002167Y-10911833D01*
X9183119Y-11102309D02*
X9164071Y-11111833D01*
X9164071Y-11111833D02*
X9125976Y-11111833D01*
X9125976Y-11111833D02*
X9106929Y-11102309D01*
X9106929Y-11102309D02*
X9097405Y-11083261D01*
X9097405Y-11083261D02*
X9097405Y-11007071D01*
X9097405Y-11007071D02*
X9106929Y-10988023D01*
X9106929Y-10988023D02*
X9125976Y-10978499D01*
X9125976Y-10978499D02*
X9164071Y-10978499D01*
X9164071Y-10978499D02*
X9183119Y-10988023D01*
X9183119Y-10988023D02*
X9192643Y-11007071D01*
X9192643Y-11007071D02*
X9192643Y-11026118D01*
X9192643Y-11026118D02*
X9097405Y-11045166D01*
X9268833Y-11102309D02*
X9287881Y-11111833D01*
X9287881Y-11111833D02*
X9325976Y-11111833D01*
X9325976Y-11111833D02*
X9345024Y-11102309D01*
X9345024Y-11102309D02*
X9354548Y-11083261D01*
X9354548Y-11083261D02*
X9354548Y-11073737D01*
X9354548Y-11073737D02*
X9345024Y-11054690D01*
X9345024Y-11054690D02*
X9325976Y-11045166D01*
X9325976Y-11045166D02*
X9297405Y-11045166D01*
X9297405Y-11045166D02*
X9278357Y-11035642D01*
X9278357Y-11035642D02*
X9268833Y-11016594D01*
X9268833Y-11016594D02*
X9268833Y-11007071D01*
X9268833Y-11007071D02*
X9278357Y-10988023D01*
X9278357Y-10988023D02*
X9297405Y-10978499D01*
X9297405Y-10978499D02*
X9325976Y-10978499D01*
X9325976Y-10978499D02*
X9345024Y-10988023D01*
X9421214Y-11188023D02*
X9430738Y-11178499D01*
X9430738Y-11178499D02*
X9449786Y-11149928D01*
X9449786Y-11149928D02*
X9459310Y-11130880D01*
X9459310Y-11130880D02*
X9468833Y-11102309D01*
X9468833Y-11102309D02*
X9478357Y-11054690D01*
X9478357Y-11054690D02*
X9478357Y-11016594D01*
X9478357Y-11016594D02*
X9468833Y-10968975D01*
X9468833Y-10968975D02*
X9459310Y-10940404D01*
X9459310Y-10940404D02*
X9449786Y-10921356D01*
X9449786Y-10921356D02*
X9430738Y-10892785D01*
X9430738Y-10892785D02*
X9421214Y-10883261D01*
X4446151Y-11240349D02*
X4646151Y-11440349D01*
X4646151Y-11240349D02*
X4446151Y-11440349D01*
X4546151Y-11240349D02*
X4546151Y-11440349D01*
X4446151Y-11340349D02*
X4646151Y-11340349D01*
X4992642Y-11298499D02*
X4992642Y-11431832D01*
X4945023Y-11222309D02*
X4897404Y-11365166D01*
X4897404Y-11365166D02*
X5021214Y-11365166D01*
X5097404Y-11412785D02*
X5106928Y-11422309D01*
X5106928Y-11422309D02*
X5097404Y-11431832D01*
X5097404Y-11431832D02*
X5087881Y-11422309D01*
X5087881Y-11422309D02*
X5097404Y-11412785D01*
X5097404Y-11412785D02*
X5097404Y-11431832D01*
X5183119Y-11250880D02*
X5192642Y-11241356D01*
X5192642Y-11241356D02*
X5211690Y-11231832D01*
X5211690Y-11231832D02*
X5259309Y-11231832D01*
X5259309Y-11231832D02*
X5278357Y-11241356D01*
X5278357Y-11241356D02*
X5287881Y-11250880D01*
X5287881Y-11250880D02*
X5297404Y-11269928D01*
X5297404Y-11269928D02*
X5297404Y-11288975D01*
X5297404Y-11288975D02*
X5287881Y-11317547D01*
X5287881Y-11317547D02*
X5173595Y-11431832D01*
X5173595Y-11431832D02*
X5297404Y-11431832D01*
X5478357Y-11231832D02*
X5383119Y-11231832D01*
X5383119Y-11231832D02*
X5373595Y-11327071D01*
X5373595Y-11327071D02*
X5383119Y-11317547D01*
X5383119Y-11317547D02*
X5402166Y-11308023D01*
X5402166Y-11308023D02*
X5449785Y-11308023D01*
X5449785Y-11308023D02*
X5468833Y-11317547D01*
X5468833Y-11317547D02*
X5478357Y-11327071D01*
X5478357Y-11327071D02*
X5487881Y-11346118D01*
X5487881Y-11346118D02*
X5487881Y-11393737D01*
X5487881Y-11393737D02*
X5478357Y-11412785D01*
X5478357Y-11412785D02*
X5468833Y-11422309D01*
X5468833Y-11422309D02*
X5449785Y-11431832D01*
X5449785Y-11431832D02*
X5402166Y-11431832D01*
X5402166Y-11431832D02*
X5383119Y-11422309D01*
X5383119Y-11422309D02*
X5373595Y-11412785D01*
X5611690Y-11231832D02*
X5630738Y-11231832D01*
X5630738Y-11231832D02*
X5649785Y-11241356D01*
X5649785Y-11241356D02*
X5659309Y-11250880D01*
X5659309Y-11250880D02*
X5668833Y-11269928D01*
X5668833Y-11269928D02*
X5678357Y-11308023D01*
X5678357Y-11308023D02*
X5678357Y-11355642D01*
X5678357Y-11355642D02*
X5668833Y-11393737D01*
X5668833Y-11393737D02*
X5659309Y-11412785D01*
X5659309Y-11412785D02*
X5649785Y-11422309D01*
X5649785Y-11422309D02*
X5630738Y-11431832D01*
X5630738Y-11431832D02*
X5611690Y-11431832D01*
X5611690Y-11431832D02*
X5592642Y-11422309D01*
X5592642Y-11422309D02*
X5583119Y-11412785D01*
X5583119Y-11412785D02*
X5573595Y-11393737D01*
X5573595Y-11393737D02*
X5564071Y-11355642D01*
X5564071Y-11355642D02*
X5564071Y-11308023D01*
X5564071Y-11308023D02*
X5573595Y-11269928D01*
X5573595Y-11269928D02*
X5583119Y-11250880D01*
X5583119Y-11250880D02*
X5592642Y-11241356D01*
X5592642Y-11241356D02*
X5611690Y-11231832D01*
X5764071Y-11431832D02*
X5764071Y-11298499D01*
X5764071Y-11317547D02*
X5773595Y-11308023D01*
X5773595Y-11308023D02*
X5792642Y-11298499D01*
X5792642Y-11298499D02*
X5821214Y-11298499D01*
X5821214Y-11298499D02*
X5840261Y-11308023D01*
X5840261Y-11308023D02*
X5849785Y-11327071D01*
X5849785Y-11327071D02*
X5849785Y-11431832D01*
X5849785Y-11327071D02*
X5859309Y-11308023D01*
X5859309Y-11308023D02*
X5878357Y-11298499D01*
X5878357Y-11298499D02*
X5906928Y-11298499D01*
X5906928Y-11298499D02*
X5925976Y-11308023D01*
X5925976Y-11308023D02*
X5935500Y-11327071D01*
X5935500Y-11327071D02*
X5935500Y-11431832D01*
X6030738Y-11431832D02*
X6030738Y-11298499D01*
X6030738Y-11317547D02*
X6040261Y-11308023D01*
X6040261Y-11308023D02*
X6059309Y-11298499D01*
X6059309Y-11298499D02*
X6087881Y-11298499D01*
X6087881Y-11298499D02*
X6106928Y-11308023D01*
X6106928Y-11308023D02*
X6116452Y-11327071D01*
X6116452Y-11327071D02*
X6116452Y-11431832D01*
X6116452Y-11327071D02*
X6125976Y-11308023D01*
X6125976Y-11308023D02*
X6145023Y-11298499D01*
X6145023Y-11298499D02*
X6173595Y-11298499D01*
X6173595Y-11298499D02*
X6192642Y-11308023D01*
X6192642Y-11308023D02*
X6202166Y-11327071D01*
X6202166Y-11327071D02*
X6202166Y-11431832D01*
X6592642Y-11222309D02*
X6421214Y-11479451D01*
X6849785Y-11231832D02*
X6868833Y-11231832D01*
X6868833Y-11231832D02*
X6887881Y-11241356D01*
X6887881Y-11241356D02*
X6897404Y-11250880D01*
X6897404Y-11250880D02*
X6906928Y-11269928D01*
X6906928Y-11269928D02*
X6916452Y-11308023D01*
X6916452Y-11308023D02*
X6916452Y-11355642D01*
X6916452Y-11355642D02*
X6906928Y-11393737D01*
X6906928Y-11393737D02*
X6897404Y-11412785D01*
X6897404Y-11412785D02*
X6887881Y-11422309D01*
X6887881Y-11422309D02*
X6868833Y-11431832D01*
X6868833Y-11431832D02*
X6849785Y-11431832D01*
X6849785Y-11431832D02*
X6830738Y-11422309D01*
X6830738Y-11422309D02*
X6821214Y-11412785D01*
X6821214Y-11412785D02*
X6811690Y-11393737D01*
X6811690Y-11393737D02*
X6802166Y-11355642D01*
X6802166Y-11355642D02*
X6802166Y-11308023D01*
X6802166Y-11308023D02*
X6811690Y-11269928D01*
X6811690Y-11269928D02*
X6821214Y-11250880D01*
X6821214Y-11250880D02*
X6830738Y-11241356D01*
X6830738Y-11241356D02*
X6849785Y-11231832D01*
X7002166Y-11412785D02*
X7011690Y-11422309D01*
X7011690Y-11422309D02*
X7002166Y-11431832D01*
X7002166Y-11431832D02*
X6992643Y-11422309D01*
X6992643Y-11422309D02*
X7002166Y-11412785D01*
X7002166Y-11412785D02*
X7002166Y-11431832D01*
X7202166Y-11431832D02*
X7087881Y-11431832D01*
X7145023Y-11431832D02*
X7145023Y-11231832D01*
X7145023Y-11231832D02*
X7125976Y-11260404D01*
X7125976Y-11260404D02*
X7106928Y-11279451D01*
X7106928Y-11279451D02*
X7087881Y-11288975D01*
X7373595Y-11231832D02*
X7335500Y-11231832D01*
X7335500Y-11231832D02*
X7316452Y-11241356D01*
X7316452Y-11241356D02*
X7306928Y-11250880D01*
X7306928Y-11250880D02*
X7287881Y-11279451D01*
X7287881Y-11279451D02*
X7278357Y-11317547D01*
X7278357Y-11317547D02*
X7278357Y-11393737D01*
X7278357Y-11393737D02*
X7287881Y-11412785D01*
X7287881Y-11412785D02*
X7297404Y-11422309D01*
X7297404Y-11422309D02*
X7316452Y-11431832D01*
X7316452Y-11431832D02*
X7354547Y-11431832D01*
X7354547Y-11431832D02*
X7373595Y-11422309D01*
X7373595Y-11422309D02*
X7383119Y-11412785D01*
X7383119Y-11412785D02*
X7392643Y-11393737D01*
X7392643Y-11393737D02*
X7392643Y-11346118D01*
X7392643Y-11346118D02*
X7383119Y-11327071D01*
X7383119Y-11327071D02*
X7373595Y-11317547D01*
X7373595Y-11317547D02*
X7354547Y-11308023D01*
X7354547Y-11308023D02*
X7316452Y-11308023D01*
X7316452Y-11308023D02*
X7297404Y-11317547D01*
X7297404Y-11317547D02*
X7287881Y-11327071D01*
X7287881Y-11327071D02*
X7278357Y-11346118D01*
X7459309Y-11231832D02*
X7592643Y-11231832D01*
X7592643Y-11231832D02*
X7506928Y-11431832D01*
X7649785Y-11231832D02*
X7773595Y-11231832D01*
X7773595Y-11231832D02*
X7706928Y-11308023D01*
X7706928Y-11308023D02*
X7735500Y-11308023D01*
X7735500Y-11308023D02*
X7754547Y-11317547D01*
X7754547Y-11317547D02*
X7764071Y-11327071D01*
X7764071Y-11327071D02*
X7773595Y-11346118D01*
X7773595Y-11346118D02*
X7773595Y-11393737D01*
X7773595Y-11393737D02*
X7764071Y-11412785D01*
X7764071Y-11412785D02*
X7754547Y-11422309D01*
X7754547Y-11422309D02*
X7735500Y-11431832D01*
X7735500Y-11431832D02*
X7678357Y-11431832D01*
X7678357Y-11431832D02*
X7659309Y-11422309D01*
X7659309Y-11422309D02*
X7649785Y-11412785D01*
X7849785Y-11231832D02*
X7849785Y-11269928D01*
X7925976Y-11231832D02*
X7925976Y-11269928D01*
X8221214Y-11508023D02*
X8211690Y-11498499D01*
X8211690Y-11498499D02*
X8192643Y-11469928D01*
X8192643Y-11469928D02*
X8183119Y-11450880D01*
X8183119Y-11450880D02*
X8173595Y-11422309D01*
X8173595Y-11422309D02*
X8164071Y-11374690D01*
X8164071Y-11374690D02*
X8164071Y-11336594D01*
X8164071Y-11336594D02*
X8173595Y-11288975D01*
X8173595Y-11288975D02*
X8183119Y-11260404D01*
X8183119Y-11260404D02*
X8192643Y-11241356D01*
X8192643Y-11241356D02*
X8211690Y-11212785D01*
X8211690Y-11212785D02*
X8221214Y-11203261D01*
X8287881Y-11250880D02*
X8297405Y-11241356D01*
X8297405Y-11241356D02*
X8316452Y-11231832D01*
X8316452Y-11231832D02*
X8364071Y-11231832D01*
X8364071Y-11231832D02*
X8383119Y-11241356D01*
X8383119Y-11241356D02*
X8392643Y-11250880D01*
X8392643Y-11250880D02*
X8402167Y-11269928D01*
X8402167Y-11269928D02*
X8402167Y-11288975D01*
X8402167Y-11288975D02*
X8392643Y-11317547D01*
X8392643Y-11317547D02*
X8278357Y-11431832D01*
X8278357Y-11431832D02*
X8402167Y-11431832D01*
X8640262Y-11431832D02*
X8640262Y-11231832D01*
X8725976Y-11431832D02*
X8725976Y-11327071D01*
X8725976Y-11327071D02*
X8716452Y-11308023D01*
X8716452Y-11308023D02*
X8697405Y-11298499D01*
X8697405Y-11298499D02*
X8668833Y-11298499D01*
X8668833Y-11298499D02*
X8649786Y-11308023D01*
X8649786Y-11308023D02*
X8640262Y-11317547D01*
X8849786Y-11431832D02*
X8830738Y-11422309D01*
X8830738Y-11422309D02*
X8821214Y-11412785D01*
X8821214Y-11412785D02*
X8811690Y-11393737D01*
X8811690Y-11393737D02*
X8811690Y-11336594D01*
X8811690Y-11336594D02*
X8821214Y-11317547D01*
X8821214Y-11317547D02*
X8830738Y-11308023D01*
X8830738Y-11308023D02*
X8849786Y-11298499D01*
X8849786Y-11298499D02*
X8878357Y-11298499D01*
X8878357Y-11298499D02*
X8897405Y-11308023D01*
X8897405Y-11308023D02*
X8906929Y-11317547D01*
X8906929Y-11317547D02*
X8916452Y-11336594D01*
X8916452Y-11336594D02*
X8916452Y-11393737D01*
X8916452Y-11393737D02*
X8906929Y-11412785D01*
X8906929Y-11412785D02*
X8897405Y-11422309D01*
X8897405Y-11422309D02*
X8878357Y-11431832D01*
X8878357Y-11431832D02*
X8849786Y-11431832D01*
X9030738Y-11431832D02*
X9011690Y-11422309D01*
X9011690Y-11422309D02*
X9002167Y-11403261D01*
X9002167Y-11403261D02*
X9002167Y-11231832D01*
X9183119Y-11422309D02*
X9164071Y-11431832D01*
X9164071Y-11431832D02*
X9125976Y-11431832D01*
X9125976Y-11431832D02*
X9106929Y-11422309D01*
X9106929Y-11422309D02*
X9097405Y-11403261D01*
X9097405Y-11403261D02*
X9097405Y-11327071D01*
X9097405Y-11327071D02*
X9106929Y-11308023D01*
X9106929Y-11308023D02*
X9125976Y-11298499D01*
X9125976Y-11298499D02*
X9164071Y-11298499D01*
X9164071Y-11298499D02*
X9183119Y-11308023D01*
X9183119Y-11308023D02*
X9192643Y-11327071D01*
X9192643Y-11327071D02*
X9192643Y-11346118D01*
X9192643Y-11346118D02*
X9097405Y-11365166D01*
X9268833Y-11422309D02*
X9287881Y-11431832D01*
X9287881Y-11431832D02*
X9325976Y-11431832D01*
X9325976Y-11431832D02*
X9345024Y-11422309D01*
X9345024Y-11422309D02*
X9354548Y-11403261D01*
X9354548Y-11403261D02*
X9354548Y-11393737D01*
X9354548Y-11393737D02*
X9345024Y-11374690D01*
X9345024Y-11374690D02*
X9325976Y-11365166D01*
X9325976Y-11365166D02*
X9297405Y-11365166D01*
X9297405Y-11365166D02*
X9278357Y-11355642D01*
X9278357Y-11355642D02*
X9268833Y-11336594D01*
X9268833Y-11336594D02*
X9268833Y-11327071D01*
X9268833Y-11327071D02*
X9278357Y-11308023D01*
X9278357Y-11308023D02*
X9297405Y-11298499D01*
X9297405Y-11298499D02*
X9325976Y-11298499D01*
X9325976Y-11298499D02*
X9345024Y-11308023D01*
X9421214Y-11508023D02*
X9430738Y-11498499D01*
X9430738Y-11498499D02*
X9449786Y-11469928D01*
X9449786Y-11469928D02*
X9459310Y-11450880D01*
X9459310Y-11450880D02*
X9468833Y-11422309D01*
X9468833Y-11422309D02*
X9478357Y-11374690D01*
X9478357Y-11374690D02*
X9478357Y-11336594D01*
X9478357Y-11336594D02*
X9468833Y-11288975D01*
X9468833Y-11288975D02*
X9459310Y-11260404D01*
X9459310Y-11260404D02*
X9449786Y-11241356D01*
X9449786Y-11241356D02*
X9430738Y-11212785D01*
X9430738Y-11212785D02*
X9421214Y-11203261D01*
M02*
