M48
; DRILL file KiCad 10.0.0 date 2026-04-19T14:04:46
; FORMAT={-:-/ absolute / metric / decimal}
; #@! TF.CreationDate,2026-04-19T14:04:46-03:00
; #@! TF.GenerationSoftware,Kicad,Pcbnew,10.0.0
; #@! TF.FileFunction,Plated,1,2,PTH
FMAT,2
METRIC
; #@! TA.AperFunction,Plated,PTH,ViaDrill
T1C0.400
; #@! TA.AperFunction,Plated,PTH,ComponentDrill
T2C0.800
; #@! TA.AperFunction,Plated,PTH,ComponentDrill
T3C1.000
; #@! TA.AperFunction,Plated,PTH,ComponentDrill
T4C1.500
; #@! TA.AperFunction,Plated,PTH,ComponentDrill
T5C1.520
; #@! TA.AperFunction,Plated,PTH,ViaDrill
T6C3.250
; #@! TA.AperFunction,Plated,PTH,ViaDrill
T7C4.250
%
G90
G05
T1
X81.92Y-86.97
X89.1Y-54.12
X89.33Y-38.75
T2
X56.5Y-65.6
X56.5Y-67.6
X56.5Y-69.6
T3
X51.39Y-63.49
X51.39Y-66.03
X57.62Y-52.07
X57.62Y-54.61
X57.62Y-57.15
X57.62Y-59.69
X58.0Y-75.5
X58.0Y-78.04
X63.43Y-35.005
X63.43Y-37.545
X63.43Y-40.085
X63.43Y-42.625
X63.43Y-45.165
X63.43Y-47.705
X63.43Y-50.245
X63.43Y-52.785
X63.43Y-55.325
X63.43Y-57.865
X63.43Y-60.405
X63.43Y-62.945
X63.43Y-65.485
X63.43Y-68.025
X63.43Y-70.565
X63.43Y-73.105
X63.43Y-75.645
X63.43Y-78.185
X63.43Y-80.725
X64.23Y-28.3
X66.77Y-28.3
X67.525Y-80.75
X67.525Y-83.29
X69.31Y-28.3
X71.85Y-28.3
X74.39Y-28.3
X76.93Y-28.3
X80.5Y-28.35
X83.04Y-28.35
X85.58Y-28.35
X86.33Y-35.0
X86.33Y-37.54
X86.33Y-40.08
X86.33Y-42.62
X86.33Y-45.16
X86.33Y-47.7
X86.33Y-50.24
X86.33Y-52.78
X86.33Y-55.32
X86.33Y-57.86
X86.33Y-60.4
X86.33Y-62.94
X86.33Y-65.48
X86.33Y-68.02
X86.33Y-70.56
X86.33Y-73.1
X86.33Y-75.64
X86.33Y-78.18
X86.33Y-80.72
X88.12Y-28.35
X90.4Y-75.62
X90.4Y-78.16
X90.4Y-80.7
X90.66Y-28.35
X91.725Y-66.0
X93.2Y-28.35
X94.265Y-66.0
X95.74Y-28.35
X96.429Y-77.4
X98.28Y-28.35
X98.54Y-43.35
X101.08Y-43.35
X101.429Y-77.4
T4
X56.5Y-63.5
X56.5Y-71.7
T5
X56.0Y-41.25
X56.0Y-46.33
T6
X56.9Y-35.2
X72.5Y-39.15
X72.5Y-70.55
X81.8Y-35.0
X93.2Y-70.55
X93.3Y-39.15
X98.2Y-65.2
T7
X50.33Y-55.675
X112.17Y-55.69
M30
