<?xml version="1.0" standalone="no"?>
 <!DOCTYPE svg PUBLIC "-//W3C//DTD SVG 1.1//EN" 
 "http://www.w3.org/Graphics/SVG/1.1/DTD/svg11.dtd"> 
<svg
  xmlns:svg="http://www.w3.org/2000/svg"
  xmlns="http://www.w3.org/2000/svg"
  xmlns:xlink="http://www.w3.org/1999/xlink"
  xmlns:inkscape="http://www.inkscape.org/namespaces/inkscape"
  version="1.1"
  width="297.0022mm" height="210.0072mm" viewBox="0.0000 0.0000 297.0022 210.0072">
<title>SVG Image created as Onboard_Comp-B_Cu.svg date 2026-04-19T14:17:27 </title>
  <desc>Image generated by PCBNEW </desc>
<g style="fill:#000000; fill-opacity:1.0000;stroke:#000000; stroke-opacity:1.0000;
stroke-linecap:round; stroke-linejoin:round;"
 transform="translate(0 0) scale(1 1)">
<path style="fill:#000000; fill-opacity:1.0000; stroke:none;fill-rule:evenodd;"
d="M 97.3300,27.4000
99.2300,27.4000
99.2300,29.3000
97.3300,29.3000
Z" /> 
</g>
<g style="fill:#000000; fill-opacity:1.0000; stroke:none;">
<circle cx="95.7400" cy="28.3500" r="0.9500" /> 
<circle cx="93.2000" cy="28.3500" r="0.9500" /> 
<circle cx="90.6600" cy="28.3500" r="0.9500" /> 
<circle cx="88.1200" cy="28.3500" r="0.9500" /> 
<circle cx="85.5800" cy="28.3500" r="0.9500" /> 
<circle cx="83.0400" cy="28.3500" r="0.9500" /> 
<circle cx="80.5000" cy="28.3500" r="0.9500" /> 
<path style="fill:#000000; fill-opacity:1.0000; stroke:none;fill-rule:evenodd;"
d="M 57.0500,76.4500
57.0500,74.5500
58.9500,74.5500
58.9500,76.4500
Z" /> 
<circle cx="58.0000" cy="78.0400" r="0.9500" /> 
<path style="fill:#000000; fill-opacity:1.0000; stroke:none;fill-rule:evenodd;"
d="M 100.1300,41.8500
102.0300,41.8500
102.0300,44.8500
100.1300,44.8500
Z" /> 
</g>
<g style="fill:none; 
stroke:#000000; stroke-width:1.9000; stroke-opacity:1; 
stroke-linecap:round; stroke-linejoin:round;">
<path d="M98.5400 42.8000
L98.5400 43.9000
" />
<path style="fill:#000000; fill-opacity:1.0000; stroke:none;fill-rule:evenodd;"
d="M 65.1800,29.2500
63.2800,29.2500
63.2800,27.3500
65.1800,27.3500
Z" /> 
</g>
<g style="fill:#000000; fill-opacity:1.0000; stroke:none;">
<circle cx="66.7700" cy="28.3000" r="0.9500" /> 
<circle cx="69.3100" cy="28.3000" r="0.9500" /> 
<circle cx="71.8500" cy="28.3000" r="0.9500" /> 
<circle cx="74.3900" cy="28.3000" r="0.9500" /> 
<circle cx="76.9300" cy="28.3000" r="0.9500" /> 
</g>
<g style="fill:none; 
stroke:#000000; stroke-width:2.2000; stroke-opacity:1; 
stroke-linecap:round; stroke-linejoin:round;">
<path d="M55.8500 71.7000
L57.1500 71.7000
" />
<path d="M55.8500 63.5000
L57.1500 63.5000
" />
<path style="fill:#000000; fill-opacity:1.0000; stroke:none;fill-rule:evenodd;"
d="M 57.7500,70.3500
55.2500,70.3500
55.2500,68.8500
57.7500,68.8500
Z" /> 
</g>
<g style="fill:none; 
stroke:#000000; stroke-width:1.5000; stroke-opacity:1; 
stroke-linecap:round; stroke-linejoin:round;">
<path d="M56.0000 67.6000
L57.0000 67.6000
" />
<path d="M56.0000 65.6000
L57.0000 65.6000
" />
<path style="fill:#000000; fill-opacity:1.0000; stroke:none;fill-rule:evenodd;"
d="M 95.4292,78.4000
95.4292,76.4000
97.4292,76.4000
97.4292,78.4000
Z" /> 
</g>
<g style="fill:#000000; fill-opacity:1.0000; stroke:none;">
<circle cx="101.4292" cy="77.4000" r="1.0000" /> 
<path style="fill:#000000; fill-opacity:1.0000; stroke:none;fill-rule:evenodd;"
d="M 85.3800,35.9500
85.3800,34.0500
87.2800,34.0500
87.2800,35.9500
Z" /> 
<circle cx="86.3300" cy="37.5400" r="0.9500" /> 
<circle cx="86.3300" cy="40.0800" r="0.9500" /> 
<circle cx="86.3300" cy="42.6200" r="0.9500" /> 
<circle cx="86.3300" cy="45.1600" r="0.9500" /> 
<circle cx="86.3300" cy="47.7000" r="0.9500" /> 
<circle cx="86.3300" cy="50.2400" r="0.9500" /> 
<circle cx="86.3300" cy="52.7800" r="0.9500" /> 
<circle cx="86.3300" cy="55.3200" r="0.9500" /> 
<circle cx="86.3300" cy="57.8600" r="0.9500" /> 
<circle cx="86.3300" cy="60.4000" r="0.9500" /> 
<circle cx="86.3300" cy="62.9400" r="0.9500" /> 
<circle cx="86.3300" cy="65.4800" r="0.9500" /> 
<circle cx="86.3300" cy="68.0200" r="0.9500" /> 
<circle cx="86.3300" cy="70.5600" r="0.9500" /> 
<circle cx="86.3300" cy="73.1000" r="0.9500" /> 
<circle cx="86.3300" cy="75.6400" r="0.9500" /> 
<circle cx="86.3300" cy="78.1800" r="0.9500" /> 
<circle cx="86.3300" cy="80.7200" r="0.9500" /> 
<path style="fill:#000000; fill-opacity:1.0000; stroke:none;fill-rule:evenodd;"
d="M 52.2400,65.1800
52.2400,66.8800
50.5400,66.8800
50.5400,65.1800
Z" /> 
<circle cx="51.3900" cy="63.4900" r="0.8500" /> 
<path style="fill:#000000; fill-opacity:1.0000; stroke:none;fill-rule:evenodd;"
d="M 57.5000,47.8300
54.5000,47.8300
54.5000,44.8300
57.5000,44.8300
Z" /> 
<circle cx="56.0000" cy="41.2500" r="1.5000" /> 
<path style="fill:#000000; fill-opacity:1.0000; stroke:none;fill-rule:evenodd;"
d="M 92.6750,67.5000
90.7750,67.5000
90.7750,64.5000
92.6750,64.5000
Z" /> 
</g>
<g style="fill:none; 
stroke:#000000; stroke-width:1.9000; stroke-opacity:1; 
stroke-linecap:round; stroke-linejoin:round;">
<path d="M94.2650 66.5500
L94.2650 65.4500
" />
<path style="fill:#000000; fill-opacity:1.0000; stroke:none;fill-rule:evenodd;"
d="M 91.3500,79.7500
91.3500,81.6500
89.4500,81.6500
89.4500,79.7500
Z" /> 
</g>
<g style="fill:#000000; fill-opacity:1.0000; stroke:none;">
<circle cx="90.4000" cy="78.1600" r="0.9500" /> 
<circle cx="90.4000" cy="75.6200" r="0.9500" /> 
<path style="fill:#000000; fill-opacity:1.0000; stroke:none;fill-rule:evenodd;"
d="M 62.4800,35.9550
62.4800,34.0550
64.3800,34.0550
64.3800,35.9550
Z" /> 
<circle cx="63.4300" cy="37.5450" r="0.9500" /> 
<circle cx="63.4300" cy="40.0850" r="0.9500" /> 
<circle cx="63.4300" cy="42.6250" r="0.9500" /> 
<circle cx="63.4300" cy="45.1650" r="0.9500" /> 
<circle cx="63.4300" cy="47.7050" r="0.9500" /> 
<circle cx="63.4300" cy="50.2450" r="0.9500" /> 
<circle cx="63.4300" cy="52.7850" r="0.9500" /> 
<circle cx="63.4300" cy="55.3250" r="0.9500" /> 
<circle cx="63.4300" cy="57.8650" r="0.9500" /> 
<circle cx="63.4300" cy="60.4050" r="0.9500" /> 
<circle cx="63.4300" cy="62.9450" r="0.9500" /> 
<circle cx="63.4300" cy="65.4850" r="0.9500" /> 
<circle cx="63.4300" cy="68.0250" r="0.9500" /> 
<circle cx="63.4300" cy="70.5650" r="0.9500" /> 
<circle cx="63.4300" cy="73.1050" r="0.9500" /> 
<circle cx="63.4300" cy="75.6450" r="0.9500" /> 
<circle cx="63.4300" cy="78.1850" r="0.9500" /> 
<circle cx="63.4300" cy="80.7250" r="0.9500" /> 
<path style="fill:#000000; fill-opacity:1.0000; stroke:none;fill-rule:evenodd;"
d="M 68.4750,79.8000
68.4750,81.7000
66.5750,81.7000
66.5750,79.8000
Z" /> 
<circle cx="67.5250" cy="83.2900" r="0.9500" /> 
<path style="fill:#000000; fill-opacity:1.0000; stroke:none;fill-rule:evenodd;"
d="M 58.5700,51.1200
58.5700,53.0200
56.6700,53.0200
56.6700,51.1200
Z" /> 
<circle cx="57.6200" cy="54.6100" r="0.9500" /> 
<circle cx="57.6200" cy="57.1500" r="0.9500" /> 
<circle cx="57.6200" cy="59.6900" r="0.9500" /> 
<circle cx="72.5000" cy="39.1500" r="1.7500" /> 
<circle cx="98.2000" cy="65.2000" r="1.7500" /> 
<circle cx="93.2000" cy="70.5500" r="1.7500" /> 
<circle cx="72.5000" cy="70.5500" r="1.7500" /> 
<circle cx="50.3300" cy="55.6750" r="2.5000" /> 
<circle cx="112.1700" cy="55.6900" r="2.5000" /> 
<circle cx="93.3000" cy="39.1500" r="1.7500" /> 
<circle cx="81.8000" cy="35.0000" r="1.7500" /> 
<circle cx="56.9000" cy="35.2000" r="1.7500" /> 
<circle cx="89.3300" cy="38.7500" r="0.4000" /> 
<circle cx="89.1000" cy="54.1200" r="0.4000" /> 
<circle cx="81.9200" cy="86.9700" r="0.4000" /> 
</g>
<g style="fill:none; 
stroke:#000000; stroke-width:0.6000; stroke-opacity:1; 
stroke-linecap:round; stroke-linejoin:round;">
<path d="M61.5250 68.0250
L60.0000 66.5000
" />
<path d="M63.4300 68.0250
L61.5250 68.0250
" />
<path d="M58.3300 46.3300
L56.0000 46.3300
" />
<path d="M101.4292 79.5708
L101.4292 77.4000
" />
<path d="M84.3400 89.3300
L85.4200 88.2500
" />
<path d="M80.1800 89.3300
L84.3400 89.3300
" />
<path d="M95.7400 32.7600
L95.7400 28.3500
" />
<path d="M86.5000 33.5000
L95.0000 33.5000
" />
<path d="M79.4000 88.5500
L80.1800 89.3300
" />
<path d="M95.0000 33.5000
L95.7400 32.7600
" />
<path d="M65.4050 70.0000
L65.5000 70.0000
" />
<path d="M91.7500 88.2500
L98.5000 81.5000
" />
<path d="M76.5700 88.5500
L79.4000 88.5500
" />
<path d="M71.3300 83.2900
L72.4200 84.3800
" />
<path d="M65.5000 72.3800
L71.0300 77.9100
" />
<path d="M72.4200 84.3800
L76.5700 88.5300
" />
<path d="M63.4300 68.0250
L65.4050 70.0000
" />
<path d="M86.3300 33.6700
L86.5000 33.5000
" />
<path d="M65.5000 70.0000
L65.5000 72.3800
" />
<path d="M71.0300 82.9900
L72.4200 84.3800
" />
<path d="M60.0000 48.0000
L58.3300 46.3300
" />
<path d="M60.0000 66.5000
L60.0000 48.0000
" />
<path d="M85.4200 88.2500
L91.7500 88.2500
" />
<path d="M76.5700 88.5300
L76.5700 88.5500
" />
<path d="M67.5250 83.2900
L71.3300 83.2900
" />
<path d="M99.5000 81.5000
L101.4292 79.5708
" />
<path d="M98.5000 81.5000
L99.5000 81.5000
" />
<path d="M71.0300 77.9100
L71.0300 82.9900
" />
<path d="M86.3300 35.0000
L86.3300 33.6700
" />
<path d="M92.5000 35.0000
L96.0000 35.0000
" />
<path d="M89.3300 38.1700
L92.5000 35.0000
" />
<path d="M51.3900 61.6350
L51.3900 63.4900
" />
<path d="M98.2800 32.7200
L98.2800 28.3500
" />
<path d="M55.0000 58.0250
L51.3900 61.6350
" />
<path d="M55.4300 52.0700
L55.0000 52.5000
" />
<path d="M57.6200 52.0700
L55.4300 52.0700
" />
<path d="M96.0000 35.0000
L98.2800 32.7200
" />
<path d="M89.3300 38.7500
L89.3300 38.1700
" />
<path d="M55.0000 52.5000
L55.0000 58.0250
" />
<path d="M89.1000 54.1200
L89.1000 40.3100
" />
<path d="M89.1000 40.3100
L86.3300 37.5400
" />
<path d="M69.2000 43.3000
L69.2000 34.2000
" />
<path d="M64.7950 47.7050
L69.2000 43.3000
" />
<path d="M69.2000 34.2000
L71.8500 31.5500
" />
<path d="M63.4300 47.7050
L64.7950 47.7050
" />
<path d="M71.8500 31.5500
L71.8500 28.3000
" />
<path d="M64.3750 42.6250
L65.5000 41.5000
" />
<path d="M66.7700 31.2300
L66.7700 28.3000
" />
<path d="M65.5000 41.5000
L65.5000 32.5000
" />
<path d="M63.4300 42.6250
L64.3750 42.6250
" />
<path d="M65.5000 32.5000
L66.7700 31.2300
" />
<path d="M76.9300 41.0700
L76.9300 28.3000
" />
<path d="M65.2150 52.7850
L76.9300 41.0700
" />
<path d="M63.4300 52.7850
L65.2150 52.7850
" />
<path d="M69.3100 28.3000
L69.3100 30.8900
" />
<path d="M67.4000 42.6000
L64.8350 45.1650
" />
<path d="M64.8350 45.1650
L63.4300 45.1650
" />
<path d="M67.4000 32.8000
L67.4000 42.6000
" />
<path d="M69.3100 30.8900
L67.4000 32.8000
" />
<path d="M74.3900 31.5900
L74.3900 28.3000
" />
<path d="M65.8050 50.2450
L75.8500 40.2000
" />
<path d="M75.8500 40.2000
L75.8500 33.6500
" />
<path d="M63.4300 50.2450
L65.8050 50.2450
" />
<path d="M74.4000 31.6000
L74.3900 31.5900
" />
<path d="M75.8500 33.6500
L74.4000 32.2000
" />
<path d="M74.4000 32.2000
L74.4000 31.6000
" />
<path d="M63.4450 65.5000
L63.4300 65.4850
" />
<path d="M67.6700 71.2100
L67.6700 66.9400
" />
<path d="M81.9200 85.4600
L67.6700 71.2100
" />
<path d="M67.6700 66.9400
L66.2150 65.4850
" />
<path d="M66.2150 65.4850
L63.4300 65.4850
" />
<path d="M81.9200 86.9700
L81.9200 85.4600
" />
<path d="M63.4300 40.0850
L62.0850 40.0850
" />
<path d="M64.2300 30.2700
L64.2300 28.3000
" />
<path d="M62.0850 40.0850
L60.5000 38.5000
" />
<path d="M63.0000 31.5000
L64.2300 30.2700
" />
<path d="M60.5000 38.5000
L60.5000 32.5000
" />
<path d="M60.5000 32.5000
L61.5000 31.5000
" />
<path d="M61.5000 31.5000
L63.0000 31.5000
" />
<path d="M86.3300 68.0200
L84.0800 68.0200
" />
<path d="M86.1800 68.1700
L86.3300 68.0200
" />
<path d="M90.4000 83.6000
L90.4000 80.7000
" />
<path d="M89.5000 84.5000
L90.4000 83.6000
" />
<path d="M83.4000 81.5000
L86.4000 84.5000
" />
<path d="M84.0800 68.0200
L83.4000 68.7000
" />
<path d="M86.4000 84.5000
L89.5000 84.5000
" />
<path d="M83.4000 68.7000
L83.4000 81.5000
" />
<path d="M87.7400 62.9400
L86.3300 62.9400
" />
<path d="M90.4000 75.6200
L90.4000 72.2000
" />
<path d="M89.0000 70.8000
L89.0000 64.2000
" />
<path d="M90.4000 72.2000
L89.0000 70.8000
" />
<path d="M89.0000 64.2000
L87.7400 62.9400
" />
<path d="M93.8000 79.3000
L92.6600 78.1600
" />
<path d="M85.9000 86.4000
L91.3000 86.4000
" />
<path d="M93.8000 83.9000
L93.8000 79.3000
" />
<path d="M86.3300 65.4800
L82.5200 65.4800
" />
<path d="M81.6000 82.1000
L85.9000 86.4000
" />
<path d="M82.5200 65.4800
L81.6000 66.4000
" />
<path d="M91.3000 86.4000
L93.8000 83.9000
" />
<path d="M81.6000 66.4000
L81.6000 82.1000
" />
<path d="M92.6600 78.1600
L90.4000 78.1600
" />
<path d="M86.0000 32.0000
L91.5000 32.0000
" />
<path d="M84.9100 40.0800
L84.0800 39.2500
" />
<path d="M93.2000 30.3000
L93.2000 28.3500
" />
<path d="M86.3300 40.0800
L84.9100 40.0800
" />
<path d="M84.0800 39.2500
L84.0800 33.9200
" />
<path d="M84.0800 33.9200
L86.0000 32.0000
" />
<path d="M91.5000 32.0000
L93.2000 30.3000
" />
<path d="M90.6600 28.3500
L90.6600 29.3400
" />
<path d="M89.5000 30.5000
L81.3000 30.5000
" />
<path d="M86.3300 47.7000
L84.9000 47.7000
" />
<path d="M81.3000 30.5000
L78.9000 32.9000
" />
<path d="M82.3000 47.7000
L84.9000 47.7000
" />
<path d="M78.9000 32.9000
L78.9000 44.3000
" />
<path d="M90.6600 29.3400
L89.5000 30.5000
" />
<path d="M84.9000 47.7000
L83.7800 47.7000
" />
<path d="M78.9000 44.3000
L82.3000 47.7000
" />
<path d="M63.2050 80.5000
L63.4300 80.7250
" />
<path d="M60.4600 80.5000
L63.2050 80.5000
" />
<path d="M58.0000 78.0400
L60.4600 80.5000
" />
<path d="M53.2500 70.7500
L53.2500 73.7500
" />
<path d="M54.4000 69.6000
L53.2500 70.7500
" />
<path d="M55.0000 75.5000
L58.0000 75.5000
" />
<path d="M53.2500 73.7500
L55.0000 75.5000
" />
<path d="M56.5000 69.6000
L54.4000 69.6000
" />
<path d="M51.4300 59.4800
L53.7500 57.1600
" />
<path d="M50.7800 68.2100
L49.1300 66.5600
" />
<path d="M53.7500 42.7500
L54.5000 42.7500
" />
<path d="M53.7500 57.1600
L53.7500 51.2500
" />
<path d="M53.3700 68.2100
L50.7800 68.2100
" />
<path d="M50.1300 59.4800
L51.4300 59.4800
" />
<path d="M52.0000 49.5000
L52.0000 44.5000
" />
<path d="M49.1300 66.5600
L49.1300 60.4800
" />
<path d="M53.9800 67.6000
L53.3700 68.2100
" />
<path d="M52.0000 44.5000
L53.7500 42.7500
" />
<path d="M53.7500 51.2500
L52.0000 49.5000
" />
<path d="M54.5000 42.7500
L56.0000 41.2500
" />
<path d="M53.9800 67.6000
L56.5000 67.6000
" />
<path d="M49.1300 60.4800
L50.1300 59.4800
" />
<path d="M51.3900 66.0300
L53.2900 66.0300
" />
<path d="M53.2900 66.0300
L53.7200 65.6000
" />
<path d="M53.7200 65.6000
L56.5000 65.6000
" />
<path style="fill:#000000; fill-opacity:1.0000; stroke:none;fill-rule:evenodd;"
d="M 81.7097,20.9167
81.8557,20.9179
81.8586,20.9180
82.8279,20.9497
82.8287,20.9497
83.0082,20.9574
83.0109,20.9575
83.9541,21.0193
83.9548,21.0194
84.1582,21.0349
84.1608,21.0352
85.0833,21.1260
85.0845,21.1262
85.3042,21.1505
85.3065,21.1508
86.2130,21.2701
86.2146,21.2703
86.4447,21.3038
86.4470,21.3041
87.3408,21.4517
87.3425,21.4520
87.5786,21.4946
87.5806,21.4949
88.4645,21.6708
88.4664,21.6712
88.7040,21.7224
88.7058,21.7228
89.5825,21.9272
89.5844,21.9276
89.8196,21.9868
89.8214,21.9872
90.6929,22.2207
90.6951,22.2213
90.9239,22.2872
90.9254,22.2876
91.7943,22.5512
91.7965,22.5519
92.0151,22.6229
92.0165,22.6234
92.8851,22.9183
92.8875,22.9191
93.0912,22.9930
93.0924,22.9935
93.9642,23.3216
93.9665,23.3225
94.1501,23.3963
94.1510,23.3966
95.0298,23.7606
95.0324,23.7618
95.1889,23.8309
95.1898,23.8313
96.0810,24.2351
96.0837,24.2363
96.2041,24.2945
96.2050,24.2950
97.1163,24.7444
97.1191,24.7458
97.1905,24.7833
97.1912,24.7837
98.1346,25.2880
98.1375,25.2895
98.1390,25.2904
99.1200,25.8568
99.1235,25.8589
99.9006,26.3421
99.9065,26.3488
99.9088,26.3490
99.9261,26.3580
99.9661,26.3829
100.0726,26.4490
100.0860,26.4574
100.0894,26.4596
100.9202,27.0147
101.0319,27.0894
101.0353,27.0917
101.9566,27.7519
101.9599,27.7543
102.8592,28.4444
102.8623,28.4469
103.7386,29.1660
103.7416,29.1686
104.0938,29.4774
104.5939,29.9160
104.5969,29.9187
105.4242,30.6936
105.4271,30.6964
106.2286,31.4979
106.2314,31.5008
107.0063,32.3281
107.0090,32.3311
107.7192,33.1409
107.7197,33.1415
107.7662,33.1953
107.7683,33.1977
108.4170,33.9883
108.4176,33.9889
108.4976,34.0880
108.4994,34.0903
108.8399,34.5341
109.0978,34.8702
109.0985,34.8710
109.1986,35.0041
109.2003,35.0063
109.4825,35.4001
109.7562,35.7822
109.7570,35.7832
109.8685,35.9423
109.8700,35.9446
110.1525,36.3673
110.3888,36.7209
110.3896,36.7221
110.5065,36.9017
110.5079,36.9039
110.9932,37.6843
110.9940,37.6856
111.1120,37.8808
111.1132,37.8830
111.1738,37.9878
111.1753,37.9906
111.6892,38.9362
112.3481,40.1486
112.3504,40.1530
112.6216,40.7028
112.6225,40.7047
112.7263,40.9245
112.7272,40.9263
113.0990,41.7468
113.0999,41.7488
113.1951,41.9695
113.1958,41.9712
113.5422,42.8072
113.5430,42.8094
113.6284,43.0272
113.6290,43.0287
113.9505,43.8829
113.9513,43.8852
114.0256,44.0954
114.0261,44.0968
114.3233,44.9724
114.3241,44.9749
114.3862,45.1718
114.3867,45.1731
114.5474,45.7031
114.5486,45.7072
114.9992,47.3970
115.0006,47.4030
115.4902,49.6878
115.4913,49.6936
115.6364,50.5722
115.6370,50.5762
115.6676,50.8090
115.6679,50.8115
115.8997,52.8973
115.9002,52.9027
115.9611,53.8171
115.9612,53.8173
115.9710,53.9672
115.9712,53.9713
116.0083,55.1042
116.0083,55.1083
116.0083,56.2417
116.0083,56.2458
115.9712,57.3787
115.9710,57.3828
115.8968,58.5139
115.8965,58.5179
115.7854,59.6459
115.7849,59.6500
115.6370,60.7738
115.6364,60.7778
115.4570,61.8646
115.4568,61.8654
115.4502,61.9043
115.4496,61.9075
115.2458,62.9317
115.2457,62.9326
115.2243,63.0362
115.2236,63.0392
114.9969,64.0114
114.9967,64.0125
114.9610,64.1595
114.9603,64.1624
114.7104,65.0950
114.7101,65.0962
114.6608,65.2729
114.6600,65.2756
114.3867,66.1769
114.3862,66.1782
114.3241,66.3751
114.3233,66.3776
114.0261,67.2532
114.0256,67.2546
113.9513,67.4648
113.9505,67.4671
113.6290,68.3213
113.6284,68.3228
113.5430,68.5405
113.5422,68.5427
113.1958,69.3788
113.1951,69.3805
113.0999,69.6012
113.0990,69.6032
112.7272,70.4237
112.7263,70.4255
112.6225,70.6453
112.6216,70.6472
112.2235,71.4544
112.2225,71.4563
112.1117,71.6715
112.1108,71.6732
111.6853,72.4693
111.6842,72.4713
111.5685,72.6784
111.5677,72.6799
111.1132,73.4670
111.1120,73.4691
110.9940,73.6644
110.9932,73.6658
110.5079,74.4461
110.5065,74.4483
110.3896,74.6279
110.3888,74.6291
109.8701,75.4054
109.8685,75.4077
109.7570,75.5668
109.7562,75.5678
109.2003,76.3436
109.1986,76.3460
109.0985,76.4789
109.0978,76.4798
108.4995,77.2596
108.4976,77.2620
108.4177,77.3610
108.4170,77.3617
107.7683,78.1523
107.7662,78.1547
107.7197,78.2085
107.7191,78.2091
107.0090,79.0189
107.0063,79.0219
106.2314,79.8492
106.2286,79.8521
105.4271,80.6536
105.4242,80.6564
104.5969,81.4313
104.5939,81.4340
103.7417,82.1814
103.7386,82.1840
102.8623,82.9031
102.8592,82.9056
101.9599,83.5957
101.9566,83.5981
101.0353,84.2583
101.0319,84.2606
100.0895,84.8904
100.0860,84.8926
99.1235,85.4911
99.1200,85.4932
98.1394,86.0594
98.1388,86.0597
98.1375,86.0604
98.1346,86.0621
97.1912,86.5663
97.1905,86.5667
97.1191,86.6042
97.1163,86.6056
96.2050,87.0550
96.2041,87.0555
96.0837,87.1136
96.0810,87.1149
95.1899,87.5187
95.1888,87.5191
95.0324,87.5882
95.0298,87.5894
94.1512,87.9533
94.1499,87.9538
93.9666,88.0275
93.9641,88.0285
93.0925,88.3565
93.0911,88.3570
92.8875,88.4309
92.8851,88.4318
92.0166,88.7266
92.0150,88.7271
91.7966,88.7981
91.7942,88.7988
90.9255,89.0623
90.9238,89.0628
90.6951,89.1286
90.6929,89.1293
89.8214,89.3628
89.8196,89.3632
89.5845,89.4223
89.5824,89.4228
88.7059,89.6272
88.7039,89.6277
88.4664,89.6788
88.4645,89.6792
87.5807,89.8550
87.5785,89.8555
87.3425,89.8980
87.3407,89.8983
86.4470,90.0458
86.4447,90.0462
86.2146,90.0796
86.2129,90.0799
85.3066,90.1992
85.3041,90.1995
85.0847,90.2238
85.0832,90.2240
84.1608,90.3148
84.1581,90.3151
83.9551,90.3306
83.9537,90.3307
83.0110,90.3925
83.0081,90.3926
82.8289,90.4003
82.8277,90.4003
81.8586,90.4320
81.8556,90.4321
81.7105,90.4333
81.7097,90.4333
81.7087,90.4333
80.7050,90.4333
80.7018,90.4333
80.6039,90.4308
80.6030,90.4308
79.5513,90.3963
79.5480,90.3962
79.5207,90.3946
79.5200,90.3945
78.4111,90.3218
78.4071,90.3215
77.2791,90.2104
77.2750,90.2099
76.1512,90.0620
76.1472,90.0614
75.0288,89.8768
75.0248,89.8760
73.9131,89.6549
73.9092,89.6540
73.6176,89.5861
72.8053,89.3966
72.8013,89.3957
71.7064,89.1023
71.7025,89.1012
70.6178,88.7721
70.6140,88.7709
70.2422,88.6447
69.5406,88.4065
69.5368,88.4052
68.4760,88.0059
68.4722,88.0044
67.4626,87.5862
67.4619,87.5859
67.4153,87.5663
67.4123,87.5649
66.4680,87.1371
66.4671,87.1367
66.3643,87.0892
66.3615,87.0878
65.4710,86.6487
65.4700,86.6482
65.3301,86.5777
65.3275,86.5763
64.4795,86.1230
64.4784,86.1224
64.3141,86.0325
64.3117,86.0311
63.4985,85.5617
63.4973,85.5610
63.3830,85.4932
63.3173,85.4542
63.3151,85.4529
62.5316,84.9657
62.5302,84.9649
62.3409,84.8438
62.3388,84.8425
61.5811,84.3362
61.5797,84.3352
61.3861,84.2019
61.3842,84.2006
60.6493,83.6740
60.6478,83.6729
60.5528,83.6026
60.4540,83.5295
60.4522,83.5282
59.7378,82.9800
59.7362,82.9788
59.5457,82.8276
59.5442,82.8264
58.8483,82.2553
58.8466,82.2539
58.6625,82.0973
58.6611,82.0961
57.9819,81.5005
57.9802,81.4989
57.8056,81.3400
57.8044,81.3388
57.5252,81.0774
57.1401,80.7167
57.1384,80.7150
56.9762,80.5569
56.9751,80.5558
56.3240,79.9047
56.3222,79.9028
56.1756,79.7500
56.1747,79.7489
55.5346,79.0656
55.5328,79.0635
55.4054,78.9212
55.4046,78.9204
55.3107,78.8133
54.7730,78.2001
54.7711,78.1980
54.6673,78.0738
54.6668,78.0732
54.0450,77.3155
54.0401,77.3095
54.0381,77.3071
53.9641,77.2121
53.9635,77.2113
53.3368,76.3946
53.3349,76.3920
53.2989,76.3425
53.2985,76.3419
52.6667,75.4603
52.6644,75.4569
52.4509,75.1374
52.4300,75.0707
52.4485,75.0034
52.5005,74.9567
52.5694,74.9455
52.6335,74.9734
52.6417,74.9808
53.1530,75.4921
54.0049,76.3441
54.0049,76.3441
54.0080,76.3472
54.0080,76.3472
54.1528,76.4920
54.1528,76.4920
54.1528,76.4920
54.1770,76.5095
54.2691,76.5764
54.3184,76.6123
54.4078,76.6579
54.5008,76.7052
54.5008,76.7052
54.5800,76.7310
54.6833,76.7645
54.6891,76.7664
54.6955,76.7685
54.7966,76.7845
54.8976,76.8005
54.8976,76.8005
55.1024,76.8005
56.0292,76.8005
56.0962,76.8202
56.1362,76.8618
56.1377,76.8644
56.2103,77.0034
56.2419,77.0421
56.2467,77.0504
56.2529,77.0754
56.2629,77.0991
56.2613,77.1087
56.2636,77.1182
56.2554,77.1426
56.2509,77.1679
56.2471,77.1751
56.2469,77.1755
56.2469,77.1755
56.1491,77.4117
56.1490,77.4117
56.1005,77.5930
56.0829,77.6587
56.0495,77.9121
56.0495,78.1679
56.0686,78.3128
56.0829,78.4213
56.1247,78.5774
56.1490,78.6683
56.1491,78.6683
56.2469,78.9045
56.2469,78.9045
56.3747,79.1260
56.3747,79.1260
56.5304,79.3288
56.5304,79.3288
56.7112,79.5096
56.7112,79.5096
56.7933,79.5726
56.9140,79.6653
56.9140,79.6653
57.1355,79.7931
57.1355,79.7931
57.1355,79.7931
57.3717,79.8909
57.6187,79.9571
57.8722,79.9905
58.0600,79.9905
58.1270,80.0102
58.1476,80.0268
59.6128,81.4920
59.7402,81.5845
59.7784,81.6123
59.8946,81.6715
59.9608,81.7052
59.9608,81.7052
59.9608,81.7052
60.0651,81.7391
60.1555,81.7685
60.2566,81.7845
60.3576,81.8005
60.5624,81.8005
61.7356,81.8005
61.8026,81.8202
61.8339,81.8490
61.9604,82.0138
61.9604,82.0138
62.1412,82.1946
62.1412,82.1946
62.2178,82.2534
62.3440,82.3503
62.3440,82.3503
62.5655,82.4781
62.5655,82.4781
62.5655,82.4781
62.8017,82.5759
63.0487,82.6421
63.3022,82.6755
63.3022,82.6755
63.5578,82.6755
63.5578,82.6755
63.8113,82.6421
64.0583,82.5759
64.2945,82.4781
64.3032,82.4731
64.4106,82.4111
64.5160,82.3503
64.7188,82.1946
64.8996,82.0138
65.0553,81.8110
65.1831,81.5895
65.2809,81.3533
65.3307,81.1675
65.3671,81.1079
65.4299,81.0774
65.4993,81.0856
65.5532,81.1301
65.5745,81.1967
65.5745,81.1996
65.5745,81.7580
65.5745,81.7580
65.5851,81.8774
65.6411,82.0730
65.6411,82.0730
65.6411,82.0730
65.7353,82.2534
65.7700,82.2959
65.8639,82.4111
65.9347,82.4689
66.0216,82.5397
66.0216,82.5397
66.1190,82.5906
66.1693,82.6390
66.1854,82.7070
66.1795,82.7388
66.1107,82.9505
66.0965,83.0400
67.0920,83.0400
67.0591,83.0970
67.0250,83.2242
67.0250,83.3558
67.0591,83.4830
67.0920,83.5400
66.0965,83.5400
66.1107,83.6295
66.1812,83.8466
66.2848,84.0500
66.4190,84.2346
66.5804,84.3960
66.7650,84.5301
66.9684,84.6338
67.1855,84.7043
67.2750,84.7185
67.2750,83.7230
67.3320,83.7559
67.4592,83.7900
67.5908,83.7900
67.7180,83.7559
67.7750,83.7230
67.7750,84.7185
67.8645,84.7043
68.0816,84.6338
68.2850,84.5301
68.4696,84.3960
68.6310,84.2346
68.7651,84.0500
68.8688,83.8466
68.9393,83.6295
68.9535,83.5400
67.9580,83.5400
67.9909,83.4830
68.0250,83.3558
68.0250,83.2242
67.9909,83.0970
67.9580,83.0400
68.9535,83.0400
68.9393,82.9505
68.8705,82.7388
68.8685,82.6689
68.9046,82.6091
68.9310,82.5906
69.0284,82.5397
69.1861,82.4111
69.3147,82.2534
69.4089,82.0730
69.4649,81.8774
69.4755,81.7580
69.4755,79.7420
69.4649,79.6226
69.4199,79.4653
69.4089,79.4270
69.4089,79.4270
69.4089,79.4270
69.3147,79.2466
69.2484,79.1653
69.1861,79.0889
69.0284,78.9603
69.0284,78.9603
69.0284,78.9603
68.8480,78.8661
68.8480,78.8661
68.8480,78.8661
68.7308,78.8325
68.6524,78.8101
68.6524,78.8101
68.6524,78.8101
68.5861,78.8042
68.5330,78.7995
68.5330,78.7995
66.5170,78.7995
66.5170,78.7995
66.5170,78.7995
66.5053,78.8005
66.3976,78.8101
66.2020,78.8661
66.1283,78.9045
66.0216,78.9603
66.0216,78.9603
66.0216,78.9603
65.8639,79.0889
65.7409,79.2397
65.7353,79.2466
65.7226,79.2710
65.6411,79.4270
65.5851,79.6226
65.5851,79.6226
65.5745,79.7420
65.5745,80.2504
65.5548,80.3174
65.5020,80.3632
65.4329,80.3731
65.3693,80.3441
65.3315,80.2853
65.3307,80.2825
65.3287,80.2748
65.2809,80.0967
65.1831,79.8605
65.1831,79.8605
65.1831,79.8605
65.0553,79.6390
65.0553,79.6390
64.9720,79.5305
64.9468,79.4653
64.9608,79.3969
64.9720,79.3795
65.0553,79.2710
65.1831,79.0495
65.2809,78.8133
65.3471,78.5663
65.3805,78.3128
65.3805,78.0572
65.3471,77.8037
65.2809,77.5567
65.2706,77.5317
65.1831,77.3205
65.1831,77.3205
65.0553,77.0990
65.0553,77.0990
64.9720,76.9905
64.9468,76.9253
64.9608,76.8569
64.9720,76.8395
65.0553,76.7310
65.1831,76.5095
65.2809,76.2733
65.3471,76.0263
65.3805,75.7728
65.3805,75.5172
65.3471,75.2637
65.2809,75.0167
65.2754,75.0034
65.1831,74.7805
65.1831,74.7805
65.0553,74.5590
65.0553,74.5590
64.9720,74.4505
64.9468,74.3853
64.9608,74.3169
64.9720,74.2995
65.0553,74.1910
65.1831,73.9695
65.2809,73.7333
65.3471,73.4863
65.3805,73.2328
65.3805,72.9772
65.3471,72.7237
65.2809,72.4767
65.2779,72.4693
65.1831,72.2405
65.1831,72.2405
65.0553,72.0190
65.0553,72.0190
64.9720,71.9105
64.9468,71.8453
64.9608,71.7769
64.9720,71.7595
65.0553,71.6510
65.1831,71.4295
65.2809,71.1933
65.3471,70.9463
65.3805,70.6928
65.3805,70.4372
65.3471,70.1837
65.2809,69.9367
65.2691,69.9081
65.1831,69.7005
65.1831,69.7005
65.0553,69.4790
65.0553,69.4790
64.8996,69.2762
64.8996,69.2762
64.7188,69.0954
64.7188,69.0954
64.6386,69.0338
64.5974,68.9774
64.5932,68.9077
64.6138,68.8626
64.6701,68.7850
64.7738,68.5816
64.8443,68.3645
64.8585,68.2750
63.8630,68.2750
63.8959,68.2180
63.9300,68.0908
63.9300,67.9592
63.8959,67.8320
63.8630,67.7750
64.8585,67.7750
64.8443,67.6855
64.7738,67.4684
64.6701,67.2650
64.6138,67.1874
64.5903,67.1216
64.6061,67.0536
64.6386,67.0162
64.7188,66.9546
64.8516,66.8218
64.9129,66.7883
64.9393,66.7855
65.6250,66.7855
65.6920,66.8052
65.7126,66.8218
66.3332,67.4424
66.3667,67.5037
66.3695,67.5300
66.3695,71.3124
66.4015,71.5145
66.4015,71.5145
66.4196,71.5703
66.4648,71.7092
66.5069,71.7920
66.5577,71.8916
66.6780,72.0572
66.6780,72.0572
80.5832,85.9624
80.6167,86.0237
80.6195,86.0500
80.6195,86.4208
80.6134,86.4591
80.5540,86.6420
80.5529,86.6487
80.5195,86.8598
80.5195,87.0802
80.5209,87.0892
80.5540,87.2980
80.6221,87.5076
80.6221,87.5076
80.6565,87.5750
80.7204,87.7005
80.7222,87.7040
80.8518,87.8824
80.8518,87.8824
81.0076,88.0382
81.0076,88.0382
81.1632,88.1513
81.1860,88.1678
81.3144,88.2332
81.3824,88.2679
81.3824,88.2679
81.4872,88.3020
81.5920,88.3360
81.8098,88.3705
81.8098,88.3705
82.0302,88.3705
82.0302,88.3705
82.2480,88.3360
82.4576,88.2679
82.6540,88.1678
82.8324,88.0382
82.9882,87.8824
83.1178,87.7040
83.2179,87.5076
83.2860,87.2980
83.3205,87.0802
83.3205,86.8598
83.2860,86.6420
83.2266,86.4591
83.2205,86.4208
83.2205,85.8590
83.2402,85.7920
83.2930,85.7463
83.3621,85.7363
83.4257,85.7653
83.4322,85.7714
85.0528,87.3920
85.2184,87.5123
85.3096,87.5588
85.4008,87.6052
85.4981,87.6368
85.5955,87.6685
85.7976,87.7005
85.7976,87.7005
91.4024,87.7005
91.4024,87.7005
91.6045,87.6685
91.7019,87.6368
91.7992,87.6052
91.8904,87.5588
91.9816,87.5123
92.1472,87.3920
94.7920,84.7472
94.9123,84.5816
94.9702,84.4680
95.0052,84.3992
95.0434,84.2816
95.0685,84.2045
95.1005,84.0024
95.1005,83.7976
95.1005,79.5109
95.1202,79.4439
95.1730,79.3981
95.2421,79.3882
95.2472,79.3890
95.2518,79.3899
95.2518,79.3899
95.3712,79.4005
97.4873,79.4005
97.6066,79.3899
97.8023,79.3339
97.9826,79.2397
98.1403,79.1111
98.2689,78.9534
98.3631,78.7730
98.4191,78.5774
98.4297,78.4580
98.4297,77.2819
99.9292,77.2819
99.9292,77.5181
99.9661,77.7512
100.0391,77.9758
100.1463,78.1862
100.2066,78.2691
100.2066,78.2691
100.9463,77.5294
100.9633,77.5930
101.0291,77.7070
101.1222,77.8001
101.2362,77.8659
101.2998,77.8830
100.5601,78.6227
100.6430,78.6829
100.8534,78.7901
101.0780,78.8631
101.0780,78.8631
101.3112,78.9000
101.5473,78.9000
101.7805,78.8631
102.0050,78.7901
102.2154,78.6829
102.2154,78.6829
102.2983,78.6227
102.2983,78.6227
101.5586,77.8830
101.6222,77.8659
101.7362,77.8001
101.8293,77.7070
101.8951,77.5930
101.9122,77.5294
102.6519,78.2691
102.6519,78.2691
102.7121,78.1862
102.7121,78.1862
102.8193,77.9758
102.8923,77.7512
102.9292,77.5181
102.9292,77.2819
102.8923,77.0488
102.8193,76.8242
102.7121,76.6138
102.6519,76.5309
102.6519,76.5309
101.9122,77.2706
101.8951,77.2070
101.8293,77.0930
101.7362,76.9999
101.6222,76.9341
101.5586,76.9170
102.2983,76.1773
102.2983,76.1773
102.2154,76.1171
102.0050,76.0099
101.7805,75.9369
101.7805,75.9369
101.5473,75.9000
101.3112,75.9000
101.0780,75.9369
100.8534,76.0099
100.6430,76.1171
100.5601,76.1773
101.2998,76.9170
101.2362,76.9341
101.1222,76.9999
101.0291,77.0930
100.9633,77.2070
100.9463,77.2706
100.2066,76.5309
100.1463,76.6138
100.0391,76.8242
99.9661,77.0488
99.9292,77.2819
98.4297,77.2819
98.4297,76.3420
98.4191,76.2226
98.3631,76.0270
98.2689,75.8466
98.1884,75.7478
98.1403,75.6889
97.9826,75.5603
97.9826,75.5603
97.9826,75.5603
97.8023,75.4661
97.8023,75.4661
97.8023,75.4661
97.6850,75.4325
97.6066,75.4101
97.6066,75.4101
97.6066,75.4101
97.5403,75.4042
97.4873,75.3995
97.4872,75.3995
95.3712,75.3995
95.3712,75.3995
95.3712,75.3995
95.3595,75.4005
95.2518,75.4101
95.0562,75.4661
94.9680,75.5122
94.8758,75.5603
94.8758,75.5603
94.8758,75.5603
94.7181,75.6889
94.5895,75.8466
94.4953,76.0270
94.4393,76.2226
94.4393,76.2226
94.4287,76.3420
94.4287,77.7902
94.4090,77.8572
94.3562,77.9030
94.2871,77.9129
94.2235,77.8839
94.2170,77.8778
93.5072,77.1680
93.5072,77.1680
93.3416,77.0477
93.3161,77.0347
93.2535,77.0028
93.2535,77.0028
93.2489,77.0005
93.1592,76.9548
93.0537,76.9205
93.0493,76.9191
93.0493,76.9191
92.9645,76.8915
92.8092,76.8669
92.7624,76.8595
92.7624,76.8595
92.1514,76.8595
92.0844,76.8398
92.0386,76.7870
92.0287,76.7179
92.0440,76.6735
92.1531,76.4845
92.1531,76.4845
92.1531,76.4845
92.2509,76.2483
92.3171,76.0013
92.3505,75.7478
92.3505,75.4922
92.3171,75.2387
92.2509,74.9917
92.1531,74.7555
92.1531,74.7555
92.1531,74.7555
92.0253,74.5340
92.0253,74.5340
91.9612,74.4505
91.8696,74.3312
91.8696,74.3312
91.7368,74.1984
91.7033,74.1371
91.7005,74.1107
91.7005,73.0780
91.7202,73.0110
91.7730,72.9653
91.8421,72.9553
91.8783,72.9663
92.1458,73.0951
92.1458,73.0951
92.4374,73.1972
92.4374,73.1972
92.7385,73.2659
92.7386,73.2659
92.7386,73.2659
92.9432,73.2890
93.0455,73.3005
93.0455,73.3005
93.0455,73.3005
93.3545,73.3005
93.3545,73.3005
93.5131,73.2826
93.6614,73.2659
93.6614,73.2659
93.6615,73.2659
93.9626,73.1972
94.2542,73.0951
94.5326,72.9611
94.7941,72.7967
95.0357,72.6041
95.2541,72.3857
95.4467,72.1441
95.6111,71.8826
95.7451,71.6042
95.8472,71.3126
95.9159,71.0115
95.9232,70.9463
95.9505,70.7045
95.9505,70.7045
95.9505,70.3955
95.9505,70.3955
95.9159,70.0886
95.9159,70.0885
95.8472,69.7874
95.8472,69.7874
95.7451,69.4958
95.7451,69.4958
95.6111,69.2174
95.4467,68.9559
95.2541,68.7143
95.0581,68.5183
95.0246,68.4570
95.0296,68.3873
95.0714,68.3313
95.0983,68.3160
95.1295,68.3031
95.3510,68.1753
95.5538,68.0196
95.7346,67.8388
95.8903,67.6360
96.0181,67.4145
96.0211,67.4072
96.0830,67.2578
96.0955,67.2277
96.1393,67.1733
96.2056,67.1513
96.2733,67.1686
96.2977,67.1875
96.3643,67.2541
96.6059,67.4467
96.8674,67.6111
97.1458,67.7451
97.1458,67.7451
97.4374,67.8472
97.4374,67.8472
97.7385,67.9159
97.7386,67.9159
97.7386,67.9159
97.9432,67.9390
98.0455,67.9505
98.0455,67.9505
98.0455,67.9505
98.3545,67.9505
98.3545,67.9505
98.5114,67.9328
98.6614,67.9159
98.6614,67.9159
98.6615,67.9159
98.9626,67.8472
99.2542,67.7451
99.5326,67.6111
99.7941,67.4467
100.0357,67.2541
100.2541,67.0357
100.4467,66.7941
100.6111,66.5326
100.6992,66.3495
100.7451,66.2542
100.7451,66.2542
100.7570,66.2203
100.8472,65.9626
100.9159,65.6615
100.9505,65.3545
100.9505,65.0455
100.9159,64.7385
100.8472,64.4374
100.8449,64.4310
100.7518,64.1648
100.7451,64.1458
100.6111,63.8674
100.4467,63.6059
100.2541,63.3643
100.0357,63.1459
99.7941,62.9533
99.5874,62.8234
99.5326,62.7889
99.2542,62.6549
99.2542,62.6549
98.9626,62.5528
98.9626,62.5528
98.6615,62.4841
98.6614,62.4841
98.3545,62.4495
98.3545,62.4495
98.0455,62.4495
98.0455,62.4495
97.7386,62.4841
97.7385,62.4841
97.4374,62.5528
97.4374,62.5528
97.1458,62.6549
97.1458,62.6549
96.8674,62.7889
96.6059,62.9533
96.3643,63.1459
96.1459,63.3643
95.9533,63.6059
95.7889,63.8674
95.7516,63.9449
95.7048,63.9968
95.6373,64.0151
95.5707,63.9940
95.5571,63.9828
95.5569,63.9831
95.5538,63.9804
95.3510,63.8247
95.3510,63.8247
95.3510,63.8247
95.3510,63.8247
95.3510,63.8247
95.1295,63.6969
95.1295,63.6969
94.8933,63.5991
94.8933,63.5991
94.8933,63.5990
94.6463,63.5329
94.5900,63.5255
94.3928,63.4995
94.3928,63.4995
94.1372,63.4995
94.1371,63.4995
93.9118,63.5292
93.8837,63.5329
93.7514,63.5683
93.6367,63.5990
93.6367,63.5991
93.4005,63.6969
93.4005,63.6969
93.4001,63.6971
93.3999,63.6972
93.3968,63.6987
93.3965,63.6980
93.3322,63.7136
93.2661,63.6907
93.2597,63.6858
93.2284,63.6603
93.2284,63.6603
93.2284,63.6603
93.0480,63.5661
93.0480,63.5661
93.0480,63.5661
92.9308,63.5326
92.8524,63.5101
92.8524,63.5101
92.8524,63.5101
92.7861,63.5042
92.7330,63.4995
92.7330,63.4995
90.7170,63.4995
90.7170,63.4995
90.7170,63.4995
90.7053,63.5005
90.5976,63.5101
90.4020,63.5661
90.3034,63.6176
90.2349,63.6312
90.1699,63.6055
90.1355,63.5640
90.1123,63.5184
89.9920,63.3528
88.5872,61.9480
88.4216,61.8277
88.2686,61.7498
88.2686,61.7497
88.2494,61.7400
88.2392,61.7348
88.1131,61.6938
88.0445,61.6715
88.0445,61.6715
88.0445,61.6715
88.0428,61.6712
88.0422,61.6710
88.0398,61.6704
88.0399,61.6699
87.9796,61.6413
87.9427,61.5820
87.9437,61.5121
87.9548,61.4868
87.9553,61.4860
87.9553,61.4860
88.0831,61.2645
88.1809,61.0283
88.2471,60.7813
88.2805,60.5278
88.2805,60.2722
88.2471,60.0187
88.1809,59.7717
88.0831,59.5355
88.0831,59.5355
88.0831,59.5355
87.9553,59.3140
87.9553,59.3140
87.8720,59.2055
87.8468,59.1403
87.8608,59.0719
87.8720,59.0545
87.9553,58.9460
88.0831,58.7245
88.1809,58.4883
88.2471,58.2413
88.2805,57.9878
88.2805,57.7322
88.2471,57.4787
88.1809,57.2317
88.0831,56.9955
88.0831,56.9955
88.0831,56.9955
87.9553,56.7740
87.9553,56.7740
87.8720,56.6655
87.8468,56.6003
87.8608,56.5319
87.8720,56.5145
87.9553,56.4060
88.0831,56.1845
88.1809,55.9483
88.2471,55.7013
88.2790,55.4591
88.3073,55.3952
88.3656,55.3568
88.4355,55.3559
88.4582,55.3648
88.5624,55.4179
88.5624,55.4179
88.6546,55.4478
88.7720,55.4860
88.9898,55.5205
88.9898,55.5205
89.2102,55.5205
89.2102,55.5205
89.2258,55.5180
108.6695,55.5180
108.6695,55.8620
108.7032,56.2042
108.7703,56.5416
108.8701,56.8707
109.0018,57.1885
109.0018,57.1885
109.1639,57.4918
109.1639,57.4918
109.3550,57.7778
109.3550,57.7778
109.5732,58.0436
109.8164,58.2868
109.8164,58.2868
109.8164,58.2868
110.0822,58.5050
110.3682,58.6961
110.3682,58.6961
110.3682,58.6961
110.6715,58.8582
110.6715,58.8582
110.6715,58.8582
110.9893,58.9898
111.3184,59.0897
111.6557,59.1568
111.9980,59.1905
111.9980,59.1905
112.3420,59.1905
112.3420,59.1905
112.6842,59.1568
113.0216,59.0897
113.3507,58.9898
113.6685,58.8582
113.9718,58.6961
114.2578,58.5050
114.5236,58.2868
114.7668,58.0436
114.9850,57.7778
115.1761,57.4918
115.3382,57.1885
115.4698,56.8707
115.5697,56.5416
115.6368,56.2042
115.6705,55.8620
115.6705,55.5180
115.6368,55.1758
115.5697,54.8384
115.4698,54.5093
115.3382,54.1915
115.3302,54.1765
115.1761,53.8882
115.1761,53.8882
115.1761,53.8882
114.9850,53.6022
114.7668,53.3364
114.7668,53.3364
114.7668,53.3364
114.5236,53.0932
114.2578,52.8750
114.2578,52.8750
114.2578,52.8750
113.9718,52.6839
113.9718,52.6839
113.9718,52.6839
113.6685,52.5218
113.6685,52.5218
113.6322,52.5068
113.3833,52.4037
113.3507,52.3901
113.0216,52.2903
112.6842,52.2232
112.6842,52.2232
112.4265,52.1978
112.3420,52.1895
111.9980,52.1895
111.9200,52.1972
111.6557,52.2232
111.3184,52.2903
110.9893,52.3901
110.6715,52.5218
110.6715,52.5218
110.3682,52.6839
110.3682,52.6839
110.0822,52.8750
110.0822,52.8750
109.8164,53.0932
109.5732,53.3364
109.3550,53.6022
109.3550,53.6022
109.1639,53.8882
109.1639,53.8882
109.0018,54.1915
109.0018,54.1915
108.8701,54.5093
108.7703,54.8384
108.7032,55.1758
108.6794,55.4179
108.6710,55.5030
108.6695,55.5180
89.2258,55.5180
89.4280,55.4860
89.6376,55.4179
89.6376,55.4179
89.6376,55.4179
89.6639,55.4045
89.6639,55.4045
89.6821,55.3952
89.8340,55.3178
90.0124,55.1882
90.1682,55.0324
90.2978,54.8540
90.3979,54.6576
90.4660,54.4480
90.5005,54.2302
90.5005,54.0098
90.4660,53.7920
90.4066,53.6091
90.4005,53.5708
90.4005,42.6859
97.0900,42.6859
97.0900,43.1000
98.1070,43.1000
98.0741,43.1570
98.0400,43.2842
98.0400,43.4158
98.0741,43.5430
98.1070,43.6000
97.0900,43.6000
97.0900,44.0141
97.1257,44.2395
97.1962,44.4566
97.2998,44.6600
97.4340,44.8446
97.5954,45.0060
97.7800,45.1401
97.9834,45.2438
98.2005,45.3143
98.2900,45.3285
98.2900,43.7830
98.3470,43.8159
98.4742,43.8500
98.6058,43.8500
98.7330,43.8159
98.7900,43.7830
98.7900,45.3285
98.8795,45.3143
99.0912,45.2455
99.1611,45.2435
99.2209,45.2796
99.2394,45.3060
99.2512,45.3285
99.2903,45.4034
99.2903,45.4034
99.4189,45.5611
99.5128,45.6377
99.5766,45.6897
99.7570,45.7839
99.9526,45.8399
100.0720,45.8505
102.0880,45.8505
102.2074,45.8399
102.4030,45.7839
102.5834,45.6897
102.7411,45.5611
102.8697,45.4034
102.9639,45.2230
103.0199,45.0274
103.0305,44.9080
103.0305,41.7920
103.0199,41.6726
102.9639,41.4770
102.8697,41.2966
102.7887,41.1973
102.7411,41.1389
102.5834,41.0103
102.5834,41.0103
102.5834,41.0103
102.4030,40.9161
102.4030,40.9161
102.4030,40.9161
102.2858,40.8825
102.2074,40.8601
102.2074,40.8601
102.2074,40.8601
102.1411,40.8542
102.0880,40.8495
102.0880,40.8495
100.0720,40.8495
100.0720,40.8495
100.0720,40.8495
100.0603,40.8505
99.9526,40.8601
99.7570,40.9161
99.7261,40.9322
99.5766,41.0103
99.5766,41.0103
99.5766,41.0103
99.4189,41.1389
99.2903,41.2966
99.2903,41.2966
99.2394,41.3940
99.1910,41.4443
99.1230,41.4604
99.0912,41.4545
98.8795,41.3857
98.7900,41.3715
98.7900,42.9170
98.7330,42.8841
98.6058,42.8500
98.4742,42.8500
98.3470,42.8841
98.2900,42.9170
98.2900,41.3715
98.2900,41.3715
98.2005,41.3857
97.9834,41.4562
97.7800,41.5598
97.5954,41.6940
97.4340,41.8554
97.2998,42.0400
97.1962,42.2434
97.1257,42.4605
97.0900,42.6859
90.4005,42.6859
90.4005,40.2076
90.3737,40.0386
90.3685,40.0055
90.3530,39.9577
90.3445,39.9316
90.3151,39.8412
90.3131,39.7714
90.3454,39.7152
90.3982,39.6624
90.3982,39.6624
90.4004,39.6602
90.4617,39.6268
90.5314,39.6317
90.5873,39.6736
90.6089,39.7203
90.6528,39.9126
90.6528,39.9126
90.7549,40.2042
90.7549,40.2042
90.8889,40.4826
90.8889,40.4826
91.0533,40.7441
91.2459,40.9857
91.4643,41.2041
91.7059,41.3967
91.9674,41.5611
92.2458,41.6951
92.2458,41.6951
92.5374,41.7972
92.5374,41.7972
92.8385,41.8659
92.8386,41.8659
92.8386,41.8659
93.0432,41.8890
93.1455,41.9005
93.1455,41.9005
93.1455,41.9005
93.4545,41.9005
93.4545,41.9005
93.6114,41.8828
93.7614,41.8659
93.7614,41.8659
93.7615,41.8659
94.0626,41.7972
94.3542,41.6951
94.6326,41.5611
94.8941,41.3967
95.1357,41.2041
95.3541,40.9857
95.5467,40.7441
95.7111,40.4826
95.8451,40.2042
95.9472,39.9126
96.0159,39.6115
96.0193,39.5812
96.0451,39.3524
96.0505,39.3045
96.0505,38.9955
96.0343,38.8516
96.0159,38.6886
96.0159,38.6885
95.9472,38.3874
95.9472,38.3874
95.8451,38.0958
95.8451,38.0958
95.7111,37.8174
95.5467,37.5559
95.3541,37.3143
95.1357,37.0959
95.1313,37.0924
95.0553,37.0318
94.8941,36.9033
94.6326,36.7389
94.6326,36.7389
94.3542,36.6049
94.3542,36.6049
94.1733,36.5415
94.1165,36.5008
94.0907,36.4359
94.1042,36.3673
94.1526,36.3169
94.2142,36.3005
96.1024,36.3005
96.1024,36.3005
96.3045,36.2685
96.4019,36.2368
96.4992,36.2052
96.6421,36.1324
96.6816,36.1123
96.8472,35.9920
99.2720,33.5672
99.3923,33.4016
99.4601,33.2685
99.4852,33.2192
99.5353,33.0651
99.5485,33.0245
99.5805,32.8224
99.5805,32.6176
99.5805,30.3208
99.6002,30.2538
99.6471,30.2109
99.7834,30.1397
99.9411,30.0111
100.0697,29.8534
100.1639,29.6730
100.2199,29.4774
100.2305,29.3580
100.2305,27.3420
100.2199,27.2226
100.1639,27.0270
100.0697,26.8466
99.9975,26.7580
99.9411,26.6889
99.8283,26.5969
99.7834,26.5603
99.7834,26.5603
99.7823,26.5594
99.7821,26.5590
99.7777,26.5573
99.6301,26.4802
99.6030,26.4661
99.6030,26.4661
99.6030,26.4661
99.5194,26.4421
99.4074,26.4101
99.4074,26.4101
99.4074,26.4101
99.3411,26.4042
99.2880,26.3995
99.2880,26.3995
97.2720,26.3995
97.2720,26.3995
97.2720,26.3995
97.2603,26.4005
97.1526,26.4101
96.9570,26.4661
96.9415,26.4742
96.7766,26.5603
96.7766,26.5603
96.7766,26.5603
96.6189,26.6889
96.4903,26.8466
96.4903,26.8466
96.4394,26.9440
96.3910,26.9943
96.3230,27.0104
96.2912,27.0045
96.0795,26.9357
95.9900,26.9215
95.9900,27.9170
95.9330,27.8841
95.8058,27.8500
95.6742,27.8500
95.5470,27.8841
95.4900,27.9170
95.4900,26.9215
95.4900,26.9215
95.4005,26.9357
95.1834,27.0062
94.9800,27.1098
94.9024,27.1662
94.8366,27.1897
94.7686,27.1739
94.7312,27.1414
94.6696,27.0612
94.6696,27.0612
94.4888,26.8804
94.4888,26.8804
94.2860,26.7247
94.2860,26.7247
94.2860,26.7247
94.2860,26.7247
94.2860,26.7247
94.0645,26.5969
94.0645,26.5969
93.8283,26.4991
93.8283,26.4991
93.8283,26.4991
93.5813,26.4329
93.5250,26.4255
93.3278,26.3995
93.3278,26.3995
93.0722,26.3995
93.0721,26.3995
92.8468,26.4292
92.8187,26.4329
92.6658,26.4738
92.5717,26.4991
92.5717,26.4991
92.3355,26.5969
92.3355,26.5969
92.1140,26.7247
92.1140,26.7247
92.0055,26.8080
91.9403,26.8332
91.8719,26.8192
91.8545,26.8080
91.7460,26.7247
91.7460,26.7247
91.7460,26.7247
91.7460,26.7247
91.7460,26.7247
91.5245,26.5969
91.5245,26.5969
91.2883,26.4991
91.2883,26.4991
91.2883,26.4991
91.0413,26.4329
90.9850,26.4255
90.7878,26.3995
90.7878,26.3995
90.5322,26.3995
90.5321,26.3995
90.3068,26.4292
90.2787,26.4329
90.1258,26.4738
90.0317,26.4991
90.0317,26.4991
89.7955,26.5969
89.7955,26.5969
89.5740,26.7247
89.5740,26.7247
89.4655,26.8080
89.4003,26.8332
89.3319,26.8192
89.3145,26.8080
89.2060,26.7247
89.2060,26.7247
89.2060,26.7247
89.2060,26.7247
89.2060,26.7247
88.9845,26.5969
88.9845,26.5969
88.7483,26.4991
88.7483,26.4991
88.7483,26.4991
88.5013,26.4329
88.4450,26.4255
88.2478,26.3995
88.2478,26.3995
87.9922,26.3995
87.9921,26.3995
87.7668,26.4292
87.7387,26.4329
87.5858,26.4738
87.4917,26.4991
87.4917,26.4991
87.2555,26.5969
87.2555,26.5969
87.0340,26.7247
87.0340,26.7247
86.9255,26.8080
86.8603,26.8332
86.7919,26.8192
86.7745,26.8080
86.6660,26.7247
86.6660,26.7247
86.6660,26.7247
86.6660,26.7247
86.6660,26.7247
86.4445,26.5969
86.4445,26.5969
86.2083,26.4991
86.2083,26.4991
86.2083,26.4991
85.9613,26.4329
85.9050,26.4255
85.7078,26.3995
85.7078,26.3995
85.4522,26.3995
85.4521,26.3995
85.2268,26.4292
85.1987,26.4329
85.0458,26.4738
84.9517,26.4991
84.9517,26.4991
84.7155,26.5969
84.7155,26.5969
84.4940,26.7247
84.4940,26.7247
84.3855,26.8080
84.3203,26.8332
84.2519,26.8192
84.2345,26.8080
84.1260,26.7247
84.1260,26.7247
84.1260,26.7247
84.1260,26.7247
84.1260,26.7247
83.9045,26.5969
83.9045,26.5969
83.6683,26.4991
83.6683,26.4991
83.6683,26.4991
83.4213,26.4329
83.3650,26.4255
83.1679,26.3995
83.1678,26.3995
82.9122,26.3995
82.9121,26.3995
82.6868,26.4292
82.6587,26.4329
82.5058,26.4738
82.4117,26.4991
82.4117,26.4991
82.1755,26.5969
82.1755,26.5969
81.9540,26.7247
81.9540,26.7247
81.8455,26.8080
81.7803,26.8332
81.7119,26.8192
81.6945,26.8080
81.5860,26.7247
81.5860,26.7247
81.5860,26.7247
81.5860,26.7247
81.5860,26.7247
81.3645,26.5969
81.3645,26.5969
81.1283,26.4991
81.1283,26.4991
81.1283,26.4991
80.8813,26.4329
80.8250,26.4255
80.6278,26.3995
80.6278,26.3995
80.3722,26.3995
80.3721,26.3995
80.1468,26.4292
80.1187,26.4329
79.9658,26.4738
79.8717,26.4991
79.8717,26.4991
79.6355,26.5969
79.6355,26.5969
79.4140,26.7247
79.4140,26.7247
79.2112,26.8804
79.2112,26.8804
79.0304,27.0612
79.0304,27.0612
78.8747,27.2640
78.8747,27.2640
78.8368,27.3297
78.7863,27.3779
78.7176,27.3911
78.6528,27.3652
78.6220,27.3297
78.5553,27.2140
78.4380,27.0612
78.3996,27.0112
78.3996,27.0112
78.2188,26.8304
78.2188,26.8304
78.0160,26.6747
78.0160,26.6747
78.0160,26.6747
78.0160,26.6747
78.0160,26.6747
77.7945,26.5469
77.7945,26.5469
77.5583,26.4491
77.5583,26.4491
77.5583,26.4490
77.3113,26.3829
77.2550,26.3755
77.0579,26.3495
77.0578,26.3495
76.8022,26.3495
76.8021,26.3495
76.5768,26.3792
76.5487,26.3829
76.3621,26.4329
76.3017,26.4490
76.3017,26.4491
76.0655,26.5469
76.0655,26.5469
75.8440,26.6747
75.8440,26.6747
75.7355,26.7580
75.6703,26.7832
75.6019,26.7692
75.5845,26.7580
75.4760,26.6747
75.4760,26.6747
75.4760,26.6747
75.4760,26.6747
75.4760,26.6747
75.2545,26.5469
75.2545,26.5469
75.0183,26.4491
75.0183,26.4491
75.0183,26.4490
74.7713,26.3829
74.7150,26.3755
74.5178,26.3495
74.5178,26.3495
74.2622,26.3495
74.2621,26.3495
74.0368,26.3792
74.0087,26.3829
73.8221,26.4329
73.7617,26.4490
73.7617,26.4491
73.5255,26.5469
73.5255,26.5469
73.3040,26.6747
73.3040,26.6747
73.1955,26.7580
73.1303,26.7832
73.0619,26.7692
73.0445,26.7580
72.9360,26.6747
72.9360,26.6747
72.9360,26.6747
72.9360,26.6747
72.9360,26.6747
72.7145,26.5469
72.7145,26.5469
72.4783,26.4491
72.4783,26.4491
72.4783,26.4490
72.2313,26.3829
72.1750,26.3755
71.9779,26.3495
71.9778,26.3495
71.7222,26.3495
71.7221,26.3495
71.4968,26.3792
71.4687,26.3829
71.2821,26.4329
71.2217,26.4490
71.2217,26.4491
70.9855,26.5469
70.9855,26.5469
70.7640,26.6747
70.7640,26.6747
70.6555,26.7580
70.5903,26.7832
70.5219,26.7692
70.5045,26.7580
70.3960,26.6747
70.3960,26.6747
70.3960,26.6747
70.3960,26.6747
70.3960,26.6747
70.1745,26.5469
70.1745,26.5469
69.9383,26.4491
69.9383,26.4491
69.9383,26.4490
69.6913,26.3829
69.6350,26.3755
69.4378,26.3495
69.4378,26.3495
69.1822,26.3495
69.1821,26.3495
68.9568,26.3792
68.9287,26.3829
68.7421,26.4329
68.6817,26.4490
68.6817,26.4491
68.4455,26.5469
68.4455,26.5469
68.2240,26.6747
68.2240,26.6747
68.1155,26.7580
68.0503,26.7832
67.9819,26.7692
67.9645,26.7580
67.8560,26.6747
67.8560,26.6747
67.8560,26.6747
67.8560,26.6747
67.8560,26.6747
67.6345,26.5469
67.6345,26.5469
67.3983,26.4491
67.3983,26.4491
67.3983,26.4490
67.1513,26.3829
67.0950,26.3755
66.8978,26.3495
66.8978,26.3495
66.6422,26.3495
66.6421,26.3495
66.4168,26.3792
66.3887,26.3829
66.2021,26.4329
66.1417,26.4490
66.1417,26.4491
65.9055,26.5469
65.9055,26.5469
65.9051,26.5471
65.9049,26.5472
65.9018,26.5487
65.9015,26.5480
65.8372,26.5636
65.7711,26.5407
65.7647,26.5358
65.7334,26.5103
65.7334,26.5103
65.7334,26.5103
65.5530,26.4161
65.5530,26.4161
65.5530,26.4161
65.4358,26.3825
65.3574,26.3601
65.3574,26.3601
65.3574,26.3601
65.2911,26.3542
65.2380,26.3495
65.2380,26.3495
63.2220,26.3495
63.2220,26.3495
63.2220,26.3495
63.2103,26.3505
63.1026,26.3601
62.9702,26.3980
62.9003,26.3975
62.8418,26.3593
62.8132,26.2956
62.8236,26.2265
62.8697,26.1740
62.8703,26.1737
63.3152,25.8970
63.3171,25.8958
63.4976,25.7889
63.4983,25.7885
64.3118,25.3188
64.3140,25.3176
64.4787,25.2274
64.4792,25.2271
65.3276,24.7736
65.3300,24.7724
65.4703,24.7017
65.4707,24.7014
66.3615,24.2622
66.3642,24.2609
66.4673,24.2132
66.4676,24.2131
67.4123,23.7850
67.4152,23.7838
67.4621,23.7640
67.4622,23.7639
68.4722,23.3456
68.4759,23.3441
69.5368,22.9448
69.5406,22.9435
70.6140,22.5791
70.6178,22.5779
71.7026,22.2488
71.7064,22.2477
72.6803,21.9868
72.8013,21.9543
72.8052,21.9534
73.9092,21.6959
73.9131,21.6951
75.0249,21.4740
75.0288,21.4733
76.1473,21.2886
76.1512,21.2880
77.2751,21.1400
77.2790,21.1396
78.4071,21.0285
78.4111,21.0282
79.5202,20.9555
79.5204,20.9554
79.5481,20.9538
79.5512,20.9537
80.6033,20.9192
80.6036,20.9192
80.6994,20.9168
80.7018,20.9167
80.7050,20.9167
81.7087,20.9167
Z" /> 
<path style="fill:#000000; fill-opacity:1.0000; stroke:none;fill-rule:evenodd;"
d="M 77.5188,42.4229
77.5748,42.4647
77.5992,42.5302
77.5995,42.5390
77.5995,44.4024
77.6315,44.6045
77.6495,44.6600
77.6514,44.6658
77.6948,44.7992
77.7260,44.8605
77.7289,44.8662
77.7289,44.8662
77.7877,44.9816
77.8308,45.0409
77.9080,45.1472
81.4528,48.6920
81.6184,48.8123
81.6816,48.8445
81.8008,48.9052
81.8008,48.9052
81.8511,48.9216
81.8981,48.9368
81.8981,48.9368
81.9135,48.9418
81.9955,48.9685
82.1976,49.0005
82.4024,49.0005
83.6776,49.0005
84.7976,49.0005
84.8207,49.0005
84.8878,49.0202
84.9084,49.0368
85.0306,49.1590
85.0412,49.1696
85.1214,49.2312
85.1626,49.2876
85.1668,49.3573
85.1462,49.4024
85.0898,49.4800
84.9862,49.6834
84.9157,49.9005
84.9015,49.9900
85.8970,49.9900
85.8641,50.0470
85.8300,50.1742
85.8300,50.3058
85.8641,50.4330
85.8970,50.4900
84.9015,50.4900
84.9157,50.5795
84.9862,50.7966
85.0899,51.0000
85.1462,51.0776
85.1697,51.1434
85.1539,51.2114
85.1214,51.2488
85.0412,51.3104
85.0412,51.3104
84.8604,51.4912
84.8604,51.4912
84.7047,51.6940
84.7047,51.6940
84.5769,51.9155
84.5769,51.9155
84.4791,52.1517
84.4791,52.1517
84.4192,52.3751
84.4129,52.3987
84.3795,52.6521
84.3795,52.9078
84.4019,53.0782
84.4129,53.1613
84.4598,53.3364
84.4791,53.4083
84.4791,53.4083
84.5769,53.6445
84.5769,53.6445
84.7047,53.8660
84.7047,53.8660
84.7880,53.9745
84.8132,54.0397
84.7992,54.1081
84.7880,54.1255
84.7047,54.2340
84.7047,54.2340
84.5769,54.4555
84.5769,54.4555
84.4791,54.6917
84.4791,54.6917
84.4438,54.8234
84.4129,54.9387
84.3795,55.1921
84.3795,55.4478
84.4055,55.6450
84.4129,55.7013
84.4791,55.9483
84.4791,55.9483
84.5769,56.1845
84.5769,56.1845
84.7047,56.4060
84.7047,56.4060
84.7880,56.5145
84.8132,56.5797
84.7992,56.6481
84.7880,56.6655
84.7047,56.7740
84.7047,56.7740
84.5769,56.9955
84.5769,56.9955
84.4791,57.2317
84.4791,57.2317
84.4134,57.4768
84.4129,57.4787
84.3795,57.7321
84.3795,57.9878
84.4055,58.1850
84.4129,58.2413
84.4658,58.4388
84.4791,58.4883
84.4791,58.4883
84.5769,58.7245
84.5769,58.7245
84.7047,58.9460
84.7047,58.9460
84.7880,59.0545
84.8132,59.1197
84.7992,59.1881
84.7880,59.2055
84.7047,59.3140
84.7047,59.3140
84.5769,59.5355
84.5769,59.5355
84.4791,59.7717
84.4791,59.7717
84.4129,60.0187
84.3795,60.2721
84.3795,60.5278
84.4032,60.7081
84.4129,60.7813
84.4791,61.0283
84.4791,61.0283
84.5769,61.2645
84.5769,61.2645
84.7047,61.4860
84.7047,61.4860
84.7880,61.5945
84.8132,61.6597
84.7992,61.7281
84.7880,61.7455
84.7047,61.8540
84.7047,61.8540
84.5769,62.0755
84.5769,62.0755
84.4791,62.3117
84.4791,62.3117
84.4129,62.5587
84.4115,62.5690
84.3795,62.8121
84.3795,63.0678
84.4055,63.2650
84.4129,63.3213
84.4785,63.5661
84.4791,63.5683
84.4791,63.5683
84.5769,63.8045
84.5769,63.8045
84.6860,63.9935
84.7025,64.0614
84.6796,64.1274
84.6247,64.1706
84.5786,64.1795
82.4176,64.1795
82.3933,64.1834
82.2155,64.2115
82.0208,64.2748
81.8384,64.3677
81.7343,64.4433
81.7343,64.4433
81.6728,64.4880
80.6080,65.5528
80.4877,65.7184
80.4877,65.7184
80.4540,65.7845
80.3948,65.9008
80.3948,65.9008
80.3824,65.9388
80.3747,65.9626
80.3315,66.0955
80.3315,66.0955
80.3199,66.1690
80.2995,66.2976
80.2995,81.7010
80.2798,81.7680
80.2270,81.8137
80.1579,81.8237
80.0943,81.7947
80.0878,81.7886
71.7294,73.4302
71.6959,73.3689
71.7009,73.2992
71.7428,73.2433
71.8083,73.2189
71.8447,73.2217
72.0385,73.2659
72.0386,73.2659
72.0386,73.2659
72.2432,73.2890
72.3455,73.3005
72.3455,73.3005
72.3455,73.3005
72.6545,73.3005
72.6545,73.3005
72.8131,73.2826
72.9614,73.2659
72.9614,73.2659
72.9615,73.2659
73.2626,73.1972
73.5542,73.0951
73.8326,72.9611
74.0941,72.7967
74.3357,72.6041
74.5541,72.3857
74.7467,72.1441
74.9111,71.8826
75.0451,71.6042
75.1472,71.3126
75.2159,71.0115
75.2232,70.9463
75.2505,70.7045
75.2505,70.7045
75.2505,70.3955
75.2505,70.3955
75.2159,70.0886
75.2159,70.0885
75.1472,69.7874
75.1472,69.7874
75.0451,69.4958
75.0451,69.4958
74.9111,69.2174
74.7467,68.9559
74.5541,68.7143
74.3357,68.4959
74.2976,68.4655
74.1995,68.3873
74.0941,68.3033
73.8326,68.1389
73.8326,68.1389
73.5542,68.0049
73.5542,68.0049
73.2626,67.9028
73.2626,67.9028
72.9615,67.8341
72.9614,67.8341
72.6545,67.7995
72.6545,67.7995
72.3455,67.7995
72.3455,67.7995
72.0386,67.8341
72.0385,67.8341
71.7374,67.9028
71.7374,67.9028
71.4458,68.0049
71.4458,68.0049
71.1674,68.1389
70.9059,68.3033
70.6643,68.4959
70.4459,68.7143
70.2533,68.9559
70.0889,69.2174
69.9549,69.4958
69.9549,69.4958
69.8528,69.7874
69.8528,69.7874
69.7841,70.0885
69.7841,70.0886
69.7495,70.3955
69.7495,70.7045
69.7841,71.0114
69.7841,71.0115
69.8283,71.2053
69.8241,71.2750
69.7828,71.3314
69.7176,71.3565
69.6491,71.3423
69.6198,71.3206
69.0068,70.7076
68.9733,70.6463
68.9705,70.6200
68.9705,66.8376
68.9427,66.6624
68.9385,66.6355
68.9192,66.5760
68.8752,66.4408
68.8752,66.4408
68.7823,66.2584
68.7546,66.2203
68.7546,66.2203
68.6620,66.0928
68.6620,66.0928
68.6620,66.0928
68.5172,65.9480
68.5172,65.9480
68.5141,65.9449
68.5141,65.9449
67.7897,65.2205
67.0622,64.4930
66.8966,64.3727
66.8054,64.3262
66.7142,64.2798
66.5733,64.2340
66.5195,64.2165
66.5195,64.2165
66.3613,64.1915
66.3174,64.1845
66.3174,64.1845
65.1814,64.1845
65.1144,64.1648
65.0686,64.1120
65.0587,64.0429
65.0740,63.9985
65.1831,63.8095
65.1831,63.8095
65.1831,63.8095
65.2809,63.5733
65.3471,63.3263
65.3805,63.0728
65.3805,62.8172
65.3471,62.5637
65.2809,62.3167
65.1831,62.0805
65.1831,62.0805
65.1831,62.0805
65.0553,61.8590
65.0553,61.8590
64.9720,61.7505
64.9468,61.6853
64.9608,61.6169
64.9720,61.5995
65.0553,61.4910
65.1831,61.2695
65.2809,61.0333
65.3471,60.7863
65.3805,60.5328
65.3805,60.2772
65.3471,60.0237
65.2809,59.7767
65.1831,59.5405
65.1831,59.5405
65.1831,59.5405
65.0553,59.3190
65.0553,59.3190
64.9720,59.2105
64.9468,59.1453
64.9608,59.0769
64.9720,59.0595
65.0553,58.9510
65.1831,58.7295
65.2809,58.4933
65.3471,58.2463
65.3805,57.9928
65.3805,57.7372
65.3471,57.4837
65.2809,57.2367
65.2610,57.1885
65.2448,57.1494
65.1831,57.0005
65.1831,57.0005
65.1831,57.0005
65.0553,56.7790
65.0553,56.7790
64.9720,56.6705
64.9468,56.6053
64.9608,56.5369
64.9720,56.5195
65.0553,56.4110
65.1831,56.1895
65.2809,55.9533
65.3471,55.7063
65.3805,55.4528
65.3805,55.1972
65.3471,54.9437
65.2809,54.6967
65.1831,54.4605
65.1831,54.4605
65.1831,54.4605
65.0740,54.2715
65.0575,54.2036
65.0804,54.1376
65.1353,54.0944
65.1814,54.0855
65.3174,54.0855
65.3174,54.0855
65.5195,54.0535
65.6537,54.0099
65.7142,53.9902
65.8335,53.9294
65.8966,53.8973
66.0622,53.7770
77.3878,42.4514
77.4491,42.4179
Z" /> 
<path style="fill:#000000; fill-opacity:1.0000; stroke:none;fill-rule:evenodd;"
d="M 54.4552,33.7579
54.4859,33.8207
54.4778,33.8901
54.4754,33.8954
54.3549,34.1458
54.3549,34.1458
54.2528,34.4374
54.2528,34.4374
54.1841,34.7385
54.1841,34.7386
54.1495,35.0455
54.1495,35.3545
54.1841,35.6614
54.1841,35.6615
54.2528,35.9626
54.2528,35.9626
54.3549,36.2542
54.3549,36.2542
54.4889,36.5326
54.4889,36.5326
54.6533,36.7941
54.8459,37.0357
55.0643,37.2541
55.3059,37.4467
55.5674,37.6111
55.8458,37.7451
55.8611,37.7505
56.1374,37.8472
56.1374,37.8472
56.4385,37.9159
56.4386,37.9159
56.4386,37.9159
56.6432,37.9390
56.7455,37.9505
56.7455,37.9505
56.7455,37.9505
57.0545,37.9505
57.0545,37.9505
57.2114,37.9328
57.3614,37.9159
57.3614,37.9159
57.3615,37.9159
57.6626,37.8472
57.9542,37.7451
58.2326,37.6111
58.4941,37.4467
58.7357,37.2541
58.9541,37.0357
58.9786,37.0050
59.0357,36.9649
59.1056,36.9620
59.1658,36.9974
59.1974,37.0597
59.1995,37.0823
59.1995,38.6024
59.2315,38.8045
59.2315,38.8045
59.2468,38.8516
59.2948,38.9992
59.3349,39.0780
59.3877,39.1816
59.4479,39.2644
59.5080,39.3472
59.5080,39.3472
61.2378,41.0770
61.3927,41.1896
61.4034,41.1973
61.4755,41.2340
61.5858,41.2902
61.5858,41.2902
61.5858,41.2902
61.6650,41.3160
61.7470,41.3426
61.8047,41.3820
61.8319,41.4464
61.8200,41.5152
61.8071,41.5360
61.8047,41.5390
61.8047,41.5390
61.6769,41.7605
61.6769,41.7605
61.5791,41.9967
61.5790,41.9967
61.5139,42.2397
61.5129,42.2437
61.4795,42.4971
61.4795,42.7528
61.4990,42.9010
61.5129,43.0063
61.5777,43.2483
61.5790,43.2533
61.5791,43.2533
61.6769,43.4895
61.6769,43.4895
61.8047,43.7110
61.8047,43.7110
61.8880,43.8195
61.9132,43.8847
61.8992,43.9531
61.8880,43.9705
61.8047,44.0790
61.8047,44.0790
61.6769,44.3005
61.6769,44.3005
61.5791,44.5367
61.5790,44.5367
61.5133,44.7822
61.5129,44.7837
61.4795,45.0371
61.4795,45.2929
61.5055,45.4900
61.5129,45.5463
61.5777,45.7883
61.5790,45.7933
61.5791,45.7933
61.6769,46.0295
61.6769,46.0295
61.8047,46.2510
61.8047,46.2510
61.8880,46.3595
61.9132,46.4247
61.8992,46.4931
61.8880,46.5105
61.8047,46.6190
61.8047,46.6190
61.6769,46.8405
61.6769,46.8405
61.5791,47.0767
61.5790,47.0767
61.5129,47.3237
61.4795,47.5771
61.4795,47.8329
61.5055,48.0300
61.5129,48.0863
61.5790,48.3333
61.5791,48.3333
61.6769,48.5695
61.6769,48.5695
61.8047,48.7910
61.8047,48.7910
61.8880,48.8995
61.9132,48.9647
61.8992,49.0331
61.8880,49.0505
61.8047,49.1590
61.8047,49.1590
61.6769,49.3805
61.6769,49.3805
61.5791,49.6167
61.5790,49.6167
61.5460,49.7400
61.5129,49.8637
61.4795,50.1171
61.4795,50.3728
61.4949,50.4900
61.5129,50.6263
61.5719,50.8467
61.5790,50.8733
61.5791,50.8733
61.6769,51.1095
61.6769,51.1095
61.8047,51.3310
61.8047,51.3310
61.8880,51.4395
61.9132,51.5047
61.8992,51.5731
61.8880,51.5905
61.8047,51.6990
61.8047,51.6990
61.6769,51.9205
61.6769,51.9205
61.5791,52.1567
61.5790,52.1567
61.5142,52.3987
61.5129,52.4037
61.4795,52.6571
61.4795,52.9128
61.5013,53.0782
61.5129,53.1663
61.5777,53.4083
61.5790,53.4133
61.5791,53.4133
61.6769,53.6495
61.6769,53.6495
61.8047,53.8710
61.8047,53.8710
61.8880,53.9795
61.9132,54.0447
61.8992,54.1131
61.8880,54.1305
61.8047,54.2390
61.8047,54.2390
61.6769,54.4605
61.6769,54.4605
61.5791,54.6967
61.5790,54.6967
61.5142,54.9387
61.5129,54.9437
61.4795,55.1971
61.4795,55.4528
61.4884,55.5205
61.5129,55.7063
61.5777,55.9483
61.5790,55.9533
61.5791,55.9533
61.6769,56.1895
61.6769,56.1895
61.8047,56.4110
61.8047,56.4110
61.8880,56.5195
61.9132,56.5847
61.8992,56.6531
61.8880,56.6705
61.8047,56.7790
61.8047,56.7790
61.6769,57.0005
61.6769,57.0005
61.5791,57.2367
61.5790,57.2367
61.5142,57.4787
61.5129,57.4837
61.4795,57.7371
61.4795,57.9928
61.5055,58.1900
61.5129,58.2463
61.5782,58.4900
61.5790,58.4933
61.5791,58.4933
61.6769,58.7295
61.6769,58.7295
61.8047,58.9510
61.8047,58.9510
61.8880,59.0595
61.9132,59.1247
61.8992,59.1931
61.8880,59.2105
61.8047,59.3190
61.8047,59.3190
61.6769,59.5405
61.6769,59.5405
61.5791,59.7767
61.5790,59.7767
61.5129,60.0237
61.4795,60.2771
61.4795,60.5328
61.5026,60.7081
61.5129,60.7863
61.5777,61.0283
61.5790,61.0333
61.5791,61.0333
61.6769,61.2695
61.6769,61.2695
61.8047,61.4910
61.8047,61.4910
61.8880,61.5995
61.9132,61.6647
61.8992,61.7331
61.8880,61.7505
61.8047,61.8590
61.8047,61.8590
61.6769,62.0805
61.6769,62.0805
61.5791,62.3167
61.5790,62.3167
61.5142,62.5587
61.5129,62.5637
61.4795,62.8171
61.4795,63.0728
61.5055,63.2700
61.5129,63.3263
61.5777,63.5683
61.5790,63.5733
61.5791,63.5733
61.6769,63.8095
61.6769,63.8095
61.8047,64.0310
61.8047,64.0310
61.8880,64.1395
61.9132,64.2047
61.8992,64.2731
61.8880,64.2905
61.8047,64.3990
61.8047,64.3990
61.6769,64.6205
61.6769,64.6205
61.5791,64.8567
61.5790,64.8567
61.5149,65.0962
61.5129,65.1037
61.4795,65.3571
61.4795,65.6128
61.5021,65.7845
61.5129,65.8663
61.5790,66.1133
61.5791,66.1133
61.6769,66.3495
61.6769,66.3495
61.8047,66.5710
61.8047,66.5710
61.9604,66.7738
61.9604,66.7738
62.1412,66.9546
62.1412,66.9546
62.2214,67.0162
62.2626,67.0726
62.2668,67.1423
62.2462,67.1874
62.1898,67.2650
62.0862,67.4684
62.0157,67.6855
62.0015,67.7750
62.9970,67.7750
62.9641,67.8320
62.9300,67.9592
62.9300,68.0908
62.9641,68.2180
62.9970,68.2750
62.0015,68.2750
62.0157,68.3645
62.0862,68.5816
62.1899,68.7850
62.2462,68.8626
62.2697,68.9284
62.2539,68.9964
62.2214,69.0338
62.1412,69.0954
62.1412,69.0954
61.9604,69.2762
61.9604,69.2762
61.8047,69.4790
61.8047,69.4790
61.6769,69.7005
61.6769,69.7005
61.5791,69.9367
61.5790,69.9367
61.5384,70.0886
61.5129,70.1837
61.4795,70.4371
61.4795,70.6928
61.5055,70.8900
61.5129,70.9463
61.5790,71.1933
61.5791,71.1933
61.6769,71.4295
61.6769,71.4295
61.8047,71.6510
61.8047,71.6510
61.8880,71.7595
61.9132,71.8247
61.8992,71.8931
61.8880,71.9105
61.8047,72.0190
61.8047,72.0190
61.6769,72.2405
61.6769,72.2405
61.5791,72.4767
61.5790,72.4767
61.5142,72.7187
61.5129,72.7237
61.4795,72.9771
61.4795,73.2328
61.4942,73.3443
61.5129,73.4863
61.5777,73.7283
61.5790,73.7333
61.5791,73.7333
61.6769,73.9695
61.6769,73.9695
61.8047,74.1910
61.8047,74.1910
61.8880,74.2995
61.9132,74.3647
61.8992,74.4331
61.8880,74.4505
61.8047,74.5590
61.8047,74.5590
61.6769,74.7805
61.6769,74.7805
61.5791,75.0167
61.5790,75.0167
61.5196,75.2387
61.5129,75.2637
61.4795,75.5171
61.4795,75.7728
61.5038,75.9574
61.5129,76.0263
61.5777,76.2683
61.5790,76.2733
61.5791,76.2733
61.6769,76.5095
61.6769,76.5095
61.8047,76.7310
61.8047,76.7310
61.8880,76.8395
61.9132,76.9047
61.8992,76.9731
61.8880,76.9905
61.8047,77.0990
61.8047,77.0990
61.6769,77.3205
61.6769,77.3205
61.5791,77.5567
61.5790,77.5567
61.5129,77.8037
61.4795,78.0571
61.4795,78.3128
61.4938,78.4213
61.5129,78.5663
61.5777,78.8083
61.5790,78.8133
61.5791,78.8133
61.6680,79.0280
61.6755,79.0975
61.6442,79.1600
61.5841,79.1956
61.5534,79.1995
61.0500,79.1995
60.9830,79.1798
60.9624,79.1632
59.9868,78.1876
59.9533,78.1263
59.9505,78.1000
59.9505,77.9122
59.9505,77.9121
59.9433,77.8572
59.9171,77.6587
59.8509,77.4117
59.7531,77.1755
59.7529,77.1751
59.7529,77.1750
59.7513,77.1718
59.7520,77.1715
59.7364,77.1072
59.7592,77.0412
59.7642,77.0347
59.7897,77.0034
59.8839,76.8230
59.9399,76.6274
59.9505,76.5080
59.9505,74.4920
59.9399,74.3726
59.8857,74.1833
59.8839,74.1770
59.8839,74.1770
59.8839,74.1770
59.7897,73.9966
59.7172,73.9076
59.6611,73.8389
59.5316,73.7333
59.5034,73.7103
59.3230,73.6161
59.3230,73.6161
59.3230,73.6161
59.2058,73.5825
59.1274,73.5601
59.1274,73.5601
59.1274,73.5601
59.0546,73.5536
59.0080,73.5495
59.0080,73.5495
58.5554,73.5495
58.4884,73.5298
58.4426,73.4770
58.4327,73.4079
58.4617,73.3443
58.4799,73.3271
58.5067,73.3066
58.5379,73.2826
58.7326,73.0879
58.9002,72.8695
59.0379,72.6310
59.1433,72.3766
59.2146,72.1107
59.2505,71.8377
59.2505,71.5623
59.2146,71.2893
59.1433,71.0234
59.0379,70.7690
59.0379,70.7690
59.0379,70.7690
58.9003,70.5305
58.9002,70.5305
58.8845,70.5101
58.7761,70.3688
58.7509,70.3036
58.7505,70.2933
58.7505,68.7920
58.7505,68.7920
58.7399,68.6726
58.6893,68.4959
58.6839,68.4770
58.6839,68.4770
58.6839,68.4770
58.6257,68.3655
58.6121,68.2970
58.6211,68.2607
58.6612,68.1639
58.7205,67.9422
58.7505,67.7147
58.7505,67.4853
58.7205,67.2578
58.6612,67.0361
58.5733,66.8241
58.4797,66.6620
58.4633,66.5941
58.4797,66.5380
58.5733,66.3759
58.6612,66.1639
58.7205,65.9422
58.7505,65.7147
58.7505,65.4853
58.7205,65.2578
58.6635,65.0448
58.6651,64.9749
58.6956,64.9250
58.7326,64.8879
58.9002,64.6695
59.0379,64.4310
59.1433,64.1766
59.2146,63.9107
59.2505,63.6377
59.2505,63.3623
59.2146,63.0893
59.1433,62.8234
59.0379,62.5690
59.0379,62.5690
59.0379,62.5690
58.9748,62.4597
58.9002,62.3305
58.7326,62.1121
58.7326,62.1121
58.5379,61.9174
58.5379,61.9174
58.3195,61.7498
58.3195,61.7498
58.3195,61.7498
58.1900,61.6750
58.0810,61.6121
58.0810,61.6121
57.8266,61.5067
57.6936,61.4711
57.5607,61.4354
57.5607,61.4354
57.5607,61.4354
57.2877,61.3995
57.2877,61.3995
57.2877,61.3995
55.7123,61.3995
55.7123,61.3995
55.7123,61.3995
55.4393,61.4354
55.4393,61.4354
55.4393,61.4354
55.3831,61.4505
55.1734,61.5067
54.9190,61.6121
54.9190,61.6121
54.6805,61.7498
54.4621,61.9174
54.4621,61.9174
54.2674,62.1121
54.2674,62.1121
54.0998,62.3305
53.9621,62.5690
53.9621,62.5690
53.8567,62.8234
53.8219,62.9533
53.7912,63.0678
53.7854,63.0893
53.7854,63.0893
53.7495,63.3623
53.7495,63.3623
53.7495,63.6377
53.7495,63.6377
53.7854,63.9107
53.7854,63.9107
53.7854,63.9107
53.8478,64.1434
53.8461,64.2133
53.8070,64.2711
53.7427,64.2986
53.7374,64.2991
53.7327,64.2995
53.6176,64.2995
53.5166,64.3155
53.5116,64.3163
53.5116,64.3163
53.4155,64.3315
53.3181,64.3632
53.2425,64.3877
53.1727,64.3897
53.1128,64.3536
53.0820,64.2909
53.0896,64.2223
53.1461,64.0861
53.2088,63.8518
53.2405,63.6113
53.2405,63.3687
53.2088,63.1282
53.1461,62.8939
53.0532,62.6698
52.9319,62.4597
52.8328,62.3305
52.7843,62.2673
52.7843,62.2673
52.7783,62.2613
52.7448,62.1999
52.7498,62.1303
52.7783,62.0859
55.9920,58.8722
56.1123,58.7066
56.1382,58.6558
56.1861,58.6051
56.2249,58.5954
56.2276,58.5940
56.2298,58.5942
56.2539,58.5883
56.2850,58.5988
56.2972,58.5999
56.3114,58.6078
56.3201,58.6108
56.3244,58.6140
56.3295,58.6179
56.3312,58.6196
56.4116,58.6813
56.4117,58.6814
56.4322,58.7096
56.4526,58.7376
56.4526,58.7378
56.4527,58.7379
56.4547,58.7727
56.4568,58.8073
56.4567,58.8075
56.4567,58.8077
56.4563,58.8084
56.4362,58.8524
56.3798,58.9300
56.2762,59.1334
56.2057,59.3505
56.1915,59.4400
57.1870,59.4400
57.1541,59.4970
57.1200,59.6242
57.1200,59.7558
57.1541,59.8830
57.1870,59.9400
56.1915,59.9400
56.2057,60.0295
56.2762,60.2466
56.3798,60.4500
56.5140,60.6346
56.6754,60.7960
56.8600,60.9301
57.0634,61.0338
57.2805,61.1043
57.3700,61.1185
57.3700,60.1230
57.4270,60.1559
57.5542,60.1900
57.6858,60.1900
57.8130,60.1559
57.8700,60.1230
57.8700,61.1185
57.9595,61.1043
58.1766,61.0338
58.3800,60.9301
58.5646,60.7960
58.7260,60.6346
58.8601,60.4500
58.9638,60.2466
59.0343,60.0295
59.0485,59.9400
58.0530,59.9400
58.0859,59.8830
58.1200,59.7558
58.1200,59.6242
58.0859,59.4970
58.0530,59.4400
59.0485,59.4400
59.0343,59.3505
58.9638,59.1334
58.8601,58.9300
58.8038,58.8524
58.7803,58.7866
58.7961,58.7186
58.8286,58.6812
58.9088,58.6196
59.0896,58.4388
59.2453,58.2360
59.3731,58.0145
59.4709,57.7783
59.5371,57.5313
59.5705,57.2778
59.5705,57.0222
59.5371,56.7687
59.4709,56.5217
59.4680,56.5145
59.4230,56.4060
59.3731,56.2855
59.3731,56.2855
59.3731,56.2855
59.2453,56.0640
59.2453,56.0640
59.1620,55.9555
59.1368,55.8903
59.1508,55.8219
59.1620,55.8045
59.2453,55.6960
59.3731,55.4745
59.4709,55.2383
59.5371,54.9913
59.5705,54.7378
59.5705,54.4822
59.5371,54.2287
59.4709,53.9817
59.3731,53.7455
59.3729,53.7451
59.3729,53.7450
59.3713,53.7418
59.3720,53.7415
59.3564,53.6772
59.3792,53.6112
59.3842,53.6047
59.4097,53.5734
59.5039,53.3930
59.5599,53.1974
59.5705,53.0780
59.5705,51.0620
59.5599,50.9426
59.5075,50.7594
59.5039,50.7470
59.5039,50.7470
59.5039,50.7470
59.4097,50.5666
59.3472,50.4900
59.2811,50.4089
59.1234,50.2803
59.1234,50.2803
59.1234,50.2803
58.9430,50.1861
58.9430,50.1861
58.9430,50.1861
58.8258,50.1525
58.7474,50.1301
58.7474,50.1301
58.7474,50.1301
58.6811,50.1242
58.6280,50.1195
58.6280,50.1195
56.6120,50.1195
56.6120,50.1195
56.6120,50.1195
56.6003,50.1205
56.4926,50.1301
56.2970,50.1861
56.2068,50.2332
56.1166,50.2803
56.1166,50.2803
56.1166,50.2803
55.9589,50.4089
55.8303,50.5666
55.7591,50.7029
55.7106,50.7532
55.6492,50.7695
55.3276,50.7695
55.2288,50.7852
55.2288,50.7852
55.2266,50.7855
55.1255,50.8015
55.0952,50.8114
55.0879,50.8128
55.0602,50.8102
55.0325,50.8110
55.0259,50.8071
55.0183,50.8064
54.9964,50.7893
54.9726,50.7750
54.9662,50.7657
54.9632,50.7634
54.9618,50.7594
54.9535,50.7474
54.8623,50.5684
54.8068,50.4920
54.7686,50.4394
54.7420,50.4028
54.7420,50.4028
54.7420,50.4028
54.5972,50.2580
54.5972,50.2580
54.5941,50.2549
54.5941,50.2549
53.3368,48.9976
53.3033,48.9363
53.3005,48.9100
53.3005,45.0900
53.3202,45.0230
53.3368,45.0024
53.5605,44.7787
53.8352,44.5039
53.8966,44.4705
53.9662,44.4754
54.0222,44.5173
54.0466,44.5828
54.0391,44.6350
54.0064,44.7226
54.0064,44.7226
54.0000,44.7822
54.0000,46.0800
55.2809,46.0800
55.2692,46.1083
55.2400,46.2551
55.2400,46.4049
55.2692,46.5517
55.2809,46.5800
54.0000,46.5800
54.0000,47.8778
54.0064,47.9374
54.0064,47.9374
54.0566,48.0721
54.0566,48.0721
54.1428,48.1872
54.1428,48.1872
54.2579,48.2734
54.2579,48.2734
54.3926,48.3236
54.3926,48.3236
54.4522,48.3300
54.4522,48.3300
55.7500,48.3300
55.7500,47.0491
55.7783,47.0608
55.9251,47.0900
56.0749,47.0900
56.2217,47.0608
56.2500,47.0491
56.2500,48.3300
57.5478,48.3300
57.5478,48.3300
57.6074,48.3236
57.6074,48.3236
57.7421,48.2734
57.7421,48.2734
57.8572,48.1872
57.8572,48.1872
57.9433,48.0721
57.9434,48.0721
57.9936,47.9374
57.9936,47.9374
58.0000,47.8778
58.0000,47.8778
58.0000,46.5800
56.7191,46.5800
56.7308,46.5517
56.7600,46.4049
56.7600,46.2551
56.7308,46.1083
56.7191,46.0800
58.0000,46.0800
58.0000,44.7822
58.0000,44.7822
57.9936,44.7226
57.9936,44.7226
57.9434,44.5879
57.9433,44.5879
57.8572,44.4728
57.8572,44.4728
57.7421,44.3866
57.7421,44.3866
57.6074,44.3364
57.6074,44.3364
57.5478,44.3300
56.2500,44.3300
56.2500,45.6109
56.2217,45.5992
56.0749,45.5700
55.9251,45.5700
55.7783,45.5992
55.7500,45.6109
55.7500,44.3300
54.4522,44.3300
54.3926,44.3364
54.3926,44.3364
54.3050,44.3691
54.2353,44.3741
54.1739,44.3406
54.1405,44.2793
54.1454,44.2096
54.1739,44.1652
54.2524,44.0868
54.3137,44.0533
54.3400,44.0505
54.6024,44.0505
54.6024,44.0505
54.8045,44.0185
54.9180,43.9816
54.9992,43.9552
55.1144,43.8965
55.1816,43.8623
55.3472,43.7420
55.3608,43.7284
55.4221,43.6949
55.4760,43.6952
55.5805,43.7191
55.5805,43.7191
55.5805,43.7191
55.7336,43.7363
55.8596,43.7505
55.8596,43.7505
55.8596,43.7505
56.1404,43.7505
56.1404,43.7505
56.2831,43.7344
56.4195,43.7191
56.4195,43.7191
56.4195,43.7191
56.6933,43.6566
56.9584,43.5638
57.2114,43.4419
57.4492,43.2925
57.6688,43.1174
57.8674,42.9188
58.0425,42.6992
58.1919,42.4614
58.3138,42.2084
58.4066,41.9433
58.4691,41.6695
58.4726,41.6377
58.4902,41.4815
58.5005,41.3904
58.5005,41.1096
58.4691,40.8305
58.4066,40.5567
58.3138,40.2916
58.1919,40.0386
58.0425,39.8008
57.8674,39.5812
57.6688,39.3826
57.4492,39.2075
57.2114,39.0581
57.2114,39.0581
56.9584,38.9362
56.6933,38.8434
56.6933,38.8434
56.4195,38.7809
56.4195,38.7809
56.1404,38.7495
56.1404,38.7495
55.8596,38.7495
55.8596,38.7495
55.5805,38.7809
55.5805,38.7809
55.3067,38.8434
55.3067,38.8434
55.0416,38.9362
54.7886,39.0581
54.5508,39.2075
54.3312,39.3826
54.1326,39.5812
53.9575,39.8008
53.8081,40.0386
53.6862,40.2916
53.5934,40.5567
53.5934,40.5567
53.5309,40.8305
53.5309,40.8305
53.4995,41.1096
53.4995,41.3739
53.4798,41.4409
53.4270,41.4867
53.4138,41.4918
53.2508,41.5448
53.2508,41.5448
53.1266,41.6080
53.0684,41.6377
52.9028,41.7580
51.0080,43.6528
50.8877,43.8184
50.8877,43.8184
50.8583,43.8762
50.7948,44.0008
50.7948,44.0008
50.7786,44.0505
50.7694,44.0790
50.7315,44.1955
50.7157,44.2955
50.7122,44.3178
50.6995,44.3976
50.6995,49.6024
50.7018,49.6171
50.7315,49.8045
50.7693,49.9208
50.7948,49.9992
50.7948,49.9992
50.7948,49.9992
50.8180,50.0448
50.8877,50.1816
51.0080,50.3472
51.7228,51.0620
52.4132,51.7524
52.4467,51.8137
52.4495,51.8400
52.4495,52.6492
52.4298,52.7162
52.3770,52.7620
52.3079,52.7719
52.2566,52.7523
52.1318,52.6689
52.1318,52.6689
51.8285,52.5068
51.8285,52.5068
51.5107,52.3751
51.1816,52.2753
50.8442,52.2082
50.8442,52.2082
50.5865,52.1828
50.5020,52.1745
50.1580,52.1745
50.0800,52.1822
49.8157,52.2082
49.4784,52.2753
49.1493,52.3751
48.8315,52.5068
48.8315,52.5068
48.5282,52.6689
48.5282,52.6689
48.2422,52.8600
48.2422,52.8600
47.9764,53.0782
47.7332,53.3214
47.5150,53.5872
47.5150,53.5872
47.3239,53.8732
47.3239,53.8732
47.1618,54.1765
47.1618,54.1765
47.0301,54.4943
46.9303,54.8234
46.8632,55.1608
46.8440,55.3559
46.8295,55.5030
46.8295,55.8470
46.8395,55.9483
46.8632,56.1892
46.9303,56.5266
47.0301,56.8557
47.1618,57.1735
47.1618,57.1735
47.3239,57.4768
47.3239,57.4768
47.5150,57.7628
47.5150,57.7628
47.7332,58.0286
47.9764,58.2718
47.9764,58.2718
47.9764,58.2718
48.2422,58.4900
48.5282,58.6811
48.5282,58.6811
48.5282,58.6811
48.5563,58.6961
48.7044,58.7753
48.7467,58.7979
48.7965,58.8468
48.8120,58.9150
48.7881,58.9807
48.7759,58.9949
48.1380,59.6328
48.1380,59.6328
48.0177,59.7984
48.0177,59.7984
48.0100,59.8136
48.0100,59.8136
48.0090,59.8155
47.9248,59.9808
47.9108,60.0237
47.8679,60.1559
47.8660,60.1616
47.8660,60.1616
47.8615,60.1755
47.8295,60.3776
47.8295,64.3020
47.8098,64.3690
47.7570,64.4148
47.6879,64.4247
47.6243,64.3957
47.5865,64.3369
47.5857,64.3341
47.5742,64.2909
47.5475,64.1914
47.5473,64.1906
47.5436,64.1766
47.5247,64.1039
47.5240,64.1010
47.2946,63.1171
47.2945,63.1168
47.2638,62.9798
47.2632,62.9771
47.0732,62.0219
47.0730,62.0210
47.0404,61.8484
47.0399,61.8457
46.8855,60.9106
46.8853,60.9093
46.8547,60.7107
46.8544,60.7082
46.7331,59.7870
46.7329,59.7857
46.7070,59.5684
46.7067,59.5660
46.6169,58.6544
46.6168,58.6532
46.5972,58.4227
46.5970,58.4205
46.5377,57.5154
46.5376,57.5137
46.5361,57.4837
46.5254,57.2749
46.5254,57.2731
46.4958,56.3716
46.4958,56.3699
46.4917,56.1270
46.4917,56.1249
46.4917,55.2251
46.4917,55.2230
46.4922,55.1921
46.4958,54.9801
46.4958,54.9784
46.5254,54.0769
46.5254,54.0751
46.5376,53.8362
46.5377,53.8346
46.5970,52.9295
46.5972,52.9273
46.6168,52.6968
46.6169,52.6956
46.7067,51.7840
46.7070,51.7816
46.7329,51.5642
46.7331,51.5630
46.8544,50.6417
46.8547,50.6393
46.8853,50.4407
46.8855,50.4394
46.8916,50.4028
47.0399,49.5043
47.0404,49.5016
47.0730,49.3289
47.0732,49.3282
47.2632,48.3729
47.2638,48.3702
47.2945,48.2331
47.2946,48.2329
47.5240,47.2490
47.5247,47.2461
47.5473,47.1592
47.5474,47.1588
47.8221,46.1339
47.8229,46.1309
47.8272,46.1164
48.1529,45.0428
48.1541,45.0390
48.5185,43.9656
48.5198,43.9618
48.9191,42.9009
48.9206,42.8972
49.3544,41.8499
49.3560,41.8463
49.8238,40.8137
49.8255,40.8101
49.8580,40.7441
50.3269,39.7934
50.3287,39.7899
50.3372,39.7741
50.8631,38.7902
50.8650,38.7867
51.4318,37.8050
51.4338,37.8016
52.0324,36.8389
52.0346,36.8356
52.6644,35.8930
52.6667,35.8898
53.2987,35.0077
53.3349,34.9580
53.3367,34.9554
53.9637,34.1384
53.9639,34.1381
54.0382,34.0428
54.0400,34.0406
54.2679,33.7630
54.3256,33.7236
54.3954,33.7218
Z" /> 
<path style="fill:#000000; fill-opacity:1.0000; stroke:none;fill-rule:evenodd;"
d="M 95.9900,29.7785
96.0795,29.7643
96.2912,29.6955
96.3611,29.6935
96.4209,29.7296
96.4394,29.7560
96.4903,29.8534
96.4903,29.8534
96.5390,29.9131
96.6189,30.0111
96.7317,30.1031
96.7766,30.1397
96.9129,30.2109
96.9632,30.2594
96.9795,30.3208
96.9795,32.1300
96.9598,32.1970
96.9432,32.2176
95.4976,33.6632
95.4363,33.6967
95.4100,33.6995
92.6024,33.6995
92.3976,33.6995
92.3508,33.7069
92.1955,33.7315
92.1955,33.7315
92.1314,33.7524
92.0008,33.7948
92.0008,33.7948
91.9096,33.8412
91.9096,33.8412
91.8184,33.8877
91.6528,34.0080
88.4529,37.2079
88.3916,37.2414
88.3219,37.2364
88.2659,37.1946
88.2454,37.1523
88.1809,36.9117
88.0831,36.6755
88.0831,36.6755
88.0831,36.6755
87.9553,36.4540
87.9553,36.4540
87.7996,36.2512
87.7996,36.2512
87.7844,36.2359
87.7509,36.1746
87.7559,36.1049
87.7736,36.0574
87.7800,35.9978
87.7800,35.9978
87.7800,35.2500
86.7630,35.2500
86.7959,35.1930
86.8300,35.0658
86.8300,34.9342
86.7959,34.8070
86.7630,34.7500
87.7800,34.7500
87.7800,34.0022
87.7800,34.0022
87.7736,33.9426
87.7736,33.9426
87.7234,33.8079
87.7233,33.8079
87.6372,33.6928
87.6372,33.6928
87.5221,33.6066
87.5221,33.6066
87.3874,33.5564
87.3874,33.5564
87.3278,33.5500
86.5885,33.5500
86.5215,33.5303
86.4758,33.4775
86.4658,33.4084
86.4948,33.3448
86.5009,33.3383
86.5024,33.3368
86.5637,33.3033
86.5900,33.3005
91.6024,33.3005
91.6024,33.3005
91.8045,33.2685
91.9108,33.2339
91.9992,33.2052
92.0904,33.1588
92.1816,33.1123
92.3472,32.9920
94.1920,31.1472
94.3123,30.9816
94.3700,30.8684
94.4052,30.7992
94.4685,30.6045
94.4774,30.5484
94.4838,30.5080
94.5005,30.4024
94.5005,29.8593
94.5202,29.7922
94.5368,29.7716
94.6696,29.6388
94.7312,29.5586
94.7876,29.5174
94.8573,29.5132
94.9024,29.5338
94.9800,29.5901
95.1834,29.6938
95.4005,29.7643
95.4900,29.7785
95.4900,28.7830
95.5470,28.8159
95.6742,28.8500
95.8058,28.8500
95.9330,28.8159
95.9900,28.7830
Z" /> 
</g> 
</svg>
