<?xml version="1.0" standalone="no"?>
 <!DOCTYPE svg PUBLIC "-//W3C//DTD SVG 1.1//EN" 
 "http://www.w3.org/Graphics/SVG/1.1/DTD/svg11.dtd"> 
<svg
  xmlns:svg="http://www.w3.org/2000/svg"
  xmlns="http://www.w3.org/2000/svg"
  xmlns:xlink="http://www.w3.org/1999/xlink"
  xmlns:inkscape="http://www.inkscape.org/namespaces/inkscape"
  version="1.1"
  width="297.0022mm" height="210.0072mm" viewBox="0.0000 0.0000 297.0022 210.0072">
<title>SVG Image created as Onboard_Comp-F_Cu.svg date 2026-04-19T14:17:27 </title>
  <desc>Image generated by PCBNEW </desc>
<g style="fill:#000000; fill-opacity:1.0000;stroke:#000000; stroke-opacity:1.0000;
stroke-linecap:round; stroke-linejoin:round;"
 transform="translate(0 0) scale(1 1)">
<path style="fill:#000000; fill-opacity:1.0000; stroke:none;fill-rule:evenodd;"
d="M 97.3300,27.4000
99.2300,27.4000
99.2300,29.3000
97.3300,29.3000
Z" /> 
</g>
<g style="fill:#000000; fill-opacity:1.0000; stroke:none;">
<circle cx="95.7400" cy="28.3500" r="0.9500" /> 
<circle cx="93.2000" cy="28.3500" r="0.9500" /> 
<circle cx="90.6600" cy="28.3500" r="0.9500" /> 
<circle cx="88.1200" cy="28.3500" r="0.9500" /> 
<circle cx="85.5800" cy="28.3500" r="0.9500" /> 
<circle cx="83.0400" cy="28.3500" r="0.9500" /> 
<circle cx="80.5000" cy="28.3500" r="0.9500" /> 
<path style="fill:#000000; fill-opacity:1.0000; stroke:none;fill-rule:evenodd;"
d="M 94.5800,63.3500
93.5800,63.3500
93.5800,61.1500
94.5800,61.1500
Z" /> 
</g>
<g style="fill:none; 
stroke:#000000; stroke-width:1.0000; stroke-opacity:1; 
stroke-linecap:round; stroke-linejoin:round;">
<path d="M95.3500 62.8500
L95.3500 61.6500
" />
<path style="fill:#000000; fill-opacity:1.0000; stroke:none;fill-rule:evenodd;"
d="M 57.0500,76.4500
57.0500,74.5500
58.9500,74.5500
58.9500,76.4500
Z" /> 
</g>
<g style="fill:#000000; fill-opacity:1.0000; stroke:none;">
<circle cx="58.0000" cy="78.0400" r="0.9500" /> 
<path style="fill:#000000; fill-opacity:1.0000; stroke:none;fill-rule:evenodd;"
d="M 100.1300,41.8500
102.0300,41.8500
102.0300,44.8500
100.1300,44.8500
Z" /> 
</g>
<g style="fill:none; 
stroke:#000000; stroke-width:1.9000; stroke-opacity:1; 
stroke-linecap:round; stroke-linejoin:round;">
<path d="M98.5400 42.8000
L98.5400 43.9000
" />
<path style="fill:#000000; fill-opacity:1.0000; stroke:none;fill-rule:evenodd;"
d="M 65.1800,29.2500
63.2800,29.2500
63.2800,27.3500
65.1800,27.3500
Z" /> 
</g>
<g style="fill:#000000; fill-opacity:1.0000; stroke:none;">
<circle cx="66.7700" cy="28.3000" r="0.9500" /> 
<circle cx="69.3100" cy="28.3000" r="0.9500" /> 
<circle cx="71.8500" cy="28.3000" r="0.9500" /> 
<circle cx="74.3900" cy="28.3000" r="0.9500" /> 
<circle cx="76.9300" cy="28.3000" r="0.9500" /> 
</g>
<g style="fill:none; 
stroke:#000000; stroke-width:2.2000; stroke-opacity:1; 
stroke-linecap:round; stroke-linejoin:round;">
<path d="M55.8500 71.7000
L57.1500 71.7000
" />
<path d="M55.8500 63.5000
L57.1500 63.5000
" />
<path style="fill:#000000; fill-opacity:1.0000; stroke:none;fill-rule:evenodd;"
d="M 57.7500,70.3500
55.2500,70.3500
55.2500,68.8500
57.7500,68.8500
Z" /> 
</g>
<g style="fill:none; 
stroke:#000000; stroke-width:1.5000; stroke-opacity:1; 
stroke-linecap:round; stroke-linejoin:round;">
<path d="M56.0000 67.6000
L57.0000 67.6000
" />
<path d="M56.0000 65.6000
L57.0000 65.6000
" />
<path style="fill:#000000; fill-opacity:1.0000; stroke:none;fill-rule:evenodd;"
d="M 96.8600,39.0600
96.7643,39.0410
96.6832,38.9868
96.6290,38.9057
96.6100,38.8100
96.6100,38.1600
96.6290,38.0643
96.6832,37.9832
96.7643,37.9290
96.8600,37.9100
97.7600,37.9100
97.8557,37.9290
97.9368,37.9832
97.9910,38.0643
98.0100,38.1600
98.0100,38.8100
97.9910,38.9057
97.9368,38.9868
97.8557,39.0410
97.7600,39.0600
Z" /> 
<path style="fill:#000000; fill-opacity:1.0000; stroke:none;fill-rule:evenodd;"
d="M 96.8600,37.0100
96.7643,36.9910
96.6832,36.9368
96.6290,36.8557
96.6100,36.7600
96.6100,36.1100
96.6290,36.0143
96.6832,35.9332
96.7643,35.8790
96.8600,35.8600
97.7600,35.8600
97.8557,35.8790
97.9368,35.9332
97.9910,36.0143
98.0100,36.1100
98.0100,36.7600
97.9910,36.8557
97.9368,36.9368
97.8557,36.9910
97.7600,37.0100
Z" /> 
<path style="fill:#000000; fill-opacity:1.0000; stroke:none;fill-rule:evenodd;"
d="M 95.4292,78.4000
95.4292,76.4000
97.4292,76.4000
97.4292,78.4000
Z" /> 
</g>
<g style="fill:#000000; fill-opacity:1.0000; stroke:none;">
<circle cx="101.4292" cy="77.4000" r="1.0000" /> 
<path style="fill:#000000; fill-opacity:1.0000; stroke:none;fill-rule:evenodd;"
d="M 90.8300,47.0000
90.8300,46.0000
93.8300,46.0000
93.8300,47.0000
Z" /> 
</g>
<g style="fill:none; 
stroke:#000000; stroke-width:1.0000; stroke-opacity:1; 
stroke-linecap:round; stroke-linejoin:round;">
<path d="M91.3300 47.7700
L93.3300 47.7700
" />
<path d="M91.3300 49.0400
L93.3300 49.0400
" />
<path d="M91.3300 50.3100
L93.3300 50.3100
" />
<path d="M91.3300 51.5800
L93.3300 51.5800
" />
<path d="M91.3300 52.8500
L93.3300 52.8500
" />
<path d="M91.3300 54.1200
L93.3300 54.1200
" />
<path d="M91.3300 55.3900
L93.3300 55.3900
" />
<path d="M91.3300 56.6600
L93.3300 56.6600
" />
<path d="M91.3300 57.9300
L93.3300 57.9300
" />
<path d="M91.3300 59.2000
L93.3300 59.2000
" />
<path d="M91.3300 60.4700
L93.3300 60.4700
" />
<path style="fill:#000000; fill-opacity:1.0000; stroke:none;fill-rule:evenodd;"
d="M 100.9750,35.9000
101.0707,35.9190
101.1518,35.9732
101.2060,36.0543
101.2250,36.1500
101.2250,36.6500
101.2060,36.7457
101.1518,36.8268
101.0707,36.8810
100.9750,36.9000
100.0250,36.9000
99.9293,36.8810
99.8482,36.8268
99.7940,36.7457
99.7750,36.6500
99.7750,36.1500
99.7940,36.0543
99.8482,35.9732
99.9293,35.9190
100.0250,35.9000
Z" /> 
<path style="fill:#000000; fill-opacity:1.0000; stroke:none;fill-rule:evenodd;"
d="M 100.9750,37.8000
101.0707,37.8190
101.1518,37.8732
101.2060,37.9543
101.2250,38.0500
101.2250,38.5500
101.2060,38.6457
101.1518,38.7268
101.0707,38.7810
100.9750,38.8000
100.0250,38.8000
99.9293,38.7810
99.8482,38.7268
99.7940,38.6457
99.7750,38.5500
99.7750,38.0500
99.7940,37.9543
99.8482,37.8732
99.9293,37.8190
100.0250,37.8000
Z" /> 
<path style="fill:#000000; fill-opacity:1.0000; stroke:none;fill-rule:evenodd;"
d="M 85.3800,35.9500
85.3800,34.0500
87.2800,34.0500
87.2800,35.9500
Z" /> 
</g>
<g style="fill:#000000; fill-opacity:1.0000; stroke:none;">
<circle cx="86.3300" cy="37.5400" r="0.9500" /> 
<circle cx="86.3300" cy="40.0800" r="0.9500" /> 
<circle cx="86.3300" cy="42.6200" r="0.9500" /> 
<circle cx="86.3300" cy="45.1600" r="0.9500" /> 
<circle cx="86.3300" cy="47.7000" r="0.9500" /> 
<circle cx="86.3300" cy="50.2400" r="0.9500" /> 
<circle cx="86.3300" cy="52.7800" r="0.9500" /> 
<circle cx="86.3300" cy="55.3200" r="0.9500" /> 
<circle cx="86.3300" cy="57.8600" r="0.9500" /> 
<circle cx="86.3300" cy="60.4000" r="0.9500" /> 
<circle cx="86.3300" cy="62.9400" r="0.9500" /> 
<circle cx="86.3300" cy="65.4800" r="0.9500" /> 
<circle cx="86.3300" cy="68.0200" r="0.9500" /> 
<circle cx="86.3300" cy="70.5600" r="0.9500" /> 
<circle cx="86.3300" cy="73.1000" r="0.9500" /> 
<circle cx="86.3300" cy="75.6400" r="0.9500" /> 
<circle cx="86.3300" cy="78.1800" r="0.9500" /> 
<circle cx="86.3300" cy="80.7200" r="0.9500" /> 
<path style="fill:#000000; fill-opacity:1.0000; stroke:none;fill-rule:evenodd;"
d="M 106.5500,34.9250
106.6457,34.9440
106.7268,34.9982
106.7810,35.0793
106.8000,35.1750
106.8000,37.6750
106.7810,37.7707
106.7268,37.8518
106.6457,37.9060
106.5500,37.9250
105.4500,37.9250
105.3543,37.9060
105.2732,37.8518
105.2190,37.7707
105.2000,37.6750
105.2000,35.1750
105.2190,35.0793
105.2732,34.9982
105.3543,34.9440
105.4500,34.9250
Z" /> 
<path style="fill:#000000; fill-opacity:1.0000; stroke:none;fill-rule:evenodd;"
d="M 106.5500,39.3250
106.6457,39.3440
106.7268,39.3982
106.7810,39.4793
106.8000,39.5750
106.8000,42.0750
106.7810,42.1707
106.7268,42.2518
106.6457,42.3060
106.5500,42.3250
105.4500,42.3250
105.3543,42.3060
105.2732,42.2518
105.2190,42.1707
105.2000,42.0750
105.2000,39.5750
105.2190,39.4793
105.2732,39.3982
105.3543,39.3440
105.4500,39.3250
Z" /> 
<path style="fill:#000000; fill-opacity:1.0000; stroke:none;fill-rule:evenodd;"
d="M 107.3300,47.0000
107.3300,46.0000
110.3300,46.0000
110.3300,47.0000
Z" /> 
</g>
<g style="fill:none; 
stroke:#000000; stroke-width:1.0000; stroke-opacity:1; 
stroke-linecap:round; stroke-linejoin:round;">
<path d="M107.8300 47.7700
L109.8300 47.7700
" />
<path style="fill:#000000; fill-opacity:1.0000; stroke:none;fill-rule:evenodd;"
d="M 103.4000,70.3500
103.3810,70.4457
103.3268,70.5268
103.2457,70.5810
103.1500,70.6000
102.4500,70.6000
102.3543,70.5810
102.2732,70.5268
102.2190,70.4457
102.2000,70.3500
102.2000,69.4500
102.2190,69.3543
102.2732,69.2732
102.3543,69.2190
102.4500,69.2000
103.1500,69.2000
103.2457,69.2190
103.3268,69.2732
103.3810,69.3543
103.4000,69.4500
Z" /> 
<path style="fill:#000000; fill-opacity:1.0000; stroke:none;fill-rule:evenodd;"
d="M 101.4000,70.3500
101.3810,70.4457
101.3268,70.5268
101.2457,70.5810
101.1500,70.6000
100.4500,70.6000
100.3543,70.5810
100.2732,70.5268
100.2190,70.4457
100.2000,70.3500
100.2000,69.4500
100.2190,69.3543
100.2732,69.2732
100.3543,69.2190
100.4500,69.2000
101.1500,69.2000
101.2457,69.2190
101.3268,69.2732
101.3810,69.3543
101.4000,69.4500
Z" /> 
<path style="fill:#000000; fill-opacity:1.0000; stroke:none;fill-rule:evenodd;"
d="M 52.2400,65.1800
52.2400,66.8800
50.5400,66.8800
50.5400,65.1800
Z" /> 
</g>
<g style="fill:#000000; fill-opacity:1.0000; stroke:none;">
<circle cx="51.3900" cy="63.4900" r="0.8500" /> 
<path style="fill:#000000; fill-opacity:1.0000; stroke:none;fill-rule:evenodd;"
d="M 57.5000,47.8300
54.5000,47.8300
54.5000,44.8300
57.5000,44.8300
Z" /> 
<circle cx="56.0000" cy="41.2500" r="1.5000" /> 
<path style="fill:#000000; fill-opacity:1.0000; stroke:none;fill-rule:evenodd;"
d="M 92.6750,67.5000
90.7750,67.5000
90.7750,64.5000
92.6750,64.5000
Z" /> 
</g>
<g style="fill:none; 
stroke:#000000; stroke-width:1.9000; stroke-opacity:1; 
stroke-linecap:round; stroke-linejoin:round;">
<path d="M94.2650 66.5500
L94.2650 65.4500
" />
<path style="fill:#000000; fill-opacity:1.0000; stroke:none;fill-rule:evenodd;"
d="M 79.7850,84.4200
79.7736,84.4774
79.7411,84.5261
79.6924,84.5586
79.6350,84.5700
78.3350,84.5700
78.2776,84.5586
78.2289,84.5261
78.1964,84.4774
78.1850,84.4200
78.1850,84.1200
78.1964,84.0626
78.2289,84.0139
78.2776,83.9814
78.3350,83.9700
79.6350,83.9700
79.6924,83.9814
79.7411,84.0139
79.7736,84.0626
79.7850,84.1200
Z" /> 
<path style="fill:#000000; fill-opacity:1.0000; stroke:none;fill-rule:evenodd;"
d="M 79.7850,83.1500
79.7736,83.2074
79.7411,83.2561
79.6924,83.2886
79.6350,83.3000
78.3350,83.3000
78.2776,83.2886
78.2289,83.2561
78.1964,83.2074
78.1850,83.1500
78.1850,82.8500
78.1964,82.7926
78.2289,82.7439
78.2776,82.7114
78.3350,82.7000
79.6350,82.7000
79.6924,82.7114
79.7411,82.7439
79.7736,82.7926
79.7850,82.8500
Z" /> 
<path style="fill:#000000; fill-opacity:1.0000; stroke:none;fill-rule:evenodd;"
d="M 79.7850,81.8800
79.7736,81.9374
79.7411,81.9861
79.6924,82.0186
79.6350,82.0300
78.3350,82.0300
78.2776,82.0186
78.2289,81.9861
78.1964,81.9374
78.1850,81.8800
78.1850,81.5800
78.1964,81.5226
78.2289,81.4739
78.2776,81.4414
78.3350,81.4300
79.6350,81.4300
79.6924,81.4414
79.7411,81.4739
79.7736,81.5226
79.7850,81.5800
Z" /> 
<path style="fill:#000000; fill-opacity:1.0000; stroke:none;fill-rule:evenodd;"
d="M 79.7850,80.6100
79.7736,80.6674
79.7411,80.7161
79.6924,80.7486
79.6350,80.7600
78.3350,80.7600
78.2776,80.7486
78.2289,80.7161
78.1964,80.6674
78.1850,80.6100
78.1850,80.3100
78.1964,80.2526
78.2289,80.2039
78.2776,80.1714
78.3350,80.1600
79.6350,80.1600
79.6924,80.1714
79.7411,80.2039
79.7736,80.2526
79.7850,80.3100
Z" /> 
<path style="fill:#000000; fill-opacity:1.0000; stroke:none;fill-rule:evenodd;"
d="M 72.5850,80.6100
72.5736,80.6674
72.5411,80.7161
72.4924,80.7486
72.4350,80.7600
71.1350,80.7600
71.0776,80.7486
71.0289,80.7161
70.9964,80.6674
70.9850,80.6100
70.9850,80.3100
70.9964,80.2526
71.0289,80.2039
71.0776,80.1714
71.1350,80.1600
72.4350,80.1600
72.4924,80.1714
72.5411,80.2039
72.5736,80.2526
72.5850,80.3100
Z" /> 
<path style="fill:#000000; fill-opacity:1.0000; stroke:none;fill-rule:evenodd;"
d="M 72.5850,81.8800
72.5736,81.9374
72.5411,81.9861
72.4924,82.0186
72.4350,82.0300
71.1350,82.0300
71.0776,82.0186
71.0289,81.9861
70.9964,81.9374
70.9850,81.8800
70.9850,81.5800
70.9964,81.5226
71.0289,81.4739
71.0776,81.4414
71.1350,81.4300
72.4350,81.4300
72.4924,81.4414
72.5411,81.4739
72.5736,81.5226
72.5850,81.5800
Z" /> 
<path style="fill:#000000; fill-opacity:1.0000; stroke:none;fill-rule:evenodd;"
d="M 72.5850,83.1500
72.5736,83.2074
72.5411,83.2561
72.4924,83.2886
72.4350,83.3000
71.1350,83.3000
71.0776,83.2886
71.0289,83.2561
70.9964,83.2074
70.9850,83.1500
70.9850,82.8500
70.9964,82.7926
71.0289,82.7439
71.0776,82.7114
71.1350,82.7000
72.4350,82.7000
72.4924,82.7114
72.5411,82.7439
72.5736,82.7926
72.5850,82.8500
Z" /> 
<path style="fill:#000000; fill-opacity:1.0000; stroke:none;fill-rule:evenodd;"
d="M 72.5850,84.4200
72.5736,84.4774
72.5411,84.5261
72.4924,84.5586
72.4350,84.5700
71.1350,84.5700
71.0776,84.5586
71.0289,84.5261
70.9964,84.4774
70.9850,84.4200
70.9850,84.1200
70.9964,84.0626
71.0289,84.0139
71.0776,83.9814
71.1350,83.9700
72.4350,83.9700
72.4924,83.9814
72.5411,84.0139
72.5736,84.0626
72.5850,84.1200
Z" /> 
<path style="fill:#000000; fill-opacity:1.0000; stroke:none;fill-rule:evenodd;"
d="M 91.3500,79.7500
91.3500,81.6500
89.4500,81.6500
89.4500,79.7500
Z" /> 
</g>
<g style="fill:#000000; fill-opacity:1.0000; stroke:none;">
<circle cx="90.4000" cy="78.1600" r="0.9500" /> 
<circle cx="90.4000" cy="75.6200" r="0.9500" /> 
<path style="fill:#000000; fill-opacity:1.0000; stroke:none;fill-rule:evenodd;"
d="M 73.8850,75.8400
73.9040,75.7443
73.9582,75.6632
74.0393,75.6090
74.1350,75.5900
74.6350,75.5900
74.7307,75.6090
74.8118,75.6632
74.8660,75.7443
74.8850,75.8400
74.8850,76.7900
74.8660,76.8857
74.8118,76.9668
74.7307,77.0210
74.6350,77.0400
74.1350,77.0400
74.0393,77.0210
73.9582,76.9668
73.9040,76.8857
73.8850,76.7900
Z" /> 
<path style="fill:#000000; fill-opacity:1.0000; stroke:none;fill-rule:evenodd;"
d="M 75.7850,75.8400
75.8040,75.7443
75.8582,75.6632
75.9393,75.6090
76.0350,75.5900
76.5350,75.5900
76.6307,75.6090
76.7118,75.6632
76.7660,75.7443
76.7850,75.8400
76.7850,76.7900
76.7660,76.8857
76.7118,76.9668
76.6307,77.0210
76.5350,77.0400
76.0350,77.0400
75.9393,77.0210
75.8582,76.9668
75.8040,76.8857
75.7850,76.7900
Z" /> 
<path style="fill:#000000; fill-opacity:1.0000; stroke:none;fill-rule:evenodd;"
d="M 62.4800,35.9550
62.4800,34.0550
64.3800,34.0550
64.3800,35.9550
Z" /> 
<circle cx="63.4300" cy="37.5450" r="0.9500" /> 
<circle cx="63.4300" cy="40.0850" r="0.9500" /> 
<circle cx="63.4300" cy="42.6250" r="0.9500" /> 
<circle cx="63.4300" cy="45.1650" r="0.9500" /> 
<circle cx="63.4300" cy="47.7050" r="0.9500" /> 
<circle cx="63.4300" cy="50.2450" r="0.9500" /> 
<circle cx="63.4300" cy="52.7850" r="0.9500" /> 
<circle cx="63.4300" cy="55.3250" r="0.9500" /> 
<circle cx="63.4300" cy="57.8650" r="0.9500" /> 
<circle cx="63.4300" cy="60.4050" r="0.9500" /> 
<circle cx="63.4300" cy="62.9450" r="0.9500" /> 
<circle cx="63.4300" cy="65.4850" r="0.9500" /> 
<circle cx="63.4300" cy="68.0250" r="0.9500" /> 
<circle cx="63.4300" cy="70.5650" r="0.9500" /> 
<circle cx="63.4300" cy="73.1050" r="0.9500" /> 
<circle cx="63.4300" cy="75.6450" r="0.9500" /> 
<circle cx="63.4300" cy="78.1850" r="0.9500" /> 
<circle cx="63.4300" cy="80.7250" r="0.9500" /> 
<path style="fill:#000000; fill-opacity:1.0000; stroke:none;fill-rule:evenodd;"
d="M 99.7650,33.4600
99.7460,33.5557
99.6918,33.6368
99.6107,33.6910
99.5150,33.7100
98.9900,33.7100
98.8943,33.6910
98.8132,33.6368
98.7590,33.5557
98.7400,33.4600
98.7400,32.5600
98.7590,32.4643
98.8132,32.3832
98.8943,32.3290
98.9900,32.3100
99.5150,32.3100
99.6107,32.3290
99.6918,32.3832
99.7460,32.4643
99.7650,32.5600
Z" /> 
<path style="fill:#000000; fill-opacity:1.0000; stroke:none;fill-rule:evenodd;"
d="M 97.9400,33.4600
97.9210,33.5557
97.8668,33.6368
97.7857,33.6910
97.6900,33.7100
97.1650,33.7100
97.0693,33.6910
96.9882,33.6368
96.9340,33.5557
96.9150,33.4600
96.9150,32.5600
96.9340,32.4643
96.9882,32.3832
97.0693,32.3290
97.1650,32.3100
97.6900,32.3100
97.7857,32.3290
97.8668,32.3832
97.9210,32.4643
97.9400,32.5600
Z" /> 
<path style="fill:#000000; fill-opacity:1.0000; stroke:none;fill-rule:evenodd;"
d="M 68.4750,79.8000
68.4750,81.7000
66.5750,81.7000
66.5750,79.8000
Z" /> 
<circle cx="67.5250" cy="83.2900" r="0.9500" /> 
<path style="fill:#000000; fill-opacity:1.0000; stroke:none;fill-rule:evenodd;"
d="M 58.5700,51.1200
58.5700,53.0200
56.6700,53.0200
56.6700,51.1200
Z" /> 
<circle cx="57.6200" cy="54.6100" r="0.9500" /> 
<circle cx="57.6200" cy="57.1500" r="0.9500" /> 
<circle cx="57.6200" cy="59.6900" r="0.9500" /> 
<circle cx="72.5000" cy="39.1500" r="1.7500" /> 
<circle cx="98.2000" cy="65.2000" r="1.7500" /> 
<circle cx="93.2000" cy="70.5500" r="1.7500" /> 
<circle cx="72.5000" cy="70.5500" r="1.7500" /> 
<circle cx="50.3300" cy="55.6750" r="2.5000" /> 
<circle cx="112.1700" cy="55.6900" r="2.5000" /> 
<circle cx="93.3000" cy="39.1500" r="1.7500" /> 
<circle cx="81.8000" cy="35.0000" r="1.7500" /> 
<circle cx="56.9000" cy="35.2000" r="1.7500" /> 
<circle cx="89.3300" cy="38.7500" r="0.4000" /> 
<circle cx="89.1000" cy="54.1200" r="0.4000" /> 
<circle cx="81.9200" cy="86.9700" r="0.4000" /> 
</g>
<g style="fill:none; 
stroke:#000000; stroke-width:0.6000; stroke-opacity:1; 
stroke-linecap:round; stroke-linejoin:round;">
<path d="M76.2850 75.2150
L79.5000 72.0000
" />
<path d="M95.7400 30.7600
L95.7400 28.3500
" />
<path d="M76.2850 76.3150
L76.2850 75.2150
" />
<path d="M100.5000 38.8250
L98.5400 40.7850
" />
<path d="M97.3100 42.1200
L98.5400 43.3500
" />
<path d="M56.0000 46.3300
L56.0000 48.0000
" />
<path d="M106.0000 40.8250
L108.3250 40.8250
" />
<path d="M78.9850 79.0150
L76.2850 76.3150
" />
<path d="M100.5000 38.3000
L100.5000 38.8250
" />
<path d="M93.2500 87.5000
L101.4292 79.3208
" />
<path d="M102.0000 46.5000
L103.2700 47.7700
" />
<path d="M79.5000 72.0000
L83.0000 72.0000
" />
<path d="M83.0000 72.0000
L83.5000 71.5000
" />
<path d="M83.9000 49.8400
L84.3000 50.2400
" />
<path d="M86.3300 50.2400
L84.3000 50.2400
" />
<path d="M103.4750 38.3000
L100.5000 38.3000
" />
<path d="M92.3300 46.5000
L94.4300 46.5000
" />
<path d="M90.4500 40.4500
L90.4500 36.0500
" />
<path d="M83.5000 51.0400
L84.3000 50.2400
" />
<path d="M111.7300 47.7700
L108.8300 47.7700
" />
<path d="M98.5400 40.7850
L98.5400 43.3500
" />
<path d="M94.6100 60.4700
L92.3300 60.4700
" />
<path d="M81.4600 80.4600
L88.5000 87.5000
" />
<path d="M83.9000 36.5000
L83.9000 49.8400
" />
<path d="M78.9850 80.4600
L81.4600 80.4600
" />
<path d="M56.0000 48.0000
L54.8000 49.2000
" />
<path d="M112.0000 47.5000
L111.7300 47.7700
" />
<path d="M103.2700 47.7700
L108.8300 47.7700
" />
<path d="M106.0000 40.8250
L103.4750 38.3000
" />
<path d="M96.0800 59.0000
L94.6100 60.4700
" />
<path d="M94.4300 46.5000
L96.0800 48.1500
" />
<path d="M101.4292 79.3208
L101.4292 77.4000
" />
<path d="M90.4500 36.0500
L95.7400 30.7600
" />
<path d="M83.5000 71.5000
L83.5000 51.0400
" />
<path d="M78.9850 80.4600
L78.9850 79.0150
" />
<path d="M86.3300 35.0000
L85.4000 35.0000
" />
<path d="M54.8000 57.4200
L57.0700 59.6900
" />
<path d="M108.3250 40.8250
L112.0000 44.5000
" />
<path d="M57.0700 59.6900
L57.6200 59.6900
" />
<path d="M92.3300 46.5000
L92.3300 42.3300
" />
<path d="M112.0000 44.5000
L112.0000 47.5000
" />
<path d="M86.3300 35.0000
L86.5000 35.0000
" />
<path d="M88.5000 87.5000
L93.2500 87.5000
" />
<path d="M54.8000 49.2000
L54.8000 57.4200
" />
<path d="M92.3300 46.5000
L102.0000 46.5000
" />
<path d="M85.4000 35.0000
L83.9000 36.5000
" />
<path d="M92.3300 42.3300
L90.4500 40.4500
" />
<path d="M92.3925 46.4375
L92.3300 46.5000
" />
<path d="M97.3100 38.3975
L97.3100 42.1200
" />
<path d="M96.0800 48.1500
L96.0800 59.0000
" />
<path d="M97.3100 36.5225
L97.3100 33.3300
" />
<path d="M97.3100 33.3300
L97.6300 33.0100
" />
<path d="M104.5000 46.5000
L108.8300 46.5000
" />
<path d="M101.3500 43.3500
L104.5000 46.5000
" />
<path d="M101.0800 43.3500
L101.3500 43.3500
" />
<path d="M91.7000 63.1000
L91.7250 63.1250
" />
<path d="M92.5500 62.2500
L91.7000 63.1000
" />
<path d="M94.0800 62.2500
L92.5500 62.2500
" />
<path d="M91.7250 63.1250
L91.7250 66.0000
" />
<path d="M94.2650 66.0000
L94.2650 65.3350
" />
<path d="M95.3500 64.2500
L95.3500 62.2500
" />
<path d="M94.2650 65.3350
L95.3500 64.2500
" />
<path d="M99.3400 29.4100
L99.3400 33.0100
" />
<path d="M100.5000 36.4000
L105.9750 36.4000
" />
<path d="M105.9750 36.4000
L106.0000 36.4250
" />
<path d="M69.0000 31.5000
L87.5000 31.5000
" />
<path d="M87.5000 31.5000
L89.3300 33.3300
" />
<path d="M62.0950 35.0050
L59.5000 37.6000
" />
<path d="M100.1200 33.0100
L100.5000 33.3900
" />
<path d="M76.7700 81.7300
L78.9850 81.7300
" />
<path d="M59.5000 51.0000
L58.4300 52.0700
" />
<path d="M76.7700 81.7300
L76.7700 80.4700
" />
<path d="M89.3300 49.7242
L91.1858 51.5800
" />
<path d="M65.4950 35.0050
L62.0950 35.0050
" />
<path d="M58.4300 52.0700
L57.6200 52.0700
" />
<path d="M71.7850 83.0000
L71.7850 84.2700
" />
<path d="M65.4950 35.0050
L69.0000 31.5000
" />
<path d="M68.9000 38.4100
L65.4950 35.0050
" />
<path d="M99.3400 33.0100
L100.1200 33.0100
" />
<path d="M73.0150 76.3150
L68.9000 72.2000
" />
<path d="M76.7700 80.4700
L74.3850 78.0850
" />
<path d="M74.3850 78.0850
L74.3850 76.3150
" />
<path d="M74.3850 76.3150
L73.0150 76.3150
" />
<path d="M75.5000 83.0000
L76.7700 81.7300
" />
<path d="M100.4800 36.3800
L100.5000 36.4000
" />
<path d="M100.5000 33.3900
L100.5000 36.4000
" />
<path d="M98.2800 28.3500
L99.3400 29.4100
" />
<path d="M68.9000 72.2000
L68.9000 38.4100
" />
<path d="M89.3300 38.7500
L89.3300 49.7242
" />
<path d="M105.5300 35.8750
L106.0800 36.4250
" />
<path d="M91.1858 51.5800
L92.3300 51.5800
" />
<path d="M71.7850 83.0000
L75.5000 83.0000
" />
<path d="M89.3300 33.3300
L89.3300 38.7500
" />
<path d="M97.8300 28.8000
L98.2800 28.3500
" />
<path d="M59.5000 37.6000
L59.5000 51.0000
" />
<path d="M89.3300 51.5000
L87.6100 51.5000
" />
<path d="M86.4000 52.8500
L86.3300 52.7800
" />
<path d="M92.3300 52.8500
L90.6800 52.8500
" />
<path d="M90.6800 52.8500
L89.3300 51.5000
" />
<path d="M87.6100 51.5000
L86.3300 52.7800
" />
</g>
<g style="fill:none; 
stroke:#000000; stroke-width:0.2500; stroke-opacity:1; 
stroke-linecap:round; stroke-linejoin:round;">
<path d="M86.3600 52.8500
L86.3300 52.8200
" />
</g>
<g style="fill:none; 
stroke:#000000; stroke-width:0.6000; stroke-opacity:1; 
stroke-linecap:round; stroke-linejoin:round;">
<path d="M92.3300 54.1200
L89.1000 54.1200
" />
<path d="M89.9400 55.3900
L88.8300 56.5000
" />
<path d="M92.3300 55.3900
L89.9400 55.3900
" />
<path d="M87.5100 56.5000
L86.3300 55.3200
" />
<path d="M86.3600 55.3900
L86.3300 55.3600
" />
<path d="M88.8300 56.5000
L87.5100 56.5000
" />
<path d="M88.9700 57.8600
L86.3300 57.8600
" />
<path d="M92.3300 56.6600
L90.1700 56.6600
" />
<path d="M90.1700 56.6600
L88.9700 57.8600
" />
<path d="M87.9300 60.4000
L86.3300 60.4000
" />
<path d="M92.3300 57.9300
L90.4000 57.9300
" />
<path d="M90.4000 57.9300
L87.9300 60.4000
" />
<path d="M92.3300 59.2000
L90.6300 59.2000
" />
<path d="M90.6300 59.2000
L89.3300 60.5000
" />
<path d="M89.3300 69.1700
L87.9400 70.5600
" />
<path d="M89.3300 60.5000
L89.3300 69.1700
" />
<path d="M87.9400 70.5600
L86.3300 70.5600
" />
<path d="M102.8000 71.0292
L96.4292 77.4000
" />
<path d="M102.8000 69.9000
L102.8000 71.0292
" />
<path d="M71.7850 81.7300
L71.7850 81.7850
" />
<path d="M74.0000 79.5000
L67.4000 72.9000
" />
<path d="M65.2000 63.0000
L63.4850 63.0000
" />
<path d="M71.7850 81.7300
L73.2700 81.7300
" />
<path d="M67.4000 72.9000
L67.4000 65.2000
" />
<path d="M63.4850 63.0000
L63.4300 62.9450
" />
<path d="M67.4000 65.2000
L65.2000 63.0000
" />
<path d="M73.2700 81.7300
L74.0000 81.0000
" />
<path d="M74.0000 81.0000
L74.0000 79.5000
" />
<path d="M78.9850 83.0000
L80.8100 83.0000
" />
<path d="M80.8100 83.0000
L81.9200 84.1100
" />
<path d="M81.9200 84.1100
L81.9200 86.9700
" />
<path d="M61.6750 55.3250
L63.4300 55.3250
" />
<path d="M57.7300 54.5000
L60.8500 54.5000
" />
<path d="M60.8500 54.5000
L61.6750 55.3250
" />
<path d="M57.6200 54.6100
L57.7300 54.5000
" />
<path d="M71.7850 80.4600
L65.5000 74.1750
" />
<path d="M64.0650 70.5650
L63.4300 70.5650
" />
<path d="M65.5000 74.1750
L65.5000 72.0000
" />
<path d="M71.7850 80.4600
L71.1392 80.4600
" />
<path d="M65.5000 72.0000
L64.0650 70.5650
" />
<path d="M69.8000 86.5000
L68.8000 85.5000
" />
<path d="M66.5000 85.5000
L65.0000 84.0000
" />
<path d="M65.0000 84.0000
L63.2000 84.0000
" />
<path d="M60.5000 62.0000
L62.0950 60.4050
" />
<path d="M78.9850 84.2700
L76.7550 86.5000
" />
<path d="M60.5000 81.3000
L60.5000 62.0000
" />
<path d="M63.2000 84.0000
L60.5000 81.3000
" />
<path d="M68.8000 85.5000
L66.5000 85.5000
" />
<path d="M76.7550 86.5000
L69.8000 86.5000
" />
<path d="M62.0950 60.4050
L63.4300 60.4050
" />
<path d="M61.3500 57.0800
L57.6900 57.0800
" />
<path d="M57.6900 57.0800
L57.6200 57.1500
" />
<path d="M63.4300 57.8650
L62.1350 57.8650
" />
<path d="M62.1350 57.8650
L61.3500 57.0800
" />
<path d="M91.2000 73.1000
L91.7000 73.6000
" />
<path d="M91.7000 73.6000
L97.9000 73.6000
" />
<path d="M100.8000 70.7000
L100.8000 69.9000
" />
<path d="M97.9000 73.6000
L100.8000 70.7000
" />
<path d="M86.3300 73.1000
L91.2000 73.1000
" />
<path d="M63.4550 80.7500
L63.4300 80.7250
" />
<path d="M67.5250 80.7500
L63.4550 80.7500
" />
<path style="fill:#000000; fill-opacity:1.0000; stroke:none;fill-rule:evenodd;"
d="M 81.7097,20.9167
81.8557,20.9179
81.8586,20.9180
82.8279,20.9497
82.8287,20.9497
83.0082,20.9574
83.0109,20.9575
83.9541,21.0193
83.9548,21.0194
84.1582,21.0349
84.1608,21.0352
85.0833,21.1260
85.0845,21.1262
85.3042,21.1505
85.3065,21.1508
86.2130,21.2701
86.2146,21.2703
86.4447,21.3038
86.4470,21.3041
87.3408,21.4517
87.3425,21.4520
87.5786,21.4946
87.5806,21.4949
88.4645,21.6708
88.4664,21.6712
88.7040,21.7224
88.7058,21.7228
89.5825,21.9272
89.5844,21.9276
89.8196,21.9868
89.8214,21.9872
90.6929,22.2207
90.6951,22.2213
90.9239,22.2872
90.9254,22.2876
91.7943,22.5512
91.7965,22.5519
92.0151,22.6229
92.0165,22.6234
92.8851,22.9183
92.8875,22.9191
93.0912,22.9930
93.0924,22.9935
93.9642,23.3216
93.9665,23.3225
94.1501,23.3963
94.1510,23.3966
95.0298,23.7606
95.0324,23.7618
95.1889,23.8309
95.1898,23.8313
96.0810,24.2351
96.0837,24.2363
96.2041,24.2945
96.2050,24.2950
97.1163,24.7444
97.1191,24.7458
97.1905,24.7833
97.1912,24.7837
98.1346,25.2880
98.1375,25.2895
98.1390,25.2904
99.1200,25.8568
99.1235,25.8589
99.9006,26.3421
99.9065,26.3488
99.9088,26.3490
99.9261,26.3580
99.9661,26.3829
100.0726,26.4490
100.0860,26.4574
100.0894,26.4596
100.9202,27.0147
101.0319,27.0894
101.0353,27.0917
101.9566,27.7519
101.9599,27.7543
102.8592,28.4444
102.8623,28.4469
103.7386,29.1660
103.7416,29.1686
103.9006,29.3080
104.5939,29.9160
104.5969,29.9187
105.4242,30.6936
105.4271,30.6964
106.2286,31.4979
106.2314,31.5008
107.0063,32.3281
107.0090,32.3311
107.7192,33.1409
107.7197,33.1415
107.7662,33.1953
107.7683,33.1977
108.4170,33.9883
108.4176,33.9889
108.4976,34.0880
108.4994,34.0903
108.8399,34.5341
109.0978,34.8702
109.0985,34.8710
109.1986,35.0041
109.2003,35.0063
109.4718,35.3853
109.7562,35.7822
109.7570,35.7832
109.8685,35.9423
109.8700,35.9446
110.1740,36.3995
110.3888,36.7209
110.3896,36.7221
110.5065,36.9017
110.5079,36.9039
110.9932,37.6842
110.9940,37.6856
111.1120,37.8809
111.1132,37.8829
111.3081,38.2204
111.5677,38.6701
111.5685,38.6716
111.6842,38.8787
111.6853,38.8807
111.9748,39.4223
112.0929,39.6432
112.1108,39.6768
112.1117,39.6784
112.1281,39.7103
112.2225,39.8937
112.2235,39.8956
112.6216,40.7028
112.6225,40.7047
112.7263,40.9245
112.7272,40.9263
113.0990,41.7468
113.0999,41.7488
113.1951,41.9695
113.1958,41.9712
113.5422,42.8072
113.5430,42.8094
113.6284,43.0272
113.6290,43.0287
113.9505,43.8829
113.9513,43.8852
114.0256,44.0954
114.0261,44.0968
114.3233,44.9724
114.3241,44.9749
114.3862,45.1718
114.3867,45.1731
114.6600,46.0744
114.6608,46.0771
114.7101,46.2538
114.7104,46.2550
114.9603,47.1876
114.9610,47.1905
114.9967,47.3375
114.9969,47.3386
115.2236,48.3108
115.2243,48.3138
115.2457,48.4174
115.2458,48.4183
115.4496,49.4425
115.4502,49.4457
115.4568,49.4846
115.4570,49.4854
115.6364,50.5722
115.6370,50.5762
115.7849,51.7000
115.7854,51.7041
115.8965,52.8321
115.8968,52.8361
115.9710,53.9672
115.9712,53.9713
116.0083,55.1042
116.0083,55.1083
116.0083,56.2417
116.0083,56.2458
115.9712,57.3787
115.9710,57.3828
115.8968,58.5139
115.8965,58.5179
115.7854,59.6459
115.7849,59.6500
115.6370,60.7738
115.6364,60.7778
115.4570,61.8646
115.4568,61.8654
115.4502,61.9043
115.4496,61.9075
115.2458,62.9317
115.2457,62.9326
115.2243,63.0362
115.2236,63.0392
114.9969,64.0114
114.9967,64.0125
114.9610,64.1595
114.9603,64.1624
114.7104,65.0950
114.7101,65.0962
114.6608,65.2729
114.6600,65.2756
114.3867,66.1769
114.3862,66.1782
114.3241,66.3751
114.3233,66.3776
114.0261,67.2532
114.0256,67.2546
113.9513,67.4648
113.9505,67.4671
113.6290,68.3213
113.6284,68.3228
113.5430,68.5405
113.5422,68.5427
113.1958,69.3788
113.1951,69.3805
113.0999,69.6012
113.0990,69.6032
112.7272,70.4237
112.7263,70.4255
112.6225,70.6453
112.6216,70.6472
112.2235,71.4544
112.2225,71.4563
112.1117,71.6715
112.1108,71.6732
111.6853,72.4693
111.6842,72.4713
111.5685,72.6784
111.5677,72.6799
111.1132,73.4670
111.1120,73.4691
110.9940,73.6644
110.9932,73.6658
110.5079,74.4461
110.5065,74.4483
110.3896,74.6279
110.3888,74.6291
109.8701,75.4054
109.8685,75.4077
109.7570,75.5668
109.7562,75.5678
109.2003,76.3436
109.1986,76.3460
109.0985,76.4789
109.0978,76.4798
108.4995,77.2596
108.4976,77.2620
108.4177,77.3610
108.4170,77.3617
107.7683,78.1523
107.7662,78.1547
107.7197,78.2085
107.7191,78.2091
107.0090,79.0189
107.0063,79.0219
106.2314,79.8492
106.2286,79.8521
105.4271,80.6536
105.4242,80.6564
104.5969,81.4313
104.5939,81.4340
103.7417,82.1814
103.7386,82.1840
102.8623,82.9031
102.8592,82.9056
101.9599,83.5957
101.9566,83.5981
101.0353,84.2583
101.0319,84.2606
100.0895,84.8904
100.0860,84.8926
99.1235,85.4911
99.1200,85.4932
98.1394,86.0594
98.1388,86.0597
98.1375,86.0604
98.1346,86.0621
97.1912,86.5663
97.1905,86.5667
97.1191,86.6042
97.1163,86.6056
96.2050,87.0550
96.2041,87.0555
96.0837,87.1136
96.0810,87.1149
95.1899,87.5187
95.1888,87.5191
95.0324,87.5882
95.0298,87.5894
94.1512,87.9533
94.1499,87.9538
93.9666,88.0275
93.9641,88.0285
93.0925,88.3565
93.0911,88.3570
92.8875,88.4309
92.8851,88.4318
92.0166,88.7266
92.0150,88.7271
91.7966,88.7981
91.7942,88.7988
90.9255,89.0623
90.9238,89.0628
90.6951,89.1286
90.6929,89.1293
89.8214,89.3628
89.8196,89.3632
89.5845,89.4223
89.5824,89.4228
88.7059,89.6272
88.7039,89.6277
88.4664,89.6788
88.4645,89.6792
87.5807,89.8550
87.5785,89.8555
87.3425,89.8980
87.3407,89.8983
86.4470,90.0458
86.4447,90.0462
86.2146,90.0796
86.2129,90.0799
85.3066,90.1992
85.3041,90.1995
85.0847,90.2238
85.0832,90.2240
84.1608,90.3148
84.1581,90.3151
83.9551,90.3306
83.9537,90.3307
83.0110,90.3925
83.0081,90.3926
82.8289,90.4003
82.8277,90.4003
81.8586,90.4320
81.8556,90.4321
81.7105,90.4333
81.7097,90.4333
81.7087,90.4333
80.7050,90.4333
80.7018,90.4333
80.6039,90.4308
80.6030,90.4308
79.5513,90.3963
79.5480,90.3962
79.5207,90.3946
79.5200,90.3945
78.4111,90.3218
78.4071,90.3215
77.2791,90.2104
77.2750,90.2099
76.1512,90.0620
76.1472,90.0614
75.0288,89.8768
75.0248,89.8760
73.9131,89.6549
73.9092,89.6540
73.6176,89.5861
72.8053,89.3966
72.8013,89.3957
71.7064,89.1023
71.7025,89.1012
70.6178,88.7721
70.6140,88.7709
70.2422,88.6447
69.5406,88.4065
69.5368,88.4052
68.4760,88.0059
68.4722,88.0044
67.4626,87.5862
67.4619,87.5859
67.4153,87.5663
67.4123,87.5649
66.4680,87.1371
66.4671,87.1367
66.3643,87.0892
66.3615,87.0878
66.2193,87.0177
66.1678,86.9704
66.1501,86.9028
66.1718,86.8364
66.2260,86.7922
66.2935,86.7840
66.3976,86.8005
68.2100,86.8005
68.2770,86.8202
68.2976,86.8368
68.8049,87.3441
68.8049,87.3441
68.8080,87.3472
68.8080,87.3472
68.9528,87.4920
68.9528,87.4920
68.9528,87.4920
69.0324,87.5498
69.1004,87.5992
69.1184,87.6123
69.2052,87.6565
69.3008,87.7052
69.3008,87.7052
69.3981,87.7368
69.4955,87.7685
69.6976,87.8005
69.6976,87.8005
76.8574,87.8005
76.8574,87.8005
77.0595,87.7685
77.1569,87.7368
77.2542,87.7052
77.3454,87.6588
77.4366,87.6123
77.6022,87.4920
79.4874,85.6068
79.5487,85.5733
79.5750,85.5705
79.7060,85.5705
79.7415,85.5680
79.7946,85.5643
79.7946,85.5643
79.7946,85.5643
80.0022,85.5155
80.0022,85.5155
80.0022,85.5155
80.1972,85.4294
80.3731,85.3089
80.4078,85.2742
80.4691,85.2407
80.5388,85.2457
80.5948,85.2876
80.6192,85.3531
80.6195,85.3619
80.6195,86.4208
80.6134,86.4591
80.5540,86.6420
80.5340,86.7685
80.5195,86.8598
80.5195,87.0802
80.5209,87.0892
80.5540,87.2980
80.6221,87.5076
80.6221,87.5076
80.7222,87.7040
80.8518,87.8824
80.8518,87.8824
81.0076,88.0382
81.0076,88.0382
81.1632,88.1513
81.1860,88.1678
81.3144,88.2332
81.3824,88.2679
81.3824,88.2679
81.4872,88.3020
81.5920,88.3360
81.8098,88.3705
81.8098,88.3705
82.0302,88.3705
82.0302,88.3705
82.2480,88.3360
82.4576,88.2679
82.6540,88.1678
82.8324,88.0382
82.9882,87.8824
83.1178,87.7040
83.2179,87.5076
83.2860,87.2980
83.3205,87.0802
83.3205,86.8598
83.2860,86.6420
83.2266,86.4591
83.2205,86.4208
83.2205,84.0076
83.2031,83.8976
83.2031,83.8976
83.1885,83.8055
83.1885,83.8055
83.1885,83.8055
83.1527,83.6955
83.1252,83.6108
83.1252,83.6108
83.1252,83.6108
83.0684,83.4992
83.0601,83.4830
83.0323,83.4284
82.9120,83.2628
81.6572,82.0080
81.4916,81.8877
81.3830,81.8324
81.3830,81.8323
81.3092,81.7948
81.2550,81.7771
81.1961,81.7580
81.1961,81.7580
81.1145,81.7315
80.9592,81.7069
80.9124,81.6995
80.9124,81.6995
80.9095,81.6995
80.9085,81.6992
80.9075,81.6991
80.9075,81.6989
80.8425,81.6798
80.7967,81.6270
80.7855,81.5755
80.7855,81.5090
80.7805,81.4369
80.7793,81.4204
80.7793,81.4204
80.7793,81.4204
80.7305,81.2128
80.7305,81.2128
80.7305,81.2128
80.6444,81.0178
80.5239,80.8419
80.5239,80.8419
80.3731,80.6911
80.3731,80.6911
80.2287,80.5922
80.1972,80.5706
80.0022,80.4845
80.0022,80.4845
80.0022,80.4845
80.0022,80.4845
79.8756,80.4547
79.8149,80.4202
79.7824,80.3583
79.7886,80.2887
79.8314,80.2335
79.8973,80.2102
79.9040,80.2100
80.2823,80.2100
80.2823,80.2100
80.2821,80.2075
80.2363,80.0498
80.1527,79.9084
80.1527,79.9084
80.0366,79.7923
80.0366,79.7923
79.8952,79.7087
79.8952,79.7087
79.7375,79.6629
79.7375,79.6629
79.7006,79.6600
79.2350,79.6600
79.2350,80.2100
79.2428,80.2178
79.2763,80.2791
79.2713,80.3488
79.2294,80.4048
79.1640,80.4292
79.1551,80.4295
78.8590,80.4295
78.7920,80.4098
78.7462,80.3570
78.7350,80.3055
78.7350,79.6600
78.2694,79.6600
78.2325,79.6629
78.2325,79.6629
78.0748,79.7087
78.0748,79.7087
77.9968,79.7549
77.9291,79.7720
77.8628,79.7499
77.8333,79.7210
77.8122,79.6920
77.7620,79.6228
75.8907,77.7515
75.8572,77.6902
75.8622,77.6205
75.9041,77.5646
75.9695,77.5401
75.9819,77.5400
75.9819,77.5400
75.9829,77.5400
75.9847,77.5400
75.9850,77.5400
76.5350,77.5400
76.5850,77.5400
76.5850,77.5400
76.6877,77.5295
76.8541,77.4744
76.8541,77.4744
77.0033,77.3823
77.1273,77.2583
77.2194,77.1091
77.2194,77.1091
77.2745,76.9427
77.2745,76.9427
77.2850,76.8400
77.2850,76.8400
77.2850,76.5650
76.5350,76.5650
76.5350,77.5400
75.9850,77.5400
76.0350,77.5400
76.0350,77.5400
76.0350,76.0650
76.5350,76.0650
77.2850,76.0650
77.2850,75.7900
77.2850,75.7900
77.2745,75.6873
77.2194,75.5209
77.2194,75.5209
77.1273,75.3717
77.0033,75.2477
76.8541,75.1556
76.8541,75.1556
76.6877,75.1005
76.6877,75.1005
76.5850,75.0900
76.5350,75.0900
76.5350,76.0650
76.0350,76.0650
76.0350,75.0900
76.0350,75.0900
75.9850,75.0900
75.9850,75.0900
75.8823,75.1005
75.7765,75.1355
75.7067,75.1379
75.6467,75.1022
75.6356,75.0884
75.5988,75.0353
75.5365,74.9730
75.4397,74.8762
75.4397,74.8762
75.4396,74.8762
75.2546,74.7480
75.2546,74.7480
75.2546,74.7480
75.0497,74.6549
75.0497,74.6549
75.0497,74.6549
74.8314,74.5999
74.8314,74.5999
74.7873,74.5964
74.6992,74.5895
74.6992,74.5895
74.0708,74.5895
74.0708,74.5895
73.9386,74.5999
73.9386,74.5999
73.7203,74.6549
73.7203,74.6549
73.5154,74.7480
73.5154,74.7480
73.4657,74.7824
73.3993,74.8044
73.3317,74.7871
73.3074,74.7682
72.0260,73.4868
71.9925,73.4255
71.9975,73.3558
72.0394,73.2999
72.1049,73.2755
72.1276,73.2759
72.3455,73.3005
72.3455,73.3005
72.3455,73.3005
72.6545,73.3005
72.6545,73.3005
72.8131,73.2826
72.9614,73.2659
72.9614,73.2659
72.9615,73.2659
73.2626,73.1972
73.5542,73.0951
73.8326,72.9611
74.0941,72.7967
74.3357,72.6041
74.5541,72.3857
74.7467,72.1441
74.9111,71.8826
75.0451,71.6042
75.1472,71.3126
75.2159,71.0115
75.2505,70.7045
75.2505,70.3955
75.2505,70.3955
75.2505,70.3955
75.2159,70.0886
75.2159,70.0885
75.1472,69.7874
75.1472,69.7874
75.0451,69.4958
75.0451,69.4958
74.9111,69.2174
74.7467,68.9559
74.5541,68.7143
74.3357,68.4959
74.3222,68.4851
74.1995,68.3873
74.0941,68.3033
73.8326,68.1389
73.8326,68.1389
73.5542,68.0049
73.5542,68.0049
73.2626,67.9028
73.2626,67.9028
72.9615,67.8341
72.9614,67.8341
72.6545,67.7995
72.6545,67.7995
72.3455,67.7995
72.3455,67.7995
72.0386,67.8341
72.0385,67.8341
71.7374,67.9028
71.7374,67.9028
71.4458,68.0049
71.4458,68.0049
71.1674,68.1389
70.9059,68.3033
70.6643,68.4959
70.4459,68.7143
70.4214,68.7450
70.3643,68.7851
70.2944,68.7880
70.2342,68.7526
70.2026,68.6903
70.2005,68.6676
70.2005,41.0323
70.2202,40.9653
70.2730,40.9196
70.3421,40.9096
70.4057,40.9386
70.4214,40.9550
70.4459,40.9857
70.6643,41.2041
70.9059,41.3967
71.1674,41.5611
71.4458,41.6951
71.4458,41.6951
71.7374,41.7972
71.7374,41.7972
72.0385,41.8659
72.0386,41.8659
72.0386,41.8659
72.2432,41.8890
72.3455,41.9005
72.3455,41.9005
72.3455,41.9005
72.6545,41.9005
72.6545,41.9005
72.8114,41.8828
72.9614,41.8659
72.9614,41.8659
72.9615,41.8659
73.2626,41.7972
73.5542,41.6951
73.8326,41.5611
74.0941,41.3967
74.3357,41.2041
74.5541,40.9857
74.7467,40.7441
74.9111,40.4826
75.0451,40.2042
75.1472,39.9126
75.2159,39.6115
75.2193,39.5812
75.2505,39.3045
75.2505,39.3045
75.2505,38.9955
75.2505,38.9955
75.2159,38.6886
75.2159,38.6885
75.1682,38.4797
75.1472,38.3874
75.0451,38.0958
74.9111,37.8174
74.7467,37.5559
74.5541,37.3143
74.3357,37.0959
74.0941,36.9033
73.8326,36.7389
73.8326,36.7389
73.5542,36.6049
73.5542,36.6049
73.2626,36.5028
73.2626,36.5028
72.9615,36.4341
72.9614,36.4341
72.6545,36.3995
72.6545,36.3995
72.3455,36.3995
72.3455,36.3995
72.0386,36.4341
72.0385,36.4341
71.7374,36.5028
71.7374,36.5028
71.4458,36.6049
71.4458,36.6049
71.1674,36.7389
70.9059,36.9033
70.6643,37.0959
70.4459,37.3143
70.2533,37.5559
70.1809,37.6710
70.1286,37.7173
70.0595,37.7279
69.9957,37.6996
69.9756,37.6779
69.9719,37.6728
69.8920,37.5628
67.4219,35.0927
67.3884,35.0314
67.3934,34.9617
67.4219,34.9173
68.4438,33.8954
69.5024,32.8368
69.5637,32.8033
69.5900,32.8005
79.8103,32.8005
79.8774,32.8202
79.9231,32.8730
79.9331,32.9421
79.9041,33.0057
79.8980,33.0122
79.7459,33.1643
79.5533,33.4059
79.3889,33.6674
79.2549,33.9458
79.2549,33.9458
79.1528,34.2374
79.1528,34.2374
79.0841,34.5385
79.0841,34.5386
79.0495,34.8455
79.0495,35.1545
79.0841,35.4614
79.0841,35.4615
79.1528,35.7626
79.1528,35.7626
79.2549,36.0542
79.2549,36.0542
79.3889,36.3326
79.3889,36.3326
79.5533,36.5941
79.6553,36.7221
79.7458,36.8355
79.7459,36.8357
79.9643,37.0541
80.2059,37.2467
80.4674,37.4111
80.7458,37.5451
80.8016,37.5647
81.0374,37.6472
81.0374,37.6472
81.3385,37.7159
81.3386,37.7159
81.3386,37.7159
81.5432,37.7390
81.6455,37.7505
81.6455,37.7505
81.6455,37.7505
81.9545,37.7505
81.9545,37.7505
82.1114,37.7328
82.2614,37.7159
82.2614,37.7159
82.2615,37.7159
82.5626,37.6472
82.8542,37.5451
83.1326,37.4111
83.3941,37.2467
83.6357,37.0541
83.8541,36.8357
84.0467,36.5941
84.2111,36.3326
84.3451,36.0542
84.4472,35.7626
84.5159,35.4615
84.5181,35.4419
84.5397,35.2500
84.5505,35.1545
84.5505,34.8455
84.5228,34.5999
84.5159,34.5386
84.5159,34.5385
84.4928,34.4374
84.4472,34.2374
84.4380,34.2112
84.3780,34.0398
84.3451,33.9458
84.3451,33.9458
84.2111,33.6674
84.0467,33.4059
83.8541,33.1643
83.7020,33.0122
83.6685,32.9509
83.6735,32.8812
83.7153,32.8252
83.7808,32.8008
83.7897,32.8005
86.9100,32.8005
86.9770,32.8202
86.9976,32.8368
87.4485,33.2876
87.5105,33.3497
87.5440,33.4110
87.5390,33.4807
87.4971,33.5366
87.4317,33.5610
87.3943,33.5580
87.3874,33.5564
87.3278,33.5500
86.5800,33.5500
86.5800,34.5670
86.5230,34.5341
86.3958,34.5000
86.2642,34.5000
86.1370,34.5341
86.0800,34.5670
86.0800,33.5500
85.3322,33.5500
85.2726,33.5564
85.2726,33.5564
85.1379,33.6066
85.1379,33.6066
85.0228,33.6928
85.0228,33.6928
84.9366,33.8079
84.9366,33.8079
84.8864,33.9426
84.8864,33.9426
84.8800,34.0022
84.8800,34.7500
85.8970,34.7500
85.8641,34.8070
85.8300,34.9342
85.8300,35.0658
85.8641,35.1930
85.8970,35.2500
84.8800,35.2500
84.8800,35.9978
84.8864,36.0574
84.8864,36.0574
84.9041,36.1049
84.9091,36.1746
84.8756,36.2359
84.8604,36.2512
84.8604,36.2512
84.7047,36.4540
84.7047,36.4540
84.5769,36.6755
84.5769,36.6755
84.4791,36.9117
84.4791,36.9117
84.4129,37.1587
84.3795,37.4121
84.3795,37.6679
84.4031,37.8472
84.4129,37.9213
84.4791,38.1683
84.4791,38.1683
84.5769,38.4045
84.5769,38.4045
84.7047,38.6260
84.7047,38.6260
84.7880,38.7345
84.8132,38.7997
84.7992,38.8681
84.7880,38.8855
84.7047,38.9940
84.7047,38.9940
84.5769,39.2155
84.5769,39.2155
84.4791,39.4517
84.4791,39.4517
84.4183,39.6784
84.4129,39.6987
84.3795,39.9521
84.3795,40.2079
84.4004,40.3665
84.4129,40.4613
84.4791,40.7083
84.4791,40.7083
84.5769,40.9445
84.5769,40.9445
84.7047,41.1660
84.7047,41.1660
84.7880,41.2745
84.8132,41.3397
84.7992,41.4081
84.7880,41.4255
84.7047,41.5340
84.7047,41.5340
84.5769,41.7555
84.5769,41.7555
84.4791,41.9917
84.4791,41.9917
84.4158,42.2277
84.4129,42.2387
84.3795,42.4921
84.3795,42.7478
84.4055,42.9450
84.4129,43.0013
84.4735,43.2276
84.4791,43.2483
84.4791,43.2483
84.5769,43.4845
84.5769,43.4845
84.7047,43.7060
84.7047,43.7060
84.7880,43.8145
84.8132,43.8797
84.7992,43.9481
84.7880,43.9655
84.7047,44.0740
84.7047,44.0740
84.5769,44.2955
84.5769,44.2955
84.4791,44.5317
84.4791,44.5317
84.4312,44.7101
84.4129,44.7787
84.3795,45.0321
84.3795,45.2878
84.3997,45.4415
84.4129,45.5413
84.4779,45.7839
84.4791,45.7883
84.4791,45.7883
84.5769,46.0245
84.5769,46.0245
84.7047,46.2460
84.7047,46.2460
84.7880,46.3545
84.8132,46.4197
84.7992,46.4881
84.7880,46.5055
84.7047,46.6140
84.7047,46.6140
84.5769,46.8355
84.5769,46.8355
84.4791,47.0717
84.4791,47.0717
84.4323,47.2461
84.4129,47.3187
84.3795,47.5721
84.3795,47.8278
84.3954,47.9489
84.4129,48.0813
84.4778,48.3236
84.4791,48.3283
84.4791,48.3283
84.5769,48.5645
84.5769,48.5645
84.7047,48.7860
84.7047,48.7860
84.8604,48.9888
84.8604,48.9888
85.0412,49.1696
85.0412,49.1696
85.1214,49.2312
85.1626,49.2876
85.1668,49.3573
85.1462,49.4024
85.0898,49.4800
84.9862,49.6834
84.9157,49.9005
84.9015,49.9900
85.8970,49.9900
85.8641,50.0470
85.8300,50.1742
85.8300,50.3058
85.8641,50.4330
85.8970,50.4900
84.9015,50.4900
84.9157,50.5795
84.9862,50.7966
85.0899,51.0000
85.1462,51.0776
85.1697,51.1434
85.1539,51.2114
85.1214,51.2488
85.0412,51.3104
85.0412,51.3104
84.8604,51.4912
84.8604,51.4912
84.7047,51.6940
84.7047,51.6940
84.5769,51.9155
84.5769,51.9155
84.4791,52.1517
84.4791,52.1517
84.4192,52.3751
84.4129,52.3987
84.3795,52.6521
84.3795,52.9078
84.4019,53.0782
84.4129,53.1613
84.4750,53.3930
84.4791,53.4083
84.4791,53.4083
84.5769,53.6445
84.5769,53.6445
84.7047,53.8660
84.7047,53.8660
84.7880,53.9745
84.8132,54.0397
84.7992,54.1081
84.7880,54.1255
84.7047,54.2340
84.7047,54.2340
84.5769,54.4555
84.5769,54.4555
84.4791,54.6917
84.4791,54.6917
84.4438,54.8234
84.4129,54.9387
84.3795,55.1921
84.3795,55.4478
84.4055,55.6450
84.4129,55.7013
84.4607,55.8800
84.4791,55.9483
84.4791,55.9483
84.5769,56.1845
84.5769,56.1845
84.7047,56.4060
84.7047,56.4060
84.7880,56.5145
84.8132,56.5797
84.7992,56.6481
84.7880,56.6655
84.7047,56.7740
84.7047,56.7740
84.5769,56.9955
84.5769,56.9955
84.4791,57.2317
84.4791,57.2317
84.4134,57.4768
84.4129,57.4787
84.3795,57.7321
84.3795,57.9878
84.4055,58.1850
84.4129,58.2413
84.4658,58.4388
84.4791,58.4883
84.4791,58.4883
84.5769,58.7245
84.5769,58.7245
84.7047,58.9460
84.7047,58.9460
84.7880,59.0545
84.8132,59.1197
84.7992,59.1881
84.7880,59.2055
84.7047,59.3140
84.7047,59.3140
84.5769,59.5355
84.5769,59.5355
84.4791,59.7717
84.4791,59.7717
84.4129,60.0187
84.3795,60.2721
84.3795,60.5278
84.3985,60.6725
84.4129,60.7813
84.4579,60.9495
84.4791,61.0283
84.4791,61.0283
84.5769,61.2645
84.5769,61.2645
84.7047,61.4860
84.7047,61.4860
84.7880,61.5945
84.8132,61.6597
84.7992,61.7281
84.7880,61.7455
84.7047,61.8540
84.7047,61.8540
84.5769,62.0755
84.5769,62.0755
84.4791,62.3117
84.4791,62.3117
84.4129,62.5587
84.4115,62.5690
84.3795,62.8121
84.3795,63.0678
84.4049,63.2610
84.4129,63.3213
84.4769,63.5603
84.4791,63.5683
84.4791,63.5683
84.5769,63.8045
84.5769,63.8045
84.7047,64.0260
84.7047,64.0260
84.7880,64.1345
84.8132,64.1997
84.7992,64.2681
84.7880,64.2855
84.7047,64.3940
84.7047,64.3940
84.5769,64.6155
84.5769,64.6155
84.4791,64.8517
84.4791,64.8517
84.4273,65.0448
84.4129,65.0987
84.3795,65.3521
84.3795,65.6078
84.4035,65.7900
84.4129,65.8613
84.4400,65.9626
84.4791,66.1083
84.4791,66.1083
84.5769,66.3445
84.5769,66.3445
84.7047,66.5660
84.7047,66.5660
84.7880,66.6745
84.8132,66.7397
84.7992,66.8081
84.7880,66.8255
84.7047,66.9340
84.7047,66.9340
84.5769,67.1555
84.5769,67.1555
84.4791,67.3917
84.4791,67.3917
84.4136,67.6360
84.4129,67.6387
84.3795,67.8921
84.3795,68.1478
84.3999,68.3031
84.4129,68.4013
84.4791,68.6483
84.4791,68.6483
84.5769,68.8845
84.5769,68.8845
84.7047,69.1060
84.7047,69.1060
84.7880,69.2145
84.8132,69.2797
84.7992,69.3481
84.7880,69.3655
84.7047,69.4740
84.7047,69.4740
84.5769,69.6955
84.5769,69.6955
84.4791,69.9317
84.4791,69.9317
84.4370,70.0885
84.4129,70.1787
84.3795,70.4321
84.3795,70.6878
84.3902,70.7690
84.4129,70.9413
84.4349,71.0234
84.4791,71.1883
84.4791,71.1883
84.5769,71.4245
84.5769,71.4245
84.7047,71.6460
84.7047,71.6460
84.7880,71.7545
84.8132,71.8197
84.7992,71.8881
84.7880,71.9055
84.7047,72.0140
84.7047,72.0140
84.5769,72.2355
84.5769,72.2355
84.4791,72.4717
84.4791,72.4717
84.4169,72.7037
84.4129,72.7187
84.3795,72.9721
84.3795,73.2279
84.3963,73.3558
84.4129,73.4813
84.4395,73.5807
84.4791,73.7283
84.4791,73.7283
84.5769,73.9645
84.5769,73.9645
84.7047,74.1860
84.7047,74.1860
84.7880,74.2945
84.8132,74.3597
84.7992,74.4281
84.7880,74.4455
84.7047,74.5540
84.7047,74.5540
84.5769,74.7755
84.5769,74.7755
84.4791,75.0117
84.4791,75.0117
84.4175,75.2416
84.4129,75.2587
84.3795,75.5121
84.3795,75.7678
84.4020,75.9385
84.4129,76.0213
84.4791,76.2683
84.4791,76.2683
84.5769,76.5045
84.5769,76.5045
84.7047,76.7260
84.7047,76.7260
84.7880,76.8345
84.8132,76.8997
84.7992,76.9681
84.7880,76.9855
84.7047,77.0940
84.7047,77.0940
84.5769,77.3155
84.5769,77.3155
84.4791,77.5517
84.4791,77.5517
84.4175,77.7816
84.4129,77.7987
84.3795,78.0521
84.3795,78.3079
84.4006,78.4682
84.4129,78.5613
84.4766,78.7992
84.4791,78.8083
84.4791,78.8083
84.5769,79.0445
84.5769,79.0445
84.7047,79.2660
84.7047,79.2660
84.7880,79.3745
84.8132,79.4397
84.7992,79.5081
84.7880,79.5255
84.7047,79.6340
84.7047,79.6340
84.5769,79.8555
84.5769,79.8555
84.4791,80.0917
84.4791,80.0917
84.4263,80.2887
84.4129,80.3387
84.3795,80.5921
84.3795,80.8478
84.4019,81.0178
84.4129,81.1013
84.4768,81.3400
84.4791,81.3483
84.4791,81.3483
84.5769,81.5845
84.5769,81.5845
84.7047,81.8060
84.7047,81.8060
84.8604,82.0088
84.8604,82.0088
85.0412,82.1896
85.0412,82.1896
85.0592,82.2034
85.2440,82.3453
85.2440,82.3453
85.4655,82.4731
85.4655,82.4731
85.4655,82.4731
85.7017,82.5709
85.9487,82.6371
86.2022,82.6705
86.2022,82.6705
86.4578,82.6705
86.4578,82.6705
86.7113,82.6371
86.9583,82.5709
87.1945,82.4731
87.4160,82.3453
87.6188,82.1896
87.7996,82.0088
87.9553,81.8060
88.0831,81.5845
88.1809,81.3483
88.2057,81.2558
88.2421,81.1962
88.3049,81.1657
88.3743,81.1739
88.4282,81.2184
88.4495,81.2850
88.4495,81.2879
88.4495,81.7080
88.4495,81.7080
88.4601,81.8274
88.5161,82.0230
88.5161,82.0230
88.5161,82.0230
88.6103,82.2034
88.6103,82.2034
88.7389,82.3611
88.8002,82.4111
88.8966,82.4897
89.0770,82.5839
89.2726,82.6399
89.3920,82.6505
91.4080,82.6505
91.5274,82.6399
91.7230,82.5839
91.9034,82.4897
92.0611,82.3611
92.1897,82.2034
92.2839,82.0230
92.3399,81.8274
92.3505,81.7080
92.3505,79.6920
92.3399,79.5726
92.2839,79.3770
92.1897,79.1966
92.1642,79.1653
92.1371,79.1009
92.1491,79.0321
92.1529,79.0249
92.1531,79.0245
92.2509,78.7883
92.3171,78.5413
92.3505,78.2878
92.3505,78.0322
92.3171,77.7787
92.2509,77.5317
92.1531,77.2955
92.1531,77.2955
92.1531,77.2955
92.0253,77.0740
92.0253,77.0740
91.9420,76.9655
91.9168,76.9003
91.9308,76.8319
91.9420,76.8145
92.0253,76.7060
92.1531,76.4845
92.2509,76.2483
92.3171,76.0013
92.3505,75.7478
92.3505,75.4922
92.3171,75.2387
92.2683,75.0566
92.2700,74.9867
92.3092,74.9289
92.3734,74.9014
92.3881,74.9005
96.7902,74.9005
96.8572,74.9202
96.9030,74.9730
96.9129,75.0421
96.8839,75.1057
96.8779,75.1122
96.7514,75.2387
96.6268,75.3632
96.5655,75.3967
96.5392,75.3995
95.3712,75.3995
95.3712,75.3995
95.3712,75.3995
95.3595,75.4005
95.2518,75.4101
95.0562,75.4661
94.9680,75.5121
94.8758,75.5603
94.8758,75.5603
94.8758,75.5603
94.7181,75.6889
94.5895,75.8466
94.5895,75.8466
94.5616,75.9000
94.4953,76.0270
94.4393,76.2226
94.4393,76.2226
94.4287,76.3420
94.4287,78.4580
94.4287,78.4580
94.4393,78.5774
94.4953,78.7730
94.4953,78.7730
94.4953,78.7730
94.5895,78.9534
94.5895,78.9534
94.7181,79.1111
94.8120,79.1877
94.8758,79.2397
95.0562,79.3339
95.2518,79.3899
95.3712,79.4005
97.4873,79.4005
97.6066,79.3899
97.8023,79.3339
97.9826,79.2397
98.1403,79.1111
98.2689,78.9534
98.3631,78.7730
98.4191,78.5774
98.4297,78.4580
98.4297,77.2900
98.4321,77.2819
99.9292,77.2819
99.9292,77.5181
99.9661,77.7512
100.0391,77.9758
100.1463,78.1862
100.2066,78.2691
100.2066,78.2691
100.9463,77.5294
100.9633,77.5930
101.0291,77.7070
101.1222,77.8001
101.2362,77.8659
101.2998,77.8830
100.5601,78.6227
100.6430,78.6829
100.8534,78.7901
101.0780,78.8631
101.0780,78.8631
101.3112,78.9000
101.5473,78.9000
101.7805,78.8631
102.0050,78.7901
102.2154,78.6829
102.2154,78.6829
102.2983,78.6227
102.2983,78.6227
101.5586,77.8830
101.6222,77.8659
101.7362,77.8001
101.8293,77.7070
101.8951,77.5930
101.9122,77.5294
102.6519,78.2691
102.6519,78.2691
102.7121,78.1862
102.7121,78.1862
102.8193,77.9758
102.8923,77.7512
102.9292,77.5181
102.9292,77.2819
102.8923,77.0488
102.8193,76.8242
102.7121,76.6138
102.6519,76.5309
102.6519,76.5309
101.9122,77.2706
101.8951,77.2070
101.8293,77.0930
101.7362,76.9999
101.6222,76.9341
101.5586,76.9170
102.2983,76.1773
102.2983,76.1773
102.2154,76.1171
102.0050,76.0099
101.7805,75.9369
101.7805,75.9369
101.5473,75.9000
101.3112,75.9000
101.0780,75.9369
100.8534,76.0099
100.6430,76.1171
100.5601,76.1773
101.2998,76.9170
101.2362,76.9341
101.1222,76.9999
101.0291,77.0930
100.9633,77.2070
100.9463,77.2706
100.2066,76.5309
100.1463,76.6138
100.0391,76.8242
99.9661,77.0488
99.9292,77.2819
98.4321,77.2819
98.4494,77.2230
98.4660,77.2024
103.7920,71.8764
103.9123,71.7108
103.9685,71.6005
104.0052,71.5284
104.0430,71.4122
104.0685,71.3338
104.0875,71.2135
104.1118,71.1600
104.1106,71.1592
104.2420,70.9696
104.2420,70.9696
104.2420,70.9696
104.3351,70.7647
104.3901,70.5464
104.4005,70.4142
104.4005,69.3858
104.3901,69.2536
104.3351,69.0353
104.2420,68.8304
104.1828,68.7450
104.1138,68.6454
104.1138,68.6453
104.1138,68.6453
103.9547,68.4862
103.9547,68.4862
103.9546,68.4862
103.7696,68.3580
103.7696,68.3580
103.7696,68.3580
103.6732,68.3142
103.5647,68.2649
103.5647,68.2649
103.3464,68.2099
103.3464,68.2099
103.3023,68.2064
103.2142,68.1995
103.2142,68.1995
102.3858,68.1995
102.3858,68.1995
102.2536,68.2099
102.2536,68.2099
102.0353,68.2649
102.0353,68.2649
101.8513,68.3485
101.7821,68.3583
101.7487,68.3485
101.5647,68.2649
101.5647,68.2649
101.3464,68.2099
101.3464,68.2099
101.3023,68.2064
101.2142,68.1995
101.2142,68.1995
100.3858,68.1995
100.3858,68.1995
100.2536,68.2099
100.2536,68.2099
100.0353,68.2649
100.0353,68.2649
99.8304,68.3580
99.8304,68.3580
99.6454,68.4862
99.6453,68.4862
99.4862,68.6453
99.4862,68.6454
99.3580,68.8304
99.3580,68.8304
99.2649,69.0353
99.2649,69.0353
99.2099,69.2536
99.2099,69.2536
99.1995,69.3858
99.1995,70.4100
99.1798,70.4770
99.1632,70.4976
97.3976,72.2632
97.3363,72.2967
97.3100,72.2995
95.5735,72.2995
95.5064,72.2798
95.4607,72.2270
95.4507,72.1579
95.4685,72.1095
95.5253,72.0190
95.6111,71.8826
95.7451,71.6042
95.8472,71.3126
95.9159,71.0115
95.9505,70.7045
95.9505,70.3955
95.9505,70.3955
95.9505,70.3955
95.9159,70.0886
95.9159,70.0885
95.8472,69.7874
95.8472,69.7874
95.7451,69.4958
95.7451,69.4958
95.6111,69.2174
95.4467,68.9559
95.2541,68.7143
95.0581,68.5183
95.0246,68.4570
95.0296,68.3873
95.0714,68.3313
95.0983,68.3160
95.1295,68.3031
95.3510,68.1753
95.5538,68.0196
95.7346,67.8388
95.8903,67.6360
96.0181,67.4145
96.0290,67.3882
96.0830,67.2578
96.0955,67.2277
96.1393,67.1733
96.2056,67.1513
96.2733,67.1686
96.2977,67.1875
96.3643,67.2541
96.6059,67.4467
96.8674,67.6111
97.1458,67.7451
97.1458,67.7451
97.4374,67.8472
97.4374,67.8472
97.7385,67.9159
97.7386,67.9159
97.7386,67.9159
97.9432,67.9390
98.0455,67.9505
98.0455,67.9505
98.0455,67.9505
98.3545,67.9505
98.3545,67.9505
98.5114,67.9328
98.6614,67.9159
98.6614,67.9159
98.6615,67.9159
98.9626,67.8472
99.2542,67.7451
99.5326,67.6111
99.7941,67.4467
100.0357,67.2541
100.2541,67.0357
100.4467,66.7941
100.6111,66.5326
100.7451,66.2542
100.8472,65.9626
100.9159,65.6615
100.9220,65.6078
100.9502,65.3572
100.9505,65.3545
100.9505,65.0455
100.9369,64.9250
100.9159,64.7386
100.9159,64.7385
100.9001,64.6695
100.8472,64.4374
100.8449,64.4310
100.7559,64.1766
100.7451,64.1458
100.6111,63.8674
100.4467,63.6059
100.2541,63.3643
100.0357,63.1459
99.7941,62.9533
99.5874,62.8234
99.5326,62.7889
99.2542,62.6549
99.2542,62.6549
98.9626,62.5528
98.9626,62.5528
98.6615,62.4841
98.6614,62.4841
98.3545,62.4495
98.3545,62.4495
98.0455,62.4495
98.0455,62.4495
97.7386,62.4841
97.7385,62.4841
97.4374,62.5528
97.4374,62.5528
97.1458,62.6549
97.1458,62.6549
97.0283,62.7114
96.9594,62.7228
96.8952,62.6951
96.8563,62.6371
96.8505,62.5997
96.8505,61.5319
96.8136,61.2986
96.7406,61.0740
96.6840,60.9630
96.6333,60.8636
96.4945,60.6725
96.3275,60.5055
96.1364,60.3667
95.9260,60.2594
95.7014,60.1864
95.4681,60.1495
95.4681,60.1495
95.2319,60.1495
95.2319,60.1495
94.9986,60.1864
94.9648,60.1974
94.8981,60.2002
94.8952,60.1995
94.7574,60.1601
94.7090,60.1558
94.7004,60.1538
94.6774,60.1407
94.6527,60.1310
94.6475,60.1237
94.6396,60.1193
94.6273,60.0959
94.6118,60.0744
94.6113,60.0654
94.6072,60.0574
94.6095,60.0311
94.6081,60.0046
94.6130,59.9911
94.6133,59.9878
94.6150,59.9856
94.6183,59.9768
94.6370,59.9400
94.7206,59.7760
94.7936,59.5514
94.8202,59.3830
94.8305,59.3181
94.8305,59.0819
94.7936,58.8486
94.7549,58.7295
94.7206,58.6240
94.7192,58.6213
94.7190,58.6202
94.7187,58.6195
94.7188,58.6194
94.7063,58.5526
94.7192,58.5087
94.7206,58.5060
94.7936,58.2814
94.8007,58.2360
94.8305,58.0481
94.8305,57.8119
94.7936,57.5786
94.7605,57.4768
94.7206,57.3540
94.7192,57.3513
94.7190,57.3502
94.7187,57.3495
94.7188,57.3494
94.7063,57.2826
94.7192,57.2387
94.7206,57.2360
94.7936,57.0114
94.7961,56.9955
94.8305,56.7781
94.8305,56.5419
94.7936,56.3086
94.7549,56.1895
94.7206,56.0840
94.7192,56.0813
94.7190,56.0802
94.7187,56.0795
94.7188,56.0794
94.7063,56.0126
94.7192,55.9687
94.7206,55.9660
94.7936,55.7414
94.8007,55.6960
94.8289,55.5180
108.6695,55.5180
108.6695,55.8620
108.7032,56.2042
108.7703,56.5416
108.8701,56.8707
109.0018,57.1885
109.0018,57.1885
109.1639,57.4918
109.1639,57.4918
109.3550,57.7778
109.3550,57.7778
109.5732,58.0436
109.8164,58.2868
109.8164,58.2868
109.8164,58.2868
110.0822,58.5050
110.3682,58.6961
110.3682,58.6961
110.3682,58.6961
110.6715,58.8582
110.6715,58.8582
110.6715,58.8582
110.9893,58.9898
111.3184,59.0897
111.6557,59.1568
111.9980,59.1905
111.9980,59.1905
112.3420,59.1905
112.3420,59.1905
112.6842,59.1568
113.0216,59.0897
113.3507,58.9898
113.6685,58.8582
113.9718,58.6961
114.2578,58.5050
114.5236,58.2868
114.7668,58.0436
114.9850,57.7778
115.1761,57.4918
115.3382,57.1885
115.4698,56.8707
115.5697,56.5416
115.6368,56.2042
115.6705,55.8620
115.6705,55.5180
115.6368,55.1758
115.5697,54.8384
115.4698,54.5093
115.3382,54.1915
115.3302,54.1765
115.1761,53.8882
115.1761,53.8882
115.1761,53.8882
114.9850,53.6022
114.7668,53.3364
114.7668,53.3364
114.7668,53.3364
114.5236,53.0932
114.2578,52.8750
114.2578,52.8750
114.2578,52.8750
113.9718,52.6839
113.9718,52.6839
113.9718,52.6839
113.6685,52.5218
113.6685,52.5218
113.6322,52.5068
113.3833,52.4037
113.3507,52.3901
113.0216,52.2903
112.6842,52.2232
112.6842,52.2232
112.4265,52.1978
112.3420,52.1895
111.9980,52.1895
111.9200,52.1972
111.6557,52.2232
111.3184,52.2903
110.9893,52.3901
110.6715,52.5218
110.6715,52.5218
110.3682,52.6839
110.3682,52.6839
110.0822,52.8750
110.0822,52.8750
109.8164,53.0932
109.5732,53.3364
109.3550,53.6022
109.3550,53.6022
109.1639,53.8882
109.1639,53.8882
109.0018,54.1915
109.0018,54.1915
108.8701,54.5093
108.7703,54.8384
108.7032,55.1758
108.6937,55.2719
108.6705,55.5081
108.6695,55.5180
94.8289,55.5180
94.8305,55.5081
94.8305,55.2719
94.7936,55.0386
94.7285,54.8384
94.7206,54.8140
94.7192,54.8113
94.7190,54.8102
94.7187,54.8095
94.7188,54.8094
94.7063,54.7426
94.7192,54.6987
94.7206,54.6960
94.7936,54.4714
94.8304,54.2390
94.8305,54.2381
94.8305,54.0019
94.7936,53.7686
94.7618,53.6710
94.7206,53.5440
94.7192,53.5413
94.7190,53.5402
94.7187,53.5395
94.7188,53.5394
94.7063,53.4726
94.7192,53.4287
94.7206,53.4260
94.7936,53.2014
94.8107,53.0932
94.8305,52.9681
94.8305,52.7319
94.7936,52.4986
94.7534,52.3751
94.7206,52.2740
94.7192,52.2713
94.7190,52.2702
94.7187,52.2695
94.7188,52.2694
94.7063,52.2026
94.7192,52.1587
94.7206,52.1560
94.7936,51.9314
94.8169,51.7841
94.8305,51.6981
94.8305,51.4619
94.7936,51.2286
94.7695,51.1547
94.7206,51.0040
94.7192,51.0013
94.7190,51.0002
94.7187,50.9995
94.7188,50.9994
94.7063,50.9326
94.7192,50.8887
94.7206,50.8860
94.7936,50.6614
94.8070,50.5762
94.8305,50.4281
94.8305,50.1919
94.7936,49.9586
94.7550,49.8399
94.7206,49.7340
94.7192,49.7313
94.7190,49.7302
94.7187,49.7295
94.7188,49.7294
94.7063,49.6626
94.7192,49.6187
94.7206,49.6160
94.7936,49.3914
94.8100,49.2876
94.8305,49.1581
94.8305,48.9219
94.7936,48.6886
94.7549,48.5695
94.7206,48.4640
94.7192,48.4613
94.7190,48.4602
94.7187,48.4595
94.7188,48.4594
94.7063,48.3926
94.7192,48.3487
94.7206,48.3460
94.7936,48.1214
94.8014,48.0721
94.8305,47.8881
94.8305,47.6519
94.7936,47.4186
94.7375,47.2461
94.7206,47.1940
94.7206,47.1940
94.7206,47.1940
94.6582,47.0717
94.6133,46.9836
94.4745,46.7925
94.3075,46.6255
94.1164,46.4867
94.1122,46.4845
94.0614,46.4365
94.0446,46.3687
94.0671,46.3026
94.1218,46.2591
94.1685,46.2500
94.3300,46.2500
94.3300,45.9522
94.3300,45.9522
94.3236,45.8926
94.3236,45.8926
94.2734,45.7579
94.2733,45.7579
94.1872,45.6428
94.1872,45.6428
94.0721,45.5566
94.0721,45.5566
93.9374,45.5064
93.9374,45.5064
93.8778,45.5000
92.5800,45.5000
92.5800,46.1455
92.5603,46.2125
92.5075,46.2583
92.4560,46.2695
92.2040,46.2695
92.1370,46.2498
92.0912,46.1970
92.0800,46.1455
92.0800,45.5000
90.7822,45.5000
90.7678,45.5015
90.6990,45.4891
90.6479,45.4415
90.6305,45.3783
90.6305,42.6859
97.0900,42.6859
97.0900,43.1000
98.1070,43.1000
98.0741,43.1570
98.0400,43.2842
98.0400,43.4158
98.0741,43.5430
98.1070,43.6000
97.0900,43.6000
97.0900,44.0141
97.1257,44.2395
97.1962,44.4566
97.2998,44.6600
97.4340,44.8446
97.5954,45.0060
97.7800,45.1401
97.9834,45.2438
98.2005,45.3143
98.2900,45.3285
98.2900,43.7830
98.3470,43.8159
98.4742,43.8500
98.6058,43.8500
98.7330,43.8159
98.7900,43.7830
98.7900,45.3285
98.8795,45.3143
99.0912,45.2455
99.1611,45.2435
99.2209,45.2796
99.2394,45.3060
99.2512,45.3285
99.2903,45.4034
99.3255,45.4466
99.4189,45.5611
99.5128,45.6377
99.5766,45.6897
99.7570,45.7839
99.9526,45.8399
100.0720,45.8505
101.9600,45.8505
102.0270,45.8702
102.0476,45.8868
103.5049,47.3441
103.5049,47.3441
103.5080,47.3472
103.5080,47.3472
103.6528,47.4920
103.6528,47.4920
103.6528,47.4920
103.7766,47.5819
103.7766,47.5819
103.8184,47.6123
103.8184,47.6123
103.8184,47.6123
103.8961,47.6519
104.0008,47.7052
104.0008,47.7052
104.0981,47.7368
104.1955,47.7685
104.3976,47.8005
104.3976,47.8005
104.6024,47.8005
106.6844,47.8005
106.7514,47.8202
106.7567,47.8238
106.7598,47.8260
106.7766,47.8397
106.7850,47.8441
106.7921,47.8492
106.8084,47.8701
106.8275,47.8885
106.8318,47.9001
106.8351,47.9043
106.8356,47.9103
106.8414,47.9257
106.8684,48.0617
106.8684,48.0617
106.9438,48.2437
106.9438,48.2437
107.0532,48.4075
107.0533,48.4075
107.1925,48.5467
107.1925,48.5468
107.3563,48.6562
107.3563,48.6562
107.5383,48.7316
107.5383,48.7316
107.7315,48.7700
107.7315,48.7700
108.5800,48.7700
108.5800,48.1245
108.5997,48.0575
108.6525,48.0117
108.7040,48.0005
108.9560,48.0005
109.0230,48.0202
109.0688,48.0730
109.0800,48.1245
109.0800,48.7700
109.9285,48.7700
109.9285,48.7700
110.1217,48.7316
110.1217,48.7316
110.3037,48.6562
110.3037,48.6562
110.4675,48.5468
110.4675,48.5467
110.6067,48.4075
110.6068,48.4075
110.7162,48.2437
110.7162,48.2437
110.7916,48.0617
110.7916,48.0617
110.8186,47.9257
110.8510,47.8638
110.8783,47.8434
110.8782,47.8432
110.8820,47.8407
110.8828,47.8400
110.8834,47.8397
111.0411,47.7111
111.1697,47.5534
111.2639,47.3730
111.3199,47.1774
111.3305,47.0580
111.3305,45.9420
111.3199,45.8226
111.2639,45.6270
111.1697,45.4466
111.0734,45.3285
111.0411,45.2889
110.9073,45.1798
110.8834,45.1603
110.7030,45.0661
110.7030,45.0661
110.7030,45.0661
110.5844,45.0321
110.5074,45.0101
110.5074,45.0101
110.5074,45.0101
110.4411,45.0042
110.3880,44.9995
110.3880,44.9995
107.2720,44.9995
107.2720,44.9995
107.2720,44.9995
107.2603,45.0005
107.1526,45.0101
106.9570,45.0661
106.8668,45.1132
106.7766,45.1603
106.7766,45.1603
106.7766,45.1603
106.7627,45.1716
106.6983,45.1987
106.6844,45.1995
105.0900,45.1995
105.0230,45.1798
105.0024,45.1632
103.0668,43.2276
103.0333,43.1663
103.0305,43.1400
103.0305,42.1250
104.7000,42.1250
104.7105,42.2277
104.7656,42.3941
104.7656,42.3941
104.8577,42.5433
104.9817,42.6673
105.1309,42.7594
105.1309,42.7594
105.2973,42.8145
105.2973,42.8145
105.4000,42.8250
105.7500,42.8250
106.2500,42.8250
106.6000,42.8250
106.6000,42.8250
106.7027,42.8145
106.8691,42.7594
106.8691,42.7594
107.0183,42.6673
107.1423,42.5433
107.2344,42.3941
107.2344,42.3941
107.2895,42.2277
107.2895,42.2277
107.3000,42.1250
107.3000,42.1250
107.3000,41.0750
106.2500,41.0750
106.2500,42.8250
105.7500,42.8250
105.7500,42.8250
105.7500,41.0750
104.7000,41.0750
104.7000,42.1250
103.0305,42.1250
103.0305,41.7920
103.0305,41.7920
103.0199,41.6726
102.9639,41.4770
102.8697,41.2966
102.7411,41.1389
102.5834,41.0103
102.4030,40.9161
102.4030,40.9161
102.4030,40.9161
102.2858,40.8825
102.2074,40.8601
102.2074,40.8601
102.2074,40.8601
102.1411,40.8542
102.0880,40.8495
102.0880,40.8495
100.0720,40.8495
100.0720,40.8495
100.0720,40.8495
100.0603,40.8505
99.9526,40.8601
99.7570,40.9161
99.6668,40.9632
99.5766,41.0103
99.5766,41.0103
99.5766,41.0103
99.4189,41.1389
99.2903,41.2966
99.2903,41.2966
99.2394,41.3940
99.1910,41.4443
99.1230,41.4604
99.0912,41.4545
98.8795,41.3857
98.7900,41.3715
98.7900,42.9170
98.7330,42.8841
98.6058,42.8500
98.4742,42.8500
98.3470,42.8841
98.2900,42.9170
98.2900,41.3715
98.2900,41.3715
98.2005,41.3857
97.9834,41.4562
97.7800,41.5598
97.5954,41.6940
97.4340,41.8554
97.2998,42.0400
97.1962,42.2434
97.1257,42.4605
97.0900,42.6859
90.6305,42.6859
90.6305,40.4893
90.6502,40.4222
90.7030,40.3765
90.7721,40.3665
90.8357,40.3955
90.8662,40.4355
90.8889,40.4826
90.8889,40.4826
91.0533,40.7441
91.2459,40.9857
91.4643,41.2041
91.7059,41.3967
91.9674,41.5611
92.2458,41.6951
92.2458,41.6951
92.5374,41.7972
92.5374,41.7972
92.8385,41.8659
92.8386,41.8659
92.8386,41.8659
93.0432,41.8890
93.1455,41.9005
93.1455,41.9005
93.1455,41.9005
93.4545,41.9005
93.4545,41.9005
93.6114,41.8828
93.7614,41.8659
93.7614,41.8659
93.7615,41.8659
94.0626,41.7972
94.3542,41.6951
94.6326,41.5611
94.8941,41.3967
95.1357,41.2041
95.3541,40.9857
95.5467,40.7441
95.7111,40.4826
95.8451,40.2042
95.9472,39.9126
96.0159,39.6115
96.0193,39.5812
96.0464,39.3404
96.0735,39.2760
96.1311,39.2365
96.2009,39.2343
96.2609,39.2703
96.2669,39.2774
96.2677,39.2783
96.3917,39.4023
96.5409,39.4944
96.5409,39.4944
96.7073,39.5495
96.7073,39.5495
96.8100,39.5600
97.0600,39.5600
97.5600,39.5600
97.8100,39.5600
97.8100,39.5600
97.9127,39.5495
98.0791,39.4944
98.0791,39.4944
98.2283,39.4023
98.3523,39.2783
98.4444,39.1291
98.4444,39.1291
98.4995,38.9627
98.4995,38.9627
98.5100,38.8600
98.5100,38.8600
98.5100,38.7350
97.5600,38.7350
97.5600,39.5600
97.0600,39.5600
97.0600,39.5600
97.0600,38.6090
97.0626,38.6000
99.2750,38.6000
99.2855,38.7027
99.3406,38.8691
99.3406,38.8691
99.4327,39.0183
99.5567,39.1423
99.7059,39.2344
99.7059,39.2344
99.8723,39.2895
99.8723,39.2895
99.9750,39.3000
100.2500,39.3000
100.7500,39.3000
101.0250,39.3000
101.0250,39.3000
101.1277,39.2895
101.2941,39.2344
101.2941,39.2344
101.4433,39.1423
101.5673,39.0183
101.6594,38.8691
101.6594,38.8691
101.7145,38.7027
101.7145,38.7027
101.7250,38.6000
101.7250,38.6000
101.7250,38.5500
100.7500,38.5500
100.7500,39.3000
100.2500,39.3000
100.2500,39.3000
100.2500,38.5500
99.2750,38.5500
99.2750,38.6000
97.0626,38.6000
97.0797,38.5420
97.1325,38.4962
97.1840,38.4850
97.3100,38.4850
97.3100,38.3590
97.3297,38.2920
97.3825,38.2462
97.4340,38.2350
98.5100,38.2350
98.5100,38.1100
98.5100,38.1100
98.4995,38.0073
98.4645,37.9015
98.4621,37.8317
98.4978,37.7717
98.5115,37.7606
98.5647,37.7238
98.7238,37.5647
98.8287,37.4133
98.8830,37.3694
98.9525,37.3619
99.0150,37.3931
99.0325,37.4133
99.0612,37.4547
99.1517,37.5451
99.2203,37.6138
99.2734,37.6506
99.3173,37.7050
99.3249,37.7744
99.3205,37.7915
99.2855,37.8973
99.2855,37.8973
99.2750,38.0000
99.2750,38.0500
101.7250,38.0500
101.7250,38.0000
101.7250,38.0000
101.7145,37.8973
101.7033,37.8635
101.7009,37.7937
101.7366,37.7336
101.7992,37.7024
101.8210,37.7005
104.0818,37.7005
104.1489,37.7202
104.1946,37.7730
104.2054,37.8148
104.2057,37.8174
104.2099,37.8714
104.2099,37.8714
104.2649,38.0897
104.2649,38.0897
104.3580,38.2946
104.3580,38.2946
104.4862,38.4796
104.4862,38.4796
104.4862,38.4797
104.6453,38.6388
104.6453,38.6388
104.6454,38.6388
104.7375,38.7027
104.8304,38.7670
104.8611,38.7809
104.9198,38.8076
104.9727,38.8533
104.9925,38.9203
104.9729,38.9873
104.9562,39.0082
104.8577,39.1067
104.7656,39.2559
104.7656,39.2559
104.7105,39.4223
104.7105,39.4223
104.7000,39.5250
104.7000,40.5750
107.3000,40.5750
107.3000,39.5250
107.3000,39.5250
107.2895,39.4223
107.2344,39.2559
107.2344,39.2559
107.1423,39.1067
107.0438,39.0082
107.0104,38.9469
107.0153,38.8772
107.0572,38.8212
107.0802,38.8076
107.1185,38.7902
107.1696,38.7670
107.3547,38.6388
107.5138,38.4797
107.6420,38.2946
107.7351,38.0897
107.7901,37.8714
107.8005,37.7392
107.8005,35.1108
107.7901,34.9786
107.7842,34.9554
107.7351,34.7603
107.7351,34.7603
107.7304,34.7500
107.6420,34.5554
107.6036,34.5000
107.5138,34.3704
107.5138,34.3704
107.5138,34.3703
107.3547,34.2112
107.3546,34.2112
107.3546,34.2112
107.1696,34.0830
107.1696,34.0830
107.1696,34.0830
107.0745,34.0398
106.9647,33.9899
106.9647,33.9899
106.7464,33.9349
106.7464,33.9349
106.7023,33.9314
106.6142,33.9245
106.6142,33.9245
105.3858,33.9245
105.3858,33.9245
105.2536,33.9349
105.2536,33.9349
105.0353,33.9899
105.0353,33.9899
104.8304,34.0830
104.8304,34.0830
104.6454,34.2112
104.6453,34.2112
104.4862,34.3703
104.4862,34.3704
104.3580,34.5554
104.3580,34.5554
104.2649,34.7603
104.2649,34.7603
104.2099,34.9786
104.2099,34.9786
104.2099,34.9786
104.2094,34.9852
104.1845,35.0505
104.1283,35.0920
104.0858,35.0995
101.9245,35.0995
101.8575,35.0798
101.8117,35.0270
101.8005,34.9755
101.8005,33.2876
101.7741,33.1211
101.7685,33.0855
101.7685,33.0855
101.7231,32.9459
101.7052,32.8908
101.7052,32.8908
101.7052,32.8908
101.6352,32.7533
101.6123,32.7084
101.4920,32.5428
100.9672,32.0180
100.8016,31.8977
100.7104,31.8512
100.7096,31.8508
100.7082,31.8501
100.6574,31.8021
100.6405,31.7396
100.6405,29.3076
100.6085,29.1055
100.5452,28.9108
100.4633,28.7501
100.4523,28.7284
100.4004,28.6570
100.3320,28.5628
100.2668,28.4976
100.2333,28.4363
100.2305,28.4100
100.2305,27.3420
100.2305,27.3420
100.2199,27.2226
100.1639,27.0270
100.0697,26.8466
99.9975,26.7580
99.9411,26.6889
99.8283,26.5969
99.7834,26.5603
99.7834,26.5603
99.7823,26.5594
99.7821,26.5590
99.7777,26.5573
99.6301,26.4802
99.6030,26.4661
99.6030,26.4661
99.6030,26.4661
99.5194,26.4421
99.4074,26.4101
99.4074,26.4101
99.4074,26.4101
99.3411,26.4042
99.2880,26.3995
99.2880,26.3995
97.2720,26.3995
97.2720,26.3995
97.2720,26.3995
97.2603,26.4005
97.1526,26.4101
96.9570,26.4661
96.9415,26.4742
96.7766,26.5603
96.7766,26.5603
96.7766,26.5603
96.6189,26.6889
96.4903,26.8466
96.4903,26.8466
96.4394,26.9440
96.3910,26.9943
96.3230,27.0104
96.2912,27.0045
96.0795,26.9357
95.9900,26.9215
95.9900,27.9170
95.9330,27.8841
95.8058,27.8500
95.6742,27.8500
95.5470,27.8841
95.4900,27.9170
95.4900,26.9215
95.4900,26.9215
95.4005,26.9357
95.1834,27.0062
94.9800,27.1098
94.9024,27.1662
94.8366,27.1897
94.7686,27.1739
94.7312,27.1414
94.6696,27.0612
94.6696,27.0612
94.4888,26.8804
94.4888,26.8804
94.2860,26.7247
94.2860,26.7247
94.2860,26.7247
94.2860,26.7247
94.2860,26.7247
94.0645,26.5969
94.0645,26.5969
93.8283,26.4991
93.8283,26.4991
93.8283,26.4991
93.5813,26.4329
93.5250,26.4255
93.3278,26.3995
93.3278,26.3995
93.0722,26.3995
93.0721,26.3995
92.8468,26.4292
92.8187,26.4329
92.6658,26.4738
92.5717,26.4991
92.5717,26.4991
92.3355,26.5969
92.3355,26.5969
92.1140,26.7247
92.1140,26.7247
92.0055,26.8080
91.9403,26.8332
91.8719,26.8192
91.8545,26.8080
91.7460,26.7247
91.7460,26.7247
91.7460,26.7247
91.7460,26.7247
91.7460,26.7247
91.5245,26.5969
91.5245,26.5969
91.2883,26.4991
91.2883,26.4991
91.2883,26.4991
91.0413,26.4329
90.9850,26.4255
90.7878,26.3995
90.7878,26.3995
90.5322,26.3995
90.5321,26.3995
90.3068,26.4292
90.2787,26.4329
90.1258,26.4738
90.0317,26.4991
90.0317,26.4991
89.7955,26.5969
89.7955,26.5969
89.5740,26.7247
89.5740,26.7247
89.4655,26.8080
89.4003,26.8332
89.3319,26.8192
89.3145,26.8080
89.2060,26.7247
89.2060,26.7247
89.2060,26.7247
89.2060,26.7247
89.2060,26.7247
88.9845,26.5969
88.9845,26.5969
88.7483,26.4991
88.7483,26.4991
88.7483,26.4991
88.5013,26.4329
88.4450,26.4255
88.2478,26.3995
88.2478,26.3995
87.9922,26.3995
87.9921,26.3995
87.7668,26.4292
87.7387,26.4329
87.5858,26.4738
87.4917,26.4991
87.4917,26.4991
87.2555,26.5969
87.2555,26.5969
87.0340,26.7247
87.0340,26.7247
86.9255,26.8080
86.8603,26.8332
86.7919,26.8192
86.7745,26.8080
86.6660,26.7247
86.6660,26.7247
86.6660,26.7247
86.6660,26.7247
86.6660,26.7247
86.4445,26.5969
86.4445,26.5969
86.2083,26.4991
86.2083,26.4991
86.2083,26.4991
85.9613,26.4329
85.9050,26.4255
85.7078,26.3995
85.7078,26.3995
85.4522,26.3995
85.4521,26.3995
85.2268,26.4292
85.1987,26.4329
85.0458,26.4738
84.9517,26.4991
84.9517,26.4991
84.7155,26.5969
84.7155,26.5969
84.4940,26.7247
84.4940,26.7247
84.3855,26.8080
84.3203,26.8332
84.2519,26.8192
84.2345,26.8080
84.1260,26.7247
84.1260,26.7247
84.1260,26.7247
84.1260,26.7247
84.1260,26.7247
83.9045,26.5969
83.9045,26.5969
83.6683,26.4991
83.6683,26.4991
83.6683,26.4991
83.4213,26.4329
83.3650,26.4255
83.1679,26.3995
83.1678,26.3995
82.9122,26.3995
82.9121,26.3995
82.6868,26.4292
82.6587,26.4329
82.5058,26.4738
82.4117,26.4991
82.4117,26.4991
82.1755,26.5969
82.1755,26.5969
81.9540,26.7247
81.9540,26.7247
81.8455,26.8080
81.7803,26.8332
81.7119,26.8192
81.6945,26.8080
81.5860,26.7247
81.5860,26.7247
81.5860,26.7247
81.5860,26.7247
81.5860,26.7247
81.3645,26.5969
81.3645,26.5969
81.1283,26.4991
81.1283,26.4991
81.1283,26.4991
80.8813,26.4329
80.8250,26.4255
80.6278,26.3995
80.6278,26.3995
80.3722,26.3995
80.3721,26.3995
80.1468,26.4292
80.1187,26.4329
79.9658,26.4738
79.8717,26.4991
79.8717,26.4991
79.6355,26.5969
79.6355,26.5969
79.4140,26.7247
79.4140,26.7247
79.2112,26.8804
79.2112,26.8804
79.0304,27.0612
79.0304,27.0612
78.8747,27.2640
78.8747,27.2640
78.8368,27.3297
78.7863,27.3779
78.7176,27.3911
78.6528,27.3652
78.6220,27.3297
78.5553,27.2140
78.4380,27.0612
78.3996,27.0112
78.3996,27.0112
78.2188,26.8304
78.2188,26.8304
78.0160,26.6747
78.0160,26.6747
78.0160,26.6747
78.0160,26.6747
78.0160,26.6747
77.7945,26.5469
77.7945,26.5469
77.5583,26.4491
77.5583,26.4491
77.5583,26.4490
77.3113,26.3829
77.2550,26.3755
77.0579,26.3495
77.0578,26.3495
76.8022,26.3495
76.8021,26.3495
76.5768,26.3792
76.5487,26.3829
76.3621,26.4329
76.3017,26.4490
76.3017,26.4491
76.0655,26.5469
76.0655,26.5469
75.8440,26.6747
75.8440,26.6747
75.7355,26.7580
75.6703,26.7832
75.6019,26.7692
75.5845,26.7580
75.4760,26.6747
75.4760,26.6747
75.4760,26.6747
75.4760,26.6747
75.4760,26.6747
75.2545,26.5469
75.2545,26.5469
75.0183,26.4491
75.0183,26.4491
75.0183,26.4490
74.7713,26.3829
74.7150,26.3755
74.5178,26.3495
74.5178,26.3495
74.2622,26.3495
74.2621,26.3495
74.0368,26.3792
74.0087,26.3829
73.8221,26.4329
73.7617,26.4490
73.7617,26.4491
73.5255,26.5469
73.5255,26.5469
73.3040,26.6747
73.3040,26.6747
73.1955,26.7580
73.1303,26.7832
73.0619,26.7692
73.0445,26.7580
72.9360,26.6747
72.9360,26.6747
72.9360,26.6747
72.9360,26.6747
72.9360,26.6747
72.7145,26.5469
72.7145,26.5469
72.4783,26.4491
72.4783,26.4491
72.4783,26.4490
72.2313,26.3829
72.1750,26.3755
71.9779,26.3495
71.9778,26.3495
71.7222,26.3495
71.7221,26.3495
71.4968,26.3792
71.4687,26.3829
71.2821,26.4329
71.2217,26.4490
71.2217,26.4491
70.9855,26.5469
70.9855,26.5469
70.7640,26.6747
70.7640,26.6747
70.6555,26.7580
70.5903,26.7832
70.5219,26.7692
70.5045,26.7580
70.3960,26.6747
70.3960,26.6747
70.3960,26.6747
70.3960,26.6747
70.3960,26.6747
70.1745,26.5469
70.1745,26.5469
69.9383,26.4491
69.9383,26.4491
69.9383,26.4490
69.6913,26.3829
69.6350,26.3755
69.4378,26.3495
69.4378,26.3495
69.1822,26.3495
69.1821,26.3495
68.9568,26.3792
68.9287,26.3829
68.7421,26.4329
68.6817,26.4490
68.6817,26.4491
68.4455,26.5469
68.4455,26.5469
68.2240,26.6747
68.2240,26.6747
68.1155,26.7580
68.0503,26.7832
67.9819,26.7692
67.9645,26.7580
67.8560,26.6747
67.8560,26.6747
67.8560,26.6747
67.8560,26.6747
67.8560,26.6747
67.6345,26.5469
67.6345,26.5469
67.3983,26.4491
67.3983,26.4491
67.3983,26.4490
67.1513,26.3829
67.0950,26.3755
66.8978,26.3495
66.8978,26.3495
66.6422,26.3495
66.6421,26.3495
66.4168,26.3792
66.3887,26.3829
66.2021,26.4329
66.1417,26.4490
66.1417,26.4491
65.9055,26.5469
65.9055,26.5469
65.9051,26.5471
65.9049,26.5472
65.9018,26.5487
65.9015,26.5480
65.8372,26.5636
65.7711,26.5407
65.7647,26.5358
65.7334,26.5103
65.7334,26.5103
65.7334,26.5103
65.5530,26.4161
65.5530,26.4161
65.5530,26.4161
65.4358,26.3825
65.3574,26.3601
65.3574,26.3601
65.3574,26.3601
65.2911,26.3542
65.2380,26.3495
65.2380,26.3495
63.2220,26.3495
63.2220,26.3495
63.2220,26.3495
63.2103,26.3505
63.1026,26.3601
62.9702,26.3980
62.9003,26.3975
62.8418,26.3593
62.8132,26.2956
62.8236,26.2265
62.8697,26.1740
62.8703,26.1737
63.3152,25.8970
63.3171,25.8958
63.4976,25.7889
63.4983,25.7885
64.3118,25.3188
64.3140,25.3176
64.4787,25.2274
64.4792,25.2271
65.3276,24.7736
65.3300,24.7724
65.4703,24.7017
65.4707,24.7014
66.3615,24.2622
66.3642,24.2609
66.4673,24.2132
66.4676,24.2131
67.4123,23.7850
67.4152,23.7838
67.4621,23.7640
67.4622,23.7639
68.4722,23.3456
68.4759,23.3441
69.5368,22.9448
69.5406,22.9435
70.6140,22.5791
70.6178,22.5779
71.7026,22.2488
71.7064,22.2477
72.6803,21.9868
72.8013,21.9543
72.8052,21.9534
73.9092,21.6959
73.9131,21.6951
75.0249,21.4740
75.0288,21.4733
76.1473,21.2886
76.1512,21.2880
77.2751,21.1400
77.2790,21.1396
78.4071,21.0285
78.4111,21.0282
79.5202,20.9555
79.5204,20.9554
79.5481,20.9538
79.5512,20.9537
80.6033,20.9192
80.6036,20.9192
80.6994,20.9168
80.7018,20.9167
80.7050,20.9167
81.7087,20.9167
Z" /> 
<path style="fill:#000000; fill-opacity:1.0000; stroke:none;fill-rule:evenodd;"
d="M 69.6807,80.1953
69.6872,80.2014
69.8024,80.3166
69.8359,80.3779
69.8387,80.4042
69.8387,80.5624
69.8707,80.7645
69.9340,80.9592
70.0263,81.1405
70.0392,81.2092
70.0366,81.2252
69.9907,81.4204
69.9907,81.4204
69.9845,81.5090
69.9845,81.9510
69.9907,82.0396
69.9907,82.0396
70.0395,82.2472
70.0395,82.2472
70.0694,82.3149
70.0784,82.3842
70.0694,82.4151
70.0395,82.4828
70.0395,82.4828
69.9907,82.6904
69.9907,82.6904
69.9845,82.7790
69.9845,83.2210
69.9907,83.3096
69.9907,83.3096
70.0395,83.5172
70.0395,83.5172
70.0694,83.5849
70.0784,83.6542
70.0694,83.6851
70.0395,83.7528
70.0395,83.7528
69.9907,83.9604
69.9907,83.9604
69.9845,84.0490
69.9845,84.4910
69.9880,84.5411
69.9730,84.6094
69.9235,84.6587
69.8552,84.6734
69.7898,84.6488
69.7766,84.6374
69.6472,84.5080
69.6472,84.5080
69.6472,84.5080
69.4816,84.3877
69.3950,84.3436
69.3950,84.3436
69.3904,84.3412
69.2992,84.2948
69.1906,84.2595
69.1862,84.2581
69.1862,84.2581
69.1045,84.2315
68.9385,84.2052
68.9024,84.1995
68.9024,84.1995
68.8913,84.1995
68.8243,84.1798
68.7785,84.1270
68.7686,84.0579
68.7808,84.0192
68.8688,83.8466
68.9393,83.6295
68.9535,83.5400
67.9580,83.5400
67.9909,83.4830
68.0250,83.3558
68.0250,83.2242
67.9909,83.0970
67.9580,83.0400
68.9535,83.0400
68.9393,82.9505
68.8705,82.7388
68.8685,82.6689
68.9046,82.6091
68.9310,82.5906
69.0284,82.5397
69.1861,82.4111
69.3147,82.2534
69.4089,82.0730
69.4649,81.8774
69.4755,81.7580
69.4755,80.2890
69.4952,80.2220
69.5480,80.1763
69.6171,80.1663
Z" /> 
<path style="fill:#000000; fill-opacity:1.0000; stroke:none;fill-rule:evenodd;"
d="M 54.4552,33.7579
54.4859,33.8207
54.4778,33.8901
54.4754,33.8954
54.3549,34.1458
54.3549,34.1458
54.2528,34.4374
54.2528,34.4374
54.1841,34.7385
54.1841,34.7386
54.1495,35.0455
54.1495,35.3545
54.1841,35.6614
54.1841,35.6615
54.2528,35.9626
54.2528,35.9626
54.3549,36.2542
54.3549,36.2542
54.4889,36.5326
54.4889,36.5326
54.6533,36.7941
54.8459,37.0357
55.0643,37.2541
55.3059,37.4467
55.5674,37.6111
55.8458,37.7451
55.8611,37.7505
56.1374,37.8472
56.1374,37.8472
56.4385,37.9159
56.4386,37.9159
56.4386,37.9159
56.6432,37.9390
56.7455,37.9505
56.7455,37.9505
56.7455,37.9505
57.0545,37.9505
57.0545,37.9505
57.2114,37.9328
57.3614,37.9159
57.3614,37.9159
57.3615,37.9159
57.6626,37.8472
57.9542,37.7451
58.0217,37.7126
58.0906,37.7013
58.1548,37.7290
58.1937,37.7870
58.1995,37.8244
58.1995,39.6432
58.1798,39.7103
58.1270,39.7560
58.0579,39.7660
57.9943,39.7369
57.9786,39.7205
57.8674,39.5812
57.6688,39.3826
57.6131,39.3381
57.4492,39.2075
57.2114,39.0581
57.2114,39.0581
56.9584,38.9362
56.6933,38.8434
56.6933,38.8434
56.4195,38.7809
56.4195,38.7809
56.1404,38.7495
56.1404,38.7495
55.8596,38.7495
55.8596,38.7495
55.5805,38.7809
55.5805,38.7809
55.3067,38.8434
55.3067,38.8434
55.0416,38.9362
54.7886,39.0581
54.5508,39.2075
54.3312,39.3826
54.1326,39.5812
53.9575,39.8008
53.8081,40.0386
53.6862,40.2916
53.5934,40.5567
53.5934,40.5567
53.5309,40.8305
53.5309,40.8305
53.4995,41.1096
53.4995,41.3904
53.5309,41.6695
53.5309,41.6695
53.5934,41.9433
53.5934,41.9433
53.6862,42.2084
53.8081,42.4614
53.8081,42.4614
53.9575,42.6992
54.1326,42.9188
54.3312,43.1174
54.5508,43.2925
54.7886,43.4419
55.0416,43.5638
55.2407,43.6335
55.3067,43.6566
55.3067,43.6566
55.5805,43.7191
55.5805,43.7191
55.5805,43.7191
55.7665,43.7400
55.8596,43.7505
55.8596,43.7505
55.8596,43.7505
56.1404,43.7505
56.1404,43.7505
56.2831,43.7344
56.4195,43.7191
56.4195,43.7191
56.4195,43.7191
56.6933,43.6566
56.9584,43.5638
57.2114,43.4419
57.4492,43.2925
57.6688,43.1174
57.8674,42.9188
57.8817,42.9010
57.9786,42.7795
58.0357,42.7393
58.1056,42.7365
58.1658,42.7718
58.1974,42.8341
58.1995,42.8568
58.1995,44.5874
58.1798,44.6544
58.1270,44.7002
58.0579,44.7101
57.9943,44.6811
57.9593,44.6307
57.9434,44.5879
57.9433,44.5879
57.8572,44.4728
57.8572,44.4728
57.7421,44.3866
57.7421,44.3866
57.6074,44.3364
57.6074,44.3364
57.5478,44.3300
56.2500,44.3300
56.2500,45.6109
56.2217,45.5992
56.0749,45.5700
55.9251,45.5700
55.7783,45.5992
55.7500,45.6109
55.7500,44.3300
54.4522,44.3300
54.3926,44.3364
54.3926,44.3364
54.2579,44.3866
54.2579,44.3866
54.1428,44.4728
54.1428,44.4728
54.0566,44.5879
54.0566,44.5879
54.0064,44.7226
54.0064,44.7226
54.0000,44.7822
54.0000,46.0800
55.2809,46.0800
55.2692,46.1083
55.2400,46.2551
55.2400,46.4049
55.2692,46.5517
55.2809,46.5800
54.0000,46.5800
54.0000,47.8778
54.0064,47.9374
54.0064,47.9374
54.0566,48.0721
54.0566,48.0721
54.1428,48.1872
54.1428,48.1872
54.2579,48.2734
54.2579,48.2734
54.3926,48.3236
54.3926,48.3236
54.4522,48.3300
54.4522,48.3300
55.7500,48.3300
55.7500,47.0491
55.7783,47.0608
55.9251,47.0900
56.0749,47.0900
56.2217,47.0608
56.2500,47.0491
56.2500,48.3300
57.5478,48.3300
57.5478,48.3300
57.6074,48.3236
57.6074,48.3236
57.7421,48.2734
57.7421,48.2734
57.8572,48.1872
57.8572,48.1872
57.9433,48.0721
57.9434,48.0721
57.9593,48.0293
58.0012,47.9734
58.0667,47.9489
58.1349,47.9638
58.1843,48.0132
58.1995,48.0726
58.1995,49.9955
58.1798,50.0625
58.1270,50.1083
58.0755,50.1195
56.6120,50.1195
56.6120,50.1195
56.6120,50.1195
56.6003,50.1205
56.4926,50.1301
56.2970,50.1861
56.2100,50.2315
56.1166,50.2803
56.1166,50.2803
56.1166,50.2803
55.9589,50.4089
55.8463,50.5470
55.8303,50.5666
55.7832,50.6568
55.7361,50.7470
55.6801,50.9426
55.6801,50.9426
55.6695,51.0620
55.6695,53.0780
55.6695,53.0780
55.6695,53.0780
55.6708,53.0932
55.6801,53.1974
55.7361,53.3930
55.7361,53.3930
55.7361,53.3930
55.8303,53.5734
55.8538,53.6022
55.8558,53.6047
55.8829,53.6691
55.8709,53.7379
55.8671,53.7451
55.8669,53.7455
55.8669,53.7455
55.7691,53.9817
55.7691,53.9817
55.7029,54.2287
55.7016,54.2381
55.6695,54.4821
55.6695,54.7378
55.6827,54.8384
55.7029,54.9913
55.7580,55.1972
55.7691,55.2383
55.7691,55.2383
55.8669,55.4745
55.8669,55.4745
55.9947,55.6960
55.9947,55.6960
56.0780,55.8045
56.1032,55.8697
56.0892,55.9381
56.0780,55.9555
55.9947,56.0640
55.9947,56.0640
55.8669,56.2855
55.8669,56.2855
55.7691,56.5217
55.7691,56.5217
55.7029,56.7687
55.7016,56.7781
55.6695,57.0221
55.6695,57.2779
55.6955,57.4750
55.7029,57.5313
55.7689,57.7778
55.7691,57.7783
55.7691,57.7783
55.8669,58.0145
55.8669,58.0145
55.9947,58.2360
55.9947,58.2360
56.1504,58.4388
56.1504,58.4388
56.3312,58.6196
56.3312,58.6196
56.4114,58.6812
56.4526,58.7376
56.4568,58.8073
56.4362,58.8524
56.3798,58.9300
56.2762,59.1334
56.2057,59.3505
56.1915,59.4400
57.1870,59.4400
57.1541,59.4970
57.1200,59.6242
57.1200,59.7558
57.1541,59.8830
57.1870,59.9400
56.1915,59.9400
56.2057,60.0295
56.2762,60.2466
56.3798,60.4500
56.5140,60.6346
56.6754,60.7960
56.8600,60.9301
57.0634,61.0338
57.2805,61.1043
57.3700,61.1185
57.3700,60.1230
57.4270,60.1559
57.5542,60.1900
57.6858,60.1900
57.8130,60.1559
57.8700,60.1230
57.8700,61.1185
57.9595,61.1043
58.1766,61.0338
58.3800,60.9301
58.5646,60.7960
58.7260,60.6346
58.8601,60.4500
58.9638,60.2466
59.0343,60.0295
59.0485,59.9400
58.0530,59.9400
58.0859,59.8830
58.1200,59.7558
58.1200,59.6242
58.0859,59.4970
58.0530,59.4400
59.0485,59.4400
59.0343,59.3505
58.9638,59.1334
58.8601,58.9300
58.8038,58.8524
58.7803,58.7866
58.7961,58.7186
58.8286,58.6812
58.9088,58.6196
59.0896,58.4388
59.0971,58.4290
59.1536,58.3878
59.1955,58.3805
60.7600,58.3805
60.8270,58.4002
60.8476,58.4168
61.1399,58.7091
61.1399,58.7091
61.1430,58.7122
61.1430,58.7122
61.2878,58.8570
61.2878,58.8570
61.2878,58.8570
61.3972,58.9364
61.4130,58.9502
61.4310,58.9686
61.4492,58.9747
61.4534,58.9773
61.4534,58.9773
61.4534,58.9773
61.4998,59.0009
61.5261,59.0143
61.5769,59.0623
61.5937,59.1301
61.5711,59.1963
61.5261,59.2353
61.4863,59.2556
61.4863,59.2556
61.4134,59.2927
61.2478,59.4130
59.5080,61.1528
59.5080,61.1528
59.3877,61.3184
59.3877,61.3184
59.3736,61.3461
59.3736,61.3462
59.3730,61.3472
59.2948,61.5008
59.2894,61.5173
59.2868,61.5254
59.2868,61.5254
59.2586,61.6121
59.2375,61.6771
59.2337,61.6888
59.2337,61.6888
59.2315,61.6955
59.2315,61.6955
59.1995,61.8976
59.1995,62.3861
59.1798,62.4531
59.1270,62.4989
59.0579,62.5088
58.9943,62.4798
58.9681,62.4481
58.9002,62.3305
58.7595,62.1471
58.7326,62.1121
58.7326,62.1121
58.5379,61.9174
58.5379,61.9174
58.3195,61.7498
58.3195,61.7498
58.3195,61.7498
58.2244,61.6949
58.0810,61.6121
58.0810,61.6121
57.8266,61.5067
57.6813,61.4678
57.5607,61.4354
57.5607,61.4354
57.5607,61.4354
57.2877,61.3995
57.2877,61.3995
57.2877,61.3995
55.7123,61.3995
55.7123,61.3995
55.7123,61.3995
55.4393,61.4354
55.4393,61.4354
55.4393,61.4354
55.3831,61.4505
55.1734,61.5067
54.9190,61.6121
54.9190,61.6121
54.6805,61.7498
54.4621,61.9174
54.4621,61.9174
54.2674,62.1121
54.2674,62.1121
54.0998,62.3305
53.9621,62.5690
53.9621,62.5690
53.8567,62.8234
53.8219,62.9533
53.7912,63.0678
53.7854,63.0893
53.7854,63.0893
53.7495,63.3623
53.7495,63.3623
53.7495,63.6377
53.7495,63.6377
53.7854,63.9107
53.7854,63.9107
53.7854,63.9107
53.7854,63.9107
53.8567,64.1766
53.9621,64.4310
53.9621,64.4310
54.0229,64.5363
54.0998,64.6695
54.0998,64.6695
54.0998,64.6695
54.2674,64.8879
54.2674,64.8879
54.3044,64.9250
54.3379,64.9863
54.3365,65.0448
54.3231,65.0950
54.2795,65.2578
54.2795,65.2578
54.2495,65.4853
54.2495,65.7147
54.2744,65.9042
54.2795,65.9422
54.2849,65.9626
54.3388,66.1639
54.4266,66.3759
54.4267,66.3759
54.5203,66.5380
54.5367,66.6059
54.5203,66.6620
54.4267,66.8241
54.4266,66.8241
54.3388,67.0361
54.2795,67.2578
54.2795,67.2578
54.2495,67.4853
54.2495,67.7147
54.2743,67.9028
54.2795,67.9422
54.3002,68.0196
54.3388,68.1639
54.3388,68.1639
54.3789,68.2607
54.3864,68.3302
54.3743,68.3655
54.3161,68.4770
54.3161,68.4770
54.2915,68.5628
54.2679,68.6453
54.2601,68.6726
54.2601,68.6726
54.2495,68.7920
54.2495,70.2933
54.2298,70.3603
54.2239,70.3688
54.0998,70.5305
53.9621,70.7690
53.9621,70.7690
53.8567,71.0234
53.7854,71.2893
53.7854,71.2893
53.7495,71.5623
53.7495,71.5623
53.7495,71.8377
53.7495,71.8377
53.7854,72.1107
53.7854,72.1107
53.7854,72.1107
53.8189,72.2355
53.8567,72.3766
53.9621,72.6310
53.9621,72.6310
54.0040,72.7037
54.0998,72.8695
54.0998,72.8695
54.0998,72.8695
54.2674,73.0879
54.2674,73.0879
54.4621,73.2826
54.4621,73.2826
54.5424,73.3443
54.6805,73.4502
54.8183,73.5298
54.9190,73.5879
54.9190,73.5879
54.9190,73.5879
55.1734,73.6933
55.4393,73.7646
55.7123,73.8005
56.1093,73.8005
56.1763,73.8202
56.2221,73.8730
56.2320,73.9421
56.2128,73.9927
56.2103,73.9966
56.1161,74.1770
56.0601,74.3726
56.0601,74.3726
56.0495,74.4920
56.0495,76.5080
56.0495,76.5080
56.0601,76.6274
56.1161,76.8230
56.1161,76.8230
56.1161,76.8230
56.2103,77.0034
56.2103,77.0034
56.2358,77.0347
56.2629,77.0991
56.2509,77.1679
56.2471,77.1751
56.2469,77.1755
56.2469,77.1755
56.1491,77.4117
56.1490,77.4117
56.1005,77.5930
56.0829,77.6587
56.0495,77.9121
56.0495,78.1679
56.0686,78.3128
56.0829,78.4213
56.1247,78.5774
56.1490,78.6683
56.1491,78.6683
56.2469,78.9045
56.2469,78.9045
56.3747,79.1260
56.3747,79.1260
56.5304,79.3288
56.5304,79.3288
56.7112,79.5096
56.7112,79.5096
56.7933,79.5726
56.9140,79.6653
56.9140,79.6653
57.1355,79.7931
57.1355,79.7931
57.1355,79.7931
57.3717,79.8909
57.6187,79.9571
57.8722,79.9905
57.8722,79.9905
58.1278,79.9905
58.1278,79.9905
58.3813,79.9571
58.6283,79.8909
58.8645,79.7931
59.0135,79.7071
59.0814,79.6906
59.1474,79.7135
59.1906,79.7684
59.1995,79.8145
59.1995,81.1976
59.1995,81.4024
59.2043,81.4327
59.2315,81.6045
59.2315,81.6045
59.2552,81.6775
59.2552,81.6775
59.2566,81.6816
59.2948,81.7992
59.3397,81.8874
59.3421,81.8921
59.3421,81.8921
59.3877,81.9816
59.4075,82.0088
59.5080,82.1472
60.7166,83.3558
60.9402,83.5794
60.9737,83.6407
60.9687,83.7104
60.9268,83.7663
60.8614,83.7907
60.7931,83.7759
60.7803,83.7678
60.6493,83.6740
60.6478,83.6729
60.6225,83.6542
60.4540,83.5295
60.4522,83.5282
59.7378,82.9800
59.7362,82.9788
59.5457,82.8276
59.5442,82.8264
58.8483,82.2553
58.8466,82.2539
58.6625,82.0973
58.6611,82.0961
57.9819,81.5005
57.9802,81.4989
57.8056,81.3400
57.8044,81.3388
57.4616,81.0178
57.1401,80.7167
57.1384,80.7150
56.9762,80.5569
56.9751,80.5558
56.3240,79.9047
56.3222,79.9028
56.1756,79.7500
56.1747,79.7489
55.5346,79.0656
55.5328,79.0635
55.4054,78.9212
55.4046,78.9204
55.3107,78.8133
54.7730,78.2001
54.7711,78.1980
54.6673,78.0738
54.6668,78.0732
54.0450,77.3155
54.0401,77.3095
54.0381,77.3071
53.9641,77.2121
53.9635,77.2113
53.3368,76.3946
53.3349,76.3920
53.2989,76.3425
53.2985,76.3419
52.6667,75.4603
52.6644,75.4569
52.6260,75.3995
52.0346,74.5144
52.0324,74.5110
52.0206,74.4920
51.4339,73.5485
51.4318,73.5450
50.8650,72.5633
50.8631,72.5598
50.3810,71.6579
50.3287,71.5601
50.3269,71.5565
49.8255,70.5399
49.8238,70.5362
49.7897,70.4610
49.3560,69.5038
49.3544,69.5001
49.3526,69.4958
48.9206,68.4528
48.9191,68.4490
48.8498,68.2649
48.6427,67.7147
48.5198,67.3882
48.5185,67.3844
48.4780,67.2650
48.1541,66.3110
48.1529,66.3072
47.8273,65.2339
47.8272,65.2334
47.8229,65.2192
47.8220,65.2161
47.5475,64.1914
47.5473,64.1906
47.5436,64.1766
47.5247,64.1039
47.5240,64.1010
47.3532,63.3687
49.5395,63.3687
49.5395,63.6113
49.5712,63.8518
49.6339,64.0861
49.7268,64.3102
49.7268,64.3102
49.7800,64.4024
49.7964,64.4703
49.7736,64.5363
49.7687,64.5427
49.7003,64.6266
49.6061,64.8070
49.5501,65.0026
49.5501,65.0026
49.5395,65.1220
49.5395,66.9380
49.5395,66.9380
49.5501,67.0574
49.6061,67.2530
49.6061,67.2530
49.6061,67.2530
49.7003,67.4334
49.7003,67.4334
49.8289,67.5911
49.9228,67.6677
49.9866,67.7197
50.1670,67.8139
50.3626,67.8699
50.4820,67.8805
52.2980,67.8805
52.4174,67.8699
52.6130,67.8139
52.7934,67.7197
52.9511,67.5911
53.0797,67.4334
53.1739,67.2530
53.2299,67.0574
53.2405,66.9380
53.2405,65.1220
53.2299,65.0026
53.1739,64.8070
53.0797,64.6266
53.0325,64.5687
53.0113,64.5427
52.9842,64.4783
52.9962,64.4095
53.0000,64.4024
53.0532,64.3102
53.1461,64.0861
53.2088,63.8518
53.2405,63.6113
53.2405,63.3687
53.2088,63.1282
53.1461,62.8939
53.0532,62.6698
52.9319,62.4597
52.8328,62.3305
52.7843,62.2673
52.7843,62.2673
52.6127,62.0957
52.6127,62.0957
52.4203,61.9481
52.4203,61.9481
52.4203,61.9481
52.2102,61.8268
52.2102,61.8268
51.9861,61.7339
51.7518,61.6712
51.5113,61.6395
51.5113,61.6395
51.2687,61.6395
51.2687,61.6395
51.0282,61.6712
50.7939,61.7339
50.5698,61.8268
50.5698,61.8268
50.3597,61.9481
50.1673,62.0957
50.1673,62.0957
49.9957,62.2673
49.9957,62.2673
49.8481,62.4597
49.7268,62.6698
49.7268,62.6698
49.6339,62.8939
49.5712,63.1282
49.5395,63.3687
47.3532,63.3687
47.2946,63.1172
47.2945,63.1168
47.2638,62.9798
47.2632,62.9771
47.0732,62.0219
47.0730,62.0210
47.0404,61.8484
47.0399,61.8457
46.8855,60.9106
46.8853,60.9093
46.8783,60.8636
46.8547,60.7107
46.8544,60.7082
46.7331,59.7870
46.7329,59.7857
46.7070,59.5684
46.7067,59.5660
46.6169,58.6544
46.6168,58.6532
46.5972,58.4227
46.5970,58.4205
46.5377,57.5154
46.5376,57.5137
46.5361,57.4837
46.5254,57.2749
46.5254,57.2731
46.4958,56.3716
46.4958,56.3699
46.4917,56.1270
46.4917,56.1249
46.4917,55.5030
46.8295,55.5030
46.8295,55.8470
46.8317,55.8697
46.8632,56.1892
46.9303,56.5266
47.0301,56.8557
47.1618,57.1735
47.1618,57.1735
47.3239,57.4768
47.3239,57.4768
47.5150,57.7628
47.5150,57.7628
47.7332,58.0286
47.9764,58.2718
47.9764,58.2718
47.9764,58.2718
48.2422,58.4900
48.5282,58.6811
48.5282,58.6811
48.5282,58.6811
48.8315,58.8432
48.8315,58.8432
48.8315,58.8432
49.1493,58.9748
49.4784,59.0747
49.8157,59.1418
50.1580,59.1755
50.1580,59.1755
50.5020,59.1755
50.5020,59.1755
50.8442,59.1418
51.1816,59.0747
51.5107,58.9748
51.8285,58.8432
52.1318,58.6811
52.4178,58.4900
52.6836,58.2718
52.9268,58.0286
53.1450,57.7628
53.3361,57.4768
53.4982,57.1735
53.6298,56.8557
53.7297,56.5266
53.7968,56.1892
53.8305,55.8470
53.8305,55.5030
53.7968,55.1608
53.7609,54.9801
53.7297,54.8234
53.7297,54.8234
53.7297,54.8234
53.6298,54.4943
53.4982,54.1765
53.4333,54.0550
53.3361,53.8732
53.3361,53.8732
53.3361,53.8732
53.1450,53.5872
52.9268,53.3214
52.9268,53.3214
52.9268,53.3214
52.6836,53.0782
52.4178,52.8600
52.4178,52.8600
52.4178,52.8600
52.1318,52.6689
52.1318,52.6689
52.1318,52.6689
51.8285,52.5068
51.8285,52.5068
51.8088,52.4986
51.5795,52.4037
51.5107,52.3751
51.1816,52.2753
50.8442,52.2082
50.8442,52.2082
50.5865,52.1828
50.5020,52.1745
50.1580,52.1745
50.0800,52.1822
49.8157,52.2082
49.4784,52.2753
49.1493,52.3751
48.8315,52.5068
48.8315,52.5068
48.5282,52.6689
48.5282,52.6689
48.2422,52.8600
48.2422,52.8600
47.9764,53.0782
47.7332,53.3214
47.5150,53.5872
47.5150,53.5872
47.3239,53.8732
47.3239,53.8732
47.1618,54.1765
47.1618,54.1765
47.0301,54.4943
46.9303,54.8234
46.8632,55.1608
46.8523,55.2719
46.8295,55.5030
46.4917,55.5030
46.4917,55.2251
46.4917,55.2230
46.4927,55.1608
46.4958,54.9801
46.4958,54.9784
46.5254,54.0769
46.5254,54.0751
46.5376,53.8362
46.5377,53.8346
46.5970,52.9295
46.5972,52.9273
46.6168,52.6968
46.6169,52.6956
46.7067,51.7840
46.7070,51.7816
46.7329,51.5642
46.7331,51.5630
46.8544,50.6417
46.8547,50.6393
46.8853,50.4407
46.8855,50.4394
46.8906,50.4089
47.0399,49.5043
47.0404,49.5016
47.0730,49.3289
47.0732,49.3282
47.2632,48.3729
47.2638,48.3702
47.2945,48.2331
47.2946,48.2329
47.5240,47.2490
47.5247,47.2461
47.5473,47.1592
47.5474,47.1588
47.8221,46.1339
47.8229,46.1309
47.8272,46.1164
48.1529,45.0428
48.1541,45.0390
48.5185,43.9656
48.5198,43.9618
48.9191,42.9009
48.9206,42.8972
49.3544,41.8499
49.3560,41.8463
49.8238,40.8137
49.8255,40.8101
49.8580,40.7441
50.3269,39.7934
50.3287,39.7899
50.3291,39.7891
50.8631,38.7902
50.8650,38.7867
51.4318,37.8050
51.4338,37.8016
52.0324,36.8389
52.0346,36.8356
52.6644,35.8930
52.6667,35.8898
53.2987,35.0077
53.3349,34.9580
53.3367,34.9554
53.9637,34.1384
53.9639,34.1381
54.0382,34.0428
54.0400,34.0406
54.2679,33.7630
54.3256,33.7236
54.3954,33.7218
Z" /> 
<path style="fill:#000000; fill-opacity:1.0000; stroke:none;fill-rule:evenodd;"
d="M 65.5682,65.2110
65.5876,65.2268
66.0632,65.7024
66.0967,65.7637
66.0995,65.7900
66.0995,70.4610
66.0798,70.5280
66.0270,70.5737
65.9579,70.5837
65.8943,70.5547
65.8878,70.5486
65.3020,69.9628
65.2751,69.9226
65.1831,69.7005
65.1831,69.7005
65.0553,69.4790
65.0553,69.4790
64.9548,69.3481
64.8996,69.2762
64.8996,69.2762
64.7188,69.0954
64.7188,69.0954
64.6386,69.0338
64.5974,68.9774
64.5932,68.9077
64.6138,68.8626
64.6701,68.7850
64.7738,68.5816
64.8443,68.3645
64.8585,68.2750
63.8630,68.2750
63.8959,68.2180
63.9300,68.0908
63.9300,67.9592
63.8959,67.8320
63.8630,67.7750
64.8585,67.7750
64.8443,67.6855
64.7738,67.4684
64.6701,67.2650
64.6138,67.1874
64.5903,67.1216
64.6061,67.0536
64.6386,67.0162
64.7188,66.9546
64.8996,66.7738
65.0553,66.5710
65.1831,66.3495
65.2809,66.1133
65.3471,65.8663
65.3805,65.6128
65.3805,65.3572
65.3770,65.3307
65.3878,65.2617
65.4342,65.2094
65.5014,65.1905
Z" /> 
<path style="fill:#000000; fill-opacity:1.0000; stroke:none;fill-rule:evenodd;"
d="M 95.9900,29.7785
96.0795,29.7643
96.2912,29.6955
96.3611,29.6935
96.4209,29.7296
96.4394,29.7560
96.4903,29.8534
96.4903,29.8534
96.5390,29.9131
96.6189,30.0111
96.6926,30.0712
96.7766,30.1397
96.9570,30.2339
97.1526,30.2899
97.2720,30.3005
97.9155,30.3005
97.9825,30.3202
98.0283,30.3730
98.0395,30.4245
98.0395,31.1994
98.0198,31.2664
97.9670,31.3122
97.8979,31.3221
97.8884,31.3202
97.8864,31.3199
97.8423,31.3164
97.7542,31.3095
97.7542,31.3095
97.1008,31.3095
97.1008,31.3095
96.9686,31.3199
96.9686,31.3199
96.7503,31.3749
96.7503,31.3749
96.5454,31.4680
96.5454,31.4680
96.3604,31.5962
96.3603,31.5962
96.2012,31.7553
96.2012,31.7554
96.0730,31.9404
96.0730,31.9404
95.9799,32.1453
95.9799,32.1453
95.9249,32.3636
95.9249,32.3636
95.9145,32.4958
95.9145,33.5242
95.9145,33.5242
95.9249,33.6564
95.9249,33.6564
95.9799,33.8747
95.9799,33.8747
95.9984,33.9154
96.0095,33.9667
96.0095,35.1407
95.9898,35.2077
95.9732,35.2283
95.8962,35.3053
95.8962,35.3054
95.7680,35.4904
95.7680,35.4904
95.6749,35.6953
95.6749,35.6953
95.6199,35.9136
95.6199,35.9136
95.6095,36.0458
95.6095,36.8242
95.6095,36.8242
95.6199,36.9564
95.6199,36.9564
95.6749,37.1747
95.6749,37.1747
95.7680,37.3796
95.7680,37.3796
95.8962,37.5646
95.8962,37.5647
95.8962,37.5647
95.9787,37.6472
96.0553,37.7238
96.1084,37.7606
96.1523,37.8150
96.1599,37.8844
96.1555,37.9015
96.1205,38.0073
96.1205,38.0073
96.1100,38.1100
96.1100,38.1229
96.0903,38.1899
96.0375,38.2357
95.9684,38.2456
95.9048,38.2166
95.8690,38.1639
95.8501,38.1100
95.8451,38.0958
95.7111,37.8174
95.5467,37.5559
95.3541,37.3143
95.1357,37.0959
94.8941,36.9033
94.6326,36.7389
94.6326,36.7389
94.3542,36.6049
94.3542,36.6049
94.0626,36.5028
94.0626,36.5028
93.7615,36.4341
93.7614,36.4341
93.4545,36.3995
93.4545,36.3995
93.1455,36.3995
93.1455,36.3995
92.8386,36.4341
92.8385,36.4341
92.5374,36.5028
92.5374,36.5028
92.2458,36.6049
92.2458,36.6049
91.9674,36.7389
91.7059,36.9033
91.4643,37.0959
91.2459,37.3143
91.0533,37.5559
90.8889,37.8174
90.8662,37.8645
90.8194,37.9164
90.7520,37.9347
90.6853,37.9137
90.6407,37.8599
90.6305,37.8107
90.6305,33.2276
90.6000,33.0351
90.6000,33.0351
90.5985,33.0255
90.5352,32.8308
90.5298,32.8202
90.4423,32.6484
90.3656,32.5428
90.3656,32.5428
90.3220,32.4828
90.3220,32.4828
90.3220,32.4828
90.1772,32.3380
90.1772,32.3380
90.1741,32.3349
90.1741,32.3349
88.3472,30.5080
88.3472,30.5080
88.3472,30.5080
88.3416,30.5039
88.2989,30.4486
88.2929,30.3790
88.3256,30.3172
88.3864,30.2829
88.3983,30.2807
88.5013,30.2671
88.7483,30.2009
88.9845,30.1031
89.2060,29.9753
89.3145,29.8920
89.3797,29.8668
89.4481,29.8808
89.4655,29.8920
89.5740,29.9753
89.5740,29.9753
89.7955,30.1031
89.7955,30.1031
89.7955,30.1031
89.9110,30.1509
89.9905,30.1839
90.0317,30.2009
90.2787,30.2671
90.5322,30.3005
90.5322,30.3005
90.7878,30.3005
90.7878,30.3005
91.0413,30.2671
91.2883,30.2009
91.5245,30.1031
91.7460,29.9753
91.8545,29.8920
91.9197,29.8668
91.9881,29.8808
92.0055,29.8920
92.1140,29.9753
92.1140,29.9753
92.3355,30.1031
92.3355,30.1031
92.3355,30.1031
92.4510,30.1509
92.5305,30.1839
92.5717,30.2009
92.8187,30.2671
93.0722,30.3005
93.0722,30.3005
93.3278,30.3005
93.3278,30.3005
93.5813,30.2671
93.8283,30.2009
94.0645,30.1031
94.2860,29.9753
94.4888,29.8196
94.6696,29.6388
94.7312,29.5586
94.7876,29.5174
94.8573,29.5132
94.9024,29.5338
94.9800,29.5901
95.1834,29.6938
95.4005,29.7643
95.4900,29.7785
95.4900,28.7830
95.5470,28.8159
95.6742,28.8500
95.8058,28.8500
95.9330,28.8159
95.9900,28.7830
Z" /> 
<path style="fill:#000000; fill-opacity:1.0000; stroke:none;fill-rule:evenodd;"
d="M 87.9501,33.7973
87.9803,33.8195
87.9932,33.8324
88.0267,33.8937
88.0295,33.9200
88.0295,36.1855
88.0098,36.2525
87.9570,36.2983
87.8879,36.3082
87.8243,36.2792
87.8071,36.2610
87.7996,36.2512
87.7996,36.2512
87.7844,36.2359
87.7509,36.1746
87.7559,36.1049
87.7736,36.0574
87.7800,35.9978
87.7800,35.9978
87.7800,35.2500
86.7630,35.2500
86.7959,35.1930
86.8300,35.0658
86.8300,34.9342
86.7959,34.8070
86.7630,34.7500
87.7800,34.7500
87.7800,34.0022
87.7800,34.0022
87.7736,33.9426
87.7720,33.9357
87.7757,33.8659
87.8166,33.8093
87.8816,33.7837
Z" /> 
</g> 
</svg>
