M48
; DRILL file KiCad 10.0.0 date 2026-04-19T20:27:27
; FORMAT={-:-/ absolute / metric / decimal}
; #@! TF.CreationDate,2026-04-19T20:27:27-03:00
; #@! TF.GenerationSoftware,Kicad,Pcbnew,10.0.0
; #@! TF.FileFunction,Plated,1,2,PTH
FMAT,2
METRIC
; #@! TA.AperFunction,Plated,PTH,ViaDrill
T1C0.400
; #@! TA.AperFunction,Plated,PTH,ComponentDrill
T2C0.750
; #@! TA.AperFunction,Plated,PTH,ComponentDrill
T3C0.800
; #@! TA.AperFunction,Plated,PTH,ComponentDrill
T4C1.000
; #@! TA.AperFunction,Plated,PTH,ComponentDrill
T5C1.300
; #@! TA.AperFunction,Plated,PTH,ComponentDrill
T6C1.500
; #@! TA.AperFunction,Plated,PTH,ComponentDrill
T7C1.520
; #@! TA.AperFunction,Plated,PTH,ViaDrill
T8C3.250
%
G90
G05
T1
X44.66Y-94.61
X47.86Y-102.51
X49.56Y-83.4
X49.96Y-100.21
X49.96Y-101.46
X50.26Y-94.685
X51.31Y-107.01
X54.36Y-102.71
X54.61Y-83.26
X55.56Y-107.06
X57.26Y-84.535
X57.36Y-93.41
X59.01Y-102.71
X59.51Y-98.96
X61.61Y-95.41
X61.71Y-102.96
X64.21Y-111.16
X65.46Y-76.21
X66.19Y-71.49
X92.51Y-70.66
X98.46Y-108.26
X99.16Y-99.96
X102.435Y-103.23
X104.11Y-78.31
X104.11Y-82.96
X105.41Y-109.56
X107.61Y-90.11
X108.91Y-79.86
X109.56Y-81.66
X111.26Y-96.66
X111.45Y-89.95
X113.135Y-95.11
X114.01Y-103.66
X114.24Y-64.94
X114.26Y-66.21
X114.26Y-67.51
X114.76Y-100.91
X116.06Y-77.76
X116.78Y-86.14
X116.81Y-88.71
X119.01Y-79.91
X119.26Y-87.56
T2
X78.62Y-55.71
X79.89Y-55.71
X81.16Y-55.71
T3
X39.0Y-84.0
X39.0Y-86.0
X39.0Y-88.0
X70.66Y-48.71
X70.66Y-56.33
T4
X39.0Y-72.0
X39.0Y-74.54
X67.0Y-78.835
X67.0Y-81.375
X67.0Y-83.915
X67.0Y-86.455
X67.0Y-88.995
X67.0Y-91.535
X67.0Y-94.075
X67.0Y-96.615
X67.0Y-100.38
X67.0Y-102.92
X67.0Y-105.46
X67.0Y-108.0
X72.01Y-73.875
X72.01Y-76.415
X72.01Y-78.955
X72.01Y-81.495
X72.01Y-84.035
X72.01Y-86.575
X72.01Y-89.115
X72.01Y-91.655
X72.01Y-94.195
X72.01Y-96.735
X72.01Y-99.275
X72.01Y-101.815
X72.01Y-104.355
X72.01Y-106.895
X72.01Y-109.435
X72.01Y-111.975
X72.01Y-114.515
X72.01Y-117.055
X72.01Y-119.595
X75.555Y-65.535
X78.095Y-65.535
X80.635Y-65.535
X83.175Y-65.535
X85.715Y-65.535
X88.255Y-65.535
X90.795Y-65.535
X93.335Y-65.535
X94.91Y-73.87
X94.91Y-76.41
X94.91Y-78.95
X94.91Y-81.49
X94.91Y-84.03
X94.91Y-86.57
X94.91Y-89.11
X94.91Y-91.65
X94.91Y-94.19
X94.91Y-96.73
X94.91Y-99.27
X94.91Y-101.81
X94.91Y-104.35
X94.91Y-106.89
X94.91Y-109.43
X94.91Y-111.97
X94.91Y-114.51
X94.91Y-117.05
X94.91Y-119.59
X101.37Y-65.84
X101.37Y-68.38
X101.37Y-70.92
X101.37Y-73.46
X101.37Y-76.0
X101.37Y-78.54
X101.37Y-81.08
X101.37Y-83.62
X101.37Y-86.16
X101.37Y-88.7
X101.37Y-91.24
X101.37Y-93.78
X113.585Y-74.685
X116.125Y-74.685
X123.045Y-51.06
X124.16Y-96.981
X124.16Y-101.981
X125.585Y-51.06
T5
X51.26Y-46.21
X51.26Y-58.21
X63.46Y-46.21
X63.46Y-58.21
X65.46Y-52.21
T6
X39.0Y-81.9
X39.0Y-90.1
T7
X40.0Y-53.84
X40.0Y-58.92
X40.0Y-64.0
X40.0Y-97.02
X40.0Y-102.1
T8
X37.0Y-46.0
X37.0Y-118.0
X129.0Y-46.0
X129.0Y-118.0
M30
