%TF.GenerationSoftware,KiCad,Pcbnew,10.0.0*%
%TF.CreationDate,2026-04-19T20:27:27-03:00*%
%TF.ProjectId,Earth_Station,45617274-685f-4537-9461-74696f6e2e6b,rev?*%
%TF.SameCoordinates,Original*%
%TF.FileFunction,Drillmap*%
%TF.FilePolarity,Positive*%
%FSLAX45Y45*%
G04 Gerber Fmt 4.5, Leading zero omitted, Abs format (unit mm)*
G04 Created by KiCad (PCBNEW 10.0.0) date 2026-04-19 20:27:27*
%MOMM*%
%LPD*%
G01*
G04 APERTURE LIST*
%ADD10C,0.100000*%
%ADD11C,0.200000*%
%ADD12C,0.130000*%
%ADD13C,0.150000*%
%ADD14C,0.152000*%
%ADD15C,0.325000*%
G04 APERTURE END LIST*
D10*
X13300000Y-12000000D02*
X13300000Y-4400000D01*
X3300000Y-4400000D02*
X3300000Y-12000000D01*
X13300000Y-12000000D02*
G75*
G02*
X13100000Y-12200000I-200000J0D01*
G01*
X3500000Y-12200000D02*
G75*
G02*
X3300000Y-12000000I0J200000D01*
G01*
X3500000Y-12200000D02*
X13100000Y-12200000D01*
X3300000Y-4400000D02*
G75*
G02*
X3500000Y-4200000I200000J0D01*
G01*
X13100000Y-4200000D02*
G75*
G02*
X13300000Y-4400000I0J-200000D01*
G01*
X13100000Y-4200000D02*
X3500000Y-4200000D01*
D11*
D10*
X4446000Y-9441000D02*
X4486000Y-9481000D01*
X4486000Y-9441000D02*
X4446000Y-9481000D01*
X4766000Y-10231000D02*
X4806000Y-10271000D01*
X4806000Y-10231000D02*
X4766000Y-10271000D01*
X4936000Y-8320000D02*
X4976000Y-8360000D01*
X4976000Y-8320000D02*
X4936000Y-8360000D01*
X4976000Y-10001000D02*
X5016000Y-10041000D01*
X5016000Y-10001000D02*
X4976000Y-10041000D01*
X4976000Y-10126000D02*
X5016000Y-10166000D01*
X5016000Y-10126000D02*
X4976000Y-10166000D01*
X5006000Y-9448500D02*
X5046000Y-9488500D01*
X5046000Y-9448500D02*
X5006000Y-9488500D01*
X5111000Y-10681000D02*
X5151000Y-10721000D01*
X5151000Y-10681000D02*
X5111000Y-10721000D01*
X5416000Y-10251000D02*
X5456000Y-10291000D01*
X5456000Y-10251000D02*
X5416000Y-10291000D01*
X5441000Y-8306000D02*
X5481000Y-8346000D01*
X5481000Y-8306000D02*
X5441000Y-8346000D01*
X5536000Y-10686000D02*
X5576000Y-10726000D01*
X5576000Y-10686000D02*
X5536000Y-10726000D01*
X5706000Y-8433500D02*
X5746000Y-8473500D01*
X5746000Y-8433500D02*
X5706000Y-8473500D01*
X5716000Y-9321000D02*
X5756000Y-9361000D01*
X5756000Y-9321000D02*
X5716000Y-9361000D01*
X5881000Y-10251000D02*
X5921000Y-10291000D01*
X5921000Y-10251000D02*
X5881000Y-10291000D01*
X5931000Y-9876000D02*
X5971000Y-9916000D01*
X5971000Y-9876000D02*
X5931000Y-9916000D01*
X6141000Y-9521000D02*
X6181000Y-9561000D01*
X6181000Y-9521000D02*
X6141000Y-9561000D01*
X6151000Y-10276000D02*
X6191000Y-10316000D01*
X6191000Y-10276000D02*
X6151000Y-10316000D01*
X6401000Y-11096000D02*
X6441000Y-11136000D01*
X6441000Y-11096000D02*
X6401000Y-11136000D01*
X6526000Y-7601000D02*
X6566000Y-7641000D01*
X6566000Y-7601000D02*
X6526000Y-7641000D01*
X6599000Y-7129000D02*
X6639000Y-7169000D01*
X6639000Y-7129000D02*
X6599000Y-7169000D01*
X9231000Y-7046000D02*
X9271000Y-7086000D01*
X9271000Y-7046000D02*
X9231000Y-7086000D01*
X9826000Y-10806000D02*
X9866000Y-10846000D01*
X9866000Y-10806000D02*
X9826000Y-10846000D01*
X9896000Y-9976000D02*
X9936000Y-10016000D01*
X9936000Y-9976000D02*
X9896000Y-10016000D01*
X10223500Y-10303000D02*
X10263500Y-10343000D01*
X10263500Y-10303000D02*
X10223500Y-10343000D01*
X10391000Y-7811000D02*
X10431000Y-7851000D01*
X10431000Y-7811000D02*
X10391000Y-7851000D01*
X10391000Y-8276000D02*
X10431000Y-8316000D01*
X10431000Y-8276000D02*
X10391000Y-8316000D01*
X10521000Y-10936000D02*
X10561000Y-10976000D01*
X10561000Y-10936000D02*
X10521000Y-10976000D01*
X10741000Y-8991000D02*
X10781000Y-9031000D01*
X10781000Y-8991000D02*
X10741000Y-9031000D01*
X10871000Y-7966000D02*
X10911000Y-8006000D01*
X10911000Y-7966000D02*
X10871000Y-8006000D01*
X10936000Y-8146000D02*
X10976000Y-8186000D01*
X10976000Y-8146000D02*
X10936000Y-8186000D01*
X11106000Y-9646000D02*
X11146000Y-9686000D01*
X11146000Y-9646000D02*
X11106000Y-9686000D01*
X11125000Y-8975000D02*
X11165000Y-9015000D01*
X11165000Y-8975000D02*
X11125000Y-9015000D01*
X11293500Y-9491000D02*
X11333500Y-9531000D01*
X11333500Y-9491000D02*
X11293500Y-9531000D01*
X11381000Y-10346000D02*
X11421000Y-10386000D01*
X11421000Y-10346000D02*
X11381000Y-10386000D01*
X11404000Y-6474000D02*
X11444000Y-6514000D01*
X11444000Y-6474000D02*
X11404000Y-6514000D01*
X11406000Y-6601000D02*
X11446000Y-6641000D01*
X11446000Y-6601000D02*
X11406000Y-6641000D01*
X11406000Y-6731000D02*
X11446000Y-6771000D01*
X11446000Y-6731000D02*
X11406000Y-6771000D01*
X11456000Y-10071000D02*
X11496000Y-10111000D01*
X11496000Y-10071000D02*
X11456000Y-10111000D01*
X11586000Y-7756000D02*
X11626000Y-7796000D01*
X11626000Y-7756000D02*
X11586000Y-7796000D01*
X11658000Y-8594000D02*
X11698000Y-8634000D01*
X11698000Y-8594000D02*
X11658000Y-8634000D01*
X11661000Y-8851000D02*
X11701000Y-8891000D01*
X11701000Y-8851000D02*
X11661000Y-8891000D01*
X11881000Y-7971000D02*
X11921000Y-8011000D01*
X11921000Y-7971000D02*
X11881000Y-8011000D01*
X11906000Y-8736000D02*
X11946000Y-8776000D01*
X11946000Y-8736000D02*
X11906000Y-8776000D01*
X7899500Y-5571000D02*
G75*
G02*
X7824500Y-5571000I-37500J0D01*
G01*
X7824500Y-5571000D02*
G75*
G02*
X7899500Y-5571000I37500J0D01*
G01*
X8026500Y-5571000D02*
G75*
G02*
X7951500Y-5571000I-37500J0D01*
G01*
X7951500Y-5571000D02*
G75*
G02*
X8026500Y-5571000I37500J0D01*
G01*
X8153500Y-5571000D02*
G75*
G02*
X8078500Y-5571000I-37500J0D01*
G01*
X8078500Y-5571000D02*
G75*
G02*
X8153500Y-5571000I37500J0D01*
G01*
X3900000Y-8360000D02*
X3900000Y-8440000D01*
X3860000Y-8400000D02*
X3940000Y-8400000D01*
X3900000Y-8560000D02*
X3900000Y-8640000D01*
X3860000Y-8600000D02*
X3940000Y-8600000D01*
X3900000Y-8760000D02*
X3900000Y-8840000D01*
X3860000Y-8800000D02*
X3940000Y-8800000D01*
X7066000Y-4831000D02*
X7066000Y-4911000D01*
X7026000Y-4871000D02*
X7106000Y-4871000D01*
X7066000Y-5593000D02*
X7066000Y-5673000D01*
X7026000Y-5633000D02*
X7106000Y-5633000D01*
X3935356Y-7235356D02*
X3935356Y-7164644D01*
X3864644Y-7164644D01*
X3864644Y-7235356D01*
X3935356Y-7235356D01*
X3935356Y-7489356D02*
X3935356Y-7418644D01*
X3864644Y-7418644D01*
X3864644Y-7489356D01*
X3935356Y-7489356D01*
X6735356Y-7918856D02*
X6735356Y-7848144D01*
X6664644Y-7848144D01*
X6664644Y-7918856D01*
X6735356Y-7918856D01*
X6735356Y-8172856D02*
X6735356Y-8102144D01*
X6664644Y-8102144D01*
X6664644Y-8172856D01*
X6735356Y-8172856D01*
X6735356Y-8426856D02*
X6735356Y-8356144D01*
X6664644Y-8356144D01*
X6664644Y-8426856D01*
X6735356Y-8426856D01*
X6735356Y-8680856D02*
X6735356Y-8610144D01*
X6664644Y-8610144D01*
X6664644Y-8680856D01*
X6735356Y-8680856D01*
X6735356Y-8934856D02*
X6735356Y-8864144D01*
X6664644Y-8864144D01*
X6664644Y-8934856D01*
X6735356Y-8934856D01*
X6735356Y-9188856D02*
X6735356Y-9118144D01*
X6664644Y-9118144D01*
X6664644Y-9188856D01*
X6735356Y-9188856D01*
X6735356Y-9442856D02*
X6735356Y-9372144D01*
X6664644Y-9372144D01*
X6664644Y-9442856D01*
X6735356Y-9442856D01*
X6735356Y-9696856D02*
X6735356Y-9626144D01*
X6664644Y-9626144D01*
X6664644Y-9696856D01*
X6735356Y-9696856D01*
X6735356Y-10073356D02*
X6735356Y-10002644D01*
X6664644Y-10002644D01*
X6664644Y-10073356D01*
X6735356Y-10073356D01*
X6735356Y-10327356D02*
X6735356Y-10256644D01*
X6664644Y-10256644D01*
X6664644Y-10327356D01*
X6735356Y-10327356D01*
X6735356Y-10581356D02*
X6735356Y-10510644D01*
X6664644Y-10510644D01*
X6664644Y-10581356D01*
X6735356Y-10581356D01*
X6735356Y-10835356D02*
X6735356Y-10764644D01*
X6664644Y-10764644D01*
X6664644Y-10835356D01*
X6735356Y-10835356D01*
X7236356Y-7422856D02*
X7236356Y-7352144D01*
X7165644Y-7352144D01*
X7165644Y-7422856D01*
X7236356Y-7422856D01*
X7236356Y-7676856D02*
X7236356Y-7606144D01*
X7165644Y-7606144D01*
X7165644Y-7676856D01*
X7236356Y-7676856D01*
X7236356Y-7930856D02*
X7236356Y-7860144D01*
X7165644Y-7860144D01*
X7165644Y-7930856D01*
X7236356Y-7930856D01*
X7236356Y-8184856D02*
X7236356Y-8114144D01*
X7165644Y-8114144D01*
X7165644Y-8184856D01*
X7236356Y-8184856D01*
X7236356Y-8438856D02*
X7236356Y-8368144D01*
X7165644Y-8368144D01*
X7165644Y-8438856D01*
X7236356Y-8438856D01*
X7236356Y-8692856D02*
X7236356Y-8622144D01*
X7165644Y-8622144D01*
X7165644Y-8692856D01*
X7236356Y-8692856D01*
X7236356Y-8946856D02*
X7236356Y-8876144D01*
X7165644Y-8876144D01*
X7165644Y-8946856D01*
X7236356Y-8946856D01*
X7236356Y-9200856D02*
X7236356Y-9130144D01*
X7165644Y-9130144D01*
X7165644Y-9200856D01*
X7236356Y-9200856D01*
X7236356Y-9454856D02*
X7236356Y-9384144D01*
X7165644Y-9384144D01*
X7165644Y-9454856D01*
X7236356Y-9454856D01*
X7236356Y-9708856D02*
X7236356Y-9638144D01*
X7165644Y-9638144D01*
X7165644Y-9708856D01*
X7236356Y-9708856D01*
X7236356Y-9962856D02*
X7236356Y-9892144D01*
X7165644Y-9892144D01*
X7165644Y-9962856D01*
X7236356Y-9962856D01*
X7236356Y-10216856D02*
X7236356Y-10146144D01*
X7165644Y-10146144D01*
X7165644Y-10216856D01*
X7236356Y-10216856D01*
X7236356Y-10470856D02*
X7236356Y-10400144D01*
X7165644Y-10400144D01*
X7165644Y-10470856D01*
X7236356Y-10470856D01*
X7236356Y-10724856D02*
X7236356Y-10654144D01*
X7165644Y-10654144D01*
X7165644Y-10724856D01*
X7236356Y-10724856D01*
X7236356Y-10978856D02*
X7236356Y-10908144D01*
X7165644Y-10908144D01*
X7165644Y-10978856D01*
X7236356Y-10978856D01*
X7236356Y-11232856D02*
X7236356Y-11162144D01*
X7165644Y-11162144D01*
X7165644Y-11232856D01*
X7236356Y-11232856D01*
X7236356Y-11486856D02*
X7236356Y-11416144D01*
X7165644Y-11416144D01*
X7165644Y-11486856D01*
X7236356Y-11486856D01*
X7236356Y-11740856D02*
X7236356Y-11670144D01*
X7165644Y-11670144D01*
X7165644Y-11740856D01*
X7236356Y-11740856D01*
X7236356Y-11994856D02*
X7236356Y-11924144D01*
X7165644Y-11924144D01*
X7165644Y-11994856D01*
X7236356Y-11994856D01*
X7590856Y-6588856D02*
X7590856Y-6518144D01*
X7520144Y-6518144D01*
X7520144Y-6588856D01*
X7590856Y-6588856D01*
X7844856Y-6588856D02*
X7844856Y-6518144D01*
X7774144Y-6518144D01*
X7774144Y-6588856D01*
X7844856Y-6588856D01*
X8098856Y-6588856D02*
X8098856Y-6518144D01*
X8028144Y-6518144D01*
X8028144Y-6588856D01*
X8098856Y-6588856D01*
X8352856Y-6588856D02*
X8352856Y-6518144D01*
X8282144Y-6518144D01*
X8282144Y-6588856D01*
X8352856Y-6588856D01*
X8606856Y-6588856D02*
X8606856Y-6518144D01*
X8536144Y-6518144D01*
X8536144Y-6588856D01*
X8606856Y-6588856D01*
X8860856Y-6588856D02*
X8860856Y-6518144D01*
X8790144Y-6518144D01*
X8790144Y-6588856D01*
X8860856Y-6588856D01*
X9114856Y-6588856D02*
X9114856Y-6518144D01*
X9044144Y-6518144D01*
X9044144Y-6588856D01*
X9114856Y-6588856D01*
X9368856Y-6588856D02*
X9368856Y-6518144D01*
X9298144Y-6518144D01*
X9298144Y-6588856D01*
X9368856Y-6588856D01*
X9526356Y-7422356D02*
X9526356Y-7351644D01*
X9455644Y-7351644D01*
X9455644Y-7422356D01*
X9526356Y-7422356D01*
X9526356Y-7676356D02*
X9526356Y-7605644D01*
X9455644Y-7605644D01*
X9455644Y-7676356D01*
X9526356Y-7676356D01*
X9526356Y-7930356D02*
X9526356Y-7859644D01*
X9455644Y-7859644D01*
X9455644Y-7930356D01*
X9526356Y-7930356D01*
X9526356Y-8184356D02*
X9526356Y-8113644D01*
X9455644Y-8113644D01*
X9455644Y-8184356D01*
X9526356Y-8184356D01*
X9526356Y-8438356D02*
X9526356Y-8367644D01*
X9455644Y-8367644D01*
X9455644Y-8438356D01*
X9526356Y-8438356D01*
X9526356Y-8692356D02*
X9526356Y-8621644D01*
X9455644Y-8621644D01*
X9455644Y-8692356D01*
X9526356Y-8692356D01*
X9526356Y-8946356D02*
X9526356Y-8875644D01*
X9455644Y-8875644D01*
X9455644Y-8946356D01*
X9526356Y-8946356D01*
X9526356Y-9200356D02*
X9526356Y-9129644D01*
X9455644Y-9129644D01*
X9455644Y-9200356D01*
X9526356Y-9200356D01*
X9526356Y-9454356D02*
X9526356Y-9383644D01*
X9455644Y-9383644D01*
X9455644Y-9454356D01*
X9526356Y-9454356D01*
X9526356Y-9708356D02*
X9526356Y-9637644D01*
X9455644Y-9637644D01*
X9455644Y-9708356D01*
X9526356Y-9708356D01*
X9526356Y-9962356D02*
X9526356Y-9891644D01*
X9455644Y-9891644D01*
X9455644Y-9962356D01*
X9526356Y-9962356D01*
X9526356Y-10216356D02*
X9526356Y-10145644D01*
X9455644Y-10145644D01*
X9455644Y-10216356D01*
X9526356Y-10216356D01*
X9526356Y-10470356D02*
X9526356Y-10399644D01*
X9455644Y-10399644D01*
X9455644Y-10470356D01*
X9526356Y-10470356D01*
X9526356Y-10724356D02*
X9526356Y-10653644D01*
X9455644Y-10653644D01*
X9455644Y-10724356D01*
X9526356Y-10724356D01*
X9526356Y-10978356D02*
X9526356Y-10907644D01*
X9455644Y-10907644D01*
X9455644Y-10978356D01*
X9526356Y-10978356D01*
X9526356Y-11232356D02*
X9526356Y-11161644D01*
X9455644Y-11161644D01*
X9455644Y-11232356D01*
X9526356Y-11232356D01*
X9526356Y-11486356D02*
X9526356Y-11415644D01*
X9455644Y-11415644D01*
X9455644Y-11486356D01*
X9526356Y-11486356D01*
X9526356Y-11740356D02*
X9526356Y-11669644D01*
X9455644Y-11669644D01*
X9455644Y-11740356D01*
X9526356Y-11740356D01*
X9526356Y-11994356D02*
X9526356Y-11923644D01*
X9455644Y-11923644D01*
X9455644Y-11994356D01*
X9526356Y-11994356D01*
X10172356Y-6619356D02*
X10172356Y-6548644D01*
X10101644Y-6548644D01*
X10101644Y-6619356D01*
X10172356Y-6619356D01*
X10172356Y-6873356D02*
X10172356Y-6802644D01*
X10101644Y-6802644D01*
X10101644Y-6873356D01*
X10172356Y-6873356D01*
X10172356Y-7127356D02*
X10172356Y-7056644D01*
X10101644Y-7056644D01*
X10101644Y-7127356D01*
X10172356Y-7127356D01*
X10172356Y-7381356D02*
X10172356Y-7310644D01*
X10101644Y-7310644D01*
X10101644Y-7381356D01*
X10172356Y-7381356D01*
X10172356Y-7635356D02*
X10172356Y-7564644D01*
X10101644Y-7564644D01*
X10101644Y-7635356D01*
X10172356Y-7635356D01*
X10172356Y-7889356D02*
X10172356Y-7818644D01*
X10101644Y-7818644D01*
X10101644Y-7889356D01*
X10172356Y-7889356D01*
X10172356Y-8143356D02*
X10172356Y-8072644D01*
X10101644Y-8072644D01*
X10101644Y-8143356D01*
X10172356Y-8143356D01*
X10172356Y-8397356D02*
X10172356Y-8326644D01*
X10101644Y-8326644D01*
X10101644Y-8397356D01*
X10172356Y-8397356D01*
X10172356Y-8651356D02*
X10172356Y-8580644D01*
X10101644Y-8580644D01*
X10101644Y-8651356D01*
X10172356Y-8651356D01*
X10172356Y-8905356D02*
X10172356Y-8834644D01*
X10101644Y-8834644D01*
X10101644Y-8905356D01*
X10172356Y-8905356D01*
X10172356Y-9159356D02*
X10172356Y-9088644D01*
X10101644Y-9088644D01*
X10101644Y-9159356D01*
X10172356Y-9159356D01*
X10172356Y-9413356D02*
X10172356Y-9342644D01*
X10101644Y-9342644D01*
X10101644Y-9413356D01*
X10172356Y-9413356D01*
X11393856Y-7503856D02*
X11393856Y-7433144D01*
X11323144Y-7433144D01*
X11323144Y-7503856D01*
X11393856Y-7503856D01*
X11647856Y-7503856D02*
X11647856Y-7433144D01*
X11577144Y-7433144D01*
X11577144Y-7503856D01*
X11647856Y-7503856D01*
X12339856Y-5141356D02*
X12339856Y-5070644D01*
X12269144Y-5070644D01*
X12269144Y-5141356D01*
X12339856Y-5141356D01*
X12451356Y-9733434D02*
X12451356Y-9662723D01*
X12380644Y-9662723D01*
X12380644Y-9733434D01*
X12451356Y-9733434D01*
X12451356Y-10233434D02*
X12451356Y-10162723D01*
X12380644Y-10162723D01*
X12380644Y-10233434D01*
X12451356Y-10233434D01*
X12593856Y-5141356D02*
X12593856Y-5070644D01*
X12523144Y-5070644D01*
X12523144Y-5141356D01*
X12593856Y-5141356D01*
D12*
X5126000Y-4686000D02*
X5191000Y-4621000D01*
X5126000Y-4556000D01*
X5061000Y-4621000D01*
X5126000Y-4686000D01*
X5126000Y-5886000D02*
X5191000Y-5821000D01*
X5126000Y-5756000D01*
X5061000Y-5821000D01*
X5126000Y-5886000D01*
X6346000Y-4686000D02*
X6411000Y-4621000D01*
X6346000Y-4556000D01*
X6281000Y-4621000D01*
X6346000Y-4686000D01*
X6346000Y-5886000D02*
X6411000Y-5821000D01*
X6346000Y-5756000D01*
X6281000Y-5821000D01*
X6346000Y-5886000D01*
X6546000Y-5286000D02*
X6611000Y-5221000D01*
X6546000Y-5156000D01*
X6481000Y-5221000D01*
X6546000Y-5286000D01*
D13*
X3825000Y-8115000D02*
X3975000Y-8265000D01*
X3975000Y-8115000D02*
X3825000Y-8265000D01*
X3975000Y-8190000D02*
G75*
G02*
X3825000Y-8190000I-75000J0D01*
G01*
X3825000Y-8190000D02*
G75*
G02*
X3975000Y-8190000I75000J0D01*
G01*
X3825000Y-8935000D02*
X3975000Y-9085000D01*
X3975000Y-8935000D02*
X3825000Y-9085000D01*
X3975000Y-9010000D02*
G75*
G02*
X3825000Y-9010000I-75000J0D01*
G01*
X3825000Y-9010000D02*
G75*
G02*
X3975000Y-9010000I75000J0D01*
G01*
D14*
X3924000Y-5308000D02*
X4076000Y-5460000D01*
X4076000Y-5308000D02*
X3924000Y-5460000D01*
X4000000Y-5308000D02*
X4000000Y-5460000D01*
X3924000Y-5384000D02*
X4076000Y-5384000D01*
X3924000Y-5816000D02*
X4076000Y-5968000D01*
X4076000Y-5816000D02*
X3924000Y-5968000D01*
X4000000Y-5816000D02*
X4000000Y-5968000D01*
X3924000Y-5892000D02*
X4076000Y-5892000D01*
X3924000Y-6324000D02*
X4076000Y-6476000D01*
X4076000Y-6324000D02*
X3924000Y-6476000D01*
X4000000Y-6324000D02*
X4000000Y-6476000D01*
X3924000Y-6400000D02*
X4076000Y-6400000D01*
X3924000Y-9626000D02*
X4076000Y-9778000D01*
X4076000Y-9626000D02*
X3924000Y-9778000D01*
X4000000Y-9626000D02*
X4000000Y-9778000D01*
X3924000Y-9702000D02*
X4076000Y-9702000D01*
X3924000Y-10134000D02*
X4076000Y-10286000D01*
X4076000Y-10134000D02*
X3924000Y-10286000D01*
X4000000Y-10134000D02*
X4000000Y-10286000D01*
X3924000Y-10210000D02*
X4076000Y-10210000D01*
D15*
X3537500Y-4437500D02*
X3862500Y-4762500D01*
X3862500Y-4437500D02*
X3537500Y-4762500D01*
X3814906Y-4714906D02*
X3814906Y-4485094D01*
X3585094Y-4485094D01*
X3585094Y-4714906D01*
X3814906Y-4714906D01*
X3537500Y-11637500D02*
X3862500Y-11962500D01*
X3862500Y-11637500D02*
X3537500Y-11962500D01*
X3814906Y-11914906D02*
X3814906Y-11685094D01*
X3585094Y-11685094D01*
X3585094Y-11914906D01*
X3814906Y-11914906D01*
X12737500Y-4437500D02*
X13062500Y-4762500D01*
X13062500Y-4437500D02*
X12737500Y-4762500D01*
X13014906Y-4714906D02*
X13014906Y-4485094D01*
X12785094Y-4485094D01*
X12785094Y-4714906D01*
X13014906Y-4714906D01*
X12737500Y-11637500D02*
X13062500Y-11962500D01*
X13062500Y-11637500D02*
X12737500Y-11962500D01*
X13014906Y-11914906D02*
X13014906Y-11685094D01*
X12785094Y-11685094D01*
X12785094Y-11914906D01*
X13014906Y-11914906D01*
D11*
X3555777Y-12516484D02*
X3555777Y-12316484D01*
X3555777Y-12316484D02*
X3603396Y-12316484D01*
X3603396Y-12316484D02*
X3631967Y-12326008D01*
X3631967Y-12326008D02*
X3651015Y-12345055D01*
X3651015Y-12345055D02*
X3660539Y-12364103D01*
X3660539Y-12364103D02*
X3670062Y-12402198D01*
X3670062Y-12402198D02*
X3670062Y-12430769D01*
X3670062Y-12430769D02*
X3660539Y-12468865D01*
X3660539Y-12468865D02*
X3651015Y-12487912D01*
X3651015Y-12487912D02*
X3631967Y-12506960D01*
X3631967Y-12506960D02*
X3603396Y-12516484D01*
X3603396Y-12516484D02*
X3555777Y-12516484D01*
X3755777Y-12516484D02*
X3755777Y-12383150D01*
X3755777Y-12421246D02*
X3765301Y-12402198D01*
X3765301Y-12402198D02*
X3774824Y-12392674D01*
X3774824Y-12392674D02*
X3793872Y-12383150D01*
X3793872Y-12383150D02*
X3812920Y-12383150D01*
X3879586Y-12516484D02*
X3879586Y-12383150D01*
X3879586Y-12316484D02*
X3870062Y-12326008D01*
X3870062Y-12326008D02*
X3879586Y-12335531D01*
X3879586Y-12335531D02*
X3889110Y-12326008D01*
X3889110Y-12326008D02*
X3879586Y-12316484D01*
X3879586Y-12316484D02*
X3879586Y-12335531D01*
X4003396Y-12516484D02*
X3984348Y-12506960D01*
X3984348Y-12506960D02*
X3974824Y-12487912D01*
X3974824Y-12487912D02*
X3974824Y-12316484D01*
X4108158Y-12516484D02*
X4089110Y-12506960D01*
X4089110Y-12506960D02*
X4079586Y-12487912D01*
X4079586Y-12487912D02*
X4079586Y-12316484D01*
X4336729Y-12516484D02*
X4336729Y-12316484D01*
X4336729Y-12316484D02*
X4403396Y-12459341D01*
X4403396Y-12459341D02*
X4470063Y-12316484D01*
X4470063Y-12316484D02*
X4470063Y-12516484D01*
X4651015Y-12516484D02*
X4651015Y-12411722D01*
X4651015Y-12411722D02*
X4641491Y-12392674D01*
X4641491Y-12392674D02*
X4622444Y-12383150D01*
X4622444Y-12383150D02*
X4584348Y-12383150D01*
X4584348Y-12383150D02*
X4565301Y-12392674D01*
X4651015Y-12506960D02*
X4631967Y-12516484D01*
X4631967Y-12516484D02*
X4584348Y-12516484D01*
X4584348Y-12516484D02*
X4565301Y-12506960D01*
X4565301Y-12506960D02*
X4555777Y-12487912D01*
X4555777Y-12487912D02*
X4555777Y-12468865D01*
X4555777Y-12468865D02*
X4565301Y-12449817D01*
X4565301Y-12449817D02*
X4584348Y-12440293D01*
X4584348Y-12440293D02*
X4631967Y-12440293D01*
X4631967Y-12440293D02*
X4651015Y-12430769D01*
X4746253Y-12383150D02*
X4746253Y-12583150D01*
X4746253Y-12392674D02*
X4765301Y-12383150D01*
X4765301Y-12383150D02*
X4803396Y-12383150D01*
X4803396Y-12383150D02*
X4822444Y-12392674D01*
X4822444Y-12392674D02*
X4831967Y-12402198D01*
X4831967Y-12402198D02*
X4841491Y-12421246D01*
X4841491Y-12421246D02*
X4841491Y-12478388D01*
X4841491Y-12478388D02*
X4831967Y-12497436D01*
X4831967Y-12497436D02*
X4822444Y-12506960D01*
X4822444Y-12506960D02*
X4803396Y-12516484D01*
X4803396Y-12516484D02*
X4765301Y-12516484D01*
X4765301Y-12516484D02*
X4746253Y-12506960D01*
X4927205Y-12497436D02*
X4936729Y-12506960D01*
X4936729Y-12506960D02*
X4927205Y-12516484D01*
X4927205Y-12516484D02*
X4917682Y-12506960D01*
X4917682Y-12506960D02*
X4927205Y-12497436D01*
X4927205Y-12497436D02*
X4927205Y-12516484D01*
X4927205Y-12392674D02*
X4936729Y-12402198D01*
X4936729Y-12402198D02*
X4927205Y-12411722D01*
X4927205Y-12411722D02*
X4917682Y-12402198D01*
X4917682Y-12402198D02*
X4927205Y-12392674D01*
X4927205Y-12392674D02*
X4927205Y-12411722D01*
D10*
X3255000Y-12825000D02*
X3295000Y-12865000D01*
X3295000Y-12825000D02*
X3255000Y-12865000D01*
D11*
X3593872Y-12736484D02*
X3612920Y-12736484D01*
X3612920Y-12736484D02*
X3631967Y-12746008D01*
X3631967Y-12746008D02*
X3641491Y-12755531D01*
X3641491Y-12755531D02*
X3651015Y-12774579D01*
X3651015Y-12774579D02*
X3660539Y-12812674D01*
X3660539Y-12812674D02*
X3660539Y-12860293D01*
X3660539Y-12860293D02*
X3651015Y-12898388D01*
X3651015Y-12898388D02*
X3641491Y-12917436D01*
X3641491Y-12917436D02*
X3631967Y-12926960D01*
X3631967Y-12926960D02*
X3612920Y-12936484D01*
X3612920Y-12936484D02*
X3593872Y-12936484D01*
X3593872Y-12936484D02*
X3574824Y-12926960D01*
X3574824Y-12926960D02*
X3565301Y-12917436D01*
X3565301Y-12917436D02*
X3555777Y-12898388D01*
X3555777Y-12898388D02*
X3546253Y-12860293D01*
X3546253Y-12860293D02*
X3546253Y-12812674D01*
X3546253Y-12812674D02*
X3555777Y-12774579D01*
X3555777Y-12774579D02*
X3565301Y-12755531D01*
X3565301Y-12755531D02*
X3574824Y-12746008D01*
X3574824Y-12746008D02*
X3593872Y-12736484D01*
X3746253Y-12917436D02*
X3755777Y-12926960D01*
X3755777Y-12926960D02*
X3746253Y-12936484D01*
X3746253Y-12936484D02*
X3736729Y-12926960D01*
X3736729Y-12926960D02*
X3746253Y-12917436D01*
X3746253Y-12917436D02*
X3746253Y-12936484D01*
X3927205Y-12803150D02*
X3927205Y-12936484D01*
X3879586Y-12726960D02*
X3831967Y-12869817D01*
X3831967Y-12869817D02*
X3955777Y-12869817D01*
X4070062Y-12736484D02*
X4089110Y-12736484D01*
X4089110Y-12736484D02*
X4108158Y-12746008D01*
X4108158Y-12746008D02*
X4117682Y-12755531D01*
X4117682Y-12755531D02*
X4127205Y-12774579D01*
X4127205Y-12774579D02*
X4136729Y-12812674D01*
X4136729Y-12812674D02*
X4136729Y-12860293D01*
X4136729Y-12860293D02*
X4127205Y-12898388D01*
X4127205Y-12898388D02*
X4117682Y-12917436D01*
X4117682Y-12917436D02*
X4108158Y-12926960D01*
X4108158Y-12926960D02*
X4089110Y-12936484D01*
X4089110Y-12936484D02*
X4070062Y-12936484D01*
X4070062Y-12936484D02*
X4051015Y-12926960D01*
X4051015Y-12926960D02*
X4041491Y-12917436D01*
X4041491Y-12917436D02*
X4031967Y-12898388D01*
X4031967Y-12898388D02*
X4022443Y-12860293D01*
X4022443Y-12860293D02*
X4022443Y-12812674D01*
X4022443Y-12812674D02*
X4031967Y-12774579D01*
X4031967Y-12774579D02*
X4041491Y-12755531D01*
X4041491Y-12755531D02*
X4051015Y-12746008D01*
X4051015Y-12746008D02*
X4070062Y-12736484D01*
X4260539Y-12736484D02*
X4279586Y-12736484D01*
X4279586Y-12736484D02*
X4298634Y-12746008D01*
X4298634Y-12746008D02*
X4308158Y-12755531D01*
X4308158Y-12755531D02*
X4317682Y-12774579D01*
X4317682Y-12774579D02*
X4327205Y-12812674D01*
X4327205Y-12812674D02*
X4327205Y-12860293D01*
X4327205Y-12860293D02*
X4317682Y-12898388D01*
X4317682Y-12898388D02*
X4308158Y-12917436D01*
X4308158Y-12917436D02*
X4298634Y-12926960D01*
X4298634Y-12926960D02*
X4279586Y-12936484D01*
X4279586Y-12936484D02*
X4260539Y-12936484D01*
X4260539Y-12936484D02*
X4241491Y-12926960D01*
X4241491Y-12926960D02*
X4231967Y-12917436D01*
X4231967Y-12917436D02*
X4222444Y-12898388D01*
X4222444Y-12898388D02*
X4212920Y-12860293D01*
X4212920Y-12860293D02*
X4212920Y-12812674D01*
X4212920Y-12812674D02*
X4222444Y-12774579D01*
X4222444Y-12774579D02*
X4231967Y-12755531D01*
X4231967Y-12755531D02*
X4241491Y-12746008D01*
X4241491Y-12746008D02*
X4260539Y-12736484D01*
X4412920Y-12936484D02*
X4412920Y-12803150D01*
X4412920Y-12822198D02*
X4422444Y-12812674D01*
X4422444Y-12812674D02*
X4441491Y-12803150D01*
X4441491Y-12803150D02*
X4470063Y-12803150D01*
X4470063Y-12803150D02*
X4489110Y-12812674D01*
X4489110Y-12812674D02*
X4498634Y-12831722D01*
X4498634Y-12831722D02*
X4498634Y-12936484D01*
X4498634Y-12831722D02*
X4508158Y-12812674D01*
X4508158Y-12812674D02*
X4527205Y-12803150D01*
X4527205Y-12803150D02*
X4555777Y-12803150D01*
X4555777Y-12803150D02*
X4574825Y-12812674D01*
X4574825Y-12812674D02*
X4584348Y-12831722D01*
X4584348Y-12831722D02*
X4584348Y-12936484D01*
X4679586Y-12936484D02*
X4679586Y-12803150D01*
X4679586Y-12822198D02*
X4689110Y-12812674D01*
X4689110Y-12812674D02*
X4708158Y-12803150D01*
X4708158Y-12803150D02*
X4736729Y-12803150D01*
X4736729Y-12803150D02*
X4755777Y-12812674D01*
X4755777Y-12812674D02*
X4765301Y-12831722D01*
X4765301Y-12831722D02*
X4765301Y-12936484D01*
X4765301Y-12831722D02*
X4774825Y-12812674D01*
X4774825Y-12812674D02*
X4793872Y-12803150D01*
X4793872Y-12803150D02*
X4822444Y-12803150D01*
X4822444Y-12803150D02*
X4841491Y-12812674D01*
X4841491Y-12812674D02*
X4851015Y-12831722D01*
X4851015Y-12831722D02*
X4851015Y-12936484D01*
X5241491Y-12726960D02*
X5070063Y-12984103D01*
X5498634Y-12736484D02*
X5517682Y-12736484D01*
X5517682Y-12736484D02*
X5536729Y-12746008D01*
X5536729Y-12746008D02*
X5546253Y-12755531D01*
X5546253Y-12755531D02*
X5555777Y-12774579D01*
X5555777Y-12774579D02*
X5565301Y-12812674D01*
X5565301Y-12812674D02*
X5565301Y-12860293D01*
X5565301Y-12860293D02*
X5555777Y-12898388D01*
X5555777Y-12898388D02*
X5546253Y-12917436D01*
X5546253Y-12917436D02*
X5536729Y-12926960D01*
X5536729Y-12926960D02*
X5517682Y-12936484D01*
X5517682Y-12936484D02*
X5498634Y-12936484D01*
X5498634Y-12936484D02*
X5479587Y-12926960D01*
X5479587Y-12926960D02*
X5470063Y-12917436D01*
X5470063Y-12917436D02*
X5460539Y-12898388D01*
X5460539Y-12898388D02*
X5451015Y-12860293D01*
X5451015Y-12860293D02*
X5451015Y-12812674D01*
X5451015Y-12812674D02*
X5460539Y-12774579D01*
X5460539Y-12774579D02*
X5470063Y-12755531D01*
X5470063Y-12755531D02*
X5479587Y-12746008D01*
X5479587Y-12746008D02*
X5498634Y-12736484D01*
X5651015Y-12917436D02*
X5660539Y-12926960D01*
X5660539Y-12926960D02*
X5651015Y-12936484D01*
X5651015Y-12936484D02*
X5641491Y-12926960D01*
X5641491Y-12926960D02*
X5651015Y-12917436D01*
X5651015Y-12917436D02*
X5651015Y-12936484D01*
X5784348Y-12736484D02*
X5803396Y-12736484D01*
X5803396Y-12736484D02*
X5822444Y-12746008D01*
X5822444Y-12746008D02*
X5831967Y-12755531D01*
X5831967Y-12755531D02*
X5841491Y-12774579D01*
X5841491Y-12774579D02*
X5851015Y-12812674D01*
X5851015Y-12812674D02*
X5851015Y-12860293D01*
X5851015Y-12860293D02*
X5841491Y-12898388D01*
X5841491Y-12898388D02*
X5831967Y-12917436D01*
X5831967Y-12917436D02*
X5822444Y-12926960D01*
X5822444Y-12926960D02*
X5803396Y-12936484D01*
X5803396Y-12936484D02*
X5784348Y-12936484D01*
X5784348Y-12936484D02*
X5765301Y-12926960D01*
X5765301Y-12926960D02*
X5755777Y-12917436D01*
X5755777Y-12917436D02*
X5746253Y-12898388D01*
X5746253Y-12898388D02*
X5736729Y-12860293D01*
X5736729Y-12860293D02*
X5736729Y-12812674D01*
X5736729Y-12812674D02*
X5746253Y-12774579D01*
X5746253Y-12774579D02*
X5755777Y-12755531D01*
X5755777Y-12755531D02*
X5765301Y-12746008D01*
X5765301Y-12746008D02*
X5784348Y-12736484D01*
X6041491Y-12936484D02*
X5927206Y-12936484D01*
X5984348Y-12936484D02*
X5984348Y-12736484D01*
X5984348Y-12736484D02*
X5965301Y-12765055D01*
X5965301Y-12765055D02*
X5946253Y-12784103D01*
X5946253Y-12784103D02*
X5927206Y-12793627D01*
X6222444Y-12736484D02*
X6127206Y-12736484D01*
X6127206Y-12736484D02*
X6117682Y-12831722D01*
X6117682Y-12831722D02*
X6127206Y-12822198D01*
X6127206Y-12822198D02*
X6146253Y-12812674D01*
X6146253Y-12812674D02*
X6193872Y-12812674D01*
X6193872Y-12812674D02*
X6212920Y-12822198D01*
X6212920Y-12822198D02*
X6222444Y-12831722D01*
X6222444Y-12831722D02*
X6231967Y-12850769D01*
X6231967Y-12850769D02*
X6231967Y-12898388D01*
X6231967Y-12898388D02*
X6222444Y-12917436D01*
X6222444Y-12917436D02*
X6212920Y-12926960D01*
X6212920Y-12926960D02*
X6193872Y-12936484D01*
X6193872Y-12936484D02*
X6146253Y-12936484D01*
X6146253Y-12936484D02*
X6127206Y-12926960D01*
X6127206Y-12926960D02*
X6117682Y-12917436D01*
X6298634Y-12736484D02*
X6431967Y-12736484D01*
X6431967Y-12736484D02*
X6346253Y-12936484D01*
X6498634Y-12736484D02*
X6498634Y-12774579D01*
X6574825Y-12736484D02*
X6574825Y-12774579D01*
X6870063Y-13012674D02*
X6860539Y-13003150D01*
X6860539Y-13003150D02*
X6841491Y-12974579D01*
X6841491Y-12974579D02*
X6831968Y-12955531D01*
X6831968Y-12955531D02*
X6822444Y-12926960D01*
X6822444Y-12926960D02*
X6812920Y-12879341D01*
X6812920Y-12879341D02*
X6812920Y-12841246D01*
X6812920Y-12841246D02*
X6822444Y-12793627D01*
X6822444Y-12793627D02*
X6831968Y-12765055D01*
X6831968Y-12765055D02*
X6841491Y-12746008D01*
X6841491Y-12746008D02*
X6860539Y-12717436D01*
X6860539Y-12717436D02*
X6870063Y-12707912D01*
X7031968Y-12803150D02*
X7031968Y-12936484D01*
X6984348Y-12726960D02*
X6936729Y-12869817D01*
X6936729Y-12869817D02*
X7060539Y-12869817D01*
X7127206Y-12755531D02*
X7136729Y-12746008D01*
X7136729Y-12746008D02*
X7155777Y-12736484D01*
X7155777Y-12736484D02*
X7203396Y-12736484D01*
X7203396Y-12736484D02*
X7222444Y-12746008D01*
X7222444Y-12746008D02*
X7231968Y-12755531D01*
X7231968Y-12755531D02*
X7241491Y-12774579D01*
X7241491Y-12774579D02*
X7241491Y-12793627D01*
X7241491Y-12793627D02*
X7231968Y-12822198D01*
X7231968Y-12822198D02*
X7117682Y-12936484D01*
X7117682Y-12936484D02*
X7241491Y-12936484D01*
X7479587Y-12936484D02*
X7479587Y-12736484D01*
X7565301Y-12936484D02*
X7565301Y-12831722D01*
X7565301Y-12831722D02*
X7555777Y-12812674D01*
X7555777Y-12812674D02*
X7536730Y-12803150D01*
X7536730Y-12803150D02*
X7508158Y-12803150D01*
X7508158Y-12803150D02*
X7489110Y-12812674D01*
X7489110Y-12812674D02*
X7479587Y-12822198D01*
X7689110Y-12936484D02*
X7670063Y-12926960D01*
X7670063Y-12926960D02*
X7660539Y-12917436D01*
X7660539Y-12917436D02*
X7651015Y-12898388D01*
X7651015Y-12898388D02*
X7651015Y-12841246D01*
X7651015Y-12841246D02*
X7660539Y-12822198D01*
X7660539Y-12822198D02*
X7670063Y-12812674D01*
X7670063Y-12812674D02*
X7689110Y-12803150D01*
X7689110Y-12803150D02*
X7717682Y-12803150D01*
X7717682Y-12803150D02*
X7736730Y-12812674D01*
X7736730Y-12812674D02*
X7746253Y-12822198D01*
X7746253Y-12822198D02*
X7755777Y-12841246D01*
X7755777Y-12841246D02*
X7755777Y-12898388D01*
X7755777Y-12898388D02*
X7746253Y-12917436D01*
X7746253Y-12917436D02*
X7736730Y-12926960D01*
X7736730Y-12926960D02*
X7717682Y-12936484D01*
X7717682Y-12936484D02*
X7689110Y-12936484D01*
X7870063Y-12936484D02*
X7851015Y-12926960D01*
X7851015Y-12926960D02*
X7841491Y-12907912D01*
X7841491Y-12907912D02*
X7841491Y-12736484D01*
X8022444Y-12926960D02*
X8003396Y-12936484D01*
X8003396Y-12936484D02*
X7965301Y-12936484D01*
X7965301Y-12936484D02*
X7946253Y-12926960D01*
X7946253Y-12926960D02*
X7936730Y-12907912D01*
X7936730Y-12907912D02*
X7936730Y-12831722D01*
X7936730Y-12831722D02*
X7946253Y-12812674D01*
X7946253Y-12812674D02*
X7965301Y-12803150D01*
X7965301Y-12803150D02*
X8003396Y-12803150D01*
X8003396Y-12803150D02*
X8022444Y-12812674D01*
X8022444Y-12812674D02*
X8031968Y-12831722D01*
X8031968Y-12831722D02*
X8031968Y-12850769D01*
X8031968Y-12850769D02*
X7936730Y-12869817D01*
X8108158Y-12926960D02*
X8127206Y-12936484D01*
X8127206Y-12936484D02*
X8165301Y-12936484D01*
X8165301Y-12936484D02*
X8184349Y-12926960D01*
X8184349Y-12926960D02*
X8193872Y-12907912D01*
X8193872Y-12907912D02*
X8193872Y-12898388D01*
X8193872Y-12898388D02*
X8184349Y-12879341D01*
X8184349Y-12879341D02*
X8165301Y-12869817D01*
X8165301Y-12869817D02*
X8136730Y-12869817D01*
X8136730Y-12869817D02*
X8117682Y-12860293D01*
X8117682Y-12860293D02*
X8108158Y-12841246D01*
X8108158Y-12841246D02*
X8108158Y-12831722D01*
X8108158Y-12831722D02*
X8117682Y-12812674D01*
X8117682Y-12812674D02*
X8136730Y-12803150D01*
X8136730Y-12803150D02*
X8165301Y-12803150D01*
X8165301Y-12803150D02*
X8184349Y-12812674D01*
X8260539Y-13012674D02*
X8270063Y-13003150D01*
X8270063Y-13003150D02*
X8289111Y-12974579D01*
X8289111Y-12974579D02*
X8298634Y-12955531D01*
X8298634Y-12955531D02*
X8308158Y-12926960D01*
X8308158Y-12926960D02*
X8317682Y-12879341D01*
X8317682Y-12879341D02*
X8317682Y-12841246D01*
X8317682Y-12841246D02*
X8308158Y-12793627D01*
X8308158Y-12793627D02*
X8298634Y-12765055D01*
X8298634Y-12765055D02*
X8289111Y-12746008D01*
X8289111Y-12746008D02*
X8270063Y-12717436D01*
X8270063Y-12717436D02*
X8260539Y-12707912D01*
D10*
X3295000Y-13109000D02*
G75*
G02*
X3220000Y-13109000I-37500J0D01*
G01*
X3220000Y-13109000D02*
G75*
G02*
X3295000Y-13109000I37500J0D01*
G01*
D11*
X3593872Y-13000484D02*
X3612920Y-13000484D01*
X3612920Y-13000484D02*
X3631967Y-13010008D01*
X3631967Y-13010008D02*
X3641491Y-13019531D01*
X3641491Y-13019531D02*
X3651015Y-13038579D01*
X3651015Y-13038579D02*
X3660539Y-13076674D01*
X3660539Y-13076674D02*
X3660539Y-13124293D01*
X3660539Y-13124293D02*
X3651015Y-13162388D01*
X3651015Y-13162388D02*
X3641491Y-13181436D01*
X3641491Y-13181436D02*
X3631967Y-13190960D01*
X3631967Y-13190960D02*
X3612920Y-13200484D01*
X3612920Y-13200484D02*
X3593872Y-13200484D01*
X3593872Y-13200484D02*
X3574824Y-13190960D01*
X3574824Y-13190960D02*
X3565301Y-13181436D01*
X3565301Y-13181436D02*
X3555777Y-13162388D01*
X3555777Y-13162388D02*
X3546253Y-13124293D01*
X3546253Y-13124293D02*
X3546253Y-13076674D01*
X3546253Y-13076674D02*
X3555777Y-13038579D01*
X3555777Y-13038579D02*
X3565301Y-13019531D01*
X3565301Y-13019531D02*
X3574824Y-13010008D01*
X3574824Y-13010008D02*
X3593872Y-13000484D01*
X3746253Y-13181436D02*
X3755777Y-13190960D01*
X3755777Y-13190960D02*
X3746253Y-13200484D01*
X3746253Y-13200484D02*
X3736729Y-13190960D01*
X3736729Y-13190960D02*
X3746253Y-13181436D01*
X3746253Y-13181436D02*
X3746253Y-13200484D01*
X3822443Y-13000484D02*
X3955777Y-13000484D01*
X3955777Y-13000484D02*
X3870062Y-13200484D01*
X4127205Y-13000484D02*
X4031967Y-13000484D01*
X4031967Y-13000484D02*
X4022443Y-13095722D01*
X4022443Y-13095722D02*
X4031967Y-13086198D01*
X4031967Y-13086198D02*
X4051015Y-13076674D01*
X4051015Y-13076674D02*
X4098634Y-13076674D01*
X4098634Y-13076674D02*
X4117682Y-13086198D01*
X4117682Y-13086198D02*
X4127205Y-13095722D01*
X4127205Y-13095722D02*
X4136729Y-13114769D01*
X4136729Y-13114769D02*
X4136729Y-13162388D01*
X4136729Y-13162388D02*
X4127205Y-13181436D01*
X4127205Y-13181436D02*
X4117682Y-13190960D01*
X4117682Y-13190960D02*
X4098634Y-13200484D01*
X4098634Y-13200484D02*
X4051015Y-13200484D01*
X4051015Y-13200484D02*
X4031967Y-13190960D01*
X4031967Y-13190960D02*
X4022443Y-13181436D01*
X4260539Y-13000484D02*
X4279586Y-13000484D01*
X4279586Y-13000484D02*
X4298634Y-13010008D01*
X4298634Y-13010008D02*
X4308158Y-13019531D01*
X4308158Y-13019531D02*
X4317682Y-13038579D01*
X4317682Y-13038579D02*
X4327205Y-13076674D01*
X4327205Y-13076674D02*
X4327205Y-13124293D01*
X4327205Y-13124293D02*
X4317682Y-13162388D01*
X4317682Y-13162388D02*
X4308158Y-13181436D01*
X4308158Y-13181436D02*
X4298634Y-13190960D01*
X4298634Y-13190960D02*
X4279586Y-13200484D01*
X4279586Y-13200484D02*
X4260539Y-13200484D01*
X4260539Y-13200484D02*
X4241491Y-13190960D01*
X4241491Y-13190960D02*
X4231967Y-13181436D01*
X4231967Y-13181436D02*
X4222444Y-13162388D01*
X4222444Y-13162388D02*
X4212920Y-13124293D01*
X4212920Y-13124293D02*
X4212920Y-13076674D01*
X4212920Y-13076674D02*
X4222444Y-13038579D01*
X4222444Y-13038579D02*
X4231967Y-13019531D01*
X4231967Y-13019531D02*
X4241491Y-13010008D01*
X4241491Y-13010008D02*
X4260539Y-13000484D01*
X4412920Y-13200484D02*
X4412920Y-13067150D01*
X4412920Y-13086198D02*
X4422444Y-13076674D01*
X4422444Y-13076674D02*
X4441491Y-13067150D01*
X4441491Y-13067150D02*
X4470063Y-13067150D01*
X4470063Y-13067150D02*
X4489110Y-13076674D01*
X4489110Y-13076674D02*
X4498634Y-13095722D01*
X4498634Y-13095722D02*
X4498634Y-13200484D01*
X4498634Y-13095722D02*
X4508158Y-13076674D01*
X4508158Y-13076674D02*
X4527205Y-13067150D01*
X4527205Y-13067150D02*
X4555777Y-13067150D01*
X4555777Y-13067150D02*
X4574825Y-13076674D01*
X4574825Y-13076674D02*
X4584348Y-13095722D01*
X4584348Y-13095722D02*
X4584348Y-13200484D01*
X4679586Y-13200484D02*
X4679586Y-13067150D01*
X4679586Y-13086198D02*
X4689110Y-13076674D01*
X4689110Y-13076674D02*
X4708158Y-13067150D01*
X4708158Y-13067150D02*
X4736729Y-13067150D01*
X4736729Y-13067150D02*
X4755777Y-13076674D01*
X4755777Y-13076674D02*
X4765301Y-13095722D01*
X4765301Y-13095722D02*
X4765301Y-13200484D01*
X4765301Y-13095722D02*
X4774825Y-13076674D01*
X4774825Y-13076674D02*
X4793872Y-13067150D01*
X4793872Y-13067150D02*
X4822444Y-13067150D01*
X4822444Y-13067150D02*
X4841491Y-13076674D01*
X4841491Y-13076674D02*
X4851015Y-13095722D01*
X4851015Y-13095722D02*
X4851015Y-13200484D01*
X5241491Y-12990960D02*
X5070063Y-13248103D01*
X5498634Y-13000484D02*
X5517682Y-13000484D01*
X5517682Y-13000484D02*
X5536729Y-13010008D01*
X5536729Y-13010008D02*
X5546253Y-13019531D01*
X5546253Y-13019531D02*
X5555777Y-13038579D01*
X5555777Y-13038579D02*
X5565301Y-13076674D01*
X5565301Y-13076674D02*
X5565301Y-13124293D01*
X5565301Y-13124293D02*
X5555777Y-13162388D01*
X5555777Y-13162388D02*
X5546253Y-13181436D01*
X5546253Y-13181436D02*
X5536729Y-13190960D01*
X5536729Y-13190960D02*
X5517682Y-13200484D01*
X5517682Y-13200484D02*
X5498634Y-13200484D01*
X5498634Y-13200484D02*
X5479587Y-13190960D01*
X5479587Y-13190960D02*
X5470063Y-13181436D01*
X5470063Y-13181436D02*
X5460539Y-13162388D01*
X5460539Y-13162388D02*
X5451015Y-13124293D01*
X5451015Y-13124293D02*
X5451015Y-13076674D01*
X5451015Y-13076674D02*
X5460539Y-13038579D01*
X5460539Y-13038579D02*
X5470063Y-13019531D01*
X5470063Y-13019531D02*
X5479587Y-13010008D01*
X5479587Y-13010008D02*
X5498634Y-13000484D01*
X5651015Y-13181436D02*
X5660539Y-13190960D01*
X5660539Y-13190960D02*
X5651015Y-13200484D01*
X5651015Y-13200484D02*
X5641491Y-13190960D01*
X5641491Y-13190960D02*
X5651015Y-13181436D01*
X5651015Y-13181436D02*
X5651015Y-13200484D01*
X5784348Y-13000484D02*
X5803396Y-13000484D01*
X5803396Y-13000484D02*
X5822444Y-13010008D01*
X5822444Y-13010008D02*
X5831967Y-13019531D01*
X5831967Y-13019531D02*
X5841491Y-13038579D01*
X5841491Y-13038579D02*
X5851015Y-13076674D01*
X5851015Y-13076674D02*
X5851015Y-13124293D01*
X5851015Y-13124293D02*
X5841491Y-13162388D01*
X5841491Y-13162388D02*
X5831967Y-13181436D01*
X5831967Y-13181436D02*
X5822444Y-13190960D01*
X5822444Y-13190960D02*
X5803396Y-13200484D01*
X5803396Y-13200484D02*
X5784348Y-13200484D01*
X5784348Y-13200484D02*
X5765301Y-13190960D01*
X5765301Y-13190960D02*
X5755777Y-13181436D01*
X5755777Y-13181436D02*
X5746253Y-13162388D01*
X5746253Y-13162388D02*
X5736729Y-13124293D01*
X5736729Y-13124293D02*
X5736729Y-13076674D01*
X5736729Y-13076674D02*
X5746253Y-13038579D01*
X5746253Y-13038579D02*
X5755777Y-13019531D01*
X5755777Y-13019531D02*
X5765301Y-13010008D01*
X5765301Y-13010008D02*
X5784348Y-13000484D01*
X5927206Y-13019531D02*
X5936729Y-13010008D01*
X5936729Y-13010008D02*
X5955777Y-13000484D01*
X5955777Y-13000484D02*
X6003396Y-13000484D01*
X6003396Y-13000484D02*
X6022444Y-13010008D01*
X6022444Y-13010008D02*
X6031967Y-13019531D01*
X6031967Y-13019531D02*
X6041491Y-13038579D01*
X6041491Y-13038579D02*
X6041491Y-13057627D01*
X6041491Y-13057627D02*
X6031967Y-13086198D01*
X6031967Y-13086198D02*
X5917682Y-13200484D01*
X5917682Y-13200484D02*
X6041491Y-13200484D01*
X6136729Y-13200484D02*
X6174825Y-13200484D01*
X6174825Y-13200484D02*
X6193872Y-13190960D01*
X6193872Y-13190960D02*
X6203396Y-13181436D01*
X6203396Y-13181436D02*
X6222444Y-13152865D01*
X6222444Y-13152865D02*
X6231967Y-13114769D01*
X6231967Y-13114769D02*
X6231967Y-13038579D01*
X6231967Y-13038579D02*
X6222444Y-13019531D01*
X6222444Y-13019531D02*
X6212920Y-13010008D01*
X6212920Y-13010008D02*
X6193872Y-13000484D01*
X6193872Y-13000484D02*
X6155777Y-13000484D01*
X6155777Y-13000484D02*
X6136729Y-13010008D01*
X6136729Y-13010008D02*
X6127206Y-13019531D01*
X6127206Y-13019531D02*
X6117682Y-13038579D01*
X6117682Y-13038579D02*
X6117682Y-13086198D01*
X6117682Y-13086198D02*
X6127206Y-13105246D01*
X6127206Y-13105246D02*
X6136729Y-13114769D01*
X6136729Y-13114769D02*
X6155777Y-13124293D01*
X6155777Y-13124293D02*
X6193872Y-13124293D01*
X6193872Y-13124293D02*
X6212920Y-13114769D01*
X6212920Y-13114769D02*
X6222444Y-13105246D01*
X6222444Y-13105246D02*
X6231967Y-13086198D01*
X6412920Y-13000484D02*
X6317682Y-13000484D01*
X6317682Y-13000484D02*
X6308158Y-13095722D01*
X6308158Y-13095722D02*
X6317682Y-13086198D01*
X6317682Y-13086198D02*
X6336729Y-13076674D01*
X6336729Y-13076674D02*
X6384348Y-13076674D01*
X6384348Y-13076674D02*
X6403396Y-13086198D01*
X6403396Y-13086198D02*
X6412920Y-13095722D01*
X6412920Y-13095722D02*
X6422444Y-13114769D01*
X6422444Y-13114769D02*
X6422444Y-13162388D01*
X6422444Y-13162388D02*
X6412920Y-13181436D01*
X6412920Y-13181436D02*
X6403396Y-13190960D01*
X6403396Y-13190960D02*
X6384348Y-13200484D01*
X6384348Y-13200484D02*
X6336729Y-13200484D01*
X6336729Y-13200484D02*
X6317682Y-13190960D01*
X6317682Y-13190960D02*
X6308158Y-13181436D01*
X6498634Y-13000484D02*
X6498634Y-13038579D01*
X6574825Y-13000484D02*
X6574825Y-13038579D01*
X6870063Y-13276674D02*
X6860539Y-13267150D01*
X6860539Y-13267150D02*
X6841491Y-13238579D01*
X6841491Y-13238579D02*
X6831968Y-13219531D01*
X6831968Y-13219531D02*
X6822444Y-13190960D01*
X6822444Y-13190960D02*
X6812920Y-13143341D01*
X6812920Y-13143341D02*
X6812920Y-13105246D01*
X6812920Y-13105246D02*
X6822444Y-13057627D01*
X6822444Y-13057627D02*
X6831968Y-13029055D01*
X6831968Y-13029055D02*
X6841491Y-13010008D01*
X6841491Y-13010008D02*
X6860539Y-12981436D01*
X6860539Y-12981436D02*
X6870063Y-12971912D01*
X6927206Y-13000484D02*
X7051015Y-13000484D01*
X7051015Y-13000484D02*
X6984348Y-13076674D01*
X6984348Y-13076674D02*
X7012920Y-13076674D01*
X7012920Y-13076674D02*
X7031968Y-13086198D01*
X7031968Y-13086198D02*
X7041491Y-13095722D01*
X7041491Y-13095722D02*
X7051015Y-13114769D01*
X7051015Y-13114769D02*
X7051015Y-13162388D01*
X7051015Y-13162388D02*
X7041491Y-13181436D01*
X7041491Y-13181436D02*
X7031968Y-13190960D01*
X7031968Y-13190960D02*
X7012920Y-13200484D01*
X7012920Y-13200484D02*
X6955777Y-13200484D01*
X6955777Y-13200484D02*
X6936729Y-13190960D01*
X6936729Y-13190960D02*
X6927206Y-13181436D01*
X7289110Y-13200484D02*
X7289110Y-13000484D01*
X7374825Y-13200484D02*
X7374825Y-13095722D01*
X7374825Y-13095722D02*
X7365301Y-13076674D01*
X7365301Y-13076674D02*
X7346253Y-13067150D01*
X7346253Y-13067150D02*
X7317682Y-13067150D01*
X7317682Y-13067150D02*
X7298634Y-13076674D01*
X7298634Y-13076674D02*
X7289110Y-13086198D01*
X7498634Y-13200484D02*
X7479587Y-13190960D01*
X7479587Y-13190960D02*
X7470063Y-13181436D01*
X7470063Y-13181436D02*
X7460539Y-13162388D01*
X7460539Y-13162388D02*
X7460539Y-13105246D01*
X7460539Y-13105246D02*
X7470063Y-13086198D01*
X7470063Y-13086198D02*
X7479587Y-13076674D01*
X7479587Y-13076674D02*
X7498634Y-13067150D01*
X7498634Y-13067150D02*
X7527206Y-13067150D01*
X7527206Y-13067150D02*
X7546253Y-13076674D01*
X7546253Y-13076674D02*
X7555777Y-13086198D01*
X7555777Y-13086198D02*
X7565301Y-13105246D01*
X7565301Y-13105246D02*
X7565301Y-13162388D01*
X7565301Y-13162388D02*
X7555777Y-13181436D01*
X7555777Y-13181436D02*
X7546253Y-13190960D01*
X7546253Y-13190960D02*
X7527206Y-13200484D01*
X7527206Y-13200484D02*
X7498634Y-13200484D01*
X7679587Y-13200484D02*
X7660539Y-13190960D01*
X7660539Y-13190960D02*
X7651015Y-13171912D01*
X7651015Y-13171912D02*
X7651015Y-13000484D01*
X7831968Y-13190960D02*
X7812920Y-13200484D01*
X7812920Y-13200484D02*
X7774825Y-13200484D01*
X7774825Y-13200484D02*
X7755777Y-13190960D01*
X7755777Y-13190960D02*
X7746253Y-13171912D01*
X7746253Y-13171912D02*
X7746253Y-13095722D01*
X7746253Y-13095722D02*
X7755777Y-13076674D01*
X7755777Y-13076674D02*
X7774825Y-13067150D01*
X7774825Y-13067150D02*
X7812920Y-13067150D01*
X7812920Y-13067150D02*
X7831968Y-13076674D01*
X7831968Y-13076674D02*
X7841491Y-13095722D01*
X7841491Y-13095722D02*
X7841491Y-13114769D01*
X7841491Y-13114769D02*
X7746253Y-13133817D01*
X7917682Y-13190960D02*
X7936730Y-13200484D01*
X7936730Y-13200484D02*
X7974825Y-13200484D01*
X7974825Y-13200484D02*
X7993872Y-13190960D01*
X7993872Y-13190960D02*
X8003396Y-13171912D01*
X8003396Y-13171912D02*
X8003396Y-13162388D01*
X8003396Y-13162388D02*
X7993872Y-13143341D01*
X7993872Y-13143341D02*
X7974825Y-13133817D01*
X7974825Y-13133817D02*
X7946253Y-13133817D01*
X7946253Y-13133817D02*
X7927206Y-13124293D01*
X7927206Y-13124293D02*
X7917682Y-13105246D01*
X7917682Y-13105246D02*
X7917682Y-13095722D01*
X7917682Y-13095722D02*
X7927206Y-13076674D01*
X7927206Y-13076674D02*
X7946253Y-13067150D01*
X7946253Y-13067150D02*
X7974825Y-13067150D01*
X7974825Y-13067150D02*
X7993872Y-13076674D01*
X8070063Y-13276674D02*
X8079587Y-13267150D01*
X8079587Y-13267150D02*
X8098634Y-13238579D01*
X8098634Y-13238579D02*
X8108158Y-13219531D01*
X8108158Y-13219531D02*
X8117682Y-13190960D01*
X8117682Y-13190960D02*
X8127206Y-13143341D01*
X8127206Y-13143341D02*
X8127206Y-13105246D01*
X8127206Y-13105246D02*
X8117682Y-13057627D01*
X8117682Y-13057627D02*
X8108158Y-13029055D01*
X8108158Y-13029055D02*
X8098634Y-13010008D01*
X8098634Y-13010008D02*
X8079587Y-12981436D01*
X8079587Y-12981436D02*
X8070063Y-12971912D01*
D10*
X3255000Y-13333000D02*
X3255000Y-13413000D01*
X3215000Y-13373000D02*
X3295000Y-13373000D01*
D11*
X3593872Y-13264484D02*
X3612920Y-13264484D01*
X3612920Y-13264484D02*
X3631967Y-13274008D01*
X3631967Y-13274008D02*
X3641491Y-13283531D01*
X3641491Y-13283531D02*
X3651015Y-13302579D01*
X3651015Y-13302579D02*
X3660539Y-13340674D01*
X3660539Y-13340674D02*
X3660539Y-13388293D01*
X3660539Y-13388293D02*
X3651015Y-13426388D01*
X3651015Y-13426388D02*
X3641491Y-13445436D01*
X3641491Y-13445436D02*
X3631967Y-13454960D01*
X3631967Y-13454960D02*
X3612920Y-13464484D01*
X3612920Y-13464484D02*
X3593872Y-13464484D01*
X3593872Y-13464484D02*
X3574824Y-13454960D01*
X3574824Y-13454960D02*
X3565301Y-13445436D01*
X3565301Y-13445436D02*
X3555777Y-13426388D01*
X3555777Y-13426388D02*
X3546253Y-13388293D01*
X3546253Y-13388293D02*
X3546253Y-13340674D01*
X3546253Y-13340674D02*
X3555777Y-13302579D01*
X3555777Y-13302579D02*
X3565301Y-13283531D01*
X3565301Y-13283531D02*
X3574824Y-13274008D01*
X3574824Y-13274008D02*
X3593872Y-13264484D01*
X3746253Y-13445436D02*
X3755777Y-13454960D01*
X3755777Y-13454960D02*
X3746253Y-13464484D01*
X3746253Y-13464484D02*
X3736729Y-13454960D01*
X3736729Y-13454960D02*
X3746253Y-13445436D01*
X3746253Y-13445436D02*
X3746253Y-13464484D01*
X3870062Y-13350198D02*
X3851015Y-13340674D01*
X3851015Y-13340674D02*
X3841491Y-13331150D01*
X3841491Y-13331150D02*
X3831967Y-13312103D01*
X3831967Y-13312103D02*
X3831967Y-13302579D01*
X3831967Y-13302579D02*
X3841491Y-13283531D01*
X3841491Y-13283531D02*
X3851015Y-13274008D01*
X3851015Y-13274008D02*
X3870062Y-13264484D01*
X3870062Y-13264484D02*
X3908158Y-13264484D01*
X3908158Y-13264484D02*
X3927205Y-13274008D01*
X3927205Y-13274008D02*
X3936729Y-13283531D01*
X3936729Y-13283531D02*
X3946253Y-13302579D01*
X3946253Y-13302579D02*
X3946253Y-13312103D01*
X3946253Y-13312103D02*
X3936729Y-13331150D01*
X3936729Y-13331150D02*
X3927205Y-13340674D01*
X3927205Y-13340674D02*
X3908158Y-13350198D01*
X3908158Y-13350198D02*
X3870062Y-13350198D01*
X3870062Y-13350198D02*
X3851015Y-13359722D01*
X3851015Y-13359722D02*
X3841491Y-13369246D01*
X3841491Y-13369246D02*
X3831967Y-13388293D01*
X3831967Y-13388293D02*
X3831967Y-13426388D01*
X3831967Y-13426388D02*
X3841491Y-13445436D01*
X3841491Y-13445436D02*
X3851015Y-13454960D01*
X3851015Y-13454960D02*
X3870062Y-13464484D01*
X3870062Y-13464484D02*
X3908158Y-13464484D01*
X3908158Y-13464484D02*
X3927205Y-13454960D01*
X3927205Y-13454960D02*
X3936729Y-13445436D01*
X3936729Y-13445436D02*
X3946253Y-13426388D01*
X3946253Y-13426388D02*
X3946253Y-13388293D01*
X3946253Y-13388293D02*
X3936729Y-13369246D01*
X3936729Y-13369246D02*
X3927205Y-13359722D01*
X3927205Y-13359722D02*
X3908158Y-13350198D01*
X4070062Y-13264484D02*
X4089110Y-13264484D01*
X4089110Y-13264484D02*
X4108158Y-13274008D01*
X4108158Y-13274008D02*
X4117682Y-13283531D01*
X4117682Y-13283531D02*
X4127205Y-13302579D01*
X4127205Y-13302579D02*
X4136729Y-13340674D01*
X4136729Y-13340674D02*
X4136729Y-13388293D01*
X4136729Y-13388293D02*
X4127205Y-13426388D01*
X4127205Y-13426388D02*
X4117682Y-13445436D01*
X4117682Y-13445436D02*
X4108158Y-13454960D01*
X4108158Y-13454960D02*
X4089110Y-13464484D01*
X4089110Y-13464484D02*
X4070062Y-13464484D01*
X4070062Y-13464484D02*
X4051015Y-13454960D01*
X4051015Y-13454960D02*
X4041491Y-13445436D01*
X4041491Y-13445436D02*
X4031967Y-13426388D01*
X4031967Y-13426388D02*
X4022443Y-13388293D01*
X4022443Y-13388293D02*
X4022443Y-13340674D01*
X4022443Y-13340674D02*
X4031967Y-13302579D01*
X4031967Y-13302579D02*
X4041491Y-13283531D01*
X4041491Y-13283531D02*
X4051015Y-13274008D01*
X4051015Y-13274008D02*
X4070062Y-13264484D01*
X4260539Y-13264484D02*
X4279586Y-13264484D01*
X4279586Y-13264484D02*
X4298634Y-13274008D01*
X4298634Y-13274008D02*
X4308158Y-13283531D01*
X4308158Y-13283531D02*
X4317682Y-13302579D01*
X4317682Y-13302579D02*
X4327205Y-13340674D01*
X4327205Y-13340674D02*
X4327205Y-13388293D01*
X4327205Y-13388293D02*
X4317682Y-13426388D01*
X4317682Y-13426388D02*
X4308158Y-13445436D01*
X4308158Y-13445436D02*
X4298634Y-13454960D01*
X4298634Y-13454960D02*
X4279586Y-13464484D01*
X4279586Y-13464484D02*
X4260539Y-13464484D01*
X4260539Y-13464484D02*
X4241491Y-13454960D01*
X4241491Y-13454960D02*
X4231967Y-13445436D01*
X4231967Y-13445436D02*
X4222444Y-13426388D01*
X4222444Y-13426388D02*
X4212920Y-13388293D01*
X4212920Y-13388293D02*
X4212920Y-13340674D01*
X4212920Y-13340674D02*
X4222444Y-13302579D01*
X4222444Y-13302579D02*
X4231967Y-13283531D01*
X4231967Y-13283531D02*
X4241491Y-13274008D01*
X4241491Y-13274008D02*
X4260539Y-13264484D01*
X4412920Y-13464484D02*
X4412920Y-13331150D01*
X4412920Y-13350198D02*
X4422444Y-13340674D01*
X4422444Y-13340674D02*
X4441491Y-13331150D01*
X4441491Y-13331150D02*
X4470063Y-13331150D01*
X4470063Y-13331150D02*
X4489110Y-13340674D01*
X4489110Y-13340674D02*
X4498634Y-13359722D01*
X4498634Y-13359722D02*
X4498634Y-13464484D01*
X4498634Y-13359722D02*
X4508158Y-13340674D01*
X4508158Y-13340674D02*
X4527205Y-13331150D01*
X4527205Y-13331150D02*
X4555777Y-13331150D01*
X4555777Y-13331150D02*
X4574825Y-13340674D01*
X4574825Y-13340674D02*
X4584348Y-13359722D01*
X4584348Y-13359722D02*
X4584348Y-13464484D01*
X4679586Y-13464484D02*
X4679586Y-13331150D01*
X4679586Y-13350198D02*
X4689110Y-13340674D01*
X4689110Y-13340674D02*
X4708158Y-13331150D01*
X4708158Y-13331150D02*
X4736729Y-13331150D01*
X4736729Y-13331150D02*
X4755777Y-13340674D01*
X4755777Y-13340674D02*
X4765301Y-13359722D01*
X4765301Y-13359722D02*
X4765301Y-13464484D01*
X4765301Y-13359722D02*
X4774825Y-13340674D01*
X4774825Y-13340674D02*
X4793872Y-13331150D01*
X4793872Y-13331150D02*
X4822444Y-13331150D01*
X4822444Y-13331150D02*
X4841491Y-13340674D01*
X4841491Y-13340674D02*
X4851015Y-13359722D01*
X4851015Y-13359722D02*
X4851015Y-13464484D01*
X5241491Y-13254960D02*
X5070063Y-13512103D01*
X5498634Y-13264484D02*
X5517682Y-13264484D01*
X5517682Y-13264484D02*
X5536729Y-13274008D01*
X5536729Y-13274008D02*
X5546253Y-13283531D01*
X5546253Y-13283531D02*
X5555777Y-13302579D01*
X5555777Y-13302579D02*
X5565301Y-13340674D01*
X5565301Y-13340674D02*
X5565301Y-13388293D01*
X5565301Y-13388293D02*
X5555777Y-13426388D01*
X5555777Y-13426388D02*
X5546253Y-13445436D01*
X5546253Y-13445436D02*
X5536729Y-13454960D01*
X5536729Y-13454960D02*
X5517682Y-13464484D01*
X5517682Y-13464484D02*
X5498634Y-13464484D01*
X5498634Y-13464484D02*
X5479587Y-13454960D01*
X5479587Y-13454960D02*
X5470063Y-13445436D01*
X5470063Y-13445436D02*
X5460539Y-13426388D01*
X5460539Y-13426388D02*
X5451015Y-13388293D01*
X5451015Y-13388293D02*
X5451015Y-13340674D01*
X5451015Y-13340674D02*
X5460539Y-13302579D01*
X5460539Y-13302579D02*
X5470063Y-13283531D01*
X5470063Y-13283531D02*
X5479587Y-13274008D01*
X5479587Y-13274008D02*
X5498634Y-13264484D01*
X5651015Y-13445436D02*
X5660539Y-13454960D01*
X5660539Y-13454960D02*
X5651015Y-13464484D01*
X5651015Y-13464484D02*
X5641491Y-13454960D01*
X5641491Y-13454960D02*
X5651015Y-13445436D01*
X5651015Y-13445436D02*
X5651015Y-13464484D01*
X5784348Y-13264484D02*
X5803396Y-13264484D01*
X5803396Y-13264484D02*
X5822444Y-13274008D01*
X5822444Y-13274008D02*
X5831967Y-13283531D01*
X5831967Y-13283531D02*
X5841491Y-13302579D01*
X5841491Y-13302579D02*
X5851015Y-13340674D01*
X5851015Y-13340674D02*
X5851015Y-13388293D01*
X5851015Y-13388293D02*
X5841491Y-13426388D01*
X5841491Y-13426388D02*
X5831967Y-13445436D01*
X5831967Y-13445436D02*
X5822444Y-13454960D01*
X5822444Y-13454960D02*
X5803396Y-13464484D01*
X5803396Y-13464484D02*
X5784348Y-13464484D01*
X5784348Y-13464484D02*
X5765301Y-13454960D01*
X5765301Y-13454960D02*
X5755777Y-13445436D01*
X5755777Y-13445436D02*
X5746253Y-13426388D01*
X5746253Y-13426388D02*
X5736729Y-13388293D01*
X5736729Y-13388293D02*
X5736729Y-13340674D01*
X5736729Y-13340674D02*
X5746253Y-13302579D01*
X5746253Y-13302579D02*
X5755777Y-13283531D01*
X5755777Y-13283531D02*
X5765301Y-13274008D01*
X5765301Y-13274008D02*
X5784348Y-13264484D01*
X5917682Y-13264484D02*
X6041491Y-13264484D01*
X6041491Y-13264484D02*
X5974825Y-13340674D01*
X5974825Y-13340674D02*
X6003396Y-13340674D01*
X6003396Y-13340674D02*
X6022444Y-13350198D01*
X6022444Y-13350198D02*
X6031967Y-13359722D01*
X6031967Y-13359722D02*
X6041491Y-13378769D01*
X6041491Y-13378769D02*
X6041491Y-13426388D01*
X6041491Y-13426388D02*
X6031967Y-13445436D01*
X6031967Y-13445436D02*
X6022444Y-13454960D01*
X6022444Y-13454960D02*
X6003396Y-13464484D01*
X6003396Y-13464484D02*
X5946253Y-13464484D01*
X5946253Y-13464484D02*
X5927206Y-13454960D01*
X5927206Y-13454960D02*
X5917682Y-13445436D01*
X6231967Y-13464484D02*
X6117682Y-13464484D01*
X6174825Y-13464484D02*
X6174825Y-13264484D01*
X6174825Y-13264484D02*
X6155777Y-13293055D01*
X6155777Y-13293055D02*
X6136729Y-13312103D01*
X6136729Y-13312103D02*
X6117682Y-13321627D01*
X6412920Y-13264484D02*
X6317682Y-13264484D01*
X6317682Y-13264484D02*
X6308158Y-13359722D01*
X6308158Y-13359722D02*
X6317682Y-13350198D01*
X6317682Y-13350198D02*
X6336729Y-13340674D01*
X6336729Y-13340674D02*
X6384348Y-13340674D01*
X6384348Y-13340674D02*
X6403396Y-13350198D01*
X6403396Y-13350198D02*
X6412920Y-13359722D01*
X6412920Y-13359722D02*
X6422444Y-13378769D01*
X6422444Y-13378769D02*
X6422444Y-13426388D01*
X6422444Y-13426388D02*
X6412920Y-13445436D01*
X6412920Y-13445436D02*
X6403396Y-13454960D01*
X6403396Y-13454960D02*
X6384348Y-13464484D01*
X6384348Y-13464484D02*
X6336729Y-13464484D01*
X6336729Y-13464484D02*
X6317682Y-13454960D01*
X6317682Y-13454960D02*
X6308158Y-13445436D01*
X6498634Y-13264484D02*
X6498634Y-13302579D01*
X6574825Y-13264484D02*
X6574825Y-13302579D01*
X6870063Y-13540674D02*
X6860539Y-13531150D01*
X6860539Y-13531150D02*
X6841491Y-13502579D01*
X6841491Y-13502579D02*
X6831968Y-13483531D01*
X6831968Y-13483531D02*
X6822444Y-13454960D01*
X6822444Y-13454960D02*
X6812920Y-13407341D01*
X6812920Y-13407341D02*
X6812920Y-13369246D01*
X6812920Y-13369246D02*
X6822444Y-13321627D01*
X6822444Y-13321627D02*
X6831968Y-13293055D01*
X6831968Y-13293055D02*
X6841491Y-13274008D01*
X6841491Y-13274008D02*
X6860539Y-13245436D01*
X6860539Y-13245436D02*
X6870063Y-13235912D01*
X7041491Y-13264484D02*
X6946253Y-13264484D01*
X6946253Y-13264484D02*
X6936729Y-13359722D01*
X6936729Y-13359722D02*
X6946253Y-13350198D01*
X6946253Y-13350198D02*
X6965301Y-13340674D01*
X6965301Y-13340674D02*
X7012920Y-13340674D01*
X7012920Y-13340674D02*
X7031968Y-13350198D01*
X7031968Y-13350198D02*
X7041491Y-13359722D01*
X7041491Y-13359722D02*
X7051015Y-13378769D01*
X7051015Y-13378769D02*
X7051015Y-13426388D01*
X7051015Y-13426388D02*
X7041491Y-13445436D01*
X7041491Y-13445436D02*
X7031968Y-13454960D01*
X7031968Y-13454960D02*
X7012920Y-13464484D01*
X7012920Y-13464484D02*
X6965301Y-13464484D01*
X6965301Y-13464484D02*
X6946253Y-13454960D01*
X6946253Y-13454960D02*
X6936729Y-13445436D01*
X7289110Y-13464484D02*
X7289110Y-13264484D01*
X7374825Y-13464484D02*
X7374825Y-13359722D01*
X7374825Y-13359722D02*
X7365301Y-13340674D01*
X7365301Y-13340674D02*
X7346253Y-13331150D01*
X7346253Y-13331150D02*
X7317682Y-13331150D01*
X7317682Y-13331150D02*
X7298634Y-13340674D01*
X7298634Y-13340674D02*
X7289110Y-13350198D01*
X7498634Y-13464484D02*
X7479587Y-13454960D01*
X7479587Y-13454960D02*
X7470063Y-13445436D01*
X7470063Y-13445436D02*
X7460539Y-13426388D01*
X7460539Y-13426388D02*
X7460539Y-13369246D01*
X7460539Y-13369246D02*
X7470063Y-13350198D01*
X7470063Y-13350198D02*
X7479587Y-13340674D01*
X7479587Y-13340674D02*
X7498634Y-13331150D01*
X7498634Y-13331150D02*
X7527206Y-13331150D01*
X7527206Y-13331150D02*
X7546253Y-13340674D01*
X7546253Y-13340674D02*
X7555777Y-13350198D01*
X7555777Y-13350198D02*
X7565301Y-13369246D01*
X7565301Y-13369246D02*
X7565301Y-13426388D01*
X7565301Y-13426388D02*
X7555777Y-13445436D01*
X7555777Y-13445436D02*
X7546253Y-13454960D01*
X7546253Y-13454960D02*
X7527206Y-13464484D01*
X7527206Y-13464484D02*
X7498634Y-13464484D01*
X7679587Y-13464484D02*
X7660539Y-13454960D01*
X7660539Y-13454960D02*
X7651015Y-13435912D01*
X7651015Y-13435912D02*
X7651015Y-13264484D01*
X7831968Y-13454960D02*
X7812920Y-13464484D01*
X7812920Y-13464484D02*
X7774825Y-13464484D01*
X7774825Y-13464484D02*
X7755777Y-13454960D01*
X7755777Y-13454960D02*
X7746253Y-13435912D01*
X7746253Y-13435912D02*
X7746253Y-13359722D01*
X7746253Y-13359722D02*
X7755777Y-13340674D01*
X7755777Y-13340674D02*
X7774825Y-13331150D01*
X7774825Y-13331150D02*
X7812920Y-13331150D01*
X7812920Y-13331150D02*
X7831968Y-13340674D01*
X7831968Y-13340674D02*
X7841491Y-13359722D01*
X7841491Y-13359722D02*
X7841491Y-13378769D01*
X7841491Y-13378769D02*
X7746253Y-13397817D01*
X7917682Y-13454960D02*
X7936730Y-13464484D01*
X7936730Y-13464484D02*
X7974825Y-13464484D01*
X7974825Y-13464484D02*
X7993872Y-13454960D01*
X7993872Y-13454960D02*
X8003396Y-13435912D01*
X8003396Y-13435912D02*
X8003396Y-13426388D01*
X8003396Y-13426388D02*
X7993872Y-13407341D01*
X7993872Y-13407341D02*
X7974825Y-13397817D01*
X7974825Y-13397817D02*
X7946253Y-13397817D01*
X7946253Y-13397817D02*
X7927206Y-13388293D01*
X7927206Y-13388293D02*
X7917682Y-13369246D01*
X7917682Y-13369246D02*
X7917682Y-13359722D01*
X7917682Y-13359722D02*
X7927206Y-13340674D01*
X7927206Y-13340674D02*
X7946253Y-13331150D01*
X7946253Y-13331150D02*
X7974825Y-13331150D01*
X7974825Y-13331150D02*
X7993872Y-13340674D01*
X8070063Y-13540674D02*
X8079587Y-13531150D01*
X8079587Y-13531150D02*
X8098634Y-13502579D01*
X8098634Y-13502579D02*
X8108158Y-13483531D01*
X8108158Y-13483531D02*
X8117682Y-13454960D01*
X8117682Y-13454960D02*
X8127206Y-13407341D01*
X8127206Y-13407341D02*
X8127206Y-13369246D01*
X8127206Y-13369246D02*
X8117682Y-13321627D01*
X8117682Y-13321627D02*
X8108158Y-13293055D01*
X8108158Y-13293055D02*
X8098634Y-13274008D01*
X8098634Y-13274008D02*
X8079587Y-13245436D01*
X8079587Y-13245436D02*
X8070063Y-13235912D01*
D10*
X3280356Y-13672356D02*
X3280356Y-13601644D01*
X3209644Y-13601644D01*
X3209644Y-13672356D01*
X3280356Y-13672356D01*
D11*
X3660539Y-13728484D02*
X3546253Y-13728484D01*
X3603396Y-13728484D02*
X3603396Y-13528484D01*
X3603396Y-13528484D02*
X3584348Y-13557055D01*
X3584348Y-13557055D02*
X3565301Y-13576103D01*
X3565301Y-13576103D02*
X3546253Y-13585627D01*
X3746253Y-13709436D02*
X3755777Y-13718960D01*
X3755777Y-13718960D02*
X3746253Y-13728484D01*
X3746253Y-13728484D02*
X3736729Y-13718960D01*
X3736729Y-13718960D02*
X3746253Y-13709436D01*
X3746253Y-13709436D02*
X3746253Y-13728484D01*
X3879586Y-13528484D02*
X3898634Y-13528484D01*
X3898634Y-13528484D02*
X3917682Y-13538008D01*
X3917682Y-13538008D02*
X3927205Y-13547531D01*
X3927205Y-13547531D02*
X3936729Y-13566579D01*
X3936729Y-13566579D02*
X3946253Y-13604674D01*
X3946253Y-13604674D02*
X3946253Y-13652293D01*
X3946253Y-13652293D02*
X3936729Y-13690388D01*
X3936729Y-13690388D02*
X3927205Y-13709436D01*
X3927205Y-13709436D02*
X3917682Y-13718960D01*
X3917682Y-13718960D02*
X3898634Y-13728484D01*
X3898634Y-13728484D02*
X3879586Y-13728484D01*
X3879586Y-13728484D02*
X3860539Y-13718960D01*
X3860539Y-13718960D02*
X3851015Y-13709436D01*
X3851015Y-13709436D02*
X3841491Y-13690388D01*
X3841491Y-13690388D02*
X3831967Y-13652293D01*
X3831967Y-13652293D02*
X3831967Y-13604674D01*
X3831967Y-13604674D02*
X3841491Y-13566579D01*
X3841491Y-13566579D02*
X3851015Y-13547531D01*
X3851015Y-13547531D02*
X3860539Y-13538008D01*
X3860539Y-13538008D02*
X3879586Y-13528484D01*
X4070062Y-13528484D02*
X4089110Y-13528484D01*
X4089110Y-13528484D02*
X4108158Y-13538008D01*
X4108158Y-13538008D02*
X4117682Y-13547531D01*
X4117682Y-13547531D02*
X4127205Y-13566579D01*
X4127205Y-13566579D02*
X4136729Y-13604674D01*
X4136729Y-13604674D02*
X4136729Y-13652293D01*
X4136729Y-13652293D02*
X4127205Y-13690388D01*
X4127205Y-13690388D02*
X4117682Y-13709436D01*
X4117682Y-13709436D02*
X4108158Y-13718960D01*
X4108158Y-13718960D02*
X4089110Y-13728484D01*
X4089110Y-13728484D02*
X4070062Y-13728484D01*
X4070062Y-13728484D02*
X4051015Y-13718960D01*
X4051015Y-13718960D02*
X4041491Y-13709436D01*
X4041491Y-13709436D02*
X4031967Y-13690388D01*
X4031967Y-13690388D02*
X4022443Y-13652293D01*
X4022443Y-13652293D02*
X4022443Y-13604674D01*
X4022443Y-13604674D02*
X4031967Y-13566579D01*
X4031967Y-13566579D02*
X4041491Y-13547531D01*
X4041491Y-13547531D02*
X4051015Y-13538008D01*
X4051015Y-13538008D02*
X4070062Y-13528484D01*
X4260539Y-13528484D02*
X4279586Y-13528484D01*
X4279586Y-13528484D02*
X4298634Y-13538008D01*
X4298634Y-13538008D02*
X4308158Y-13547531D01*
X4308158Y-13547531D02*
X4317682Y-13566579D01*
X4317682Y-13566579D02*
X4327205Y-13604674D01*
X4327205Y-13604674D02*
X4327205Y-13652293D01*
X4327205Y-13652293D02*
X4317682Y-13690388D01*
X4317682Y-13690388D02*
X4308158Y-13709436D01*
X4308158Y-13709436D02*
X4298634Y-13718960D01*
X4298634Y-13718960D02*
X4279586Y-13728484D01*
X4279586Y-13728484D02*
X4260539Y-13728484D01*
X4260539Y-13728484D02*
X4241491Y-13718960D01*
X4241491Y-13718960D02*
X4231967Y-13709436D01*
X4231967Y-13709436D02*
X4222444Y-13690388D01*
X4222444Y-13690388D02*
X4212920Y-13652293D01*
X4212920Y-13652293D02*
X4212920Y-13604674D01*
X4212920Y-13604674D02*
X4222444Y-13566579D01*
X4222444Y-13566579D02*
X4231967Y-13547531D01*
X4231967Y-13547531D02*
X4241491Y-13538008D01*
X4241491Y-13538008D02*
X4260539Y-13528484D01*
X4412920Y-13728484D02*
X4412920Y-13595150D01*
X4412920Y-13614198D02*
X4422444Y-13604674D01*
X4422444Y-13604674D02*
X4441491Y-13595150D01*
X4441491Y-13595150D02*
X4470063Y-13595150D01*
X4470063Y-13595150D02*
X4489110Y-13604674D01*
X4489110Y-13604674D02*
X4498634Y-13623722D01*
X4498634Y-13623722D02*
X4498634Y-13728484D01*
X4498634Y-13623722D02*
X4508158Y-13604674D01*
X4508158Y-13604674D02*
X4527205Y-13595150D01*
X4527205Y-13595150D02*
X4555777Y-13595150D01*
X4555777Y-13595150D02*
X4574825Y-13604674D01*
X4574825Y-13604674D02*
X4584348Y-13623722D01*
X4584348Y-13623722D02*
X4584348Y-13728484D01*
X4679586Y-13728484D02*
X4679586Y-13595150D01*
X4679586Y-13614198D02*
X4689110Y-13604674D01*
X4689110Y-13604674D02*
X4708158Y-13595150D01*
X4708158Y-13595150D02*
X4736729Y-13595150D01*
X4736729Y-13595150D02*
X4755777Y-13604674D01*
X4755777Y-13604674D02*
X4765301Y-13623722D01*
X4765301Y-13623722D02*
X4765301Y-13728484D01*
X4765301Y-13623722D02*
X4774825Y-13604674D01*
X4774825Y-13604674D02*
X4793872Y-13595150D01*
X4793872Y-13595150D02*
X4822444Y-13595150D01*
X4822444Y-13595150D02*
X4841491Y-13604674D01*
X4841491Y-13604674D02*
X4851015Y-13623722D01*
X4851015Y-13623722D02*
X4851015Y-13728484D01*
X5241491Y-13518960D02*
X5070063Y-13776103D01*
X5498634Y-13528484D02*
X5517682Y-13528484D01*
X5517682Y-13528484D02*
X5536729Y-13538008D01*
X5536729Y-13538008D02*
X5546253Y-13547531D01*
X5546253Y-13547531D02*
X5555777Y-13566579D01*
X5555777Y-13566579D02*
X5565301Y-13604674D01*
X5565301Y-13604674D02*
X5565301Y-13652293D01*
X5565301Y-13652293D02*
X5555777Y-13690388D01*
X5555777Y-13690388D02*
X5546253Y-13709436D01*
X5546253Y-13709436D02*
X5536729Y-13718960D01*
X5536729Y-13718960D02*
X5517682Y-13728484D01*
X5517682Y-13728484D02*
X5498634Y-13728484D01*
X5498634Y-13728484D02*
X5479587Y-13718960D01*
X5479587Y-13718960D02*
X5470063Y-13709436D01*
X5470063Y-13709436D02*
X5460539Y-13690388D01*
X5460539Y-13690388D02*
X5451015Y-13652293D01*
X5451015Y-13652293D02*
X5451015Y-13604674D01*
X5451015Y-13604674D02*
X5460539Y-13566579D01*
X5460539Y-13566579D02*
X5470063Y-13547531D01*
X5470063Y-13547531D02*
X5479587Y-13538008D01*
X5479587Y-13538008D02*
X5498634Y-13528484D01*
X5651015Y-13709436D02*
X5660539Y-13718960D01*
X5660539Y-13718960D02*
X5651015Y-13728484D01*
X5651015Y-13728484D02*
X5641491Y-13718960D01*
X5641491Y-13718960D02*
X5651015Y-13709436D01*
X5651015Y-13709436D02*
X5651015Y-13728484D01*
X5784348Y-13528484D02*
X5803396Y-13528484D01*
X5803396Y-13528484D02*
X5822444Y-13538008D01*
X5822444Y-13538008D02*
X5831967Y-13547531D01*
X5831967Y-13547531D02*
X5841491Y-13566579D01*
X5841491Y-13566579D02*
X5851015Y-13604674D01*
X5851015Y-13604674D02*
X5851015Y-13652293D01*
X5851015Y-13652293D02*
X5841491Y-13690388D01*
X5841491Y-13690388D02*
X5831967Y-13709436D01*
X5831967Y-13709436D02*
X5822444Y-13718960D01*
X5822444Y-13718960D02*
X5803396Y-13728484D01*
X5803396Y-13728484D02*
X5784348Y-13728484D01*
X5784348Y-13728484D02*
X5765301Y-13718960D01*
X5765301Y-13718960D02*
X5755777Y-13709436D01*
X5755777Y-13709436D02*
X5746253Y-13690388D01*
X5746253Y-13690388D02*
X5736729Y-13652293D01*
X5736729Y-13652293D02*
X5736729Y-13604674D01*
X5736729Y-13604674D02*
X5746253Y-13566579D01*
X5746253Y-13566579D02*
X5755777Y-13547531D01*
X5755777Y-13547531D02*
X5765301Y-13538008D01*
X5765301Y-13538008D02*
X5784348Y-13528484D01*
X5917682Y-13528484D02*
X6041491Y-13528484D01*
X6041491Y-13528484D02*
X5974825Y-13604674D01*
X5974825Y-13604674D02*
X6003396Y-13604674D01*
X6003396Y-13604674D02*
X6022444Y-13614198D01*
X6022444Y-13614198D02*
X6031967Y-13623722D01*
X6031967Y-13623722D02*
X6041491Y-13642769D01*
X6041491Y-13642769D02*
X6041491Y-13690388D01*
X6041491Y-13690388D02*
X6031967Y-13709436D01*
X6031967Y-13709436D02*
X6022444Y-13718960D01*
X6022444Y-13718960D02*
X6003396Y-13728484D01*
X6003396Y-13728484D02*
X5946253Y-13728484D01*
X5946253Y-13728484D02*
X5927206Y-13718960D01*
X5927206Y-13718960D02*
X5917682Y-13709436D01*
X6136729Y-13728484D02*
X6174825Y-13728484D01*
X6174825Y-13728484D02*
X6193872Y-13718960D01*
X6193872Y-13718960D02*
X6203396Y-13709436D01*
X6203396Y-13709436D02*
X6222444Y-13680865D01*
X6222444Y-13680865D02*
X6231967Y-13642769D01*
X6231967Y-13642769D02*
X6231967Y-13566579D01*
X6231967Y-13566579D02*
X6222444Y-13547531D01*
X6222444Y-13547531D02*
X6212920Y-13538008D01*
X6212920Y-13538008D02*
X6193872Y-13528484D01*
X6193872Y-13528484D02*
X6155777Y-13528484D01*
X6155777Y-13528484D02*
X6136729Y-13538008D01*
X6136729Y-13538008D02*
X6127206Y-13547531D01*
X6127206Y-13547531D02*
X6117682Y-13566579D01*
X6117682Y-13566579D02*
X6117682Y-13614198D01*
X6117682Y-13614198D02*
X6127206Y-13633246D01*
X6127206Y-13633246D02*
X6136729Y-13642769D01*
X6136729Y-13642769D02*
X6155777Y-13652293D01*
X6155777Y-13652293D02*
X6193872Y-13652293D01*
X6193872Y-13652293D02*
X6212920Y-13642769D01*
X6212920Y-13642769D02*
X6222444Y-13633246D01*
X6222444Y-13633246D02*
X6231967Y-13614198D01*
X6403396Y-13595150D02*
X6403396Y-13728484D01*
X6355777Y-13518960D02*
X6308158Y-13661817D01*
X6308158Y-13661817D02*
X6431967Y-13661817D01*
X6498634Y-13528484D02*
X6498634Y-13566579D01*
X6574825Y-13528484D02*
X6574825Y-13566579D01*
X6870063Y-13804674D02*
X6860539Y-13795150D01*
X6860539Y-13795150D02*
X6841491Y-13766579D01*
X6841491Y-13766579D02*
X6831968Y-13747531D01*
X6831968Y-13747531D02*
X6822444Y-13718960D01*
X6822444Y-13718960D02*
X6812920Y-13671341D01*
X6812920Y-13671341D02*
X6812920Y-13633246D01*
X6812920Y-13633246D02*
X6822444Y-13585627D01*
X6822444Y-13585627D02*
X6831968Y-13557055D01*
X6831968Y-13557055D02*
X6841491Y-13538008D01*
X6841491Y-13538008D02*
X6860539Y-13509436D01*
X6860539Y-13509436D02*
X6870063Y-13499912D01*
X6927206Y-13528484D02*
X7060539Y-13528484D01*
X7060539Y-13528484D02*
X6974825Y-13728484D01*
X7165301Y-13614198D02*
X7146253Y-13604674D01*
X7146253Y-13604674D02*
X7136729Y-13595150D01*
X7136729Y-13595150D02*
X7127206Y-13576103D01*
X7127206Y-13576103D02*
X7127206Y-13566579D01*
X7127206Y-13566579D02*
X7136729Y-13547531D01*
X7136729Y-13547531D02*
X7146253Y-13538008D01*
X7146253Y-13538008D02*
X7165301Y-13528484D01*
X7165301Y-13528484D02*
X7203396Y-13528484D01*
X7203396Y-13528484D02*
X7222444Y-13538008D01*
X7222444Y-13538008D02*
X7231968Y-13547531D01*
X7231968Y-13547531D02*
X7241491Y-13566579D01*
X7241491Y-13566579D02*
X7241491Y-13576103D01*
X7241491Y-13576103D02*
X7231968Y-13595150D01*
X7231968Y-13595150D02*
X7222444Y-13604674D01*
X7222444Y-13604674D02*
X7203396Y-13614198D01*
X7203396Y-13614198D02*
X7165301Y-13614198D01*
X7165301Y-13614198D02*
X7146253Y-13623722D01*
X7146253Y-13623722D02*
X7136729Y-13633246D01*
X7136729Y-13633246D02*
X7127206Y-13652293D01*
X7127206Y-13652293D02*
X7127206Y-13690388D01*
X7127206Y-13690388D02*
X7136729Y-13709436D01*
X7136729Y-13709436D02*
X7146253Y-13718960D01*
X7146253Y-13718960D02*
X7165301Y-13728484D01*
X7165301Y-13728484D02*
X7203396Y-13728484D01*
X7203396Y-13728484D02*
X7222444Y-13718960D01*
X7222444Y-13718960D02*
X7231968Y-13709436D01*
X7231968Y-13709436D02*
X7241491Y-13690388D01*
X7241491Y-13690388D02*
X7241491Y-13652293D01*
X7241491Y-13652293D02*
X7231968Y-13633246D01*
X7231968Y-13633246D02*
X7222444Y-13623722D01*
X7222444Y-13623722D02*
X7203396Y-13614198D01*
X7479587Y-13728484D02*
X7479587Y-13528484D01*
X7565301Y-13728484D02*
X7565301Y-13623722D01*
X7565301Y-13623722D02*
X7555777Y-13604674D01*
X7555777Y-13604674D02*
X7536730Y-13595150D01*
X7536730Y-13595150D02*
X7508158Y-13595150D01*
X7508158Y-13595150D02*
X7489110Y-13604674D01*
X7489110Y-13604674D02*
X7479587Y-13614198D01*
X7689110Y-13728484D02*
X7670063Y-13718960D01*
X7670063Y-13718960D02*
X7660539Y-13709436D01*
X7660539Y-13709436D02*
X7651015Y-13690388D01*
X7651015Y-13690388D02*
X7651015Y-13633246D01*
X7651015Y-13633246D02*
X7660539Y-13614198D01*
X7660539Y-13614198D02*
X7670063Y-13604674D01*
X7670063Y-13604674D02*
X7689110Y-13595150D01*
X7689110Y-13595150D02*
X7717682Y-13595150D01*
X7717682Y-13595150D02*
X7736730Y-13604674D01*
X7736730Y-13604674D02*
X7746253Y-13614198D01*
X7746253Y-13614198D02*
X7755777Y-13633246D01*
X7755777Y-13633246D02*
X7755777Y-13690388D01*
X7755777Y-13690388D02*
X7746253Y-13709436D01*
X7746253Y-13709436D02*
X7736730Y-13718960D01*
X7736730Y-13718960D02*
X7717682Y-13728484D01*
X7717682Y-13728484D02*
X7689110Y-13728484D01*
X7870063Y-13728484D02*
X7851015Y-13718960D01*
X7851015Y-13718960D02*
X7841491Y-13699912D01*
X7841491Y-13699912D02*
X7841491Y-13528484D01*
X8022444Y-13718960D02*
X8003396Y-13728484D01*
X8003396Y-13728484D02*
X7965301Y-13728484D01*
X7965301Y-13728484D02*
X7946253Y-13718960D01*
X7946253Y-13718960D02*
X7936730Y-13699912D01*
X7936730Y-13699912D02*
X7936730Y-13623722D01*
X7936730Y-13623722D02*
X7946253Y-13604674D01*
X7946253Y-13604674D02*
X7965301Y-13595150D01*
X7965301Y-13595150D02*
X8003396Y-13595150D01*
X8003396Y-13595150D02*
X8022444Y-13604674D01*
X8022444Y-13604674D02*
X8031968Y-13623722D01*
X8031968Y-13623722D02*
X8031968Y-13642769D01*
X8031968Y-13642769D02*
X7936730Y-13661817D01*
X8108158Y-13718960D02*
X8127206Y-13728484D01*
X8127206Y-13728484D02*
X8165301Y-13728484D01*
X8165301Y-13728484D02*
X8184349Y-13718960D01*
X8184349Y-13718960D02*
X8193872Y-13699912D01*
X8193872Y-13699912D02*
X8193872Y-13690388D01*
X8193872Y-13690388D02*
X8184349Y-13671341D01*
X8184349Y-13671341D02*
X8165301Y-13661817D01*
X8165301Y-13661817D02*
X8136730Y-13661817D01*
X8136730Y-13661817D02*
X8117682Y-13652293D01*
X8117682Y-13652293D02*
X8108158Y-13633246D01*
X8108158Y-13633246D02*
X8108158Y-13623722D01*
X8108158Y-13623722D02*
X8117682Y-13604674D01*
X8117682Y-13604674D02*
X8136730Y-13595150D01*
X8136730Y-13595150D02*
X8165301Y-13595150D01*
X8165301Y-13595150D02*
X8184349Y-13604674D01*
X8260539Y-13804674D02*
X8270063Y-13795150D01*
X8270063Y-13795150D02*
X8289111Y-13766579D01*
X8289111Y-13766579D02*
X8298634Y-13747531D01*
X8298634Y-13747531D02*
X8308158Y-13718960D01*
X8308158Y-13718960D02*
X8317682Y-13671341D01*
X8317682Y-13671341D02*
X8317682Y-13633246D01*
X8317682Y-13633246D02*
X8308158Y-13585627D01*
X8308158Y-13585627D02*
X8298634Y-13557055D01*
X8298634Y-13557055D02*
X8289111Y-13538008D01*
X8289111Y-13538008D02*
X8270063Y-13509436D01*
X8270063Y-13509436D02*
X8260539Y-13499912D01*
D12*
X3230000Y-13966000D02*
X3295000Y-13901000D01*
X3230000Y-13836000D01*
X3165000Y-13901000D01*
X3230000Y-13966000D01*
D11*
X3660539Y-13992484D02*
X3546253Y-13992484D01*
X3603396Y-13992484D02*
X3603396Y-13792484D01*
X3603396Y-13792484D02*
X3584348Y-13821055D01*
X3584348Y-13821055D02*
X3565301Y-13840103D01*
X3565301Y-13840103D02*
X3546253Y-13849627D01*
X3746253Y-13973436D02*
X3755777Y-13982960D01*
X3755777Y-13982960D02*
X3746253Y-13992484D01*
X3746253Y-13992484D02*
X3736729Y-13982960D01*
X3736729Y-13982960D02*
X3746253Y-13973436D01*
X3746253Y-13973436D02*
X3746253Y-13992484D01*
X3822443Y-13792484D02*
X3946253Y-13792484D01*
X3946253Y-13792484D02*
X3879586Y-13868674D01*
X3879586Y-13868674D02*
X3908158Y-13868674D01*
X3908158Y-13868674D02*
X3927205Y-13878198D01*
X3927205Y-13878198D02*
X3936729Y-13887722D01*
X3936729Y-13887722D02*
X3946253Y-13906769D01*
X3946253Y-13906769D02*
X3946253Y-13954388D01*
X3946253Y-13954388D02*
X3936729Y-13973436D01*
X3936729Y-13973436D02*
X3927205Y-13982960D01*
X3927205Y-13982960D02*
X3908158Y-13992484D01*
X3908158Y-13992484D02*
X3851015Y-13992484D01*
X3851015Y-13992484D02*
X3831967Y-13982960D01*
X3831967Y-13982960D02*
X3822443Y-13973436D01*
X4070062Y-13792484D02*
X4089110Y-13792484D01*
X4089110Y-13792484D02*
X4108158Y-13802008D01*
X4108158Y-13802008D02*
X4117682Y-13811531D01*
X4117682Y-13811531D02*
X4127205Y-13830579D01*
X4127205Y-13830579D02*
X4136729Y-13868674D01*
X4136729Y-13868674D02*
X4136729Y-13916293D01*
X4136729Y-13916293D02*
X4127205Y-13954388D01*
X4127205Y-13954388D02*
X4117682Y-13973436D01*
X4117682Y-13973436D02*
X4108158Y-13982960D01*
X4108158Y-13982960D02*
X4089110Y-13992484D01*
X4089110Y-13992484D02*
X4070062Y-13992484D01*
X4070062Y-13992484D02*
X4051015Y-13982960D01*
X4051015Y-13982960D02*
X4041491Y-13973436D01*
X4041491Y-13973436D02*
X4031967Y-13954388D01*
X4031967Y-13954388D02*
X4022443Y-13916293D01*
X4022443Y-13916293D02*
X4022443Y-13868674D01*
X4022443Y-13868674D02*
X4031967Y-13830579D01*
X4031967Y-13830579D02*
X4041491Y-13811531D01*
X4041491Y-13811531D02*
X4051015Y-13802008D01*
X4051015Y-13802008D02*
X4070062Y-13792484D01*
X4260539Y-13792484D02*
X4279586Y-13792484D01*
X4279586Y-13792484D02*
X4298634Y-13802008D01*
X4298634Y-13802008D02*
X4308158Y-13811531D01*
X4308158Y-13811531D02*
X4317682Y-13830579D01*
X4317682Y-13830579D02*
X4327205Y-13868674D01*
X4327205Y-13868674D02*
X4327205Y-13916293D01*
X4327205Y-13916293D02*
X4317682Y-13954388D01*
X4317682Y-13954388D02*
X4308158Y-13973436D01*
X4308158Y-13973436D02*
X4298634Y-13982960D01*
X4298634Y-13982960D02*
X4279586Y-13992484D01*
X4279586Y-13992484D02*
X4260539Y-13992484D01*
X4260539Y-13992484D02*
X4241491Y-13982960D01*
X4241491Y-13982960D02*
X4231967Y-13973436D01*
X4231967Y-13973436D02*
X4222444Y-13954388D01*
X4222444Y-13954388D02*
X4212920Y-13916293D01*
X4212920Y-13916293D02*
X4212920Y-13868674D01*
X4212920Y-13868674D02*
X4222444Y-13830579D01*
X4222444Y-13830579D02*
X4231967Y-13811531D01*
X4231967Y-13811531D02*
X4241491Y-13802008D01*
X4241491Y-13802008D02*
X4260539Y-13792484D01*
X4412920Y-13992484D02*
X4412920Y-13859150D01*
X4412920Y-13878198D02*
X4422444Y-13868674D01*
X4422444Y-13868674D02*
X4441491Y-13859150D01*
X4441491Y-13859150D02*
X4470063Y-13859150D01*
X4470063Y-13859150D02*
X4489110Y-13868674D01*
X4489110Y-13868674D02*
X4498634Y-13887722D01*
X4498634Y-13887722D02*
X4498634Y-13992484D01*
X4498634Y-13887722D02*
X4508158Y-13868674D01*
X4508158Y-13868674D02*
X4527205Y-13859150D01*
X4527205Y-13859150D02*
X4555777Y-13859150D01*
X4555777Y-13859150D02*
X4574825Y-13868674D01*
X4574825Y-13868674D02*
X4584348Y-13887722D01*
X4584348Y-13887722D02*
X4584348Y-13992484D01*
X4679586Y-13992484D02*
X4679586Y-13859150D01*
X4679586Y-13878198D02*
X4689110Y-13868674D01*
X4689110Y-13868674D02*
X4708158Y-13859150D01*
X4708158Y-13859150D02*
X4736729Y-13859150D01*
X4736729Y-13859150D02*
X4755777Y-13868674D01*
X4755777Y-13868674D02*
X4765301Y-13887722D01*
X4765301Y-13887722D02*
X4765301Y-13992484D01*
X4765301Y-13887722D02*
X4774825Y-13868674D01*
X4774825Y-13868674D02*
X4793872Y-13859150D01*
X4793872Y-13859150D02*
X4822444Y-13859150D01*
X4822444Y-13859150D02*
X4841491Y-13868674D01*
X4841491Y-13868674D02*
X4851015Y-13887722D01*
X4851015Y-13887722D02*
X4851015Y-13992484D01*
X5241491Y-13782960D02*
X5070063Y-14040103D01*
X5498634Y-13792484D02*
X5517682Y-13792484D01*
X5517682Y-13792484D02*
X5536729Y-13802008D01*
X5536729Y-13802008D02*
X5546253Y-13811531D01*
X5546253Y-13811531D02*
X5555777Y-13830579D01*
X5555777Y-13830579D02*
X5565301Y-13868674D01*
X5565301Y-13868674D02*
X5565301Y-13916293D01*
X5565301Y-13916293D02*
X5555777Y-13954388D01*
X5555777Y-13954388D02*
X5546253Y-13973436D01*
X5546253Y-13973436D02*
X5536729Y-13982960D01*
X5536729Y-13982960D02*
X5517682Y-13992484D01*
X5517682Y-13992484D02*
X5498634Y-13992484D01*
X5498634Y-13992484D02*
X5479587Y-13982960D01*
X5479587Y-13982960D02*
X5470063Y-13973436D01*
X5470063Y-13973436D02*
X5460539Y-13954388D01*
X5460539Y-13954388D02*
X5451015Y-13916293D01*
X5451015Y-13916293D02*
X5451015Y-13868674D01*
X5451015Y-13868674D02*
X5460539Y-13830579D01*
X5460539Y-13830579D02*
X5470063Y-13811531D01*
X5470063Y-13811531D02*
X5479587Y-13802008D01*
X5479587Y-13802008D02*
X5498634Y-13792484D01*
X5651015Y-13973436D02*
X5660539Y-13982960D01*
X5660539Y-13982960D02*
X5651015Y-13992484D01*
X5651015Y-13992484D02*
X5641491Y-13982960D01*
X5641491Y-13982960D02*
X5651015Y-13973436D01*
X5651015Y-13973436D02*
X5651015Y-13992484D01*
X5784348Y-13792484D02*
X5803396Y-13792484D01*
X5803396Y-13792484D02*
X5822444Y-13802008D01*
X5822444Y-13802008D02*
X5831967Y-13811531D01*
X5831967Y-13811531D02*
X5841491Y-13830579D01*
X5841491Y-13830579D02*
X5851015Y-13868674D01*
X5851015Y-13868674D02*
X5851015Y-13916293D01*
X5851015Y-13916293D02*
X5841491Y-13954388D01*
X5841491Y-13954388D02*
X5831967Y-13973436D01*
X5831967Y-13973436D02*
X5822444Y-13982960D01*
X5822444Y-13982960D02*
X5803396Y-13992484D01*
X5803396Y-13992484D02*
X5784348Y-13992484D01*
X5784348Y-13992484D02*
X5765301Y-13982960D01*
X5765301Y-13982960D02*
X5755777Y-13973436D01*
X5755777Y-13973436D02*
X5746253Y-13954388D01*
X5746253Y-13954388D02*
X5736729Y-13916293D01*
X5736729Y-13916293D02*
X5736729Y-13868674D01*
X5736729Y-13868674D02*
X5746253Y-13830579D01*
X5746253Y-13830579D02*
X5755777Y-13811531D01*
X5755777Y-13811531D02*
X5765301Y-13802008D01*
X5765301Y-13802008D02*
X5784348Y-13792484D01*
X6031967Y-13792484D02*
X5936729Y-13792484D01*
X5936729Y-13792484D02*
X5927206Y-13887722D01*
X5927206Y-13887722D02*
X5936729Y-13878198D01*
X5936729Y-13878198D02*
X5955777Y-13868674D01*
X5955777Y-13868674D02*
X6003396Y-13868674D01*
X6003396Y-13868674D02*
X6022444Y-13878198D01*
X6022444Y-13878198D02*
X6031967Y-13887722D01*
X6031967Y-13887722D02*
X6041491Y-13906769D01*
X6041491Y-13906769D02*
X6041491Y-13954388D01*
X6041491Y-13954388D02*
X6031967Y-13973436D01*
X6031967Y-13973436D02*
X6022444Y-13982960D01*
X6022444Y-13982960D02*
X6003396Y-13992484D01*
X6003396Y-13992484D02*
X5955777Y-13992484D01*
X5955777Y-13992484D02*
X5936729Y-13982960D01*
X5936729Y-13982960D02*
X5927206Y-13973436D01*
X6231967Y-13992484D02*
X6117682Y-13992484D01*
X6174825Y-13992484D02*
X6174825Y-13792484D01*
X6174825Y-13792484D02*
X6155777Y-13821055D01*
X6155777Y-13821055D02*
X6136729Y-13840103D01*
X6136729Y-13840103D02*
X6117682Y-13849627D01*
X6308158Y-13811531D02*
X6317682Y-13802008D01*
X6317682Y-13802008D02*
X6336729Y-13792484D01*
X6336729Y-13792484D02*
X6384348Y-13792484D01*
X6384348Y-13792484D02*
X6403396Y-13802008D01*
X6403396Y-13802008D02*
X6412920Y-13811531D01*
X6412920Y-13811531D02*
X6422444Y-13830579D01*
X6422444Y-13830579D02*
X6422444Y-13849627D01*
X6422444Y-13849627D02*
X6412920Y-13878198D01*
X6412920Y-13878198D02*
X6298634Y-13992484D01*
X6298634Y-13992484D02*
X6422444Y-13992484D01*
X6498634Y-13792484D02*
X6498634Y-13830579D01*
X6574825Y-13792484D02*
X6574825Y-13830579D01*
X6870063Y-14068674D02*
X6860539Y-14059150D01*
X6860539Y-14059150D02*
X6841491Y-14030579D01*
X6841491Y-14030579D02*
X6831968Y-14011531D01*
X6831968Y-14011531D02*
X6822444Y-13982960D01*
X6822444Y-13982960D02*
X6812920Y-13935341D01*
X6812920Y-13935341D02*
X6812920Y-13897246D01*
X6812920Y-13897246D02*
X6822444Y-13849627D01*
X6822444Y-13849627D02*
X6831968Y-13821055D01*
X6831968Y-13821055D02*
X6841491Y-13802008D01*
X6841491Y-13802008D02*
X6860539Y-13773436D01*
X6860539Y-13773436D02*
X6870063Y-13763912D01*
X7041491Y-13792484D02*
X6946253Y-13792484D01*
X6946253Y-13792484D02*
X6936729Y-13887722D01*
X6936729Y-13887722D02*
X6946253Y-13878198D01*
X6946253Y-13878198D02*
X6965301Y-13868674D01*
X6965301Y-13868674D02*
X7012920Y-13868674D01*
X7012920Y-13868674D02*
X7031968Y-13878198D01*
X7031968Y-13878198D02*
X7041491Y-13887722D01*
X7041491Y-13887722D02*
X7051015Y-13906769D01*
X7051015Y-13906769D02*
X7051015Y-13954388D01*
X7051015Y-13954388D02*
X7041491Y-13973436D01*
X7041491Y-13973436D02*
X7031968Y-13982960D01*
X7031968Y-13982960D02*
X7012920Y-13992484D01*
X7012920Y-13992484D02*
X6965301Y-13992484D01*
X6965301Y-13992484D02*
X6946253Y-13982960D01*
X6946253Y-13982960D02*
X6936729Y-13973436D01*
X7289110Y-13992484D02*
X7289110Y-13792484D01*
X7374825Y-13992484D02*
X7374825Y-13887722D01*
X7374825Y-13887722D02*
X7365301Y-13868674D01*
X7365301Y-13868674D02*
X7346253Y-13859150D01*
X7346253Y-13859150D02*
X7317682Y-13859150D01*
X7317682Y-13859150D02*
X7298634Y-13868674D01*
X7298634Y-13868674D02*
X7289110Y-13878198D01*
X7498634Y-13992484D02*
X7479587Y-13982960D01*
X7479587Y-13982960D02*
X7470063Y-13973436D01*
X7470063Y-13973436D02*
X7460539Y-13954388D01*
X7460539Y-13954388D02*
X7460539Y-13897246D01*
X7460539Y-13897246D02*
X7470063Y-13878198D01*
X7470063Y-13878198D02*
X7479587Y-13868674D01*
X7479587Y-13868674D02*
X7498634Y-13859150D01*
X7498634Y-13859150D02*
X7527206Y-13859150D01*
X7527206Y-13859150D02*
X7546253Y-13868674D01*
X7546253Y-13868674D02*
X7555777Y-13878198D01*
X7555777Y-13878198D02*
X7565301Y-13897246D01*
X7565301Y-13897246D02*
X7565301Y-13954388D01*
X7565301Y-13954388D02*
X7555777Y-13973436D01*
X7555777Y-13973436D02*
X7546253Y-13982960D01*
X7546253Y-13982960D02*
X7527206Y-13992484D01*
X7527206Y-13992484D02*
X7498634Y-13992484D01*
X7679587Y-13992484D02*
X7660539Y-13982960D01*
X7660539Y-13982960D02*
X7651015Y-13963912D01*
X7651015Y-13963912D02*
X7651015Y-13792484D01*
X7831968Y-13982960D02*
X7812920Y-13992484D01*
X7812920Y-13992484D02*
X7774825Y-13992484D01*
X7774825Y-13992484D02*
X7755777Y-13982960D01*
X7755777Y-13982960D02*
X7746253Y-13963912D01*
X7746253Y-13963912D02*
X7746253Y-13887722D01*
X7746253Y-13887722D02*
X7755777Y-13868674D01*
X7755777Y-13868674D02*
X7774825Y-13859150D01*
X7774825Y-13859150D02*
X7812920Y-13859150D01*
X7812920Y-13859150D02*
X7831968Y-13868674D01*
X7831968Y-13868674D02*
X7841491Y-13887722D01*
X7841491Y-13887722D02*
X7841491Y-13906769D01*
X7841491Y-13906769D02*
X7746253Y-13925817D01*
X7917682Y-13982960D02*
X7936730Y-13992484D01*
X7936730Y-13992484D02*
X7974825Y-13992484D01*
X7974825Y-13992484D02*
X7993872Y-13982960D01*
X7993872Y-13982960D02*
X8003396Y-13963912D01*
X8003396Y-13963912D02*
X8003396Y-13954388D01*
X8003396Y-13954388D02*
X7993872Y-13935341D01*
X7993872Y-13935341D02*
X7974825Y-13925817D01*
X7974825Y-13925817D02*
X7946253Y-13925817D01*
X7946253Y-13925817D02*
X7927206Y-13916293D01*
X7927206Y-13916293D02*
X7917682Y-13897246D01*
X7917682Y-13897246D02*
X7917682Y-13887722D01*
X7917682Y-13887722D02*
X7927206Y-13868674D01*
X7927206Y-13868674D02*
X7946253Y-13859150D01*
X7946253Y-13859150D02*
X7974825Y-13859150D01*
X7974825Y-13859150D02*
X7993872Y-13868674D01*
X8070063Y-14068674D02*
X8079587Y-14059150D01*
X8079587Y-14059150D02*
X8098634Y-14030579D01*
X8098634Y-14030579D02*
X8108158Y-14011531D01*
X8108158Y-14011531D02*
X8117682Y-13982960D01*
X8117682Y-13982960D02*
X8127206Y-13935341D01*
X8127206Y-13935341D02*
X8127206Y-13897246D01*
X8127206Y-13897246D02*
X8117682Y-13849627D01*
X8117682Y-13849627D02*
X8108158Y-13821055D01*
X8108158Y-13821055D02*
X8098634Y-13802008D01*
X8098634Y-13802008D02*
X8079587Y-13773436D01*
X8079587Y-13773436D02*
X8070063Y-13763912D01*
D13*
X3145000Y-14090000D02*
X3295000Y-14240000D01*
X3295000Y-14090000D02*
X3145000Y-14240000D01*
X3295000Y-14165000D02*
G75*
G02*
X3145000Y-14165000I-75000J0D01*
G01*
X3145000Y-14165000D02*
G75*
G02*
X3295000Y-14165000I75000J0D01*
G01*
D11*
X3660539Y-14256484D02*
X3546253Y-14256484D01*
X3603396Y-14256484D02*
X3603396Y-14056484D01*
X3603396Y-14056484D02*
X3584348Y-14085055D01*
X3584348Y-14085055D02*
X3565301Y-14104103D01*
X3565301Y-14104103D02*
X3546253Y-14113627D01*
X3746253Y-14237436D02*
X3755777Y-14246960D01*
X3755777Y-14246960D02*
X3746253Y-14256484D01*
X3746253Y-14256484D02*
X3736729Y-14246960D01*
X3736729Y-14246960D02*
X3746253Y-14237436D01*
X3746253Y-14237436D02*
X3746253Y-14256484D01*
X3936729Y-14056484D02*
X3841491Y-14056484D01*
X3841491Y-14056484D02*
X3831967Y-14151722D01*
X3831967Y-14151722D02*
X3841491Y-14142198D01*
X3841491Y-14142198D02*
X3860539Y-14132674D01*
X3860539Y-14132674D02*
X3908158Y-14132674D01*
X3908158Y-14132674D02*
X3927205Y-14142198D01*
X3927205Y-14142198D02*
X3936729Y-14151722D01*
X3936729Y-14151722D02*
X3946253Y-14170769D01*
X3946253Y-14170769D02*
X3946253Y-14218388D01*
X3946253Y-14218388D02*
X3936729Y-14237436D01*
X3936729Y-14237436D02*
X3927205Y-14246960D01*
X3927205Y-14246960D02*
X3908158Y-14256484D01*
X3908158Y-14256484D02*
X3860539Y-14256484D01*
X3860539Y-14256484D02*
X3841491Y-14246960D01*
X3841491Y-14246960D02*
X3831967Y-14237436D01*
X4070062Y-14056484D02*
X4089110Y-14056484D01*
X4089110Y-14056484D02*
X4108158Y-14066008D01*
X4108158Y-14066008D02*
X4117682Y-14075531D01*
X4117682Y-14075531D02*
X4127205Y-14094579D01*
X4127205Y-14094579D02*
X4136729Y-14132674D01*
X4136729Y-14132674D02*
X4136729Y-14180293D01*
X4136729Y-14180293D02*
X4127205Y-14218388D01*
X4127205Y-14218388D02*
X4117682Y-14237436D01*
X4117682Y-14237436D02*
X4108158Y-14246960D01*
X4108158Y-14246960D02*
X4089110Y-14256484D01*
X4089110Y-14256484D02*
X4070062Y-14256484D01*
X4070062Y-14256484D02*
X4051015Y-14246960D01*
X4051015Y-14246960D02*
X4041491Y-14237436D01*
X4041491Y-14237436D02*
X4031967Y-14218388D01*
X4031967Y-14218388D02*
X4022443Y-14180293D01*
X4022443Y-14180293D02*
X4022443Y-14132674D01*
X4022443Y-14132674D02*
X4031967Y-14094579D01*
X4031967Y-14094579D02*
X4041491Y-14075531D01*
X4041491Y-14075531D02*
X4051015Y-14066008D01*
X4051015Y-14066008D02*
X4070062Y-14056484D01*
X4260539Y-14056484D02*
X4279586Y-14056484D01*
X4279586Y-14056484D02*
X4298634Y-14066008D01*
X4298634Y-14066008D02*
X4308158Y-14075531D01*
X4308158Y-14075531D02*
X4317682Y-14094579D01*
X4317682Y-14094579D02*
X4327205Y-14132674D01*
X4327205Y-14132674D02*
X4327205Y-14180293D01*
X4327205Y-14180293D02*
X4317682Y-14218388D01*
X4317682Y-14218388D02*
X4308158Y-14237436D01*
X4308158Y-14237436D02*
X4298634Y-14246960D01*
X4298634Y-14246960D02*
X4279586Y-14256484D01*
X4279586Y-14256484D02*
X4260539Y-14256484D01*
X4260539Y-14256484D02*
X4241491Y-14246960D01*
X4241491Y-14246960D02*
X4231967Y-14237436D01*
X4231967Y-14237436D02*
X4222444Y-14218388D01*
X4222444Y-14218388D02*
X4212920Y-14180293D01*
X4212920Y-14180293D02*
X4212920Y-14132674D01*
X4212920Y-14132674D02*
X4222444Y-14094579D01*
X4222444Y-14094579D02*
X4231967Y-14075531D01*
X4231967Y-14075531D02*
X4241491Y-14066008D01*
X4241491Y-14066008D02*
X4260539Y-14056484D01*
X4412920Y-14256484D02*
X4412920Y-14123150D01*
X4412920Y-14142198D02*
X4422444Y-14132674D01*
X4422444Y-14132674D02*
X4441491Y-14123150D01*
X4441491Y-14123150D02*
X4470063Y-14123150D01*
X4470063Y-14123150D02*
X4489110Y-14132674D01*
X4489110Y-14132674D02*
X4498634Y-14151722D01*
X4498634Y-14151722D02*
X4498634Y-14256484D01*
X4498634Y-14151722D02*
X4508158Y-14132674D01*
X4508158Y-14132674D02*
X4527205Y-14123150D01*
X4527205Y-14123150D02*
X4555777Y-14123150D01*
X4555777Y-14123150D02*
X4574825Y-14132674D01*
X4574825Y-14132674D02*
X4584348Y-14151722D01*
X4584348Y-14151722D02*
X4584348Y-14256484D01*
X4679586Y-14256484D02*
X4679586Y-14123150D01*
X4679586Y-14142198D02*
X4689110Y-14132674D01*
X4689110Y-14132674D02*
X4708158Y-14123150D01*
X4708158Y-14123150D02*
X4736729Y-14123150D01*
X4736729Y-14123150D02*
X4755777Y-14132674D01*
X4755777Y-14132674D02*
X4765301Y-14151722D01*
X4765301Y-14151722D02*
X4765301Y-14256484D01*
X4765301Y-14151722D02*
X4774825Y-14132674D01*
X4774825Y-14132674D02*
X4793872Y-14123150D01*
X4793872Y-14123150D02*
X4822444Y-14123150D01*
X4822444Y-14123150D02*
X4841491Y-14132674D01*
X4841491Y-14132674D02*
X4851015Y-14151722D01*
X4851015Y-14151722D02*
X4851015Y-14256484D01*
X5241491Y-14046960D02*
X5070063Y-14304103D01*
X5498634Y-14056484D02*
X5517682Y-14056484D01*
X5517682Y-14056484D02*
X5536729Y-14066008D01*
X5536729Y-14066008D02*
X5546253Y-14075531D01*
X5546253Y-14075531D02*
X5555777Y-14094579D01*
X5555777Y-14094579D02*
X5565301Y-14132674D01*
X5565301Y-14132674D02*
X5565301Y-14180293D01*
X5565301Y-14180293D02*
X5555777Y-14218388D01*
X5555777Y-14218388D02*
X5546253Y-14237436D01*
X5546253Y-14237436D02*
X5536729Y-14246960D01*
X5536729Y-14246960D02*
X5517682Y-14256484D01*
X5517682Y-14256484D02*
X5498634Y-14256484D01*
X5498634Y-14256484D02*
X5479587Y-14246960D01*
X5479587Y-14246960D02*
X5470063Y-14237436D01*
X5470063Y-14237436D02*
X5460539Y-14218388D01*
X5460539Y-14218388D02*
X5451015Y-14180293D01*
X5451015Y-14180293D02*
X5451015Y-14132674D01*
X5451015Y-14132674D02*
X5460539Y-14094579D01*
X5460539Y-14094579D02*
X5470063Y-14075531D01*
X5470063Y-14075531D02*
X5479587Y-14066008D01*
X5479587Y-14066008D02*
X5498634Y-14056484D01*
X5651015Y-14237436D02*
X5660539Y-14246960D01*
X5660539Y-14246960D02*
X5651015Y-14256484D01*
X5651015Y-14256484D02*
X5641491Y-14246960D01*
X5641491Y-14246960D02*
X5651015Y-14237436D01*
X5651015Y-14237436D02*
X5651015Y-14256484D01*
X5784348Y-14056484D02*
X5803396Y-14056484D01*
X5803396Y-14056484D02*
X5822444Y-14066008D01*
X5822444Y-14066008D02*
X5831967Y-14075531D01*
X5831967Y-14075531D02*
X5841491Y-14094579D01*
X5841491Y-14094579D02*
X5851015Y-14132674D01*
X5851015Y-14132674D02*
X5851015Y-14180293D01*
X5851015Y-14180293D02*
X5841491Y-14218388D01*
X5841491Y-14218388D02*
X5831967Y-14237436D01*
X5831967Y-14237436D02*
X5822444Y-14246960D01*
X5822444Y-14246960D02*
X5803396Y-14256484D01*
X5803396Y-14256484D02*
X5784348Y-14256484D01*
X5784348Y-14256484D02*
X5765301Y-14246960D01*
X5765301Y-14246960D02*
X5755777Y-14237436D01*
X5755777Y-14237436D02*
X5746253Y-14218388D01*
X5746253Y-14218388D02*
X5736729Y-14180293D01*
X5736729Y-14180293D02*
X5736729Y-14132674D01*
X5736729Y-14132674D02*
X5746253Y-14094579D01*
X5746253Y-14094579D02*
X5755777Y-14075531D01*
X5755777Y-14075531D02*
X5765301Y-14066008D01*
X5765301Y-14066008D02*
X5784348Y-14056484D01*
X6031967Y-14056484D02*
X5936729Y-14056484D01*
X5936729Y-14056484D02*
X5927206Y-14151722D01*
X5927206Y-14151722D02*
X5936729Y-14142198D01*
X5936729Y-14142198D02*
X5955777Y-14132674D01*
X5955777Y-14132674D02*
X6003396Y-14132674D01*
X6003396Y-14132674D02*
X6022444Y-14142198D01*
X6022444Y-14142198D02*
X6031967Y-14151722D01*
X6031967Y-14151722D02*
X6041491Y-14170769D01*
X6041491Y-14170769D02*
X6041491Y-14218388D01*
X6041491Y-14218388D02*
X6031967Y-14237436D01*
X6031967Y-14237436D02*
X6022444Y-14246960D01*
X6022444Y-14246960D02*
X6003396Y-14256484D01*
X6003396Y-14256484D02*
X5955777Y-14256484D01*
X5955777Y-14256484D02*
X5936729Y-14246960D01*
X5936729Y-14246960D02*
X5927206Y-14237436D01*
X6136729Y-14256484D02*
X6174825Y-14256484D01*
X6174825Y-14256484D02*
X6193872Y-14246960D01*
X6193872Y-14246960D02*
X6203396Y-14237436D01*
X6203396Y-14237436D02*
X6222444Y-14208865D01*
X6222444Y-14208865D02*
X6231967Y-14170769D01*
X6231967Y-14170769D02*
X6231967Y-14094579D01*
X6231967Y-14094579D02*
X6222444Y-14075531D01*
X6222444Y-14075531D02*
X6212920Y-14066008D01*
X6212920Y-14066008D02*
X6193872Y-14056484D01*
X6193872Y-14056484D02*
X6155777Y-14056484D01*
X6155777Y-14056484D02*
X6136729Y-14066008D01*
X6136729Y-14066008D02*
X6127206Y-14075531D01*
X6127206Y-14075531D02*
X6117682Y-14094579D01*
X6117682Y-14094579D02*
X6117682Y-14142198D01*
X6117682Y-14142198D02*
X6127206Y-14161246D01*
X6127206Y-14161246D02*
X6136729Y-14170769D01*
X6136729Y-14170769D02*
X6155777Y-14180293D01*
X6155777Y-14180293D02*
X6193872Y-14180293D01*
X6193872Y-14180293D02*
X6212920Y-14170769D01*
X6212920Y-14170769D02*
X6222444Y-14161246D01*
X6222444Y-14161246D02*
X6231967Y-14142198D01*
X6422444Y-14256484D02*
X6308158Y-14256484D01*
X6365301Y-14256484D02*
X6365301Y-14056484D01*
X6365301Y-14056484D02*
X6346253Y-14085055D01*
X6346253Y-14085055D02*
X6327206Y-14104103D01*
X6327206Y-14104103D02*
X6308158Y-14113627D01*
X6498634Y-14056484D02*
X6498634Y-14094579D01*
X6574825Y-14056484D02*
X6574825Y-14094579D01*
X6870063Y-14332674D02*
X6860539Y-14323150D01*
X6860539Y-14323150D02*
X6841491Y-14294579D01*
X6841491Y-14294579D02*
X6831968Y-14275531D01*
X6831968Y-14275531D02*
X6822444Y-14246960D01*
X6822444Y-14246960D02*
X6812920Y-14199341D01*
X6812920Y-14199341D02*
X6812920Y-14161246D01*
X6812920Y-14161246D02*
X6822444Y-14113627D01*
X6822444Y-14113627D02*
X6831968Y-14085055D01*
X6831968Y-14085055D02*
X6841491Y-14066008D01*
X6841491Y-14066008D02*
X6860539Y-14037436D01*
X6860539Y-14037436D02*
X6870063Y-14027912D01*
X6936729Y-14075531D02*
X6946253Y-14066008D01*
X6946253Y-14066008D02*
X6965301Y-14056484D01*
X6965301Y-14056484D02*
X7012920Y-14056484D01*
X7012920Y-14056484D02*
X7031968Y-14066008D01*
X7031968Y-14066008D02*
X7041491Y-14075531D01*
X7041491Y-14075531D02*
X7051015Y-14094579D01*
X7051015Y-14094579D02*
X7051015Y-14113627D01*
X7051015Y-14113627D02*
X7041491Y-14142198D01*
X7041491Y-14142198D02*
X6927206Y-14256484D01*
X6927206Y-14256484D02*
X7051015Y-14256484D01*
X7289110Y-14256484D02*
X7289110Y-14056484D01*
X7374825Y-14256484D02*
X7374825Y-14151722D01*
X7374825Y-14151722D02*
X7365301Y-14132674D01*
X7365301Y-14132674D02*
X7346253Y-14123150D01*
X7346253Y-14123150D02*
X7317682Y-14123150D01*
X7317682Y-14123150D02*
X7298634Y-14132674D01*
X7298634Y-14132674D02*
X7289110Y-14142198D01*
X7498634Y-14256484D02*
X7479587Y-14246960D01*
X7479587Y-14246960D02*
X7470063Y-14237436D01*
X7470063Y-14237436D02*
X7460539Y-14218388D01*
X7460539Y-14218388D02*
X7460539Y-14161246D01*
X7460539Y-14161246D02*
X7470063Y-14142198D01*
X7470063Y-14142198D02*
X7479587Y-14132674D01*
X7479587Y-14132674D02*
X7498634Y-14123150D01*
X7498634Y-14123150D02*
X7527206Y-14123150D01*
X7527206Y-14123150D02*
X7546253Y-14132674D01*
X7546253Y-14132674D02*
X7555777Y-14142198D01*
X7555777Y-14142198D02*
X7565301Y-14161246D01*
X7565301Y-14161246D02*
X7565301Y-14218388D01*
X7565301Y-14218388D02*
X7555777Y-14237436D01*
X7555777Y-14237436D02*
X7546253Y-14246960D01*
X7546253Y-14246960D02*
X7527206Y-14256484D01*
X7527206Y-14256484D02*
X7498634Y-14256484D01*
X7679587Y-14256484D02*
X7660539Y-14246960D01*
X7660539Y-14246960D02*
X7651015Y-14227912D01*
X7651015Y-14227912D02*
X7651015Y-14056484D01*
X7831968Y-14246960D02*
X7812920Y-14256484D01*
X7812920Y-14256484D02*
X7774825Y-14256484D01*
X7774825Y-14256484D02*
X7755777Y-14246960D01*
X7755777Y-14246960D02*
X7746253Y-14227912D01*
X7746253Y-14227912D02*
X7746253Y-14151722D01*
X7746253Y-14151722D02*
X7755777Y-14132674D01*
X7755777Y-14132674D02*
X7774825Y-14123150D01*
X7774825Y-14123150D02*
X7812920Y-14123150D01*
X7812920Y-14123150D02*
X7831968Y-14132674D01*
X7831968Y-14132674D02*
X7841491Y-14151722D01*
X7841491Y-14151722D02*
X7841491Y-14170769D01*
X7841491Y-14170769D02*
X7746253Y-14189817D01*
X7917682Y-14246960D02*
X7936730Y-14256484D01*
X7936730Y-14256484D02*
X7974825Y-14256484D01*
X7974825Y-14256484D02*
X7993872Y-14246960D01*
X7993872Y-14246960D02*
X8003396Y-14227912D01*
X8003396Y-14227912D02*
X8003396Y-14218388D01*
X8003396Y-14218388D02*
X7993872Y-14199341D01*
X7993872Y-14199341D02*
X7974825Y-14189817D01*
X7974825Y-14189817D02*
X7946253Y-14189817D01*
X7946253Y-14189817D02*
X7927206Y-14180293D01*
X7927206Y-14180293D02*
X7917682Y-14161246D01*
X7917682Y-14161246D02*
X7917682Y-14151722D01*
X7917682Y-14151722D02*
X7927206Y-14132674D01*
X7927206Y-14132674D02*
X7946253Y-14123150D01*
X7946253Y-14123150D02*
X7974825Y-14123150D01*
X7974825Y-14123150D02*
X7993872Y-14132674D01*
X8070063Y-14332674D02*
X8079587Y-14323150D01*
X8079587Y-14323150D02*
X8098634Y-14294579D01*
X8098634Y-14294579D02*
X8108158Y-14275531D01*
X8108158Y-14275531D02*
X8117682Y-14246960D01*
X8117682Y-14246960D02*
X8127206Y-14199341D01*
X8127206Y-14199341D02*
X8127206Y-14161246D01*
X8127206Y-14161246D02*
X8117682Y-14113627D01*
X8117682Y-14113627D02*
X8108158Y-14085055D01*
X8108158Y-14085055D02*
X8098634Y-14066008D01*
X8098634Y-14066008D02*
X8079587Y-14037436D01*
X8079587Y-14037436D02*
X8070063Y-14027912D01*
D14*
X3143000Y-14359000D02*
X3295000Y-14511000D01*
X3295000Y-14359000D02*
X3143000Y-14511000D01*
X3219000Y-14359000D02*
X3219000Y-14511000D01*
X3143000Y-14435000D02*
X3295000Y-14435000D01*
D11*
X3660539Y-14526484D02*
X3546253Y-14526484D01*
X3603396Y-14526484D02*
X3603396Y-14326484D01*
X3603396Y-14326484D02*
X3584348Y-14355055D01*
X3584348Y-14355055D02*
X3565301Y-14374103D01*
X3565301Y-14374103D02*
X3546253Y-14383627D01*
X3746253Y-14507436D02*
X3755777Y-14516960D01*
X3755777Y-14516960D02*
X3746253Y-14526484D01*
X3746253Y-14526484D02*
X3736729Y-14516960D01*
X3736729Y-14516960D02*
X3746253Y-14507436D01*
X3746253Y-14507436D02*
X3746253Y-14526484D01*
X3936729Y-14326484D02*
X3841491Y-14326484D01*
X3841491Y-14326484D02*
X3831967Y-14421722D01*
X3831967Y-14421722D02*
X3841491Y-14412198D01*
X3841491Y-14412198D02*
X3860539Y-14402674D01*
X3860539Y-14402674D02*
X3908158Y-14402674D01*
X3908158Y-14402674D02*
X3927205Y-14412198D01*
X3927205Y-14412198D02*
X3936729Y-14421722D01*
X3936729Y-14421722D02*
X3946253Y-14440769D01*
X3946253Y-14440769D02*
X3946253Y-14488388D01*
X3946253Y-14488388D02*
X3936729Y-14507436D01*
X3936729Y-14507436D02*
X3927205Y-14516960D01*
X3927205Y-14516960D02*
X3908158Y-14526484D01*
X3908158Y-14526484D02*
X3860539Y-14526484D01*
X3860539Y-14526484D02*
X3841491Y-14516960D01*
X3841491Y-14516960D02*
X3831967Y-14507436D01*
X4022443Y-14345531D02*
X4031967Y-14336008D01*
X4031967Y-14336008D02*
X4051015Y-14326484D01*
X4051015Y-14326484D02*
X4098634Y-14326484D01*
X4098634Y-14326484D02*
X4117682Y-14336008D01*
X4117682Y-14336008D02*
X4127205Y-14345531D01*
X4127205Y-14345531D02*
X4136729Y-14364579D01*
X4136729Y-14364579D02*
X4136729Y-14383627D01*
X4136729Y-14383627D02*
X4127205Y-14412198D01*
X4127205Y-14412198D02*
X4012920Y-14526484D01*
X4012920Y-14526484D02*
X4136729Y-14526484D01*
X4260539Y-14326484D02*
X4279586Y-14326484D01*
X4279586Y-14326484D02*
X4298634Y-14336008D01*
X4298634Y-14336008D02*
X4308158Y-14345531D01*
X4308158Y-14345531D02*
X4317682Y-14364579D01*
X4317682Y-14364579D02*
X4327205Y-14402674D01*
X4327205Y-14402674D02*
X4327205Y-14450293D01*
X4327205Y-14450293D02*
X4317682Y-14488388D01*
X4317682Y-14488388D02*
X4308158Y-14507436D01*
X4308158Y-14507436D02*
X4298634Y-14516960D01*
X4298634Y-14516960D02*
X4279586Y-14526484D01*
X4279586Y-14526484D02*
X4260539Y-14526484D01*
X4260539Y-14526484D02*
X4241491Y-14516960D01*
X4241491Y-14516960D02*
X4231967Y-14507436D01*
X4231967Y-14507436D02*
X4222444Y-14488388D01*
X4222444Y-14488388D02*
X4212920Y-14450293D01*
X4212920Y-14450293D02*
X4212920Y-14402674D01*
X4212920Y-14402674D02*
X4222444Y-14364579D01*
X4222444Y-14364579D02*
X4231967Y-14345531D01*
X4231967Y-14345531D02*
X4241491Y-14336008D01*
X4241491Y-14336008D02*
X4260539Y-14326484D01*
X4412920Y-14526484D02*
X4412920Y-14393150D01*
X4412920Y-14412198D02*
X4422444Y-14402674D01*
X4422444Y-14402674D02*
X4441491Y-14393150D01*
X4441491Y-14393150D02*
X4470063Y-14393150D01*
X4470063Y-14393150D02*
X4489110Y-14402674D01*
X4489110Y-14402674D02*
X4498634Y-14421722D01*
X4498634Y-14421722D02*
X4498634Y-14526484D01*
X4498634Y-14421722D02*
X4508158Y-14402674D01*
X4508158Y-14402674D02*
X4527205Y-14393150D01*
X4527205Y-14393150D02*
X4555777Y-14393150D01*
X4555777Y-14393150D02*
X4574825Y-14402674D01*
X4574825Y-14402674D02*
X4584348Y-14421722D01*
X4584348Y-14421722D02*
X4584348Y-14526484D01*
X4679586Y-14526484D02*
X4679586Y-14393150D01*
X4679586Y-14412198D02*
X4689110Y-14402674D01*
X4689110Y-14402674D02*
X4708158Y-14393150D01*
X4708158Y-14393150D02*
X4736729Y-14393150D01*
X4736729Y-14393150D02*
X4755777Y-14402674D01*
X4755777Y-14402674D02*
X4765301Y-14421722D01*
X4765301Y-14421722D02*
X4765301Y-14526484D01*
X4765301Y-14421722D02*
X4774825Y-14402674D01*
X4774825Y-14402674D02*
X4793872Y-14393150D01*
X4793872Y-14393150D02*
X4822444Y-14393150D01*
X4822444Y-14393150D02*
X4841491Y-14402674D01*
X4841491Y-14402674D02*
X4851015Y-14421722D01*
X4851015Y-14421722D02*
X4851015Y-14526484D01*
X5241491Y-14316960D02*
X5070063Y-14574103D01*
X5498634Y-14326484D02*
X5517682Y-14326484D01*
X5517682Y-14326484D02*
X5536729Y-14336008D01*
X5536729Y-14336008D02*
X5546253Y-14345531D01*
X5546253Y-14345531D02*
X5555777Y-14364579D01*
X5555777Y-14364579D02*
X5565301Y-14402674D01*
X5565301Y-14402674D02*
X5565301Y-14450293D01*
X5565301Y-14450293D02*
X5555777Y-14488388D01*
X5555777Y-14488388D02*
X5546253Y-14507436D01*
X5546253Y-14507436D02*
X5536729Y-14516960D01*
X5536729Y-14516960D02*
X5517682Y-14526484D01*
X5517682Y-14526484D02*
X5498634Y-14526484D01*
X5498634Y-14526484D02*
X5479587Y-14516960D01*
X5479587Y-14516960D02*
X5470063Y-14507436D01*
X5470063Y-14507436D02*
X5460539Y-14488388D01*
X5460539Y-14488388D02*
X5451015Y-14450293D01*
X5451015Y-14450293D02*
X5451015Y-14402674D01*
X5451015Y-14402674D02*
X5460539Y-14364579D01*
X5460539Y-14364579D02*
X5470063Y-14345531D01*
X5470063Y-14345531D02*
X5479587Y-14336008D01*
X5479587Y-14336008D02*
X5498634Y-14326484D01*
X5651015Y-14507436D02*
X5660539Y-14516960D01*
X5660539Y-14516960D02*
X5651015Y-14526484D01*
X5651015Y-14526484D02*
X5641491Y-14516960D01*
X5641491Y-14516960D02*
X5651015Y-14507436D01*
X5651015Y-14507436D02*
X5651015Y-14526484D01*
X5784348Y-14326484D02*
X5803396Y-14326484D01*
X5803396Y-14326484D02*
X5822444Y-14336008D01*
X5822444Y-14336008D02*
X5831967Y-14345531D01*
X5831967Y-14345531D02*
X5841491Y-14364579D01*
X5841491Y-14364579D02*
X5851015Y-14402674D01*
X5851015Y-14402674D02*
X5851015Y-14450293D01*
X5851015Y-14450293D02*
X5841491Y-14488388D01*
X5841491Y-14488388D02*
X5831967Y-14507436D01*
X5831967Y-14507436D02*
X5822444Y-14516960D01*
X5822444Y-14516960D02*
X5803396Y-14526484D01*
X5803396Y-14526484D02*
X5784348Y-14526484D01*
X5784348Y-14526484D02*
X5765301Y-14516960D01*
X5765301Y-14516960D02*
X5755777Y-14507436D01*
X5755777Y-14507436D02*
X5746253Y-14488388D01*
X5746253Y-14488388D02*
X5736729Y-14450293D01*
X5736729Y-14450293D02*
X5736729Y-14402674D01*
X5736729Y-14402674D02*
X5746253Y-14364579D01*
X5746253Y-14364579D02*
X5755777Y-14345531D01*
X5755777Y-14345531D02*
X5765301Y-14336008D01*
X5765301Y-14336008D02*
X5784348Y-14326484D01*
X6031967Y-14326484D02*
X5936729Y-14326484D01*
X5936729Y-14326484D02*
X5927206Y-14421722D01*
X5927206Y-14421722D02*
X5936729Y-14412198D01*
X5936729Y-14412198D02*
X5955777Y-14402674D01*
X5955777Y-14402674D02*
X6003396Y-14402674D01*
X6003396Y-14402674D02*
X6022444Y-14412198D01*
X6022444Y-14412198D02*
X6031967Y-14421722D01*
X6031967Y-14421722D02*
X6041491Y-14440769D01*
X6041491Y-14440769D02*
X6041491Y-14488388D01*
X6041491Y-14488388D02*
X6031967Y-14507436D01*
X6031967Y-14507436D02*
X6022444Y-14516960D01*
X6022444Y-14516960D02*
X6003396Y-14526484D01*
X6003396Y-14526484D02*
X5955777Y-14526484D01*
X5955777Y-14526484D02*
X5936729Y-14516960D01*
X5936729Y-14516960D02*
X5927206Y-14507436D01*
X6136729Y-14526484D02*
X6174825Y-14526484D01*
X6174825Y-14526484D02*
X6193872Y-14516960D01*
X6193872Y-14516960D02*
X6203396Y-14507436D01*
X6203396Y-14507436D02*
X6222444Y-14478865D01*
X6222444Y-14478865D02*
X6231967Y-14440769D01*
X6231967Y-14440769D02*
X6231967Y-14364579D01*
X6231967Y-14364579D02*
X6222444Y-14345531D01*
X6222444Y-14345531D02*
X6212920Y-14336008D01*
X6212920Y-14336008D02*
X6193872Y-14326484D01*
X6193872Y-14326484D02*
X6155777Y-14326484D01*
X6155777Y-14326484D02*
X6136729Y-14336008D01*
X6136729Y-14336008D02*
X6127206Y-14345531D01*
X6127206Y-14345531D02*
X6117682Y-14364579D01*
X6117682Y-14364579D02*
X6117682Y-14412198D01*
X6117682Y-14412198D02*
X6127206Y-14431246D01*
X6127206Y-14431246D02*
X6136729Y-14440769D01*
X6136729Y-14440769D02*
X6155777Y-14450293D01*
X6155777Y-14450293D02*
X6193872Y-14450293D01*
X6193872Y-14450293D02*
X6212920Y-14440769D01*
X6212920Y-14440769D02*
X6222444Y-14431246D01*
X6222444Y-14431246D02*
X6231967Y-14412198D01*
X6346253Y-14412198D02*
X6327206Y-14402674D01*
X6327206Y-14402674D02*
X6317682Y-14393150D01*
X6317682Y-14393150D02*
X6308158Y-14374103D01*
X6308158Y-14374103D02*
X6308158Y-14364579D01*
X6308158Y-14364579D02*
X6317682Y-14345531D01*
X6317682Y-14345531D02*
X6327206Y-14336008D01*
X6327206Y-14336008D02*
X6346253Y-14326484D01*
X6346253Y-14326484D02*
X6384348Y-14326484D01*
X6384348Y-14326484D02*
X6403396Y-14336008D01*
X6403396Y-14336008D02*
X6412920Y-14345531D01*
X6412920Y-14345531D02*
X6422444Y-14364579D01*
X6422444Y-14364579D02*
X6422444Y-14374103D01*
X6422444Y-14374103D02*
X6412920Y-14393150D01*
X6412920Y-14393150D02*
X6403396Y-14402674D01*
X6403396Y-14402674D02*
X6384348Y-14412198D01*
X6384348Y-14412198D02*
X6346253Y-14412198D01*
X6346253Y-14412198D02*
X6327206Y-14421722D01*
X6327206Y-14421722D02*
X6317682Y-14431246D01*
X6317682Y-14431246D02*
X6308158Y-14450293D01*
X6308158Y-14450293D02*
X6308158Y-14488388D01*
X6308158Y-14488388D02*
X6317682Y-14507436D01*
X6317682Y-14507436D02*
X6327206Y-14516960D01*
X6327206Y-14516960D02*
X6346253Y-14526484D01*
X6346253Y-14526484D02*
X6384348Y-14526484D01*
X6384348Y-14526484D02*
X6403396Y-14516960D01*
X6403396Y-14516960D02*
X6412920Y-14507436D01*
X6412920Y-14507436D02*
X6422444Y-14488388D01*
X6422444Y-14488388D02*
X6422444Y-14450293D01*
X6422444Y-14450293D02*
X6412920Y-14431246D01*
X6412920Y-14431246D02*
X6403396Y-14421722D01*
X6403396Y-14421722D02*
X6384348Y-14412198D01*
X6498634Y-14326484D02*
X6498634Y-14364579D01*
X6574825Y-14326484D02*
X6574825Y-14364579D01*
X6870063Y-14602674D02*
X6860539Y-14593150D01*
X6860539Y-14593150D02*
X6841491Y-14564579D01*
X6841491Y-14564579D02*
X6831968Y-14545531D01*
X6831968Y-14545531D02*
X6822444Y-14516960D01*
X6822444Y-14516960D02*
X6812920Y-14469341D01*
X6812920Y-14469341D02*
X6812920Y-14431246D01*
X6812920Y-14431246D02*
X6822444Y-14383627D01*
X6822444Y-14383627D02*
X6831968Y-14355055D01*
X6831968Y-14355055D02*
X6841491Y-14336008D01*
X6841491Y-14336008D02*
X6860539Y-14307436D01*
X6860539Y-14307436D02*
X6870063Y-14297912D01*
X7041491Y-14326484D02*
X6946253Y-14326484D01*
X6946253Y-14326484D02*
X6936729Y-14421722D01*
X6936729Y-14421722D02*
X6946253Y-14412198D01*
X6946253Y-14412198D02*
X6965301Y-14402674D01*
X6965301Y-14402674D02*
X7012920Y-14402674D01*
X7012920Y-14402674D02*
X7031968Y-14412198D01*
X7031968Y-14412198D02*
X7041491Y-14421722D01*
X7041491Y-14421722D02*
X7051015Y-14440769D01*
X7051015Y-14440769D02*
X7051015Y-14488388D01*
X7051015Y-14488388D02*
X7041491Y-14507436D01*
X7041491Y-14507436D02*
X7031968Y-14516960D01*
X7031968Y-14516960D02*
X7012920Y-14526484D01*
X7012920Y-14526484D02*
X6965301Y-14526484D01*
X6965301Y-14526484D02*
X6946253Y-14516960D01*
X6946253Y-14516960D02*
X6936729Y-14507436D01*
X7289110Y-14526484D02*
X7289110Y-14326484D01*
X7374825Y-14526484D02*
X7374825Y-14421722D01*
X7374825Y-14421722D02*
X7365301Y-14402674D01*
X7365301Y-14402674D02*
X7346253Y-14393150D01*
X7346253Y-14393150D02*
X7317682Y-14393150D01*
X7317682Y-14393150D02*
X7298634Y-14402674D01*
X7298634Y-14402674D02*
X7289110Y-14412198D01*
X7498634Y-14526484D02*
X7479587Y-14516960D01*
X7479587Y-14516960D02*
X7470063Y-14507436D01*
X7470063Y-14507436D02*
X7460539Y-14488388D01*
X7460539Y-14488388D02*
X7460539Y-14431246D01*
X7460539Y-14431246D02*
X7470063Y-14412198D01*
X7470063Y-14412198D02*
X7479587Y-14402674D01*
X7479587Y-14402674D02*
X7498634Y-14393150D01*
X7498634Y-14393150D02*
X7527206Y-14393150D01*
X7527206Y-14393150D02*
X7546253Y-14402674D01*
X7546253Y-14402674D02*
X7555777Y-14412198D01*
X7555777Y-14412198D02*
X7565301Y-14431246D01*
X7565301Y-14431246D02*
X7565301Y-14488388D01*
X7565301Y-14488388D02*
X7555777Y-14507436D01*
X7555777Y-14507436D02*
X7546253Y-14516960D01*
X7546253Y-14516960D02*
X7527206Y-14526484D01*
X7527206Y-14526484D02*
X7498634Y-14526484D01*
X7679587Y-14526484D02*
X7660539Y-14516960D01*
X7660539Y-14516960D02*
X7651015Y-14497912D01*
X7651015Y-14497912D02*
X7651015Y-14326484D01*
X7831968Y-14516960D02*
X7812920Y-14526484D01*
X7812920Y-14526484D02*
X7774825Y-14526484D01*
X7774825Y-14526484D02*
X7755777Y-14516960D01*
X7755777Y-14516960D02*
X7746253Y-14497912D01*
X7746253Y-14497912D02*
X7746253Y-14421722D01*
X7746253Y-14421722D02*
X7755777Y-14402674D01*
X7755777Y-14402674D02*
X7774825Y-14393150D01*
X7774825Y-14393150D02*
X7812920Y-14393150D01*
X7812920Y-14393150D02*
X7831968Y-14402674D01*
X7831968Y-14402674D02*
X7841491Y-14421722D01*
X7841491Y-14421722D02*
X7841491Y-14440769D01*
X7841491Y-14440769D02*
X7746253Y-14459817D01*
X7917682Y-14516960D02*
X7936730Y-14526484D01*
X7936730Y-14526484D02*
X7974825Y-14526484D01*
X7974825Y-14526484D02*
X7993872Y-14516960D01*
X7993872Y-14516960D02*
X8003396Y-14497912D01*
X8003396Y-14497912D02*
X8003396Y-14488388D01*
X8003396Y-14488388D02*
X7993872Y-14469341D01*
X7993872Y-14469341D02*
X7974825Y-14459817D01*
X7974825Y-14459817D02*
X7946253Y-14459817D01*
X7946253Y-14459817D02*
X7927206Y-14450293D01*
X7927206Y-14450293D02*
X7917682Y-14431246D01*
X7917682Y-14431246D02*
X7917682Y-14421722D01*
X7917682Y-14421722D02*
X7927206Y-14402674D01*
X7927206Y-14402674D02*
X7946253Y-14393150D01*
X7946253Y-14393150D02*
X7974825Y-14393150D01*
X7974825Y-14393150D02*
X7993872Y-14402674D01*
X8070063Y-14602674D02*
X8079587Y-14593150D01*
X8079587Y-14593150D02*
X8098634Y-14564579D01*
X8098634Y-14564579D02*
X8108158Y-14545531D01*
X8108158Y-14545531D02*
X8117682Y-14516960D01*
X8117682Y-14516960D02*
X8127206Y-14469341D01*
X8127206Y-14469341D02*
X8127206Y-14431246D01*
X8127206Y-14431246D02*
X8117682Y-14383627D01*
X8117682Y-14383627D02*
X8108158Y-14355055D01*
X8108158Y-14355055D02*
X8098634Y-14336008D01*
X8098634Y-14336008D02*
X8079587Y-14307436D01*
X8079587Y-14307436D02*
X8070063Y-14297912D01*
X3095000Y-14607000D02*
X3295000Y-14807000D01*
X3295000Y-14607000D02*
X3095000Y-14807000D01*
X3265711Y-14777711D02*
X3265711Y-14636289D01*
X3124289Y-14636289D01*
X3124289Y-14777711D01*
X3265711Y-14777711D01*
X3536729Y-14598484D02*
X3660539Y-14598484D01*
X3660539Y-14598484D02*
X3593872Y-14674674D01*
X3593872Y-14674674D02*
X3622443Y-14674674D01*
X3622443Y-14674674D02*
X3641491Y-14684198D01*
X3641491Y-14684198D02*
X3651015Y-14693722D01*
X3651015Y-14693722D02*
X3660539Y-14712769D01*
X3660539Y-14712769D02*
X3660539Y-14760388D01*
X3660539Y-14760388D02*
X3651015Y-14779436D01*
X3651015Y-14779436D02*
X3641491Y-14788960D01*
X3641491Y-14788960D02*
X3622443Y-14798484D01*
X3622443Y-14798484D02*
X3565301Y-14798484D01*
X3565301Y-14798484D02*
X3546253Y-14788960D01*
X3546253Y-14788960D02*
X3536729Y-14779436D01*
X3746253Y-14779436D02*
X3755777Y-14788960D01*
X3755777Y-14788960D02*
X3746253Y-14798484D01*
X3746253Y-14798484D02*
X3736729Y-14788960D01*
X3736729Y-14788960D02*
X3746253Y-14779436D01*
X3746253Y-14779436D02*
X3746253Y-14798484D01*
X3831967Y-14617531D02*
X3841491Y-14608008D01*
X3841491Y-14608008D02*
X3860539Y-14598484D01*
X3860539Y-14598484D02*
X3908158Y-14598484D01*
X3908158Y-14598484D02*
X3927205Y-14608008D01*
X3927205Y-14608008D02*
X3936729Y-14617531D01*
X3936729Y-14617531D02*
X3946253Y-14636579D01*
X3946253Y-14636579D02*
X3946253Y-14655627D01*
X3946253Y-14655627D02*
X3936729Y-14684198D01*
X3936729Y-14684198D02*
X3822443Y-14798484D01*
X3822443Y-14798484D02*
X3946253Y-14798484D01*
X4127205Y-14598484D02*
X4031967Y-14598484D01*
X4031967Y-14598484D02*
X4022443Y-14693722D01*
X4022443Y-14693722D02*
X4031967Y-14684198D01*
X4031967Y-14684198D02*
X4051015Y-14674674D01*
X4051015Y-14674674D02*
X4098634Y-14674674D01*
X4098634Y-14674674D02*
X4117682Y-14684198D01*
X4117682Y-14684198D02*
X4127205Y-14693722D01*
X4127205Y-14693722D02*
X4136729Y-14712769D01*
X4136729Y-14712769D02*
X4136729Y-14760388D01*
X4136729Y-14760388D02*
X4127205Y-14779436D01*
X4127205Y-14779436D02*
X4117682Y-14788960D01*
X4117682Y-14788960D02*
X4098634Y-14798484D01*
X4098634Y-14798484D02*
X4051015Y-14798484D01*
X4051015Y-14798484D02*
X4031967Y-14788960D01*
X4031967Y-14788960D02*
X4022443Y-14779436D01*
X4260539Y-14598484D02*
X4279586Y-14598484D01*
X4279586Y-14598484D02*
X4298634Y-14608008D01*
X4298634Y-14608008D02*
X4308158Y-14617531D01*
X4308158Y-14617531D02*
X4317682Y-14636579D01*
X4317682Y-14636579D02*
X4327205Y-14674674D01*
X4327205Y-14674674D02*
X4327205Y-14722293D01*
X4327205Y-14722293D02*
X4317682Y-14760388D01*
X4317682Y-14760388D02*
X4308158Y-14779436D01*
X4308158Y-14779436D02*
X4298634Y-14788960D01*
X4298634Y-14788960D02*
X4279586Y-14798484D01*
X4279586Y-14798484D02*
X4260539Y-14798484D01*
X4260539Y-14798484D02*
X4241491Y-14788960D01*
X4241491Y-14788960D02*
X4231967Y-14779436D01*
X4231967Y-14779436D02*
X4222444Y-14760388D01*
X4222444Y-14760388D02*
X4212920Y-14722293D01*
X4212920Y-14722293D02*
X4212920Y-14674674D01*
X4212920Y-14674674D02*
X4222444Y-14636579D01*
X4222444Y-14636579D02*
X4231967Y-14617531D01*
X4231967Y-14617531D02*
X4241491Y-14608008D01*
X4241491Y-14608008D02*
X4260539Y-14598484D01*
X4412920Y-14798484D02*
X4412920Y-14665150D01*
X4412920Y-14684198D02*
X4422444Y-14674674D01*
X4422444Y-14674674D02*
X4441491Y-14665150D01*
X4441491Y-14665150D02*
X4470063Y-14665150D01*
X4470063Y-14665150D02*
X4489110Y-14674674D01*
X4489110Y-14674674D02*
X4498634Y-14693722D01*
X4498634Y-14693722D02*
X4498634Y-14798484D01*
X4498634Y-14693722D02*
X4508158Y-14674674D01*
X4508158Y-14674674D02*
X4527205Y-14665150D01*
X4527205Y-14665150D02*
X4555777Y-14665150D01*
X4555777Y-14665150D02*
X4574825Y-14674674D01*
X4574825Y-14674674D02*
X4584348Y-14693722D01*
X4584348Y-14693722D02*
X4584348Y-14798484D01*
X4679586Y-14798484D02*
X4679586Y-14665150D01*
X4679586Y-14684198D02*
X4689110Y-14674674D01*
X4689110Y-14674674D02*
X4708158Y-14665150D01*
X4708158Y-14665150D02*
X4736729Y-14665150D01*
X4736729Y-14665150D02*
X4755777Y-14674674D01*
X4755777Y-14674674D02*
X4765301Y-14693722D01*
X4765301Y-14693722D02*
X4765301Y-14798484D01*
X4765301Y-14693722D02*
X4774825Y-14674674D01*
X4774825Y-14674674D02*
X4793872Y-14665150D01*
X4793872Y-14665150D02*
X4822444Y-14665150D01*
X4822444Y-14665150D02*
X4841491Y-14674674D01*
X4841491Y-14674674D02*
X4851015Y-14693722D01*
X4851015Y-14693722D02*
X4851015Y-14798484D01*
X5241491Y-14588960D02*
X5070063Y-14846103D01*
X5498634Y-14598484D02*
X5517682Y-14598484D01*
X5517682Y-14598484D02*
X5536729Y-14608008D01*
X5536729Y-14608008D02*
X5546253Y-14617531D01*
X5546253Y-14617531D02*
X5555777Y-14636579D01*
X5555777Y-14636579D02*
X5565301Y-14674674D01*
X5565301Y-14674674D02*
X5565301Y-14722293D01*
X5565301Y-14722293D02*
X5555777Y-14760388D01*
X5555777Y-14760388D02*
X5546253Y-14779436D01*
X5546253Y-14779436D02*
X5536729Y-14788960D01*
X5536729Y-14788960D02*
X5517682Y-14798484D01*
X5517682Y-14798484D02*
X5498634Y-14798484D01*
X5498634Y-14798484D02*
X5479587Y-14788960D01*
X5479587Y-14788960D02*
X5470063Y-14779436D01*
X5470063Y-14779436D02*
X5460539Y-14760388D01*
X5460539Y-14760388D02*
X5451015Y-14722293D01*
X5451015Y-14722293D02*
X5451015Y-14674674D01*
X5451015Y-14674674D02*
X5460539Y-14636579D01*
X5460539Y-14636579D02*
X5470063Y-14617531D01*
X5470063Y-14617531D02*
X5479587Y-14608008D01*
X5479587Y-14608008D02*
X5498634Y-14598484D01*
X5651015Y-14779436D02*
X5660539Y-14788960D01*
X5660539Y-14788960D02*
X5651015Y-14798484D01*
X5651015Y-14798484D02*
X5641491Y-14788960D01*
X5641491Y-14788960D02*
X5651015Y-14779436D01*
X5651015Y-14779436D02*
X5651015Y-14798484D01*
X5851015Y-14798484D02*
X5736729Y-14798484D01*
X5793872Y-14798484D02*
X5793872Y-14598484D01*
X5793872Y-14598484D02*
X5774825Y-14627055D01*
X5774825Y-14627055D02*
X5755777Y-14646103D01*
X5755777Y-14646103D02*
X5736729Y-14655627D01*
X5927206Y-14617531D02*
X5936729Y-14608008D01*
X5936729Y-14608008D02*
X5955777Y-14598484D01*
X5955777Y-14598484D02*
X6003396Y-14598484D01*
X6003396Y-14598484D02*
X6022444Y-14608008D01*
X6022444Y-14608008D02*
X6031967Y-14617531D01*
X6031967Y-14617531D02*
X6041491Y-14636579D01*
X6041491Y-14636579D02*
X6041491Y-14655627D01*
X6041491Y-14655627D02*
X6031967Y-14684198D01*
X6031967Y-14684198D02*
X5917682Y-14798484D01*
X5917682Y-14798484D02*
X6041491Y-14798484D01*
X6155777Y-14684198D02*
X6136729Y-14674674D01*
X6136729Y-14674674D02*
X6127206Y-14665150D01*
X6127206Y-14665150D02*
X6117682Y-14646103D01*
X6117682Y-14646103D02*
X6117682Y-14636579D01*
X6117682Y-14636579D02*
X6127206Y-14617531D01*
X6127206Y-14617531D02*
X6136729Y-14608008D01*
X6136729Y-14608008D02*
X6155777Y-14598484D01*
X6155777Y-14598484D02*
X6193872Y-14598484D01*
X6193872Y-14598484D02*
X6212920Y-14608008D01*
X6212920Y-14608008D02*
X6222444Y-14617531D01*
X6222444Y-14617531D02*
X6231967Y-14636579D01*
X6231967Y-14636579D02*
X6231967Y-14646103D01*
X6231967Y-14646103D02*
X6222444Y-14665150D01*
X6222444Y-14665150D02*
X6212920Y-14674674D01*
X6212920Y-14674674D02*
X6193872Y-14684198D01*
X6193872Y-14684198D02*
X6155777Y-14684198D01*
X6155777Y-14684198D02*
X6136729Y-14693722D01*
X6136729Y-14693722D02*
X6127206Y-14703246D01*
X6127206Y-14703246D02*
X6117682Y-14722293D01*
X6117682Y-14722293D02*
X6117682Y-14760388D01*
X6117682Y-14760388D02*
X6127206Y-14779436D01*
X6127206Y-14779436D02*
X6136729Y-14788960D01*
X6136729Y-14788960D02*
X6155777Y-14798484D01*
X6155777Y-14798484D02*
X6193872Y-14798484D01*
X6193872Y-14798484D02*
X6212920Y-14788960D01*
X6212920Y-14788960D02*
X6222444Y-14779436D01*
X6222444Y-14779436D02*
X6231967Y-14760388D01*
X6231967Y-14760388D02*
X6231967Y-14722293D01*
X6231967Y-14722293D02*
X6222444Y-14703246D01*
X6222444Y-14703246D02*
X6212920Y-14693722D01*
X6212920Y-14693722D02*
X6193872Y-14684198D01*
X6355777Y-14598484D02*
X6374825Y-14598484D01*
X6374825Y-14598484D02*
X6393872Y-14608008D01*
X6393872Y-14608008D02*
X6403396Y-14617531D01*
X6403396Y-14617531D02*
X6412920Y-14636579D01*
X6412920Y-14636579D02*
X6422444Y-14674674D01*
X6422444Y-14674674D02*
X6422444Y-14722293D01*
X6422444Y-14722293D02*
X6412920Y-14760388D01*
X6412920Y-14760388D02*
X6403396Y-14779436D01*
X6403396Y-14779436D02*
X6393872Y-14788960D01*
X6393872Y-14788960D02*
X6374825Y-14798484D01*
X6374825Y-14798484D02*
X6355777Y-14798484D01*
X6355777Y-14798484D02*
X6336729Y-14788960D01*
X6336729Y-14788960D02*
X6327206Y-14779436D01*
X6327206Y-14779436D02*
X6317682Y-14760388D01*
X6317682Y-14760388D02*
X6308158Y-14722293D01*
X6308158Y-14722293D02*
X6308158Y-14674674D01*
X6308158Y-14674674D02*
X6317682Y-14636579D01*
X6317682Y-14636579D02*
X6327206Y-14617531D01*
X6327206Y-14617531D02*
X6336729Y-14608008D01*
X6336729Y-14608008D02*
X6355777Y-14598484D01*
X6498634Y-14598484D02*
X6498634Y-14636579D01*
X6574825Y-14598484D02*
X6574825Y-14636579D01*
X6870063Y-14874674D02*
X6860539Y-14865150D01*
X6860539Y-14865150D02*
X6841491Y-14836579D01*
X6841491Y-14836579D02*
X6831968Y-14817531D01*
X6831968Y-14817531D02*
X6822444Y-14788960D01*
X6822444Y-14788960D02*
X6812920Y-14741341D01*
X6812920Y-14741341D02*
X6812920Y-14703246D01*
X6812920Y-14703246D02*
X6822444Y-14655627D01*
X6822444Y-14655627D02*
X6831968Y-14627055D01*
X6831968Y-14627055D02*
X6841491Y-14608008D01*
X6841491Y-14608008D02*
X6860539Y-14579436D01*
X6860539Y-14579436D02*
X6870063Y-14569912D01*
X7031968Y-14665150D02*
X7031968Y-14798484D01*
X6984348Y-14588960D02*
X6936729Y-14731817D01*
X6936729Y-14731817D02*
X7060539Y-14731817D01*
X7289110Y-14798484D02*
X7289110Y-14598484D01*
X7374825Y-14798484D02*
X7374825Y-14693722D01*
X7374825Y-14693722D02*
X7365301Y-14674674D01*
X7365301Y-14674674D02*
X7346253Y-14665150D01*
X7346253Y-14665150D02*
X7317682Y-14665150D01*
X7317682Y-14665150D02*
X7298634Y-14674674D01*
X7298634Y-14674674D02*
X7289110Y-14684198D01*
X7498634Y-14798484D02*
X7479587Y-14788960D01*
X7479587Y-14788960D02*
X7470063Y-14779436D01*
X7470063Y-14779436D02*
X7460539Y-14760388D01*
X7460539Y-14760388D02*
X7460539Y-14703246D01*
X7460539Y-14703246D02*
X7470063Y-14684198D01*
X7470063Y-14684198D02*
X7479587Y-14674674D01*
X7479587Y-14674674D02*
X7498634Y-14665150D01*
X7498634Y-14665150D02*
X7527206Y-14665150D01*
X7527206Y-14665150D02*
X7546253Y-14674674D01*
X7546253Y-14674674D02*
X7555777Y-14684198D01*
X7555777Y-14684198D02*
X7565301Y-14703246D01*
X7565301Y-14703246D02*
X7565301Y-14760388D01*
X7565301Y-14760388D02*
X7555777Y-14779436D01*
X7555777Y-14779436D02*
X7546253Y-14788960D01*
X7546253Y-14788960D02*
X7527206Y-14798484D01*
X7527206Y-14798484D02*
X7498634Y-14798484D01*
X7679587Y-14798484D02*
X7660539Y-14788960D01*
X7660539Y-14788960D02*
X7651015Y-14769912D01*
X7651015Y-14769912D02*
X7651015Y-14598484D01*
X7831968Y-14788960D02*
X7812920Y-14798484D01*
X7812920Y-14798484D02*
X7774825Y-14798484D01*
X7774825Y-14798484D02*
X7755777Y-14788960D01*
X7755777Y-14788960D02*
X7746253Y-14769912D01*
X7746253Y-14769912D02*
X7746253Y-14693722D01*
X7746253Y-14693722D02*
X7755777Y-14674674D01*
X7755777Y-14674674D02*
X7774825Y-14665150D01*
X7774825Y-14665150D02*
X7812920Y-14665150D01*
X7812920Y-14665150D02*
X7831968Y-14674674D01*
X7831968Y-14674674D02*
X7841491Y-14693722D01*
X7841491Y-14693722D02*
X7841491Y-14712769D01*
X7841491Y-14712769D02*
X7746253Y-14731817D01*
X7917682Y-14788960D02*
X7936730Y-14798484D01*
X7936730Y-14798484D02*
X7974825Y-14798484D01*
X7974825Y-14798484D02*
X7993872Y-14788960D01*
X7993872Y-14788960D02*
X8003396Y-14769912D01*
X8003396Y-14769912D02*
X8003396Y-14760388D01*
X8003396Y-14760388D02*
X7993872Y-14741341D01*
X7993872Y-14741341D02*
X7974825Y-14731817D01*
X7974825Y-14731817D02*
X7946253Y-14731817D01*
X7946253Y-14731817D02*
X7927206Y-14722293D01*
X7927206Y-14722293D02*
X7917682Y-14703246D01*
X7917682Y-14703246D02*
X7917682Y-14693722D01*
X7917682Y-14693722D02*
X7927206Y-14674674D01*
X7927206Y-14674674D02*
X7946253Y-14665150D01*
X7946253Y-14665150D02*
X7974825Y-14665150D01*
X7974825Y-14665150D02*
X7993872Y-14674674D01*
X8070063Y-14874674D02*
X8079587Y-14865150D01*
X8079587Y-14865150D02*
X8098634Y-14836579D01*
X8098634Y-14836579D02*
X8108158Y-14817531D01*
X8108158Y-14817531D02*
X8117682Y-14788960D01*
X8117682Y-14788960D02*
X8127206Y-14741341D01*
X8127206Y-14741341D02*
X8127206Y-14703246D01*
X8127206Y-14703246D02*
X8117682Y-14655627D01*
X8117682Y-14655627D02*
X8108158Y-14627055D01*
X8108158Y-14627055D02*
X8098634Y-14608008D01*
X8098634Y-14608008D02*
X8079587Y-14579436D01*
X8079587Y-14579436D02*
X8070063Y-14569912D01*
M02*
